%TF.GenerationSoftware,KiCad,Pcbnew,8.0.4*%
%TF.CreationDate,2024-11-30T23:44:54+01:00*%
%TF.ProjectId,ALL_PCBS,414c4c5f-5043-4425-932e-6b696361645f,rev?*%
%TF.SameCoordinates,Original*%
%TF.FileFunction,Drillmap*%
%TF.FilePolarity,Positive*%
%FSLAX45Y45*%
G04 Gerber Fmt 4.5, Leading zero omitted, Abs format (unit mm)*
G04 Created by KiCad (PCBNEW 8.0.4) date 2024-11-30 23:44:54*
%MOMM*%
%LPD*%
G01*
G04 APERTURE LIST*
%ADD10C,0.050000*%
%ADD11C,0.200000*%
%ADD12C,0.100000*%
%ADD13C,0.210000*%
G04 APERTURE END LIST*
D10*
X17993000Y-12687000D02*
X22788000Y-12687000D01*
X14894000Y-12687000D02*
X17527000Y-12687000D01*
X9088000Y-12687000D02*
X14428000Y-12687000D01*
X17527000Y-12941000D02*
X14894000Y-12941000D01*
X17993000Y-12941000D02*
X18007000Y-12941000D01*
X14407000Y-12941000D02*
X14428000Y-12941000D01*
X17344000Y-9687000D02*
X22273000Y-9687000D01*
X14569000Y-9687000D02*
X9566000Y-9687000D01*
X15035000Y-9687000D02*
X16878000Y-9687000D01*
X22788000Y-9687000D02*
X22739000Y-9687000D01*
X22296000Y-8633000D02*
X22291000Y-8633000D01*
X22366000Y-8633000D02*
X22296000Y-8633000D01*
X22291000Y-8633000D02*
X22206000Y-8633000D01*
X22101000Y-9383000D02*
X22101000Y-8683000D01*
X22911645Y-8633000D02*
X22891000Y-8633000D01*
X22273000Y-9433000D02*
X22151000Y-9433000D01*
X22891000Y-9433000D02*
X22739000Y-9433000D01*
X22911645Y-8633000D02*
G75*
G02*
X22961645Y-8683000I-8J-50008D01*
G01*
X22911645Y-9433000D02*
X22891000Y-9433000D01*
X22168000Y-8633000D02*
X22151000Y-8633000D01*
X22961645Y-9383000D02*
G75*
G02*
X22911645Y-9433000I-49997J-3D01*
G01*
X22206000Y-8633000D02*
X22168000Y-8633000D01*
X22101000Y-8683000D02*
G75*
G02*
X22151000Y-8633000I50000J0D01*
G01*
X22961645Y-9183000D02*
X22961645Y-9383000D01*
X22151000Y-9433000D02*
G75*
G02*
X22101000Y-9383000I0J50000D01*
G01*
X22961645Y-8883000D02*
X22961645Y-9183000D01*
X22366000Y-8633000D02*
X22891000Y-8633000D01*
X22961645Y-8683000D02*
X22961645Y-8883000D01*
X9100000Y-9433000D02*
X8978000Y-9433000D01*
X9718000Y-9433000D02*
X9566000Y-9433000D01*
X9100000Y-9687000D02*
X9088000Y-9687000D01*
X9788645Y-8683000D02*
X9788645Y-8883000D01*
X9193000Y-8633000D02*
X9718000Y-8633000D01*
X9788645Y-9383000D02*
G75*
G02*
X9738645Y-9433005I-50005J0D01*
G01*
X9788645Y-8883000D02*
X9788645Y-9183000D01*
X8995000Y-8633000D02*
X8978000Y-8633000D01*
X8978000Y-9433000D02*
G75*
G02*
X8928000Y-9383000I0J50000D01*
G01*
X9788645Y-9183000D02*
X9788645Y-9383000D01*
X8928000Y-8683000D02*
G75*
G02*
X8978000Y-8633000I50000J0D01*
G01*
X9033000Y-8633000D02*
X8995000Y-8633000D01*
X9738645Y-9433000D02*
X9718000Y-9433000D01*
X9193000Y-8633000D02*
X9123000Y-8633000D01*
X9738645Y-8633000D02*
X9718000Y-8633000D01*
X8928000Y-9383000D02*
X8928000Y-8683000D01*
X9123000Y-8633000D02*
X9118000Y-8633000D01*
X9118000Y-8633000D02*
X9033000Y-8633000D01*
X9738645Y-8633000D02*
G75*
G02*
X9788640Y-8683000I-5J-50000D01*
G01*
X22788000Y-9687000D02*
G75*
G02*
X23188000Y-10087000I0J-400000D01*
G01*
X8688000Y-10087000D02*
G75*
G02*
X9088000Y-9687000I400000J0D01*
G01*
X23188000Y-10087000D02*
X23188000Y-12287000D01*
X23188000Y-12287000D02*
G75*
G02*
X22788000Y-12687000I-400000J0D01*
G01*
X8688000Y-12287000D02*
X8688000Y-10087000D01*
X9088000Y-12687000D02*
G75*
G02*
X8688000Y-12287000I0J400000D01*
G01*
X14332000Y-13866000D02*
X14182000Y-13866000D01*
X15282000Y-13866000D02*
G75*
G02*
X15482000Y-14066000I0J-200000D01*
G01*
X14182000Y-13166000D02*
X14407000Y-12941000D01*
X12732000Y-13166000D02*
X14182000Y-13166000D01*
X14532000Y-14116000D02*
X14532000Y-14066000D01*
X16617355Y-14166000D02*
G75*
G02*
X16667350Y-14216000I5J-49990D01*
G01*
X15082000Y-14066000D02*
G75*
G02*
X15282000Y-13866000I200000J0D01*
G01*
X17132000Y-13866000D02*
G75*
G02*
X17332000Y-14066000I0J-200000D01*
G01*
X21357000Y-14841000D02*
G75*
G02*
X21357000Y-14991000I-75000J-75000D01*
G01*
X18232000Y-13166000D02*
X18007000Y-12941000D01*
X19682000Y-13166000D02*
X21357000Y-14841000D01*
X19332000Y-13866000D02*
X20682000Y-15216000D01*
X15746645Y-14216355D02*
X15746645Y-14366000D01*
X16717355Y-14416000D02*
G75*
G02*
X16667350Y-14366000I5J50010D01*
G01*
X19682000Y-13166000D02*
X18232000Y-13166000D01*
X17882000Y-14066000D02*
X17882000Y-14116000D01*
X12732000Y-13166000D02*
X11057000Y-14841000D01*
X18232000Y-13866000D02*
X19332000Y-13866000D01*
X13082000Y-13866000D02*
X11732000Y-15216000D01*
X11282000Y-15216000D02*
X11057000Y-14991000D01*
X16932000Y-14066000D02*
X16932000Y-14366000D01*
X15532000Y-14416000D02*
G75*
G02*
X15482000Y-14366000I0J50000D01*
G01*
X14332000Y-13866000D02*
G75*
G02*
X14532000Y-14066000I0J-200000D01*
G01*
X16882000Y-14416000D02*
X16732000Y-14416000D01*
X11732000Y-15216000D02*
X11282000Y-15216000D01*
X16932000Y-14366000D02*
G75*
G02*
X16882000Y-14416000I-50000J0D01*
G01*
X17332000Y-14116000D02*
X17332000Y-14066000D01*
X21357000Y-14991000D02*
X21132000Y-15216000D01*
X16932000Y-14066000D02*
G75*
G02*
X17132000Y-13866000I200000J0D01*
G01*
X17882000Y-14066000D02*
G75*
G02*
X18082000Y-13866000I200000J0D01*
G01*
X18232000Y-13866000D02*
X18082000Y-13866000D01*
X17882000Y-14116000D02*
G75*
G02*
X17332000Y-14116000I-275000J0D01*
G01*
X15682000Y-14416000D02*
X15532000Y-14416000D01*
X15746645Y-14366000D02*
G75*
G02*
X15696645Y-14415995I-49995J0D01*
G01*
X14182000Y-13866000D02*
X13082000Y-13866000D01*
X15482000Y-14066000D02*
X15482000Y-14366000D01*
X16732000Y-14416000D02*
X16717355Y-14416000D01*
X15682000Y-14416000D02*
X15696645Y-14416000D01*
X15746645Y-14216000D02*
G75*
G02*
X15796645Y-14165995I50005J0D01*
G01*
X15082000Y-14116000D02*
G75*
G02*
X14532000Y-14116000I-275000J0D01*
G01*
X16667355Y-14366000D02*
X16667355Y-14216000D01*
X15796645Y-14166000D02*
X16617355Y-14166000D01*
X20682000Y-15216000D02*
X21132000Y-15216000D01*
X15082000Y-14116000D02*
X15082000Y-14066000D01*
X11057000Y-14991000D02*
G75*
G02*
X11057000Y-14841000I75000J75000D01*
G01*
X14555700Y-9433000D02*
G75*
G02*
X14205700Y-9083000I0J350000D01*
G01*
X17705700Y-8433000D02*
X17705700Y-9083000D01*
X14205700Y-8433000D02*
G75*
G02*
X14905700Y-8433000I350000J0D01*
G01*
X17705700Y-9083000D02*
G75*
G02*
X17355700Y-9433000I-350000J0D01*
G01*
X14905700Y-8433000D02*
X17005700Y-8433000D01*
X14205700Y-9083000D02*
X14205700Y-8433000D01*
X17005700Y-8433000D02*
G75*
G02*
X17705700Y-8433000I350000J0D01*
G01*
X17344000Y-9433000D02*
X17355700Y-9433000D01*
X16878000Y-9433000D02*
X15035000Y-9433000D01*
X14555700Y-9433000D02*
X14569000Y-9433000D01*
X17993000Y-12941000D02*
G75*
G02*
X17993000Y-12687000I0J127000D01*
G01*
X17527000Y-12687000D02*
G75*
G02*
X17527000Y-12941000I0J-127000D01*
G01*
X14894000Y-12941000D02*
G75*
G02*
X14894000Y-12687000I0J127000D01*
G01*
X14428000Y-12687000D02*
G75*
G02*
X14428000Y-12941000I0J-127000D01*
G01*
X22273000Y-9433000D02*
G75*
G02*
X22273000Y-9687000I0J-127000D01*
G01*
X22739000Y-9687000D02*
G75*
G02*
X22739000Y-9433000I0J127000D01*
G01*
X9100000Y-9433000D02*
G75*
G02*
X9100000Y-9687000I0J-127000D01*
G01*
X9566000Y-9687000D02*
G75*
G02*
X9566000Y-9433000I0J127000D01*
G01*
X16878000Y-9433000D02*
G75*
G02*
X16878000Y-9687000I0J-127000D01*
G01*
X17344000Y-9687000D02*
G75*
G02*
X17344000Y-9433000I0J127000D01*
G01*
X14569000Y-9433000D02*
G75*
G02*
X14569000Y-9687000I0J-127000D01*
G01*
X15035000Y-9687000D02*
G75*
G02*
X15035000Y-9433000I0J127000D01*
G01*
D11*
D12*
X9208000Y-9428000D02*
X9258000Y-9478000D01*
X9258000Y-9428000D02*
X9208000Y-9478000D01*
X9208000Y-9641000D02*
X9258000Y-9691000D01*
X9258000Y-9641000D02*
X9208000Y-9691000D01*
X9307000Y-9428000D02*
X9357000Y-9478000D01*
X9357000Y-9428000D02*
X9307000Y-9478000D01*
X9308000Y-9641000D02*
X9358000Y-9691000D01*
X9358000Y-9641000D02*
X9308000Y-9691000D01*
X9408000Y-9428000D02*
X9458000Y-9478000D01*
X9458000Y-9428000D02*
X9408000Y-9478000D01*
X9408000Y-9641000D02*
X9458000Y-9691000D01*
X9458000Y-9641000D02*
X9408000Y-9691000D01*
X14536000Y-12682000D02*
X14586000Y-12732000D01*
X14586000Y-12682000D02*
X14536000Y-12732000D01*
X14536000Y-12895000D02*
X14586000Y-12945000D01*
X14586000Y-12895000D02*
X14536000Y-12945000D01*
X14635000Y-12682000D02*
X14685000Y-12732000D01*
X14685000Y-12682000D02*
X14635000Y-12732000D01*
X14636000Y-12895000D02*
X14686000Y-12945000D01*
X14686000Y-12895000D02*
X14636000Y-12945000D01*
X14677000Y-9428000D02*
X14727000Y-9478000D01*
X14727000Y-9428000D02*
X14677000Y-9478000D01*
X14677000Y-9641000D02*
X14727000Y-9691000D01*
X14727000Y-9641000D02*
X14677000Y-9691000D01*
X14736000Y-12682000D02*
X14786000Y-12732000D01*
X14786000Y-12682000D02*
X14736000Y-12732000D01*
X14736000Y-12895000D02*
X14786000Y-12945000D01*
X14786000Y-12895000D02*
X14736000Y-12945000D01*
X14776000Y-9428000D02*
X14826000Y-9478000D01*
X14826000Y-9428000D02*
X14776000Y-9478000D01*
X14777000Y-9641000D02*
X14827000Y-9691000D01*
X14827000Y-9641000D02*
X14777000Y-9691000D01*
X14877000Y-9428000D02*
X14927000Y-9478000D01*
X14927000Y-9428000D02*
X14877000Y-9478000D01*
X14877000Y-9641000D02*
X14927000Y-9691000D01*
X14927000Y-9641000D02*
X14877000Y-9691000D01*
X16986000Y-9428000D02*
X17036000Y-9478000D01*
X17036000Y-9428000D02*
X16986000Y-9478000D01*
X16986000Y-9641000D02*
X17036000Y-9691000D01*
X17036000Y-9641000D02*
X16986000Y-9691000D01*
X17085000Y-9428000D02*
X17135000Y-9478000D01*
X17135000Y-9428000D02*
X17085000Y-9478000D01*
X17086000Y-9641000D02*
X17136000Y-9691000D01*
X17136000Y-9641000D02*
X17086000Y-9691000D01*
X17186000Y-9428000D02*
X17236000Y-9478000D01*
X17236000Y-9428000D02*
X17186000Y-9478000D01*
X17186000Y-9641000D02*
X17236000Y-9691000D01*
X17236000Y-9641000D02*
X17186000Y-9691000D01*
X17635000Y-12682000D02*
X17685000Y-12732000D01*
X17685000Y-12682000D02*
X17635000Y-12732000D01*
X17635000Y-12895000D02*
X17685000Y-12945000D01*
X17685000Y-12895000D02*
X17635000Y-12945000D01*
X17734000Y-12682000D02*
X17784000Y-12732000D01*
X17784000Y-12682000D02*
X17734000Y-12732000D01*
X17735000Y-12895000D02*
X17785000Y-12945000D01*
X17785000Y-12895000D02*
X17735000Y-12945000D01*
X17835000Y-12682000D02*
X17885000Y-12732000D01*
X17885000Y-12682000D02*
X17835000Y-12732000D01*
X17835000Y-12895000D02*
X17885000Y-12945000D01*
X17885000Y-12895000D02*
X17835000Y-12945000D01*
X22381000Y-9428000D02*
X22431000Y-9478000D01*
X22431000Y-9428000D02*
X22381000Y-9478000D01*
X22381000Y-9641000D02*
X22431000Y-9691000D01*
X22431000Y-9641000D02*
X22381000Y-9691000D01*
X22480000Y-9428000D02*
X22530000Y-9478000D01*
X22530000Y-9428000D02*
X22480000Y-9478000D01*
X22481000Y-9641000D02*
X22531000Y-9691000D01*
X22531000Y-9641000D02*
X22481000Y-9691000D01*
X22581000Y-9428000D02*
X22631000Y-9478000D01*
X22631000Y-9428000D02*
X22581000Y-9478000D01*
X22581000Y-9641000D02*
X22631000Y-9691000D01*
X22631000Y-9641000D02*
X22581000Y-9691000D01*
X13033000Y-12287000D02*
G75*
G02*
X12943000Y-12287000I-45000J0D01*
G01*
X12943000Y-12287000D02*
G75*
G02*
X13033000Y-12287000I45000J0D01*
G01*
X13833000Y-12287000D02*
G75*
G02*
X13743000Y-12287000I-45000J0D01*
G01*
X13743000Y-12287000D02*
G75*
G02*
X13833000Y-12287000I45000J0D01*
G01*
X15348000Y-12498000D02*
G75*
G02*
X15258000Y-12498000I-45000J0D01*
G01*
X15258000Y-12498000D02*
G75*
G02*
X15348000Y-12498000I45000J0D01*
G01*
X15648000Y-12498000D02*
G75*
G02*
X15558000Y-12498000I-45000J0D01*
G01*
X15558000Y-12498000D02*
G75*
G02*
X15648000Y-12498000I45000J0D01*
G01*
D13*
X9118000Y-10192000D02*
X9118000Y-10402000D01*
X9013000Y-10297000D02*
X9223000Y-10297000D01*
X9118000Y-11972000D02*
X9118000Y-12182000D01*
X9013000Y-12077000D02*
X9223000Y-12077000D01*
X14538000Y-9982000D02*
X14538000Y-10192000D01*
X14433000Y-10087000D02*
X14643000Y-10087000D01*
X14538000Y-12182000D02*
X14538000Y-12392000D01*
X14433000Y-12287000D02*
X14643000Y-12287000D01*
X14555700Y-8328000D02*
X14555700Y-8538000D01*
X14450700Y-8433000D02*
X14660700Y-8433000D01*
X14555700Y-8978000D02*
X14555700Y-9188000D01*
X14450700Y-9083000D02*
X14660700Y-9083000D01*
X14807000Y-14011000D02*
X14807000Y-14221000D01*
X14702000Y-14116000D02*
X14912000Y-14116000D01*
X17338000Y-9982000D02*
X17338000Y-10192000D01*
X17233000Y-10087000D02*
X17443000Y-10087000D01*
X17338000Y-12182000D02*
X17338000Y-12392000D01*
X17233000Y-12287000D02*
X17443000Y-12287000D01*
X17355700Y-8328000D02*
X17355700Y-8538000D01*
X17250700Y-8433000D02*
X17460700Y-8433000D01*
X17355700Y-8978000D02*
X17355700Y-9188000D01*
X17250700Y-9083000D02*
X17460700Y-9083000D01*
X17607000Y-14011000D02*
X17607000Y-14221000D01*
X17502000Y-14116000D02*
X17712000Y-14116000D01*
X22758000Y-10192000D02*
X22758000Y-10402000D01*
X22653000Y-10297000D02*
X22863000Y-10297000D01*
X22758000Y-11972000D02*
X22758000Y-12182000D01*
X22653000Y-12077000D02*
X22863000Y-12077000D01*
D11*
X8946277Y-15529984D02*
X8946277Y-15329984D01*
X8946277Y-15329984D02*
X8993896Y-15329984D01*
X8993896Y-15329984D02*
X9022467Y-15339508D01*
X9022467Y-15339508D02*
X9041515Y-15358555D01*
X9041515Y-15358555D02*
X9051039Y-15377603D01*
X9051039Y-15377603D02*
X9060563Y-15415698D01*
X9060563Y-15415698D02*
X9060563Y-15444269D01*
X9060563Y-15444269D02*
X9051039Y-15482365D01*
X9051039Y-15482365D02*
X9041515Y-15501412D01*
X9041515Y-15501412D02*
X9022467Y-15520460D01*
X9022467Y-15520460D02*
X8993896Y-15529984D01*
X8993896Y-15529984D02*
X8946277Y-15529984D01*
X9146277Y-15529984D02*
X9146277Y-15396650D01*
X9146277Y-15434746D02*
X9155801Y-15415698D01*
X9155801Y-15415698D02*
X9165324Y-15406174D01*
X9165324Y-15406174D02*
X9184372Y-15396650D01*
X9184372Y-15396650D02*
X9203420Y-15396650D01*
X9270086Y-15529984D02*
X9270086Y-15396650D01*
X9270086Y-15329984D02*
X9260563Y-15339508D01*
X9260563Y-15339508D02*
X9270086Y-15349031D01*
X9270086Y-15349031D02*
X9279610Y-15339508D01*
X9279610Y-15339508D02*
X9270086Y-15329984D01*
X9270086Y-15329984D02*
X9270086Y-15349031D01*
X9393896Y-15529984D02*
X9374848Y-15520460D01*
X9374848Y-15520460D02*
X9365324Y-15501412D01*
X9365324Y-15501412D02*
X9365324Y-15329984D01*
X9498658Y-15529984D02*
X9479610Y-15520460D01*
X9479610Y-15520460D02*
X9470086Y-15501412D01*
X9470086Y-15501412D02*
X9470086Y-15329984D01*
X9727229Y-15529984D02*
X9727229Y-15329984D01*
X9727229Y-15329984D02*
X9793896Y-15472841D01*
X9793896Y-15472841D02*
X9860563Y-15329984D01*
X9860563Y-15329984D02*
X9860563Y-15529984D01*
X10041515Y-15529984D02*
X10041515Y-15425222D01*
X10041515Y-15425222D02*
X10031991Y-15406174D01*
X10031991Y-15406174D02*
X10012944Y-15396650D01*
X10012944Y-15396650D02*
X9974848Y-15396650D01*
X9974848Y-15396650D02*
X9955801Y-15406174D01*
X10041515Y-15520460D02*
X10022467Y-15529984D01*
X10022467Y-15529984D02*
X9974848Y-15529984D01*
X9974848Y-15529984D02*
X9955801Y-15520460D01*
X9955801Y-15520460D02*
X9946277Y-15501412D01*
X9946277Y-15501412D02*
X9946277Y-15482365D01*
X9946277Y-15482365D02*
X9955801Y-15463317D01*
X9955801Y-15463317D02*
X9974848Y-15453793D01*
X9974848Y-15453793D02*
X10022467Y-15453793D01*
X10022467Y-15453793D02*
X10041515Y-15444269D01*
X10136753Y-15396650D02*
X10136753Y-15596650D01*
X10136753Y-15406174D02*
X10155801Y-15396650D01*
X10155801Y-15396650D02*
X10193896Y-15396650D01*
X10193896Y-15396650D02*
X10212944Y-15406174D01*
X10212944Y-15406174D02*
X10222467Y-15415698D01*
X10222467Y-15415698D02*
X10231991Y-15434746D01*
X10231991Y-15434746D02*
X10231991Y-15491888D01*
X10231991Y-15491888D02*
X10222467Y-15510936D01*
X10222467Y-15510936D02*
X10212944Y-15520460D01*
X10212944Y-15520460D02*
X10193896Y-15529984D01*
X10193896Y-15529984D02*
X10155801Y-15529984D01*
X10155801Y-15529984D02*
X10136753Y-15520460D01*
X10317705Y-15510936D02*
X10327229Y-15520460D01*
X10327229Y-15520460D02*
X10317705Y-15529984D01*
X10317705Y-15529984D02*
X10308182Y-15520460D01*
X10308182Y-15520460D02*
X10317705Y-15510936D01*
X10317705Y-15510936D02*
X10317705Y-15529984D01*
X10317705Y-15406174D02*
X10327229Y-15415698D01*
X10327229Y-15415698D02*
X10317705Y-15425222D01*
X10317705Y-15425222D02*
X10308182Y-15415698D01*
X10308182Y-15415698D02*
X10317705Y-15406174D01*
X10317705Y-15406174D02*
X10317705Y-15425222D01*
D12*
X8635500Y-15833500D02*
X8685500Y-15883500D01*
X8685500Y-15833500D02*
X8635500Y-15883500D01*
D11*
X8984372Y-15749984D02*
X9003420Y-15749984D01*
X9003420Y-15749984D02*
X9022467Y-15759508D01*
X9022467Y-15759508D02*
X9031991Y-15769031D01*
X9031991Y-15769031D02*
X9041515Y-15788079D01*
X9041515Y-15788079D02*
X9051039Y-15826174D01*
X9051039Y-15826174D02*
X9051039Y-15873793D01*
X9051039Y-15873793D02*
X9041515Y-15911888D01*
X9041515Y-15911888D02*
X9031991Y-15930936D01*
X9031991Y-15930936D02*
X9022467Y-15940460D01*
X9022467Y-15940460D02*
X9003420Y-15949984D01*
X9003420Y-15949984D02*
X8984372Y-15949984D01*
X8984372Y-15949984D02*
X8965324Y-15940460D01*
X8965324Y-15940460D02*
X8955801Y-15930936D01*
X8955801Y-15930936D02*
X8946277Y-15911888D01*
X8946277Y-15911888D02*
X8936753Y-15873793D01*
X8936753Y-15873793D02*
X8936753Y-15826174D01*
X8936753Y-15826174D02*
X8946277Y-15788079D01*
X8946277Y-15788079D02*
X8955801Y-15769031D01*
X8955801Y-15769031D02*
X8965324Y-15759508D01*
X8965324Y-15759508D02*
X8984372Y-15749984D01*
X9136753Y-15930936D02*
X9146277Y-15940460D01*
X9146277Y-15940460D02*
X9136753Y-15949984D01*
X9136753Y-15949984D02*
X9127229Y-15940460D01*
X9127229Y-15940460D02*
X9136753Y-15930936D01*
X9136753Y-15930936D02*
X9136753Y-15949984D01*
X9327229Y-15749984D02*
X9231991Y-15749984D01*
X9231991Y-15749984D02*
X9222467Y-15845222D01*
X9222467Y-15845222D02*
X9231991Y-15835698D01*
X9231991Y-15835698D02*
X9251039Y-15826174D01*
X9251039Y-15826174D02*
X9298658Y-15826174D01*
X9298658Y-15826174D02*
X9317705Y-15835698D01*
X9317705Y-15835698D02*
X9327229Y-15845222D01*
X9327229Y-15845222D02*
X9336753Y-15864269D01*
X9336753Y-15864269D02*
X9336753Y-15911888D01*
X9336753Y-15911888D02*
X9327229Y-15930936D01*
X9327229Y-15930936D02*
X9317705Y-15940460D01*
X9317705Y-15940460D02*
X9298658Y-15949984D01*
X9298658Y-15949984D02*
X9251039Y-15949984D01*
X9251039Y-15949984D02*
X9231991Y-15940460D01*
X9231991Y-15940460D02*
X9222467Y-15930936D01*
X9460563Y-15749984D02*
X9479610Y-15749984D01*
X9479610Y-15749984D02*
X9498658Y-15759508D01*
X9498658Y-15759508D02*
X9508182Y-15769031D01*
X9508182Y-15769031D02*
X9517705Y-15788079D01*
X9517705Y-15788079D02*
X9527229Y-15826174D01*
X9527229Y-15826174D02*
X9527229Y-15873793D01*
X9527229Y-15873793D02*
X9517705Y-15911888D01*
X9517705Y-15911888D02*
X9508182Y-15930936D01*
X9508182Y-15930936D02*
X9498658Y-15940460D01*
X9498658Y-15940460D02*
X9479610Y-15949984D01*
X9479610Y-15949984D02*
X9460563Y-15949984D01*
X9460563Y-15949984D02*
X9441515Y-15940460D01*
X9441515Y-15940460D02*
X9431991Y-15930936D01*
X9431991Y-15930936D02*
X9422467Y-15911888D01*
X9422467Y-15911888D02*
X9412944Y-15873793D01*
X9412944Y-15873793D02*
X9412944Y-15826174D01*
X9412944Y-15826174D02*
X9422467Y-15788079D01*
X9422467Y-15788079D02*
X9431991Y-15769031D01*
X9431991Y-15769031D02*
X9441515Y-15759508D01*
X9441515Y-15759508D02*
X9460563Y-15749984D01*
X9651039Y-15749984D02*
X9670086Y-15749984D01*
X9670086Y-15749984D02*
X9689134Y-15759508D01*
X9689134Y-15759508D02*
X9698658Y-15769031D01*
X9698658Y-15769031D02*
X9708182Y-15788079D01*
X9708182Y-15788079D02*
X9717705Y-15826174D01*
X9717705Y-15826174D02*
X9717705Y-15873793D01*
X9717705Y-15873793D02*
X9708182Y-15911888D01*
X9708182Y-15911888D02*
X9698658Y-15930936D01*
X9698658Y-15930936D02*
X9689134Y-15940460D01*
X9689134Y-15940460D02*
X9670086Y-15949984D01*
X9670086Y-15949984D02*
X9651039Y-15949984D01*
X9651039Y-15949984D02*
X9631991Y-15940460D01*
X9631991Y-15940460D02*
X9622467Y-15930936D01*
X9622467Y-15930936D02*
X9612944Y-15911888D01*
X9612944Y-15911888D02*
X9603420Y-15873793D01*
X9603420Y-15873793D02*
X9603420Y-15826174D01*
X9603420Y-15826174D02*
X9612944Y-15788079D01*
X9612944Y-15788079D02*
X9622467Y-15769031D01*
X9622467Y-15769031D02*
X9631991Y-15759508D01*
X9631991Y-15759508D02*
X9651039Y-15749984D01*
X9803420Y-15949984D02*
X9803420Y-15816650D01*
X9803420Y-15835698D02*
X9812944Y-15826174D01*
X9812944Y-15826174D02*
X9831991Y-15816650D01*
X9831991Y-15816650D02*
X9860563Y-15816650D01*
X9860563Y-15816650D02*
X9879610Y-15826174D01*
X9879610Y-15826174D02*
X9889134Y-15845222D01*
X9889134Y-15845222D02*
X9889134Y-15949984D01*
X9889134Y-15845222D02*
X9898658Y-15826174D01*
X9898658Y-15826174D02*
X9917705Y-15816650D01*
X9917705Y-15816650D02*
X9946277Y-15816650D01*
X9946277Y-15816650D02*
X9965325Y-15826174D01*
X9965325Y-15826174D02*
X9974848Y-15845222D01*
X9974848Y-15845222D02*
X9974848Y-15949984D01*
X10070086Y-15949984D02*
X10070086Y-15816650D01*
X10070086Y-15835698D02*
X10079610Y-15826174D01*
X10079610Y-15826174D02*
X10098658Y-15816650D01*
X10098658Y-15816650D02*
X10127229Y-15816650D01*
X10127229Y-15816650D02*
X10146277Y-15826174D01*
X10146277Y-15826174D02*
X10155801Y-15845222D01*
X10155801Y-15845222D02*
X10155801Y-15949984D01*
X10155801Y-15845222D02*
X10165325Y-15826174D01*
X10165325Y-15826174D02*
X10184372Y-15816650D01*
X10184372Y-15816650D02*
X10212944Y-15816650D01*
X10212944Y-15816650D02*
X10231991Y-15826174D01*
X10231991Y-15826174D02*
X10241515Y-15845222D01*
X10241515Y-15845222D02*
X10241515Y-15949984D01*
X10631991Y-15740460D02*
X10460563Y-15997603D01*
X10889134Y-15749984D02*
X10908182Y-15749984D01*
X10908182Y-15749984D02*
X10927229Y-15759508D01*
X10927229Y-15759508D02*
X10936753Y-15769031D01*
X10936753Y-15769031D02*
X10946277Y-15788079D01*
X10946277Y-15788079D02*
X10955801Y-15826174D01*
X10955801Y-15826174D02*
X10955801Y-15873793D01*
X10955801Y-15873793D02*
X10946277Y-15911888D01*
X10946277Y-15911888D02*
X10936753Y-15930936D01*
X10936753Y-15930936D02*
X10927229Y-15940460D01*
X10927229Y-15940460D02*
X10908182Y-15949984D01*
X10908182Y-15949984D02*
X10889134Y-15949984D01*
X10889134Y-15949984D02*
X10870087Y-15940460D01*
X10870087Y-15940460D02*
X10860563Y-15930936D01*
X10860563Y-15930936D02*
X10851039Y-15911888D01*
X10851039Y-15911888D02*
X10841515Y-15873793D01*
X10841515Y-15873793D02*
X10841515Y-15826174D01*
X10841515Y-15826174D02*
X10851039Y-15788079D01*
X10851039Y-15788079D02*
X10860563Y-15769031D01*
X10860563Y-15769031D02*
X10870087Y-15759508D01*
X10870087Y-15759508D02*
X10889134Y-15749984D01*
X11041515Y-15930936D02*
X11051039Y-15940460D01*
X11051039Y-15940460D02*
X11041515Y-15949984D01*
X11041515Y-15949984D02*
X11031991Y-15940460D01*
X11031991Y-15940460D02*
X11041515Y-15930936D01*
X11041515Y-15930936D02*
X11041515Y-15949984D01*
X11174848Y-15749984D02*
X11193896Y-15749984D01*
X11193896Y-15749984D02*
X11212944Y-15759508D01*
X11212944Y-15759508D02*
X11222467Y-15769031D01*
X11222467Y-15769031D02*
X11231991Y-15788079D01*
X11231991Y-15788079D02*
X11241515Y-15826174D01*
X11241515Y-15826174D02*
X11241515Y-15873793D01*
X11241515Y-15873793D02*
X11231991Y-15911888D01*
X11231991Y-15911888D02*
X11222467Y-15930936D01*
X11222467Y-15930936D02*
X11212944Y-15940460D01*
X11212944Y-15940460D02*
X11193896Y-15949984D01*
X11193896Y-15949984D02*
X11174848Y-15949984D01*
X11174848Y-15949984D02*
X11155801Y-15940460D01*
X11155801Y-15940460D02*
X11146277Y-15930936D01*
X11146277Y-15930936D02*
X11136753Y-15911888D01*
X11136753Y-15911888D02*
X11127229Y-15873793D01*
X11127229Y-15873793D02*
X11127229Y-15826174D01*
X11127229Y-15826174D02*
X11136753Y-15788079D01*
X11136753Y-15788079D02*
X11146277Y-15769031D01*
X11146277Y-15769031D02*
X11155801Y-15759508D01*
X11155801Y-15759508D02*
X11174848Y-15749984D01*
X11431991Y-15949984D02*
X11317706Y-15949984D01*
X11374848Y-15949984D02*
X11374848Y-15749984D01*
X11374848Y-15749984D02*
X11355801Y-15778555D01*
X11355801Y-15778555D02*
X11336753Y-15797603D01*
X11336753Y-15797603D02*
X11317706Y-15807127D01*
X11527229Y-15949984D02*
X11565325Y-15949984D01*
X11565325Y-15949984D02*
X11584372Y-15940460D01*
X11584372Y-15940460D02*
X11593896Y-15930936D01*
X11593896Y-15930936D02*
X11612944Y-15902365D01*
X11612944Y-15902365D02*
X11622467Y-15864269D01*
X11622467Y-15864269D02*
X11622467Y-15788079D01*
X11622467Y-15788079D02*
X11612944Y-15769031D01*
X11612944Y-15769031D02*
X11603420Y-15759508D01*
X11603420Y-15759508D02*
X11584372Y-15749984D01*
X11584372Y-15749984D02*
X11546277Y-15749984D01*
X11546277Y-15749984D02*
X11527229Y-15759508D01*
X11527229Y-15759508D02*
X11517706Y-15769031D01*
X11517706Y-15769031D02*
X11508182Y-15788079D01*
X11508182Y-15788079D02*
X11508182Y-15835698D01*
X11508182Y-15835698D02*
X11517706Y-15854746D01*
X11517706Y-15854746D02*
X11527229Y-15864269D01*
X11527229Y-15864269D02*
X11546277Y-15873793D01*
X11546277Y-15873793D02*
X11584372Y-15873793D01*
X11584372Y-15873793D02*
X11603420Y-15864269D01*
X11603420Y-15864269D02*
X11612944Y-15854746D01*
X11612944Y-15854746D02*
X11622467Y-15835698D01*
X11689134Y-15749984D02*
X11822467Y-15749984D01*
X11822467Y-15749984D02*
X11736753Y-15949984D01*
X11889134Y-15749984D02*
X11889134Y-15788079D01*
X11965325Y-15749984D02*
X11965325Y-15788079D01*
X12260563Y-16026174D02*
X12251039Y-16016650D01*
X12251039Y-16016650D02*
X12231991Y-15988079D01*
X12231991Y-15988079D02*
X12222468Y-15969031D01*
X12222468Y-15969031D02*
X12212944Y-15940460D01*
X12212944Y-15940460D02*
X12203420Y-15892841D01*
X12203420Y-15892841D02*
X12203420Y-15854746D01*
X12203420Y-15854746D02*
X12212944Y-15807127D01*
X12212944Y-15807127D02*
X12222468Y-15778555D01*
X12222468Y-15778555D02*
X12231991Y-15759508D01*
X12231991Y-15759508D02*
X12251039Y-15730936D01*
X12251039Y-15730936D02*
X12260563Y-15721412D01*
X12317706Y-15749984D02*
X12441515Y-15749984D01*
X12441515Y-15749984D02*
X12374848Y-15826174D01*
X12374848Y-15826174D02*
X12403420Y-15826174D01*
X12403420Y-15826174D02*
X12422468Y-15835698D01*
X12422468Y-15835698D02*
X12431991Y-15845222D01*
X12431991Y-15845222D02*
X12441515Y-15864269D01*
X12441515Y-15864269D02*
X12441515Y-15911888D01*
X12441515Y-15911888D02*
X12431991Y-15930936D01*
X12431991Y-15930936D02*
X12422468Y-15940460D01*
X12422468Y-15940460D02*
X12403420Y-15949984D01*
X12403420Y-15949984D02*
X12346277Y-15949984D01*
X12346277Y-15949984D02*
X12327229Y-15940460D01*
X12327229Y-15940460D02*
X12317706Y-15930936D01*
X12612944Y-15749984D02*
X12574848Y-15749984D01*
X12574848Y-15749984D02*
X12555801Y-15759508D01*
X12555801Y-15759508D02*
X12546277Y-15769031D01*
X12546277Y-15769031D02*
X12527229Y-15797603D01*
X12527229Y-15797603D02*
X12517706Y-15835698D01*
X12517706Y-15835698D02*
X12517706Y-15911888D01*
X12517706Y-15911888D02*
X12527229Y-15930936D01*
X12527229Y-15930936D02*
X12536753Y-15940460D01*
X12536753Y-15940460D02*
X12555801Y-15949984D01*
X12555801Y-15949984D02*
X12593896Y-15949984D01*
X12593896Y-15949984D02*
X12612944Y-15940460D01*
X12612944Y-15940460D02*
X12622468Y-15930936D01*
X12622468Y-15930936D02*
X12631991Y-15911888D01*
X12631991Y-15911888D02*
X12631991Y-15864269D01*
X12631991Y-15864269D02*
X12622468Y-15845222D01*
X12622468Y-15845222D02*
X12612944Y-15835698D01*
X12612944Y-15835698D02*
X12593896Y-15826174D01*
X12593896Y-15826174D02*
X12555801Y-15826174D01*
X12555801Y-15826174D02*
X12536753Y-15835698D01*
X12536753Y-15835698D02*
X12527229Y-15845222D01*
X12527229Y-15845222D02*
X12517706Y-15864269D01*
X12870087Y-15949984D02*
X12870087Y-15749984D01*
X12955801Y-15949984D02*
X12955801Y-15845222D01*
X12955801Y-15845222D02*
X12946277Y-15826174D01*
X12946277Y-15826174D02*
X12927230Y-15816650D01*
X12927230Y-15816650D02*
X12898658Y-15816650D01*
X12898658Y-15816650D02*
X12879610Y-15826174D01*
X12879610Y-15826174D02*
X12870087Y-15835698D01*
X13079610Y-15949984D02*
X13060563Y-15940460D01*
X13060563Y-15940460D02*
X13051039Y-15930936D01*
X13051039Y-15930936D02*
X13041515Y-15911888D01*
X13041515Y-15911888D02*
X13041515Y-15854746D01*
X13041515Y-15854746D02*
X13051039Y-15835698D01*
X13051039Y-15835698D02*
X13060563Y-15826174D01*
X13060563Y-15826174D02*
X13079610Y-15816650D01*
X13079610Y-15816650D02*
X13108182Y-15816650D01*
X13108182Y-15816650D02*
X13127230Y-15826174D01*
X13127230Y-15826174D02*
X13136753Y-15835698D01*
X13136753Y-15835698D02*
X13146277Y-15854746D01*
X13146277Y-15854746D02*
X13146277Y-15911888D01*
X13146277Y-15911888D02*
X13136753Y-15930936D01*
X13136753Y-15930936D02*
X13127230Y-15940460D01*
X13127230Y-15940460D02*
X13108182Y-15949984D01*
X13108182Y-15949984D02*
X13079610Y-15949984D01*
X13260563Y-15949984D02*
X13241515Y-15940460D01*
X13241515Y-15940460D02*
X13231991Y-15921412D01*
X13231991Y-15921412D02*
X13231991Y-15749984D01*
X13412944Y-15940460D02*
X13393896Y-15949984D01*
X13393896Y-15949984D02*
X13355801Y-15949984D01*
X13355801Y-15949984D02*
X13336753Y-15940460D01*
X13336753Y-15940460D02*
X13327230Y-15921412D01*
X13327230Y-15921412D02*
X13327230Y-15845222D01*
X13327230Y-15845222D02*
X13336753Y-15826174D01*
X13336753Y-15826174D02*
X13355801Y-15816650D01*
X13355801Y-15816650D02*
X13393896Y-15816650D01*
X13393896Y-15816650D02*
X13412944Y-15826174D01*
X13412944Y-15826174D02*
X13422468Y-15845222D01*
X13422468Y-15845222D02*
X13422468Y-15864269D01*
X13422468Y-15864269D02*
X13327230Y-15883317D01*
X13498658Y-15940460D02*
X13517706Y-15949984D01*
X13517706Y-15949984D02*
X13555801Y-15949984D01*
X13555801Y-15949984D02*
X13574849Y-15940460D01*
X13574849Y-15940460D02*
X13584372Y-15921412D01*
X13584372Y-15921412D02*
X13584372Y-15911888D01*
X13584372Y-15911888D02*
X13574849Y-15892841D01*
X13574849Y-15892841D02*
X13555801Y-15883317D01*
X13555801Y-15883317D02*
X13527230Y-15883317D01*
X13527230Y-15883317D02*
X13508182Y-15873793D01*
X13508182Y-15873793D02*
X13498658Y-15854746D01*
X13498658Y-15854746D02*
X13498658Y-15845222D01*
X13498658Y-15845222D02*
X13508182Y-15826174D01*
X13508182Y-15826174D02*
X13527230Y-15816650D01*
X13527230Y-15816650D02*
X13555801Y-15816650D01*
X13555801Y-15816650D02*
X13574849Y-15826174D01*
X13651039Y-16026174D02*
X13660563Y-16016650D01*
X13660563Y-16016650D02*
X13679611Y-15988079D01*
X13679611Y-15988079D02*
X13689134Y-15969031D01*
X13689134Y-15969031D02*
X13698658Y-15940460D01*
X13698658Y-15940460D02*
X13708182Y-15892841D01*
X13708182Y-15892841D02*
X13708182Y-15854746D01*
X13708182Y-15854746D02*
X13698658Y-15807127D01*
X13698658Y-15807127D02*
X13689134Y-15778555D01*
X13689134Y-15778555D02*
X13679611Y-15759508D01*
X13679611Y-15759508D02*
X13660563Y-15730936D01*
X13660563Y-15730936D02*
X13651039Y-15721412D01*
X14012944Y-16026174D02*
X14003420Y-16016650D01*
X14003420Y-16016650D02*
X13984372Y-15988079D01*
X13984372Y-15988079D02*
X13974849Y-15969031D01*
X13974849Y-15969031D02*
X13965325Y-15940460D01*
X13965325Y-15940460D02*
X13955801Y-15892841D01*
X13955801Y-15892841D02*
X13955801Y-15854746D01*
X13955801Y-15854746D02*
X13965325Y-15807127D01*
X13965325Y-15807127D02*
X13974849Y-15778555D01*
X13974849Y-15778555D02*
X13984372Y-15759508D01*
X13984372Y-15759508D02*
X14003420Y-15730936D01*
X14003420Y-15730936D02*
X14012944Y-15721412D01*
X14089134Y-15816650D02*
X14089134Y-15949984D01*
X14089134Y-15835698D02*
X14098658Y-15826174D01*
X14098658Y-15826174D02*
X14117706Y-15816650D01*
X14117706Y-15816650D02*
X14146277Y-15816650D01*
X14146277Y-15816650D02*
X14165325Y-15826174D01*
X14165325Y-15826174D02*
X14174849Y-15845222D01*
X14174849Y-15845222D02*
X14174849Y-15949984D01*
X14298658Y-15949984D02*
X14279611Y-15940460D01*
X14279611Y-15940460D02*
X14270087Y-15930936D01*
X14270087Y-15930936D02*
X14260563Y-15911888D01*
X14260563Y-15911888D02*
X14260563Y-15854746D01*
X14260563Y-15854746D02*
X14270087Y-15835698D01*
X14270087Y-15835698D02*
X14279611Y-15826174D01*
X14279611Y-15826174D02*
X14298658Y-15816650D01*
X14298658Y-15816650D02*
X14327230Y-15816650D01*
X14327230Y-15816650D02*
X14346277Y-15826174D01*
X14346277Y-15826174D02*
X14355801Y-15835698D01*
X14355801Y-15835698D02*
X14365325Y-15854746D01*
X14365325Y-15854746D02*
X14365325Y-15911888D01*
X14365325Y-15911888D02*
X14355801Y-15930936D01*
X14355801Y-15930936D02*
X14346277Y-15940460D01*
X14346277Y-15940460D02*
X14327230Y-15949984D01*
X14327230Y-15949984D02*
X14298658Y-15949984D01*
X14422468Y-15816650D02*
X14498658Y-15816650D01*
X14451039Y-15749984D02*
X14451039Y-15921412D01*
X14451039Y-15921412D02*
X14460563Y-15940460D01*
X14460563Y-15940460D02*
X14479611Y-15949984D01*
X14479611Y-15949984D02*
X14498658Y-15949984D01*
X14717706Y-15816650D02*
X14717706Y-16016650D01*
X14717706Y-15826174D02*
X14736753Y-15816650D01*
X14736753Y-15816650D02*
X14774849Y-15816650D01*
X14774849Y-15816650D02*
X14793896Y-15826174D01*
X14793896Y-15826174D02*
X14803420Y-15835698D01*
X14803420Y-15835698D02*
X14812944Y-15854746D01*
X14812944Y-15854746D02*
X14812944Y-15911888D01*
X14812944Y-15911888D02*
X14803420Y-15930936D01*
X14803420Y-15930936D02*
X14793896Y-15940460D01*
X14793896Y-15940460D02*
X14774849Y-15949984D01*
X14774849Y-15949984D02*
X14736753Y-15949984D01*
X14736753Y-15949984D02*
X14717706Y-15940460D01*
X14927230Y-15949984D02*
X14908182Y-15940460D01*
X14908182Y-15940460D02*
X14898658Y-15921412D01*
X14898658Y-15921412D02*
X14898658Y-15749984D01*
X15089134Y-15949984D02*
X15089134Y-15845222D01*
X15089134Y-15845222D02*
X15079611Y-15826174D01*
X15079611Y-15826174D02*
X15060563Y-15816650D01*
X15060563Y-15816650D02*
X15022468Y-15816650D01*
X15022468Y-15816650D02*
X15003420Y-15826174D01*
X15089134Y-15940460D02*
X15070087Y-15949984D01*
X15070087Y-15949984D02*
X15022468Y-15949984D01*
X15022468Y-15949984D02*
X15003420Y-15940460D01*
X15003420Y-15940460D02*
X14993896Y-15921412D01*
X14993896Y-15921412D02*
X14993896Y-15902365D01*
X14993896Y-15902365D02*
X15003420Y-15883317D01*
X15003420Y-15883317D02*
X15022468Y-15873793D01*
X15022468Y-15873793D02*
X15070087Y-15873793D01*
X15070087Y-15873793D02*
X15089134Y-15864269D01*
X15155801Y-15816650D02*
X15231992Y-15816650D01*
X15184373Y-15749984D02*
X15184373Y-15921412D01*
X15184373Y-15921412D02*
X15193896Y-15940460D01*
X15193896Y-15940460D02*
X15212944Y-15949984D01*
X15212944Y-15949984D02*
X15231992Y-15949984D01*
X15374849Y-15940460D02*
X15355801Y-15949984D01*
X15355801Y-15949984D02*
X15317706Y-15949984D01*
X15317706Y-15949984D02*
X15298658Y-15940460D01*
X15298658Y-15940460D02*
X15289134Y-15921412D01*
X15289134Y-15921412D02*
X15289134Y-15845222D01*
X15289134Y-15845222D02*
X15298658Y-15826174D01*
X15298658Y-15826174D02*
X15317706Y-15816650D01*
X15317706Y-15816650D02*
X15355801Y-15816650D01*
X15355801Y-15816650D02*
X15374849Y-15826174D01*
X15374849Y-15826174D02*
X15384373Y-15845222D01*
X15384373Y-15845222D02*
X15384373Y-15864269D01*
X15384373Y-15864269D02*
X15289134Y-15883317D01*
X15555801Y-15949984D02*
X15555801Y-15749984D01*
X15555801Y-15940460D02*
X15536754Y-15949984D01*
X15536754Y-15949984D02*
X15498658Y-15949984D01*
X15498658Y-15949984D02*
X15479611Y-15940460D01*
X15479611Y-15940460D02*
X15470087Y-15930936D01*
X15470087Y-15930936D02*
X15460563Y-15911888D01*
X15460563Y-15911888D02*
X15460563Y-15854746D01*
X15460563Y-15854746D02*
X15470087Y-15835698D01*
X15470087Y-15835698D02*
X15479611Y-15826174D01*
X15479611Y-15826174D02*
X15498658Y-15816650D01*
X15498658Y-15816650D02*
X15536754Y-15816650D01*
X15536754Y-15816650D02*
X15555801Y-15826174D01*
X15631992Y-16026174D02*
X15641515Y-16016650D01*
X15641515Y-16016650D02*
X15660563Y-15988079D01*
X15660563Y-15988079D02*
X15670087Y-15969031D01*
X15670087Y-15969031D02*
X15679611Y-15940460D01*
X15679611Y-15940460D02*
X15689134Y-15892841D01*
X15689134Y-15892841D02*
X15689134Y-15854746D01*
X15689134Y-15854746D02*
X15679611Y-15807127D01*
X15679611Y-15807127D02*
X15670087Y-15778555D01*
X15670087Y-15778555D02*
X15660563Y-15759508D01*
X15660563Y-15759508D02*
X15641515Y-15730936D01*
X15641515Y-15730936D02*
X15631992Y-15721412D01*
D12*
X8685500Y-16122500D02*
G75*
G02*
X8595500Y-16122500I-45000J0D01*
G01*
X8595500Y-16122500D02*
G75*
G02*
X8685500Y-16122500I45000J0D01*
G01*
D11*
X8984372Y-16013984D02*
X9003420Y-16013984D01*
X9003420Y-16013984D02*
X9022467Y-16023508D01*
X9022467Y-16023508D02*
X9031991Y-16033031D01*
X9031991Y-16033031D02*
X9041515Y-16052079D01*
X9041515Y-16052079D02*
X9051039Y-16090174D01*
X9051039Y-16090174D02*
X9051039Y-16137793D01*
X9051039Y-16137793D02*
X9041515Y-16175888D01*
X9041515Y-16175888D02*
X9031991Y-16194936D01*
X9031991Y-16194936D02*
X9022467Y-16204460D01*
X9022467Y-16204460D02*
X9003420Y-16213984D01*
X9003420Y-16213984D02*
X8984372Y-16213984D01*
X8984372Y-16213984D02*
X8965324Y-16204460D01*
X8965324Y-16204460D02*
X8955801Y-16194936D01*
X8955801Y-16194936D02*
X8946277Y-16175888D01*
X8946277Y-16175888D02*
X8936753Y-16137793D01*
X8936753Y-16137793D02*
X8936753Y-16090174D01*
X8936753Y-16090174D02*
X8946277Y-16052079D01*
X8946277Y-16052079D02*
X8955801Y-16033031D01*
X8955801Y-16033031D02*
X8965324Y-16023508D01*
X8965324Y-16023508D02*
X8984372Y-16013984D01*
X9136753Y-16194936D02*
X9146277Y-16204460D01*
X9146277Y-16204460D02*
X9136753Y-16213984D01*
X9136753Y-16213984D02*
X9127229Y-16204460D01*
X9127229Y-16204460D02*
X9136753Y-16194936D01*
X9136753Y-16194936D02*
X9136753Y-16213984D01*
X9241515Y-16213984D02*
X9279610Y-16213984D01*
X9279610Y-16213984D02*
X9298658Y-16204460D01*
X9298658Y-16204460D02*
X9308182Y-16194936D01*
X9308182Y-16194936D02*
X9327229Y-16166365D01*
X9327229Y-16166365D02*
X9336753Y-16128269D01*
X9336753Y-16128269D02*
X9336753Y-16052079D01*
X9336753Y-16052079D02*
X9327229Y-16033031D01*
X9327229Y-16033031D02*
X9317705Y-16023508D01*
X9317705Y-16023508D02*
X9298658Y-16013984D01*
X9298658Y-16013984D02*
X9260563Y-16013984D01*
X9260563Y-16013984D02*
X9241515Y-16023508D01*
X9241515Y-16023508D02*
X9231991Y-16033031D01*
X9231991Y-16033031D02*
X9222467Y-16052079D01*
X9222467Y-16052079D02*
X9222467Y-16099698D01*
X9222467Y-16099698D02*
X9231991Y-16118746D01*
X9231991Y-16118746D02*
X9241515Y-16128269D01*
X9241515Y-16128269D02*
X9260563Y-16137793D01*
X9260563Y-16137793D02*
X9298658Y-16137793D01*
X9298658Y-16137793D02*
X9317705Y-16128269D01*
X9317705Y-16128269D02*
X9327229Y-16118746D01*
X9327229Y-16118746D02*
X9336753Y-16099698D01*
X9460563Y-16013984D02*
X9479610Y-16013984D01*
X9479610Y-16013984D02*
X9498658Y-16023508D01*
X9498658Y-16023508D02*
X9508182Y-16033031D01*
X9508182Y-16033031D02*
X9517705Y-16052079D01*
X9517705Y-16052079D02*
X9527229Y-16090174D01*
X9527229Y-16090174D02*
X9527229Y-16137793D01*
X9527229Y-16137793D02*
X9517705Y-16175888D01*
X9517705Y-16175888D02*
X9508182Y-16194936D01*
X9508182Y-16194936D02*
X9498658Y-16204460D01*
X9498658Y-16204460D02*
X9479610Y-16213984D01*
X9479610Y-16213984D02*
X9460563Y-16213984D01*
X9460563Y-16213984D02*
X9441515Y-16204460D01*
X9441515Y-16204460D02*
X9431991Y-16194936D01*
X9431991Y-16194936D02*
X9422467Y-16175888D01*
X9422467Y-16175888D02*
X9412944Y-16137793D01*
X9412944Y-16137793D02*
X9412944Y-16090174D01*
X9412944Y-16090174D02*
X9422467Y-16052079D01*
X9422467Y-16052079D02*
X9431991Y-16033031D01*
X9431991Y-16033031D02*
X9441515Y-16023508D01*
X9441515Y-16023508D02*
X9460563Y-16013984D01*
X9651039Y-16013984D02*
X9670086Y-16013984D01*
X9670086Y-16013984D02*
X9689134Y-16023508D01*
X9689134Y-16023508D02*
X9698658Y-16033031D01*
X9698658Y-16033031D02*
X9708182Y-16052079D01*
X9708182Y-16052079D02*
X9717705Y-16090174D01*
X9717705Y-16090174D02*
X9717705Y-16137793D01*
X9717705Y-16137793D02*
X9708182Y-16175888D01*
X9708182Y-16175888D02*
X9698658Y-16194936D01*
X9698658Y-16194936D02*
X9689134Y-16204460D01*
X9689134Y-16204460D02*
X9670086Y-16213984D01*
X9670086Y-16213984D02*
X9651039Y-16213984D01*
X9651039Y-16213984D02*
X9631991Y-16204460D01*
X9631991Y-16204460D02*
X9622467Y-16194936D01*
X9622467Y-16194936D02*
X9612944Y-16175888D01*
X9612944Y-16175888D02*
X9603420Y-16137793D01*
X9603420Y-16137793D02*
X9603420Y-16090174D01*
X9603420Y-16090174D02*
X9612944Y-16052079D01*
X9612944Y-16052079D02*
X9622467Y-16033031D01*
X9622467Y-16033031D02*
X9631991Y-16023508D01*
X9631991Y-16023508D02*
X9651039Y-16013984D01*
X9803420Y-16213984D02*
X9803420Y-16080650D01*
X9803420Y-16099698D02*
X9812944Y-16090174D01*
X9812944Y-16090174D02*
X9831991Y-16080650D01*
X9831991Y-16080650D02*
X9860563Y-16080650D01*
X9860563Y-16080650D02*
X9879610Y-16090174D01*
X9879610Y-16090174D02*
X9889134Y-16109222D01*
X9889134Y-16109222D02*
X9889134Y-16213984D01*
X9889134Y-16109222D02*
X9898658Y-16090174D01*
X9898658Y-16090174D02*
X9917705Y-16080650D01*
X9917705Y-16080650D02*
X9946277Y-16080650D01*
X9946277Y-16080650D02*
X9965325Y-16090174D01*
X9965325Y-16090174D02*
X9974848Y-16109222D01*
X9974848Y-16109222D02*
X9974848Y-16213984D01*
X10070086Y-16213984D02*
X10070086Y-16080650D01*
X10070086Y-16099698D02*
X10079610Y-16090174D01*
X10079610Y-16090174D02*
X10098658Y-16080650D01*
X10098658Y-16080650D02*
X10127229Y-16080650D01*
X10127229Y-16080650D02*
X10146277Y-16090174D01*
X10146277Y-16090174D02*
X10155801Y-16109222D01*
X10155801Y-16109222D02*
X10155801Y-16213984D01*
X10155801Y-16109222D02*
X10165325Y-16090174D01*
X10165325Y-16090174D02*
X10184372Y-16080650D01*
X10184372Y-16080650D02*
X10212944Y-16080650D01*
X10212944Y-16080650D02*
X10231991Y-16090174D01*
X10231991Y-16090174D02*
X10241515Y-16109222D01*
X10241515Y-16109222D02*
X10241515Y-16213984D01*
X10631991Y-16004460D02*
X10460563Y-16261603D01*
X10889134Y-16013984D02*
X10908182Y-16013984D01*
X10908182Y-16013984D02*
X10927229Y-16023508D01*
X10927229Y-16023508D02*
X10936753Y-16033031D01*
X10936753Y-16033031D02*
X10946277Y-16052079D01*
X10946277Y-16052079D02*
X10955801Y-16090174D01*
X10955801Y-16090174D02*
X10955801Y-16137793D01*
X10955801Y-16137793D02*
X10946277Y-16175888D01*
X10946277Y-16175888D02*
X10936753Y-16194936D01*
X10936753Y-16194936D02*
X10927229Y-16204460D01*
X10927229Y-16204460D02*
X10908182Y-16213984D01*
X10908182Y-16213984D02*
X10889134Y-16213984D01*
X10889134Y-16213984D02*
X10870087Y-16204460D01*
X10870087Y-16204460D02*
X10860563Y-16194936D01*
X10860563Y-16194936D02*
X10851039Y-16175888D01*
X10851039Y-16175888D02*
X10841515Y-16137793D01*
X10841515Y-16137793D02*
X10841515Y-16090174D01*
X10841515Y-16090174D02*
X10851039Y-16052079D01*
X10851039Y-16052079D02*
X10860563Y-16033031D01*
X10860563Y-16033031D02*
X10870087Y-16023508D01*
X10870087Y-16023508D02*
X10889134Y-16013984D01*
X11041515Y-16194936D02*
X11051039Y-16204460D01*
X11051039Y-16204460D02*
X11041515Y-16213984D01*
X11041515Y-16213984D02*
X11031991Y-16204460D01*
X11031991Y-16204460D02*
X11041515Y-16194936D01*
X11041515Y-16194936D02*
X11041515Y-16213984D01*
X11174848Y-16013984D02*
X11193896Y-16013984D01*
X11193896Y-16013984D02*
X11212944Y-16023508D01*
X11212944Y-16023508D02*
X11222467Y-16033031D01*
X11222467Y-16033031D02*
X11231991Y-16052079D01*
X11231991Y-16052079D02*
X11241515Y-16090174D01*
X11241515Y-16090174D02*
X11241515Y-16137793D01*
X11241515Y-16137793D02*
X11231991Y-16175888D01*
X11231991Y-16175888D02*
X11222467Y-16194936D01*
X11222467Y-16194936D02*
X11212944Y-16204460D01*
X11212944Y-16204460D02*
X11193896Y-16213984D01*
X11193896Y-16213984D02*
X11174848Y-16213984D01*
X11174848Y-16213984D02*
X11155801Y-16204460D01*
X11155801Y-16204460D02*
X11146277Y-16194936D01*
X11146277Y-16194936D02*
X11136753Y-16175888D01*
X11136753Y-16175888D02*
X11127229Y-16137793D01*
X11127229Y-16137793D02*
X11127229Y-16090174D01*
X11127229Y-16090174D02*
X11136753Y-16052079D01*
X11136753Y-16052079D02*
X11146277Y-16033031D01*
X11146277Y-16033031D02*
X11155801Y-16023508D01*
X11155801Y-16023508D02*
X11174848Y-16013984D01*
X11308182Y-16013984D02*
X11431991Y-16013984D01*
X11431991Y-16013984D02*
X11365325Y-16090174D01*
X11365325Y-16090174D02*
X11393896Y-16090174D01*
X11393896Y-16090174D02*
X11412944Y-16099698D01*
X11412944Y-16099698D02*
X11422467Y-16109222D01*
X11422467Y-16109222D02*
X11431991Y-16128269D01*
X11431991Y-16128269D02*
X11431991Y-16175888D01*
X11431991Y-16175888D02*
X11422467Y-16194936D01*
X11422467Y-16194936D02*
X11412944Y-16204460D01*
X11412944Y-16204460D02*
X11393896Y-16213984D01*
X11393896Y-16213984D02*
X11336753Y-16213984D01*
X11336753Y-16213984D02*
X11317706Y-16204460D01*
X11317706Y-16204460D02*
X11308182Y-16194936D01*
X11612944Y-16013984D02*
X11517706Y-16013984D01*
X11517706Y-16013984D02*
X11508182Y-16109222D01*
X11508182Y-16109222D02*
X11517706Y-16099698D01*
X11517706Y-16099698D02*
X11536753Y-16090174D01*
X11536753Y-16090174D02*
X11584372Y-16090174D01*
X11584372Y-16090174D02*
X11603420Y-16099698D01*
X11603420Y-16099698D02*
X11612944Y-16109222D01*
X11612944Y-16109222D02*
X11622467Y-16128269D01*
X11622467Y-16128269D02*
X11622467Y-16175888D01*
X11622467Y-16175888D02*
X11612944Y-16194936D01*
X11612944Y-16194936D02*
X11603420Y-16204460D01*
X11603420Y-16204460D02*
X11584372Y-16213984D01*
X11584372Y-16213984D02*
X11536753Y-16213984D01*
X11536753Y-16213984D02*
X11517706Y-16204460D01*
X11517706Y-16204460D02*
X11508182Y-16194936D01*
X11793896Y-16080650D02*
X11793896Y-16213984D01*
X11746277Y-16004460D02*
X11698658Y-16147317D01*
X11698658Y-16147317D02*
X11822467Y-16147317D01*
X11889134Y-16013984D02*
X11889134Y-16052079D01*
X11965325Y-16013984D02*
X11965325Y-16052079D01*
X12260563Y-16290174D02*
X12251039Y-16280650D01*
X12251039Y-16280650D02*
X12231991Y-16252079D01*
X12231991Y-16252079D02*
X12222468Y-16233031D01*
X12222468Y-16233031D02*
X12212944Y-16204460D01*
X12212944Y-16204460D02*
X12203420Y-16156841D01*
X12203420Y-16156841D02*
X12203420Y-16118746D01*
X12203420Y-16118746D02*
X12212944Y-16071127D01*
X12212944Y-16071127D02*
X12222468Y-16042555D01*
X12222468Y-16042555D02*
X12231991Y-16023508D01*
X12231991Y-16023508D02*
X12251039Y-15994936D01*
X12251039Y-15994936D02*
X12260563Y-15985412D01*
X12422468Y-16080650D02*
X12422468Y-16213984D01*
X12374848Y-16004460D02*
X12327229Y-16147317D01*
X12327229Y-16147317D02*
X12451039Y-16147317D01*
X12679610Y-16213984D02*
X12679610Y-16013984D01*
X12765325Y-16213984D02*
X12765325Y-16109222D01*
X12765325Y-16109222D02*
X12755801Y-16090174D01*
X12755801Y-16090174D02*
X12736753Y-16080650D01*
X12736753Y-16080650D02*
X12708182Y-16080650D01*
X12708182Y-16080650D02*
X12689134Y-16090174D01*
X12689134Y-16090174D02*
X12679610Y-16099698D01*
X12889134Y-16213984D02*
X12870087Y-16204460D01*
X12870087Y-16204460D02*
X12860563Y-16194936D01*
X12860563Y-16194936D02*
X12851039Y-16175888D01*
X12851039Y-16175888D02*
X12851039Y-16118746D01*
X12851039Y-16118746D02*
X12860563Y-16099698D01*
X12860563Y-16099698D02*
X12870087Y-16090174D01*
X12870087Y-16090174D02*
X12889134Y-16080650D01*
X12889134Y-16080650D02*
X12917706Y-16080650D01*
X12917706Y-16080650D02*
X12936753Y-16090174D01*
X12936753Y-16090174D02*
X12946277Y-16099698D01*
X12946277Y-16099698D02*
X12955801Y-16118746D01*
X12955801Y-16118746D02*
X12955801Y-16175888D01*
X12955801Y-16175888D02*
X12946277Y-16194936D01*
X12946277Y-16194936D02*
X12936753Y-16204460D01*
X12936753Y-16204460D02*
X12917706Y-16213984D01*
X12917706Y-16213984D02*
X12889134Y-16213984D01*
X13070087Y-16213984D02*
X13051039Y-16204460D01*
X13051039Y-16204460D02*
X13041515Y-16185412D01*
X13041515Y-16185412D02*
X13041515Y-16013984D01*
X13222468Y-16204460D02*
X13203420Y-16213984D01*
X13203420Y-16213984D02*
X13165325Y-16213984D01*
X13165325Y-16213984D02*
X13146277Y-16204460D01*
X13146277Y-16204460D02*
X13136753Y-16185412D01*
X13136753Y-16185412D02*
X13136753Y-16109222D01*
X13136753Y-16109222D02*
X13146277Y-16090174D01*
X13146277Y-16090174D02*
X13165325Y-16080650D01*
X13165325Y-16080650D02*
X13203420Y-16080650D01*
X13203420Y-16080650D02*
X13222468Y-16090174D01*
X13222468Y-16090174D02*
X13231991Y-16109222D01*
X13231991Y-16109222D02*
X13231991Y-16128269D01*
X13231991Y-16128269D02*
X13136753Y-16147317D01*
X13308182Y-16204460D02*
X13327230Y-16213984D01*
X13327230Y-16213984D02*
X13365325Y-16213984D01*
X13365325Y-16213984D02*
X13384372Y-16204460D01*
X13384372Y-16204460D02*
X13393896Y-16185412D01*
X13393896Y-16185412D02*
X13393896Y-16175888D01*
X13393896Y-16175888D02*
X13384372Y-16156841D01*
X13384372Y-16156841D02*
X13365325Y-16147317D01*
X13365325Y-16147317D02*
X13336753Y-16147317D01*
X13336753Y-16147317D02*
X13317706Y-16137793D01*
X13317706Y-16137793D02*
X13308182Y-16118746D01*
X13308182Y-16118746D02*
X13308182Y-16109222D01*
X13308182Y-16109222D02*
X13317706Y-16090174D01*
X13317706Y-16090174D02*
X13336753Y-16080650D01*
X13336753Y-16080650D02*
X13365325Y-16080650D01*
X13365325Y-16080650D02*
X13384372Y-16090174D01*
X13460563Y-16290174D02*
X13470087Y-16280650D01*
X13470087Y-16280650D02*
X13489134Y-16252079D01*
X13489134Y-16252079D02*
X13498658Y-16233031D01*
X13498658Y-16233031D02*
X13508182Y-16204460D01*
X13508182Y-16204460D02*
X13517706Y-16156841D01*
X13517706Y-16156841D02*
X13517706Y-16118746D01*
X13517706Y-16118746D02*
X13508182Y-16071127D01*
X13508182Y-16071127D02*
X13498658Y-16042555D01*
X13498658Y-16042555D02*
X13489134Y-16023508D01*
X13489134Y-16023508D02*
X13470087Y-15994936D01*
X13470087Y-15994936D02*
X13460563Y-15985412D01*
X13822468Y-16290174D02*
X13812944Y-16280650D01*
X13812944Y-16280650D02*
X13793896Y-16252079D01*
X13793896Y-16252079D02*
X13784372Y-16233031D01*
X13784372Y-16233031D02*
X13774849Y-16204460D01*
X13774849Y-16204460D02*
X13765325Y-16156841D01*
X13765325Y-16156841D02*
X13765325Y-16118746D01*
X13765325Y-16118746D02*
X13774849Y-16071127D01*
X13774849Y-16071127D02*
X13784372Y-16042555D01*
X13784372Y-16042555D02*
X13793896Y-16023508D01*
X13793896Y-16023508D02*
X13812944Y-15994936D01*
X13812944Y-15994936D02*
X13822468Y-15985412D01*
X13898658Y-16080650D02*
X13898658Y-16213984D01*
X13898658Y-16099698D02*
X13908182Y-16090174D01*
X13908182Y-16090174D02*
X13927230Y-16080650D01*
X13927230Y-16080650D02*
X13955801Y-16080650D01*
X13955801Y-16080650D02*
X13974849Y-16090174D01*
X13974849Y-16090174D02*
X13984372Y-16109222D01*
X13984372Y-16109222D02*
X13984372Y-16213984D01*
X14108182Y-16213984D02*
X14089134Y-16204460D01*
X14089134Y-16204460D02*
X14079611Y-16194936D01*
X14079611Y-16194936D02*
X14070087Y-16175888D01*
X14070087Y-16175888D02*
X14070087Y-16118746D01*
X14070087Y-16118746D02*
X14079611Y-16099698D01*
X14079611Y-16099698D02*
X14089134Y-16090174D01*
X14089134Y-16090174D02*
X14108182Y-16080650D01*
X14108182Y-16080650D02*
X14136753Y-16080650D01*
X14136753Y-16080650D02*
X14155801Y-16090174D01*
X14155801Y-16090174D02*
X14165325Y-16099698D01*
X14165325Y-16099698D02*
X14174849Y-16118746D01*
X14174849Y-16118746D02*
X14174849Y-16175888D01*
X14174849Y-16175888D02*
X14165325Y-16194936D01*
X14165325Y-16194936D02*
X14155801Y-16204460D01*
X14155801Y-16204460D02*
X14136753Y-16213984D01*
X14136753Y-16213984D02*
X14108182Y-16213984D01*
X14231992Y-16080650D02*
X14308182Y-16080650D01*
X14260563Y-16013984D02*
X14260563Y-16185412D01*
X14260563Y-16185412D02*
X14270087Y-16204460D01*
X14270087Y-16204460D02*
X14289134Y-16213984D01*
X14289134Y-16213984D02*
X14308182Y-16213984D01*
X14527230Y-16080650D02*
X14527230Y-16280650D01*
X14527230Y-16090174D02*
X14546277Y-16080650D01*
X14546277Y-16080650D02*
X14584373Y-16080650D01*
X14584373Y-16080650D02*
X14603420Y-16090174D01*
X14603420Y-16090174D02*
X14612944Y-16099698D01*
X14612944Y-16099698D02*
X14622468Y-16118746D01*
X14622468Y-16118746D02*
X14622468Y-16175888D01*
X14622468Y-16175888D02*
X14612944Y-16194936D01*
X14612944Y-16194936D02*
X14603420Y-16204460D01*
X14603420Y-16204460D02*
X14584373Y-16213984D01*
X14584373Y-16213984D02*
X14546277Y-16213984D01*
X14546277Y-16213984D02*
X14527230Y-16204460D01*
X14736753Y-16213984D02*
X14717706Y-16204460D01*
X14717706Y-16204460D02*
X14708182Y-16185412D01*
X14708182Y-16185412D02*
X14708182Y-16013984D01*
X14898658Y-16213984D02*
X14898658Y-16109222D01*
X14898658Y-16109222D02*
X14889134Y-16090174D01*
X14889134Y-16090174D02*
X14870087Y-16080650D01*
X14870087Y-16080650D02*
X14831992Y-16080650D01*
X14831992Y-16080650D02*
X14812944Y-16090174D01*
X14898658Y-16204460D02*
X14879611Y-16213984D01*
X14879611Y-16213984D02*
X14831992Y-16213984D01*
X14831992Y-16213984D02*
X14812944Y-16204460D01*
X14812944Y-16204460D02*
X14803420Y-16185412D01*
X14803420Y-16185412D02*
X14803420Y-16166365D01*
X14803420Y-16166365D02*
X14812944Y-16147317D01*
X14812944Y-16147317D02*
X14831992Y-16137793D01*
X14831992Y-16137793D02*
X14879611Y-16137793D01*
X14879611Y-16137793D02*
X14898658Y-16128269D01*
X14965325Y-16080650D02*
X15041515Y-16080650D01*
X14993896Y-16013984D02*
X14993896Y-16185412D01*
X14993896Y-16185412D02*
X15003420Y-16204460D01*
X15003420Y-16204460D02*
X15022468Y-16213984D01*
X15022468Y-16213984D02*
X15041515Y-16213984D01*
X15184373Y-16204460D02*
X15165325Y-16213984D01*
X15165325Y-16213984D02*
X15127230Y-16213984D01*
X15127230Y-16213984D02*
X15108182Y-16204460D01*
X15108182Y-16204460D02*
X15098658Y-16185412D01*
X15098658Y-16185412D02*
X15098658Y-16109222D01*
X15098658Y-16109222D02*
X15108182Y-16090174D01*
X15108182Y-16090174D02*
X15127230Y-16080650D01*
X15127230Y-16080650D02*
X15165325Y-16080650D01*
X15165325Y-16080650D02*
X15184373Y-16090174D01*
X15184373Y-16090174D02*
X15193896Y-16109222D01*
X15193896Y-16109222D02*
X15193896Y-16128269D01*
X15193896Y-16128269D02*
X15098658Y-16147317D01*
X15365325Y-16213984D02*
X15365325Y-16013984D01*
X15365325Y-16204460D02*
X15346277Y-16213984D01*
X15346277Y-16213984D02*
X15308182Y-16213984D01*
X15308182Y-16213984D02*
X15289134Y-16204460D01*
X15289134Y-16204460D02*
X15279611Y-16194936D01*
X15279611Y-16194936D02*
X15270087Y-16175888D01*
X15270087Y-16175888D02*
X15270087Y-16118746D01*
X15270087Y-16118746D02*
X15279611Y-16099698D01*
X15279611Y-16099698D02*
X15289134Y-16090174D01*
X15289134Y-16090174D02*
X15308182Y-16080650D01*
X15308182Y-16080650D02*
X15346277Y-16080650D01*
X15346277Y-16080650D02*
X15365325Y-16090174D01*
X15441515Y-16290174D02*
X15451039Y-16280650D01*
X15451039Y-16280650D02*
X15470087Y-16252079D01*
X15470087Y-16252079D02*
X15479611Y-16233031D01*
X15479611Y-16233031D02*
X15489134Y-16204460D01*
X15489134Y-16204460D02*
X15498658Y-16156841D01*
X15498658Y-16156841D02*
X15498658Y-16118746D01*
X15498658Y-16118746D02*
X15489134Y-16071127D01*
X15489134Y-16071127D02*
X15479611Y-16042555D01*
X15479611Y-16042555D02*
X15470087Y-16023508D01*
X15470087Y-16023508D02*
X15451039Y-15994936D01*
X15451039Y-15994936D02*
X15441515Y-15985412D01*
X8585500Y-16286500D02*
X8585500Y-16486500D01*
X8485500Y-16386500D02*
X8685500Y-16386500D01*
X8936753Y-16297031D02*
X8946277Y-16287508D01*
X8946277Y-16287508D02*
X8965324Y-16277984D01*
X8965324Y-16277984D02*
X9012944Y-16277984D01*
X9012944Y-16277984D02*
X9031991Y-16287508D01*
X9031991Y-16287508D02*
X9041515Y-16297031D01*
X9041515Y-16297031D02*
X9051039Y-16316079D01*
X9051039Y-16316079D02*
X9051039Y-16335127D01*
X9051039Y-16335127D02*
X9041515Y-16363698D01*
X9041515Y-16363698D02*
X8927229Y-16477984D01*
X8927229Y-16477984D02*
X9051039Y-16477984D01*
X9136753Y-16458936D02*
X9146277Y-16468460D01*
X9146277Y-16468460D02*
X9136753Y-16477984D01*
X9136753Y-16477984D02*
X9127229Y-16468460D01*
X9127229Y-16468460D02*
X9136753Y-16458936D01*
X9136753Y-16458936D02*
X9136753Y-16477984D01*
X9336753Y-16477984D02*
X9222467Y-16477984D01*
X9279610Y-16477984D02*
X9279610Y-16277984D01*
X9279610Y-16277984D02*
X9260563Y-16306555D01*
X9260563Y-16306555D02*
X9241515Y-16325603D01*
X9241515Y-16325603D02*
X9222467Y-16335127D01*
X9460563Y-16277984D02*
X9479610Y-16277984D01*
X9479610Y-16277984D02*
X9498658Y-16287508D01*
X9498658Y-16287508D02*
X9508182Y-16297031D01*
X9508182Y-16297031D02*
X9517705Y-16316079D01*
X9517705Y-16316079D02*
X9527229Y-16354174D01*
X9527229Y-16354174D02*
X9527229Y-16401793D01*
X9527229Y-16401793D02*
X9517705Y-16439888D01*
X9517705Y-16439888D02*
X9508182Y-16458936D01*
X9508182Y-16458936D02*
X9498658Y-16468460D01*
X9498658Y-16468460D02*
X9479610Y-16477984D01*
X9479610Y-16477984D02*
X9460563Y-16477984D01*
X9460563Y-16477984D02*
X9441515Y-16468460D01*
X9441515Y-16468460D02*
X9431991Y-16458936D01*
X9431991Y-16458936D02*
X9422467Y-16439888D01*
X9422467Y-16439888D02*
X9412944Y-16401793D01*
X9412944Y-16401793D02*
X9412944Y-16354174D01*
X9412944Y-16354174D02*
X9422467Y-16316079D01*
X9422467Y-16316079D02*
X9431991Y-16297031D01*
X9431991Y-16297031D02*
X9441515Y-16287508D01*
X9441515Y-16287508D02*
X9460563Y-16277984D01*
X9651039Y-16277984D02*
X9670086Y-16277984D01*
X9670086Y-16277984D02*
X9689134Y-16287508D01*
X9689134Y-16287508D02*
X9698658Y-16297031D01*
X9698658Y-16297031D02*
X9708182Y-16316079D01*
X9708182Y-16316079D02*
X9717705Y-16354174D01*
X9717705Y-16354174D02*
X9717705Y-16401793D01*
X9717705Y-16401793D02*
X9708182Y-16439888D01*
X9708182Y-16439888D02*
X9698658Y-16458936D01*
X9698658Y-16458936D02*
X9689134Y-16468460D01*
X9689134Y-16468460D02*
X9670086Y-16477984D01*
X9670086Y-16477984D02*
X9651039Y-16477984D01*
X9651039Y-16477984D02*
X9631991Y-16468460D01*
X9631991Y-16468460D02*
X9622467Y-16458936D01*
X9622467Y-16458936D02*
X9612944Y-16439888D01*
X9612944Y-16439888D02*
X9603420Y-16401793D01*
X9603420Y-16401793D02*
X9603420Y-16354174D01*
X9603420Y-16354174D02*
X9612944Y-16316079D01*
X9612944Y-16316079D02*
X9622467Y-16297031D01*
X9622467Y-16297031D02*
X9631991Y-16287508D01*
X9631991Y-16287508D02*
X9651039Y-16277984D01*
X9803420Y-16477984D02*
X9803420Y-16344650D01*
X9803420Y-16363698D02*
X9812944Y-16354174D01*
X9812944Y-16354174D02*
X9831991Y-16344650D01*
X9831991Y-16344650D02*
X9860563Y-16344650D01*
X9860563Y-16344650D02*
X9879610Y-16354174D01*
X9879610Y-16354174D02*
X9889134Y-16373222D01*
X9889134Y-16373222D02*
X9889134Y-16477984D01*
X9889134Y-16373222D02*
X9898658Y-16354174D01*
X9898658Y-16354174D02*
X9917705Y-16344650D01*
X9917705Y-16344650D02*
X9946277Y-16344650D01*
X9946277Y-16344650D02*
X9965325Y-16354174D01*
X9965325Y-16354174D02*
X9974848Y-16373222D01*
X9974848Y-16373222D02*
X9974848Y-16477984D01*
X10070086Y-16477984D02*
X10070086Y-16344650D01*
X10070086Y-16363698D02*
X10079610Y-16354174D01*
X10079610Y-16354174D02*
X10098658Y-16344650D01*
X10098658Y-16344650D02*
X10127229Y-16344650D01*
X10127229Y-16344650D02*
X10146277Y-16354174D01*
X10146277Y-16354174D02*
X10155801Y-16373222D01*
X10155801Y-16373222D02*
X10155801Y-16477984D01*
X10155801Y-16373222D02*
X10165325Y-16354174D01*
X10165325Y-16354174D02*
X10184372Y-16344650D01*
X10184372Y-16344650D02*
X10212944Y-16344650D01*
X10212944Y-16344650D02*
X10231991Y-16354174D01*
X10231991Y-16354174D02*
X10241515Y-16373222D01*
X10241515Y-16373222D02*
X10241515Y-16477984D01*
X10631991Y-16268460D02*
X10460563Y-16525603D01*
X10889134Y-16277984D02*
X10908182Y-16277984D01*
X10908182Y-16277984D02*
X10927229Y-16287508D01*
X10927229Y-16287508D02*
X10936753Y-16297031D01*
X10936753Y-16297031D02*
X10946277Y-16316079D01*
X10946277Y-16316079D02*
X10955801Y-16354174D01*
X10955801Y-16354174D02*
X10955801Y-16401793D01*
X10955801Y-16401793D02*
X10946277Y-16439888D01*
X10946277Y-16439888D02*
X10936753Y-16458936D01*
X10936753Y-16458936D02*
X10927229Y-16468460D01*
X10927229Y-16468460D02*
X10908182Y-16477984D01*
X10908182Y-16477984D02*
X10889134Y-16477984D01*
X10889134Y-16477984D02*
X10870087Y-16468460D01*
X10870087Y-16468460D02*
X10860563Y-16458936D01*
X10860563Y-16458936D02*
X10851039Y-16439888D01*
X10851039Y-16439888D02*
X10841515Y-16401793D01*
X10841515Y-16401793D02*
X10841515Y-16354174D01*
X10841515Y-16354174D02*
X10851039Y-16316079D01*
X10851039Y-16316079D02*
X10860563Y-16297031D01*
X10860563Y-16297031D02*
X10870087Y-16287508D01*
X10870087Y-16287508D02*
X10889134Y-16277984D01*
X11041515Y-16458936D02*
X11051039Y-16468460D01*
X11051039Y-16468460D02*
X11041515Y-16477984D01*
X11041515Y-16477984D02*
X11031991Y-16468460D01*
X11031991Y-16468460D02*
X11041515Y-16458936D01*
X11041515Y-16458936D02*
X11041515Y-16477984D01*
X11174848Y-16277984D02*
X11193896Y-16277984D01*
X11193896Y-16277984D02*
X11212944Y-16287508D01*
X11212944Y-16287508D02*
X11222467Y-16297031D01*
X11222467Y-16297031D02*
X11231991Y-16316079D01*
X11231991Y-16316079D02*
X11241515Y-16354174D01*
X11241515Y-16354174D02*
X11241515Y-16401793D01*
X11241515Y-16401793D02*
X11231991Y-16439888D01*
X11231991Y-16439888D02*
X11222467Y-16458936D01*
X11222467Y-16458936D02*
X11212944Y-16468460D01*
X11212944Y-16468460D02*
X11193896Y-16477984D01*
X11193896Y-16477984D02*
X11174848Y-16477984D01*
X11174848Y-16477984D02*
X11155801Y-16468460D01*
X11155801Y-16468460D02*
X11146277Y-16458936D01*
X11146277Y-16458936D02*
X11136753Y-16439888D01*
X11136753Y-16439888D02*
X11127229Y-16401793D01*
X11127229Y-16401793D02*
X11127229Y-16354174D01*
X11127229Y-16354174D02*
X11136753Y-16316079D01*
X11136753Y-16316079D02*
X11146277Y-16297031D01*
X11146277Y-16297031D02*
X11155801Y-16287508D01*
X11155801Y-16287508D02*
X11174848Y-16277984D01*
X11355801Y-16363698D02*
X11336753Y-16354174D01*
X11336753Y-16354174D02*
X11327229Y-16344650D01*
X11327229Y-16344650D02*
X11317706Y-16325603D01*
X11317706Y-16325603D02*
X11317706Y-16316079D01*
X11317706Y-16316079D02*
X11327229Y-16297031D01*
X11327229Y-16297031D02*
X11336753Y-16287508D01*
X11336753Y-16287508D02*
X11355801Y-16277984D01*
X11355801Y-16277984D02*
X11393896Y-16277984D01*
X11393896Y-16277984D02*
X11412944Y-16287508D01*
X11412944Y-16287508D02*
X11422467Y-16297031D01*
X11422467Y-16297031D02*
X11431991Y-16316079D01*
X11431991Y-16316079D02*
X11431991Y-16325603D01*
X11431991Y-16325603D02*
X11422467Y-16344650D01*
X11422467Y-16344650D02*
X11412944Y-16354174D01*
X11412944Y-16354174D02*
X11393896Y-16363698D01*
X11393896Y-16363698D02*
X11355801Y-16363698D01*
X11355801Y-16363698D02*
X11336753Y-16373222D01*
X11336753Y-16373222D02*
X11327229Y-16382746D01*
X11327229Y-16382746D02*
X11317706Y-16401793D01*
X11317706Y-16401793D02*
X11317706Y-16439888D01*
X11317706Y-16439888D02*
X11327229Y-16458936D01*
X11327229Y-16458936D02*
X11336753Y-16468460D01*
X11336753Y-16468460D02*
X11355801Y-16477984D01*
X11355801Y-16477984D02*
X11393896Y-16477984D01*
X11393896Y-16477984D02*
X11412944Y-16468460D01*
X11412944Y-16468460D02*
X11422467Y-16458936D01*
X11422467Y-16458936D02*
X11431991Y-16439888D01*
X11431991Y-16439888D02*
X11431991Y-16401793D01*
X11431991Y-16401793D02*
X11422467Y-16382746D01*
X11422467Y-16382746D02*
X11412944Y-16373222D01*
X11412944Y-16373222D02*
X11393896Y-16363698D01*
X11508182Y-16297031D02*
X11517706Y-16287508D01*
X11517706Y-16287508D02*
X11536753Y-16277984D01*
X11536753Y-16277984D02*
X11584372Y-16277984D01*
X11584372Y-16277984D02*
X11603420Y-16287508D01*
X11603420Y-16287508D02*
X11612944Y-16297031D01*
X11612944Y-16297031D02*
X11622467Y-16316079D01*
X11622467Y-16316079D02*
X11622467Y-16335127D01*
X11622467Y-16335127D02*
X11612944Y-16363698D01*
X11612944Y-16363698D02*
X11498658Y-16477984D01*
X11498658Y-16477984D02*
X11622467Y-16477984D01*
X11689134Y-16277984D02*
X11822467Y-16277984D01*
X11822467Y-16277984D02*
X11736753Y-16477984D01*
X11889134Y-16277984D02*
X11889134Y-16316079D01*
X11965325Y-16277984D02*
X11965325Y-16316079D01*
X12260563Y-16554174D02*
X12251039Y-16544650D01*
X12251039Y-16544650D02*
X12231991Y-16516079D01*
X12231991Y-16516079D02*
X12222468Y-16497031D01*
X12222468Y-16497031D02*
X12212944Y-16468460D01*
X12212944Y-16468460D02*
X12203420Y-16420841D01*
X12203420Y-16420841D02*
X12203420Y-16382746D01*
X12203420Y-16382746D02*
X12212944Y-16335127D01*
X12212944Y-16335127D02*
X12222468Y-16306555D01*
X12222468Y-16306555D02*
X12231991Y-16287508D01*
X12231991Y-16287508D02*
X12251039Y-16258936D01*
X12251039Y-16258936D02*
X12260563Y-16249412D01*
X12441515Y-16477984D02*
X12327229Y-16477984D01*
X12384372Y-16477984D02*
X12384372Y-16277984D01*
X12384372Y-16277984D02*
X12365325Y-16306555D01*
X12365325Y-16306555D02*
X12346277Y-16325603D01*
X12346277Y-16325603D02*
X12327229Y-16335127D01*
X12612944Y-16344650D02*
X12612944Y-16477984D01*
X12565325Y-16268460D02*
X12517706Y-16411317D01*
X12517706Y-16411317D02*
X12641515Y-16411317D01*
X12870087Y-16477984D02*
X12870087Y-16277984D01*
X12955801Y-16477984D02*
X12955801Y-16373222D01*
X12955801Y-16373222D02*
X12946277Y-16354174D01*
X12946277Y-16354174D02*
X12927230Y-16344650D01*
X12927230Y-16344650D02*
X12898658Y-16344650D01*
X12898658Y-16344650D02*
X12879610Y-16354174D01*
X12879610Y-16354174D02*
X12870087Y-16363698D01*
X13079610Y-16477984D02*
X13060563Y-16468460D01*
X13060563Y-16468460D02*
X13051039Y-16458936D01*
X13051039Y-16458936D02*
X13041515Y-16439888D01*
X13041515Y-16439888D02*
X13041515Y-16382746D01*
X13041515Y-16382746D02*
X13051039Y-16363698D01*
X13051039Y-16363698D02*
X13060563Y-16354174D01*
X13060563Y-16354174D02*
X13079610Y-16344650D01*
X13079610Y-16344650D02*
X13108182Y-16344650D01*
X13108182Y-16344650D02*
X13127230Y-16354174D01*
X13127230Y-16354174D02*
X13136753Y-16363698D01*
X13136753Y-16363698D02*
X13146277Y-16382746D01*
X13146277Y-16382746D02*
X13146277Y-16439888D01*
X13146277Y-16439888D02*
X13136753Y-16458936D01*
X13136753Y-16458936D02*
X13127230Y-16468460D01*
X13127230Y-16468460D02*
X13108182Y-16477984D01*
X13108182Y-16477984D02*
X13079610Y-16477984D01*
X13260563Y-16477984D02*
X13241515Y-16468460D01*
X13241515Y-16468460D02*
X13231991Y-16449412D01*
X13231991Y-16449412D02*
X13231991Y-16277984D01*
X13412944Y-16468460D02*
X13393896Y-16477984D01*
X13393896Y-16477984D02*
X13355801Y-16477984D01*
X13355801Y-16477984D02*
X13336753Y-16468460D01*
X13336753Y-16468460D02*
X13327230Y-16449412D01*
X13327230Y-16449412D02*
X13327230Y-16373222D01*
X13327230Y-16373222D02*
X13336753Y-16354174D01*
X13336753Y-16354174D02*
X13355801Y-16344650D01*
X13355801Y-16344650D02*
X13393896Y-16344650D01*
X13393896Y-16344650D02*
X13412944Y-16354174D01*
X13412944Y-16354174D02*
X13422468Y-16373222D01*
X13422468Y-16373222D02*
X13422468Y-16392269D01*
X13422468Y-16392269D02*
X13327230Y-16411317D01*
X13498658Y-16468460D02*
X13517706Y-16477984D01*
X13517706Y-16477984D02*
X13555801Y-16477984D01*
X13555801Y-16477984D02*
X13574849Y-16468460D01*
X13574849Y-16468460D02*
X13584372Y-16449412D01*
X13584372Y-16449412D02*
X13584372Y-16439888D01*
X13584372Y-16439888D02*
X13574849Y-16420841D01*
X13574849Y-16420841D02*
X13555801Y-16411317D01*
X13555801Y-16411317D02*
X13527230Y-16411317D01*
X13527230Y-16411317D02*
X13508182Y-16401793D01*
X13508182Y-16401793D02*
X13498658Y-16382746D01*
X13498658Y-16382746D02*
X13498658Y-16373222D01*
X13498658Y-16373222D02*
X13508182Y-16354174D01*
X13508182Y-16354174D02*
X13527230Y-16344650D01*
X13527230Y-16344650D02*
X13555801Y-16344650D01*
X13555801Y-16344650D02*
X13574849Y-16354174D01*
X13651039Y-16554174D02*
X13660563Y-16544650D01*
X13660563Y-16544650D02*
X13679611Y-16516079D01*
X13679611Y-16516079D02*
X13689134Y-16497031D01*
X13689134Y-16497031D02*
X13698658Y-16468460D01*
X13698658Y-16468460D02*
X13708182Y-16420841D01*
X13708182Y-16420841D02*
X13708182Y-16382746D01*
X13708182Y-16382746D02*
X13698658Y-16335127D01*
X13698658Y-16335127D02*
X13689134Y-16306555D01*
X13689134Y-16306555D02*
X13679611Y-16287508D01*
X13679611Y-16287508D02*
X13660563Y-16258936D01*
X13660563Y-16258936D02*
X13651039Y-16249412D01*
X14012944Y-16554174D02*
X14003420Y-16544650D01*
X14003420Y-16544650D02*
X13984372Y-16516079D01*
X13984372Y-16516079D02*
X13974849Y-16497031D01*
X13974849Y-16497031D02*
X13965325Y-16468460D01*
X13965325Y-16468460D02*
X13955801Y-16420841D01*
X13955801Y-16420841D02*
X13955801Y-16382746D01*
X13955801Y-16382746D02*
X13965325Y-16335127D01*
X13965325Y-16335127D02*
X13974849Y-16306555D01*
X13974849Y-16306555D02*
X13984372Y-16287508D01*
X13984372Y-16287508D02*
X14003420Y-16258936D01*
X14003420Y-16258936D02*
X14012944Y-16249412D01*
X14089134Y-16344650D02*
X14089134Y-16477984D01*
X14089134Y-16363698D02*
X14098658Y-16354174D01*
X14098658Y-16354174D02*
X14117706Y-16344650D01*
X14117706Y-16344650D02*
X14146277Y-16344650D01*
X14146277Y-16344650D02*
X14165325Y-16354174D01*
X14165325Y-16354174D02*
X14174849Y-16373222D01*
X14174849Y-16373222D02*
X14174849Y-16477984D01*
X14298658Y-16477984D02*
X14279611Y-16468460D01*
X14279611Y-16468460D02*
X14270087Y-16458936D01*
X14270087Y-16458936D02*
X14260563Y-16439888D01*
X14260563Y-16439888D02*
X14260563Y-16382746D01*
X14260563Y-16382746D02*
X14270087Y-16363698D01*
X14270087Y-16363698D02*
X14279611Y-16354174D01*
X14279611Y-16354174D02*
X14298658Y-16344650D01*
X14298658Y-16344650D02*
X14327230Y-16344650D01*
X14327230Y-16344650D02*
X14346277Y-16354174D01*
X14346277Y-16354174D02*
X14355801Y-16363698D01*
X14355801Y-16363698D02*
X14365325Y-16382746D01*
X14365325Y-16382746D02*
X14365325Y-16439888D01*
X14365325Y-16439888D02*
X14355801Y-16458936D01*
X14355801Y-16458936D02*
X14346277Y-16468460D01*
X14346277Y-16468460D02*
X14327230Y-16477984D01*
X14327230Y-16477984D02*
X14298658Y-16477984D01*
X14422468Y-16344650D02*
X14498658Y-16344650D01*
X14451039Y-16277984D02*
X14451039Y-16449412D01*
X14451039Y-16449412D02*
X14460563Y-16468460D01*
X14460563Y-16468460D02*
X14479611Y-16477984D01*
X14479611Y-16477984D02*
X14498658Y-16477984D01*
X14717706Y-16344650D02*
X14717706Y-16544650D01*
X14717706Y-16354174D02*
X14736753Y-16344650D01*
X14736753Y-16344650D02*
X14774849Y-16344650D01*
X14774849Y-16344650D02*
X14793896Y-16354174D01*
X14793896Y-16354174D02*
X14803420Y-16363698D01*
X14803420Y-16363698D02*
X14812944Y-16382746D01*
X14812944Y-16382746D02*
X14812944Y-16439888D01*
X14812944Y-16439888D02*
X14803420Y-16458936D01*
X14803420Y-16458936D02*
X14793896Y-16468460D01*
X14793896Y-16468460D02*
X14774849Y-16477984D01*
X14774849Y-16477984D02*
X14736753Y-16477984D01*
X14736753Y-16477984D02*
X14717706Y-16468460D01*
X14927230Y-16477984D02*
X14908182Y-16468460D01*
X14908182Y-16468460D02*
X14898658Y-16449412D01*
X14898658Y-16449412D02*
X14898658Y-16277984D01*
X15089134Y-16477984D02*
X15089134Y-16373222D01*
X15089134Y-16373222D02*
X15079611Y-16354174D01*
X15079611Y-16354174D02*
X15060563Y-16344650D01*
X15060563Y-16344650D02*
X15022468Y-16344650D01*
X15022468Y-16344650D02*
X15003420Y-16354174D01*
X15089134Y-16468460D02*
X15070087Y-16477984D01*
X15070087Y-16477984D02*
X15022468Y-16477984D01*
X15022468Y-16477984D02*
X15003420Y-16468460D01*
X15003420Y-16468460D02*
X14993896Y-16449412D01*
X14993896Y-16449412D02*
X14993896Y-16430365D01*
X14993896Y-16430365D02*
X15003420Y-16411317D01*
X15003420Y-16411317D02*
X15022468Y-16401793D01*
X15022468Y-16401793D02*
X15070087Y-16401793D01*
X15070087Y-16401793D02*
X15089134Y-16392269D01*
X15155801Y-16344650D02*
X15231992Y-16344650D01*
X15184373Y-16277984D02*
X15184373Y-16449412D01*
X15184373Y-16449412D02*
X15193896Y-16468460D01*
X15193896Y-16468460D02*
X15212944Y-16477984D01*
X15212944Y-16477984D02*
X15231992Y-16477984D01*
X15374849Y-16468460D02*
X15355801Y-16477984D01*
X15355801Y-16477984D02*
X15317706Y-16477984D01*
X15317706Y-16477984D02*
X15298658Y-16468460D01*
X15298658Y-16468460D02*
X15289134Y-16449412D01*
X15289134Y-16449412D02*
X15289134Y-16373222D01*
X15289134Y-16373222D02*
X15298658Y-16354174D01*
X15298658Y-16354174D02*
X15317706Y-16344650D01*
X15317706Y-16344650D02*
X15355801Y-16344650D01*
X15355801Y-16344650D02*
X15374849Y-16354174D01*
X15374849Y-16354174D02*
X15384373Y-16373222D01*
X15384373Y-16373222D02*
X15384373Y-16392269D01*
X15384373Y-16392269D02*
X15289134Y-16411317D01*
X15555801Y-16477984D02*
X15555801Y-16277984D01*
X15555801Y-16468460D02*
X15536754Y-16477984D01*
X15536754Y-16477984D02*
X15498658Y-16477984D01*
X15498658Y-16477984D02*
X15479611Y-16468460D01*
X15479611Y-16468460D02*
X15470087Y-16458936D01*
X15470087Y-16458936D02*
X15460563Y-16439888D01*
X15460563Y-16439888D02*
X15460563Y-16382746D01*
X15460563Y-16382746D02*
X15470087Y-16363698D01*
X15470087Y-16363698D02*
X15479611Y-16354174D01*
X15479611Y-16354174D02*
X15498658Y-16344650D01*
X15498658Y-16344650D02*
X15536754Y-16344650D01*
X15536754Y-16344650D02*
X15555801Y-16354174D01*
X15631992Y-16554174D02*
X15641515Y-16544650D01*
X15641515Y-16544650D02*
X15660563Y-16516079D01*
X15660563Y-16516079D02*
X15670087Y-16497031D01*
X15670087Y-16497031D02*
X15679611Y-16468460D01*
X15679611Y-16468460D02*
X15689134Y-16420841D01*
X15689134Y-16420841D02*
X15689134Y-16382746D01*
X15689134Y-16382746D02*
X15679611Y-16335127D01*
X15679611Y-16335127D02*
X15670087Y-16306555D01*
X15670087Y-16306555D02*
X15660563Y-16287508D01*
X15660563Y-16287508D02*
X15641515Y-16258936D01*
X15641515Y-16258936D02*
X15631992Y-16249412D01*
M02*
