%TF.GenerationSoftware,KiCad,Pcbnew,8.0.4*%
%TF.CreationDate,2024-11-30T23:44:54+01:00*%
%TF.ProjectId,ALL_PCBS,414c4c5f-5043-4425-932e-6b696361645f,rev?*%
%TF.SameCoordinates,Original*%
%TF.FileFunction,Drillmap*%
%TF.FilePolarity,Positive*%
%FSLAX45Y45*%
G04 Gerber Fmt 4.5, Leading zero omitted, Abs format (unit mm)*
G04 Created by KiCad (PCBNEW 8.0.4) date 2024-11-30 23:44:54*
%MOMM*%
%LPD*%
G01*
G04 APERTURE LIST*
%ADD10C,0.050000*%
%ADD11C,0.200000*%
%ADD12C,0.100000*%
G04 APERTURE END LIST*
D10*
X17993000Y-12687000D02*
X22788000Y-12687000D01*
X14894000Y-12687000D02*
X17527000Y-12687000D01*
X9088000Y-12687000D02*
X14428000Y-12687000D01*
X17527000Y-12941000D02*
X14894000Y-12941000D01*
X17993000Y-12941000D02*
X18007000Y-12941000D01*
X14407000Y-12941000D02*
X14428000Y-12941000D01*
X17344000Y-9687000D02*
X22273000Y-9687000D01*
X14569000Y-9687000D02*
X9566000Y-9687000D01*
X15035000Y-9687000D02*
X16878000Y-9687000D01*
X22788000Y-9687000D02*
X22739000Y-9687000D01*
X22296000Y-8633000D02*
X22291000Y-8633000D01*
X22366000Y-8633000D02*
X22296000Y-8633000D01*
X22291000Y-8633000D02*
X22206000Y-8633000D01*
X22101000Y-9383000D02*
X22101000Y-8683000D01*
X22911645Y-8633000D02*
X22891000Y-8633000D01*
X22273000Y-9433000D02*
X22151000Y-9433000D01*
X22891000Y-9433000D02*
X22739000Y-9433000D01*
X22911645Y-8633000D02*
G75*
G02*
X22961645Y-8683000I-8J-50008D01*
G01*
X22911645Y-9433000D02*
X22891000Y-9433000D01*
X22168000Y-8633000D02*
X22151000Y-8633000D01*
X22961645Y-9383000D02*
G75*
G02*
X22911645Y-9433000I-49997J-3D01*
G01*
X22206000Y-8633000D02*
X22168000Y-8633000D01*
X22101000Y-8683000D02*
G75*
G02*
X22151000Y-8633000I50000J0D01*
G01*
X22961645Y-9183000D02*
X22961645Y-9383000D01*
X22151000Y-9433000D02*
G75*
G02*
X22101000Y-9383000I0J50000D01*
G01*
X22961645Y-8883000D02*
X22961645Y-9183000D01*
X22366000Y-8633000D02*
X22891000Y-8633000D01*
X22961645Y-8683000D02*
X22961645Y-8883000D01*
X9100000Y-9433000D02*
X8978000Y-9433000D01*
X9718000Y-9433000D02*
X9566000Y-9433000D01*
X9100000Y-9687000D02*
X9088000Y-9687000D01*
X9788645Y-8683000D02*
X9788645Y-8883000D01*
X9193000Y-8633000D02*
X9718000Y-8633000D01*
X9788645Y-9383000D02*
G75*
G02*
X9738645Y-9433005I-50005J0D01*
G01*
X9788645Y-8883000D02*
X9788645Y-9183000D01*
X8995000Y-8633000D02*
X8978000Y-8633000D01*
X8978000Y-9433000D02*
G75*
G02*
X8928000Y-9383000I0J50000D01*
G01*
X9788645Y-9183000D02*
X9788645Y-9383000D01*
X8928000Y-8683000D02*
G75*
G02*
X8978000Y-8633000I50000J0D01*
G01*
X9033000Y-8633000D02*
X8995000Y-8633000D01*
X9738645Y-9433000D02*
X9718000Y-9433000D01*
X9193000Y-8633000D02*
X9123000Y-8633000D01*
X9738645Y-8633000D02*
X9718000Y-8633000D01*
X8928000Y-9383000D02*
X8928000Y-8683000D01*
X9123000Y-8633000D02*
X9118000Y-8633000D01*
X9118000Y-8633000D02*
X9033000Y-8633000D01*
X9738645Y-8633000D02*
G75*
G02*
X9788640Y-8683000I-5J-50000D01*
G01*
X22788000Y-9687000D02*
G75*
G02*
X23188000Y-10087000I0J-400000D01*
G01*
X8688000Y-10087000D02*
G75*
G02*
X9088000Y-9687000I400000J0D01*
G01*
X23188000Y-10087000D02*
X23188000Y-12287000D01*
X23188000Y-12287000D02*
G75*
G02*
X22788000Y-12687000I-400000J0D01*
G01*
X8688000Y-12287000D02*
X8688000Y-10087000D01*
X9088000Y-12687000D02*
G75*
G02*
X8688000Y-12287000I0J400000D01*
G01*
X14332000Y-13866000D02*
X14182000Y-13866000D01*
X15282000Y-13866000D02*
G75*
G02*
X15482000Y-14066000I0J-200000D01*
G01*
X14182000Y-13166000D02*
X14407000Y-12941000D01*
X12732000Y-13166000D02*
X14182000Y-13166000D01*
X14532000Y-14116000D02*
X14532000Y-14066000D01*
X16617355Y-14166000D02*
G75*
G02*
X16667350Y-14216000I5J-49990D01*
G01*
X15082000Y-14066000D02*
G75*
G02*
X15282000Y-13866000I200000J0D01*
G01*
X17132000Y-13866000D02*
G75*
G02*
X17332000Y-14066000I0J-200000D01*
G01*
X21357000Y-14841000D02*
G75*
G02*
X21357000Y-14991000I-75000J-75000D01*
G01*
X18232000Y-13166000D02*
X18007000Y-12941000D01*
X19682000Y-13166000D02*
X21357000Y-14841000D01*
X19332000Y-13866000D02*
X20682000Y-15216000D01*
X15746645Y-14216355D02*
X15746645Y-14366000D01*
X16717355Y-14416000D02*
G75*
G02*
X16667350Y-14366000I5J50010D01*
G01*
X19682000Y-13166000D02*
X18232000Y-13166000D01*
X17882000Y-14066000D02*
X17882000Y-14116000D01*
X12732000Y-13166000D02*
X11057000Y-14841000D01*
X18232000Y-13866000D02*
X19332000Y-13866000D01*
X13082000Y-13866000D02*
X11732000Y-15216000D01*
X11282000Y-15216000D02*
X11057000Y-14991000D01*
X16932000Y-14066000D02*
X16932000Y-14366000D01*
X15532000Y-14416000D02*
G75*
G02*
X15482000Y-14366000I0J50000D01*
G01*
X14332000Y-13866000D02*
G75*
G02*
X14532000Y-14066000I0J-200000D01*
G01*
X16882000Y-14416000D02*
X16732000Y-14416000D01*
X11732000Y-15216000D02*
X11282000Y-15216000D01*
X16932000Y-14366000D02*
G75*
G02*
X16882000Y-14416000I-50000J0D01*
G01*
X17332000Y-14116000D02*
X17332000Y-14066000D01*
X21357000Y-14991000D02*
X21132000Y-15216000D01*
X16932000Y-14066000D02*
G75*
G02*
X17132000Y-13866000I200000J0D01*
G01*
X17882000Y-14066000D02*
G75*
G02*
X18082000Y-13866000I200000J0D01*
G01*
X18232000Y-13866000D02*
X18082000Y-13866000D01*
X17882000Y-14116000D02*
G75*
G02*
X17332000Y-14116000I-275000J0D01*
G01*
X15682000Y-14416000D02*
X15532000Y-14416000D01*
X15746645Y-14366000D02*
G75*
G02*
X15696645Y-14415995I-49995J0D01*
G01*
X14182000Y-13866000D02*
X13082000Y-13866000D01*
X15482000Y-14066000D02*
X15482000Y-14366000D01*
X16732000Y-14416000D02*
X16717355Y-14416000D01*
X15682000Y-14416000D02*
X15696645Y-14416000D01*
X15746645Y-14216000D02*
G75*
G02*
X15796645Y-14165995I50005J0D01*
G01*
X15082000Y-14116000D02*
G75*
G02*
X14532000Y-14116000I-275000J0D01*
G01*
X16667355Y-14366000D02*
X16667355Y-14216000D01*
X15796645Y-14166000D02*
X16617355Y-14166000D01*
X20682000Y-15216000D02*
X21132000Y-15216000D01*
X15082000Y-14116000D02*
X15082000Y-14066000D01*
X11057000Y-14991000D02*
G75*
G02*
X11057000Y-14841000I75000J75000D01*
G01*
X14555700Y-9433000D02*
G75*
G02*
X14205700Y-9083000I0J350000D01*
G01*
X17705700Y-8433000D02*
X17705700Y-9083000D01*
X14205700Y-8433000D02*
G75*
G02*
X14905700Y-8433000I350000J0D01*
G01*
X17705700Y-9083000D02*
G75*
G02*
X17355700Y-9433000I-350000J0D01*
G01*
X14905700Y-8433000D02*
X17005700Y-8433000D01*
X14205700Y-9083000D02*
X14205700Y-8433000D01*
X17005700Y-8433000D02*
G75*
G02*
X17705700Y-8433000I350000J0D01*
G01*
X17344000Y-9433000D02*
X17355700Y-9433000D01*
X16878000Y-9433000D02*
X15035000Y-9433000D01*
X14555700Y-9433000D02*
X14569000Y-9433000D01*
X17993000Y-12941000D02*
G75*
G02*
X17993000Y-12687000I0J127000D01*
G01*
X17527000Y-12687000D02*
G75*
G02*
X17527000Y-12941000I0J-127000D01*
G01*
X14894000Y-12941000D02*
G75*
G02*
X14894000Y-12687000I0J127000D01*
G01*
X14428000Y-12687000D02*
G75*
G02*
X14428000Y-12941000I0J-127000D01*
G01*
X22273000Y-9433000D02*
G75*
G02*
X22273000Y-9687000I0J-127000D01*
G01*
X22739000Y-9687000D02*
G75*
G02*
X22739000Y-9433000I0J127000D01*
G01*
X9100000Y-9433000D02*
G75*
G02*
X9100000Y-9687000I0J-127000D01*
G01*
X9566000Y-9687000D02*
G75*
G02*
X9566000Y-9433000I0J127000D01*
G01*
X16878000Y-9433000D02*
G75*
G02*
X16878000Y-9687000I0J-127000D01*
G01*
X17344000Y-9687000D02*
G75*
G02*
X17344000Y-9433000I0J127000D01*
G01*
X14569000Y-9433000D02*
G75*
G02*
X14569000Y-9687000I0J-127000D01*
G01*
X15035000Y-9687000D02*
G75*
G02*
X15035000Y-9433000I0J127000D01*
G01*
D11*
D12*
X14387500Y-10979000D02*
X14413500Y-11005000D01*
X14413500Y-10979000D02*
X14387500Y-11005000D01*
X14605000Y-10871500D02*
X14631000Y-10897500D01*
X14631000Y-10871500D02*
X14605000Y-10897500D01*
X15285000Y-11044000D02*
X15311000Y-11070000D01*
X15311000Y-11044000D02*
X15285000Y-11070000D01*
X15287500Y-11134000D02*
X15313500Y-11160000D01*
X15313500Y-11134000D02*
X15287500Y-11160000D01*
X15305000Y-12004000D02*
X15331000Y-12030000D01*
X15331000Y-12004000D02*
X15305000Y-12030000D01*
X15305000Y-12124000D02*
X15331000Y-12150000D01*
X15331000Y-12124000D02*
X15305000Y-12150000D01*
X15421250Y-11205250D02*
X15447250Y-11231250D01*
X15447250Y-11205250D02*
X15421250Y-11231250D01*
X15435000Y-11371500D02*
X15461000Y-11397500D01*
X15461000Y-11371500D02*
X15435000Y-11397500D01*
X15445000Y-10484000D02*
X15471000Y-10510000D01*
X15471000Y-10484000D02*
X15445000Y-10510000D01*
X15454341Y-10403341D02*
X15480341Y-10429341D01*
X15480341Y-10403341D02*
X15454341Y-10429341D01*
X15475000Y-11144000D02*
X15501000Y-11170000D01*
X15501000Y-11144000D02*
X15475000Y-11170000D01*
X15555472Y-11481500D02*
X15581472Y-11507500D01*
X15581472Y-11481500D02*
X15555472Y-11507500D01*
X15860000Y-10954000D02*
X15886000Y-10980000D01*
X15886000Y-10954000D02*
X15860000Y-10980000D01*
X15907500Y-11314000D02*
X15933500Y-11340000D01*
X15933500Y-11314000D02*
X15907500Y-11340000D01*
X15998735Y-11177735D02*
X16024735Y-11203735D01*
X16024735Y-11177735D02*
X15998735Y-11203735D01*
X16055000Y-11564000D02*
X16081000Y-11590000D01*
X16081000Y-11564000D02*
X16055000Y-11590000D01*
X16070000Y-11364000D02*
X16096000Y-11390000D01*
X16096000Y-11364000D02*
X16070000Y-11390000D01*
X16125000Y-10821500D02*
X16151000Y-10847500D01*
X16151000Y-10821500D02*
X16125000Y-10847500D01*
X16135000Y-11654000D02*
X16161000Y-11680000D01*
X16161000Y-11654000D02*
X16135000Y-11680000D01*
X17485000Y-11250235D02*
X17511000Y-11276235D01*
X17511000Y-11250235D02*
X17485000Y-11276235D01*
X17721877Y-9889560D02*
X17747877Y-9915560D01*
X17747877Y-9889560D02*
X17721877Y-9915560D01*
X17725000Y-9974000D02*
X17751000Y-10000000D01*
X17751000Y-9974000D02*
X17725000Y-10000000D01*
X17730000Y-10061500D02*
X17756000Y-10087500D01*
X17756000Y-10061500D02*
X17730000Y-10087500D01*
X18867500Y-11261500D02*
X18893500Y-11287500D01*
X18893500Y-11261500D02*
X18867500Y-11287500D01*
X20138000Y-11789800D02*
X20164000Y-11815800D01*
X20164000Y-11789800D02*
X20138000Y-11815800D01*
X9233000Y-8808000D02*
G75*
G02*
X9203000Y-8808000I-15000J0D01*
G01*
X9203000Y-8808000D02*
G75*
G02*
X9233000Y-8808000I15000J0D01*
G01*
X9233000Y-8958000D02*
G75*
G02*
X9203000Y-8958000I-15000J0D01*
G01*
X9203000Y-8958000D02*
G75*
G02*
X9233000Y-8958000I15000J0D01*
G01*
X9233000Y-9108000D02*
G75*
G02*
X9203000Y-9108000I-15000J0D01*
G01*
X9203000Y-9108000D02*
G75*
G02*
X9233000Y-9108000I15000J0D01*
G01*
X9233000Y-9258000D02*
G75*
G02*
X9203000Y-9258000I-15000J0D01*
G01*
X9203000Y-9258000D02*
G75*
G02*
X9233000Y-9258000I15000J0D01*
G01*
X9408000Y-9063000D02*
G75*
G02*
X9378000Y-9063000I-15000J0D01*
G01*
X9378000Y-9063000D02*
G75*
G02*
X9408000Y-9063000I15000J0D01*
G01*
X9508000Y-9033000D02*
G75*
G02*
X9478000Y-9033000I-15000J0D01*
G01*
X9478000Y-9033000D02*
G75*
G02*
X9508000Y-9033000I15000J0D01*
G01*
X9600500Y-8890500D02*
G75*
G02*
X9570500Y-8890500I-15000J0D01*
G01*
X9570500Y-8890500D02*
G75*
G02*
X9600500Y-8890500I15000J0D01*
G01*
X9610000Y-9045000D02*
G75*
G02*
X9580000Y-9045000I-15000J0D01*
G01*
X9580000Y-9045000D02*
G75*
G02*
X9610000Y-9045000I15000J0D01*
G01*
X10942000Y-12106000D02*
G75*
G02*
X10912000Y-12106000I-15000J0D01*
G01*
X10912000Y-12106000D02*
G75*
G02*
X10942000Y-12106000I15000J0D01*
G01*
X11238000Y-11820000D02*
G75*
G02*
X11208000Y-11820000I-15000J0D01*
G01*
X11208000Y-11820000D02*
G75*
G02*
X11238000Y-11820000I15000J0D01*
G01*
X11277000Y-14741000D02*
G75*
G02*
X11247000Y-14741000I-15000J0D01*
G01*
X11247000Y-14741000D02*
G75*
G02*
X11277000Y-14741000I15000J0D01*
G01*
X11320500Y-11264500D02*
G75*
G02*
X11290500Y-11264500I-15000J0D01*
G01*
X11290500Y-11264500D02*
G75*
G02*
X11320500Y-11264500I15000J0D01*
G01*
X11328000Y-12107000D02*
G75*
G02*
X11298000Y-12107000I-15000J0D01*
G01*
X11298000Y-12107000D02*
G75*
G02*
X11328000Y-12107000I15000J0D01*
G01*
X11347000Y-11820000D02*
G75*
G02*
X11317000Y-11820000I-15000J0D01*
G01*
X11317000Y-11820000D02*
G75*
G02*
X11347000Y-11820000I15000J0D01*
G01*
X11398000Y-11242000D02*
G75*
G02*
X11368000Y-11242000I-15000J0D01*
G01*
X11368000Y-11242000D02*
G75*
G02*
X11398000Y-11242000I15000J0D01*
G01*
X11456000Y-11820000D02*
G75*
G02*
X11426000Y-11820000I-15000J0D01*
G01*
X11426000Y-11820000D02*
G75*
G02*
X11456000Y-11820000I15000J0D01*
G01*
X11487000Y-15111000D02*
G75*
G02*
X11457000Y-15111000I-15000J0D01*
G01*
X11457000Y-15111000D02*
G75*
G02*
X11487000Y-15111000I15000J0D01*
G01*
X11525500Y-11247000D02*
G75*
G02*
X11495500Y-11247000I-15000J0D01*
G01*
X11495500Y-11247000D02*
G75*
G02*
X11525500Y-11247000I15000J0D01*
G01*
X11525500Y-11352000D02*
G75*
G02*
X11495500Y-11352000I-15000J0D01*
G01*
X11495500Y-11352000D02*
G75*
G02*
X11525500Y-11352000I15000J0D01*
G01*
X11575500Y-10304500D02*
G75*
G02*
X11545500Y-10304500I-15000J0D01*
G01*
X11545500Y-10304500D02*
G75*
G02*
X11575500Y-10304500I15000J0D01*
G01*
X11627000Y-14541000D02*
G75*
G02*
X11597000Y-14541000I-15000J0D01*
G01*
X11597000Y-14541000D02*
G75*
G02*
X11627000Y-14541000I15000J0D01*
G01*
X11680500Y-9802000D02*
G75*
G02*
X11650500Y-9802000I-15000J0D01*
G01*
X11650500Y-9802000D02*
G75*
G02*
X11680500Y-9802000I15000J0D01*
G01*
X11851000Y-11820000D02*
G75*
G02*
X11821000Y-11820000I-15000J0D01*
G01*
X11821000Y-11820000D02*
G75*
G02*
X11851000Y-11820000I15000J0D01*
G01*
X11917000Y-14201000D02*
G75*
G02*
X11887000Y-14201000I-15000J0D01*
G01*
X11887000Y-14201000D02*
G75*
G02*
X11917000Y-14201000I15000J0D01*
G01*
X11937000Y-14081000D02*
G75*
G02*
X11907000Y-14081000I-15000J0D01*
G01*
X11907000Y-14081000D02*
G75*
G02*
X11937000Y-14081000I15000J0D01*
G01*
X11950500Y-10302000D02*
G75*
G02*
X11920500Y-10302000I-15000J0D01*
G01*
X11920500Y-10302000D02*
G75*
G02*
X11950500Y-10302000I15000J0D01*
G01*
X11969000Y-11821000D02*
G75*
G02*
X11939000Y-11821000I-15000J0D01*
G01*
X11939000Y-11821000D02*
G75*
G02*
X11969000Y-11821000I15000J0D01*
G01*
X12072000Y-11820000D02*
G75*
G02*
X12042000Y-11820000I-15000J0D01*
G01*
X12042000Y-11820000D02*
G75*
G02*
X12072000Y-11820000I15000J0D01*
G01*
X12127000Y-14541000D02*
G75*
G02*
X12097000Y-14541000I-15000J0D01*
G01*
X12097000Y-14541000D02*
G75*
G02*
X12127000Y-14541000I15000J0D01*
G01*
X12180500Y-10184500D02*
G75*
G02*
X12150500Y-10184500I-15000J0D01*
G01*
X12150500Y-10184500D02*
G75*
G02*
X12180500Y-10184500I15000J0D01*
G01*
X12180500Y-10267000D02*
G75*
G02*
X12150500Y-10267000I-15000J0D01*
G01*
X12150500Y-10267000D02*
G75*
G02*
X12180500Y-10267000I15000J0D01*
G01*
X12180500Y-10392000D02*
G75*
G02*
X12150500Y-10392000I-15000J0D01*
G01*
X12150500Y-10392000D02*
G75*
G02*
X12180500Y-10392000I15000J0D01*
G01*
X12236000Y-10732000D02*
G75*
G02*
X12206000Y-10732000I-15000J0D01*
G01*
X12206000Y-10732000D02*
G75*
G02*
X12236000Y-10732000I15000J0D01*
G01*
X12285500Y-10497000D02*
G75*
G02*
X12255500Y-10497000I-15000J0D01*
G01*
X12255500Y-10497000D02*
G75*
G02*
X12285500Y-10497000I15000J0D01*
G01*
X12367000Y-14231000D02*
G75*
G02*
X12337000Y-14231000I-15000J0D01*
G01*
X12337000Y-14231000D02*
G75*
G02*
X12367000Y-14231000I15000J0D01*
G01*
X12398000Y-11484500D02*
G75*
G02*
X12368000Y-11484500I-15000J0D01*
G01*
X12368000Y-11484500D02*
G75*
G02*
X12398000Y-11484500I15000J0D01*
G01*
X12447000Y-14401000D02*
G75*
G02*
X12417000Y-14401000I-15000J0D01*
G01*
X12417000Y-14401000D02*
G75*
G02*
X12447000Y-14401000I15000J0D01*
G01*
X12597000Y-14021000D02*
G75*
G02*
X12567000Y-14021000I-15000J0D01*
G01*
X12567000Y-14021000D02*
G75*
G02*
X12597000Y-14021000I15000J0D01*
G01*
X12817000Y-13571000D02*
G75*
G02*
X12787000Y-13571000I-15000J0D01*
G01*
X12787000Y-13571000D02*
G75*
G02*
X12817000Y-13571000I15000J0D01*
G01*
X12837000Y-13241000D02*
G75*
G02*
X12807000Y-13241000I-15000J0D01*
G01*
X12807000Y-13241000D02*
G75*
G02*
X12837000Y-13241000I15000J0D01*
G01*
X12953000Y-10346000D02*
G75*
G02*
X12923000Y-10346000I-15000J0D01*
G01*
X12923000Y-10346000D02*
G75*
G02*
X12953000Y-10346000I15000J0D01*
G01*
X12954000Y-10257000D02*
G75*
G02*
X12924000Y-10257000I-15000J0D01*
G01*
X12924000Y-10257000D02*
G75*
G02*
X12954000Y-10257000I15000J0D01*
G01*
X12986000Y-10747000D02*
G75*
G02*
X12956000Y-10747000I-15000J0D01*
G01*
X12956000Y-10747000D02*
G75*
G02*
X12986000Y-10747000I15000J0D01*
G01*
X13137000Y-13731000D02*
G75*
G02*
X13107000Y-13731000I-15000J0D01*
G01*
X13107000Y-13731000D02*
G75*
G02*
X13137000Y-13731000I15000J0D01*
G01*
X13207000Y-13551000D02*
G75*
G02*
X13177000Y-13551000I-15000J0D01*
G01*
X13177000Y-13551000D02*
G75*
G02*
X13207000Y-13551000I15000J0D01*
G01*
X13237000Y-13421000D02*
G75*
G02*
X13207000Y-13421000I-15000J0D01*
G01*
X13207000Y-13421000D02*
G75*
G02*
X13237000Y-13421000I15000J0D01*
G01*
X13413000Y-11387000D02*
G75*
G02*
X13383000Y-11387000I-15000J0D01*
G01*
X13383000Y-11387000D02*
G75*
G02*
X13413000Y-11387000I15000J0D01*
G01*
X13537000Y-13401000D02*
G75*
G02*
X13507000Y-13401000I-15000J0D01*
G01*
X13507000Y-13401000D02*
G75*
G02*
X13537000Y-13401000I15000J0D01*
G01*
X13767000Y-13601000D02*
G75*
G02*
X13737000Y-13601000I-15000J0D01*
G01*
X13737000Y-13601000D02*
G75*
G02*
X13767000Y-13601000I15000J0D01*
G01*
X13877000Y-13241000D02*
G75*
G02*
X13847000Y-13241000I-15000J0D01*
G01*
X13847000Y-13241000D02*
G75*
G02*
X13877000Y-13241000I15000J0D01*
G01*
X13884000Y-10500000D02*
G75*
G02*
X13854000Y-10500000I-15000J0D01*
G01*
X13854000Y-10500000D02*
G75*
G02*
X13884000Y-10500000I15000J0D01*
G01*
X13922000Y-11400000D02*
G75*
G02*
X13892000Y-11400000I-15000J0D01*
G01*
X13892000Y-11400000D02*
G75*
G02*
X13922000Y-11400000I15000J0D01*
G01*
X14024000Y-9882000D02*
G75*
G02*
X13994000Y-9882000I-15000J0D01*
G01*
X13994000Y-9882000D02*
G75*
G02*
X14024000Y-9882000I15000J0D01*
G01*
X14033000Y-10446000D02*
G75*
G02*
X14003000Y-10446000I-15000J0D01*
G01*
X14003000Y-10446000D02*
G75*
G02*
X14033000Y-10446000I15000J0D01*
G01*
X14097000Y-9955000D02*
G75*
G02*
X14067000Y-9955000I-15000J0D01*
G01*
X14067000Y-9955000D02*
G75*
G02*
X14097000Y-9955000I15000J0D01*
G01*
X14112000Y-10363000D02*
G75*
G02*
X14082000Y-10363000I-15000J0D01*
G01*
X14082000Y-10363000D02*
G75*
G02*
X14112000Y-10363000I15000J0D01*
G01*
X14158000Y-10015000D02*
G75*
G02*
X14128000Y-10015000I-15000J0D01*
G01*
X14128000Y-10015000D02*
G75*
G02*
X14158000Y-10015000I15000J0D01*
G01*
X14197000Y-13561000D02*
G75*
G02*
X14167000Y-13561000I-15000J0D01*
G01*
X14167000Y-13561000D02*
G75*
G02*
X14197000Y-13561000I15000J0D01*
G01*
X14207000Y-13681000D02*
G75*
G02*
X14177000Y-13681000I-15000J0D01*
G01*
X14177000Y-13681000D02*
G75*
G02*
X14207000Y-13681000I15000J0D01*
G01*
X14317000Y-13251000D02*
G75*
G02*
X14287000Y-13251000I-15000J0D01*
G01*
X14287000Y-13251000D02*
G75*
G02*
X14317000Y-13251000I15000J0D01*
G01*
X14603000Y-11674500D02*
G75*
G02*
X14573000Y-11674500I-15000J0D01*
G01*
X14573000Y-11674500D02*
G75*
G02*
X14603000Y-11674500I15000J0D01*
G01*
X14707000Y-13041000D02*
G75*
G02*
X14677000Y-13041000I-15000J0D01*
G01*
X14677000Y-13041000D02*
G75*
G02*
X14707000Y-13041000I15000J0D01*
G01*
X14747000Y-13391000D02*
G75*
G02*
X14717000Y-13391000I-15000J0D01*
G01*
X14717000Y-13391000D02*
G75*
G02*
X14747000Y-13391000I15000J0D01*
G01*
X14760500Y-10539500D02*
G75*
G02*
X14730500Y-10539500I-15000J0D01*
G01*
X14730500Y-10539500D02*
G75*
G02*
X14760500Y-10539500I15000J0D01*
G01*
X14848000Y-10399500D02*
G75*
G02*
X14818000Y-10399500I-15000J0D01*
G01*
X14818000Y-10399500D02*
G75*
G02*
X14848000Y-10399500I15000J0D01*
G01*
X15066000Y-10612000D02*
G75*
G02*
X15036000Y-10612000I-15000J0D01*
G01*
X15036000Y-10612000D02*
G75*
G02*
X15066000Y-10612000I15000J0D01*
G01*
X15127000Y-13341000D02*
G75*
G02*
X15097000Y-13341000I-15000J0D01*
G01*
X15097000Y-13341000D02*
G75*
G02*
X15127000Y-13341000I15000J0D01*
G01*
X15227000Y-13561000D02*
G75*
G02*
X15197000Y-13561000I-15000J0D01*
G01*
X15197000Y-13561000D02*
G75*
G02*
X15227000Y-13561000I15000J0D01*
G01*
X15437000Y-13201000D02*
G75*
G02*
X15407000Y-13201000I-15000J0D01*
G01*
X15407000Y-13201000D02*
G75*
G02*
X15437000Y-13201000I15000J0D01*
G01*
X15508000Y-9862000D02*
G75*
G02*
X15478000Y-9862000I-15000J0D01*
G01*
X15478000Y-9862000D02*
G75*
G02*
X15508000Y-9862000I15000J0D01*
G01*
X15517000Y-13751000D02*
G75*
G02*
X15487000Y-13751000I-15000J0D01*
G01*
X15487000Y-13751000D02*
G75*
G02*
X15517000Y-13751000I15000J0D01*
G01*
X15667000Y-13391000D02*
G75*
G02*
X15637000Y-13391000I-15000J0D01*
G01*
X15637000Y-13391000D02*
G75*
G02*
X15667000Y-13391000I15000J0D01*
G01*
X15759500Y-13931000D02*
G75*
G02*
X15729500Y-13931000I-15000J0D01*
G01*
X15729500Y-13931000D02*
G75*
G02*
X15759500Y-13931000I15000J0D01*
G01*
X15827000Y-13041000D02*
G75*
G02*
X15797000Y-13041000I-15000J0D01*
G01*
X15797000Y-13041000D02*
G75*
G02*
X15827000Y-13041000I15000J0D01*
G01*
X15907000Y-14081000D02*
G75*
G02*
X15877000Y-14081000I-15000J0D01*
G01*
X15877000Y-14081000D02*
G75*
G02*
X15907000Y-14081000I15000J0D01*
G01*
X15930500Y-12307000D02*
G75*
G02*
X15900500Y-12307000I-15000J0D01*
G01*
X15900500Y-12307000D02*
G75*
G02*
X15930500Y-12307000I15000J0D01*
G01*
X16056000Y-12495000D02*
G75*
G02*
X16026000Y-12495000I-15000J0D01*
G01*
X16026000Y-12495000D02*
G75*
G02*
X16056000Y-12495000I15000J0D01*
G01*
X16077000Y-13361000D02*
G75*
G02*
X16047000Y-13361000I-15000J0D01*
G01*
X16047000Y-13361000D02*
G75*
G02*
X16077000Y-13361000I15000J0D01*
G01*
X16161000Y-12497000D02*
G75*
G02*
X16131000Y-12497000I-15000J0D01*
G01*
X16131000Y-12497000D02*
G75*
G02*
X16161000Y-12497000I15000J0D01*
G01*
X16177000Y-13601000D02*
G75*
G02*
X16147000Y-13601000I-15000J0D01*
G01*
X16147000Y-13601000D02*
G75*
G02*
X16177000Y-13601000I15000J0D01*
G01*
X16197000Y-13481000D02*
G75*
G02*
X16167000Y-13481000I-15000J0D01*
G01*
X16167000Y-13481000D02*
G75*
G02*
X16197000Y-13481000I15000J0D01*
G01*
X16257000Y-13291000D02*
G75*
G02*
X16227000Y-13291000I-15000J0D01*
G01*
X16227000Y-13291000D02*
G75*
G02*
X16257000Y-13291000I15000J0D01*
G01*
X16261000Y-12497000D02*
G75*
G02*
X16231000Y-12497000I-15000J0D01*
G01*
X16231000Y-12497000D02*
G75*
G02*
X16261000Y-12497000I15000J0D01*
G01*
X16298000Y-12219500D02*
G75*
G02*
X16268000Y-12219500I-15000J0D01*
G01*
X16268000Y-12219500D02*
G75*
G02*
X16298000Y-12219500I15000J0D01*
G01*
X16387000Y-13591000D02*
G75*
G02*
X16357000Y-13591000I-15000J0D01*
G01*
X16357000Y-13591000D02*
G75*
G02*
X16387000Y-13591000I15000J0D01*
G01*
X16527000Y-14091000D02*
G75*
G02*
X16497000Y-14091000I-15000J0D01*
G01*
X16497000Y-14091000D02*
G75*
G02*
X16527000Y-14091000I15000J0D01*
G01*
X16622000Y-14071000D02*
G75*
G02*
X16592000Y-14071000I-15000J0D01*
G01*
X16592000Y-14071000D02*
G75*
G02*
X16622000Y-14071000I15000J0D01*
G01*
X16642000Y-11797000D02*
G75*
G02*
X16612000Y-11797000I-15000J0D01*
G01*
X16612000Y-11797000D02*
G75*
G02*
X16642000Y-11797000I15000J0D01*
G01*
X16677000Y-13016000D02*
G75*
G02*
X16647000Y-13016000I-15000J0D01*
G01*
X16647000Y-13016000D02*
G75*
G02*
X16677000Y-13016000I15000J0D01*
G01*
X16737000Y-13891000D02*
G75*
G02*
X16707000Y-13891000I-15000J0D01*
G01*
X16707000Y-13891000D02*
G75*
G02*
X16737000Y-13891000I15000J0D01*
G01*
X16777000Y-13381000D02*
G75*
G02*
X16747000Y-13381000I-15000J0D01*
G01*
X16747000Y-13381000D02*
G75*
G02*
X16777000Y-13381000I15000J0D01*
G01*
X16835500Y-10292000D02*
G75*
G02*
X16805500Y-10292000I-15000J0D01*
G01*
X16805500Y-10292000D02*
G75*
G02*
X16835500Y-10292000I15000J0D01*
G01*
X16877000Y-14061000D02*
G75*
G02*
X16847000Y-14061000I-15000J0D01*
G01*
X16847000Y-14061000D02*
G75*
G02*
X16877000Y-14061000I15000J0D01*
G01*
X16914000Y-10980000D02*
G75*
G02*
X16884000Y-10980000I-15000J0D01*
G01*
X16884000Y-10980000D02*
G75*
G02*
X16914000Y-10980000I15000J0D01*
G01*
X17047000Y-13321000D02*
G75*
G02*
X17017000Y-13321000I-15000J0D01*
G01*
X17017000Y-13321000D02*
G75*
G02*
X17047000Y-13321000I15000J0D01*
G01*
X17047000Y-13451000D02*
G75*
G02*
X17017000Y-13451000I-15000J0D01*
G01*
X17017000Y-13451000D02*
G75*
G02*
X17047000Y-13451000I15000J0D01*
G01*
X17067000Y-13221000D02*
G75*
G02*
X17037000Y-13221000I-15000J0D01*
G01*
X17037000Y-13221000D02*
G75*
G02*
X17067000Y-13221000I15000J0D01*
G01*
X17110000Y-11286000D02*
G75*
G02*
X17080000Y-11286000I-15000J0D01*
G01*
X17080000Y-11286000D02*
G75*
G02*
X17110000Y-11286000I15000J0D01*
G01*
X17170500Y-10602000D02*
G75*
G02*
X17140500Y-10602000I-15000J0D01*
G01*
X17140500Y-10602000D02*
G75*
G02*
X17170500Y-10602000I15000J0D01*
G01*
X17207000Y-13161000D02*
G75*
G02*
X17177000Y-13161000I-15000J0D01*
G01*
X17177000Y-13161000D02*
G75*
G02*
X17207000Y-13161000I15000J0D01*
G01*
X17437000Y-13561698D02*
G75*
G02*
X17407000Y-13561698I-15000J0D01*
G01*
X17407000Y-13561698D02*
G75*
G02*
X17437000Y-13561698I15000J0D01*
G01*
X17438000Y-11414500D02*
G75*
G02*
X17408000Y-11414500I-15000J0D01*
G01*
X17408000Y-11414500D02*
G75*
G02*
X17438000Y-11414500I15000J0D01*
G01*
X17506000Y-10586000D02*
G75*
G02*
X17476000Y-10586000I-15000J0D01*
G01*
X17476000Y-10586000D02*
G75*
G02*
X17506000Y-10586000I15000J0D01*
G01*
X17506000Y-10775000D02*
G75*
G02*
X17476000Y-10775000I-15000J0D01*
G01*
X17476000Y-10775000D02*
G75*
G02*
X17506000Y-10775000I15000J0D01*
G01*
X17517000Y-13751000D02*
G75*
G02*
X17487000Y-13751000I-15000J0D01*
G01*
X17487000Y-13751000D02*
G75*
G02*
X17517000Y-13751000I15000J0D01*
G01*
X17604000Y-10788000D02*
G75*
G02*
X17574000Y-10788000I-15000J0D01*
G01*
X17574000Y-10788000D02*
G75*
G02*
X17604000Y-10788000I15000J0D01*
G01*
X17605000Y-10581000D02*
G75*
G02*
X17575000Y-10581000I-15000J0D01*
G01*
X17575000Y-10581000D02*
G75*
G02*
X17605000Y-10581000I15000J0D01*
G01*
X17615500Y-12017000D02*
G75*
G02*
X17585500Y-12017000I-15000J0D01*
G01*
X17585500Y-12017000D02*
G75*
G02*
X17615500Y-12017000I15000J0D01*
G01*
X17617000Y-13016000D02*
G75*
G02*
X17587000Y-13016000I-15000J0D01*
G01*
X17587000Y-13016000D02*
G75*
G02*
X17617000Y-13016000I15000J0D01*
G01*
X17687000Y-13741000D02*
G75*
G02*
X17657000Y-13741000I-15000J0D01*
G01*
X17657000Y-13741000D02*
G75*
G02*
X17687000Y-13741000I15000J0D01*
G01*
X17727000Y-13381000D02*
G75*
G02*
X17697000Y-13381000I-15000J0D01*
G01*
X17697000Y-13381000D02*
G75*
G02*
X17727000Y-13381000I15000J0D01*
G01*
X17727000Y-13631000D02*
G75*
G02*
X17697000Y-13631000I-15000J0D01*
G01*
X17697000Y-13631000D02*
G75*
G02*
X17727000Y-13631000I15000J0D01*
G01*
X17997000Y-13351000D02*
G75*
G02*
X17967000Y-13351000I-15000J0D01*
G01*
X17967000Y-13351000D02*
G75*
G02*
X17997000Y-13351000I15000J0D01*
G01*
X18117000Y-13561000D02*
G75*
G02*
X18087000Y-13561000I-15000J0D01*
G01*
X18087000Y-13561000D02*
G75*
G02*
X18117000Y-13561000I15000J0D01*
G01*
X18127000Y-13191000D02*
G75*
G02*
X18097000Y-13191000I-15000J0D01*
G01*
X18097000Y-13191000D02*
G75*
G02*
X18127000Y-13191000I15000J0D01*
G01*
X18168000Y-11414500D02*
G75*
G02*
X18138000Y-11414500I-15000J0D01*
G01*
X18138000Y-11414500D02*
G75*
G02*
X18168000Y-11414500I15000J0D01*
G01*
X18182000Y-12358000D02*
G75*
G02*
X18152000Y-12358000I-15000J0D01*
G01*
X18152000Y-12358000D02*
G75*
G02*
X18182000Y-12358000I15000J0D01*
G01*
X18222000Y-11974000D02*
G75*
G02*
X18192000Y-11974000I-15000J0D01*
G01*
X18192000Y-11974000D02*
G75*
G02*
X18222000Y-11974000I15000J0D01*
G01*
X18447000Y-13251000D02*
G75*
G02*
X18417000Y-13251000I-15000J0D01*
G01*
X18417000Y-13251000D02*
G75*
G02*
X18447000Y-13251000I15000J0D01*
G01*
X18677000Y-13541000D02*
G75*
G02*
X18647000Y-13541000I-15000J0D01*
G01*
X18647000Y-13541000D02*
G75*
G02*
X18677000Y-13541000I15000J0D01*
G01*
X18880000Y-12359000D02*
G75*
G02*
X18850000Y-12359000I-15000J0D01*
G01*
X18850000Y-12359000D02*
G75*
G02*
X18880000Y-12359000I15000J0D01*
G01*
X18947000Y-13511000D02*
G75*
G02*
X18917000Y-13511000I-15000J0D01*
G01*
X18917000Y-13511000D02*
G75*
G02*
X18947000Y-13511000I15000J0D01*
G01*
X18960000Y-12537000D02*
G75*
G02*
X18930000Y-12537000I-15000J0D01*
G01*
X18930000Y-12537000D02*
G75*
G02*
X18960000Y-12537000I15000J0D01*
G01*
X19187000Y-13371000D02*
G75*
G02*
X19157000Y-13371000I-15000J0D01*
G01*
X19157000Y-13371000D02*
G75*
G02*
X19187000Y-13371000I15000J0D01*
G01*
X19547000Y-13241000D02*
G75*
G02*
X19517000Y-13241000I-15000J0D01*
G01*
X19517000Y-13241000D02*
G75*
G02*
X19547000Y-13241000I15000J0D01*
G01*
X19565500Y-9789500D02*
G75*
G02*
X19535500Y-9789500I-15000J0D01*
G01*
X19535500Y-9789500D02*
G75*
G02*
X19565500Y-9789500I15000J0D01*
G01*
X19576000Y-12616000D02*
G75*
G02*
X19546000Y-12616000I-15000J0D01*
G01*
X19546000Y-12616000D02*
G75*
G02*
X19576000Y-12616000I15000J0D01*
G01*
X19627000Y-13571000D02*
G75*
G02*
X19597000Y-13571000I-15000J0D01*
G01*
X19597000Y-13571000D02*
G75*
G02*
X19627000Y-13571000I15000J0D01*
G01*
X19690500Y-10124500D02*
G75*
G02*
X19660500Y-10124500I-15000J0D01*
G01*
X19660500Y-10124500D02*
G75*
G02*
X19690500Y-10124500I15000J0D01*
G01*
X19787000Y-13811000D02*
G75*
G02*
X19757000Y-13811000I-15000J0D01*
G01*
X19757000Y-13811000D02*
G75*
G02*
X19787000Y-13811000I15000J0D01*
G01*
X19850000Y-10533000D02*
G75*
G02*
X19820000Y-10533000I-15000J0D01*
G01*
X19820000Y-10533000D02*
G75*
G02*
X19850000Y-10533000I15000J0D01*
G01*
X19867000Y-13551000D02*
G75*
G02*
X19837000Y-13551000I-15000J0D01*
G01*
X19837000Y-13551000D02*
G75*
G02*
X19867000Y-13551000I15000J0D01*
G01*
X19938000Y-10533000D02*
G75*
G02*
X19908000Y-10533000I-15000J0D01*
G01*
X19908000Y-10533000D02*
G75*
G02*
X19938000Y-10533000I15000J0D01*
G01*
X19977000Y-14401000D02*
G75*
G02*
X19947000Y-14401000I-15000J0D01*
G01*
X19947000Y-14401000D02*
G75*
G02*
X19977000Y-14401000I15000J0D01*
G01*
X20033000Y-10533000D02*
G75*
G02*
X20003000Y-10533000I-15000J0D01*
G01*
X20003000Y-10533000D02*
G75*
G02*
X20033000Y-10533000I15000J0D01*
G01*
X20098449Y-14132449D02*
G75*
G02*
X20068449Y-14132449I-15000J0D01*
G01*
X20068449Y-14132449D02*
G75*
G02*
X20098449Y-14132449I15000J0D01*
G01*
X20217000Y-13861000D02*
G75*
G02*
X20187000Y-13861000I-15000J0D01*
G01*
X20187000Y-13861000D02*
G75*
G02*
X20217000Y-13861000I15000J0D01*
G01*
X20244000Y-11066000D02*
G75*
G02*
X20214000Y-11066000I-15000J0D01*
G01*
X20214000Y-11066000D02*
G75*
G02*
X20244000Y-11066000I15000J0D01*
G01*
X20351000Y-11066000D02*
G75*
G02*
X20321000Y-11066000I-15000J0D01*
G01*
X20321000Y-11066000D02*
G75*
G02*
X20351000Y-11066000I15000J0D01*
G01*
X20377000Y-14501000D02*
G75*
G02*
X20347000Y-14501000I-15000J0D01*
G01*
X20347000Y-14501000D02*
G75*
G02*
X20377000Y-14501000I15000J0D01*
G01*
X20420000Y-10533000D02*
G75*
G02*
X20390000Y-10533000I-15000J0D01*
G01*
X20390000Y-10533000D02*
G75*
G02*
X20420000Y-10533000I15000J0D01*
G01*
X20507000Y-14561000D02*
G75*
G02*
X20477000Y-14561000I-15000J0D01*
G01*
X20477000Y-14561000D02*
G75*
G02*
X20507000Y-14561000I15000J0D01*
G01*
X20508000Y-10533000D02*
G75*
G02*
X20478000Y-10533000I-15000J0D01*
G01*
X20478000Y-10533000D02*
G75*
G02*
X20508000Y-10533000I15000J0D01*
G01*
X20517000Y-14741000D02*
G75*
G02*
X20487000Y-14741000I-15000J0D01*
G01*
X20487000Y-14741000D02*
G75*
G02*
X20517000Y-14741000I15000J0D01*
G01*
X20519000Y-11066000D02*
G75*
G02*
X20489000Y-11066000I-15000J0D01*
G01*
X20489000Y-11066000D02*
G75*
G02*
X20519000Y-11066000I15000J0D01*
G01*
X20547000Y-14321000D02*
G75*
G02*
X20517000Y-14321000I-15000J0D01*
G01*
X20517000Y-14321000D02*
G75*
G02*
X20547000Y-14321000I15000J0D01*
G01*
X20550500Y-12357000D02*
G75*
G02*
X20520500Y-12357000I-15000J0D01*
G01*
X20520500Y-12357000D02*
G75*
G02*
X20550500Y-12357000I15000J0D01*
G01*
X20557000Y-11973000D02*
G75*
G02*
X20527000Y-11973000I-15000J0D01*
G01*
X20527000Y-11973000D02*
G75*
G02*
X20557000Y-11973000I15000J0D01*
G01*
X20559000Y-11839000D02*
G75*
G02*
X20529000Y-11839000I-15000J0D01*
G01*
X20529000Y-11839000D02*
G75*
G02*
X20559000Y-11839000I15000J0D01*
G01*
X20560500Y-11723000D02*
G75*
G02*
X20530500Y-11723000I-15000J0D01*
G01*
X20530500Y-11723000D02*
G75*
G02*
X20560500Y-11723000I15000J0D01*
G01*
X20598000Y-10533000D02*
G75*
G02*
X20568000Y-10533000I-15000J0D01*
G01*
X20568000Y-10533000D02*
G75*
G02*
X20598000Y-10533000I15000J0D01*
G01*
X20957000Y-14531000D02*
G75*
G02*
X20927000Y-14531000I-15000J0D01*
G01*
X20927000Y-14531000D02*
G75*
G02*
X20957000Y-14531000I15000J0D01*
G01*
X21197000Y-14831000D02*
G75*
G02*
X21167000Y-14831000I-15000J0D01*
G01*
X21167000Y-14831000D02*
G75*
G02*
X21197000Y-14831000I15000J0D01*
G01*
X22406000Y-8808000D02*
G75*
G02*
X22376000Y-8808000I-15000J0D01*
G01*
X22376000Y-8808000D02*
G75*
G02*
X22406000Y-8808000I15000J0D01*
G01*
X22406000Y-8958000D02*
G75*
G02*
X22376000Y-8958000I-15000J0D01*
G01*
X22376000Y-8958000D02*
G75*
G02*
X22406000Y-8958000I15000J0D01*
G01*
X22406000Y-9108000D02*
G75*
G02*
X22376000Y-9108000I-15000J0D01*
G01*
X22376000Y-9108000D02*
G75*
G02*
X22406000Y-9108000I15000J0D01*
G01*
X22406000Y-9258000D02*
G75*
G02*
X22376000Y-9258000I-15000J0D01*
G01*
X22376000Y-9258000D02*
G75*
G02*
X22406000Y-9258000I15000J0D01*
G01*
X22581000Y-9063000D02*
G75*
G02*
X22551000Y-9063000I-15000J0D01*
G01*
X22551000Y-9063000D02*
G75*
G02*
X22581000Y-9063000I15000J0D01*
G01*
X22681000Y-9033000D02*
G75*
G02*
X22651000Y-9033000I-15000J0D01*
G01*
X22651000Y-9033000D02*
G75*
G02*
X22681000Y-9033000I15000J0D01*
G01*
X22773500Y-8890500D02*
G75*
G02*
X22743500Y-8890500I-15000J0D01*
G01*
X22743500Y-8890500D02*
G75*
G02*
X22773500Y-8890500I15000J0D01*
G01*
X22783000Y-9045000D02*
G75*
G02*
X22753000Y-9045000I-15000J0D01*
G01*
X22753000Y-9045000D02*
G75*
G02*
X22783000Y-9045000I15000J0D01*
G01*
X11628000Y-10607000D02*
X11628000Y-10647000D01*
X11608000Y-10627000D02*
X11648000Y-10627000D01*
X11720500Y-10529500D02*
X11720500Y-10569500D01*
X11700500Y-10549500D02*
X11740500Y-10549500D01*
X11828000Y-10604500D02*
X11828000Y-10644500D01*
X11808000Y-10624500D02*
X11848000Y-10624500D01*
X12299000Y-11245000D02*
X12299000Y-11285000D01*
X12279000Y-11265000D02*
X12319000Y-11265000D01*
X14748000Y-11687000D02*
X14748000Y-11727000D01*
X14728000Y-11707000D02*
X14768000Y-11707000D01*
X14943000Y-10827000D02*
X14943000Y-10867000D01*
X14923000Y-10847000D02*
X14963000Y-10847000D01*
X14980500Y-11679500D02*
X14980500Y-11719500D01*
X14960500Y-11699500D02*
X15000500Y-11699500D01*
X15043000Y-11989500D02*
X15043000Y-12029500D01*
X15023000Y-12009500D02*
X15063000Y-12009500D01*
X15073000Y-12202000D02*
X15073000Y-12242000D01*
X15053000Y-12222000D02*
X15093000Y-12222000D01*
X15163000Y-12042000D02*
X15163000Y-12082000D01*
X15143000Y-12062000D02*
X15183000Y-12062000D01*
X15178000Y-10297000D02*
X15178000Y-10337000D01*
X15158000Y-10317000D02*
X15198000Y-10317000D01*
X15178000Y-10537000D02*
X15178000Y-10577000D01*
X15158000Y-10557000D02*
X15198000Y-10557000D01*
X15360500Y-11609500D02*
X15360500Y-11649500D01*
X15340500Y-11629500D02*
X15380500Y-11629500D01*
X15386000Y-11449000D02*
X15386000Y-11489000D01*
X15366000Y-11469000D02*
X15406000Y-11469000D01*
X15446800Y-10228200D02*
X15446800Y-10268200D01*
X15426800Y-10248200D02*
X15466800Y-10248200D01*
X15535700Y-8948000D02*
X15535700Y-8988000D01*
X15515700Y-8968000D02*
X15555700Y-8968000D01*
X15733200Y-9263000D02*
X15733200Y-9303000D01*
X15713200Y-9283000D02*
X15753200Y-9283000D01*
X15801700Y-8753000D02*
X15801700Y-8793000D01*
X15781700Y-8773000D02*
X15821700Y-8773000D01*
X15808000Y-12247000D02*
X15808000Y-12287000D01*
X15788000Y-12267000D02*
X15828000Y-12267000D01*
X15955700Y-8780500D02*
X15955700Y-8820500D01*
X15935700Y-8800500D02*
X15975700Y-8800500D01*
X16079265Y-10518265D02*
X16079265Y-10558265D01*
X16059265Y-10538265D02*
X16099265Y-10538265D01*
X16203200Y-8990500D02*
X16203200Y-9030500D01*
X16183200Y-9010500D02*
X16223200Y-9010500D01*
X16240562Y-10356934D02*
X16240562Y-10396934D01*
X16220562Y-10376934D02*
X16260562Y-10376934D01*
X16290700Y-9280500D02*
X16290700Y-9320500D01*
X16270700Y-9300500D02*
X16310700Y-9300500D01*
X16375557Y-10354503D02*
X16375557Y-10394503D01*
X16355557Y-10374503D02*
X16395557Y-10374503D01*
X16428200Y-8845500D02*
X16428200Y-8885500D01*
X16408200Y-8865500D02*
X16448200Y-8865500D01*
X16540500Y-11887000D02*
X16540500Y-11927000D01*
X16520500Y-11907000D02*
X16560500Y-11907000D01*
X16548000Y-11243235D02*
X16548000Y-11283235D01*
X16528000Y-11263235D02*
X16568000Y-11263235D01*
X16583000Y-10367000D02*
X16583000Y-10407000D01*
X16563000Y-10387000D02*
X16603000Y-10387000D01*
X16584250Y-10135750D02*
X16584250Y-10175750D01*
X16564250Y-10155750D02*
X16604250Y-10155750D01*
X17048000Y-11684000D02*
X17048000Y-11724000D01*
X17028000Y-11704000D02*
X17068000Y-11704000D01*
X17453000Y-11957000D02*
X17453000Y-11997000D01*
X17433000Y-11977000D02*
X17473000Y-11977000D01*
X17553000Y-11384500D02*
X17553000Y-11424500D01*
X17533000Y-11404500D02*
X17573000Y-11404500D01*
X18150500Y-12109500D02*
X18150500Y-12149500D01*
X18130500Y-12129500D02*
X18170500Y-12129500D01*
X18308000Y-10404500D02*
X18308000Y-10444500D01*
X18288000Y-10424500D02*
X18328000Y-10424500D01*
X18905000Y-12167000D02*
X18905000Y-12207000D01*
X18885000Y-12187000D02*
X18925000Y-12187000D01*
X18999000Y-12083000D02*
X18999000Y-12123000D01*
X18979000Y-12103000D02*
X19019000Y-12103000D01*
X19485500Y-11027000D02*
X19485500Y-11067000D01*
X19465500Y-11047000D02*
X19505500Y-11047000D01*
X19973200Y-12036800D02*
X19973200Y-12076800D01*
X19953200Y-12056800D02*
X19993200Y-12056800D01*
X20049400Y-11732000D02*
X20049400Y-11772000D01*
X20029400Y-11752000D02*
X20069400Y-11752000D01*
X20278000Y-11706600D02*
X20278000Y-11746600D01*
X20258000Y-11726600D02*
X20298000Y-11726600D01*
X20379600Y-12036800D02*
X20379600Y-12076800D01*
X20359600Y-12056800D02*
X20399600Y-12056800D01*
X11023356Y-9922356D02*
X11023356Y-9851644D01*
X10952644Y-9851644D01*
X10952644Y-9922356D01*
X11023356Y-9922356D01*
X11023356Y-12522356D02*
X11023356Y-12451644D01*
X10952644Y-12451644D01*
X10952644Y-12522356D01*
X11023356Y-12522356D01*
X16584356Y-12531356D02*
X16584356Y-12460644D01*
X16513644Y-12460644D01*
X16513644Y-12531356D01*
X16584356Y-12531356D01*
X16838356Y-12531356D02*
X16838356Y-12460644D01*
X16767644Y-12460644D01*
X16767644Y-12531356D01*
X16838356Y-12531356D01*
X20923356Y-9922356D02*
X20923356Y-9851644D01*
X20852644Y-9851644D01*
X20852644Y-9922356D01*
X20923356Y-9922356D01*
X20923356Y-12522356D02*
X20923356Y-12451644D01*
X20852644Y-12451644D01*
X20852644Y-12522356D01*
X20923356Y-12522356D01*
D11*
X8946277Y-15529984D02*
X8946277Y-15329984D01*
X8946277Y-15329984D02*
X8993896Y-15329984D01*
X8993896Y-15329984D02*
X9022467Y-15339508D01*
X9022467Y-15339508D02*
X9041515Y-15358555D01*
X9041515Y-15358555D02*
X9051039Y-15377603D01*
X9051039Y-15377603D02*
X9060563Y-15415698D01*
X9060563Y-15415698D02*
X9060563Y-15444269D01*
X9060563Y-15444269D02*
X9051039Y-15482365D01*
X9051039Y-15482365D02*
X9041515Y-15501412D01*
X9041515Y-15501412D02*
X9022467Y-15520460D01*
X9022467Y-15520460D02*
X8993896Y-15529984D01*
X8993896Y-15529984D02*
X8946277Y-15529984D01*
X9146277Y-15529984D02*
X9146277Y-15396650D01*
X9146277Y-15434746D02*
X9155801Y-15415698D01*
X9155801Y-15415698D02*
X9165324Y-15406174D01*
X9165324Y-15406174D02*
X9184372Y-15396650D01*
X9184372Y-15396650D02*
X9203420Y-15396650D01*
X9270086Y-15529984D02*
X9270086Y-15396650D01*
X9270086Y-15329984D02*
X9260563Y-15339508D01*
X9260563Y-15339508D02*
X9270086Y-15349031D01*
X9270086Y-15349031D02*
X9279610Y-15339508D01*
X9279610Y-15339508D02*
X9270086Y-15329984D01*
X9270086Y-15329984D02*
X9270086Y-15349031D01*
X9393896Y-15529984D02*
X9374848Y-15520460D01*
X9374848Y-15520460D02*
X9365324Y-15501412D01*
X9365324Y-15501412D02*
X9365324Y-15329984D01*
X9498658Y-15529984D02*
X9479610Y-15520460D01*
X9479610Y-15520460D02*
X9470086Y-15501412D01*
X9470086Y-15501412D02*
X9470086Y-15329984D01*
X9727229Y-15529984D02*
X9727229Y-15329984D01*
X9727229Y-15329984D02*
X9793896Y-15472841D01*
X9793896Y-15472841D02*
X9860563Y-15329984D01*
X9860563Y-15329984D02*
X9860563Y-15529984D01*
X10041515Y-15529984D02*
X10041515Y-15425222D01*
X10041515Y-15425222D02*
X10031991Y-15406174D01*
X10031991Y-15406174D02*
X10012944Y-15396650D01*
X10012944Y-15396650D02*
X9974848Y-15396650D01*
X9974848Y-15396650D02*
X9955801Y-15406174D01*
X10041515Y-15520460D02*
X10022467Y-15529984D01*
X10022467Y-15529984D02*
X9974848Y-15529984D01*
X9974848Y-15529984D02*
X9955801Y-15520460D01*
X9955801Y-15520460D02*
X9946277Y-15501412D01*
X9946277Y-15501412D02*
X9946277Y-15482365D01*
X9946277Y-15482365D02*
X9955801Y-15463317D01*
X9955801Y-15463317D02*
X9974848Y-15453793D01*
X9974848Y-15453793D02*
X10022467Y-15453793D01*
X10022467Y-15453793D02*
X10041515Y-15444269D01*
X10136753Y-15396650D02*
X10136753Y-15596650D01*
X10136753Y-15406174D02*
X10155801Y-15396650D01*
X10155801Y-15396650D02*
X10193896Y-15396650D01*
X10193896Y-15396650D02*
X10212944Y-15406174D01*
X10212944Y-15406174D02*
X10222467Y-15415698D01*
X10222467Y-15415698D02*
X10231991Y-15434746D01*
X10231991Y-15434746D02*
X10231991Y-15491888D01*
X10231991Y-15491888D02*
X10222467Y-15510936D01*
X10222467Y-15510936D02*
X10212944Y-15520460D01*
X10212944Y-15520460D02*
X10193896Y-15529984D01*
X10193896Y-15529984D02*
X10155801Y-15529984D01*
X10155801Y-15529984D02*
X10136753Y-15520460D01*
X10317705Y-15510936D02*
X10327229Y-15520460D01*
X10327229Y-15520460D02*
X10317705Y-15529984D01*
X10317705Y-15529984D02*
X10308182Y-15520460D01*
X10308182Y-15520460D02*
X10317705Y-15510936D01*
X10317705Y-15510936D02*
X10317705Y-15529984D01*
X10317705Y-15406174D02*
X10327229Y-15415698D01*
X10327229Y-15415698D02*
X10317705Y-15425222D01*
X10317705Y-15425222D02*
X10308182Y-15415698D01*
X10308182Y-15415698D02*
X10317705Y-15406174D01*
X10317705Y-15406174D02*
X10317705Y-15425222D01*
D12*
X8659500Y-15845500D02*
X8685500Y-15871500D01*
X8685500Y-15845500D02*
X8659500Y-15871500D01*
D11*
X8984372Y-15749984D02*
X9003420Y-15749984D01*
X9003420Y-15749984D02*
X9022467Y-15759508D01*
X9022467Y-15759508D02*
X9031991Y-15769031D01*
X9031991Y-15769031D02*
X9041515Y-15788079D01*
X9041515Y-15788079D02*
X9051039Y-15826174D01*
X9051039Y-15826174D02*
X9051039Y-15873793D01*
X9051039Y-15873793D02*
X9041515Y-15911888D01*
X9041515Y-15911888D02*
X9031991Y-15930936D01*
X9031991Y-15930936D02*
X9022467Y-15940460D01*
X9022467Y-15940460D02*
X9003420Y-15949984D01*
X9003420Y-15949984D02*
X8984372Y-15949984D01*
X8984372Y-15949984D02*
X8965324Y-15940460D01*
X8965324Y-15940460D02*
X8955801Y-15930936D01*
X8955801Y-15930936D02*
X8946277Y-15911888D01*
X8946277Y-15911888D02*
X8936753Y-15873793D01*
X8936753Y-15873793D02*
X8936753Y-15826174D01*
X8936753Y-15826174D02*
X8946277Y-15788079D01*
X8946277Y-15788079D02*
X8955801Y-15769031D01*
X8955801Y-15769031D02*
X8965324Y-15759508D01*
X8965324Y-15759508D02*
X8984372Y-15749984D01*
X9136753Y-15930936D02*
X9146277Y-15940460D01*
X9146277Y-15940460D02*
X9136753Y-15949984D01*
X9136753Y-15949984D02*
X9127229Y-15940460D01*
X9127229Y-15940460D02*
X9136753Y-15930936D01*
X9136753Y-15930936D02*
X9136753Y-15949984D01*
X9222467Y-15769031D02*
X9231991Y-15759508D01*
X9231991Y-15759508D02*
X9251039Y-15749984D01*
X9251039Y-15749984D02*
X9298658Y-15749984D01*
X9298658Y-15749984D02*
X9317705Y-15759508D01*
X9317705Y-15759508D02*
X9327229Y-15769031D01*
X9327229Y-15769031D02*
X9336753Y-15788079D01*
X9336753Y-15788079D02*
X9336753Y-15807127D01*
X9336753Y-15807127D02*
X9327229Y-15835698D01*
X9327229Y-15835698D02*
X9212944Y-15949984D01*
X9212944Y-15949984D02*
X9336753Y-15949984D01*
X9508182Y-15749984D02*
X9470086Y-15749984D01*
X9470086Y-15749984D02*
X9451039Y-15759508D01*
X9451039Y-15759508D02*
X9441515Y-15769031D01*
X9441515Y-15769031D02*
X9422467Y-15797603D01*
X9422467Y-15797603D02*
X9412944Y-15835698D01*
X9412944Y-15835698D02*
X9412944Y-15911888D01*
X9412944Y-15911888D02*
X9422467Y-15930936D01*
X9422467Y-15930936D02*
X9431991Y-15940460D01*
X9431991Y-15940460D02*
X9451039Y-15949984D01*
X9451039Y-15949984D02*
X9489134Y-15949984D01*
X9489134Y-15949984D02*
X9508182Y-15940460D01*
X9508182Y-15940460D02*
X9517705Y-15930936D01*
X9517705Y-15930936D02*
X9527229Y-15911888D01*
X9527229Y-15911888D02*
X9527229Y-15864269D01*
X9527229Y-15864269D02*
X9517705Y-15845222D01*
X9517705Y-15845222D02*
X9508182Y-15835698D01*
X9508182Y-15835698D02*
X9489134Y-15826174D01*
X9489134Y-15826174D02*
X9451039Y-15826174D01*
X9451039Y-15826174D02*
X9431991Y-15835698D01*
X9431991Y-15835698D02*
X9422467Y-15845222D01*
X9422467Y-15845222D02*
X9412944Y-15864269D01*
X9651039Y-15749984D02*
X9670086Y-15749984D01*
X9670086Y-15749984D02*
X9689134Y-15759508D01*
X9689134Y-15759508D02*
X9698658Y-15769031D01*
X9698658Y-15769031D02*
X9708182Y-15788079D01*
X9708182Y-15788079D02*
X9717705Y-15826174D01*
X9717705Y-15826174D02*
X9717705Y-15873793D01*
X9717705Y-15873793D02*
X9708182Y-15911888D01*
X9708182Y-15911888D02*
X9698658Y-15930936D01*
X9698658Y-15930936D02*
X9689134Y-15940460D01*
X9689134Y-15940460D02*
X9670086Y-15949984D01*
X9670086Y-15949984D02*
X9651039Y-15949984D01*
X9651039Y-15949984D02*
X9631991Y-15940460D01*
X9631991Y-15940460D02*
X9622467Y-15930936D01*
X9622467Y-15930936D02*
X9612944Y-15911888D01*
X9612944Y-15911888D02*
X9603420Y-15873793D01*
X9603420Y-15873793D02*
X9603420Y-15826174D01*
X9603420Y-15826174D02*
X9612944Y-15788079D01*
X9612944Y-15788079D02*
X9622467Y-15769031D01*
X9622467Y-15769031D02*
X9631991Y-15759508D01*
X9631991Y-15759508D02*
X9651039Y-15749984D01*
X9803420Y-15949984D02*
X9803420Y-15816650D01*
X9803420Y-15835698D02*
X9812944Y-15826174D01*
X9812944Y-15826174D02*
X9831991Y-15816650D01*
X9831991Y-15816650D02*
X9860563Y-15816650D01*
X9860563Y-15816650D02*
X9879610Y-15826174D01*
X9879610Y-15826174D02*
X9889134Y-15845222D01*
X9889134Y-15845222D02*
X9889134Y-15949984D01*
X9889134Y-15845222D02*
X9898658Y-15826174D01*
X9898658Y-15826174D02*
X9917705Y-15816650D01*
X9917705Y-15816650D02*
X9946277Y-15816650D01*
X9946277Y-15816650D02*
X9965325Y-15826174D01*
X9965325Y-15826174D02*
X9974848Y-15845222D01*
X9974848Y-15845222D02*
X9974848Y-15949984D01*
X10070086Y-15949984D02*
X10070086Y-15816650D01*
X10070086Y-15835698D02*
X10079610Y-15826174D01*
X10079610Y-15826174D02*
X10098658Y-15816650D01*
X10098658Y-15816650D02*
X10127229Y-15816650D01*
X10127229Y-15816650D02*
X10146277Y-15826174D01*
X10146277Y-15826174D02*
X10155801Y-15845222D01*
X10155801Y-15845222D02*
X10155801Y-15949984D01*
X10155801Y-15845222D02*
X10165325Y-15826174D01*
X10165325Y-15826174D02*
X10184372Y-15816650D01*
X10184372Y-15816650D02*
X10212944Y-15816650D01*
X10212944Y-15816650D02*
X10231991Y-15826174D01*
X10231991Y-15826174D02*
X10241515Y-15845222D01*
X10241515Y-15845222D02*
X10241515Y-15949984D01*
X10631991Y-15740460D02*
X10460563Y-15997603D01*
X10889134Y-15749984D02*
X10908182Y-15749984D01*
X10908182Y-15749984D02*
X10927229Y-15759508D01*
X10927229Y-15759508D02*
X10936753Y-15769031D01*
X10936753Y-15769031D02*
X10946277Y-15788079D01*
X10946277Y-15788079D02*
X10955801Y-15826174D01*
X10955801Y-15826174D02*
X10955801Y-15873793D01*
X10955801Y-15873793D02*
X10946277Y-15911888D01*
X10946277Y-15911888D02*
X10936753Y-15930936D01*
X10936753Y-15930936D02*
X10927229Y-15940460D01*
X10927229Y-15940460D02*
X10908182Y-15949984D01*
X10908182Y-15949984D02*
X10889134Y-15949984D01*
X10889134Y-15949984D02*
X10870087Y-15940460D01*
X10870087Y-15940460D02*
X10860563Y-15930936D01*
X10860563Y-15930936D02*
X10851039Y-15911888D01*
X10851039Y-15911888D02*
X10841515Y-15873793D01*
X10841515Y-15873793D02*
X10841515Y-15826174D01*
X10841515Y-15826174D02*
X10851039Y-15788079D01*
X10851039Y-15788079D02*
X10860563Y-15769031D01*
X10860563Y-15769031D02*
X10870087Y-15759508D01*
X10870087Y-15759508D02*
X10889134Y-15749984D01*
X11041515Y-15930936D02*
X11051039Y-15940460D01*
X11051039Y-15940460D02*
X11041515Y-15949984D01*
X11041515Y-15949984D02*
X11031991Y-15940460D01*
X11031991Y-15940460D02*
X11041515Y-15930936D01*
X11041515Y-15930936D02*
X11041515Y-15949984D01*
X11174848Y-15749984D02*
X11193896Y-15749984D01*
X11193896Y-15749984D02*
X11212944Y-15759508D01*
X11212944Y-15759508D02*
X11222467Y-15769031D01*
X11222467Y-15769031D02*
X11231991Y-15788079D01*
X11231991Y-15788079D02*
X11241515Y-15826174D01*
X11241515Y-15826174D02*
X11241515Y-15873793D01*
X11241515Y-15873793D02*
X11231991Y-15911888D01*
X11231991Y-15911888D02*
X11222467Y-15930936D01*
X11222467Y-15930936D02*
X11212944Y-15940460D01*
X11212944Y-15940460D02*
X11193896Y-15949984D01*
X11193896Y-15949984D02*
X11174848Y-15949984D01*
X11174848Y-15949984D02*
X11155801Y-15940460D01*
X11155801Y-15940460D02*
X11146277Y-15930936D01*
X11146277Y-15930936D02*
X11136753Y-15911888D01*
X11136753Y-15911888D02*
X11127229Y-15873793D01*
X11127229Y-15873793D02*
X11127229Y-15826174D01*
X11127229Y-15826174D02*
X11136753Y-15788079D01*
X11136753Y-15788079D02*
X11146277Y-15769031D01*
X11146277Y-15769031D02*
X11155801Y-15759508D01*
X11155801Y-15759508D02*
X11174848Y-15749984D01*
X11431991Y-15949984D02*
X11317706Y-15949984D01*
X11374848Y-15949984D02*
X11374848Y-15749984D01*
X11374848Y-15749984D02*
X11355801Y-15778555D01*
X11355801Y-15778555D02*
X11336753Y-15797603D01*
X11336753Y-15797603D02*
X11317706Y-15807127D01*
X11555801Y-15749984D02*
X11574848Y-15749984D01*
X11574848Y-15749984D02*
X11593896Y-15759508D01*
X11593896Y-15759508D02*
X11603420Y-15769031D01*
X11603420Y-15769031D02*
X11612944Y-15788079D01*
X11612944Y-15788079D02*
X11622467Y-15826174D01*
X11622467Y-15826174D02*
X11622467Y-15873793D01*
X11622467Y-15873793D02*
X11612944Y-15911888D01*
X11612944Y-15911888D02*
X11603420Y-15930936D01*
X11603420Y-15930936D02*
X11593896Y-15940460D01*
X11593896Y-15940460D02*
X11574848Y-15949984D01*
X11574848Y-15949984D02*
X11555801Y-15949984D01*
X11555801Y-15949984D02*
X11536753Y-15940460D01*
X11536753Y-15940460D02*
X11527229Y-15930936D01*
X11527229Y-15930936D02*
X11517706Y-15911888D01*
X11517706Y-15911888D02*
X11508182Y-15873793D01*
X11508182Y-15873793D02*
X11508182Y-15826174D01*
X11508182Y-15826174D02*
X11517706Y-15788079D01*
X11517706Y-15788079D02*
X11527229Y-15769031D01*
X11527229Y-15769031D02*
X11536753Y-15759508D01*
X11536753Y-15759508D02*
X11555801Y-15749984D01*
X11698658Y-15769031D02*
X11708182Y-15759508D01*
X11708182Y-15759508D02*
X11727229Y-15749984D01*
X11727229Y-15749984D02*
X11774848Y-15749984D01*
X11774848Y-15749984D02*
X11793896Y-15759508D01*
X11793896Y-15759508D02*
X11803420Y-15769031D01*
X11803420Y-15769031D02*
X11812944Y-15788079D01*
X11812944Y-15788079D02*
X11812944Y-15807127D01*
X11812944Y-15807127D02*
X11803420Y-15835698D01*
X11803420Y-15835698D02*
X11689134Y-15949984D01*
X11689134Y-15949984D02*
X11812944Y-15949984D01*
X11889134Y-15749984D02*
X11889134Y-15788079D01*
X11965325Y-15749984D02*
X11965325Y-15788079D01*
X12260563Y-16026174D02*
X12251039Y-16016650D01*
X12251039Y-16016650D02*
X12231991Y-15988079D01*
X12231991Y-15988079D02*
X12222468Y-15969031D01*
X12222468Y-15969031D02*
X12212944Y-15940460D01*
X12212944Y-15940460D02*
X12203420Y-15892841D01*
X12203420Y-15892841D02*
X12203420Y-15854746D01*
X12203420Y-15854746D02*
X12212944Y-15807127D01*
X12212944Y-15807127D02*
X12222468Y-15778555D01*
X12222468Y-15778555D02*
X12231991Y-15759508D01*
X12231991Y-15759508D02*
X12251039Y-15730936D01*
X12251039Y-15730936D02*
X12260563Y-15721412D01*
X12327229Y-15769031D02*
X12336753Y-15759508D01*
X12336753Y-15759508D02*
X12355801Y-15749984D01*
X12355801Y-15749984D02*
X12403420Y-15749984D01*
X12403420Y-15749984D02*
X12422468Y-15759508D01*
X12422468Y-15759508D02*
X12431991Y-15769031D01*
X12431991Y-15769031D02*
X12441515Y-15788079D01*
X12441515Y-15788079D02*
X12441515Y-15807127D01*
X12441515Y-15807127D02*
X12431991Y-15835698D01*
X12431991Y-15835698D02*
X12317706Y-15949984D01*
X12317706Y-15949984D02*
X12441515Y-15949984D01*
X12622468Y-15749984D02*
X12527229Y-15749984D01*
X12527229Y-15749984D02*
X12517706Y-15845222D01*
X12517706Y-15845222D02*
X12527229Y-15835698D01*
X12527229Y-15835698D02*
X12546277Y-15826174D01*
X12546277Y-15826174D02*
X12593896Y-15826174D01*
X12593896Y-15826174D02*
X12612944Y-15835698D01*
X12612944Y-15835698D02*
X12622468Y-15845222D01*
X12622468Y-15845222D02*
X12631991Y-15864269D01*
X12631991Y-15864269D02*
X12631991Y-15911888D01*
X12631991Y-15911888D02*
X12622468Y-15930936D01*
X12622468Y-15930936D02*
X12612944Y-15940460D01*
X12612944Y-15940460D02*
X12593896Y-15949984D01*
X12593896Y-15949984D02*
X12546277Y-15949984D01*
X12546277Y-15949984D02*
X12527229Y-15940460D01*
X12527229Y-15940460D02*
X12517706Y-15930936D01*
X12870087Y-15949984D02*
X12870087Y-15749984D01*
X12955801Y-15949984D02*
X12955801Y-15845222D01*
X12955801Y-15845222D02*
X12946277Y-15826174D01*
X12946277Y-15826174D02*
X12927230Y-15816650D01*
X12927230Y-15816650D02*
X12898658Y-15816650D01*
X12898658Y-15816650D02*
X12879610Y-15826174D01*
X12879610Y-15826174D02*
X12870087Y-15835698D01*
X13079610Y-15949984D02*
X13060563Y-15940460D01*
X13060563Y-15940460D02*
X13051039Y-15930936D01*
X13051039Y-15930936D02*
X13041515Y-15911888D01*
X13041515Y-15911888D02*
X13041515Y-15854746D01*
X13041515Y-15854746D02*
X13051039Y-15835698D01*
X13051039Y-15835698D02*
X13060563Y-15826174D01*
X13060563Y-15826174D02*
X13079610Y-15816650D01*
X13079610Y-15816650D02*
X13108182Y-15816650D01*
X13108182Y-15816650D02*
X13127230Y-15826174D01*
X13127230Y-15826174D02*
X13136753Y-15835698D01*
X13136753Y-15835698D02*
X13146277Y-15854746D01*
X13146277Y-15854746D02*
X13146277Y-15911888D01*
X13146277Y-15911888D02*
X13136753Y-15930936D01*
X13136753Y-15930936D02*
X13127230Y-15940460D01*
X13127230Y-15940460D02*
X13108182Y-15949984D01*
X13108182Y-15949984D02*
X13079610Y-15949984D01*
X13260563Y-15949984D02*
X13241515Y-15940460D01*
X13241515Y-15940460D02*
X13231991Y-15921412D01*
X13231991Y-15921412D02*
X13231991Y-15749984D01*
X13412944Y-15940460D02*
X13393896Y-15949984D01*
X13393896Y-15949984D02*
X13355801Y-15949984D01*
X13355801Y-15949984D02*
X13336753Y-15940460D01*
X13336753Y-15940460D02*
X13327230Y-15921412D01*
X13327230Y-15921412D02*
X13327230Y-15845222D01*
X13327230Y-15845222D02*
X13336753Y-15826174D01*
X13336753Y-15826174D02*
X13355801Y-15816650D01*
X13355801Y-15816650D02*
X13393896Y-15816650D01*
X13393896Y-15816650D02*
X13412944Y-15826174D01*
X13412944Y-15826174D02*
X13422468Y-15845222D01*
X13422468Y-15845222D02*
X13422468Y-15864269D01*
X13422468Y-15864269D02*
X13327230Y-15883317D01*
X13498658Y-15940460D02*
X13517706Y-15949984D01*
X13517706Y-15949984D02*
X13555801Y-15949984D01*
X13555801Y-15949984D02*
X13574849Y-15940460D01*
X13574849Y-15940460D02*
X13584372Y-15921412D01*
X13584372Y-15921412D02*
X13584372Y-15911888D01*
X13584372Y-15911888D02*
X13574849Y-15892841D01*
X13574849Y-15892841D02*
X13555801Y-15883317D01*
X13555801Y-15883317D02*
X13527230Y-15883317D01*
X13527230Y-15883317D02*
X13508182Y-15873793D01*
X13508182Y-15873793D02*
X13498658Y-15854746D01*
X13498658Y-15854746D02*
X13498658Y-15845222D01*
X13498658Y-15845222D02*
X13508182Y-15826174D01*
X13508182Y-15826174D02*
X13527230Y-15816650D01*
X13527230Y-15816650D02*
X13555801Y-15816650D01*
X13555801Y-15816650D02*
X13574849Y-15826174D01*
X13651039Y-16026174D02*
X13660563Y-16016650D01*
X13660563Y-16016650D02*
X13679611Y-15988079D01*
X13679611Y-15988079D02*
X13689134Y-15969031D01*
X13689134Y-15969031D02*
X13698658Y-15940460D01*
X13698658Y-15940460D02*
X13708182Y-15892841D01*
X13708182Y-15892841D02*
X13708182Y-15854746D01*
X13708182Y-15854746D02*
X13698658Y-15807127D01*
X13698658Y-15807127D02*
X13689134Y-15778555D01*
X13689134Y-15778555D02*
X13679611Y-15759508D01*
X13679611Y-15759508D02*
X13660563Y-15730936D01*
X13660563Y-15730936D02*
X13651039Y-15721412D01*
D12*
X8685500Y-16122500D02*
G75*
G02*
X8655500Y-16122500I-15000J0D01*
G01*
X8655500Y-16122500D02*
G75*
G02*
X8685500Y-16122500I15000J0D01*
G01*
D11*
X8984372Y-16013984D02*
X9003420Y-16013984D01*
X9003420Y-16013984D02*
X9022467Y-16023508D01*
X9022467Y-16023508D02*
X9031991Y-16033031D01*
X9031991Y-16033031D02*
X9041515Y-16052079D01*
X9041515Y-16052079D02*
X9051039Y-16090174D01*
X9051039Y-16090174D02*
X9051039Y-16137793D01*
X9051039Y-16137793D02*
X9041515Y-16175888D01*
X9041515Y-16175888D02*
X9031991Y-16194936D01*
X9031991Y-16194936D02*
X9022467Y-16204460D01*
X9022467Y-16204460D02*
X9003420Y-16213984D01*
X9003420Y-16213984D02*
X8984372Y-16213984D01*
X8984372Y-16213984D02*
X8965324Y-16204460D01*
X8965324Y-16204460D02*
X8955801Y-16194936D01*
X8955801Y-16194936D02*
X8946277Y-16175888D01*
X8946277Y-16175888D02*
X8936753Y-16137793D01*
X8936753Y-16137793D02*
X8936753Y-16090174D01*
X8936753Y-16090174D02*
X8946277Y-16052079D01*
X8946277Y-16052079D02*
X8955801Y-16033031D01*
X8955801Y-16033031D02*
X8965324Y-16023508D01*
X8965324Y-16023508D02*
X8984372Y-16013984D01*
X9136753Y-16194936D02*
X9146277Y-16204460D01*
X9146277Y-16204460D02*
X9136753Y-16213984D01*
X9136753Y-16213984D02*
X9127229Y-16204460D01*
X9127229Y-16204460D02*
X9136753Y-16194936D01*
X9136753Y-16194936D02*
X9136753Y-16213984D01*
X9212944Y-16013984D02*
X9336753Y-16013984D01*
X9336753Y-16013984D02*
X9270086Y-16090174D01*
X9270086Y-16090174D02*
X9298658Y-16090174D01*
X9298658Y-16090174D02*
X9317705Y-16099698D01*
X9317705Y-16099698D02*
X9327229Y-16109222D01*
X9327229Y-16109222D02*
X9336753Y-16128269D01*
X9336753Y-16128269D02*
X9336753Y-16175888D01*
X9336753Y-16175888D02*
X9327229Y-16194936D01*
X9327229Y-16194936D02*
X9317705Y-16204460D01*
X9317705Y-16204460D02*
X9298658Y-16213984D01*
X9298658Y-16213984D02*
X9241515Y-16213984D01*
X9241515Y-16213984D02*
X9222467Y-16204460D01*
X9222467Y-16204460D02*
X9212944Y-16194936D01*
X9460563Y-16013984D02*
X9479610Y-16013984D01*
X9479610Y-16013984D02*
X9498658Y-16023508D01*
X9498658Y-16023508D02*
X9508182Y-16033031D01*
X9508182Y-16033031D02*
X9517705Y-16052079D01*
X9517705Y-16052079D02*
X9527229Y-16090174D01*
X9527229Y-16090174D02*
X9527229Y-16137793D01*
X9527229Y-16137793D02*
X9517705Y-16175888D01*
X9517705Y-16175888D02*
X9508182Y-16194936D01*
X9508182Y-16194936D02*
X9498658Y-16204460D01*
X9498658Y-16204460D02*
X9479610Y-16213984D01*
X9479610Y-16213984D02*
X9460563Y-16213984D01*
X9460563Y-16213984D02*
X9441515Y-16204460D01*
X9441515Y-16204460D02*
X9431991Y-16194936D01*
X9431991Y-16194936D02*
X9422467Y-16175888D01*
X9422467Y-16175888D02*
X9412944Y-16137793D01*
X9412944Y-16137793D02*
X9412944Y-16090174D01*
X9412944Y-16090174D02*
X9422467Y-16052079D01*
X9422467Y-16052079D02*
X9431991Y-16033031D01*
X9431991Y-16033031D02*
X9441515Y-16023508D01*
X9441515Y-16023508D02*
X9460563Y-16013984D01*
X9651039Y-16013984D02*
X9670086Y-16013984D01*
X9670086Y-16013984D02*
X9689134Y-16023508D01*
X9689134Y-16023508D02*
X9698658Y-16033031D01*
X9698658Y-16033031D02*
X9708182Y-16052079D01*
X9708182Y-16052079D02*
X9717705Y-16090174D01*
X9717705Y-16090174D02*
X9717705Y-16137793D01*
X9717705Y-16137793D02*
X9708182Y-16175888D01*
X9708182Y-16175888D02*
X9698658Y-16194936D01*
X9698658Y-16194936D02*
X9689134Y-16204460D01*
X9689134Y-16204460D02*
X9670086Y-16213984D01*
X9670086Y-16213984D02*
X9651039Y-16213984D01*
X9651039Y-16213984D02*
X9631991Y-16204460D01*
X9631991Y-16204460D02*
X9622467Y-16194936D01*
X9622467Y-16194936D02*
X9612944Y-16175888D01*
X9612944Y-16175888D02*
X9603420Y-16137793D01*
X9603420Y-16137793D02*
X9603420Y-16090174D01*
X9603420Y-16090174D02*
X9612944Y-16052079D01*
X9612944Y-16052079D02*
X9622467Y-16033031D01*
X9622467Y-16033031D02*
X9631991Y-16023508D01*
X9631991Y-16023508D02*
X9651039Y-16013984D01*
X9803420Y-16213984D02*
X9803420Y-16080650D01*
X9803420Y-16099698D02*
X9812944Y-16090174D01*
X9812944Y-16090174D02*
X9831991Y-16080650D01*
X9831991Y-16080650D02*
X9860563Y-16080650D01*
X9860563Y-16080650D02*
X9879610Y-16090174D01*
X9879610Y-16090174D02*
X9889134Y-16109222D01*
X9889134Y-16109222D02*
X9889134Y-16213984D01*
X9889134Y-16109222D02*
X9898658Y-16090174D01*
X9898658Y-16090174D02*
X9917705Y-16080650D01*
X9917705Y-16080650D02*
X9946277Y-16080650D01*
X9946277Y-16080650D02*
X9965325Y-16090174D01*
X9965325Y-16090174D02*
X9974848Y-16109222D01*
X9974848Y-16109222D02*
X9974848Y-16213984D01*
X10070086Y-16213984D02*
X10070086Y-16080650D01*
X10070086Y-16099698D02*
X10079610Y-16090174D01*
X10079610Y-16090174D02*
X10098658Y-16080650D01*
X10098658Y-16080650D02*
X10127229Y-16080650D01*
X10127229Y-16080650D02*
X10146277Y-16090174D01*
X10146277Y-16090174D02*
X10155801Y-16109222D01*
X10155801Y-16109222D02*
X10155801Y-16213984D01*
X10155801Y-16109222D02*
X10165325Y-16090174D01*
X10165325Y-16090174D02*
X10184372Y-16080650D01*
X10184372Y-16080650D02*
X10212944Y-16080650D01*
X10212944Y-16080650D02*
X10231991Y-16090174D01*
X10231991Y-16090174D02*
X10241515Y-16109222D01*
X10241515Y-16109222D02*
X10241515Y-16213984D01*
X10631991Y-16004460D02*
X10460563Y-16261603D01*
X10889134Y-16013984D02*
X10908182Y-16013984D01*
X10908182Y-16013984D02*
X10927229Y-16023508D01*
X10927229Y-16023508D02*
X10936753Y-16033031D01*
X10936753Y-16033031D02*
X10946277Y-16052079D01*
X10946277Y-16052079D02*
X10955801Y-16090174D01*
X10955801Y-16090174D02*
X10955801Y-16137793D01*
X10955801Y-16137793D02*
X10946277Y-16175888D01*
X10946277Y-16175888D02*
X10936753Y-16194936D01*
X10936753Y-16194936D02*
X10927229Y-16204460D01*
X10927229Y-16204460D02*
X10908182Y-16213984D01*
X10908182Y-16213984D02*
X10889134Y-16213984D01*
X10889134Y-16213984D02*
X10870087Y-16204460D01*
X10870087Y-16204460D02*
X10860563Y-16194936D01*
X10860563Y-16194936D02*
X10851039Y-16175888D01*
X10851039Y-16175888D02*
X10841515Y-16137793D01*
X10841515Y-16137793D02*
X10841515Y-16090174D01*
X10841515Y-16090174D02*
X10851039Y-16052079D01*
X10851039Y-16052079D02*
X10860563Y-16033031D01*
X10860563Y-16033031D02*
X10870087Y-16023508D01*
X10870087Y-16023508D02*
X10889134Y-16013984D01*
X11041515Y-16194936D02*
X11051039Y-16204460D01*
X11051039Y-16204460D02*
X11041515Y-16213984D01*
X11041515Y-16213984D02*
X11031991Y-16204460D01*
X11031991Y-16204460D02*
X11041515Y-16194936D01*
X11041515Y-16194936D02*
X11041515Y-16213984D01*
X11174848Y-16013984D02*
X11193896Y-16013984D01*
X11193896Y-16013984D02*
X11212944Y-16023508D01*
X11212944Y-16023508D02*
X11222467Y-16033031D01*
X11222467Y-16033031D02*
X11231991Y-16052079D01*
X11231991Y-16052079D02*
X11241515Y-16090174D01*
X11241515Y-16090174D02*
X11241515Y-16137793D01*
X11241515Y-16137793D02*
X11231991Y-16175888D01*
X11231991Y-16175888D02*
X11222467Y-16194936D01*
X11222467Y-16194936D02*
X11212944Y-16204460D01*
X11212944Y-16204460D02*
X11193896Y-16213984D01*
X11193896Y-16213984D02*
X11174848Y-16213984D01*
X11174848Y-16213984D02*
X11155801Y-16204460D01*
X11155801Y-16204460D02*
X11146277Y-16194936D01*
X11146277Y-16194936D02*
X11136753Y-16175888D01*
X11136753Y-16175888D02*
X11127229Y-16137793D01*
X11127229Y-16137793D02*
X11127229Y-16090174D01*
X11127229Y-16090174D02*
X11136753Y-16052079D01*
X11136753Y-16052079D02*
X11146277Y-16033031D01*
X11146277Y-16033031D02*
X11155801Y-16023508D01*
X11155801Y-16023508D02*
X11174848Y-16013984D01*
X11431991Y-16213984D02*
X11317706Y-16213984D01*
X11374848Y-16213984D02*
X11374848Y-16013984D01*
X11374848Y-16013984D02*
X11355801Y-16042555D01*
X11355801Y-16042555D02*
X11336753Y-16061603D01*
X11336753Y-16061603D02*
X11317706Y-16071127D01*
X11622467Y-16213984D02*
X11508182Y-16213984D01*
X11565325Y-16213984D02*
X11565325Y-16013984D01*
X11565325Y-16013984D02*
X11546277Y-16042555D01*
X11546277Y-16042555D02*
X11527229Y-16061603D01*
X11527229Y-16061603D02*
X11508182Y-16071127D01*
X11736753Y-16099698D02*
X11717706Y-16090174D01*
X11717706Y-16090174D02*
X11708182Y-16080650D01*
X11708182Y-16080650D02*
X11698658Y-16061603D01*
X11698658Y-16061603D02*
X11698658Y-16052079D01*
X11698658Y-16052079D02*
X11708182Y-16033031D01*
X11708182Y-16033031D02*
X11717706Y-16023508D01*
X11717706Y-16023508D02*
X11736753Y-16013984D01*
X11736753Y-16013984D02*
X11774848Y-16013984D01*
X11774848Y-16013984D02*
X11793896Y-16023508D01*
X11793896Y-16023508D02*
X11803420Y-16033031D01*
X11803420Y-16033031D02*
X11812944Y-16052079D01*
X11812944Y-16052079D02*
X11812944Y-16061603D01*
X11812944Y-16061603D02*
X11803420Y-16080650D01*
X11803420Y-16080650D02*
X11793896Y-16090174D01*
X11793896Y-16090174D02*
X11774848Y-16099698D01*
X11774848Y-16099698D02*
X11736753Y-16099698D01*
X11736753Y-16099698D02*
X11717706Y-16109222D01*
X11717706Y-16109222D02*
X11708182Y-16118746D01*
X11708182Y-16118746D02*
X11698658Y-16137793D01*
X11698658Y-16137793D02*
X11698658Y-16175888D01*
X11698658Y-16175888D02*
X11708182Y-16194936D01*
X11708182Y-16194936D02*
X11717706Y-16204460D01*
X11717706Y-16204460D02*
X11736753Y-16213984D01*
X11736753Y-16213984D02*
X11774848Y-16213984D01*
X11774848Y-16213984D02*
X11793896Y-16204460D01*
X11793896Y-16204460D02*
X11803420Y-16194936D01*
X11803420Y-16194936D02*
X11812944Y-16175888D01*
X11812944Y-16175888D02*
X11812944Y-16137793D01*
X11812944Y-16137793D02*
X11803420Y-16118746D01*
X11803420Y-16118746D02*
X11793896Y-16109222D01*
X11793896Y-16109222D02*
X11774848Y-16099698D01*
X11889134Y-16013984D02*
X11889134Y-16052079D01*
X11965325Y-16013984D02*
X11965325Y-16052079D01*
X12260563Y-16290174D02*
X12251039Y-16280650D01*
X12251039Y-16280650D02*
X12231991Y-16252079D01*
X12231991Y-16252079D02*
X12222468Y-16233031D01*
X12222468Y-16233031D02*
X12212944Y-16204460D01*
X12212944Y-16204460D02*
X12203420Y-16156841D01*
X12203420Y-16156841D02*
X12203420Y-16118746D01*
X12203420Y-16118746D02*
X12212944Y-16071127D01*
X12212944Y-16071127D02*
X12222468Y-16042555D01*
X12222468Y-16042555D02*
X12231991Y-16023508D01*
X12231991Y-16023508D02*
X12251039Y-15994936D01*
X12251039Y-15994936D02*
X12260563Y-15985412D01*
X12441515Y-16213984D02*
X12327229Y-16213984D01*
X12384372Y-16213984D02*
X12384372Y-16013984D01*
X12384372Y-16013984D02*
X12365325Y-16042555D01*
X12365325Y-16042555D02*
X12346277Y-16061603D01*
X12346277Y-16061603D02*
X12327229Y-16071127D01*
X12612944Y-16013984D02*
X12574848Y-16013984D01*
X12574848Y-16013984D02*
X12555801Y-16023508D01*
X12555801Y-16023508D02*
X12546277Y-16033031D01*
X12546277Y-16033031D02*
X12527229Y-16061603D01*
X12527229Y-16061603D02*
X12517706Y-16099698D01*
X12517706Y-16099698D02*
X12517706Y-16175888D01*
X12517706Y-16175888D02*
X12527229Y-16194936D01*
X12527229Y-16194936D02*
X12536753Y-16204460D01*
X12536753Y-16204460D02*
X12555801Y-16213984D01*
X12555801Y-16213984D02*
X12593896Y-16213984D01*
X12593896Y-16213984D02*
X12612944Y-16204460D01*
X12612944Y-16204460D02*
X12622468Y-16194936D01*
X12622468Y-16194936D02*
X12631991Y-16175888D01*
X12631991Y-16175888D02*
X12631991Y-16128269D01*
X12631991Y-16128269D02*
X12622468Y-16109222D01*
X12622468Y-16109222D02*
X12612944Y-16099698D01*
X12612944Y-16099698D02*
X12593896Y-16090174D01*
X12593896Y-16090174D02*
X12555801Y-16090174D01*
X12555801Y-16090174D02*
X12536753Y-16099698D01*
X12536753Y-16099698D02*
X12527229Y-16109222D01*
X12527229Y-16109222D02*
X12517706Y-16128269D01*
X12822468Y-16213984D02*
X12708182Y-16213984D01*
X12765325Y-16213984D02*
X12765325Y-16013984D01*
X12765325Y-16013984D02*
X12746277Y-16042555D01*
X12746277Y-16042555D02*
X12727229Y-16061603D01*
X12727229Y-16061603D02*
X12708182Y-16071127D01*
X13060563Y-16213984D02*
X13060563Y-16013984D01*
X13146277Y-16213984D02*
X13146277Y-16109222D01*
X13146277Y-16109222D02*
X13136753Y-16090174D01*
X13136753Y-16090174D02*
X13117706Y-16080650D01*
X13117706Y-16080650D02*
X13089134Y-16080650D01*
X13089134Y-16080650D02*
X13070087Y-16090174D01*
X13070087Y-16090174D02*
X13060563Y-16099698D01*
X13270087Y-16213984D02*
X13251039Y-16204460D01*
X13251039Y-16204460D02*
X13241515Y-16194936D01*
X13241515Y-16194936D02*
X13231991Y-16175888D01*
X13231991Y-16175888D02*
X13231991Y-16118746D01*
X13231991Y-16118746D02*
X13241515Y-16099698D01*
X13241515Y-16099698D02*
X13251039Y-16090174D01*
X13251039Y-16090174D02*
X13270087Y-16080650D01*
X13270087Y-16080650D02*
X13298658Y-16080650D01*
X13298658Y-16080650D02*
X13317706Y-16090174D01*
X13317706Y-16090174D02*
X13327230Y-16099698D01*
X13327230Y-16099698D02*
X13336753Y-16118746D01*
X13336753Y-16118746D02*
X13336753Y-16175888D01*
X13336753Y-16175888D02*
X13327230Y-16194936D01*
X13327230Y-16194936D02*
X13317706Y-16204460D01*
X13317706Y-16204460D02*
X13298658Y-16213984D01*
X13298658Y-16213984D02*
X13270087Y-16213984D01*
X13451039Y-16213984D02*
X13431991Y-16204460D01*
X13431991Y-16204460D02*
X13422468Y-16185412D01*
X13422468Y-16185412D02*
X13422468Y-16013984D01*
X13603420Y-16204460D02*
X13584372Y-16213984D01*
X13584372Y-16213984D02*
X13546277Y-16213984D01*
X13546277Y-16213984D02*
X13527230Y-16204460D01*
X13527230Y-16204460D02*
X13517706Y-16185412D01*
X13517706Y-16185412D02*
X13517706Y-16109222D01*
X13517706Y-16109222D02*
X13527230Y-16090174D01*
X13527230Y-16090174D02*
X13546277Y-16080650D01*
X13546277Y-16080650D02*
X13584372Y-16080650D01*
X13584372Y-16080650D02*
X13603420Y-16090174D01*
X13603420Y-16090174D02*
X13612944Y-16109222D01*
X13612944Y-16109222D02*
X13612944Y-16128269D01*
X13612944Y-16128269D02*
X13517706Y-16147317D01*
X13689134Y-16204460D02*
X13708182Y-16213984D01*
X13708182Y-16213984D02*
X13746277Y-16213984D01*
X13746277Y-16213984D02*
X13765325Y-16204460D01*
X13765325Y-16204460D02*
X13774849Y-16185412D01*
X13774849Y-16185412D02*
X13774849Y-16175888D01*
X13774849Y-16175888D02*
X13765325Y-16156841D01*
X13765325Y-16156841D02*
X13746277Y-16147317D01*
X13746277Y-16147317D02*
X13717706Y-16147317D01*
X13717706Y-16147317D02*
X13698658Y-16137793D01*
X13698658Y-16137793D02*
X13689134Y-16118746D01*
X13689134Y-16118746D02*
X13689134Y-16109222D01*
X13689134Y-16109222D02*
X13698658Y-16090174D01*
X13698658Y-16090174D02*
X13717706Y-16080650D01*
X13717706Y-16080650D02*
X13746277Y-16080650D01*
X13746277Y-16080650D02*
X13765325Y-16090174D01*
X13841515Y-16290174D02*
X13851039Y-16280650D01*
X13851039Y-16280650D02*
X13870087Y-16252079D01*
X13870087Y-16252079D02*
X13879611Y-16233031D01*
X13879611Y-16233031D02*
X13889134Y-16204460D01*
X13889134Y-16204460D02*
X13898658Y-16156841D01*
X13898658Y-16156841D02*
X13898658Y-16118746D01*
X13898658Y-16118746D02*
X13889134Y-16071127D01*
X13889134Y-16071127D02*
X13879611Y-16042555D01*
X13879611Y-16042555D02*
X13870087Y-16023508D01*
X13870087Y-16023508D02*
X13851039Y-15994936D01*
X13851039Y-15994936D02*
X13841515Y-15985412D01*
D12*
X8665500Y-16366500D02*
X8665500Y-16406500D01*
X8645500Y-16386500D02*
X8685500Y-16386500D01*
D11*
X8984372Y-16277984D02*
X9003420Y-16277984D01*
X9003420Y-16277984D02*
X9022467Y-16287508D01*
X9022467Y-16287508D02*
X9031991Y-16297031D01*
X9031991Y-16297031D02*
X9041515Y-16316079D01*
X9041515Y-16316079D02*
X9051039Y-16354174D01*
X9051039Y-16354174D02*
X9051039Y-16401793D01*
X9051039Y-16401793D02*
X9041515Y-16439888D01*
X9041515Y-16439888D02*
X9031991Y-16458936D01*
X9031991Y-16458936D02*
X9022467Y-16468460D01*
X9022467Y-16468460D02*
X9003420Y-16477984D01*
X9003420Y-16477984D02*
X8984372Y-16477984D01*
X8984372Y-16477984D02*
X8965324Y-16468460D01*
X8965324Y-16468460D02*
X8955801Y-16458936D01*
X8955801Y-16458936D02*
X8946277Y-16439888D01*
X8946277Y-16439888D02*
X8936753Y-16401793D01*
X8936753Y-16401793D02*
X8936753Y-16354174D01*
X8936753Y-16354174D02*
X8946277Y-16316079D01*
X8946277Y-16316079D02*
X8955801Y-16297031D01*
X8955801Y-16297031D02*
X8965324Y-16287508D01*
X8965324Y-16287508D02*
X8984372Y-16277984D01*
X9136753Y-16458936D02*
X9146277Y-16468460D01*
X9146277Y-16468460D02*
X9136753Y-16477984D01*
X9136753Y-16477984D02*
X9127229Y-16468460D01*
X9127229Y-16468460D02*
X9136753Y-16458936D01*
X9136753Y-16458936D02*
X9136753Y-16477984D01*
X9317705Y-16344650D02*
X9317705Y-16477984D01*
X9270086Y-16268460D02*
X9222467Y-16411317D01*
X9222467Y-16411317D02*
X9346277Y-16411317D01*
X9460563Y-16277984D02*
X9479610Y-16277984D01*
X9479610Y-16277984D02*
X9498658Y-16287508D01*
X9498658Y-16287508D02*
X9508182Y-16297031D01*
X9508182Y-16297031D02*
X9517705Y-16316079D01*
X9517705Y-16316079D02*
X9527229Y-16354174D01*
X9527229Y-16354174D02*
X9527229Y-16401793D01*
X9527229Y-16401793D02*
X9517705Y-16439888D01*
X9517705Y-16439888D02*
X9508182Y-16458936D01*
X9508182Y-16458936D02*
X9498658Y-16468460D01*
X9498658Y-16468460D02*
X9479610Y-16477984D01*
X9479610Y-16477984D02*
X9460563Y-16477984D01*
X9460563Y-16477984D02*
X9441515Y-16468460D01*
X9441515Y-16468460D02*
X9431991Y-16458936D01*
X9431991Y-16458936D02*
X9422467Y-16439888D01*
X9422467Y-16439888D02*
X9412944Y-16401793D01*
X9412944Y-16401793D02*
X9412944Y-16354174D01*
X9412944Y-16354174D02*
X9422467Y-16316079D01*
X9422467Y-16316079D02*
X9431991Y-16297031D01*
X9431991Y-16297031D02*
X9441515Y-16287508D01*
X9441515Y-16287508D02*
X9460563Y-16277984D01*
X9651039Y-16277984D02*
X9670086Y-16277984D01*
X9670086Y-16277984D02*
X9689134Y-16287508D01*
X9689134Y-16287508D02*
X9698658Y-16297031D01*
X9698658Y-16297031D02*
X9708182Y-16316079D01*
X9708182Y-16316079D02*
X9717705Y-16354174D01*
X9717705Y-16354174D02*
X9717705Y-16401793D01*
X9717705Y-16401793D02*
X9708182Y-16439888D01*
X9708182Y-16439888D02*
X9698658Y-16458936D01*
X9698658Y-16458936D02*
X9689134Y-16468460D01*
X9689134Y-16468460D02*
X9670086Y-16477984D01*
X9670086Y-16477984D02*
X9651039Y-16477984D01*
X9651039Y-16477984D02*
X9631991Y-16468460D01*
X9631991Y-16468460D02*
X9622467Y-16458936D01*
X9622467Y-16458936D02*
X9612944Y-16439888D01*
X9612944Y-16439888D02*
X9603420Y-16401793D01*
X9603420Y-16401793D02*
X9603420Y-16354174D01*
X9603420Y-16354174D02*
X9612944Y-16316079D01*
X9612944Y-16316079D02*
X9622467Y-16297031D01*
X9622467Y-16297031D02*
X9631991Y-16287508D01*
X9631991Y-16287508D02*
X9651039Y-16277984D01*
X9803420Y-16477984D02*
X9803420Y-16344650D01*
X9803420Y-16363698D02*
X9812944Y-16354174D01*
X9812944Y-16354174D02*
X9831991Y-16344650D01*
X9831991Y-16344650D02*
X9860563Y-16344650D01*
X9860563Y-16344650D02*
X9879610Y-16354174D01*
X9879610Y-16354174D02*
X9889134Y-16373222D01*
X9889134Y-16373222D02*
X9889134Y-16477984D01*
X9889134Y-16373222D02*
X9898658Y-16354174D01*
X9898658Y-16354174D02*
X9917705Y-16344650D01*
X9917705Y-16344650D02*
X9946277Y-16344650D01*
X9946277Y-16344650D02*
X9965325Y-16354174D01*
X9965325Y-16354174D02*
X9974848Y-16373222D01*
X9974848Y-16373222D02*
X9974848Y-16477984D01*
X10070086Y-16477984D02*
X10070086Y-16344650D01*
X10070086Y-16363698D02*
X10079610Y-16354174D01*
X10079610Y-16354174D02*
X10098658Y-16344650D01*
X10098658Y-16344650D02*
X10127229Y-16344650D01*
X10127229Y-16344650D02*
X10146277Y-16354174D01*
X10146277Y-16354174D02*
X10155801Y-16373222D01*
X10155801Y-16373222D02*
X10155801Y-16477984D01*
X10155801Y-16373222D02*
X10165325Y-16354174D01*
X10165325Y-16354174D02*
X10184372Y-16344650D01*
X10184372Y-16344650D02*
X10212944Y-16344650D01*
X10212944Y-16344650D02*
X10231991Y-16354174D01*
X10231991Y-16354174D02*
X10241515Y-16373222D01*
X10241515Y-16373222D02*
X10241515Y-16477984D01*
X10631991Y-16268460D02*
X10460563Y-16525603D01*
X10889134Y-16277984D02*
X10908182Y-16277984D01*
X10908182Y-16277984D02*
X10927229Y-16287508D01*
X10927229Y-16287508D02*
X10936753Y-16297031D01*
X10936753Y-16297031D02*
X10946277Y-16316079D01*
X10946277Y-16316079D02*
X10955801Y-16354174D01*
X10955801Y-16354174D02*
X10955801Y-16401793D01*
X10955801Y-16401793D02*
X10946277Y-16439888D01*
X10946277Y-16439888D02*
X10936753Y-16458936D01*
X10936753Y-16458936D02*
X10927229Y-16468460D01*
X10927229Y-16468460D02*
X10908182Y-16477984D01*
X10908182Y-16477984D02*
X10889134Y-16477984D01*
X10889134Y-16477984D02*
X10870087Y-16468460D01*
X10870087Y-16468460D02*
X10860563Y-16458936D01*
X10860563Y-16458936D02*
X10851039Y-16439888D01*
X10851039Y-16439888D02*
X10841515Y-16401793D01*
X10841515Y-16401793D02*
X10841515Y-16354174D01*
X10841515Y-16354174D02*
X10851039Y-16316079D01*
X10851039Y-16316079D02*
X10860563Y-16297031D01*
X10860563Y-16297031D02*
X10870087Y-16287508D01*
X10870087Y-16287508D02*
X10889134Y-16277984D01*
X11041515Y-16458936D02*
X11051039Y-16468460D01*
X11051039Y-16468460D02*
X11041515Y-16477984D01*
X11041515Y-16477984D02*
X11031991Y-16468460D01*
X11031991Y-16468460D02*
X11041515Y-16458936D01*
X11041515Y-16458936D02*
X11041515Y-16477984D01*
X11174848Y-16277984D02*
X11193896Y-16277984D01*
X11193896Y-16277984D02*
X11212944Y-16287508D01*
X11212944Y-16287508D02*
X11222467Y-16297031D01*
X11222467Y-16297031D02*
X11231991Y-16316079D01*
X11231991Y-16316079D02*
X11241515Y-16354174D01*
X11241515Y-16354174D02*
X11241515Y-16401793D01*
X11241515Y-16401793D02*
X11231991Y-16439888D01*
X11231991Y-16439888D02*
X11222467Y-16458936D01*
X11222467Y-16458936D02*
X11212944Y-16468460D01*
X11212944Y-16468460D02*
X11193896Y-16477984D01*
X11193896Y-16477984D02*
X11174848Y-16477984D01*
X11174848Y-16477984D02*
X11155801Y-16468460D01*
X11155801Y-16468460D02*
X11146277Y-16458936D01*
X11146277Y-16458936D02*
X11136753Y-16439888D01*
X11136753Y-16439888D02*
X11127229Y-16401793D01*
X11127229Y-16401793D02*
X11127229Y-16354174D01*
X11127229Y-16354174D02*
X11136753Y-16316079D01*
X11136753Y-16316079D02*
X11146277Y-16297031D01*
X11146277Y-16297031D02*
X11155801Y-16287508D01*
X11155801Y-16287508D02*
X11174848Y-16277984D01*
X11431991Y-16477984D02*
X11317706Y-16477984D01*
X11374848Y-16477984D02*
X11374848Y-16277984D01*
X11374848Y-16277984D02*
X11355801Y-16306555D01*
X11355801Y-16306555D02*
X11336753Y-16325603D01*
X11336753Y-16325603D02*
X11317706Y-16335127D01*
X11612944Y-16277984D02*
X11517706Y-16277984D01*
X11517706Y-16277984D02*
X11508182Y-16373222D01*
X11508182Y-16373222D02*
X11517706Y-16363698D01*
X11517706Y-16363698D02*
X11536753Y-16354174D01*
X11536753Y-16354174D02*
X11584372Y-16354174D01*
X11584372Y-16354174D02*
X11603420Y-16363698D01*
X11603420Y-16363698D02*
X11612944Y-16373222D01*
X11612944Y-16373222D02*
X11622467Y-16392269D01*
X11622467Y-16392269D02*
X11622467Y-16439888D01*
X11622467Y-16439888D02*
X11612944Y-16458936D01*
X11612944Y-16458936D02*
X11603420Y-16468460D01*
X11603420Y-16468460D02*
X11584372Y-16477984D01*
X11584372Y-16477984D02*
X11536753Y-16477984D01*
X11536753Y-16477984D02*
X11517706Y-16468460D01*
X11517706Y-16468460D02*
X11508182Y-16458936D01*
X11689134Y-16277984D02*
X11822467Y-16277984D01*
X11822467Y-16277984D02*
X11736753Y-16477984D01*
X11889134Y-16277984D02*
X11889134Y-16316079D01*
X11965325Y-16277984D02*
X11965325Y-16316079D01*
X12260563Y-16554174D02*
X12251039Y-16544650D01*
X12251039Y-16544650D02*
X12231991Y-16516079D01*
X12231991Y-16516079D02*
X12222468Y-16497031D01*
X12222468Y-16497031D02*
X12212944Y-16468460D01*
X12212944Y-16468460D02*
X12203420Y-16420841D01*
X12203420Y-16420841D02*
X12203420Y-16382746D01*
X12203420Y-16382746D02*
X12212944Y-16335127D01*
X12212944Y-16335127D02*
X12222468Y-16306555D01*
X12222468Y-16306555D02*
X12231991Y-16287508D01*
X12231991Y-16287508D02*
X12251039Y-16258936D01*
X12251039Y-16258936D02*
X12260563Y-16249412D01*
X12422468Y-16344650D02*
X12422468Y-16477984D01*
X12374848Y-16268460D02*
X12327229Y-16411317D01*
X12327229Y-16411317D02*
X12451039Y-16411317D01*
X12517706Y-16297031D02*
X12527229Y-16287508D01*
X12527229Y-16287508D02*
X12546277Y-16277984D01*
X12546277Y-16277984D02*
X12593896Y-16277984D01*
X12593896Y-16277984D02*
X12612944Y-16287508D01*
X12612944Y-16287508D02*
X12622468Y-16297031D01*
X12622468Y-16297031D02*
X12631991Y-16316079D01*
X12631991Y-16316079D02*
X12631991Y-16335127D01*
X12631991Y-16335127D02*
X12622468Y-16363698D01*
X12622468Y-16363698D02*
X12508182Y-16477984D01*
X12508182Y-16477984D02*
X12631991Y-16477984D01*
X12870087Y-16477984D02*
X12870087Y-16277984D01*
X12955801Y-16477984D02*
X12955801Y-16373222D01*
X12955801Y-16373222D02*
X12946277Y-16354174D01*
X12946277Y-16354174D02*
X12927230Y-16344650D01*
X12927230Y-16344650D02*
X12898658Y-16344650D01*
X12898658Y-16344650D02*
X12879610Y-16354174D01*
X12879610Y-16354174D02*
X12870087Y-16363698D01*
X13079610Y-16477984D02*
X13060563Y-16468460D01*
X13060563Y-16468460D02*
X13051039Y-16458936D01*
X13051039Y-16458936D02*
X13041515Y-16439888D01*
X13041515Y-16439888D02*
X13041515Y-16382746D01*
X13041515Y-16382746D02*
X13051039Y-16363698D01*
X13051039Y-16363698D02*
X13060563Y-16354174D01*
X13060563Y-16354174D02*
X13079610Y-16344650D01*
X13079610Y-16344650D02*
X13108182Y-16344650D01*
X13108182Y-16344650D02*
X13127230Y-16354174D01*
X13127230Y-16354174D02*
X13136753Y-16363698D01*
X13136753Y-16363698D02*
X13146277Y-16382746D01*
X13146277Y-16382746D02*
X13146277Y-16439888D01*
X13146277Y-16439888D02*
X13136753Y-16458936D01*
X13136753Y-16458936D02*
X13127230Y-16468460D01*
X13127230Y-16468460D02*
X13108182Y-16477984D01*
X13108182Y-16477984D02*
X13079610Y-16477984D01*
X13260563Y-16477984D02*
X13241515Y-16468460D01*
X13241515Y-16468460D02*
X13231991Y-16449412D01*
X13231991Y-16449412D02*
X13231991Y-16277984D01*
X13412944Y-16468460D02*
X13393896Y-16477984D01*
X13393896Y-16477984D02*
X13355801Y-16477984D01*
X13355801Y-16477984D02*
X13336753Y-16468460D01*
X13336753Y-16468460D02*
X13327230Y-16449412D01*
X13327230Y-16449412D02*
X13327230Y-16373222D01*
X13327230Y-16373222D02*
X13336753Y-16354174D01*
X13336753Y-16354174D02*
X13355801Y-16344650D01*
X13355801Y-16344650D02*
X13393896Y-16344650D01*
X13393896Y-16344650D02*
X13412944Y-16354174D01*
X13412944Y-16354174D02*
X13422468Y-16373222D01*
X13422468Y-16373222D02*
X13422468Y-16392269D01*
X13422468Y-16392269D02*
X13327230Y-16411317D01*
X13498658Y-16468460D02*
X13517706Y-16477984D01*
X13517706Y-16477984D02*
X13555801Y-16477984D01*
X13555801Y-16477984D02*
X13574849Y-16468460D01*
X13574849Y-16468460D02*
X13584372Y-16449412D01*
X13584372Y-16449412D02*
X13584372Y-16439888D01*
X13584372Y-16439888D02*
X13574849Y-16420841D01*
X13574849Y-16420841D02*
X13555801Y-16411317D01*
X13555801Y-16411317D02*
X13527230Y-16411317D01*
X13527230Y-16411317D02*
X13508182Y-16401793D01*
X13508182Y-16401793D02*
X13498658Y-16382746D01*
X13498658Y-16382746D02*
X13498658Y-16373222D01*
X13498658Y-16373222D02*
X13508182Y-16354174D01*
X13508182Y-16354174D02*
X13527230Y-16344650D01*
X13527230Y-16344650D02*
X13555801Y-16344650D01*
X13555801Y-16344650D02*
X13574849Y-16354174D01*
X13651039Y-16554174D02*
X13660563Y-16544650D01*
X13660563Y-16544650D02*
X13679611Y-16516079D01*
X13679611Y-16516079D02*
X13689134Y-16497031D01*
X13689134Y-16497031D02*
X13698658Y-16468460D01*
X13698658Y-16468460D02*
X13708182Y-16420841D01*
X13708182Y-16420841D02*
X13708182Y-16382746D01*
X13708182Y-16382746D02*
X13698658Y-16335127D01*
X13698658Y-16335127D02*
X13689134Y-16306555D01*
X13689134Y-16306555D02*
X13679611Y-16287508D01*
X13679611Y-16287508D02*
X13660563Y-16258936D01*
X13660563Y-16258936D02*
X13651039Y-16249412D01*
D12*
X8670856Y-16685856D02*
X8670856Y-16615144D01*
X8600144Y-16615144D01*
X8600144Y-16685856D01*
X8670856Y-16685856D01*
D11*
X9051039Y-16741984D02*
X8936753Y-16741984D01*
X8993896Y-16741984D02*
X8993896Y-16541984D01*
X8993896Y-16541984D02*
X8974848Y-16570555D01*
X8974848Y-16570555D02*
X8955801Y-16589603D01*
X8955801Y-16589603D02*
X8936753Y-16599127D01*
X9136753Y-16722936D02*
X9146277Y-16732460D01*
X9146277Y-16732460D02*
X9136753Y-16741984D01*
X9136753Y-16741984D02*
X9127229Y-16732460D01*
X9127229Y-16732460D02*
X9136753Y-16722936D01*
X9136753Y-16722936D02*
X9136753Y-16741984D01*
X9270086Y-16541984D02*
X9289134Y-16541984D01*
X9289134Y-16541984D02*
X9308182Y-16551508D01*
X9308182Y-16551508D02*
X9317705Y-16561031D01*
X9317705Y-16561031D02*
X9327229Y-16580079D01*
X9327229Y-16580079D02*
X9336753Y-16618174D01*
X9336753Y-16618174D02*
X9336753Y-16665793D01*
X9336753Y-16665793D02*
X9327229Y-16703888D01*
X9327229Y-16703888D02*
X9317705Y-16722936D01*
X9317705Y-16722936D02*
X9308182Y-16732460D01*
X9308182Y-16732460D02*
X9289134Y-16741984D01*
X9289134Y-16741984D02*
X9270086Y-16741984D01*
X9270086Y-16741984D02*
X9251039Y-16732460D01*
X9251039Y-16732460D02*
X9241515Y-16722936D01*
X9241515Y-16722936D02*
X9231991Y-16703888D01*
X9231991Y-16703888D02*
X9222467Y-16665793D01*
X9222467Y-16665793D02*
X9222467Y-16618174D01*
X9222467Y-16618174D02*
X9231991Y-16580079D01*
X9231991Y-16580079D02*
X9241515Y-16561031D01*
X9241515Y-16561031D02*
X9251039Y-16551508D01*
X9251039Y-16551508D02*
X9270086Y-16541984D01*
X9460563Y-16541984D02*
X9479610Y-16541984D01*
X9479610Y-16541984D02*
X9498658Y-16551508D01*
X9498658Y-16551508D02*
X9508182Y-16561031D01*
X9508182Y-16561031D02*
X9517705Y-16580079D01*
X9517705Y-16580079D02*
X9527229Y-16618174D01*
X9527229Y-16618174D02*
X9527229Y-16665793D01*
X9527229Y-16665793D02*
X9517705Y-16703888D01*
X9517705Y-16703888D02*
X9508182Y-16722936D01*
X9508182Y-16722936D02*
X9498658Y-16732460D01*
X9498658Y-16732460D02*
X9479610Y-16741984D01*
X9479610Y-16741984D02*
X9460563Y-16741984D01*
X9460563Y-16741984D02*
X9441515Y-16732460D01*
X9441515Y-16732460D02*
X9431991Y-16722936D01*
X9431991Y-16722936D02*
X9422467Y-16703888D01*
X9422467Y-16703888D02*
X9412944Y-16665793D01*
X9412944Y-16665793D02*
X9412944Y-16618174D01*
X9412944Y-16618174D02*
X9422467Y-16580079D01*
X9422467Y-16580079D02*
X9431991Y-16561031D01*
X9431991Y-16561031D02*
X9441515Y-16551508D01*
X9441515Y-16551508D02*
X9460563Y-16541984D01*
X9651039Y-16541984D02*
X9670086Y-16541984D01*
X9670086Y-16541984D02*
X9689134Y-16551508D01*
X9689134Y-16551508D02*
X9698658Y-16561031D01*
X9698658Y-16561031D02*
X9708182Y-16580079D01*
X9708182Y-16580079D02*
X9717705Y-16618174D01*
X9717705Y-16618174D02*
X9717705Y-16665793D01*
X9717705Y-16665793D02*
X9708182Y-16703888D01*
X9708182Y-16703888D02*
X9698658Y-16722936D01*
X9698658Y-16722936D02*
X9689134Y-16732460D01*
X9689134Y-16732460D02*
X9670086Y-16741984D01*
X9670086Y-16741984D02*
X9651039Y-16741984D01*
X9651039Y-16741984D02*
X9631991Y-16732460D01*
X9631991Y-16732460D02*
X9622467Y-16722936D01*
X9622467Y-16722936D02*
X9612944Y-16703888D01*
X9612944Y-16703888D02*
X9603420Y-16665793D01*
X9603420Y-16665793D02*
X9603420Y-16618174D01*
X9603420Y-16618174D02*
X9612944Y-16580079D01*
X9612944Y-16580079D02*
X9622467Y-16561031D01*
X9622467Y-16561031D02*
X9631991Y-16551508D01*
X9631991Y-16551508D02*
X9651039Y-16541984D01*
X9803420Y-16741984D02*
X9803420Y-16608650D01*
X9803420Y-16627698D02*
X9812944Y-16618174D01*
X9812944Y-16618174D02*
X9831991Y-16608650D01*
X9831991Y-16608650D02*
X9860563Y-16608650D01*
X9860563Y-16608650D02*
X9879610Y-16618174D01*
X9879610Y-16618174D02*
X9889134Y-16637222D01*
X9889134Y-16637222D02*
X9889134Y-16741984D01*
X9889134Y-16637222D02*
X9898658Y-16618174D01*
X9898658Y-16618174D02*
X9917705Y-16608650D01*
X9917705Y-16608650D02*
X9946277Y-16608650D01*
X9946277Y-16608650D02*
X9965325Y-16618174D01*
X9965325Y-16618174D02*
X9974848Y-16637222D01*
X9974848Y-16637222D02*
X9974848Y-16741984D01*
X10070086Y-16741984D02*
X10070086Y-16608650D01*
X10070086Y-16627698D02*
X10079610Y-16618174D01*
X10079610Y-16618174D02*
X10098658Y-16608650D01*
X10098658Y-16608650D02*
X10127229Y-16608650D01*
X10127229Y-16608650D02*
X10146277Y-16618174D01*
X10146277Y-16618174D02*
X10155801Y-16637222D01*
X10155801Y-16637222D02*
X10155801Y-16741984D01*
X10155801Y-16637222D02*
X10165325Y-16618174D01*
X10165325Y-16618174D02*
X10184372Y-16608650D01*
X10184372Y-16608650D02*
X10212944Y-16608650D01*
X10212944Y-16608650D02*
X10231991Y-16618174D01*
X10231991Y-16618174D02*
X10241515Y-16637222D01*
X10241515Y-16637222D02*
X10241515Y-16741984D01*
X10631991Y-16532460D02*
X10460563Y-16789603D01*
X10889134Y-16541984D02*
X10908182Y-16541984D01*
X10908182Y-16541984D02*
X10927229Y-16551508D01*
X10927229Y-16551508D02*
X10936753Y-16561031D01*
X10936753Y-16561031D02*
X10946277Y-16580079D01*
X10946277Y-16580079D02*
X10955801Y-16618174D01*
X10955801Y-16618174D02*
X10955801Y-16665793D01*
X10955801Y-16665793D02*
X10946277Y-16703888D01*
X10946277Y-16703888D02*
X10936753Y-16722936D01*
X10936753Y-16722936D02*
X10927229Y-16732460D01*
X10927229Y-16732460D02*
X10908182Y-16741984D01*
X10908182Y-16741984D02*
X10889134Y-16741984D01*
X10889134Y-16741984D02*
X10870087Y-16732460D01*
X10870087Y-16732460D02*
X10860563Y-16722936D01*
X10860563Y-16722936D02*
X10851039Y-16703888D01*
X10851039Y-16703888D02*
X10841515Y-16665793D01*
X10841515Y-16665793D02*
X10841515Y-16618174D01*
X10841515Y-16618174D02*
X10851039Y-16580079D01*
X10851039Y-16580079D02*
X10860563Y-16561031D01*
X10860563Y-16561031D02*
X10870087Y-16551508D01*
X10870087Y-16551508D02*
X10889134Y-16541984D01*
X11041515Y-16722936D02*
X11051039Y-16732460D01*
X11051039Y-16732460D02*
X11041515Y-16741984D01*
X11041515Y-16741984D02*
X11031991Y-16732460D01*
X11031991Y-16732460D02*
X11041515Y-16722936D01*
X11041515Y-16722936D02*
X11041515Y-16741984D01*
X11174848Y-16541984D02*
X11193896Y-16541984D01*
X11193896Y-16541984D02*
X11212944Y-16551508D01*
X11212944Y-16551508D02*
X11222467Y-16561031D01*
X11222467Y-16561031D02*
X11231991Y-16580079D01*
X11231991Y-16580079D02*
X11241515Y-16618174D01*
X11241515Y-16618174D02*
X11241515Y-16665793D01*
X11241515Y-16665793D02*
X11231991Y-16703888D01*
X11231991Y-16703888D02*
X11222467Y-16722936D01*
X11222467Y-16722936D02*
X11212944Y-16732460D01*
X11212944Y-16732460D02*
X11193896Y-16741984D01*
X11193896Y-16741984D02*
X11174848Y-16741984D01*
X11174848Y-16741984D02*
X11155801Y-16732460D01*
X11155801Y-16732460D02*
X11146277Y-16722936D01*
X11146277Y-16722936D02*
X11136753Y-16703888D01*
X11136753Y-16703888D02*
X11127229Y-16665793D01*
X11127229Y-16665793D02*
X11127229Y-16618174D01*
X11127229Y-16618174D02*
X11136753Y-16580079D01*
X11136753Y-16580079D02*
X11146277Y-16561031D01*
X11146277Y-16561031D02*
X11155801Y-16551508D01*
X11155801Y-16551508D02*
X11174848Y-16541984D01*
X11308182Y-16541984D02*
X11431991Y-16541984D01*
X11431991Y-16541984D02*
X11365325Y-16618174D01*
X11365325Y-16618174D02*
X11393896Y-16618174D01*
X11393896Y-16618174D02*
X11412944Y-16627698D01*
X11412944Y-16627698D02*
X11422467Y-16637222D01*
X11422467Y-16637222D02*
X11431991Y-16656269D01*
X11431991Y-16656269D02*
X11431991Y-16703888D01*
X11431991Y-16703888D02*
X11422467Y-16722936D01*
X11422467Y-16722936D02*
X11412944Y-16732460D01*
X11412944Y-16732460D02*
X11393896Y-16741984D01*
X11393896Y-16741984D02*
X11336753Y-16741984D01*
X11336753Y-16741984D02*
X11317706Y-16732460D01*
X11317706Y-16732460D02*
X11308182Y-16722936D01*
X11527229Y-16741984D02*
X11565325Y-16741984D01*
X11565325Y-16741984D02*
X11584372Y-16732460D01*
X11584372Y-16732460D02*
X11593896Y-16722936D01*
X11593896Y-16722936D02*
X11612944Y-16694365D01*
X11612944Y-16694365D02*
X11622467Y-16656269D01*
X11622467Y-16656269D02*
X11622467Y-16580079D01*
X11622467Y-16580079D02*
X11612944Y-16561031D01*
X11612944Y-16561031D02*
X11603420Y-16551508D01*
X11603420Y-16551508D02*
X11584372Y-16541984D01*
X11584372Y-16541984D02*
X11546277Y-16541984D01*
X11546277Y-16541984D02*
X11527229Y-16551508D01*
X11527229Y-16551508D02*
X11517706Y-16561031D01*
X11517706Y-16561031D02*
X11508182Y-16580079D01*
X11508182Y-16580079D02*
X11508182Y-16627698D01*
X11508182Y-16627698D02*
X11517706Y-16646746D01*
X11517706Y-16646746D02*
X11527229Y-16656269D01*
X11527229Y-16656269D02*
X11546277Y-16665793D01*
X11546277Y-16665793D02*
X11584372Y-16665793D01*
X11584372Y-16665793D02*
X11603420Y-16656269D01*
X11603420Y-16656269D02*
X11612944Y-16646746D01*
X11612944Y-16646746D02*
X11622467Y-16627698D01*
X11793896Y-16608650D02*
X11793896Y-16741984D01*
X11746277Y-16532460D02*
X11698658Y-16675317D01*
X11698658Y-16675317D02*
X11822467Y-16675317D01*
X11889134Y-16541984D02*
X11889134Y-16580079D01*
X11965325Y-16541984D02*
X11965325Y-16580079D01*
X12260563Y-16818174D02*
X12251039Y-16808650D01*
X12251039Y-16808650D02*
X12231991Y-16780079D01*
X12231991Y-16780079D02*
X12222468Y-16761031D01*
X12222468Y-16761031D02*
X12212944Y-16732460D01*
X12212944Y-16732460D02*
X12203420Y-16684841D01*
X12203420Y-16684841D02*
X12203420Y-16646746D01*
X12203420Y-16646746D02*
X12212944Y-16599127D01*
X12212944Y-16599127D02*
X12222468Y-16570555D01*
X12222468Y-16570555D02*
X12231991Y-16551508D01*
X12231991Y-16551508D02*
X12251039Y-16522936D01*
X12251039Y-16522936D02*
X12260563Y-16513412D01*
X12422468Y-16541984D02*
X12384372Y-16541984D01*
X12384372Y-16541984D02*
X12365325Y-16551508D01*
X12365325Y-16551508D02*
X12355801Y-16561031D01*
X12355801Y-16561031D02*
X12336753Y-16589603D01*
X12336753Y-16589603D02*
X12327229Y-16627698D01*
X12327229Y-16627698D02*
X12327229Y-16703888D01*
X12327229Y-16703888D02*
X12336753Y-16722936D01*
X12336753Y-16722936D02*
X12346277Y-16732460D01*
X12346277Y-16732460D02*
X12365325Y-16741984D01*
X12365325Y-16741984D02*
X12403420Y-16741984D01*
X12403420Y-16741984D02*
X12422468Y-16732460D01*
X12422468Y-16732460D02*
X12431991Y-16722936D01*
X12431991Y-16722936D02*
X12441515Y-16703888D01*
X12441515Y-16703888D02*
X12441515Y-16656269D01*
X12441515Y-16656269D02*
X12431991Y-16637222D01*
X12431991Y-16637222D02*
X12422468Y-16627698D01*
X12422468Y-16627698D02*
X12403420Y-16618174D01*
X12403420Y-16618174D02*
X12365325Y-16618174D01*
X12365325Y-16618174D02*
X12346277Y-16627698D01*
X12346277Y-16627698D02*
X12336753Y-16637222D01*
X12336753Y-16637222D02*
X12327229Y-16656269D01*
X12679610Y-16741984D02*
X12679610Y-16541984D01*
X12765325Y-16741984D02*
X12765325Y-16637222D01*
X12765325Y-16637222D02*
X12755801Y-16618174D01*
X12755801Y-16618174D02*
X12736753Y-16608650D01*
X12736753Y-16608650D02*
X12708182Y-16608650D01*
X12708182Y-16608650D02*
X12689134Y-16618174D01*
X12689134Y-16618174D02*
X12679610Y-16627698D01*
X12889134Y-16741984D02*
X12870087Y-16732460D01*
X12870087Y-16732460D02*
X12860563Y-16722936D01*
X12860563Y-16722936D02*
X12851039Y-16703888D01*
X12851039Y-16703888D02*
X12851039Y-16646746D01*
X12851039Y-16646746D02*
X12860563Y-16627698D01*
X12860563Y-16627698D02*
X12870087Y-16618174D01*
X12870087Y-16618174D02*
X12889134Y-16608650D01*
X12889134Y-16608650D02*
X12917706Y-16608650D01*
X12917706Y-16608650D02*
X12936753Y-16618174D01*
X12936753Y-16618174D02*
X12946277Y-16627698D01*
X12946277Y-16627698D02*
X12955801Y-16646746D01*
X12955801Y-16646746D02*
X12955801Y-16703888D01*
X12955801Y-16703888D02*
X12946277Y-16722936D01*
X12946277Y-16722936D02*
X12936753Y-16732460D01*
X12936753Y-16732460D02*
X12917706Y-16741984D01*
X12917706Y-16741984D02*
X12889134Y-16741984D01*
X13070087Y-16741984D02*
X13051039Y-16732460D01*
X13051039Y-16732460D02*
X13041515Y-16713412D01*
X13041515Y-16713412D02*
X13041515Y-16541984D01*
X13222468Y-16732460D02*
X13203420Y-16741984D01*
X13203420Y-16741984D02*
X13165325Y-16741984D01*
X13165325Y-16741984D02*
X13146277Y-16732460D01*
X13146277Y-16732460D02*
X13136753Y-16713412D01*
X13136753Y-16713412D02*
X13136753Y-16637222D01*
X13136753Y-16637222D02*
X13146277Y-16618174D01*
X13146277Y-16618174D02*
X13165325Y-16608650D01*
X13165325Y-16608650D02*
X13203420Y-16608650D01*
X13203420Y-16608650D02*
X13222468Y-16618174D01*
X13222468Y-16618174D02*
X13231991Y-16637222D01*
X13231991Y-16637222D02*
X13231991Y-16656269D01*
X13231991Y-16656269D02*
X13136753Y-16675317D01*
X13308182Y-16732460D02*
X13327230Y-16741984D01*
X13327230Y-16741984D02*
X13365325Y-16741984D01*
X13365325Y-16741984D02*
X13384372Y-16732460D01*
X13384372Y-16732460D02*
X13393896Y-16713412D01*
X13393896Y-16713412D02*
X13393896Y-16703888D01*
X13393896Y-16703888D02*
X13384372Y-16684841D01*
X13384372Y-16684841D02*
X13365325Y-16675317D01*
X13365325Y-16675317D02*
X13336753Y-16675317D01*
X13336753Y-16675317D02*
X13317706Y-16665793D01*
X13317706Y-16665793D02*
X13308182Y-16646746D01*
X13308182Y-16646746D02*
X13308182Y-16637222D01*
X13308182Y-16637222D02*
X13317706Y-16618174D01*
X13317706Y-16618174D02*
X13336753Y-16608650D01*
X13336753Y-16608650D02*
X13365325Y-16608650D01*
X13365325Y-16608650D02*
X13384372Y-16618174D01*
X13460563Y-16818174D02*
X13470087Y-16808650D01*
X13470087Y-16808650D02*
X13489134Y-16780079D01*
X13489134Y-16780079D02*
X13498658Y-16761031D01*
X13498658Y-16761031D02*
X13508182Y-16732460D01*
X13508182Y-16732460D02*
X13517706Y-16684841D01*
X13517706Y-16684841D02*
X13517706Y-16646746D01*
X13517706Y-16646746D02*
X13508182Y-16599127D01*
X13508182Y-16599127D02*
X13498658Y-16570555D01*
X13498658Y-16570555D02*
X13489134Y-16551508D01*
X13489134Y-16551508D02*
X13470087Y-16522936D01*
X13470087Y-16522936D02*
X13460563Y-16513412D01*
M02*
