%TF.GenerationSoftware,KiCad,Pcbnew,8.0.4*%
%TF.CreationDate,2024-11-30T23:44:48+01:00*%
%TF.ProjectId,ALL_PCBS,414c4c5f-5043-4425-932e-6b696361645f,rev?*%
%TF.SameCoordinates,Original*%
%TF.FileFunction,Legend,Bot*%
%TF.FilePolarity,Positive*%
%FSLAX46Y46*%
G04 Gerber Fmt 4.6, Leading zero omitted, Abs format (unit mm)*
G04 Created by KiCad (PCBNEW 8.0.4) date 2024-11-30 23:44:48*
%MOMM*%
%LPD*%
G01*
G04 APERTURE LIST*
%ADD10C,0.100000*%
%ADD11C,0.150000*%
%ADD12C,0.160000*%
%ADD13C,0.120000*%
%ADD14C,0.200000*%
%ADD15C,0.300000*%
%ADD16C,0.170000*%
G04 APERTURE END LIST*
D10*
X228750000Y-91830000D02*
G75*
G02*
X228650000Y-91830000I-50000J0D01*
G01*
X228650000Y-91830000D02*
G75*
G02*
X228750000Y-91830000I50000J0D01*
G01*
X228840000Y-91830000D02*
G75*
G02*
X228560000Y-91830000I-140000J0D01*
G01*
X228560000Y-91830000D02*
G75*
G02*
X228840000Y-91830000I140000J0D01*
G01*
X97110000Y-91830000D02*
G75*
G02*
X96830000Y-91830000I-140000J0D01*
G01*
X96830000Y-91830000D02*
G75*
G02*
X97110000Y-91830000I140000J0D01*
G01*
X97020000Y-91830000D02*
G75*
G02*
X96920000Y-91830000I-50000J0D01*
G01*
X96920000Y-91830000D02*
G75*
G02*
X97020000Y-91830000I50000J0D01*
G01*
D11*
X122580000Y-114470000D02*
X121280000Y-114470000D01*
D12*
X136480000Y-118870000D02*
X136480000Y-117370000D01*
X136480000Y-117370000D02*
X136080000Y-117370000D01*
D13*
X140580000Y-117970000D02*
X140580000Y-117170000D01*
D12*
X135180000Y-117370000D02*
X135180000Y-118870000D01*
D10*
X163180000Y-99370000D02*
X156180000Y-99370000D01*
X140480000Y-119770000D02*
X141880000Y-119770000D01*
D11*
X196230000Y-114470000D02*
X196230000Y-109370000D01*
D12*
X135180000Y-117370000D02*
X135580000Y-117370000D01*
D10*
X141880000Y-113870000D02*
X140380000Y-113870000D01*
X163180000Y-98070000D02*
X163180000Y-99370000D01*
D11*
X122580000Y-109370000D02*
X122580000Y-114470000D01*
X197530000Y-114470000D02*
X196230000Y-114470000D01*
D12*
X136180000Y-118870000D02*
X136480000Y-118870000D01*
D10*
X141880000Y-119770000D02*
X141880000Y-113870000D01*
D11*
X196230000Y-109370000D02*
X197530000Y-109370000D01*
D10*
X156180000Y-98070000D02*
X163180000Y-98070000D01*
D12*
X135580000Y-117770000D02*
X135980000Y-117770000D01*
X135180000Y-118870000D02*
X135580000Y-118870000D01*
D11*
X121280000Y-109370000D02*
X122580000Y-109370000D01*
D10*
X156180000Y-99370000D02*
X156180000Y-98070000D01*
D12*
X135780000Y-117570000D02*
X135780000Y-117870000D01*
X135780000Y-117770000D02*
X135780000Y-117970000D01*
D14*
X137724612Y-114937219D02*
X137724612Y-115651504D01*
X137724612Y-115651504D02*
X137772231Y-115794361D01*
X137772231Y-115794361D02*
X137867469Y-115889600D01*
X137867469Y-115889600D02*
X138010326Y-115937219D01*
X138010326Y-115937219D02*
X138105564Y-115937219D01*
X136772231Y-115937219D02*
X137248421Y-115937219D01*
X137248421Y-115937219D02*
X137248421Y-114937219D01*
X135867469Y-115841980D02*
X135915088Y-115889600D01*
X135915088Y-115889600D02*
X136057945Y-115937219D01*
X136057945Y-115937219D02*
X136153183Y-115937219D01*
X136153183Y-115937219D02*
X136296040Y-115889600D01*
X136296040Y-115889600D02*
X136391278Y-115794361D01*
X136391278Y-115794361D02*
X136438897Y-115699123D01*
X136438897Y-115699123D02*
X136486516Y-115508647D01*
X136486516Y-115508647D02*
X136486516Y-115365790D01*
X136486516Y-115365790D02*
X136438897Y-115175314D01*
X136438897Y-115175314D02*
X136391278Y-115080076D01*
X136391278Y-115080076D02*
X136296040Y-114984838D01*
X136296040Y-114984838D02*
X136153183Y-114937219D01*
X136153183Y-114937219D02*
X136057945Y-114937219D01*
X136057945Y-114937219D02*
X135915088Y-114984838D01*
X135915088Y-114984838D02*
X135867469Y-115032457D01*
X135153183Y-114937219D02*
X135153183Y-115651504D01*
X135153183Y-115651504D02*
X135200802Y-115794361D01*
X135200802Y-115794361D02*
X135296040Y-115889600D01*
X135296040Y-115889600D02*
X135438897Y-115937219D01*
X135438897Y-115937219D02*
X135534135Y-115937219D01*
X134200802Y-115937219D02*
X134676992Y-115937219D01*
X134676992Y-115937219D02*
X134676992Y-114937219D01*
X133296040Y-115841980D02*
X133343659Y-115889600D01*
X133343659Y-115889600D02*
X133486516Y-115937219D01*
X133486516Y-115937219D02*
X133581754Y-115937219D01*
X133581754Y-115937219D02*
X133724611Y-115889600D01*
X133724611Y-115889600D02*
X133819849Y-115794361D01*
X133819849Y-115794361D02*
X133867468Y-115699123D01*
X133867468Y-115699123D02*
X133915087Y-115508647D01*
X133915087Y-115508647D02*
X133915087Y-115365790D01*
X133915087Y-115365790D02*
X133867468Y-115175314D01*
X133867468Y-115175314D02*
X133819849Y-115080076D01*
X133819849Y-115080076D02*
X133724611Y-114984838D01*
X133724611Y-114984838D02*
X133581754Y-114937219D01*
X133581754Y-114937219D02*
X133486516Y-114937219D01*
X133486516Y-114937219D02*
X133343659Y-114984838D01*
X133343659Y-114984838D02*
X133296040Y-115032457D01*
X132581754Y-114937219D02*
X132581754Y-115651504D01*
X132581754Y-115651504D02*
X132629373Y-115794361D01*
X132629373Y-115794361D02*
X132724611Y-115889600D01*
X132724611Y-115889600D02*
X132867468Y-115937219D01*
X132867468Y-115937219D02*
X132962706Y-115937219D01*
X131629373Y-115937219D02*
X132105563Y-115937219D01*
X132105563Y-115937219D02*
X132105563Y-114937219D01*
X130724611Y-115841980D02*
X130772230Y-115889600D01*
X130772230Y-115889600D02*
X130915087Y-115937219D01*
X130915087Y-115937219D02*
X131010325Y-115937219D01*
X131010325Y-115937219D02*
X131153182Y-115889600D01*
X131153182Y-115889600D02*
X131248420Y-115794361D01*
X131248420Y-115794361D02*
X131296039Y-115699123D01*
X131296039Y-115699123D02*
X131343658Y-115508647D01*
X131343658Y-115508647D02*
X131343658Y-115365790D01*
X131343658Y-115365790D02*
X131296039Y-115175314D01*
X131296039Y-115175314D02*
X131248420Y-115080076D01*
X131248420Y-115080076D02*
X131153182Y-114984838D01*
X131153182Y-114984838D02*
X131010325Y-114937219D01*
X131010325Y-114937219D02*
X130915087Y-114937219D01*
X130915087Y-114937219D02*
X130772230Y-114984838D01*
X130772230Y-114984838D02*
X130724611Y-115032457D01*
X130010325Y-114937219D02*
X130010325Y-115651504D01*
X130010325Y-115651504D02*
X130057944Y-115794361D01*
X130057944Y-115794361D02*
X130153182Y-115889600D01*
X130153182Y-115889600D02*
X130296039Y-115937219D01*
X130296039Y-115937219D02*
X130391277Y-115937219D01*
X129057944Y-115937219D02*
X129534134Y-115937219D01*
X129534134Y-115937219D02*
X129534134Y-114937219D01*
X128153182Y-115841980D02*
X128200801Y-115889600D01*
X128200801Y-115889600D02*
X128343658Y-115937219D01*
X128343658Y-115937219D02*
X128438896Y-115937219D01*
X128438896Y-115937219D02*
X128581753Y-115889600D01*
X128581753Y-115889600D02*
X128676991Y-115794361D01*
X128676991Y-115794361D02*
X128724610Y-115699123D01*
X128724610Y-115699123D02*
X128772229Y-115508647D01*
X128772229Y-115508647D02*
X128772229Y-115365790D01*
X128772229Y-115365790D02*
X128724610Y-115175314D01*
X128724610Y-115175314D02*
X128676991Y-115080076D01*
X128676991Y-115080076D02*
X128581753Y-114984838D01*
X128581753Y-114984838D02*
X128438896Y-114937219D01*
X128438896Y-114937219D02*
X128343658Y-114937219D01*
X128343658Y-114937219D02*
X128200801Y-114984838D01*
X128200801Y-114984838D02*
X128153182Y-115032457D01*
X103957945Y-113189600D02*
X103815088Y-113237219D01*
X103815088Y-113237219D02*
X103576993Y-113237219D01*
X103576993Y-113237219D02*
X103481755Y-113189600D01*
X103481755Y-113189600D02*
X103434136Y-113141980D01*
X103434136Y-113141980D02*
X103386517Y-113046742D01*
X103386517Y-113046742D02*
X103386517Y-112951504D01*
X103386517Y-112951504D02*
X103434136Y-112856266D01*
X103434136Y-112856266D02*
X103481755Y-112808647D01*
X103481755Y-112808647D02*
X103576993Y-112761028D01*
X103576993Y-112761028D02*
X103767469Y-112713409D01*
X103767469Y-112713409D02*
X103862707Y-112665790D01*
X103862707Y-112665790D02*
X103910326Y-112618171D01*
X103910326Y-112618171D02*
X103957945Y-112522933D01*
X103957945Y-112522933D02*
X103957945Y-112427695D01*
X103957945Y-112427695D02*
X103910326Y-112332457D01*
X103910326Y-112332457D02*
X103862707Y-112284838D01*
X103862707Y-112284838D02*
X103767469Y-112237219D01*
X103767469Y-112237219D02*
X103529374Y-112237219D01*
X103529374Y-112237219D02*
X103386517Y-112284838D01*
X102957945Y-113141980D02*
X102910326Y-113189600D01*
X102910326Y-113189600D02*
X102957945Y-113237219D01*
X102957945Y-113237219D02*
X103005564Y-113189600D01*
X103005564Y-113189600D02*
X102957945Y-113141980D01*
X102957945Y-113141980D02*
X102957945Y-113237219D01*
X102481755Y-113237219D02*
X102481755Y-112237219D01*
X102481755Y-112237219D02*
X101910327Y-113237219D01*
X101910327Y-113237219D02*
X101910327Y-112237219D01*
X101243660Y-112761028D02*
X101243660Y-113237219D01*
X101576993Y-112237219D02*
X101243660Y-112761028D01*
X101243660Y-112761028D02*
X100910327Y-112237219D01*
X100576993Y-113237219D02*
X100576993Y-112237219D01*
X100576993Y-112237219D02*
X100338898Y-112237219D01*
X100338898Y-112237219D02*
X100196041Y-112284838D01*
X100196041Y-112284838D02*
X100100803Y-112380076D01*
X100100803Y-112380076D02*
X100053184Y-112475314D01*
X100053184Y-112475314D02*
X100005565Y-112665790D01*
X100005565Y-112665790D02*
X100005565Y-112808647D01*
X100005565Y-112808647D02*
X100053184Y-112999123D01*
X100053184Y-112999123D02*
X100100803Y-113094361D01*
X100100803Y-113094361D02*
X100196041Y-113189600D01*
X100196041Y-113189600D02*
X100338898Y-113237219D01*
X100338898Y-113237219D02*
X100576993Y-113237219D01*
X99576993Y-112713409D02*
X99243660Y-112713409D01*
X99100803Y-113237219D02*
X99576993Y-113237219D01*
X99576993Y-113237219D02*
X99576993Y-112237219D01*
X99576993Y-112237219D02*
X99100803Y-112237219D01*
X98100803Y-113237219D02*
X98434136Y-112761028D01*
X98672231Y-113237219D02*
X98672231Y-112237219D01*
X98672231Y-112237219D02*
X98291279Y-112237219D01*
X98291279Y-112237219D02*
X98196041Y-112284838D01*
X98196041Y-112284838D02*
X98148422Y-112332457D01*
X98148422Y-112332457D02*
X98100803Y-112427695D01*
X98100803Y-112427695D02*
X98100803Y-112570552D01*
X98100803Y-112570552D02*
X98148422Y-112665790D01*
X98148422Y-112665790D02*
X98196041Y-112713409D01*
X98196041Y-112713409D02*
X98291279Y-112761028D01*
X98291279Y-112761028D02*
X98672231Y-112761028D01*
X97672231Y-112713409D02*
X97338898Y-112713409D01*
X97196041Y-113237219D02*
X97672231Y-113237219D01*
X97672231Y-113237219D02*
X97672231Y-112237219D01*
X97672231Y-112237219D02*
X97196041Y-112237219D01*
X96767469Y-113237219D02*
X96767469Y-112237219D01*
X96196041Y-113237219D02*
X96624612Y-112665790D01*
X96196041Y-112237219D02*
X96767469Y-112808647D01*
X95053183Y-112332457D02*
X95005564Y-112284838D01*
X95005564Y-112284838D02*
X94910326Y-112237219D01*
X94910326Y-112237219D02*
X94672231Y-112237219D01*
X94672231Y-112237219D02*
X94576993Y-112284838D01*
X94576993Y-112284838D02*
X94529374Y-112332457D01*
X94529374Y-112332457D02*
X94481755Y-112427695D01*
X94481755Y-112427695D02*
X94481755Y-112522933D01*
X94481755Y-112522933D02*
X94529374Y-112665790D01*
X94529374Y-112665790D02*
X95100802Y-113237219D01*
X95100802Y-113237219D02*
X94481755Y-113237219D01*
X93862707Y-112237219D02*
X93767469Y-112237219D01*
X93767469Y-112237219D02*
X93672231Y-112284838D01*
X93672231Y-112284838D02*
X93624612Y-112332457D01*
X93624612Y-112332457D02*
X93576993Y-112427695D01*
X93576993Y-112427695D02*
X93529374Y-112618171D01*
X93529374Y-112618171D02*
X93529374Y-112856266D01*
X93529374Y-112856266D02*
X93576993Y-113046742D01*
X93576993Y-113046742D02*
X93624612Y-113141980D01*
X93624612Y-113141980D02*
X93672231Y-113189600D01*
X93672231Y-113189600D02*
X93767469Y-113237219D01*
X93767469Y-113237219D02*
X93862707Y-113237219D01*
X93862707Y-113237219D02*
X93957945Y-113189600D01*
X93957945Y-113189600D02*
X94005564Y-113141980D01*
X94005564Y-113141980D02*
X94053183Y-113046742D01*
X94053183Y-113046742D02*
X94100802Y-112856266D01*
X94100802Y-112856266D02*
X94100802Y-112618171D01*
X94100802Y-112618171D02*
X94053183Y-112427695D01*
X94053183Y-112427695D02*
X94005564Y-112332457D01*
X94005564Y-112332457D02*
X93957945Y-112284838D01*
X93957945Y-112284838D02*
X93862707Y-112237219D01*
X93148421Y-112332457D02*
X93100802Y-112284838D01*
X93100802Y-112284838D02*
X93005564Y-112237219D01*
X93005564Y-112237219D02*
X92767469Y-112237219D01*
X92767469Y-112237219D02*
X92672231Y-112284838D01*
X92672231Y-112284838D02*
X92624612Y-112332457D01*
X92624612Y-112332457D02*
X92576993Y-112427695D01*
X92576993Y-112427695D02*
X92576993Y-112522933D01*
X92576993Y-112522933D02*
X92624612Y-112665790D01*
X92624612Y-112665790D02*
X93196040Y-113237219D01*
X93196040Y-113237219D02*
X92576993Y-113237219D01*
X91719850Y-112570552D02*
X91719850Y-113237219D01*
X91957945Y-112189600D02*
X92196040Y-112903885D01*
X92196040Y-112903885D02*
X91576993Y-112903885D01*
X91196040Y-113237219D02*
X91196040Y-112570552D01*
X91196040Y-112761028D02*
X91148421Y-112665790D01*
X91148421Y-112665790D02*
X91100802Y-112618171D01*
X91100802Y-112618171D02*
X91005564Y-112570552D01*
X91005564Y-112570552D02*
X90910326Y-112570552D01*
X101086517Y-110584838D02*
X101181755Y-110537219D01*
X101181755Y-110537219D02*
X101324612Y-110537219D01*
X101324612Y-110537219D02*
X101467469Y-110584838D01*
X101467469Y-110584838D02*
X101562707Y-110680076D01*
X101562707Y-110680076D02*
X101610326Y-110775314D01*
X101610326Y-110775314D02*
X101657945Y-110965790D01*
X101657945Y-110965790D02*
X101657945Y-111108647D01*
X101657945Y-111108647D02*
X101610326Y-111299123D01*
X101610326Y-111299123D02*
X101562707Y-111394361D01*
X101562707Y-111394361D02*
X101467469Y-111489600D01*
X101467469Y-111489600D02*
X101324612Y-111537219D01*
X101324612Y-111537219D02*
X101229374Y-111537219D01*
X101229374Y-111537219D02*
X101086517Y-111489600D01*
X101086517Y-111489600D02*
X101038898Y-111441980D01*
X101038898Y-111441980D02*
X101038898Y-111108647D01*
X101038898Y-111108647D02*
X101229374Y-111108647D01*
X100038898Y-111537219D02*
X100372231Y-111061028D01*
X100610326Y-111537219D02*
X100610326Y-110537219D01*
X100610326Y-110537219D02*
X100229374Y-110537219D01*
X100229374Y-110537219D02*
X100134136Y-110584838D01*
X100134136Y-110584838D02*
X100086517Y-110632457D01*
X100086517Y-110632457D02*
X100038898Y-110727695D01*
X100038898Y-110727695D02*
X100038898Y-110870552D01*
X100038898Y-110870552D02*
X100086517Y-110965790D01*
X100086517Y-110965790D02*
X100134136Y-111013409D01*
X100134136Y-111013409D02*
X100229374Y-111061028D01*
X100229374Y-111061028D02*
X100610326Y-111061028D01*
X99610326Y-110537219D02*
X99610326Y-111346742D01*
X99610326Y-111346742D02*
X99562707Y-111441980D01*
X99562707Y-111441980D02*
X99515088Y-111489600D01*
X99515088Y-111489600D02*
X99419850Y-111537219D01*
X99419850Y-111537219D02*
X99229374Y-111537219D01*
X99229374Y-111537219D02*
X99134136Y-111489600D01*
X99134136Y-111489600D02*
X99086517Y-111441980D01*
X99086517Y-111441980D02*
X99038898Y-111346742D01*
X99038898Y-111346742D02*
X99038898Y-110537219D01*
X98657945Y-110537219D02*
X97991279Y-110537219D01*
X97991279Y-110537219D02*
X98657945Y-111537219D01*
X98657945Y-111537219D02*
X97991279Y-111537219D01*
X97610326Y-111537219D02*
X97610326Y-110537219D01*
X97134136Y-111537219D02*
X97134136Y-110537219D01*
X96562708Y-111537219D02*
X96991279Y-110965790D01*
X96562708Y-110537219D02*
X97134136Y-111108647D01*
X95467469Y-110537219D02*
X94848422Y-110537219D01*
X94848422Y-110537219D02*
X95181755Y-110918171D01*
X95181755Y-110918171D02*
X95038898Y-110918171D01*
X95038898Y-110918171D02*
X94943660Y-110965790D01*
X94943660Y-110965790D02*
X94896041Y-111013409D01*
X94896041Y-111013409D02*
X94848422Y-111108647D01*
X94848422Y-111108647D02*
X94848422Y-111346742D01*
X94848422Y-111346742D02*
X94896041Y-111441980D01*
X94896041Y-111441980D02*
X94943660Y-111489600D01*
X94943660Y-111489600D02*
X95038898Y-111537219D01*
X95038898Y-111537219D02*
X95324612Y-111537219D01*
X95324612Y-111537219D02*
X95419850Y-111489600D01*
X95419850Y-111489600D02*
X95467469Y-111441980D01*
X94419850Y-111441980D02*
X94372231Y-111489600D01*
X94372231Y-111489600D02*
X94419850Y-111537219D01*
X94419850Y-111537219D02*
X94467469Y-111489600D01*
X94467469Y-111489600D02*
X94419850Y-111441980D01*
X94419850Y-111441980D02*
X94419850Y-111537219D01*
X93753184Y-110537219D02*
X93657946Y-110537219D01*
X93657946Y-110537219D02*
X93562708Y-110584838D01*
X93562708Y-110584838D02*
X93515089Y-110632457D01*
X93515089Y-110632457D02*
X93467470Y-110727695D01*
X93467470Y-110727695D02*
X93419851Y-110918171D01*
X93419851Y-110918171D02*
X93419851Y-111156266D01*
X93419851Y-111156266D02*
X93467470Y-111346742D01*
X93467470Y-111346742D02*
X93515089Y-111441980D01*
X93515089Y-111441980D02*
X93562708Y-111489600D01*
X93562708Y-111489600D02*
X93657946Y-111537219D01*
X93657946Y-111537219D02*
X93753184Y-111537219D01*
X93753184Y-111537219D02*
X93848422Y-111489600D01*
X93848422Y-111489600D02*
X93896041Y-111441980D01*
X93896041Y-111441980D02*
X93943660Y-111346742D01*
X93943660Y-111346742D02*
X93991279Y-111156266D01*
X93991279Y-111156266D02*
X93991279Y-110918171D01*
X93991279Y-110918171D02*
X93943660Y-110727695D01*
X93943660Y-110727695D02*
X93896041Y-110632457D01*
X93896041Y-110632457D02*
X93848422Y-110584838D01*
X93848422Y-110584838D02*
X93753184Y-110537219D01*
D15*
G36*
X123635114Y-102720892D02*
G01*
X121754257Y-102720892D01*
X121754257Y-101489937D01*
X121920924Y-101489937D01*
X123003531Y-101870956D01*
X121920924Y-102257470D01*
X121920924Y-102554225D01*
X123445000Y-102007976D01*
X123445000Y-101729905D01*
X121920924Y-101193182D01*
X121920924Y-101489937D01*
X121754257Y-101489937D01*
X121754257Y-100312442D01*
X121920924Y-100312442D01*
X121920924Y-101022456D01*
X122178845Y-101022456D01*
X122178845Y-100527864D01*
X122451786Y-100465949D01*
X122440429Y-100516140D01*
X122436765Y-100563768D01*
X122441737Y-100638656D01*
X122460104Y-100719808D01*
X122492006Y-100794262D01*
X122537441Y-100862020D01*
X122578182Y-100906318D01*
X122643838Y-100959565D01*
X122717068Y-100999734D01*
X122797871Y-101026825D01*
X122873159Y-101039636D01*
X122940150Y-101042972D01*
X123021221Y-101037666D01*
X123097371Y-101021746D01*
X123168602Y-100995213D01*
X123234912Y-100958067D01*
X123296303Y-100910308D01*
X123315673Y-100892030D01*
X123367592Y-100833121D01*
X123408770Y-100769602D01*
X123439205Y-100701471D01*
X123458898Y-100628729D01*
X123467850Y-100551376D01*
X123468447Y-100524567D01*
X123463047Y-100442531D01*
X123446848Y-100365685D01*
X123419851Y-100294028D01*
X123382054Y-100227560D01*
X123355607Y-100191908D01*
X123302242Y-100135593D01*
X123240883Y-100088465D01*
X123171530Y-100050522D01*
X123094183Y-100021766D01*
X123046395Y-100009459D01*
X123046395Y-100312442D01*
X123110557Y-100356015D01*
X123151542Y-100404766D01*
X123180277Y-100472772D01*
X123187079Y-100530795D01*
X123176135Y-100603948D01*
X123139871Y-100671908D01*
X123120767Y-100693461D01*
X123060363Y-100736870D01*
X122987504Y-100758148D01*
X122949675Y-100760505D01*
X122873267Y-100750226D01*
X122804505Y-100716166D01*
X122783346Y-100698224D01*
X122738767Y-100638678D01*
X122718706Y-100563673D01*
X122718133Y-100547281D01*
X122731997Y-100473982D01*
X122740847Y-100453859D01*
X122782816Y-100391582D01*
X122808991Y-100363733D01*
X122756967Y-100128893D01*
X121920924Y-100312442D01*
X121754257Y-100312442D01*
X121754257Y-99842792D01*
X123635114Y-99842792D01*
X123635114Y-102720892D01*
G37*
G36*
X139925114Y-104513837D02*
G01*
X138020810Y-104513837D01*
X138020810Y-103282882D01*
X138210924Y-103282882D01*
X139293531Y-103663900D01*
X138210924Y-104050415D01*
X138210924Y-104347170D01*
X139735000Y-103800921D01*
X139735000Y-103522850D01*
X138210924Y-102986127D01*
X138210924Y-103282882D01*
X138020810Y-103282882D01*
X138020810Y-102344623D01*
X138187477Y-102344623D01*
X138193017Y-102423315D01*
X138209636Y-102496222D01*
X138242197Y-102572460D01*
X138289229Y-102641142D01*
X138303248Y-102657131D01*
X138363652Y-102712429D01*
X138429460Y-102751928D01*
X138500672Y-102775627D01*
X138577288Y-102783527D01*
X138654520Y-102774397D01*
X138726068Y-102747007D01*
X138757173Y-102728206D01*
X138813794Y-102679932D01*
X138861656Y-102617541D01*
X138888698Y-102568105D01*
X138916619Y-102641015D01*
X138954219Y-102704362D01*
X139007349Y-102763532D01*
X139031946Y-102783893D01*
X139099373Y-102824852D01*
X139173884Y-102850640D01*
X139247001Y-102860880D01*
X139272648Y-102861563D01*
X139346721Y-102856269D01*
X139427637Y-102836712D01*
X139502627Y-102802744D01*
X139571692Y-102754366D01*
X139617397Y-102710987D01*
X139665332Y-102651748D01*
X139703349Y-102586686D01*
X139731449Y-102515804D01*
X139749631Y-102439099D01*
X139757896Y-102356572D01*
X139758447Y-102327770D01*
X139753578Y-102248047D01*
X139738972Y-102174017D01*
X139709625Y-102094844D01*
X139667025Y-102023420D01*
X139619961Y-101968367D01*
X139554445Y-101913614D01*
X139490698Y-101876228D01*
X139419943Y-101847652D01*
X139342183Y-101827885D01*
X139257415Y-101816929D01*
X139242606Y-101815959D01*
X139242606Y-102101357D01*
X139317027Y-102119441D01*
X139386450Y-102154319D01*
X139419193Y-102183056D01*
X139458764Y-102244966D01*
X139476175Y-102319779D01*
X139477079Y-102343524D01*
X139466981Y-102419699D01*
X139433522Y-102489022D01*
X139415896Y-102510586D01*
X139356851Y-102556167D01*
X139282072Y-102576678D01*
X139265687Y-102577264D01*
X139191464Y-102562450D01*
X139127158Y-102518009D01*
X139100823Y-102487505D01*
X139062227Y-102416444D01*
X139042176Y-102344394D01*
X139033063Y-102269839D01*
X139031580Y-102228852D01*
X138773660Y-102228852D01*
X138765050Y-102304623D01*
X138746676Y-102377251D01*
X138743984Y-102383824D01*
X138703342Y-102445631D01*
X138682801Y-102463325D01*
X138613877Y-102491203D01*
X138600369Y-102491901D01*
X138528770Y-102469568D01*
X138506214Y-102448670D01*
X138473260Y-102380254D01*
X138468845Y-102335097D01*
X138484157Y-102262139D01*
X138508046Y-102222623D01*
X138566063Y-102172191D01*
X138609528Y-102153747D01*
X138609528Y-101876775D01*
X138527806Y-101892415D01*
X138454465Y-101917717D01*
X138389504Y-101952682D01*
X138332923Y-101997309D01*
X138283494Y-102051603D01*
X138238752Y-102121261D01*
X138207930Y-102197722D01*
X138191028Y-102280985D01*
X138187477Y-102344623D01*
X138020810Y-102344623D01*
X138020810Y-101461318D01*
X139430184Y-101461318D01*
X139446975Y-101533654D01*
X139477812Y-101575258D01*
X139541731Y-101615025D01*
X139593949Y-101622885D01*
X139667895Y-101606095D01*
X139710453Y-101575258D01*
X139750526Y-101512290D01*
X139758447Y-101461318D01*
X139741527Y-101388548D01*
X139710453Y-101346646D01*
X139646051Y-101307185D01*
X139593949Y-101299385D01*
X139519955Y-101316047D01*
X139477812Y-101346646D01*
X139438045Y-101410049D01*
X139430184Y-101461318D01*
X138020810Y-101461318D01*
X138020810Y-100581678D01*
X138187477Y-100581678D01*
X138193017Y-100660370D01*
X138209636Y-100733277D01*
X138242197Y-100809515D01*
X138289229Y-100878197D01*
X138303248Y-100894187D01*
X138363652Y-100949485D01*
X138429460Y-100988983D01*
X138500672Y-101012682D01*
X138577288Y-101020582D01*
X138654520Y-101011452D01*
X138726068Y-100984062D01*
X138757173Y-100965261D01*
X138813794Y-100916987D01*
X138861656Y-100854596D01*
X138888698Y-100805160D01*
X138916619Y-100878070D01*
X138954219Y-100941417D01*
X139007349Y-101000587D01*
X139031946Y-101020949D01*
X139099373Y-101061907D01*
X139173884Y-101087696D01*
X139247001Y-101097935D01*
X139272648Y-101098618D01*
X139346721Y-101093324D01*
X139427637Y-101073767D01*
X139502627Y-101039799D01*
X139571692Y-100991421D01*
X139617397Y-100948042D01*
X139665332Y-100888803D01*
X139703349Y-100823742D01*
X139731449Y-100752859D01*
X139749631Y-100676154D01*
X139757896Y-100593628D01*
X139758447Y-100564825D01*
X139753578Y-100485102D01*
X139738972Y-100411072D01*
X139709625Y-100331899D01*
X139667025Y-100260475D01*
X139619961Y-100205422D01*
X139554445Y-100150670D01*
X139490698Y-100113283D01*
X139419943Y-100084707D01*
X139342183Y-100064940D01*
X139257415Y-100053984D01*
X139242606Y-100053014D01*
X139242606Y-100338412D01*
X139317027Y-100356496D01*
X139386450Y-100391374D01*
X139419193Y-100420111D01*
X139458764Y-100482021D01*
X139476175Y-100556834D01*
X139477079Y-100580579D01*
X139466981Y-100656755D01*
X139433522Y-100726078D01*
X139415896Y-100747641D01*
X139356851Y-100793222D01*
X139282072Y-100813733D01*
X139265687Y-100814319D01*
X139191464Y-100799505D01*
X139127158Y-100755064D01*
X139100823Y-100724560D01*
X139062227Y-100653500D01*
X139042176Y-100581449D01*
X139033063Y-100506894D01*
X139031580Y-100465907D01*
X138773660Y-100465907D01*
X138765050Y-100541678D01*
X138746676Y-100614306D01*
X138743984Y-100620879D01*
X138703342Y-100682686D01*
X138682801Y-100700380D01*
X138613877Y-100728259D01*
X138600369Y-100728956D01*
X138528770Y-100706623D01*
X138506214Y-100685725D01*
X138473260Y-100617309D01*
X138468845Y-100572152D01*
X138484157Y-100499194D01*
X138508046Y-100459678D01*
X138566063Y-100409246D01*
X138609528Y-100390802D01*
X138609528Y-100113831D01*
X138527806Y-100129470D01*
X138454465Y-100154772D01*
X138389504Y-100189737D01*
X138332923Y-100234364D01*
X138283494Y-100288658D01*
X138238752Y-100358317D01*
X138207930Y-100434777D01*
X138191028Y-100518040D01*
X138187477Y-100581678D01*
X138020810Y-100581678D01*
X138020810Y-99886347D01*
X139925114Y-99886347D01*
X139925114Y-104513837D01*
G37*
D14*
X134210326Y-118737219D02*
X134210326Y-117737219D01*
X134210326Y-117737219D02*
X133638898Y-118737219D01*
X133638898Y-118737219D02*
X133638898Y-117737219D01*
X132638898Y-117784838D02*
X132734136Y-117737219D01*
X132734136Y-117737219D02*
X132876993Y-117737219D01*
X132876993Y-117737219D02*
X133019850Y-117784838D01*
X133019850Y-117784838D02*
X133115088Y-117880076D01*
X133115088Y-117880076D02*
X133162707Y-117975314D01*
X133162707Y-117975314D02*
X133210326Y-118165790D01*
X133210326Y-118165790D02*
X133210326Y-118308647D01*
X133210326Y-118308647D02*
X133162707Y-118499123D01*
X133162707Y-118499123D02*
X133115088Y-118594361D01*
X133115088Y-118594361D02*
X133019850Y-118689600D01*
X133019850Y-118689600D02*
X132876993Y-118737219D01*
X132876993Y-118737219D02*
X132781755Y-118737219D01*
X132781755Y-118737219D02*
X132638898Y-118689600D01*
X132638898Y-118689600D02*
X132591279Y-118641980D01*
X132591279Y-118641980D02*
X132591279Y-118308647D01*
X132591279Y-118308647D02*
X132781755Y-118308647D01*
X131829374Y-118213409D02*
X132162707Y-118213409D01*
X132162707Y-118737219D02*
X132162707Y-117737219D01*
X132162707Y-117737219D02*
X131686517Y-117737219D01*
X131115088Y-118261028D02*
X131115088Y-118737219D01*
X131448421Y-117737219D02*
X131115088Y-118261028D01*
X131115088Y-118261028D02*
X130781755Y-117737219D01*
X130448421Y-118737219D02*
X130448421Y-117737219D01*
X130448421Y-117737219D02*
X130067469Y-117737219D01*
X130067469Y-117737219D02*
X129972231Y-117784838D01*
X129972231Y-117784838D02*
X129924612Y-117832457D01*
X129924612Y-117832457D02*
X129876993Y-117927695D01*
X129876993Y-117927695D02*
X129876993Y-118070552D01*
X129876993Y-118070552D02*
X129924612Y-118165790D01*
X129924612Y-118165790D02*
X129972231Y-118213409D01*
X129972231Y-118213409D02*
X130067469Y-118261028D01*
X130067469Y-118261028D02*
X130448421Y-118261028D01*
D10*
X165920137Y-86830000D02*
G75*
G02*
X165693863Y-86830000I-113137J0D01*
G01*
X165693863Y-86830000D02*
G75*
G02*
X165920137Y-86830000I113137J0D01*
G01*
X165990848Y-86830000D02*
G75*
G02*
X165623152Y-86830000I-183848J0D01*
G01*
X165623152Y-86830000D02*
G75*
G02*
X165990848Y-86830000I183848J0D01*
G01*
X149982000Y-86855000D02*
X149982000Y-84805000D01*
D16*
X167497000Y-87010000D02*
X167677000Y-86830000D01*
X165987000Y-85010000D02*
X165807000Y-84830000D01*
D10*
X154132000Y-84805000D02*
X154132000Y-86855000D01*
X149982000Y-84805000D02*
X154132000Y-84805000D01*
D16*
X167677000Y-86830000D02*
X167487000Y-86640000D01*
X167677000Y-86830000D02*
X165807000Y-86830000D01*
D10*
X154132000Y-86855000D02*
X149982000Y-86855000D01*
D16*
X164951699Y-86361220D02*
X165618365Y-85361220D01*
X165618365Y-86361220D02*
X164951699Y-85361220D01*
X166674411Y-87409586D02*
X166198220Y-87409586D01*
X167198220Y-87742919D02*
X166674411Y-87409586D01*
X166674411Y-87409586D02*
X167198220Y-87076253D01*
D14*
G36*
X154097209Y-86835788D02*
G01*
X149993991Y-86835788D01*
X149993991Y-85967487D01*
X150171769Y-85967487D01*
X150172745Y-86053271D01*
X150176348Y-86140156D01*
X150183718Y-86222050D01*
X150199515Y-86304346D01*
X150229997Y-86379771D01*
X150272788Y-86447448D01*
X150304247Y-86486063D01*
X150360259Y-86540888D01*
X150427790Y-86588479D01*
X150482837Y-86615805D01*
X150563364Y-86641524D01*
X150645290Y-86654671D01*
X150718092Y-86658010D01*
X150803186Y-86652979D01*
X150882614Y-86637884D01*
X150896518Y-86633000D01*
X151491071Y-86633000D01*
X151787680Y-86633000D01*
X151961581Y-85606398D01*
X152305475Y-86633000D01*
X152577073Y-86633000D01*
X152916668Y-85606398D01*
X153093695Y-86633000D01*
X153393430Y-86633000D01*
X153613835Y-86633000D01*
X153919431Y-86633000D01*
X153919431Y-85007319D01*
X153613835Y-85007319D01*
X153613835Y-86633000D01*
X153393430Y-86633000D01*
X153114407Y-85007319D01*
X152813109Y-85007319D01*
X152439515Y-86141387D01*
X152060450Y-85007319D01*
X151763842Y-85007319D01*
X151491071Y-86633000D01*
X150896518Y-86633000D01*
X150965197Y-86608875D01*
X151024470Y-86577508D01*
X151091827Y-86529041D01*
X151152964Y-86467721D01*
X151199676Y-86398539D01*
X151210876Y-86376251D01*
X151237890Y-86294939D01*
X151252788Y-86213488D01*
X151261301Y-86130992D01*
X151265886Y-86036790D01*
X151266759Y-85967487D01*
X151266759Y-85007319D01*
X150957645Y-85007319D01*
X150957645Y-86046035D01*
X150954874Y-86128952D01*
X150943334Y-86207770D01*
X150934198Y-86235958D01*
X150887013Y-86301731D01*
X150856040Y-86324667D01*
X150779287Y-86353213D01*
X150724735Y-86357884D01*
X150644768Y-86347407D01*
X150584833Y-86320759D01*
X150525421Y-86266568D01*
X150503549Y-86226579D01*
X150487280Y-86149883D01*
X150481680Y-86064607D01*
X150480883Y-86007738D01*
X150480883Y-85007319D01*
X150171769Y-85007319D01*
X150171769Y-85967487D01*
X149993991Y-85967487D01*
X149993991Y-84829541D01*
X154097209Y-84829541D01*
X154097209Y-86835788D01*
G37*
D16*
X165807000Y-84830000D02*
X165617000Y-85020000D01*
X165807000Y-84830000D02*
X165807000Y-86830000D01*
D12*
X172289523Y-107324299D02*
X171622857Y-108324299D01*
X171622857Y-107324299D02*
X172289523Y-108324299D01*
X171289523Y-107419537D02*
X171241904Y-107371918D01*
X171241904Y-107371918D02*
X171146666Y-107324299D01*
X171146666Y-107324299D02*
X170908571Y-107324299D01*
X170908571Y-107324299D02*
X170813333Y-107371918D01*
X170813333Y-107371918D02*
X170765714Y-107419537D01*
X170765714Y-107419537D02*
X170718095Y-107514775D01*
X170718095Y-107514775D02*
X170718095Y-107610013D01*
X170718095Y-107610013D02*
X170765714Y-107752870D01*
X170765714Y-107752870D02*
X171337142Y-108324299D01*
X171337142Y-108324299D02*
X170718095Y-108324299D01*
X167299060Y-101652142D02*
X167346680Y-101604523D01*
X167346680Y-101604523D02*
X167394299Y-101461666D01*
X167394299Y-101461666D02*
X167394299Y-101366428D01*
X167394299Y-101366428D02*
X167346680Y-101223571D01*
X167346680Y-101223571D02*
X167251441Y-101128333D01*
X167251441Y-101128333D02*
X167156203Y-101080714D01*
X167156203Y-101080714D02*
X166965727Y-101033095D01*
X166965727Y-101033095D02*
X166822870Y-101033095D01*
X166822870Y-101033095D02*
X166632394Y-101080714D01*
X166632394Y-101080714D02*
X166537156Y-101128333D01*
X166537156Y-101128333D02*
X166441918Y-101223571D01*
X166441918Y-101223571D02*
X166394299Y-101366428D01*
X166394299Y-101366428D02*
X166394299Y-101461666D01*
X166394299Y-101461666D02*
X166441918Y-101604523D01*
X166441918Y-101604523D02*
X166489537Y-101652142D01*
X167394299Y-102604523D02*
X167394299Y-102033095D01*
X167394299Y-102318809D02*
X166394299Y-102318809D01*
X166394299Y-102318809D02*
X166537156Y-102223571D01*
X166537156Y-102223571D02*
X166632394Y-102128333D01*
X166632394Y-102128333D02*
X166680013Y-102033095D01*
X167394299Y-103556904D02*
X167394299Y-102985476D01*
X167394299Y-103271190D02*
X166394299Y-103271190D01*
X166394299Y-103271190D02*
X166537156Y-103175952D01*
X166537156Y-103175952D02*
X166632394Y-103080714D01*
X166632394Y-103080714D02*
X166680013Y-102985476D01*
X167476666Y-118329060D02*
X167524285Y-118376680D01*
X167524285Y-118376680D02*
X167667142Y-118424299D01*
X167667142Y-118424299D02*
X167762380Y-118424299D01*
X167762380Y-118424299D02*
X167905237Y-118376680D01*
X167905237Y-118376680D02*
X168000475Y-118281441D01*
X168000475Y-118281441D02*
X168048094Y-118186203D01*
X168048094Y-118186203D02*
X168095713Y-117995727D01*
X168095713Y-117995727D02*
X168095713Y-117852870D01*
X168095713Y-117852870D02*
X168048094Y-117662394D01*
X168048094Y-117662394D02*
X168000475Y-117567156D01*
X168000475Y-117567156D02*
X167905237Y-117471918D01*
X167905237Y-117471918D02*
X167762380Y-117424299D01*
X167762380Y-117424299D02*
X167667142Y-117424299D01*
X167667142Y-117424299D02*
X167524285Y-117471918D01*
X167524285Y-117471918D02*
X167476666Y-117519537D01*
X166524285Y-118424299D02*
X167095713Y-118424299D01*
X166809999Y-118424299D02*
X166809999Y-117424299D01*
X166809999Y-117424299D02*
X166905237Y-117567156D01*
X166905237Y-117567156D02*
X167000475Y-117662394D01*
X167000475Y-117662394D02*
X167095713Y-117710013D01*
X202406857Y-122357060D02*
X202454476Y-122404680D01*
X202454476Y-122404680D02*
X202597333Y-122452299D01*
X202597333Y-122452299D02*
X202692571Y-122452299D01*
X202692571Y-122452299D02*
X202835428Y-122404680D01*
X202835428Y-122404680D02*
X202930666Y-122309441D01*
X202930666Y-122309441D02*
X202978285Y-122214203D01*
X202978285Y-122214203D02*
X203025904Y-122023727D01*
X203025904Y-122023727D02*
X203025904Y-121880870D01*
X203025904Y-121880870D02*
X202978285Y-121690394D01*
X202978285Y-121690394D02*
X202930666Y-121595156D01*
X202930666Y-121595156D02*
X202835428Y-121499918D01*
X202835428Y-121499918D02*
X202692571Y-121452299D01*
X202692571Y-121452299D02*
X202597333Y-121452299D01*
X202597333Y-121452299D02*
X202454476Y-121499918D01*
X202454476Y-121499918D02*
X202406857Y-121547537D01*
X201454476Y-122452299D02*
X202025904Y-122452299D01*
X201740190Y-122452299D02*
X201740190Y-121452299D01*
X201740190Y-121452299D02*
X201835428Y-121595156D01*
X201835428Y-121595156D02*
X201930666Y-121690394D01*
X201930666Y-121690394D02*
X202025904Y-121738013D01*
X201121142Y-121452299D02*
X200454476Y-121452299D01*
X200454476Y-121452299D02*
X200883047Y-122452299D01*
X136022857Y-109259060D02*
X136070476Y-109306680D01*
X136070476Y-109306680D02*
X136213333Y-109354299D01*
X136213333Y-109354299D02*
X136308571Y-109354299D01*
X136308571Y-109354299D02*
X136451428Y-109306680D01*
X136451428Y-109306680D02*
X136546666Y-109211441D01*
X136546666Y-109211441D02*
X136594285Y-109116203D01*
X136594285Y-109116203D02*
X136641904Y-108925727D01*
X136641904Y-108925727D02*
X136641904Y-108782870D01*
X136641904Y-108782870D02*
X136594285Y-108592394D01*
X136594285Y-108592394D02*
X136546666Y-108497156D01*
X136546666Y-108497156D02*
X136451428Y-108401918D01*
X136451428Y-108401918D02*
X136308571Y-108354299D01*
X136308571Y-108354299D02*
X136213333Y-108354299D01*
X136213333Y-108354299D02*
X136070476Y-108401918D01*
X136070476Y-108401918D02*
X136022857Y-108449537D01*
X135070476Y-109354299D02*
X135641904Y-109354299D01*
X135356190Y-109354299D02*
X135356190Y-108354299D01*
X135356190Y-108354299D02*
X135451428Y-108497156D01*
X135451428Y-108497156D02*
X135546666Y-108592394D01*
X135546666Y-108592394D02*
X135641904Y-108640013D01*
X134213333Y-108354299D02*
X134403809Y-108354299D01*
X134403809Y-108354299D02*
X134499047Y-108401918D01*
X134499047Y-108401918D02*
X134546666Y-108449537D01*
X134546666Y-108449537D02*
X134641904Y-108592394D01*
X134641904Y-108592394D02*
X134689523Y-108782870D01*
X134689523Y-108782870D02*
X134689523Y-109163822D01*
X134689523Y-109163822D02*
X134641904Y-109259060D01*
X134641904Y-109259060D02*
X134594285Y-109306680D01*
X134594285Y-109306680D02*
X134499047Y-109354299D01*
X134499047Y-109354299D02*
X134308571Y-109354299D01*
X134308571Y-109354299D02*
X134213333Y-109306680D01*
X134213333Y-109306680D02*
X134165714Y-109259060D01*
X134165714Y-109259060D02*
X134118095Y-109163822D01*
X134118095Y-109163822D02*
X134118095Y-108925727D01*
X134118095Y-108925727D02*
X134165714Y-108830489D01*
X134165714Y-108830489D02*
X134213333Y-108782870D01*
X134213333Y-108782870D02*
X134308571Y-108735251D01*
X134308571Y-108735251D02*
X134499047Y-108735251D01*
X134499047Y-108735251D02*
X134594285Y-108782870D01*
X134594285Y-108782870D02*
X134641904Y-108830489D01*
X134641904Y-108830489D02*
X134689523Y-108925727D01*
X109489060Y-114137142D02*
X109536680Y-114089523D01*
X109536680Y-114089523D02*
X109584299Y-113946666D01*
X109584299Y-113946666D02*
X109584299Y-113851428D01*
X109584299Y-113851428D02*
X109536680Y-113708571D01*
X109536680Y-113708571D02*
X109441441Y-113613333D01*
X109441441Y-113613333D02*
X109346203Y-113565714D01*
X109346203Y-113565714D02*
X109155727Y-113518095D01*
X109155727Y-113518095D02*
X109012870Y-113518095D01*
X109012870Y-113518095D02*
X108822394Y-113565714D01*
X108822394Y-113565714D02*
X108727156Y-113613333D01*
X108727156Y-113613333D02*
X108631918Y-113708571D01*
X108631918Y-113708571D02*
X108584299Y-113851428D01*
X108584299Y-113851428D02*
X108584299Y-113946666D01*
X108584299Y-113946666D02*
X108631918Y-114089523D01*
X108631918Y-114089523D02*
X108679537Y-114137142D01*
X108679537Y-114518095D02*
X108631918Y-114565714D01*
X108631918Y-114565714D02*
X108584299Y-114660952D01*
X108584299Y-114660952D02*
X108584299Y-114899047D01*
X108584299Y-114899047D02*
X108631918Y-114994285D01*
X108631918Y-114994285D02*
X108679537Y-115041904D01*
X108679537Y-115041904D02*
X108774775Y-115089523D01*
X108774775Y-115089523D02*
X108870013Y-115089523D01*
X108870013Y-115089523D02*
X109012870Y-115041904D01*
X109012870Y-115041904D02*
X109584299Y-114470476D01*
X109584299Y-114470476D02*
X109584299Y-115089523D01*
X108584299Y-115422857D02*
X108584299Y-116041904D01*
X108584299Y-116041904D02*
X108965251Y-115708571D01*
X108965251Y-115708571D02*
X108965251Y-115851428D01*
X108965251Y-115851428D02*
X109012870Y-115946666D01*
X109012870Y-115946666D02*
X109060489Y-115994285D01*
X109060489Y-115994285D02*
X109155727Y-116041904D01*
X109155727Y-116041904D02*
X109393822Y-116041904D01*
X109393822Y-116041904D02*
X109489060Y-115994285D01*
X109489060Y-115994285D02*
X109536680Y-115946666D01*
X109536680Y-115946666D02*
X109584299Y-115851428D01*
X109584299Y-115851428D02*
X109584299Y-115565714D01*
X109584299Y-115565714D02*
X109536680Y-115470476D01*
X109536680Y-115470476D02*
X109489060Y-115422857D01*
X209939060Y-108527142D02*
X209986680Y-108479523D01*
X209986680Y-108479523D02*
X210034299Y-108336666D01*
X210034299Y-108336666D02*
X210034299Y-108241428D01*
X210034299Y-108241428D02*
X209986680Y-108098571D01*
X209986680Y-108098571D02*
X209891441Y-108003333D01*
X209891441Y-108003333D02*
X209796203Y-107955714D01*
X209796203Y-107955714D02*
X209605727Y-107908095D01*
X209605727Y-107908095D02*
X209462870Y-107908095D01*
X209462870Y-107908095D02*
X209272394Y-107955714D01*
X209272394Y-107955714D02*
X209177156Y-108003333D01*
X209177156Y-108003333D02*
X209081918Y-108098571D01*
X209081918Y-108098571D02*
X209034299Y-108241428D01*
X209034299Y-108241428D02*
X209034299Y-108336666D01*
X209034299Y-108336666D02*
X209081918Y-108479523D01*
X209081918Y-108479523D02*
X209129537Y-108527142D01*
X210034299Y-109479523D02*
X210034299Y-108908095D01*
X210034299Y-109193809D02*
X209034299Y-109193809D01*
X209034299Y-109193809D02*
X209177156Y-109098571D01*
X209177156Y-109098571D02*
X209272394Y-109003333D01*
X209272394Y-109003333D02*
X209320013Y-108908095D01*
X209462870Y-110050952D02*
X209415251Y-109955714D01*
X209415251Y-109955714D02*
X209367632Y-109908095D01*
X209367632Y-109908095D02*
X209272394Y-109860476D01*
X209272394Y-109860476D02*
X209224775Y-109860476D01*
X209224775Y-109860476D02*
X209129537Y-109908095D01*
X209129537Y-109908095D02*
X209081918Y-109955714D01*
X209081918Y-109955714D02*
X209034299Y-110050952D01*
X209034299Y-110050952D02*
X209034299Y-110241428D01*
X209034299Y-110241428D02*
X209081918Y-110336666D01*
X209081918Y-110336666D02*
X209129537Y-110384285D01*
X209129537Y-110384285D02*
X209224775Y-110431904D01*
X209224775Y-110431904D02*
X209272394Y-110431904D01*
X209272394Y-110431904D02*
X209367632Y-110384285D01*
X209367632Y-110384285D02*
X209415251Y-110336666D01*
X209415251Y-110336666D02*
X209462870Y-110241428D01*
X209462870Y-110241428D02*
X209462870Y-110050952D01*
X209462870Y-110050952D02*
X209510489Y-109955714D01*
X209510489Y-109955714D02*
X209558108Y-109908095D01*
X209558108Y-109908095D02*
X209653346Y-109860476D01*
X209653346Y-109860476D02*
X209843822Y-109860476D01*
X209843822Y-109860476D02*
X209939060Y-109908095D01*
X209939060Y-109908095D02*
X209986680Y-109955714D01*
X209986680Y-109955714D02*
X210034299Y-110050952D01*
X210034299Y-110050952D02*
X210034299Y-110241428D01*
X210034299Y-110241428D02*
X209986680Y-110336666D01*
X209986680Y-110336666D02*
X209939060Y-110384285D01*
X209939060Y-110384285D02*
X209843822Y-110431904D01*
X209843822Y-110431904D02*
X209653346Y-110431904D01*
X209653346Y-110431904D02*
X209558108Y-110384285D01*
X209558108Y-110384285D02*
X209510489Y-110336666D01*
X209510489Y-110336666D02*
X209462870Y-110241428D01*
X165346666Y-106889060D02*
X165394285Y-106936680D01*
X165394285Y-106936680D02*
X165537142Y-106984299D01*
X165537142Y-106984299D02*
X165632380Y-106984299D01*
X165632380Y-106984299D02*
X165775237Y-106936680D01*
X165775237Y-106936680D02*
X165870475Y-106841441D01*
X165870475Y-106841441D02*
X165918094Y-106746203D01*
X165918094Y-106746203D02*
X165965713Y-106555727D01*
X165965713Y-106555727D02*
X165965713Y-106412870D01*
X165965713Y-106412870D02*
X165918094Y-106222394D01*
X165918094Y-106222394D02*
X165870475Y-106127156D01*
X165870475Y-106127156D02*
X165775237Y-106031918D01*
X165775237Y-106031918D02*
X165632380Y-105984299D01*
X165632380Y-105984299D02*
X165537142Y-105984299D01*
X165537142Y-105984299D02*
X165394285Y-106031918D01*
X165394285Y-106031918D02*
X165346666Y-106079537D01*
X164489523Y-105984299D02*
X164679999Y-105984299D01*
X164679999Y-105984299D02*
X164775237Y-106031918D01*
X164775237Y-106031918D02*
X164822856Y-106079537D01*
X164822856Y-106079537D02*
X164918094Y-106222394D01*
X164918094Y-106222394D02*
X164965713Y-106412870D01*
X164965713Y-106412870D02*
X164965713Y-106793822D01*
X164965713Y-106793822D02*
X164918094Y-106889060D01*
X164918094Y-106889060D02*
X164870475Y-106936680D01*
X164870475Y-106936680D02*
X164775237Y-106984299D01*
X164775237Y-106984299D02*
X164584761Y-106984299D01*
X164584761Y-106984299D02*
X164489523Y-106936680D01*
X164489523Y-106936680D02*
X164441904Y-106889060D01*
X164441904Y-106889060D02*
X164394285Y-106793822D01*
X164394285Y-106793822D02*
X164394285Y-106555727D01*
X164394285Y-106555727D02*
X164441904Y-106460489D01*
X164441904Y-106460489D02*
X164489523Y-106412870D01*
X164489523Y-106412870D02*
X164584761Y-106365251D01*
X164584761Y-106365251D02*
X164775237Y-106365251D01*
X164775237Y-106365251D02*
X164870475Y-106412870D01*
X164870475Y-106412870D02*
X164918094Y-106460489D01*
X164918094Y-106460489D02*
X164965713Y-106555727D01*
X118097857Y-101949060D02*
X118145476Y-101996680D01*
X118145476Y-101996680D02*
X118288333Y-102044299D01*
X118288333Y-102044299D02*
X118383571Y-102044299D01*
X118383571Y-102044299D02*
X118526428Y-101996680D01*
X118526428Y-101996680D02*
X118621666Y-101901441D01*
X118621666Y-101901441D02*
X118669285Y-101806203D01*
X118669285Y-101806203D02*
X118716904Y-101615727D01*
X118716904Y-101615727D02*
X118716904Y-101472870D01*
X118716904Y-101472870D02*
X118669285Y-101282394D01*
X118669285Y-101282394D02*
X118621666Y-101187156D01*
X118621666Y-101187156D02*
X118526428Y-101091918D01*
X118526428Y-101091918D02*
X118383571Y-101044299D01*
X118383571Y-101044299D02*
X118288333Y-101044299D01*
X118288333Y-101044299D02*
X118145476Y-101091918D01*
X118145476Y-101091918D02*
X118097857Y-101139537D01*
X117716904Y-101139537D02*
X117669285Y-101091918D01*
X117669285Y-101091918D02*
X117574047Y-101044299D01*
X117574047Y-101044299D02*
X117335952Y-101044299D01*
X117335952Y-101044299D02*
X117240714Y-101091918D01*
X117240714Y-101091918D02*
X117193095Y-101139537D01*
X117193095Y-101139537D02*
X117145476Y-101234775D01*
X117145476Y-101234775D02*
X117145476Y-101330013D01*
X117145476Y-101330013D02*
X117193095Y-101472870D01*
X117193095Y-101472870D02*
X117764523Y-102044299D01*
X117764523Y-102044299D02*
X117145476Y-102044299D01*
X116526428Y-101044299D02*
X116431190Y-101044299D01*
X116431190Y-101044299D02*
X116335952Y-101091918D01*
X116335952Y-101091918D02*
X116288333Y-101139537D01*
X116288333Y-101139537D02*
X116240714Y-101234775D01*
X116240714Y-101234775D02*
X116193095Y-101425251D01*
X116193095Y-101425251D02*
X116193095Y-101663346D01*
X116193095Y-101663346D02*
X116240714Y-101853822D01*
X116240714Y-101853822D02*
X116288333Y-101949060D01*
X116288333Y-101949060D02*
X116335952Y-101996680D01*
X116335952Y-101996680D02*
X116431190Y-102044299D01*
X116431190Y-102044299D02*
X116526428Y-102044299D01*
X116526428Y-102044299D02*
X116621666Y-101996680D01*
X116621666Y-101996680D02*
X116669285Y-101949060D01*
X116669285Y-101949060D02*
X116716904Y-101853822D01*
X116716904Y-101853822D02*
X116764523Y-101663346D01*
X116764523Y-101663346D02*
X116764523Y-101425251D01*
X116764523Y-101425251D02*
X116716904Y-101234775D01*
X116716904Y-101234775D02*
X116669285Y-101139537D01*
X116669285Y-101139537D02*
X116621666Y-101091918D01*
X116621666Y-101091918D02*
X116526428Y-101044299D01*
X170089060Y-115727142D02*
X170136680Y-115679523D01*
X170136680Y-115679523D02*
X170184299Y-115536666D01*
X170184299Y-115536666D02*
X170184299Y-115441428D01*
X170184299Y-115441428D02*
X170136680Y-115298571D01*
X170136680Y-115298571D02*
X170041441Y-115203333D01*
X170041441Y-115203333D02*
X169946203Y-115155714D01*
X169946203Y-115155714D02*
X169755727Y-115108095D01*
X169755727Y-115108095D02*
X169612870Y-115108095D01*
X169612870Y-115108095D02*
X169422394Y-115155714D01*
X169422394Y-115155714D02*
X169327156Y-115203333D01*
X169327156Y-115203333D02*
X169231918Y-115298571D01*
X169231918Y-115298571D02*
X169184299Y-115441428D01*
X169184299Y-115441428D02*
X169184299Y-115536666D01*
X169184299Y-115536666D02*
X169231918Y-115679523D01*
X169231918Y-115679523D02*
X169279537Y-115727142D01*
X170184299Y-116679523D02*
X170184299Y-116108095D01*
X170184299Y-116393809D02*
X169184299Y-116393809D01*
X169184299Y-116393809D02*
X169327156Y-116298571D01*
X169327156Y-116298571D02*
X169422394Y-116203333D01*
X169422394Y-116203333D02*
X169470013Y-116108095D01*
X169184299Y-117298571D02*
X169184299Y-117393809D01*
X169184299Y-117393809D02*
X169231918Y-117489047D01*
X169231918Y-117489047D02*
X169279537Y-117536666D01*
X169279537Y-117536666D02*
X169374775Y-117584285D01*
X169374775Y-117584285D02*
X169565251Y-117631904D01*
X169565251Y-117631904D02*
X169803346Y-117631904D01*
X169803346Y-117631904D02*
X169993822Y-117584285D01*
X169993822Y-117584285D02*
X170089060Y-117536666D01*
X170089060Y-117536666D02*
X170136680Y-117489047D01*
X170136680Y-117489047D02*
X170184299Y-117393809D01*
X170184299Y-117393809D02*
X170184299Y-117298571D01*
X170184299Y-117298571D02*
X170136680Y-117203333D01*
X170136680Y-117203333D02*
X170089060Y-117155714D01*
X170089060Y-117155714D02*
X169993822Y-117108095D01*
X169993822Y-117108095D02*
X169803346Y-117060476D01*
X169803346Y-117060476D02*
X169565251Y-117060476D01*
X169565251Y-117060476D02*
X169374775Y-117108095D01*
X169374775Y-117108095D02*
X169279537Y-117155714D01*
X169279537Y-117155714D02*
X169231918Y-117203333D01*
X169231918Y-117203333D02*
X169184299Y-117298571D01*
X132172857Y-109304060D02*
X132220476Y-109351680D01*
X132220476Y-109351680D02*
X132363333Y-109399299D01*
X132363333Y-109399299D02*
X132458571Y-109399299D01*
X132458571Y-109399299D02*
X132601428Y-109351680D01*
X132601428Y-109351680D02*
X132696666Y-109256441D01*
X132696666Y-109256441D02*
X132744285Y-109161203D01*
X132744285Y-109161203D02*
X132791904Y-108970727D01*
X132791904Y-108970727D02*
X132791904Y-108827870D01*
X132791904Y-108827870D02*
X132744285Y-108637394D01*
X132744285Y-108637394D02*
X132696666Y-108542156D01*
X132696666Y-108542156D02*
X132601428Y-108446918D01*
X132601428Y-108446918D02*
X132458571Y-108399299D01*
X132458571Y-108399299D02*
X132363333Y-108399299D01*
X132363333Y-108399299D02*
X132220476Y-108446918D01*
X132220476Y-108446918D02*
X132172857Y-108494537D01*
X131220476Y-109399299D02*
X131791904Y-109399299D01*
X131506190Y-109399299D02*
X131506190Y-108399299D01*
X131506190Y-108399299D02*
X131601428Y-108542156D01*
X131601428Y-108542156D02*
X131696666Y-108637394D01*
X131696666Y-108637394D02*
X131791904Y-108685013D01*
X130315714Y-108399299D02*
X130791904Y-108399299D01*
X130791904Y-108399299D02*
X130839523Y-108875489D01*
X130839523Y-108875489D02*
X130791904Y-108827870D01*
X130791904Y-108827870D02*
X130696666Y-108780251D01*
X130696666Y-108780251D02*
X130458571Y-108780251D01*
X130458571Y-108780251D02*
X130363333Y-108827870D01*
X130363333Y-108827870D02*
X130315714Y-108875489D01*
X130315714Y-108875489D02*
X130268095Y-108970727D01*
X130268095Y-108970727D02*
X130268095Y-109208822D01*
X130268095Y-109208822D02*
X130315714Y-109304060D01*
X130315714Y-109304060D02*
X130363333Y-109351680D01*
X130363333Y-109351680D02*
X130458571Y-109399299D01*
X130458571Y-109399299D02*
X130696666Y-109399299D01*
X130696666Y-109399299D02*
X130791904Y-109351680D01*
X130791904Y-109351680D02*
X130839523Y-109304060D01*
X157586666Y-120569060D02*
X157634285Y-120616680D01*
X157634285Y-120616680D02*
X157777142Y-120664299D01*
X157777142Y-120664299D02*
X157872380Y-120664299D01*
X157872380Y-120664299D02*
X158015237Y-120616680D01*
X158015237Y-120616680D02*
X158110475Y-120521441D01*
X158110475Y-120521441D02*
X158158094Y-120426203D01*
X158158094Y-120426203D02*
X158205713Y-120235727D01*
X158205713Y-120235727D02*
X158205713Y-120092870D01*
X158205713Y-120092870D02*
X158158094Y-119902394D01*
X158158094Y-119902394D02*
X158110475Y-119807156D01*
X158110475Y-119807156D02*
X158015237Y-119711918D01*
X158015237Y-119711918D02*
X157872380Y-119664299D01*
X157872380Y-119664299D02*
X157777142Y-119664299D01*
X157777142Y-119664299D02*
X157634285Y-119711918D01*
X157634285Y-119711918D02*
X157586666Y-119759537D01*
X157205713Y-119759537D02*
X157158094Y-119711918D01*
X157158094Y-119711918D02*
X157062856Y-119664299D01*
X157062856Y-119664299D02*
X156824761Y-119664299D01*
X156824761Y-119664299D02*
X156729523Y-119711918D01*
X156729523Y-119711918D02*
X156681904Y-119759537D01*
X156681904Y-119759537D02*
X156634285Y-119854775D01*
X156634285Y-119854775D02*
X156634285Y-119950013D01*
X156634285Y-119950013D02*
X156681904Y-120092870D01*
X156681904Y-120092870D02*
X157253332Y-120664299D01*
X157253332Y-120664299D02*
X156634285Y-120664299D01*
X170346666Y-110929060D02*
X170394285Y-110976680D01*
X170394285Y-110976680D02*
X170537142Y-111024299D01*
X170537142Y-111024299D02*
X170632380Y-111024299D01*
X170632380Y-111024299D02*
X170775237Y-110976680D01*
X170775237Y-110976680D02*
X170870475Y-110881441D01*
X170870475Y-110881441D02*
X170918094Y-110786203D01*
X170918094Y-110786203D02*
X170965713Y-110595727D01*
X170965713Y-110595727D02*
X170965713Y-110452870D01*
X170965713Y-110452870D02*
X170918094Y-110262394D01*
X170918094Y-110262394D02*
X170870475Y-110167156D01*
X170870475Y-110167156D02*
X170775237Y-110071918D01*
X170775237Y-110071918D02*
X170632380Y-110024299D01*
X170632380Y-110024299D02*
X170537142Y-110024299D01*
X170537142Y-110024299D02*
X170394285Y-110071918D01*
X170394285Y-110071918D02*
X170346666Y-110119537D01*
X169775237Y-110452870D02*
X169870475Y-110405251D01*
X169870475Y-110405251D02*
X169918094Y-110357632D01*
X169918094Y-110357632D02*
X169965713Y-110262394D01*
X169965713Y-110262394D02*
X169965713Y-110214775D01*
X169965713Y-110214775D02*
X169918094Y-110119537D01*
X169918094Y-110119537D02*
X169870475Y-110071918D01*
X169870475Y-110071918D02*
X169775237Y-110024299D01*
X169775237Y-110024299D02*
X169584761Y-110024299D01*
X169584761Y-110024299D02*
X169489523Y-110071918D01*
X169489523Y-110071918D02*
X169441904Y-110119537D01*
X169441904Y-110119537D02*
X169394285Y-110214775D01*
X169394285Y-110214775D02*
X169394285Y-110262394D01*
X169394285Y-110262394D02*
X169441904Y-110357632D01*
X169441904Y-110357632D02*
X169489523Y-110405251D01*
X169489523Y-110405251D02*
X169584761Y-110452870D01*
X169584761Y-110452870D02*
X169775237Y-110452870D01*
X169775237Y-110452870D02*
X169870475Y-110500489D01*
X169870475Y-110500489D02*
X169918094Y-110548108D01*
X169918094Y-110548108D02*
X169965713Y-110643346D01*
X169965713Y-110643346D02*
X169965713Y-110833822D01*
X169965713Y-110833822D02*
X169918094Y-110929060D01*
X169918094Y-110929060D02*
X169870475Y-110976680D01*
X169870475Y-110976680D02*
X169775237Y-111024299D01*
X169775237Y-111024299D02*
X169584761Y-111024299D01*
X169584761Y-111024299D02*
X169489523Y-110976680D01*
X169489523Y-110976680D02*
X169441904Y-110929060D01*
X169441904Y-110929060D02*
X169394285Y-110833822D01*
X169394285Y-110833822D02*
X169394285Y-110643346D01*
X169394285Y-110643346D02*
X169441904Y-110548108D01*
X169441904Y-110548108D02*
X169489523Y-110500489D01*
X169489523Y-110500489D02*
X169584761Y-110452870D01*
X147871666Y-107804060D02*
X147919285Y-107851680D01*
X147919285Y-107851680D02*
X148062142Y-107899299D01*
X148062142Y-107899299D02*
X148157380Y-107899299D01*
X148157380Y-107899299D02*
X148300237Y-107851680D01*
X148300237Y-107851680D02*
X148395475Y-107756441D01*
X148395475Y-107756441D02*
X148443094Y-107661203D01*
X148443094Y-107661203D02*
X148490713Y-107470727D01*
X148490713Y-107470727D02*
X148490713Y-107327870D01*
X148490713Y-107327870D02*
X148443094Y-107137394D01*
X148443094Y-107137394D02*
X148395475Y-107042156D01*
X148395475Y-107042156D02*
X148300237Y-106946918D01*
X148300237Y-106946918D02*
X148157380Y-106899299D01*
X148157380Y-106899299D02*
X148062142Y-106899299D01*
X148062142Y-106899299D02*
X147919285Y-106946918D01*
X147919285Y-106946918D02*
X147871666Y-106994537D01*
X147538332Y-106899299D02*
X146871666Y-106899299D01*
X146871666Y-106899299D02*
X147300237Y-107899299D01*
X165346666Y-105429060D02*
X165394285Y-105476680D01*
X165394285Y-105476680D02*
X165537142Y-105524299D01*
X165537142Y-105524299D02*
X165632380Y-105524299D01*
X165632380Y-105524299D02*
X165775237Y-105476680D01*
X165775237Y-105476680D02*
X165870475Y-105381441D01*
X165870475Y-105381441D02*
X165918094Y-105286203D01*
X165918094Y-105286203D02*
X165965713Y-105095727D01*
X165965713Y-105095727D02*
X165965713Y-104952870D01*
X165965713Y-104952870D02*
X165918094Y-104762394D01*
X165918094Y-104762394D02*
X165870475Y-104667156D01*
X165870475Y-104667156D02*
X165775237Y-104571918D01*
X165775237Y-104571918D02*
X165632380Y-104524299D01*
X165632380Y-104524299D02*
X165537142Y-104524299D01*
X165537142Y-104524299D02*
X165394285Y-104571918D01*
X165394285Y-104571918D02*
X165346666Y-104619537D01*
X164441904Y-104524299D02*
X164918094Y-104524299D01*
X164918094Y-104524299D02*
X164965713Y-105000489D01*
X164965713Y-105000489D02*
X164918094Y-104952870D01*
X164918094Y-104952870D02*
X164822856Y-104905251D01*
X164822856Y-104905251D02*
X164584761Y-104905251D01*
X164584761Y-104905251D02*
X164489523Y-104952870D01*
X164489523Y-104952870D02*
X164441904Y-105000489D01*
X164441904Y-105000489D02*
X164394285Y-105095727D01*
X164394285Y-105095727D02*
X164394285Y-105333822D01*
X164394285Y-105333822D02*
X164441904Y-105429060D01*
X164441904Y-105429060D02*
X164489523Y-105476680D01*
X164489523Y-105476680D02*
X164584761Y-105524299D01*
X164584761Y-105524299D02*
X164822856Y-105524299D01*
X164822856Y-105524299D02*
X164918094Y-105476680D01*
X164918094Y-105476680D02*
X164965713Y-105429060D01*
X148871666Y-119304060D02*
X148919285Y-119351680D01*
X148919285Y-119351680D02*
X149062142Y-119399299D01*
X149062142Y-119399299D02*
X149157380Y-119399299D01*
X149157380Y-119399299D02*
X149300237Y-119351680D01*
X149300237Y-119351680D02*
X149395475Y-119256441D01*
X149395475Y-119256441D02*
X149443094Y-119161203D01*
X149443094Y-119161203D02*
X149490713Y-118970727D01*
X149490713Y-118970727D02*
X149490713Y-118827870D01*
X149490713Y-118827870D02*
X149443094Y-118637394D01*
X149443094Y-118637394D02*
X149395475Y-118542156D01*
X149395475Y-118542156D02*
X149300237Y-118446918D01*
X149300237Y-118446918D02*
X149157380Y-118399299D01*
X149157380Y-118399299D02*
X149062142Y-118399299D01*
X149062142Y-118399299D02*
X148919285Y-118446918D01*
X148919285Y-118446918D02*
X148871666Y-118494537D01*
X148014523Y-118732632D02*
X148014523Y-119399299D01*
X148252618Y-118351680D02*
X148490713Y-119065965D01*
X148490713Y-119065965D02*
X147871666Y-119065965D01*
D14*
G36*
X121946053Y-112633000D02*
G01*
X121899120Y-112611953D01*
X121859927Y-112578973D01*
X121844448Y-112559728D01*
X121820635Y-112516405D01*
X121807812Y-112468137D01*
X121805369Y-112433210D01*
X121810564Y-112381589D01*
X121826149Y-112334527D01*
X121849333Y-112295701D01*
X121887191Y-112259981D01*
X121929368Y-112235033D01*
X121946053Y-112227069D01*
X121946053Y-112633000D01*
G37*
G36*
X122227421Y-109828848D02*
G01*
X122225972Y-109883080D01*
X122220766Y-109936557D01*
X122210385Y-109985881D01*
X122197135Y-110020091D01*
X122168433Y-110061696D01*
X122131924Y-110094403D01*
X122094797Y-110117299D01*
X122046545Y-110137263D01*
X121997612Y-110148909D01*
X121943462Y-110154565D01*
X121917721Y-110155157D01*
X121859629Y-110151988D01*
X121806621Y-110142483D01*
X121758696Y-110126641D01*
X121709208Y-110100149D01*
X121666639Y-110065031D01*
X121635424Y-110024940D01*
X121611876Y-109975406D01*
X121597793Y-109925431D01*
X121589344Y-109868519D01*
X121586606Y-109815792D01*
X121586528Y-109804668D01*
X121586528Y-109739455D01*
X122227421Y-109739455D01*
X122227421Y-109828848D01*
G37*
G36*
X122541742Y-114412046D02*
G01*
X121256575Y-114412046D01*
X121256575Y-114020544D01*
X121398949Y-114020544D01*
X122227421Y-114020544D01*
X122227421Y-114300935D01*
X122415000Y-114300935D01*
X122415000Y-113828325D01*
X121398949Y-113828325D01*
X121398949Y-114020544D01*
X121256575Y-114020544D01*
X121256575Y-113249469D01*
X121649054Y-113249469D01*
X121656943Y-113298707D01*
X121667372Y-113325673D01*
X121821978Y-113267299D01*
X121805775Y-113220004D01*
X121805369Y-113213077D01*
X121824485Y-113166272D01*
X121859591Y-113139804D01*
X121909192Y-113122840D01*
X121960747Y-113114925D01*
X122016551Y-113111054D01*
X122072327Y-113110007D01*
X122109207Y-113110495D01*
X122415000Y-113110495D01*
X122415000Y-112924382D01*
X121664685Y-112924382D01*
X121664685Y-113085094D01*
X121757009Y-113085094D01*
X121715542Y-113111234D01*
X121680173Y-113149122D01*
X121676653Y-113154459D01*
X121655954Y-113199949D01*
X121649054Y-113249469D01*
X121256575Y-113249469D01*
X121256575Y-112424173D01*
X121649054Y-112424173D01*
X121649510Y-112433210D01*
X121651755Y-112477746D01*
X121659859Y-112528100D01*
X121673365Y-112575234D01*
X121696703Y-112627544D01*
X121727822Y-112675217D01*
X121759696Y-112711402D01*
X121803677Y-112749003D01*
X121852638Y-112778825D01*
X121906579Y-112800867D01*
X121955335Y-112813293D01*
X122007549Y-112820316D01*
X122051810Y-112822044D01*
X122086737Y-112821312D01*
X122086737Y-112218765D01*
X122137036Y-112231125D01*
X122184430Y-112254583D01*
X122223513Y-112288374D01*
X122252437Y-112331025D01*
X122269354Y-112381064D01*
X122274316Y-112432966D01*
X122269354Y-112483738D01*
X122254471Y-112530785D01*
X122229665Y-112574107D01*
X122194937Y-112613705D01*
X122268210Y-112771730D01*
X122307029Y-112740712D01*
X122344241Y-112702312D01*
X122374615Y-112660203D01*
X122391064Y-112630070D01*
X122410190Y-112581317D01*
X122421937Y-112533861D01*
X122428738Y-112482528D01*
X122430631Y-112434431D01*
X122427942Y-112381069D01*
X122419874Y-112330890D01*
X122406427Y-112283896D01*
X122383192Y-112231706D01*
X122352211Y-112184102D01*
X122320478Y-112147934D01*
X122277121Y-112110416D01*
X122229848Y-112080661D01*
X122178660Y-112058667D01*
X122123557Y-112044436D01*
X122074646Y-112038507D01*
X122043995Y-112037536D01*
X121992209Y-112040226D01*
X121943249Y-112048294D01*
X121888229Y-112065075D01*
X121837278Y-112089601D01*
X121790398Y-112121873D01*
X121761406Y-112147690D01*
X121723224Y-112191047D01*
X121692941Y-112238319D01*
X121670559Y-112289507D01*
X121656076Y-112344611D01*
X121650041Y-112393521D01*
X121649054Y-112424173D01*
X121256575Y-112424173D01*
X121256575Y-111399574D01*
X121664685Y-111399574D01*
X122107498Y-111588374D01*
X121664685Y-111776685D01*
X121664685Y-111966950D01*
X122415000Y-111648946D01*
X122415000Y-111527313D01*
X121664685Y-111208576D01*
X121664685Y-111399574D01*
X121256575Y-111399574D01*
X121256575Y-111027348D01*
X121367686Y-111027348D01*
X121377406Y-111075840D01*
X121402124Y-111112100D01*
X121442851Y-111139734D01*
X121485655Y-111147516D01*
X121535578Y-111136387D01*
X121555944Y-111121382D01*
X121664685Y-111121382D01*
X122415000Y-111121382D01*
X122415000Y-110933315D01*
X121664685Y-110933315D01*
X121664685Y-111121382D01*
X121555944Y-111121382D01*
X121568210Y-111112345D01*
X121595661Y-111068724D01*
X121602159Y-111028813D01*
X121592371Y-110979750D01*
X121567477Y-110943328D01*
X121526231Y-110915695D01*
X121482969Y-110907913D01*
X121433793Y-110918964D01*
X121401636Y-110942840D01*
X121375146Y-110984207D01*
X121367686Y-111027348D01*
X121256575Y-111027348D01*
X121256575Y-110787502D01*
X121649054Y-110787502D01*
X121656943Y-110836739D01*
X121667372Y-110863705D01*
X121821978Y-110805331D01*
X121805775Y-110758036D01*
X121805369Y-110751109D01*
X121824485Y-110704304D01*
X121859591Y-110677837D01*
X121909192Y-110660872D01*
X121960747Y-110652957D01*
X122016551Y-110649086D01*
X122072327Y-110648039D01*
X122109207Y-110648527D01*
X122415000Y-110648527D01*
X122415000Y-110462414D01*
X121664685Y-110462414D01*
X121664685Y-110623126D01*
X121757009Y-110623126D01*
X121715542Y-110649266D01*
X121680173Y-110687154D01*
X121676653Y-110692491D01*
X121655954Y-110737981D01*
X121649054Y-110787502D01*
X121256575Y-110787502D01*
X121256575Y-109775848D01*
X121398949Y-109775848D01*
X121399413Y-109804668D01*
X121399808Y-109829215D01*
X121402384Y-109879040D01*
X121408019Y-109936342D01*
X121416337Y-109988110D01*
X121429861Y-110042927D01*
X121447249Y-110089776D01*
X121453904Y-110103622D01*
X121481231Y-110148720D01*
X121515126Y-110190195D01*
X121555589Y-110228047D01*
X121595500Y-110257608D01*
X121632445Y-110280209D01*
X121680250Y-110303782D01*
X121730975Y-110322478D01*
X121784618Y-110336297D01*
X121841181Y-110345239D01*
X121890548Y-110348964D01*
X121921140Y-110349574D01*
X121971627Y-110347716D01*
X122020290Y-110342141D01*
X122073672Y-110331219D01*
X122124673Y-110315442D01*
X122137051Y-110310740D01*
X122184175Y-110289475D01*
X122227116Y-110264517D01*
X122270425Y-110232022D01*
X122300450Y-110203517D01*
X122333708Y-110164160D01*
X122360668Y-110123026D01*
X122383236Y-110075236D01*
X122390087Y-110055506D01*
X122402130Y-110001463D01*
X122408771Y-109946634D01*
X122412567Y-109890727D01*
X122414391Y-109837853D01*
X122415000Y-109779267D01*
X122415000Y-109547725D01*
X121398949Y-109547725D01*
X121398949Y-109775848D01*
X121256575Y-109775848D01*
X121256575Y-109436614D01*
X122541742Y-109436614D01*
X122541742Y-114412046D01*
G37*
D12*
X124134299Y-100408095D02*
X124943822Y-100408095D01*
X124943822Y-100408095D02*
X125039060Y-100455714D01*
X125039060Y-100455714D02*
X125086680Y-100503333D01*
X125086680Y-100503333D02*
X125134299Y-100598571D01*
X125134299Y-100598571D02*
X125134299Y-100789047D01*
X125134299Y-100789047D02*
X125086680Y-100884285D01*
X125086680Y-100884285D02*
X125039060Y-100931904D01*
X125039060Y-100931904D02*
X124943822Y-100979523D01*
X124943822Y-100979523D02*
X124134299Y-100979523D01*
X124229537Y-101408095D02*
X124181918Y-101455714D01*
X124181918Y-101455714D02*
X124134299Y-101550952D01*
X124134299Y-101550952D02*
X124134299Y-101789047D01*
X124134299Y-101789047D02*
X124181918Y-101884285D01*
X124181918Y-101884285D02*
X124229537Y-101931904D01*
X124229537Y-101931904D02*
X124324775Y-101979523D01*
X124324775Y-101979523D02*
X124420013Y-101979523D01*
X124420013Y-101979523D02*
X124562870Y-101931904D01*
X124562870Y-101931904D02*
X125134299Y-101360476D01*
X125134299Y-101360476D02*
X125134299Y-101979523D01*
X187802857Y-122664299D02*
X188136190Y-122188108D01*
X188374285Y-122664299D02*
X188374285Y-121664299D01*
X188374285Y-121664299D02*
X187993333Y-121664299D01*
X187993333Y-121664299D02*
X187898095Y-121711918D01*
X187898095Y-121711918D02*
X187850476Y-121759537D01*
X187850476Y-121759537D02*
X187802857Y-121854775D01*
X187802857Y-121854775D02*
X187802857Y-121997632D01*
X187802857Y-121997632D02*
X187850476Y-122092870D01*
X187850476Y-122092870D02*
X187898095Y-122140489D01*
X187898095Y-122140489D02*
X187993333Y-122188108D01*
X187993333Y-122188108D02*
X188374285Y-122188108D01*
X186850476Y-122664299D02*
X187421904Y-122664299D01*
X187136190Y-122664299D02*
X187136190Y-121664299D01*
X187136190Y-121664299D02*
X187231428Y-121807156D01*
X187231428Y-121807156D02*
X187326666Y-121902394D01*
X187326666Y-121902394D02*
X187421904Y-121950013D01*
X185898095Y-122664299D02*
X186469523Y-122664299D01*
X186183809Y-122664299D02*
X186183809Y-121664299D01*
X186183809Y-121664299D02*
X186279047Y-121807156D01*
X186279047Y-121807156D02*
X186374285Y-121902394D01*
X186374285Y-121902394D02*
X186469523Y-121950013D01*
X157596666Y-122129060D02*
X157644285Y-122176680D01*
X157644285Y-122176680D02*
X157787142Y-122224299D01*
X157787142Y-122224299D02*
X157882380Y-122224299D01*
X157882380Y-122224299D02*
X158025237Y-122176680D01*
X158025237Y-122176680D02*
X158120475Y-122081441D01*
X158120475Y-122081441D02*
X158168094Y-121986203D01*
X158168094Y-121986203D02*
X158215713Y-121795727D01*
X158215713Y-121795727D02*
X158215713Y-121652870D01*
X158215713Y-121652870D02*
X158168094Y-121462394D01*
X158168094Y-121462394D02*
X158120475Y-121367156D01*
X158120475Y-121367156D02*
X158025237Y-121271918D01*
X158025237Y-121271918D02*
X157882380Y-121224299D01*
X157882380Y-121224299D02*
X157787142Y-121224299D01*
X157787142Y-121224299D02*
X157644285Y-121271918D01*
X157644285Y-121271918D02*
X157596666Y-121319537D01*
X157263332Y-121224299D02*
X156644285Y-121224299D01*
X156644285Y-121224299D02*
X156977618Y-121605251D01*
X156977618Y-121605251D02*
X156834761Y-121605251D01*
X156834761Y-121605251D02*
X156739523Y-121652870D01*
X156739523Y-121652870D02*
X156691904Y-121700489D01*
X156691904Y-121700489D02*
X156644285Y-121795727D01*
X156644285Y-121795727D02*
X156644285Y-122033822D01*
X156644285Y-122033822D02*
X156691904Y-122129060D01*
X156691904Y-122129060D02*
X156739523Y-122176680D01*
X156739523Y-122176680D02*
X156834761Y-122224299D01*
X156834761Y-122224299D02*
X157120475Y-122224299D01*
X157120475Y-122224299D02*
X157215713Y-122176680D01*
X157215713Y-122176680D02*
X157263332Y-122129060D01*
X169889060Y-101652142D02*
X169936680Y-101604523D01*
X169936680Y-101604523D02*
X169984299Y-101461666D01*
X169984299Y-101461666D02*
X169984299Y-101366428D01*
X169984299Y-101366428D02*
X169936680Y-101223571D01*
X169936680Y-101223571D02*
X169841441Y-101128333D01*
X169841441Y-101128333D02*
X169746203Y-101080714D01*
X169746203Y-101080714D02*
X169555727Y-101033095D01*
X169555727Y-101033095D02*
X169412870Y-101033095D01*
X169412870Y-101033095D02*
X169222394Y-101080714D01*
X169222394Y-101080714D02*
X169127156Y-101128333D01*
X169127156Y-101128333D02*
X169031918Y-101223571D01*
X169031918Y-101223571D02*
X168984299Y-101366428D01*
X168984299Y-101366428D02*
X168984299Y-101461666D01*
X168984299Y-101461666D02*
X169031918Y-101604523D01*
X169031918Y-101604523D02*
X169079537Y-101652142D01*
X169984299Y-102604523D02*
X169984299Y-102033095D01*
X169984299Y-102318809D02*
X168984299Y-102318809D01*
X168984299Y-102318809D02*
X169127156Y-102223571D01*
X169127156Y-102223571D02*
X169222394Y-102128333D01*
X169222394Y-102128333D02*
X169270013Y-102033095D01*
X169079537Y-102985476D02*
X169031918Y-103033095D01*
X169031918Y-103033095D02*
X168984299Y-103128333D01*
X168984299Y-103128333D02*
X168984299Y-103366428D01*
X168984299Y-103366428D02*
X169031918Y-103461666D01*
X169031918Y-103461666D02*
X169079537Y-103509285D01*
X169079537Y-103509285D02*
X169174775Y-103556904D01*
X169174775Y-103556904D02*
X169270013Y-103556904D01*
X169270013Y-103556904D02*
X169412870Y-103509285D01*
X169412870Y-103509285D02*
X169984299Y-102937857D01*
X169984299Y-102937857D02*
X169984299Y-103556904D01*
X128247857Y-109304060D02*
X128295476Y-109351680D01*
X128295476Y-109351680D02*
X128438333Y-109399299D01*
X128438333Y-109399299D02*
X128533571Y-109399299D01*
X128533571Y-109399299D02*
X128676428Y-109351680D01*
X128676428Y-109351680D02*
X128771666Y-109256441D01*
X128771666Y-109256441D02*
X128819285Y-109161203D01*
X128819285Y-109161203D02*
X128866904Y-108970727D01*
X128866904Y-108970727D02*
X128866904Y-108827870D01*
X128866904Y-108827870D02*
X128819285Y-108637394D01*
X128819285Y-108637394D02*
X128771666Y-108542156D01*
X128771666Y-108542156D02*
X128676428Y-108446918D01*
X128676428Y-108446918D02*
X128533571Y-108399299D01*
X128533571Y-108399299D02*
X128438333Y-108399299D01*
X128438333Y-108399299D02*
X128295476Y-108446918D01*
X128295476Y-108446918D02*
X128247857Y-108494537D01*
X127295476Y-109399299D02*
X127866904Y-109399299D01*
X127581190Y-109399299D02*
X127581190Y-108399299D01*
X127581190Y-108399299D02*
X127676428Y-108542156D01*
X127676428Y-108542156D02*
X127771666Y-108637394D01*
X127771666Y-108637394D02*
X127866904Y-108685013D01*
X126438333Y-108732632D02*
X126438333Y-109399299D01*
X126676428Y-108351680D02*
X126914523Y-109065965D01*
X126914523Y-109065965D02*
X126295476Y-109065965D01*
X131634299Y-100408095D02*
X132443822Y-100408095D01*
X132443822Y-100408095D02*
X132539060Y-100455714D01*
X132539060Y-100455714D02*
X132586680Y-100503333D01*
X132586680Y-100503333D02*
X132634299Y-100598571D01*
X132634299Y-100598571D02*
X132634299Y-100789047D01*
X132634299Y-100789047D02*
X132586680Y-100884285D01*
X132586680Y-100884285D02*
X132539060Y-100931904D01*
X132539060Y-100931904D02*
X132443822Y-100979523D01*
X132443822Y-100979523D02*
X131634299Y-100979523D01*
X131634299Y-101360476D02*
X131634299Y-101979523D01*
X131634299Y-101979523D02*
X132015251Y-101646190D01*
X132015251Y-101646190D02*
X132015251Y-101789047D01*
X132015251Y-101789047D02*
X132062870Y-101884285D01*
X132062870Y-101884285D02*
X132110489Y-101931904D01*
X132110489Y-101931904D02*
X132205727Y-101979523D01*
X132205727Y-101979523D02*
X132443822Y-101979523D01*
X132443822Y-101979523D02*
X132539060Y-101931904D01*
X132539060Y-101931904D02*
X132586680Y-101884285D01*
X132586680Y-101884285D02*
X132634299Y-101789047D01*
X132634299Y-101789047D02*
X132634299Y-101503333D01*
X132634299Y-101503333D02*
X132586680Y-101408095D01*
X132586680Y-101408095D02*
X132539060Y-101360476D01*
X167939523Y-114224299D02*
X167272857Y-115224299D01*
X167272857Y-114224299D02*
X167939523Y-115224299D01*
X166368095Y-115224299D02*
X166939523Y-115224299D01*
X166653809Y-115224299D02*
X166653809Y-114224299D01*
X166653809Y-114224299D02*
X166749047Y-114367156D01*
X166749047Y-114367156D02*
X166844285Y-114462394D01*
X166844285Y-114462394D02*
X166939523Y-114510013D01*
X111209060Y-114147142D02*
X111256680Y-114099523D01*
X111256680Y-114099523D02*
X111304299Y-113956666D01*
X111304299Y-113956666D02*
X111304299Y-113861428D01*
X111304299Y-113861428D02*
X111256680Y-113718571D01*
X111256680Y-113718571D02*
X111161441Y-113623333D01*
X111161441Y-113623333D02*
X111066203Y-113575714D01*
X111066203Y-113575714D02*
X110875727Y-113528095D01*
X110875727Y-113528095D02*
X110732870Y-113528095D01*
X110732870Y-113528095D02*
X110542394Y-113575714D01*
X110542394Y-113575714D02*
X110447156Y-113623333D01*
X110447156Y-113623333D02*
X110351918Y-113718571D01*
X110351918Y-113718571D02*
X110304299Y-113861428D01*
X110304299Y-113861428D02*
X110304299Y-113956666D01*
X110304299Y-113956666D02*
X110351918Y-114099523D01*
X110351918Y-114099523D02*
X110399537Y-114147142D01*
X110399537Y-114528095D02*
X110351918Y-114575714D01*
X110351918Y-114575714D02*
X110304299Y-114670952D01*
X110304299Y-114670952D02*
X110304299Y-114909047D01*
X110304299Y-114909047D02*
X110351918Y-115004285D01*
X110351918Y-115004285D02*
X110399537Y-115051904D01*
X110399537Y-115051904D02*
X110494775Y-115099523D01*
X110494775Y-115099523D02*
X110590013Y-115099523D01*
X110590013Y-115099523D02*
X110732870Y-115051904D01*
X110732870Y-115051904D02*
X111304299Y-114480476D01*
X111304299Y-114480476D02*
X111304299Y-115099523D01*
X110637632Y-115956666D02*
X111304299Y-115956666D01*
X110256680Y-115718571D02*
X110970965Y-115480476D01*
X110970965Y-115480476D02*
X110970965Y-116099523D01*
D16*
G36*
X156741307Y-98424375D02*
G01*
X156779214Y-98445938D01*
X156810612Y-98483601D01*
X156831573Y-98531610D01*
X156836855Y-98549253D01*
X156847288Y-98601550D01*
X156852852Y-98652971D01*
X156855692Y-98704952D01*
X156856619Y-98754697D01*
X156856638Y-98763454D01*
X156855523Y-98818225D01*
X156852178Y-98867438D01*
X156845220Y-98919159D01*
X156833044Y-98969384D01*
X156810965Y-99017955D01*
X156776361Y-99057864D01*
X156731304Y-99082508D01*
X156692507Y-99088053D01*
X156643987Y-99078676D01*
X156603572Y-99050546D01*
X156581133Y-99021374D01*
X156559227Y-98974419D01*
X156545194Y-98922213D01*
X156536979Y-98869204D01*
X156532823Y-98819206D01*
X156531112Y-98763913D01*
X156531063Y-98752219D01*
X156532160Y-98695353D01*
X156535452Y-98644284D01*
X156542298Y-98590652D01*
X156554279Y-98538630D01*
X156573239Y-98493086D01*
X156576003Y-98488436D01*
X156606691Y-98450183D01*
X156650380Y-98422980D01*
X156692507Y-98415896D01*
X156741307Y-98424375D01*
G37*
G36*
X161609360Y-98634738D02*
G01*
X161548788Y-98634738D01*
X161496843Y-98632448D01*
X161446075Y-98622625D01*
X161422026Y-98611290D01*
X161392221Y-98569559D01*
X161387343Y-98532889D01*
X161399689Y-98484157D01*
X161404685Y-98476468D01*
X161443580Y-98444866D01*
X161450602Y-98442030D01*
X161501789Y-98433261D01*
X161551598Y-98431538D01*
X161556359Y-98431528D01*
X161609360Y-98431528D01*
X161609360Y-98634738D01*
G37*
G36*
X163146361Y-99386742D02*
G01*
X156228221Y-99386742D01*
X156228221Y-98752219D01*
X156339332Y-98752219D01*
X156340417Y-98812189D01*
X156343673Y-98867843D01*
X156349099Y-98919179D01*
X156358476Y-98975084D01*
X156370978Y-99024772D01*
X156383784Y-99061430D01*
X156404598Y-99106936D01*
X156431991Y-99152102D01*
X156463231Y-99189971D01*
X156502975Y-99223852D01*
X156548126Y-99248882D01*
X156599498Y-99265720D01*
X156650384Y-99273811D01*
X156691775Y-99275631D01*
X156746531Y-99272380D01*
X156796738Y-99262625D01*
X156847784Y-99243878D01*
X156883505Y-99223607D01*
X156924528Y-99189918D01*
X156945153Y-99165966D01*
X157174887Y-99165966D01*
X157186081Y-99215263D01*
X157206638Y-99243635D01*
X157248617Y-99270350D01*
X157282598Y-99275631D01*
X157331111Y-99264351D01*
X157359046Y-99243635D01*
X157385353Y-99200700D01*
X157390553Y-99165966D01*
X157379446Y-99116637D01*
X157359046Y-99088541D01*
X157316777Y-99062030D01*
X157282598Y-99056789D01*
X157234375Y-99067983D01*
X157206638Y-99088541D01*
X157180127Y-99131154D01*
X157174887Y-99165966D01*
X156945153Y-99165966D01*
X156956516Y-99152770D01*
X156984291Y-99108844D01*
X157005138Y-99064849D01*
X157022269Y-99013947D01*
X157033603Y-98963452D01*
X157035298Y-98951765D01*
X157524398Y-98951765D01*
X157527928Y-99001147D01*
X157540966Y-99055091D01*
X157563611Y-99105085D01*
X157595863Y-99151128D01*
X157624782Y-99181598D01*
X157664275Y-99213554D01*
X157707649Y-99238899D01*
X157754905Y-99257632D01*
X157806041Y-99269754D01*
X157861059Y-99275264D01*
X157880260Y-99275631D01*
X157933409Y-99272385D01*
X157982762Y-99262648D01*
X157989906Y-99260000D01*
X158279842Y-99260000D01*
X158507964Y-99260000D01*
X158819863Y-98801067D01*
X158819863Y-99260000D01*
X159014280Y-99260000D01*
X159230190Y-99260000D01*
X159421188Y-99260000D01*
X159421188Y-98243949D01*
X159549172Y-98243949D01*
X159909674Y-99072421D01*
X159572375Y-99072421D01*
X159572375Y-99260000D01*
X160190065Y-99260000D01*
X160009683Y-98844054D01*
X160325375Y-98844054D01*
X160325985Y-98897669D01*
X160328237Y-98951972D01*
X160332844Y-99003156D01*
X160342717Y-99054591D01*
X160361768Y-99101732D01*
X160388512Y-99144030D01*
X160408174Y-99168164D01*
X160443182Y-99202430D01*
X160485388Y-99232174D01*
X160519793Y-99249253D01*
X160570122Y-99265327D01*
X160621326Y-99273544D01*
X160666827Y-99275631D01*
X160720011Y-99272486D01*
X160769653Y-99263053D01*
X160778344Y-99260000D01*
X161153847Y-99260000D01*
X161363896Y-99260000D01*
X161591286Y-98822316D01*
X161609360Y-98822316D01*
X161609360Y-99260000D01*
X161801579Y-99260000D01*
X161801579Y-98786168D01*
X161985006Y-98786168D01*
X161988290Y-98842896D01*
X161998142Y-98898314D01*
X162014563Y-98952423D01*
X162033866Y-98997761D01*
X162053638Y-99034808D01*
X162080809Y-99076822D01*
X162116133Y-99120912D01*
X162155361Y-99159696D01*
X162198493Y-99193174D01*
X162231691Y-99213838D01*
X162281267Y-99237915D01*
X162334467Y-99256079D01*
X162382950Y-99266941D01*
X162434095Y-99273459D01*
X162487902Y-99275631D01*
X162545693Y-99273261D01*
X162601097Y-99266151D01*
X162654114Y-99254302D01*
X162704743Y-99237712D01*
X162752986Y-99216383D01*
X162768537Y-99208220D01*
X162812895Y-99180923D01*
X162853648Y-99149590D01*
X162890794Y-99114222D01*
X162924333Y-99074818D01*
X162954266Y-99031378D01*
X162963442Y-99016001D01*
X162987846Y-98968511D01*
X163007200Y-98919647D01*
X163021505Y-98869409D01*
X163030762Y-98817798D01*
X163034969Y-98764812D01*
X163035250Y-98746845D01*
X163032012Y-98686274D01*
X163022298Y-98628206D01*
X163006109Y-98572643D01*
X162983444Y-98519585D01*
X162954303Y-98469031D01*
X162918686Y-98420981D01*
X162902626Y-98402463D01*
X162861822Y-98361648D01*
X162818057Y-98326274D01*
X162771330Y-98296343D01*
X162721642Y-98271854D01*
X162668992Y-98252807D01*
X162613381Y-98239202D01*
X162554809Y-98231039D01*
X162493275Y-98228318D01*
X162444417Y-98230018D01*
X162388935Y-98236299D01*
X162335090Y-98247208D01*
X162282880Y-98262746D01*
X162246590Y-98276678D01*
X162198474Y-98300629D01*
X162156773Y-98327622D01*
X162115447Y-98360248D01*
X162074494Y-98398508D01*
X162057057Y-98416629D01*
X162192368Y-98549009D01*
X162233553Y-98510661D01*
X162276813Y-98478813D01*
X162322148Y-98453464D01*
X162369558Y-98434615D01*
X162419044Y-98422266D01*
X162470604Y-98416416D01*
X162491809Y-98415896D01*
X162546063Y-98419288D01*
X162596899Y-98429463D01*
X162644317Y-98446422D01*
X162688318Y-98470164D01*
X162728902Y-98500690D01*
X162741670Y-98512372D01*
X162775868Y-98550010D01*
X162806823Y-98597611D01*
X162828147Y-98649186D01*
X162839841Y-98704735D01*
X162842298Y-98746845D01*
X162838631Y-98798889D01*
X162827632Y-98847859D01*
X162809299Y-98893754D01*
X162783634Y-98936576D01*
X162750635Y-98976324D01*
X162738006Y-98988890D01*
X162697097Y-99022590D01*
X162652769Y-99049317D01*
X162605025Y-99069072D01*
X162553862Y-99081855D01*
X162499283Y-99087665D01*
X162480330Y-99088053D01*
X162426769Y-99085058D01*
X162378192Y-99076074D01*
X162330063Y-99059068D01*
X162312535Y-99050195D01*
X162272369Y-99022360D01*
X162237354Y-98986177D01*
X162207492Y-98941645D01*
X162202137Y-98931737D01*
X162494740Y-98931737D01*
X162494740Y-98744159D01*
X161986471Y-98744159D01*
X161985006Y-98786168D01*
X161801579Y-98786168D01*
X161801579Y-98243949D01*
X161597636Y-98243949D01*
X161547632Y-98244677D01*
X161493845Y-98247470D01*
X161439668Y-98253377D01*
X161389056Y-98263620D01*
X161359011Y-98273747D01*
X161313298Y-98298711D01*
X161274224Y-98332969D01*
X161244461Y-98372177D01*
X161221664Y-98417681D01*
X161207310Y-98468099D01*
X161201610Y-98517677D01*
X161201278Y-98532889D01*
X161201230Y-98535087D01*
X161205017Y-98588159D01*
X161216377Y-98636092D01*
X161237882Y-98683323D01*
X161249102Y-98700439D01*
X161283615Y-98738812D01*
X161327622Y-98770888D01*
X161375345Y-98794372D01*
X161392961Y-98801067D01*
X161153847Y-99260000D01*
X160778344Y-99260000D01*
X160821268Y-99244922D01*
X160858313Y-99225317D01*
X160900412Y-99195025D01*
X160938622Y-99156700D01*
X160967817Y-99113462D01*
X160974817Y-99099532D01*
X160991701Y-99048712D01*
X161001012Y-98997805D01*
X161006333Y-98946245D01*
X161009198Y-98887369D01*
X161009744Y-98844054D01*
X161009744Y-98243949D01*
X160816548Y-98243949D01*
X160816548Y-98893147D01*
X160814816Y-98944970D01*
X160807603Y-98994231D01*
X160801893Y-99011849D01*
X160772403Y-99052957D01*
X160753045Y-99067292D01*
X160705074Y-99085133D01*
X160670979Y-99088053D01*
X160620999Y-99081504D01*
X160583540Y-99064849D01*
X160546408Y-99030980D01*
X160532738Y-99005987D01*
X160522570Y-98958052D01*
X160519070Y-98904754D01*
X160518572Y-98869211D01*
X160518572Y-98243949D01*
X160325375Y-98243949D01*
X160325375Y-98844054D01*
X160009683Y-98844054D01*
X159830784Y-98431528D01*
X160160511Y-98431528D01*
X160160511Y-98243949D01*
X159549172Y-98243949D01*
X159421188Y-98243949D01*
X159230190Y-98243949D01*
X159230190Y-99260000D01*
X159014280Y-99260000D01*
X159014280Y-98243949D01*
X158819863Y-98243949D01*
X158819863Y-98585157D01*
X158545822Y-98243949D01*
X158314280Y-98243949D01*
X158667455Y-98689448D01*
X158279842Y-99260000D01*
X157989906Y-99260000D01*
X158035544Y-99243083D01*
X158083160Y-99214683D01*
X158119863Y-99183307D01*
X158156364Y-99139630D01*
X158181288Y-99097132D01*
X158200339Y-99049962D01*
X158213517Y-98998122D01*
X158220821Y-98941610D01*
X158221468Y-98931737D01*
X158031202Y-98931737D01*
X158019146Y-98981351D01*
X157995894Y-99027633D01*
X157976736Y-99049462D01*
X157935463Y-99075842D01*
X157885588Y-99087450D01*
X157869758Y-99088053D01*
X157818974Y-99081321D01*
X157772759Y-99059015D01*
X157758383Y-99047264D01*
X157727996Y-99007901D01*
X157714322Y-98958048D01*
X157713931Y-98947124D01*
X157723807Y-98897643D01*
X157753434Y-98854772D01*
X157773770Y-98837215D01*
X157821144Y-98811484D01*
X157869178Y-98798117D01*
X157918881Y-98792042D01*
X157946206Y-98791053D01*
X157946206Y-98619106D01*
X157895692Y-98613367D01*
X157847273Y-98601117D01*
X157842891Y-98599323D01*
X157801686Y-98572228D01*
X157789890Y-98558534D01*
X157771305Y-98512585D01*
X157770839Y-98503579D01*
X157785728Y-98455846D01*
X157799660Y-98440809D01*
X157845271Y-98418840D01*
X157875375Y-98415896D01*
X157924014Y-98426105D01*
X157950358Y-98442030D01*
X157983980Y-98480708D01*
X157996276Y-98509685D01*
X158180923Y-98509685D01*
X158170497Y-98455204D01*
X158153629Y-98406310D01*
X158130319Y-98363002D01*
X158100567Y-98325282D01*
X158064372Y-98292329D01*
X158017933Y-98262501D01*
X157966959Y-98241953D01*
X157911450Y-98230685D01*
X157869025Y-98228318D01*
X157816564Y-98232011D01*
X157767959Y-98243091D01*
X157717134Y-98264798D01*
X157671346Y-98296152D01*
X157660686Y-98305498D01*
X157623821Y-98345768D01*
X157597488Y-98389640D01*
X157581689Y-98437115D01*
X157576422Y-98488192D01*
X157582509Y-98539680D01*
X157600769Y-98587379D01*
X157613303Y-98608115D01*
X157645486Y-98645862D01*
X157687079Y-98677770D01*
X157720037Y-98695799D01*
X157671430Y-98714412D01*
X157629199Y-98739479D01*
X157589752Y-98774899D01*
X157576178Y-98791297D01*
X157548872Y-98836249D01*
X157531680Y-98885922D01*
X157524854Y-98934667D01*
X157524398Y-98951765D01*
X157035298Y-98951765D01*
X157041846Y-98906620D01*
X157046354Y-98854419D01*
X157048715Y-98797817D01*
X157049102Y-98761744D01*
X157048346Y-98711599D01*
X157044988Y-98648872D01*
X157038943Y-98590870D01*
X157030211Y-98537593D01*
X157018793Y-98489040D01*
X157000742Y-98434993D01*
X156978493Y-98388328D01*
X156963128Y-98363872D01*
X156931460Y-98324821D01*
X156888641Y-98286696D01*
X156840568Y-98258103D01*
X156787239Y-98239040D01*
X156738784Y-98230436D01*
X156697392Y-98228318D01*
X156643979Y-98231676D01*
X156594383Y-98241751D01*
X156543148Y-98261114D01*
X156506638Y-98282051D01*
X156464474Y-98316621D01*
X156431860Y-98354876D01*
X156403825Y-98400213D01*
X156383052Y-98445694D01*
X156366016Y-98498012D01*
X156354745Y-98549423D01*
X156346548Y-98606896D01*
X156342065Y-98659422D01*
X156339716Y-98716157D01*
X156339332Y-98752219D01*
X156228221Y-98752219D01*
X156228221Y-98117207D01*
X163146361Y-98117207D01*
X163146361Y-99386742D01*
G37*
D12*
X157966904Y-104674299D02*
X157966904Y-105483822D01*
X157966904Y-105483822D02*
X157919285Y-105579060D01*
X157919285Y-105579060D02*
X157871666Y-105626680D01*
X157871666Y-105626680D02*
X157776428Y-105674299D01*
X157776428Y-105674299D02*
X157585952Y-105674299D01*
X157585952Y-105674299D02*
X157490714Y-105626680D01*
X157490714Y-105626680D02*
X157443095Y-105579060D01*
X157443095Y-105579060D02*
X157395476Y-105483822D01*
X157395476Y-105483822D02*
X157395476Y-104674299D01*
X156395476Y-105674299D02*
X156966904Y-105674299D01*
X156681190Y-105674299D02*
X156681190Y-104674299D01*
X156681190Y-104674299D02*
X156776428Y-104817156D01*
X156776428Y-104817156D02*
X156871666Y-104912394D01*
X156871666Y-104912394D02*
X156966904Y-104960013D01*
X187752857Y-120784299D02*
X188086190Y-120308108D01*
X188324285Y-120784299D02*
X188324285Y-119784299D01*
X188324285Y-119784299D02*
X187943333Y-119784299D01*
X187943333Y-119784299D02*
X187848095Y-119831918D01*
X187848095Y-119831918D02*
X187800476Y-119879537D01*
X187800476Y-119879537D02*
X187752857Y-119974775D01*
X187752857Y-119974775D02*
X187752857Y-120117632D01*
X187752857Y-120117632D02*
X187800476Y-120212870D01*
X187800476Y-120212870D02*
X187848095Y-120260489D01*
X187848095Y-120260489D02*
X187943333Y-120308108D01*
X187943333Y-120308108D02*
X188324285Y-120308108D01*
X186800476Y-120784299D02*
X187371904Y-120784299D01*
X187086190Y-120784299D02*
X187086190Y-119784299D01*
X187086190Y-119784299D02*
X187181428Y-119927156D01*
X187181428Y-119927156D02*
X187276666Y-120022394D01*
X187276666Y-120022394D02*
X187371904Y-120070013D01*
X186419523Y-119879537D02*
X186371904Y-119831918D01*
X186371904Y-119831918D02*
X186276666Y-119784299D01*
X186276666Y-119784299D02*
X186038571Y-119784299D01*
X186038571Y-119784299D02*
X185943333Y-119831918D01*
X185943333Y-119831918D02*
X185895714Y-119879537D01*
X185895714Y-119879537D02*
X185848095Y-119974775D01*
X185848095Y-119974775D02*
X185848095Y-120070013D01*
X185848095Y-120070013D02*
X185895714Y-120212870D01*
X185895714Y-120212870D02*
X186467142Y-120784299D01*
X186467142Y-120784299D02*
X185848095Y-120784299D01*
D14*
G36*
X196744738Y-113985876D02*
G01*
X196742448Y-114037821D01*
X196732625Y-114088589D01*
X196721290Y-114112638D01*
X196679559Y-114142444D01*
X196642889Y-114147321D01*
X196594157Y-114134975D01*
X196586468Y-114129979D01*
X196554866Y-114091084D01*
X196552030Y-114084062D01*
X196543261Y-114032875D01*
X196541538Y-113983066D01*
X196541528Y-113978305D01*
X196541528Y-113925304D01*
X196744738Y-113925304D01*
X196744738Y-113985876D01*
G37*
G36*
X196901053Y-112524815D02*
G01*
X196854120Y-112503768D01*
X196814927Y-112470788D01*
X196799448Y-112451543D01*
X196775635Y-112408220D01*
X196762812Y-112359952D01*
X196760369Y-112325025D01*
X196765564Y-112273404D01*
X196781149Y-112226342D01*
X196804333Y-112187516D01*
X196842191Y-112151796D01*
X196884368Y-112126848D01*
X196901053Y-112118884D01*
X196901053Y-112524815D01*
G37*
G36*
X197182421Y-109720663D02*
G01*
X197180972Y-109774895D01*
X197175766Y-109828372D01*
X197165385Y-109877696D01*
X197152135Y-109911906D01*
X197123433Y-109953511D01*
X197086924Y-109986218D01*
X197049797Y-110009114D01*
X197001545Y-110029078D01*
X196952612Y-110040724D01*
X196898462Y-110046380D01*
X196872721Y-110046972D01*
X196814629Y-110043803D01*
X196761621Y-110034298D01*
X196713696Y-110018456D01*
X196664208Y-109991964D01*
X196621639Y-109956846D01*
X196590424Y-109916755D01*
X196566876Y-109867221D01*
X196552793Y-109817246D01*
X196544344Y-109760334D01*
X196541606Y-109707607D01*
X196541528Y-109696483D01*
X196541528Y-109631270D01*
X197182421Y-109631270D01*
X197182421Y-109720663D01*
G37*
G36*
X197496742Y-114491928D02*
G01*
X196211575Y-114491928D01*
X196211575Y-113937028D01*
X196353949Y-113937028D01*
X196354550Y-113978305D01*
X196354677Y-113987032D01*
X196357470Y-114040819D01*
X196363377Y-114094996D01*
X196373620Y-114145608D01*
X196383747Y-114175653D01*
X196408711Y-114221366D01*
X196442969Y-114260440D01*
X196482177Y-114290203D01*
X196527681Y-114313000D01*
X196578099Y-114327354D01*
X196627677Y-114333054D01*
X196645087Y-114333434D01*
X196698159Y-114329647D01*
X196746092Y-114318287D01*
X196793323Y-114296782D01*
X196810439Y-114285562D01*
X196848812Y-114251049D01*
X196880888Y-114207042D01*
X196904372Y-114159319D01*
X196911067Y-114141703D01*
X197370000Y-114380817D01*
X197370000Y-114170768D01*
X196932316Y-113943378D01*
X196932316Y-113925304D01*
X197370000Y-113925304D01*
X197370000Y-113733085D01*
X196353949Y-113733085D01*
X196353949Y-113937028D01*
X196211575Y-113937028D01*
X196211575Y-113141284D01*
X196604054Y-113141284D01*
X196611943Y-113190522D01*
X196622372Y-113217488D01*
X196776978Y-113159114D01*
X196760775Y-113111819D01*
X196760369Y-113104892D01*
X196779485Y-113058087D01*
X196814591Y-113031619D01*
X196864192Y-113014655D01*
X196915747Y-113006740D01*
X196971551Y-113002869D01*
X197027327Y-113001822D01*
X197064207Y-113002310D01*
X197370000Y-113002310D01*
X197370000Y-112816197D01*
X196619685Y-112816197D01*
X196619685Y-112976909D01*
X196712009Y-112976909D01*
X196670542Y-113003049D01*
X196635173Y-113040937D01*
X196631653Y-113046274D01*
X196610954Y-113091764D01*
X196604054Y-113141284D01*
X196211575Y-113141284D01*
X196211575Y-112315988D01*
X196604054Y-112315988D01*
X196604510Y-112325025D01*
X196606755Y-112369561D01*
X196614859Y-112419915D01*
X196628365Y-112467049D01*
X196651703Y-112519359D01*
X196682822Y-112567032D01*
X196714696Y-112603217D01*
X196758677Y-112640818D01*
X196807638Y-112670640D01*
X196861579Y-112692682D01*
X196910335Y-112705108D01*
X196962549Y-112712131D01*
X197006810Y-112713859D01*
X197041737Y-112713127D01*
X197041737Y-112110580D01*
X197092036Y-112122940D01*
X197139430Y-112146398D01*
X197178513Y-112180189D01*
X197207437Y-112222840D01*
X197224354Y-112272879D01*
X197229316Y-112324781D01*
X197224354Y-112375553D01*
X197209471Y-112422600D01*
X197184665Y-112465922D01*
X197149937Y-112505520D01*
X197223210Y-112663545D01*
X197262029Y-112632527D01*
X197299241Y-112594127D01*
X197329615Y-112552018D01*
X197346064Y-112521885D01*
X197365190Y-112473132D01*
X197376937Y-112425676D01*
X197383738Y-112374343D01*
X197385631Y-112326246D01*
X197382942Y-112272884D01*
X197374874Y-112222705D01*
X197361427Y-112175711D01*
X197338192Y-112123521D01*
X197307211Y-112075917D01*
X197275478Y-112039749D01*
X197232121Y-112002231D01*
X197184848Y-111972476D01*
X197133660Y-111950482D01*
X197078557Y-111936251D01*
X197029646Y-111930322D01*
X196998995Y-111929351D01*
X196947209Y-111932041D01*
X196898249Y-111940109D01*
X196843229Y-111956890D01*
X196792278Y-111981416D01*
X196745398Y-112013688D01*
X196716406Y-112039505D01*
X196678224Y-112082862D01*
X196647941Y-112130134D01*
X196625559Y-112181322D01*
X196611076Y-112236426D01*
X196605041Y-112285336D01*
X196604054Y-112315988D01*
X196211575Y-112315988D01*
X196211575Y-111291389D01*
X196619685Y-111291389D01*
X197062498Y-111480189D01*
X196619685Y-111668500D01*
X196619685Y-111858765D01*
X197370000Y-111540761D01*
X197370000Y-111419128D01*
X196619685Y-111100391D01*
X196619685Y-111291389D01*
X196211575Y-111291389D01*
X196211575Y-110919163D01*
X196322686Y-110919163D01*
X196332406Y-110967655D01*
X196357124Y-111003915D01*
X196397851Y-111031549D01*
X196440655Y-111039331D01*
X196490578Y-111028202D01*
X196510944Y-111013197D01*
X196619685Y-111013197D01*
X197370000Y-111013197D01*
X197370000Y-110825130D01*
X196619685Y-110825130D01*
X196619685Y-111013197D01*
X196510944Y-111013197D01*
X196523210Y-111004160D01*
X196550661Y-110960539D01*
X196557159Y-110920628D01*
X196547371Y-110871565D01*
X196522477Y-110835143D01*
X196481231Y-110807510D01*
X196437969Y-110799728D01*
X196388793Y-110810779D01*
X196356636Y-110834655D01*
X196330146Y-110876022D01*
X196322686Y-110919163D01*
X196211575Y-110919163D01*
X196211575Y-110679317D01*
X196604054Y-110679317D01*
X196611943Y-110728554D01*
X196622372Y-110755520D01*
X196776978Y-110697146D01*
X196760775Y-110649851D01*
X196760369Y-110642924D01*
X196779485Y-110596119D01*
X196814591Y-110569652D01*
X196864192Y-110552687D01*
X196915747Y-110544772D01*
X196971551Y-110540901D01*
X197027327Y-110539854D01*
X197064207Y-110540342D01*
X197370000Y-110540342D01*
X197370000Y-110354229D01*
X196619685Y-110354229D01*
X196619685Y-110514941D01*
X196712009Y-110514941D01*
X196670542Y-110541081D01*
X196635173Y-110578969D01*
X196631653Y-110584306D01*
X196610954Y-110629796D01*
X196604054Y-110679317D01*
X196211575Y-110679317D01*
X196211575Y-109667663D01*
X196353949Y-109667663D01*
X196354413Y-109696483D01*
X196354808Y-109721030D01*
X196357384Y-109770855D01*
X196363019Y-109828157D01*
X196371337Y-109879925D01*
X196384861Y-109934742D01*
X196402249Y-109981591D01*
X196408904Y-109995437D01*
X196436231Y-110040535D01*
X196470126Y-110082010D01*
X196510589Y-110119862D01*
X196550500Y-110149423D01*
X196587445Y-110172024D01*
X196635250Y-110195597D01*
X196685975Y-110214293D01*
X196739618Y-110228112D01*
X196796181Y-110237054D01*
X196845548Y-110240779D01*
X196876140Y-110241389D01*
X196926627Y-110239531D01*
X196975290Y-110233956D01*
X197028672Y-110223034D01*
X197079673Y-110207257D01*
X197092051Y-110202555D01*
X197139175Y-110181290D01*
X197182116Y-110156332D01*
X197225425Y-110123837D01*
X197255450Y-110095332D01*
X197288708Y-110055975D01*
X197315668Y-110014841D01*
X197338236Y-109967051D01*
X197345087Y-109947321D01*
X197357130Y-109893278D01*
X197363771Y-109838449D01*
X197367567Y-109782542D01*
X197369391Y-109729668D01*
X197370000Y-109671082D01*
X197370000Y-109439540D01*
X196353949Y-109439540D01*
X196353949Y-109667663D01*
X196211575Y-109667663D01*
X196211575Y-109328429D01*
X197496742Y-109328429D01*
X197496742Y-114491928D01*
G37*
G36*
X141295370Y-118194085D02*
G01*
X141348378Y-118203590D01*
X141396303Y-118219433D01*
X141445791Y-118245925D01*
X141488360Y-118281042D01*
X141519575Y-118321133D01*
X141543123Y-118370668D01*
X141557206Y-118420642D01*
X141565655Y-118477555D01*
X141568393Y-118530281D01*
X141568471Y-118541405D01*
X141568471Y-118606618D01*
X140927578Y-118606618D01*
X140927578Y-118517225D01*
X140929027Y-118462994D01*
X140934233Y-118409516D01*
X140944614Y-118360192D01*
X140957864Y-118325983D01*
X140986566Y-118284378D01*
X141023075Y-118251670D01*
X141060202Y-118228774D01*
X141108454Y-118208810D01*
X141157387Y-118197164D01*
X141211537Y-118191508D01*
X141237278Y-118190917D01*
X141295370Y-118194085D01*
G37*
G36*
X141168716Y-115492254D02*
G01*
X141219168Y-115508216D01*
X141262368Y-115535579D01*
X141273914Y-115546011D01*
X141305599Y-115585524D01*
X141325549Y-115631095D01*
X141333763Y-115682725D01*
X141333998Y-115693778D01*
X141328035Y-115745388D01*
X141310146Y-115791227D01*
X141280331Y-115831293D01*
X141272937Y-115838614D01*
X141231435Y-115869010D01*
X141183254Y-115888149D01*
X141134182Y-115895748D01*
X141116622Y-115896255D01*
X141065196Y-115891618D01*
X141014402Y-115875590D01*
X140970285Y-115848112D01*
X140958353Y-115837637D01*
X140925637Y-115798224D01*
X140905039Y-115753564D01*
X140896557Y-115703656D01*
X140896315Y-115693045D01*
X140902278Y-115640590D01*
X140920167Y-115594050D01*
X140949982Y-115553426D01*
X140957376Y-115546011D01*
X140999212Y-115515228D01*
X141048394Y-115495846D01*
X141098940Y-115488150D01*
X141117110Y-115487637D01*
X141168716Y-115492254D01*
G37*
G36*
X141168716Y-114120586D02*
G01*
X141219168Y-114136548D01*
X141262368Y-114163911D01*
X141273914Y-114174343D01*
X141305599Y-114213856D01*
X141325549Y-114259427D01*
X141333763Y-114311057D01*
X141333998Y-114322110D01*
X141328035Y-114373720D01*
X141310146Y-114419559D01*
X141280331Y-114459625D01*
X141272937Y-114466946D01*
X141231435Y-114497343D01*
X141183254Y-114516481D01*
X141134182Y-114524081D01*
X141116622Y-114524587D01*
X141065196Y-114519950D01*
X141014402Y-114503922D01*
X140970285Y-114476445D01*
X140958353Y-114465969D01*
X140925637Y-114426556D01*
X140905039Y-114381896D01*
X140896557Y-114331988D01*
X140896315Y-114321377D01*
X140902278Y-114268922D01*
X140920167Y-114222382D01*
X140949982Y-114181758D01*
X140957376Y-114174343D01*
X140999212Y-114143560D01*
X141048394Y-114124178D01*
X141098940Y-114116482D01*
X141117110Y-114115969D01*
X141168716Y-114120586D01*
G37*
G36*
X141882792Y-119725231D02*
G01*
X140456942Y-119725231D01*
X140456942Y-119289277D01*
X140724368Y-119289277D01*
X140727787Y-119341407D01*
X140738046Y-119390088D01*
X140757761Y-119440730D01*
X140779078Y-119477099D01*
X140810464Y-119515705D01*
X140849665Y-119551410D01*
X140890377Y-119580273D01*
X140937073Y-119606915D01*
X140951514Y-119614120D01*
X141052630Y-119452675D01*
X141004820Y-119424600D01*
X140961543Y-119389870D01*
X140928570Y-119347574D01*
X140912496Y-119296670D01*
X140911946Y-119284880D01*
X140920834Y-119234322D01*
X140940034Y-119201838D01*
X140981007Y-119172115D01*
X141005491Y-119168132D01*
X141053592Y-119181254D01*
X141072414Y-119193533D01*
X141108732Y-119227494D01*
X141143031Y-119266119D01*
X141175484Y-119305641D01*
X141207457Y-119345033D01*
X141244783Y-119389142D01*
X141279175Y-119427550D01*
X141316573Y-119466116D01*
X141354864Y-119500734D01*
X141378695Y-119518621D01*
X141423398Y-119543994D01*
X141472516Y-119561051D01*
X141521577Y-119566736D01*
X141571158Y-119561745D01*
X141622558Y-119544196D01*
X141664354Y-119517989D01*
X141697920Y-119486869D01*
X141730191Y-119444478D01*
X141753241Y-119397415D01*
X141767071Y-119345681D01*
X141771609Y-119296583D01*
X141771681Y-119289277D01*
X141767410Y-119238088D01*
X141754596Y-119188631D01*
X141735533Y-119145173D01*
X141707274Y-119101334D01*
X141671888Y-119060002D01*
X141632519Y-119021770D01*
X141604131Y-118997162D01*
X141474682Y-119139311D01*
X141517318Y-119172233D01*
X141553221Y-119210144D01*
X141577264Y-119253159D01*
X141584103Y-119291719D01*
X141572837Y-119340812D01*
X141564075Y-119353757D01*
X141520930Y-119377669D01*
X141519378Y-119377692D01*
X141472240Y-119360595D01*
X141436981Y-119326025D01*
X141404104Y-119289324D01*
X141368349Y-119247568D01*
X141344989Y-119219667D01*
X141313536Y-119181500D01*
X141278892Y-119140093D01*
X141244865Y-119100855D01*
X141231416Y-119086555D01*
X141192197Y-119050435D01*
X141150729Y-119020181D01*
X141120530Y-119003757D01*
X141072451Y-118987060D01*
X141020539Y-118979714D01*
X141005003Y-118979332D01*
X140953799Y-118983446D01*
X140900203Y-118998223D01*
X140851858Y-119023746D01*
X140813864Y-119054895D01*
X140803747Y-119065306D01*
X140772817Y-119105325D01*
X140749484Y-119150370D01*
X140733748Y-119200441D01*
X140725608Y-119255537D01*
X140724368Y-119289277D01*
X140456942Y-119289277D01*
X140456942Y-118566806D01*
X140740000Y-118566806D01*
X140740000Y-118798348D01*
X141756050Y-118798348D01*
X141756050Y-118570226D01*
X141755191Y-118516859D01*
X141752615Y-118467033D01*
X141746980Y-118409731D01*
X141738662Y-118357963D01*
X141725138Y-118303146D01*
X141707750Y-118256297D01*
X141701095Y-118242452D01*
X141673768Y-118197353D01*
X141639873Y-118155878D01*
X141599410Y-118118026D01*
X141559499Y-118088465D01*
X141522554Y-118065864D01*
X141474749Y-118042291D01*
X141424024Y-118023595D01*
X141370381Y-118009776D01*
X141313818Y-118000835D01*
X141264451Y-117997109D01*
X141233859Y-117996499D01*
X141183372Y-117998357D01*
X141134709Y-118003932D01*
X141081327Y-118014855D01*
X141030326Y-118030631D01*
X141017948Y-118035334D01*
X140970824Y-118056598D01*
X140927883Y-118081557D01*
X140884574Y-118114051D01*
X140854549Y-118142556D01*
X140821291Y-118181913D01*
X140794331Y-118223048D01*
X140771763Y-118270837D01*
X140764912Y-118290568D01*
X140752869Y-118344610D01*
X140746228Y-118399439D01*
X140742432Y-118455347D01*
X140740608Y-118508220D01*
X140740515Y-118517225D01*
X140740000Y-118566806D01*
X140456942Y-118566806D01*
X140456942Y-117942766D01*
X140568053Y-117942766D01*
X140630579Y-117942766D01*
X140630579Y-117222738D01*
X140568053Y-117222738D01*
X140568053Y-117942766D01*
X140456942Y-117942766D01*
X140456942Y-116633868D01*
X140724368Y-116633868D01*
X140726669Y-116691456D01*
X140733573Y-116746373D01*
X140745079Y-116798618D01*
X140761188Y-116848191D01*
X140781899Y-116895094D01*
X140807212Y-116939325D01*
X140837128Y-116980884D01*
X140871646Y-117019772D01*
X140909825Y-117054920D01*
X140950598Y-117085382D01*
X140993966Y-117111157D01*
X141039930Y-117132246D01*
X141088488Y-117148648D01*
X141139642Y-117160364D01*
X141193391Y-117167394D01*
X141249734Y-117169737D01*
X141304520Y-117167333D01*
X141356953Y-117160120D01*
X141407033Y-117148099D01*
X141454761Y-117131269D01*
X141500136Y-117109631D01*
X141514738Y-117101349D01*
X141556638Y-117073634D01*
X141595327Y-117041781D01*
X141630804Y-117005788D01*
X141663070Y-116965657D01*
X141692124Y-116921387D01*
X141701095Y-116905711D01*
X141725083Y-116857213D01*
X141744109Y-116807342D01*
X141758171Y-116756097D01*
X141767270Y-116703478D01*
X141771406Y-116649485D01*
X141771681Y-116631182D01*
X141769168Y-116576915D01*
X141761630Y-116523537D01*
X141749066Y-116471048D01*
X141731477Y-116419446D01*
X141719169Y-116390358D01*
X141694175Y-116341239D01*
X141664926Y-116295183D01*
X141631423Y-116252188D01*
X141593666Y-116212256D01*
X141570181Y-116190812D01*
X141442930Y-116325390D01*
X141483600Y-116369196D01*
X141517377Y-116414672D01*
X141544260Y-116461817D01*
X141564250Y-116510633D01*
X141577347Y-116561117D01*
X141583551Y-116613272D01*
X141584103Y-116634601D01*
X141580711Y-116687317D01*
X141570536Y-116736840D01*
X141553577Y-116783168D01*
X141529835Y-116826301D01*
X141499309Y-116866241D01*
X141487627Y-116878844D01*
X141449951Y-116912544D01*
X141401981Y-116943048D01*
X141349687Y-116964062D01*
X141301421Y-116974520D01*
X141249979Y-116978007D01*
X141196351Y-116974529D01*
X141146200Y-116964096D01*
X141099527Y-116946708D01*
X141075101Y-116934043D01*
X141030669Y-116903012D01*
X140992631Y-116864872D01*
X140963861Y-116824470D01*
X140955422Y-116809723D01*
X140934406Y-116763113D01*
X140920268Y-116713681D01*
X140913008Y-116661429D01*
X140911946Y-116631182D01*
X140914904Y-116580229D01*
X140923777Y-116532092D01*
X140940369Y-116482391D01*
X140942233Y-116478041D01*
X140966180Y-116433329D01*
X140996053Y-116390763D01*
X141029224Y-116351077D01*
X141053119Y-116325390D01*
X140917564Y-116194964D01*
X140879059Y-116236483D01*
X140845241Y-116277144D01*
X140816113Y-116316946D01*
X140788055Y-116362297D01*
X140766378Y-116406478D01*
X140747998Y-116458059D01*
X140736224Y-116506073D01*
X140728470Y-116556774D01*
X140724737Y-116610164D01*
X140724368Y-116633868D01*
X140456942Y-116633868D01*
X140456942Y-115726750D01*
X140724368Y-115726750D01*
X140728292Y-115779690D01*
X140740064Y-115829882D01*
X140759685Y-115877326D01*
X140787154Y-115922023D01*
X140822471Y-115963971D01*
X140835987Y-115977344D01*
X140879833Y-116013284D01*
X140927475Y-116041789D01*
X140978912Y-116062858D01*
X141034144Y-116076491D01*
X141083070Y-116082171D01*
X141113691Y-116083101D01*
X141165980Y-116080602D01*
X141215228Y-116073107D01*
X141270312Y-116057516D01*
X141321016Y-116034730D01*
X141367341Y-116004748D01*
X141395792Y-115980763D01*
X141433227Y-115940841D01*
X141462916Y-115897827D01*
X141484861Y-115851723D01*
X141499060Y-115802527D01*
X141505515Y-115750240D01*
X141505945Y-115732124D01*
X141502442Y-115682882D01*
X141490740Y-115632095D01*
X141481032Y-115605850D01*
X141456837Y-115559317D01*
X141427133Y-115519012D01*
X141406538Y-115496674D01*
X141490314Y-115496674D01*
X141490314Y-115309828D01*
X140740000Y-115309828D01*
X140740000Y-115496674D01*
X140821088Y-115496674D01*
X140789202Y-115534513D01*
X140762120Y-115575923D01*
X140747083Y-115607071D01*
X140731555Y-115657147D01*
X140726763Y-115693045D01*
X140724923Y-115706827D01*
X140724368Y-115726750D01*
X140456942Y-115726750D01*
X140456942Y-114982542D01*
X140740000Y-114982542D01*
X140740000Y-115168656D01*
X141490314Y-115168656D01*
X141490314Y-115007944D01*
X141397990Y-115007944D01*
X141439457Y-114981804D01*
X141474826Y-114943916D01*
X141478346Y-114938579D01*
X141499045Y-114893089D01*
X141505945Y-114843568D01*
X141498056Y-114794331D01*
X141487627Y-114767365D01*
X141333021Y-114825739D01*
X141349224Y-114873034D01*
X141349630Y-114879960D01*
X141330514Y-114926765D01*
X141295408Y-114953233D01*
X141245807Y-114970198D01*
X141194252Y-114978113D01*
X141138448Y-114981983D01*
X141082672Y-114983031D01*
X141045792Y-114982542D01*
X140740000Y-114982542D01*
X140456942Y-114982542D01*
X140456942Y-114355083D01*
X140724368Y-114355083D01*
X140728292Y-114408022D01*
X140740064Y-114458214D01*
X140759685Y-114505658D01*
X140787154Y-114550355D01*
X140822471Y-114592303D01*
X140835987Y-114605676D01*
X140879833Y-114641617D01*
X140927475Y-114670122D01*
X140978912Y-114691190D01*
X141034144Y-114704823D01*
X141083070Y-114710503D01*
X141113691Y-114711433D01*
X141165980Y-114708934D01*
X141215228Y-114701439D01*
X141270312Y-114685848D01*
X141321016Y-114663062D01*
X141367341Y-114633081D01*
X141395792Y-114609095D01*
X141433227Y-114569173D01*
X141462916Y-114526159D01*
X141484861Y-114480055D01*
X141499060Y-114430859D01*
X141505515Y-114378572D01*
X141505945Y-114360456D01*
X141502407Y-114311214D01*
X141490590Y-114260427D01*
X141480788Y-114234182D01*
X141456156Y-114187650D01*
X141425977Y-114147344D01*
X141405073Y-114125006D01*
X141771681Y-114125006D01*
X141771681Y-113938160D01*
X140740000Y-113938160D01*
X140740000Y-114125006D01*
X140821088Y-114125006D01*
X140789202Y-114162845D01*
X140762120Y-114204255D01*
X140747083Y-114235404D01*
X140731555Y-114285479D01*
X140726763Y-114321377D01*
X140724923Y-114335159D01*
X140724368Y-114355083D01*
X140456942Y-114355083D01*
X140456942Y-113827049D01*
X141882792Y-113827049D01*
X141882792Y-119725231D01*
G37*
D12*
X124822857Y-109229060D02*
X124870476Y-109276680D01*
X124870476Y-109276680D02*
X125013333Y-109324299D01*
X125013333Y-109324299D02*
X125108571Y-109324299D01*
X125108571Y-109324299D02*
X125251428Y-109276680D01*
X125251428Y-109276680D02*
X125346666Y-109181441D01*
X125346666Y-109181441D02*
X125394285Y-109086203D01*
X125394285Y-109086203D02*
X125441904Y-108895727D01*
X125441904Y-108895727D02*
X125441904Y-108752870D01*
X125441904Y-108752870D02*
X125394285Y-108562394D01*
X125394285Y-108562394D02*
X125346666Y-108467156D01*
X125346666Y-108467156D02*
X125251428Y-108371918D01*
X125251428Y-108371918D02*
X125108571Y-108324299D01*
X125108571Y-108324299D02*
X125013333Y-108324299D01*
X125013333Y-108324299D02*
X124870476Y-108371918D01*
X124870476Y-108371918D02*
X124822857Y-108419537D01*
X123870476Y-109324299D02*
X124441904Y-109324299D01*
X124156190Y-109324299D02*
X124156190Y-108324299D01*
X124156190Y-108324299D02*
X124251428Y-108467156D01*
X124251428Y-108467156D02*
X124346666Y-108562394D01*
X124346666Y-108562394D02*
X124441904Y-108610013D01*
X123537142Y-108324299D02*
X122918095Y-108324299D01*
X122918095Y-108324299D02*
X123251428Y-108705251D01*
X123251428Y-108705251D02*
X123108571Y-108705251D01*
X123108571Y-108705251D02*
X123013333Y-108752870D01*
X123013333Y-108752870D02*
X122965714Y-108800489D01*
X122965714Y-108800489D02*
X122918095Y-108895727D01*
X122918095Y-108895727D02*
X122918095Y-109133822D01*
X122918095Y-109133822D02*
X122965714Y-109229060D01*
X122965714Y-109229060D02*
X123013333Y-109276680D01*
X123013333Y-109276680D02*
X123108571Y-109324299D01*
X123108571Y-109324299D02*
X123394285Y-109324299D01*
X123394285Y-109324299D02*
X123489523Y-109276680D01*
X123489523Y-109276680D02*
X123537142Y-109229060D01*
X207939060Y-108527142D02*
X207986680Y-108479523D01*
X207986680Y-108479523D02*
X208034299Y-108336666D01*
X208034299Y-108336666D02*
X208034299Y-108241428D01*
X208034299Y-108241428D02*
X207986680Y-108098571D01*
X207986680Y-108098571D02*
X207891441Y-108003333D01*
X207891441Y-108003333D02*
X207796203Y-107955714D01*
X207796203Y-107955714D02*
X207605727Y-107908095D01*
X207605727Y-107908095D02*
X207462870Y-107908095D01*
X207462870Y-107908095D02*
X207272394Y-107955714D01*
X207272394Y-107955714D02*
X207177156Y-108003333D01*
X207177156Y-108003333D02*
X207081918Y-108098571D01*
X207081918Y-108098571D02*
X207034299Y-108241428D01*
X207034299Y-108241428D02*
X207034299Y-108336666D01*
X207034299Y-108336666D02*
X207081918Y-108479523D01*
X207081918Y-108479523D02*
X207129537Y-108527142D01*
X208034299Y-109479523D02*
X208034299Y-108908095D01*
X208034299Y-109193809D02*
X207034299Y-109193809D01*
X207034299Y-109193809D02*
X207177156Y-109098571D01*
X207177156Y-109098571D02*
X207272394Y-109003333D01*
X207272394Y-109003333D02*
X207320013Y-108908095D01*
X208034299Y-109955714D02*
X208034299Y-110146190D01*
X208034299Y-110146190D02*
X207986680Y-110241428D01*
X207986680Y-110241428D02*
X207939060Y-110289047D01*
X207939060Y-110289047D02*
X207796203Y-110384285D01*
X207796203Y-110384285D02*
X207605727Y-110431904D01*
X207605727Y-110431904D02*
X207224775Y-110431904D01*
X207224775Y-110431904D02*
X207129537Y-110384285D01*
X207129537Y-110384285D02*
X207081918Y-110336666D01*
X207081918Y-110336666D02*
X207034299Y-110241428D01*
X207034299Y-110241428D02*
X207034299Y-110050952D01*
X207034299Y-110050952D02*
X207081918Y-109955714D01*
X207081918Y-109955714D02*
X207129537Y-109908095D01*
X207129537Y-109908095D02*
X207224775Y-109860476D01*
X207224775Y-109860476D02*
X207462870Y-109860476D01*
X207462870Y-109860476D02*
X207558108Y-109908095D01*
X207558108Y-109908095D02*
X207605727Y-109955714D01*
X207605727Y-109955714D02*
X207653346Y-110050952D01*
X207653346Y-110050952D02*
X207653346Y-110241428D01*
X207653346Y-110241428D02*
X207605727Y-110336666D01*
X207605727Y-110336666D02*
X207558108Y-110384285D01*
X207558108Y-110384285D02*
X207462870Y-110431904D01*
X157546666Y-123744299D02*
X158022856Y-123744299D01*
X158022856Y-123744299D02*
X158022856Y-122744299D01*
X156689523Y-123744299D02*
X157260951Y-123744299D01*
X156975237Y-123744299D02*
X156975237Y-122744299D01*
X156975237Y-122744299D02*
X157070475Y-122887156D01*
X157070475Y-122887156D02*
X157165713Y-122982394D01*
X157165713Y-122982394D02*
X157260951Y-123030013D01*
X173586666Y-136769060D02*
X173634285Y-136816680D01*
X173634285Y-136816680D02*
X173777142Y-136864299D01*
X173777142Y-136864299D02*
X173872380Y-136864299D01*
X173872380Y-136864299D02*
X174015237Y-136816680D01*
X174015237Y-136816680D02*
X174110475Y-136721441D01*
X174110475Y-136721441D02*
X174158094Y-136626203D01*
X174158094Y-136626203D02*
X174205713Y-136435727D01*
X174205713Y-136435727D02*
X174205713Y-136292870D01*
X174205713Y-136292870D02*
X174158094Y-136102394D01*
X174158094Y-136102394D02*
X174110475Y-136007156D01*
X174110475Y-136007156D02*
X174015237Y-135911918D01*
X174015237Y-135911918D02*
X173872380Y-135864299D01*
X173872380Y-135864299D02*
X173777142Y-135864299D01*
X173777142Y-135864299D02*
X173634285Y-135911918D01*
X173634285Y-135911918D02*
X173586666Y-135959537D01*
X173205713Y-135959537D02*
X173158094Y-135911918D01*
X173158094Y-135911918D02*
X173062856Y-135864299D01*
X173062856Y-135864299D02*
X172824761Y-135864299D01*
X172824761Y-135864299D02*
X172729523Y-135911918D01*
X172729523Y-135911918D02*
X172681904Y-135959537D01*
X172681904Y-135959537D02*
X172634285Y-136054775D01*
X172634285Y-136054775D02*
X172634285Y-136150013D01*
X172634285Y-136150013D02*
X172681904Y-136292870D01*
X172681904Y-136292870D02*
X173253332Y-136864299D01*
X173253332Y-136864299D02*
X172634285Y-136864299D01*
X161015238Y-137959537D02*
X161110476Y-137911918D01*
X161110476Y-137911918D02*
X161205714Y-137816680D01*
X161205714Y-137816680D02*
X161348571Y-137673822D01*
X161348571Y-137673822D02*
X161443809Y-137626203D01*
X161443809Y-137626203D02*
X161539047Y-137626203D01*
X161491428Y-137864299D02*
X161586666Y-137816680D01*
X161586666Y-137816680D02*
X161681904Y-137721441D01*
X161681904Y-137721441D02*
X161729523Y-137530965D01*
X161729523Y-137530965D02*
X161729523Y-137197632D01*
X161729523Y-137197632D02*
X161681904Y-137007156D01*
X161681904Y-137007156D02*
X161586666Y-136911918D01*
X161586666Y-136911918D02*
X161491428Y-136864299D01*
X161491428Y-136864299D02*
X161300952Y-136864299D01*
X161300952Y-136864299D02*
X161205714Y-136911918D01*
X161205714Y-136911918D02*
X161110476Y-137007156D01*
X161110476Y-137007156D02*
X161062857Y-137197632D01*
X161062857Y-137197632D02*
X161062857Y-137530965D01*
X161062857Y-137530965D02*
X161110476Y-137721441D01*
X161110476Y-137721441D02*
X161205714Y-137816680D01*
X161205714Y-137816680D02*
X161300952Y-137864299D01*
X161300952Y-137864299D02*
X161491428Y-137864299D01*
X160110476Y-137864299D02*
X160681904Y-137864299D01*
X160396190Y-137864299D02*
X160396190Y-136864299D01*
X160396190Y-136864299D02*
X160491428Y-137007156D01*
X160491428Y-137007156D02*
X160586666Y-137102394D01*
X160586666Y-137102394D02*
X160681904Y-137150013D01*
X173486666Y-138269060D02*
X173534285Y-138316680D01*
X173534285Y-138316680D02*
X173677142Y-138364299D01*
X173677142Y-138364299D02*
X173772380Y-138364299D01*
X173772380Y-138364299D02*
X173915237Y-138316680D01*
X173915237Y-138316680D02*
X174010475Y-138221441D01*
X174010475Y-138221441D02*
X174058094Y-138126203D01*
X174058094Y-138126203D02*
X174105713Y-137935727D01*
X174105713Y-137935727D02*
X174105713Y-137792870D01*
X174105713Y-137792870D02*
X174058094Y-137602394D01*
X174058094Y-137602394D02*
X174010475Y-137507156D01*
X174010475Y-137507156D02*
X173915237Y-137411918D01*
X173915237Y-137411918D02*
X173772380Y-137364299D01*
X173772380Y-137364299D02*
X173677142Y-137364299D01*
X173677142Y-137364299D02*
X173534285Y-137411918D01*
X173534285Y-137411918D02*
X173486666Y-137459537D01*
X172534285Y-138364299D02*
X173105713Y-138364299D01*
X172819999Y-138364299D02*
X172819999Y-137364299D01*
X172819999Y-137364299D02*
X172915237Y-137507156D01*
X172915237Y-137507156D02*
X173010475Y-137602394D01*
X173010475Y-137602394D02*
X173105713Y-137650013D01*
X121459088Y-147613387D02*
X121358073Y-147040967D01*
X121863149Y-147209326D02*
X121156042Y-146502219D01*
X121156042Y-146502219D02*
X120886668Y-146771593D01*
X120886668Y-146771593D02*
X120852997Y-146872608D01*
X120852997Y-146872608D02*
X120852997Y-146939952D01*
X120852997Y-146939952D02*
X120886668Y-147040967D01*
X120886668Y-147040967D02*
X120987684Y-147141982D01*
X120987684Y-147141982D02*
X121088699Y-147175654D01*
X121088699Y-147175654D02*
X121156042Y-147175654D01*
X121156042Y-147175654D02*
X121257058Y-147141982D01*
X121257058Y-147141982D02*
X121526432Y-146872608D01*
X120516279Y-147141982D02*
X120078546Y-147579715D01*
X120078546Y-147579715D02*
X120583623Y-147613387D01*
X120583623Y-147613387D02*
X120482607Y-147714402D01*
X120482607Y-147714402D02*
X120448936Y-147815417D01*
X120448936Y-147815417D02*
X120448936Y-147882761D01*
X120448936Y-147882761D02*
X120482607Y-147983776D01*
X120482607Y-147983776D02*
X120650966Y-148152135D01*
X120650966Y-148152135D02*
X120751981Y-148185806D01*
X120751981Y-148185806D02*
X120819325Y-148185806D01*
X120819325Y-148185806D02*
X120920340Y-148152135D01*
X120920340Y-148152135D02*
X121122371Y-147950104D01*
X121122371Y-147950104D02*
X121156042Y-147849089D01*
X121156042Y-147849089D02*
X121156042Y-147781745D01*
X201453330Y-146435806D02*
X202025750Y-146334791D01*
X201857391Y-146839867D02*
X202564498Y-146132760D01*
X202564498Y-146132760D02*
X202295124Y-145863386D01*
X202295124Y-145863386D02*
X202194109Y-145829715D01*
X202194109Y-145829715D02*
X202126765Y-145829715D01*
X202126765Y-145829715D02*
X202025750Y-145863386D01*
X202025750Y-145863386D02*
X201924735Y-145964402D01*
X201924735Y-145964402D02*
X201891063Y-146065417D01*
X201891063Y-146065417D02*
X201891063Y-146132760D01*
X201891063Y-146132760D02*
X201924735Y-146233776D01*
X201924735Y-146233776D02*
X202194109Y-146503150D01*
X201823720Y-145526669D02*
X201823720Y-145459325D01*
X201823720Y-145459325D02*
X201790048Y-145358310D01*
X201790048Y-145358310D02*
X201621689Y-145189951D01*
X201621689Y-145189951D02*
X201520674Y-145156280D01*
X201520674Y-145156280D02*
X201453330Y-145156280D01*
X201453330Y-145156280D02*
X201352315Y-145189951D01*
X201352315Y-145189951D02*
X201284971Y-145257295D01*
X201284971Y-145257295D02*
X201217628Y-145391982D01*
X201217628Y-145391982D02*
X201217628Y-146200104D01*
X201217628Y-146200104D02*
X200779895Y-145762371D01*
X201049269Y-144617532D02*
X200981926Y-144550188D01*
X200981926Y-144550188D02*
X200880910Y-144516516D01*
X200880910Y-144516516D02*
X200813567Y-144516516D01*
X200813567Y-144516516D02*
X200712552Y-144550188D01*
X200712552Y-144550188D02*
X200544193Y-144651203D01*
X200544193Y-144651203D02*
X200375834Y-144819562D01*
X200375834Y-144819562D02*
X200274819Y-144987921D01*
X200274819Y-144987921D02*
X200241147Y-145088936D01*
X200241147Y-145088936D02*
X200241147Y-145156280D01*
X200241147Y-145156280D02*
X200274819Y-145257295D01*
X200274819Y-145257295D02*
X200342162Y-145324638D01*
X200342162Y-145324638D02*
X200443178Y-145358310D01*
X200443178Y-145358310D02*
X200510521Y-145358310D01*
X200510521Y-145358310D02*
X200611536Y-145324638D01*
X200611536Y-145324638D02*
X200779895Y-145223623D01*
X200779895Y-145223623D02*
X200948254Y-145055264D01*
X200948254Y-145055264D02*
X201049269Y-144886906D01*
X201049269Y-144886906D02*
X201082941Y-144785890D01*
X201082941Y-144785890D02*
X201082941Y-144718547D01*
X201082941Y-144718547D02*
X201049269Y-144617532D01*
X168462857Y-140114299D02*
X168796190Y-139638108D01*
X169034285Y-140114299D02*
X169034285Y-139114299D01*
X169034285Y-139114299D02*
X168653333Y-139114299D01*
X168653333Y-139114299D02*
X168558095Y-139161918D01*
X168558095Y-139161918D02*
X168510476Y-139209537D01*
X168510476Y-139209537D02*
X168462857Y-139304775D01*
X168462857Y-139304775D02*
X168462857Y-139447632D01*
X168462857Y-139447632D02*
X168510476Y-139542870D01*
X168510476Y-139542870D02*
X168558095Y-139590489D01*
X168558095Y-139590489D02*
X168653333Y-139638108D01*
X168653333Y-139638108D02*
X169034285Y-139638108D01*
X168081904Y-139209537D02*
X168034285Y-139161918D01*
X168034285Y-139161918D02*
X167939047Y-139114299D01*
X167939047Y-139114299D02*
X167700952Y-139114299D01*
X167700952Y-139114299D02*
X167605714Y-139161918D01*
X167605714Y-139161918D02*
X167558095Y-139209537D01*
X167558095Y-139209537D02*
X167510476Y-139304775D01*
X167510476Y-139304775D02*
X167510476Y-139400013D01*
X167510476Y-139400013D02*
X167558095Y-139542870D01*
X167558095Y-139542870D02*
X168129523Y-140114299D01*
X168129523Y-140114299D02*
X167510476Y-140114299D01*
X166558095Y-140114299D02*
X167129523Y-140114299D01*
X166843809Y-140114299D02*
X166843809Y-139114299D01*
X166843809Y-139114299D02*
X166939047Y-139257156D01*
X166939047Y-139257156D02*
X167034285Y-139352394D01*
X167034285Y-139352394D02*
X167129523Y-139400013D01*
X154962857Y-135264299D02*
X155296190Y-134788108D01*
X155534285Y-135264299D02*
X155534285Y-134264299D01*
X155534285Y-134264299D02*
X155153333Y-134264299D01*
X155153333Y-134264299D02*
X155058095Y-134311918D01*
X155058095Y-134311918D02*
X155010476Y-134359537D01*
X155010476Y-134359537D02*
X154962857Y-134454775D01*
X154962857Y-134454775D02*
X154962857Y-134597632D01*
X154962857Y-134597632D02*
X155010476Y-134692870D01*
X155010476Y-134692870D02*
X155058095Y-134740489D01*
X155058095Y-134740489D02*
X155153333Y-134788108D01*
X155153333Y-134788108D02*
X155534285Y-134788108D01*
X154010476Y-135264299D02*
X154581904Y-135264299D01*
X154296190Y-135264299D02*
X154296190Y-134264299D01*
X154296190Y-134264299D02*
X154391428Y-134407156D01*
X154391428Y-134407156D02*
X154486666Y-134502394D01*
X154486666Y-134502394D02*
X154581904Y-134550013D01*
X153677142Y-134264299D02*
X153010476Y-134264299D01*
X153010476Y-134264299D02*
X153439047Y-135264299D01*
X168962857Y-130664299D02*
X169296190Y-130188108D01*
X169534285Y-130664299D02*
X169534285Y-129664299D01*
X169534285Y-129664299D02*
X169153333Y-129664299D01*
X169153333Y-129664299D02*
X169058095Y-129711918D01*
X169058095Y-129711918D02*
X169010476Y-129759537D01*
X169010476Y-129759537D02*
X168962857Y-129854775D01*
X168962857Y-129854775D02*
X168962857Y-129997632D01*
X168962857Y-129997632D02*
X169010476Y-130092870D01*
X169010476Y-130092870D02*
X169058095Y-130140489D01*
X169058095Y-130140489D02*
X169153333Y-130188108D01*
X169153333Y-130188108D02*
X169534285Y-130188108D01*
X168010476Y-130664299D02*
X168581904Y-130664299D01*
X168296190Y-130664299D02*
X168296190Y-129664299D01*
X168296190Y-129664299D02*
X168391428Y-129807156D01*
X168391428Y-129807156D02*
X168486666Y-129902394D01*
X168486666Y-129902394D02*
X168581904Y-129950013D01*
X167629523Y-129759537D02*
X167581904Y-129711918D01*
X167581904Y-129711918D02*
X167486666Y-129664299D01*
X167486666Y-129664299D02*
X167248571Y-129664299D01*
X167248571Y-129664299D02*
X167153333Y-129711918D01*
X167153333Y-129711918D02*
X167105714Y-129759537D01*
X167105714Y-129759537D02*
X167058095Y-129854775D01*
X167058095Y-129854775D02*
X167058095Y-129950013D01*
X167058095Y-129950013D02*
X167105714Y-130092870D01*
X167105714Y-130092870D02*
X167677142Y-130664299D01*
X167677142Y-130664299D02*
X167058095Y-130664299D01*
X126486666Y-136964299D02*
X126819999Y-136488108D01*
X127058094Y-136964299D02*
X127058094Y-135964299D01*
X127058094Y-135964299D02*
X126677142Y-135964299D01*
X126677142Y-135964299D02*
X126581904Y-136011918D01*
X126581904Y-136011918D02*
X126534285Y-136059537D01*
X126534285Y-136059537D02*
X126486666Y-136154775D01*
X126486666Y-136154775D02*
X126486666Y-136297632D01*
X126486666Y-136297632D02*
X126534285Y-136392870D01*
X126534285Y-136392870D02*
X126581904Y-136440489D01*
X126581904Y-136440489D02*
X126677142Y-136488108D01*
X126677142Y-136488108D02*
X127058094Y-136488108D01*
X125629523Y-136297632D02*
X125629523Y-136964299D01*
X125867618Y-135916680D02*
X126105713Y-136630965D01*
X126105713Y-136630965D02*
X125486666Y-136630965D01*
X154962857Y-133269060D02*
X155010476Y-133316680D01*
X155010476Y-133316680D02*
X155153333Y-133364299D01*
X155153333Y-133364299D02*
X155248571Y-133364299D01*
X155248571Y-133364299D02*
X155391428Y-133316680D01*
X155391428Y-133316680D02*
X155486666Y-133221441D01*
X155486666Y-133221441D02*
X155534285Y-133126203D01*
X155534285Y-133126203D02*
X155581904Y-132935727D01*
X155581904Y-132935727D02*
X155581904Y-132792870D01*
X155581904Y-132792870D02*
X155534285Y-132602394D01*
X155534285Y-132602394D02*
X155486666Y-132507156D01*
X155486666Y-132507156D02*
X155391428Y-132411918D01*
X155391428Y-132411918D02*
X155248571Y-132364299D01*
X155248571Y-132364299D02*
X155153333Y-132364299D01*
X155153333Y-132364299D02*
X155010476Y-132411918D01*
X155010476Y-132411918D02*
X154962857Y-132459537D01*
X154010476Y-133364299D02*
X154581904Y-133364299D01*
X154296190Y-133364299D02*
X154296190Y-132364299D01*
X154296190Y-132364299D02*
X154391428Y-132507156D01*
X154391428Y-132507156D02*
X154486666Y-132602394D01*
X154486666Y-132602394D02*
X154581904Y-132650013D01*
X153058095Y-133364299D02*
X153629523Y-133364299D01*
X153343809Y-133364299D02*
X153343809Y-132364299D01*
X153343809Y-132364299D02*
X153439047Y-132507156D01*
X153439047Y-132507156D02*
X153534285Y-132602394D01*
X153534285Y-132602394D02*
X153629523Y-132650013D01*
X183486666Y-135069060D02*
X183534285Y-135116680D01*
X183534285Y-135116680D02*
X183677142Y-135164299D01*
X183677142Y-135164299D02*
X183772380Y-135164299D01*
X183772380Y-135164299D02*
X183915237Y-135116680D01*
X183915237Y-135116680D02*
X184010475Y-135021441D01*
X184010475Y-135021441D02*
X184058094Y-134926203D01*
X184058094Y-134926203D02*
X184105713Y-134735727D01*
X184105713Y-134735727D02*
X184105713Y-134592870D01*
X184105713Y-134592870D02*
X184058094Y-134402394D01*
X184058094Y-134402394D02*
X184010475Y-134307156D01*
X184010475Y-134307156D02*
X183915237Y-134211918D01*
X183915237Y-134211918D02*
X183772380Y-134164299D01*
X183772380Y-134164299D02*
X183677142Y-134164299D01*
X183677142Y-134164299D02*
X183534285Y-134211918D01*
X183534285Y-134211918D02*
X183486666Y-134259537D01*
X183153332Y-134164299D02*
X182486666Y-134164299D01*
X182486666Y-134164299D02*
X182915237Y-135164299D01*
X147236666Y-135364299D02*
X147569999Y-134888108D01*
X147808094Y-135364299D02*
X147808094Y-134364299D01*
X147808094Y-134364299D02*
X147427142Y-134364299D01*
X147427142Y-134364299D02*
X147331904Y-134411918D01*
X147331904Y-134411918D02*
X147284285Y-134459537D01*
X147284285Y-134459537D02*
X147236666Y-134554775D01*
X147236666Y-134554775D02*
X147236666Y-134697632D01*
X147236666Y-134697632D02*
X147284285Y-134792870D01*
X147284285Y-134792870D02*
X147331904Y-134840489D01*
X147331904Y-134840489D02*
X147427142Y-134888108D01*
X147427142Y-134888108D02*
X147808094Y-134888108D01*
X146331904Y-134364299D02*
X146808094Y-134364299D01*
X146808094Y-134364299D02*
X146855713Y-134840489D01*
X146855713Y-134840489D02*
X146808094Y-134792870D01*
X146808094Y-134792870D02*
X146712856Y-134745251D01*
X146712856Y-134745251D02*
X146474761Y-134745251D01*
X146474761Y-134745251D02*
X146379523Y-134792870D01*
X146379523Y-134792870D02*
X146331904Y-134840489D01*
X146331904Y-134840489D02*
X146284285Y-134935727D01*
X146284285Y-134935727D02*
X146284285Y-135173822D01*
X146284285Y-135173822D02*
X146331904Y-135269060D01*
X146331904Y-135269060D02*
X146379523Y-135316680D01*
X146379523Y-135316680D02*
X146474761Y-135364299D01*
X146474761Y-135364299D02*
X146712856Y-135364299D01*
X146712856Y-135364299D02*
X146808094Y-135316680D01*
X146808094Y-135316680D02*
X146855713Y-135269060D01*
X164486666Y-133269060D02*
X164534285Y-133316680D01*
X164534285Y-133316680D02*
X164677142Y-133364299D01*
X164677142Y-133364299D02*
X164772380Y-133364299D01*
X164772380Y-133364299D02*
X164915237Y-133316680D01*
X164915237Y-133316680D02*
X165010475Y-133221441D01*
X165010475Y-133221441D02*
X165058094Y-133126203D01*
X165058094Y-133126203D02*
X165105713Y-132935727D01*
X165105713Y-132935727D02*
X165105713Y-132792870D01*
X165105713Y-132792870D02*
X165058094Y-132602394D01*
X165058094Y-132602394D02*
X165010475Y-132507156D01*
X165010475Y-132507156D02*
X164915237Y-132411918D01*
X164915237Y-132411918D02*
X164772380Y-132364299D01*
X164772380Y-132364299D02*
X164677142Y-132364299D01*
X164677142Y-132364299D02*
X164534285Y-132411918D01*
X164534285Y-132411918D02*
X164486666Y-132459537D01*
X163629523Y-132364299D02*
X163819999Y-132364299D01*
X163819999Y-132364299D02*
X163915237Y-132411918D01*
X163915237Y-132411918D02*
X163962856Y-132459537D01*
X163962856Y-132459537D02*
X164058094Y-132602394D01*
X164058094Y-132602394D02*
X164105713Y-132792870D01*
X164105713Y-132792870D02*
X164105713Y-133173822D01*
X164105713Y-133173822D02*
X164058094Y-133269060D01*
X164058094Y-133269060D02*
X164010475Y-133316680D01*
X164010475Y-133316680D02*
X163915237Y-133364299D01*
X163915237Y-133364299D02*
X163724761Y-133364299D01*
X163724761Y-133364299D02*
X163629523Y-133316680D01*
X163629523Y-133316680D02*
X163581904Y-133269060D01*
X163581904Y-133269060D02*
X163534285Y-133173822D01*
X163534285Y-133173822D02*
X163534285Y-132935727D01*
X163534285Y-132935727D02*
X163581904Y-132840489D01*
X163581904Y-132840489D02*
X163629523Y-132792870D01*
X163629523Y-132792870D02*
X163724761Y-132745251D01*
X163724761Y-132745251D02*
X163915237Y-132745251D01*
X163915237Y-132745251D02*
X164010475Y-132792870D01*
X164010475Y-132792870D02*
X164058094Y-132840489D01*
X164058094Y-132840489D02*
X164105713Y-132935727D01*
X188212857Y-132939299D02*
X188546190Y-132463108D01*
X188784285Y-132939299D02*
X188784285Y-131939299D01*
X188784285Y-131939299D02*
X188403333Y-131939299D01*
X188403333Y-131939299D02*
X188308095Y-131986918D01*
X188308095Y-131986918D02*
X188260476Y-132034537D01*
X188260476Y-132034537D02*
X188212857Y-132129775D01*
X188212857Y-132129775D02*
X188212857Y-132272632D01*
X188212857Y-132272632D02*
X188260476Y-132367870D01*
X188260476Y-132367870D02*
X188308095Y-132415489D01*
X188308095Y-132415489D02*
X188403333Y-132463108D01*
X188403333Y-132463108D02*
X188784285Y-132463108D01*
X187260476Y-132939299D02*
X187831904Y-132939299D01*
X187546190Y-132939299D02*
X187546190Y-131939299D01*
X187546190Y-131939299D02*
X187641428Y-132082156D01*
X187641428Y-132082156D02*
X187736666Y-132177394D01*
X187736666Y-132177394D02*
X187831904Y-132225013D01*
X186927142Y-131939299D02*
X186308095Y-131939299D01*
X186308095Y-131939299D02*
X186641428Y-132320251D01*
X186641428Y-132320251D02*
X186498571Y-132320251D01*
X186498571Y-132320251D02*
X186403333Y-132367870D01*
X186403333Y-132367870D02*
X186355714Y-132415489D01*
X186355714Y-132415489D02*
X186308095Y-132510727D01*
X186308095Y-132510727D02*
X186308095Y-132748822D01*
X186308095Y-132748822D02*
X186355714Y-132844060D01*
X186355714Y-132844060D02*
X186403333Y-132891680D01*
X186403333Y-132891680D02*
X186498571Y-132939299D01*
X186498571Y-132939299D02*
X186784285Y-132939299D01*
X186784285Y-132939299D02*
X186879523Y-132891680D01*
X186879523Y-132891680D02*
X186927142Y-132844060D01*
X192962857Y-136864299D02*
X193296190Y-136388108D01*
X193534285Y-136864299D02*
X193534285Y-135864299D01*
X193534285Y-135864299D02*
X193153333Y-135864299D01*
X193153333Y-135864299D02*
X193058095Y-135911918D01*
X193058095Y-135911918D02*
X193010476Y-135959537D01*
X193010476Y-135959537D02*
X192962857Y-136054775D01*
X192962857Y-136054775D02*
X192962857Y-136197632D01*
X192962857Y-136197632D02*
X193010476Y-136292870D01*
X193010476Y-136292870D02*
X193058095Y-136340489D01*
X193058095Y-136340489D02*
X193153333Y-136388108D01*
X193153333Y-136388108D02*
X193534285Y-136388108D01*
X192010476Y-136864299D02*
X192581904Y-136864299D01*
X192296190Y-136864299D02*
X192296190Y-135864299D01*
X192296190Y-135864299D02*
X192391428Y-136007156D01*
X192391428Y-136007156D02*
X192486666Y-136102394D01*
X192486666Y-136102394D02*
X192581904Y-136150013D01*
X191534285Y-136864299D02*
X191343809Y-136864299D01*
X191343809Y-136864299D02*
X191248571Y-136816680D01*
X191248571Y-136816680D02*
X191200952Y-136769060D01*
X191200952Y-136769060D02*
X191105714Y-136626203D01*
X191105714Y-136626203D02*
X191058095Y-136435727D01*
X191058095Y-136435727D02*
X191058095Y-136054775D01*
X191058095Y-136054775D02*
X191105714Y-135959537D01*
X191105714Y-135959537D02*
X191153333Y-135911918D01*
X191153333Y-135911918D02*
X191248571Y-135864299D01*
X191248571Y-135864299D02*
X191439047Y-135864299D01*
X191439047Y-135864299D02*
X191534285Y-135911918D01*
X191534285Y-135911918D02*
X191581904Y-135959537D01*
X191581904Y-135959537D02*
X191629523Y-136054775D01*
X191629523Y-136054775D02*
X191629523Y-136292870D01*
X191629523Y-136292870D02*
X191581904Y-136388108D01*
X191581904Y-136388108D02*
X191534285Y-136435727D01*
X191534285Y-136435727D02*
X191439047Y-136483346D01*
X191439047Y-136483346D02*
X191248571Y-136483346D01*
X191248571Y-136483346D02*
X191153333Y-136435727D01*
X191153333Y-136435727D02*
X191105714Y-136388108D01*
X191105714Y-136388108D02*
X191058095Y-136292870D01*
X150212857Y-130864299D02*
X150546190Y-130388108D01*
X150784285Y-130864299D02*
X150784285Y-129864299D01*
X150784285Y-129864299D02*
X150403333Y-129864299D01*
X150403333Y-129864299D02*
X150308095Y-129911918D01*
X150308095Y-129911918D02*
X150260476Y-129959537D01*
X150260476Y-129959537D02*
X150212857Y-130054775D01*
X150212857Y-130054775D02*
X150212857Y-130197632D01*
X150212857Y-130197632D02*
X150260476Y-130292870D01*
X150260476Y-130292870D02*
X150308095Y-130340489D01*
X150308095Y-130340489D02*
X150403333Y-130388108D01*
X150403333Y-130388108D02*
X150784285Y-130388108D01*
X149260476Y-130864299D02*
X149831904Y-130864299D01*
X149546190Y-130864299D02*
X149546190Y-129864299D01*
X149546190Y-129864299D02*
X149641428Y-130007156D01*
X149641428Y-130007156D02*
X149736666Y-130102394D01*
X149736666Y-130102394D02*
X149831904Y-130150013D01*
X148308095Y-130864299D02*
X148879523Y-130864299D01*
X148593809Y-130864299D02*
X148593809Y-129864299D01*
X148593809Y-129864299D02*
X148689047Y-130007156D01*
X148689047Y-130007156D02*
X148784285Y-130102394D01*
X148784285Y-130102394D02*
X148879523Y-130150013D01*
X114441745Y-149796043D02*
X114509088Y-149796043D01*
X114509088Y-149796043D02*
X114643775Y-149728700D01*
X114643775Y-149728700D02*
X114711119Y-149661356D01*
X114711119Y-149661356D02*
X114778462Y-149526669D01*
X114778462Y-149526669D02*
X114778462Y-149391982D01*
X114778462Y-149391982D02*
X114744790Y-149290967D01*
X114744790Y-149290967D02*
X114643775Y-149122608D01*
X114643775Y-149122608D02*
X114542760Y-149021593D01*
X114542760Y-149021593D02*
X114374401Y-148920578D01*
X114374401Y-148920578D02*
X114273386Y-148886906D01*
X114273386Y-148886906D02*
X114138699Y-148886906D01*
X114138699Y-148886906D02*
X114004012Y-148954249D01*
X114004012Y-148954249D02*
X113936668Y-149021593D01*
X113936668Y-149021593D02*
X113869325Y-149156280D01*
X113869325Y-149156280D02*
X113869325Y-149223623D01*
X113566279Y-149391982D02*
X113128546Y-149829715D01*
X113128546Y-149829715D02*
X113633623Y-149863387D01*
X113633623Y-149863387D02*
X113532607Y-149964402D01*
X113532607Y-149964402D02*
X113498936Y-150065417D01*
X113498936Y-150065417D02*
X113498936Y-150132761D01*
X113498936Y-150132761D02*
X113532607Y-150233776D01*
X113532607Y-150233776D02*
X113700966Y-150402135D01*
X113700966Y-150402135D02*
X113801981Y-150435806D01*
X113801981Y-150435806D02*
X113869325Y-150435806D01*
X113869325Y-150435806D02*
X113970340Y-150402135D01*
X113970340Y-150402135D02*
X114172371Y-150200104D01*
X114172371Y-150200104D02*
X114206042Y-150099089D01*
X114206042Y-150099089D02*
X114206042Y-150031745D01*
X126270806Y-142601669D02*
X126169791Y-142029249D01*
X126674867Y-142197608D02*
X125967760Y-141490501D01*
X125967760Y-141490501D02*
X125698386Y-141759875D01*
X125698386Y-141759875D02*
X125664715Y-141860890D01*
X125664715Y-141860890D02*
X125664715Y-141928234D01*
X125664715Y-141928234D02*
X125698386Y-142029249D01*
X125698386Y-142029249D02*
X125799402Y-142130264D01*
X125799402Y-142130264D02*
X125900417Y-142163936D01*
X125900417Y-142163936D02*
X125967760Y-142163936D01*
X125967760Y-142163936D02*
X126068776Y-142130264D01*
X126068776Y-142130264D02*
X126338150Y-141860890D01*
X125597371Y-143275104D02*
X126001432Y-142871043D01*
X125799402Y-143073073D02*
X125092295Y-142365966D01*
X125092295Y-142365966D02*
X125260654Y-142399638D01*
X125260654Y-142399638D02*
X125395341Y-142399638D01*
X125395341Y-142399638D02*
X125496356Y-142365966D01*
X124250501Y-143207760D02*
X124587219Y-142871043D01*
X124587219Y-142871043D02*
X124957608Y-143174089D01*
X124957608Y-143174089D02*
X124890264Y-143174089D01*
X124890264Y-143174089D02*
X124789249Y-143207760D01*
X124789249Y-143207760D02*
X124620890Y-143376119D01*
X124620890Y-143376119D02*
X124587219Y-143477134D01*
X124587219Y-143477134D02*
X124587219Y-143544478D01*
X124587219Y-143544478D02*
X124620890Y-143645493D01*
X124620890Y-143645493D02*
X124789249Y-143813852D01*
X124789249Y-143813852D02*
X124890264Y-143847524D01*
X124890264Y-143847524D02*
X124957608Y-143847524D01*
X124957608Y-143847524D02*
X125058623Y-143813852D01*
X125058623Y-143813852D02*
X125226982Y-143645493D01*
X125226982Y-143645493D02*
X125260654Y-143544478D01*
X125260654Y-143544478D02*
X125260654Y-143477134D01*
X135962857Y-135269060D02*
X136010476Y-135316680D01*
X136010476Y-135316680D02*
X136153333Y-135364299D01*
X136153333Y-135364299D02*
X136248571Y-135364299D01*
X136248571Y-135364299D02*
X136391428Y-135316680D01*
X136391428Y-135316680D02*
X136486666Y-135221441D01*
X136486666Y-135221441D02*
X136534285Y-135126203D01*
X136534285Y-135126203D02*
X136581904Y-134935727D01*
X136581904Y-134935727D02*
X136581904Y-134792870D01*
X136581904Y-134792870D02*
X136534285Y-134602394D01*
X136534285Y-134602394D02*
X136486666Y-134507156D01*
X136486666Y-134507156D02*
X136391428Y-134411918D01*
X136391428Y-134411918D02*
X136248571Y-134364299D01*
X136248571Y-134364299D02*
X136153333Y-134364299D01*
X136153333Y-134364299D02*
X136010476Y-134411918D01*
X136010476Y-134411918D02*
X135962857Y-134459537D01*
X135010476Y-135364299D02*
X135581904Y-135364299D01*
X135296190Y-135364299D02*
X135296190Y-134364299D01*
X135296190Y-134364299D02*
X135391428Y-134507156D01*
X135391428Y-134507156D02*
X135486666Y-134602394D01*
X135486666Y-134602394D02*
X135581904Y-134650013D01*
X134391428Y-134364299D02*
X134296190Y-134364299D01*
X134296190Y-134364299D02*
X134200952Y-134411918D01*
X134200952Y-134411918D02*
X134153333Y-134459537D01*
X134153333Y-134459537D02*
X134105714Y-134554775D01*
X134105714Y-134554775D02*
X134058095Y-134745251D01*
X134058095Y-134745251D02*
X134058095Y-134983346D01*
X134058095Y-134983346D02*
X134105714Y-135173822D01*
X134105714Y-135173822D02*
X134153333Y-135269060D01*
X134153333Y-135269060D02*
X134200952Y-135316680D01*
X134200952Y-135316680D02*
X134296190Y-135364299D01*
X134296190Y-135364299D02*
X134391428Y-135364299D01*
X134391428Y-135364299D02*
X134486666Y-135316680D01*
X134486666Y-135316680D02*
X134534285Y-135269060D01*
X134534285Y-135269060D02*
X134581904Y-135173822D01*
X134581904Y-135173822D02*
X134629523Y-134983346D01*
X134629523Y-134983346D02*
X134629523Y-134745251D01*
X134629523Y-134745251D02*
X134581904Y-134554775D01*
X134581904Y-134554775D02*
X134534285Y-134459537D01*
X134534285Y-134459537D02*
X134486666Y-134411918D01*
X134486666Y-134411918D02*
X134391428Y-134364299D01*
X196366612Y-139599088D02*
X196939032Y-139498073D01*
X196770673Y-140003149D02*
X197477780Y-139296042D01*
X197477780Y-139296042D02*
X197208406Y-139026668D01*
X197208406Y-139026668D02*
X197107391Y-138992997D01*
X197107391Y-138992997D02*
X197040047Y-138992997D01*
X197040047Y-138992997D02*
X196939032Y-139026668D01*
X196939032Y-139026668D02*
X196838017Y-139127684D01*
X196838017Y-139127684D02*
X196804345Y-139228699D01*
X196804345Y-139228699D02*
X196804345Y-139296042D01*
X196804345Y-139296042D02*
X196838017Y-139397058D01*
X196838017Y-139397058D02*
X197107391Y-139666432D01*
X196366612Y-138790966D02*
X196467628Y-138824638D01*
X196467628Y-138824638D02*
X196534971Y-138824638D01*
X196534971Y-138824638D02*
X196635986Y-138790966D01*
X196635986Y-138790966D02*
X196669658Y-138757294D01*
X196669658Y-138757294D02*
X196703330Y-138656279D01*
X196703330Y-138656279D02*
X196703330Y-138588936D01*
X196703330Y-138588936D02*
X196669658Y-138487920D01*
X196669658Y-138487920D02*
X196534971Y-138353233D01*
X196534971Y-138353233D02*
X196433956Y-138319562D01*
X196433956Y-138319562D02*
X196366612Y-138319562D01*
X196366612Y-138319562D02*
X196265597Y-138353233D01*
X196265597Y-138353233D02*
X196231925Y-138386905D01*
X196231925Y-138386905D02*
X196198254Y-138487920D01*
X196198254Y-138487920D02*
X196198254Y-138555264D01*
X196198254Y-138555264D02*
X196231925Y-138656279D01*
X196231925Y-138656279D02*
X196366612Y-138790966D01*
X196366612Y-138790966D02*
X196400284Y-138891981D01*
X196400284Y-138891981D02*
X196400284Y-138959325D01*
X196400284Y-138959325D02*
X196366612Y-139060340D01*
X196366612Y-139060340D02*
X196231925Y-139195027D01*
X196231925Y-139195027D02*
X196130910Y-139228699D01*
X196130910Y-139228699D02*
X196063567Y-139228699D01*
X196063567Y-139228699D02*
X195962551Y-139195027D01*
X195962551Y-139195027D02*
X195827864Y-139060340D01*
X195827864Y-139060340D02*
X195794193Y-138959325D01*
X195794193Y-138959325D02*
X195794193Y-138891981D01*
X195794193Y-138891981D02*
X195827864Y-138790966D01*
X195827864Y-138790966D02*
X195962551Y-138656279D01*
X195962551Y-138656279D02*
X196063567Y-138622607D01*
X196063567Y-138622607D02*
X196130910Y-138622607D01*
X196130910Y-138622607D02*
X196231925Y-138656279D01*
X204753330Y-141585806D02*
X205325750Y-141484791D01*
X205157391Y-141989867D02*
X205864498Y-141282760D01*
X205864498Y-141282760D02*
X205595124Y-141013386D01*
X205595124Y-141013386D02*
X205494109Y-140979715D01*
X205494109Y-140979715D02*
X205426765Y-140979715D01*
X205426765Y-140979715D02*
X205325750Y-141013386D01*
X205325750Y-141013386D02*
X205224735Y-141114402D01*
X205224735Y-141114402D02*
X205191063Y-141215417D01*
X205191063Y-141215417D02*
X205191063Y-141282760D01*
X205191063Y-141282760D02*
X205224735Y-141383776D01*
X205224735Y-141383776D02*
X205494109Y-141653150D01*
X204079895Y-140912371D02*
X204483956Y-141316432D01*
X204281926Y-141114402D02*
X204989033Y-140407295D01*
X204989033Y-140407295D02*
X204955361Y-140575654D01*
X204955361Y-140575654D02*
X204955361Y-140710341D01*
X204955361Y-140710341D02*
X204989033Y-140811356D01*
X203945208Y-139834875D02*
X203473804Y-140306280D01*
X204382941Y-139733860D02*
X204046223Y-140407295D01*
X204046223Y-140407295D02*
X203608491Y-139969562D01*
X137287857Y-137364299D02*
X137621190Y-136888108D01*
X137859285Y-137364299D02*
X137859285Y-136364299D01*
X137859285Y-136364299D02*
X137478333Y-136364299D01*
X137478333Y-136364299D02*
X137383095Y-136411918D01*
X137383095Y-136411918D02*
X137335476Y-136459537D01*
X137335476Y-136459537D02*
X137287857Y-136554775D01*
X137287857Y-136554775D02*
X137287857Y-136697632D01*
X137287857Y-136697632D02*
X137335476Y-136792870D01*
X137335476Y-136792870D02*
X137383095Y-136840489D01*
X137383095Y-136840489D02*
X137478333Y-136888108D01*
X137478333Y-136888108D02*
X137859285Y-136888108D01*
X136335476Y-137364299D02*
X136906904Y-137364299D01*
X136621190Y-137364299D02*
X136621190Y-136364299D01*
X136621190Y-136364299D02*
X136716428Y-136507156D01*
X136716428Y-136507156D02*
X136811666Y-136602394D01*
X136811666Y-136602394D02*
X136906904Y-136650013D01*
X135478333Y-136364299D02*
X135668809Y-136364299D01*
X135668809Y-136364299D02*
X135764047Y-136411918D01*
X135764047Y-136411918D02*
X135811666Y-136459537D01*
X135811666Y-136459537D02*
X135906904Y-136602394D01*
X135906904Y-136602394D02*
X135954523Y-136792870D01*
X135954523Y-136792870D02*
X135954523Y-137173822D01*
X135954523Y-137173822D02*
X135906904Y-137269060D01*
X135906904Y-137269060D02*
X135859285Y-137316680D01*
X135859285Y-137316680D02*
X135764047Y-137364299D01*
X135764047Y-137364299D02*
X135573571Y-137364299D01*
X135573571Y-137364299D02*
X135478333Y-137316680D01*
X135478333Y-137316680D02*
X135430714Y-137269060D01*
X135430714Y-137269060D02*
X135383095Y-137173822D01*
X135383095Y-137173822D02*
X135383095Y-136935727D01*
X135383095Y-136935727D02*
X135430714Y-136840489D01*
X135430714Y-136840489D02*
X135478333Y-136792870D01*
X135478333Y-136792870D02*
X135573571Y-136745251D01*
X135573571Y-136745251D02*
X135764047Y-136745251D01*
X135764047Y-136745251D02*
X135859285Y-136792870D01*
X135859285Y-136792870D02*
X135906904Y-136840489D01*
X135906904Y-136840489D02*
X135954523Y-136935727D01*
X126486666Y-135269060D02*
X126534285Y-135316680D01*
X126534285Y-135316680D02*
X126677142Y-135364299D01*
X126677142Y-135364299D02*
X126772380Y-135364299D01*
X126772380Y-135364299D02*
X126915237Y-135316680D01*
X126915237Y-135316680D02*
X127010475Y-135221441D01*
X127010475Y-135221441D02*
X127058094Y-135126203D01*
X127058094Y-135126203D02*
X127105713Y-134935727D01*
X127105713Y-134935727D02*
X127105713Y-134792870D01*
X127105713Y-134792870D02*
X127058094Y-134602394D01*
X127058094Y-134602394D02*
X127010475Y-134507156D01*
X127010475Y-134507156D02*
X126915237Y-134411918D01*
X126915237Y-134411918D02*
X126772380Y-134364299D01*
X126772380Y-134364299D02*
X126677142Y-134364299D01*
X126677142Y-134364299D02*
X126534285Y-134411918D01*
X126534285Y-134411918D02*
X126486666Y-134459537D01*
X125629523Y-134697632D02*
X125629523Y-135364299D01*
X125867618Y-134316680D02*
X126105713Y-135030965D01*
X126105713Y-135030965D02*
X125486666Y-135030965D01*
X173862857Y-132969060D02*
X173910476Y-133016680D01*
X173910476Y-133016680D02*
X174053333Y-133064299D01*
X174053333Y-133064299D02*
X174148571Y-133064299D01*
X174148571Y-133064299D02*
X174291428Y-133016680D01*
X174291428Y-133016680D02*
X174386666Y-132921441D01*
X174386666Y-132921441D02*
X174434285Y-132826203D01*
X174434285Y-132826203D02*
X174481904Y-132635727D01*
X174481904Y-132635727D02*
X174481904Y-132492870D01*
X174481904Y-132492870D02*
X174434285Y-132302394D01*
X174434285Y-132302394D02*
X174386666Y-132207156D01*
X174386666Y-132207156D02*
X174291428Y-132111918D01*
X174291428Y-132111918D02*
X174148571Y-132064299D01*
X174148571Y-132064299D02*
X174053333Y-132064299D01*
X174053333Y-132064299D02*
X173910476Y-132111918D01*
X173910476Y-132111918D02*
X173862857Y-132159537D01*
X172910476Y-133064299D02*
X173481904Y-133064299D01*
X173196190Y-133064299D02*
X173196190Y-132064299D01*
X173196190Y-132064299D02*
X173291428Y-132207156D01*
X173291428Y-132207156D02*
X173386666Y-132302394D01*
X173386666Y-132302394D02*
X173481904Y-132350013D01*
X172529523Y-132159537D02*
X172481904Y-132111918D01*
X172481904Y-132111918D02*
X172386666Y-132064299D01*
X172386666Y-132064299D02*
X172148571Y-132064299D01*
X172148571Y-132064299D02*
X172053333Y-132111918D01*
X172053333Y-132111918D02*
X172005714Y-132159537D01*
X172005714Y-132159537D02*
X171958095Y-132254775D01*
X171958095Y-132254775D02*
X171958095Y-132350013D01*
X171958095Y-132350013D02*
X172005714Y-132492870D01*
X172005714Y-132492870D02*
X172577142Y-133064299D01*
X172577142Y-133064299D02*
X171958095Y-133064299D01*
X145486666Y-133269060D02*
X145534285Y-133316680D01*
X145534285Y-133316680D02*
X145677142Y-133364299D01*
X145677142Y-133364299D02*
X145772380Y-133364299D01*
X145772380Y-133364299D02*
X145915237Y-133316680D01*
X145915237Y-133316680D02*
X146010475Y-133221441D01*
X146010475Y-133221441D02*
X146058094Y-133126203D01*
X146058094Y-133126203D02*
X146105713Y-132935727D01*
X146105713Y-132935727D02*
X146105713Y-132792870D01*
X146105713Y-132792870D02*
X146058094Y-132602394D01*
X146058094Y-132602394D02*
X146010475Y-132507156D01*
X146010475Y-132507156D02*
X145915237Y-132411918D01*
X145915237Y-132411918D02*
X145772380Y-132364299D01*
X145772380Y-132364299D02*
X145677142Y-132364299D01*
X145677142Y-132364299D02*
X145534285Y-132411918D01*
X145534285Y-132411918D02*
X145486666Y-132459537D01*
X144581904Y-132364299D02*
X145058094Y-132364299D01*
X145058094Y-132364299D02*
X145105713Y-132840489D01*
X145105713Y-132840489D02*
X145058094Y-132792870D01*
X145058094Y-132792870D02*
X144962856Y-132745251D01*
X144962856Y-132745251D02*
X144724761Y-132745251D01*
X144724761Y-132745251D02*
X144629523Y-132792870D01*
X144629523Y-132792870D02*
X144581904Y-132840489D01*
X144581904Y-132840489D02*
X144534285Y-132935727D01*
X144534285Y-132935727D02*
X144534285Y-133173822D01*
X144534285Y-133173822D02*
X144581904Y-133269060D01*
X144581904Y-133269060D02*
X144629523Y-133316680D01*
X144629523Y-133316680D02*
X144724761Y-133364299D01*
X144724761Y-133364299D02*
X144962856Y-133364299D01*
X144962856Y-133364299D02*
X145058094Y-133316680D01*
X145058094Y-133316680D02*
X145105713Y-133269060D01*
X116009088Y-144863387D02*
X115908073Y-144290967D01*
X116413149Y-144459326D02*
X115706042Y-143752219D01*
X115706042Y-143752219D02*
X115436668Y-144021593D01*
X115436668Y-144021593D02*
X115402997Y-144122608D01*
X115402997Y-144122608D02*
X115402997Y-144189952D01*
X115402997Y-144189952D02*
X115436668Y-144290967D01*
X115436668Y-144290967D02*
X115537684Y-144391982D01*
X115537684Y-144391982D02*
X115638699Y-144425654D01*
X115638699Y-144425654D02*
X115706042Y-144425654D01*
X115706042Y-144425654D02*
X115807058Y-144391982D01*
X115807058Y-144391982D02*
X116076432Y-144122608D01*
X115672371Y-145200104D02*
X115537684Y-145334791D01*
X115537684Y-145334791D02*
X115436668Y-145368463D01*
X115436668Y-145368463D02*
X115369325Y-145368463D01*
X115369325Y-145368463D02*
X115200966Y-145334791D01*
X115200966Y-145334791D02*
X115032607Y-145233776D01*
X115032607Y-145233776D02*
X114763233Y-144964402D01*
X114763233Y-144964402D02*
X114729562Y-144863387D01*
X114729562Y-144863387D02*
X114729562Y-144796043D01*
X114729562Y-144796043D02*
X114763233Y-144695028D01*
X114763233Y-144695028D02*
X114897920Y-144560341D01*
X114897920Y-144560341D02*
X114998936Y-144526669D01*
X114998936Y-144526669D02*
X115066279Y-144526669D01*
X115066279Y-144526669D02*
X115167294Y-144560341D01*
X115167294Y-144560341D02*
X115335653Y-144728700D01*
X115335653Y-144728700D02*
X115369325Y-144829715D01*
X115369325Y-144829715D02*
X115369325Y-144897058D01*
X115369325Y-144897058D02*
X115335653Y-144998074D01*
X115335653Y-144998074D02*
X115200966Y-145132761D01*
X115200966Y-145132761D02*
X115099951Y-145166432D01*
X115099951Y-145166432D02*
X115032607Y-145166432D01*
X115032607Y-145166432D02*
X114931592Y-145132761D01*
X157962857Y-139764299D02*
X158296190Y-139288108D01*
X158534285Y-139764299D02*
X158534285Y-138764299D01*
X158534285Y-138764299D02*
X158153333Y-138764299D01*
X158153333Y-138764299D02*
X158058095Y-138811918D01*
X158058095Y-138811918D02*
X158010476Y-138859537D01*
X158010476Y-138859537D02*
X157962857Y-138954775D01*
X157962857Y-138954775D02*
X157962857Y-139097632D01*
X157962857Y-139097632D02*
X158010476Y-139192870D01*
X158010476Y-139192870D02*
X158058095Y-139240489D01*
X158058095Y-139240489D02*
X158153333Y-139288108D01*
X158153333Y-139288108D02*
X158534285Y-139288108D01*
X157581904Y-138859537D02*
X157534285Y-138811918D01*
X157534285Y-138811918D02*
X157439047Y-138764299D01*
X157439047Y-138764299D02*
X157200952Y-138764299D01*
X157200952Y-138764299D02*
X157105714Y-138811918D01*
X157105714Y-138811918D02*
X157058095Y-138859537D01*
X157058095Y-138859537D02*
X157010476Y-138954775D01*
X157010476Y-138954775D02*
X157010476Y-139050013D01*
X157010476Y-139050013D02*
X157058095Y-139192870D01*
X157058095Y-139192870D02*
X157629523Y-139764299D01*
X157629523Y-139764299D02*
X157010476Y-139764299D01*
X156677142Y-138764299D02*
X156058095Y-138764299D01*
X156058095Y-138764299D02*
X156391428Y-139145251D01*
X156391428Y-139145251D02*
X156248571Y-139145251D01*
X156248571Y-139145251D02*
X156153333Y-139192870D01*
X156153333Y-139192870D02*
X156105714Y-139240489D01*
X156105714Y-139240489D02*
X156058095Y-139335727D01*
X156058095Y-139335727D02*
X156058095Y-139573822D01*
X156058095Y-139573822D02*
X156105714Y-139669060D01*
X156105714Y-139669060D02*
X156153333Y-139716680D01*
X156153333Y-139716680D02*
X156248571Y-139764299D01*
X156248571Y-139764299D02*
X156534285Y-139764299D01*
X156534285Y-139764299D02*
X156629523Y-139716680D01*
X156629523Y-139716680D02*
X156677142Y-139669060D01*
X131212857Y-132939299D02*
X131546190Y-132463108D01*
X131784285Y-132939299D02*
X131784285Y-131939299D01*
X131784285Y-131939299D02*
X131403333Y-131939299D01*
X131403333Y-131939299D02*
X131308095Y-131986918D01*
X131308095Y-131986918D02*
X131260476Y-132034537D01*
X131260476Y-132034537D02*
X131212857Y-132129775D01*
X131212857Y-132129775D02*
X131212857Y-132272632D01*
X131212857Y-132272632D02*
X131260476Y-132367870D01*
X131260476Y-132367870D02*
X131308095Y-132415489D01*
X131308095Y-132415489D02*
X131403333Y-132463108D01*
X131403333Y-132463108D02*
X131784285Y-132463108D01*
X130260476Y-132939299D02*
X130831904Y-132939299D01*
X130546190Y-132939299D02*
X130546190Y-131939299D01*
X130546190Y-131939299D02*
X130641428Y-132082156D01*
X130641428Y-132082156D02*
X130736666Y-132177394D01*
X130736666Y-132177394D02*
X130831904Y-132225013D01*
X129641428Y-131939299D02*
X129546190Y-131939299D01*
X129546190Y-131939299D02*
X129450952Y-131986918D01*
X129450952Y-131986918D02*
X129403333Y-132034537D01*
X129403333Y-132034537D02*
X129355714Y-132129775D01*
X129355714Y-132129775D02*
X129308095Y-132320251D01*
X129308095Y-132320251D02*
X129308095Y-132558346D01*
X129308095Y-132558346D02*
X129355714Y-132748822D01*
X129355714Y-132748822D02*
X129403333Y-132844060D01*
X129403333Y-132844060D02*
X129450952Y-132891680D01*
X129450952Y-132891680D02*
X129546190Y-132939299D01*
X129546190Y-132939299D02*
X129641428Y-132939299D01*
X129641428Y-132939299D02*
X129736666Y-132891680D01*
X129736666Y-132891680D02*
X129784285Y-132844060D01*
X129784285Y-132844060D02*
X129831904Y-132748822D01*
X129831904Y-132748822D02*
X129879523Y-132558346D01*
X129879523Y-132558346D02*
X129879523Y-132320251D01*
X129879523Y-132320251D02*
X129831904Y-132129775D01*
X129831904Y-132129775D02*
X129784285Y-132034537D01*
X129784285Y-132034537D02*
X129736666Y-131986918D01*
X129736666Y-131986918D02*
X129641428Y-131939299D01*
X173962857Y-135364299D02*
X174296190Y-134888108D01*
X174534285Y-135364299D02*
X174534285Y-134364299D01*
X174534285Y-134364299D02*
X174153333Y-134364299D01*
X174153333Y-134364299D02*
X174058095Y-134411918D01*
X174058095Y-134411918D02*
X174010476Y-134459537D01*
X174010476Y-134459537D02*
X173962857Y-134554775D01*
X173962857Y-134554775D02*
X173962857Y-134697632D01*
X173962857Y-134697632D02*
X174010476Y-134792870D01*
X174010476Y-134792870D02*
X174058095Y-134840489D01*
X174058095Y-134840489D02*
X174153333Y-134888108D01*
X174153333Y-134888108D02*
X174534285Y-134888108D01*
X173010476Y-135364299D02*
X173581904Y-135364299D01*
X173296190Y-135364299D02*
X173296190Y-134364299D01*
X173296190Y-134364299D02*
X173391428Y-134507156D01*
X173391428Y-134507156D02*
X173486666Y-134602394D01*
X173486666Y-134602394D02*
X173581904Y-134650013D01*
X172439047Y-134792870D02*
X172534285Y-134745251D01*
X172534285Y-134745251D02*
X172581904Y-134697632D01*
X172581904Y-134697632D02*
X172629523Y-134602394D01*
X172629523Y-134602394D02*
X172629523Y-134554775D01*
X172629523Y-134554775D02*
X172581904Y-134459537D01*
X172581904Y-134459537D02*
X172534285Y-134411918D01*
X172534285Y-134411918D02*
X172439047Y-134364299D01*
X172439047Y-134364299D02*
X172248571Y-134364299D01*
X172248571Y-134364299D02*
X172153333Y-134411918D01*
X172153333Y-134411918D02*
X172105714Y-134459537D01*
X172105714Y-134459537D02*
X172058095Y-134554775D01*
X172058095Y-134554775D02*
X172058095Y-134602394D01*
X172058095Y-134602394D02*
X172105714Y-134697632D01*
X172105714Y-134697632D02*
X172153333Y-134745251D01*
X172153333Y-134745251D02*
X172248571Y-134792870D01*
X172248571Y-134792870D02*
X172439047Y-134792870D01*
X172439047Y-134792870D02*
X172534285Y-134840489D01*
X172534285Y-134840489D02*
X172581904Y-134888108D01*
X172581904Y-134888108D02*
X172629523Y-134983346D01*
X172629523Y-134983346D02*
X172629523Y-135173822D01*
X172629523Y-135173822D02*
X172581904Y-135269060D01*
X172581904Y-135269060D02*
X172534285Y-135316680D01*
X172534285Y-135316680D02*
X172439047Y-135364299D01*
X172439047Y-135364299D02*
X172248571Y-135364299D01*
X172248571Y-135364299D02*
X172153333Y-135316680D01*
X172153333Y-135316680D02*
X172105714Y-135269060D01*
X172105714Y-135269060D02*
X172058095Y-135173822D01*
X172058095Y-135173822D02*
X172058095Y-134983346D01*
X172058095Y-134983346D02*
X172105714Y-134888108D01*
X172105714Y-134888108D02*
X172153333Y-134840489D01*
X172153333Y-134840489D02*
X172248571Y-134792870D01*
X120941745Y-143296043D02*
X121009088Y-143296043D01*
X121009088Y-143296043D02*
X121143775Y-143228700D01*
X121143775Y-143228700D02*
X121211119Y-143161356D01*
X121211119Y-143161356D02*
X121278462Y-143026669D01*
X121278462Y-143026669D02*
X121278462Y-142891982D01*
X121278462Y-142891982D02*
X121244790Y-142790967D01*
X121244790Y-142790967D02*
X121143775Y-142622608D01*
X121143775Y-142622608D02*
X121042760Y-142521593D01*
X121042760Y-142521593D02*
X120874401Y-142420578D01*
X120874401Y-142420578D02*
X120773386Y-142386906D01*
X120773386Y-142386906D02*
X120638699Y-142386906D01*
X120638699Y-142386906D02*
X120504012Y-142454249D01*
X120504012Y-142454249D02*
X120436668Y-142521593D01*
X120436668Y-142521593D02*
X120369325Y-142656280D01*
X120369325Y-142656280D02*
X120369325Y-142723623D01*
X120672371Y-143700104D02*
X120537684Y-143834791D01*
X120537684Y-143834791D02*
X120436668Y-143868463D01*
X120436668Y-143868463D02*
X120369325Y-143868463D01*
X120369325Y-143868463D02*
X120200966Y-143834791D01*
X120200966Y-143834791D02*
X120032607Y-143733776D01*
X120032607Y-143733776D02*
X119763233Y-143464402D01*
X119763233Y-143464402D02*
X119729562Y-143363387D01*
X119729562Y-143363387D02*
X119729562Y-143296043D01*
X119729562Y-143296043D02*
X119763233Y-143195028D01*
X119763233Y-143195028D02*
X119897920Y-143060341D01*
X119897920Y-143060341D02*
X119998936Y-143026669D01*
X119998936Y-143026669D02*
X120066279Y-143026669D01*
X120066279Y-143026669D02*
X120167294Y-143060341D01*
X120167294Y-143060341D02*
X120335653Y-143228700D01*
X120335653Y-143228700D02*
X120369325Y-143329715D01*
X120369325Y-143329715D02*
X120369325Y-143397058D01*
X120369325Y-143397058D02*
X120335653Y-143498074D01*
X120335653Y-143498074D02*
X120200966Y-143632761D01*
X120200966Y-143632761D02*
X120099951Y-143666432D01*
X120099951Y-143666432D02*
X120032607Y-143666432D01*
X120032607Y-143666432D02*
X119931592Y-143632761D01*
X193062857Y-135269060D02*
X193110476Y-135316680D01*
X193110476Y-135316680D02*
X193253333Y-135364299D01*
X193253333Y-135364299D02*
X193348571Y-135364299D01*
X193348571Y-135364299D02*
X193491428Y-135316680D01*
X193491428Y-135316680D02*
X193586666Y-135221441D01*
X193586666Y-135221441D02*
X193634285Y-135126203D01*
X193634285Y-135126203D02*
X193681904Y-134935727D01*
X193681904Y-134935727D02*
X193681904Y-134792870D01*
X193681904Y-134792870D02*
X193634285Y-134602394D01*
X193634285Y-134602394D02*
X193586666Y-134507156D01*
X193586666Y-134507156D02*
X193491428Y-134411918D01*
X193491428Y-134411918D02*
X193348571Y-134364299D01*
X193348571Y-134364299D02*
X193253333Y-134364299D01*
X193253333Y-134364299D02*
X193110476Y-134411918D01*
X193110476Y-134411918D02*
X193062857Y-134459537D01*
X192110476Y-135364299D02*
X192681904Y-135364299D01*
X192396190Y-135364299D02*
X192396190Y-134364299D01*
X192396190Y-134364299D02*
X192491428Y-134507156D01*
X192491428Y-134507156D02*
X192586666Y-134602394D01*
X192586666Y-134602394D02*
X192681904Y-134650013D01*
X191777142Y-134364299D02*
X191158095Y-134364299D01*
X191158095Y-134364299D02*
X191491428Y-134745251D01*
X191491428Y-134745251D02*
X191348571Y-134745251D01*
X191348571Y-134745251D02*
X191253333Y-134792870D01*
X191253333Y-134792870D02*
X191205714Y-134840489D01*
X191205714Y-134840489D02*
X191158095Y-134935727D01*
X191158095Y-134935727D02*
X191158095Y-135173822D01*
X191158095Y-135173822D02*
X191205714Y-135269060D01*
X191205714Y-135269060D02*
X191253333Y-135316680D01*
X191253333Y-135316680D02*
X191348571Y-135364299D01*
X191348571Y-135364299D02*
X191634285Y-135364299D01*
X191634285Y-135364299D02*
X191729523Y-135316680D01*
X191729523Y-135316680D02*
X191777142Y-135269060D01*
X200108956Y-139831746D02*
X200108956Y-139899089D01*
X200108956Y-139899089D02*
X200176299Y-140033776D01*
X200176299Y-140033776D02*
X200243643Y-140101120D01*
X200243643Y-140101120D02*
X200378330Y-140168463D01*
X200378330Y-140168463D02*
X200513017Y-140168463D01*
X200513017Y-140168463D02*
X200614032Y-140134791D01*
X200614032Y-140134791D02*
X200782391Y-140033776D01*
X200782391Y-140033776D02*
X200883406Y-139932761D01*
X200883406Y-139932761D02*
X200984421Y-139764402D01*
X200984421Y-139764402D02*
X201018093Y-139663387D01*
X201018093Y-139663387D02*
X201018093Y-139528700D01*
X201018093Y-139528700D02*
X200950750Y-139394013D01*
X200950750Y-139394013D02*
X200883406Y-139326669D01*
X200883406Y-139326669D02*
X200748719Y-139259326D01*
X200748719Y-139259326D02*
X200681376Y-139259326D01*
X200041612Y-139090967D02*
X200142628Y-139124639D01*
X200142628Y-139124639D02*
X200209971Y-139124639D01*
X200209971Y-139124639D02*
X200310986Y-139090967D01*
X200310986Y-139090967D02*
X200344658Y-139057295D01*
X200344658Y-139057295D02*
X200378330Y-138956280D01*
X200378330Y-138956280D02*
X200378330Y-138888937D01*
X200378330Y-138888937D02*
X200344658Y-138787921D01*
X200344658Y-138787921D02*
X200209971Y-138653234D01*
X200209971Y-138653234D02*
X200108956Y-138619563D01*
X200108956Y-138619563D02*
X200041612Y-138619563D01*
X200041612Y-138619563D02*
X199940597Y-138653234D01*
X199940597Y-138653234D02*
X199906925Y-138686906D01*
X199906925Y-138686906D02*
X199873254Y-138787921D01*
X199873254Y-138787921D02*
X199873254Y-138855265D01*
X199873254Y-138855265D02*
X199906925Y-138956280D01*
X199906925Y-138956280D02*
X200041612Y-139090967D01*
X200041612Y-139090967D02*
X200075284Y-139191982D01*
X200075284Y-139191982D02*
X200075284Y-139259326D01*
X200075284Y-139259326D02*
X200041612Y-139360341D01*
X200041612Y-139360341D02*
X199906925Y-139495028D01*
X199906925Y-139495028D02*
X199805910Y-139528700D01*
X199805910Y-139528700D02*
X199738567Y-139528700D01*
X199738567Y-139528700D02*
X199637551Y-139495028D01*
X199637551Y-139495028D02*
X199502864Y-139360341D01*
X199502864Y-139360341D02*
X199469193Y-139259326D01*
X199469193Y-139259326D02*
X199469193Y-139191982D01*
X199469193Y-139191982D02*
X199502864Y-139090967D01*
X199502864Y-139090967D02*
X199637551Y-138956280D01*
X199637551Y-138956280D02*
X199738567Y-138922608D01*
X199738567Y-138922608D02*
X199805910Y-138922608D01*
X199805910Y-138922608D02*
X199906925Y-138956280D01*
X168462857Y-138364299D02*
X168796190Y-137888108D01*
X169034285Y-138364299D02*
X169034285Y-137364299D01*
X169034285Y-137364299D02*
X168653333Y-137364299D01*
X168653333Y-137364299D02*
X168558095Y-137411918D01*
X168558095Y-137411918D02*
X168510476Y-137459537D01*
X168510476Y-137459537D02*
X168462857Y-137554775D01*
X168462857Y-137554775D02*
X168462857Y-137697632D01*
X168462857Y-137697632D02*
X168510476Y-137792870D01*
X168510476Y-137792870D02*
X168558095Y-137840489D01*
X168558095Y-137840489D02*
X168653333Y-137888108D01*
X168653333Y-137888108D02*
X169034285Y-137888108D01*
X168081904Y-137459537D02*
X168034285Y-137411918D01*
X168034285Y-137411918D02*
X167939047Y-137364299D01*
X167939047Y-137364299D02*
X167700952Y-137364299D01*
X167700952Y-137364299D02*
X167605714Y-137411918D01*
X167605714Y-137411918D02*
X167558095Y-137459537D01*
X167558095Y-137459537D02*
X167510476Y-137554775D01*
X167510476Y-137554775D02*
X167510476Y-137650013D01*
X167510476Y-137650013D02*
X167558095Y-137792870D01*
X167558095Y-137792870D02*
X168129523Y-138364299D01*
X168129523Y-138364299D02*
X167510476Y-138364299D01*
X167129523Y-137459537D02*
X167081904Y-137411918D01*
X167081904Y-137411918D02*
X166986666Y-137364299D01*
X166986666Y-137364299D02*
X166748571Y-137364299D01*
X166748571Y-137364299D02*
X166653333Y-137411918D01*
X166653333Y-137411918D02*
X166605714Y-137459537D01*
X166605714Y-137459537D02*
X166558095Y-137554775D01*
X166558095Y-137554775D02*
X166558095Y-137650013D01*
X166558095Y-137650013D02*
X166605714Y-137792870D01*
X166605714Y-137792870D02*
X167177142Y-138364299D01*
X167177142Y-138364299D02*
X166558095Y-138364299D01*
X164411666Y-135064299D02*
X164744999Y-134588108D01*
X164983094Y-135064299D02*
X164983094Y-134064299D01*
X164983094Y-134064299D02*
X164602142Y-134064299D01*
X164602142Y-134064299D02*
X164506904Y-134111918D01*
X164506904Y-134111918D02*
X164459285Y-134159537D01*
X164459285Y-134159537D02*
X164411666Y-134254775D01*
X164411666Y-134254775D02*
X164411666Y-134397632D01*
X164411666Y-134397632D02*
X164459285Y-134492870D01*
X164459285Y-134492870D02*
X164506904Y-134540489D01*
X164506904Y-134540489D02*
X164602142Y-134588108D01*
X164602142Y-134588108D02*
X164983094Y-134588108D01*
X163554523Y-134064299D02*
X163744999Y-134064299D01*
X163744999Y-134064299D02*
X163840237Y-134111918D01*
X163840237Y-134111918D02*
X163887856Y-134159537D01*
X163887856Y-134159537D02*
X163983094Y-134302394D01*
X163983094Y-134302394D02*
X164030713Y-134492870D01*
X164030713Y-134492870D02*
X164030713Y-134873822D01*
X164030713Y-134873822D02*
X163983094Y-134969060D01*
X163983094Y-134969060D02*
X163935475Y-135016680D01*
X163935475Y-135016680D02*
X163840237Y-135064299D01*
X163840237Y-135064299D02*
X163649761Y-135064299D01*
X163649761Y-135064299D02*
X163554523Y-135016680D01*
X163554523Y-135016680D02*
X163506904Y-134969060D01*
X163506904Y-134969060D02*
X163459285Y-134873822D01*
X163459285Y-134873822D02*
X163459285Y-134635727D01*
X163459285Y-134635727D02*
X163506904Y-134540489D01*
X163506904Y-134540489D02*
X163554523Y-134492870D01*
X163554523Y-134492870D02*
X163649761Y-134445251D01*
X163649761Y-134445251D02*
X163840237Y-134445251D01*
X163840237Y-134445251D02*
X163935475Y-134492870D01*
X163935475Y-134492870D02*
X163983094Y-134540489D01*
X163983094Y-134540489D02*
X164030713Y-134635727D01*
X206520674Y-146368463D02*
X206520674Y-146435806D01*
X206520674Y-146435806D02*
X206588017Y-146570493D01*
X206588017Y-146570493D02*
X206655361Y-146637837D01*
X206655361Y-146637837D02*
X206790048Y-146705180D01*
X206790048Y-146705180D02*
X206924735Y-146705180D01*
X206924735Y-146705180D02*
X207025750Y-146671508D01*
X207025750Y-146671508D02*
X207194109Y-146570493D01*
X207194109Y-146570493D02*
X207295124Y-146469478D01*
X207295124Y-146469478D02*
X207396139Y-146301119D01*
X207396139Y-146301119D02*
X207429811Y-146200104D01*
X207429811Y-146200104D02*
X207429811Y-146065417D01*
X207429811Y-146065417D02*
X207362468Y-145930730D01*
X207362468Y-145930730D02*
X207295124Y-145863386D01*
X207295124Y-145863386D02*
X207160437Y-145796043D01*
X207160437Y-145796043D02*
X207093094Y-145796043D01*
X205779895Y-145762371D02*
X206183956Y-146166432D01*
X205981926Y-145964402D02*
X206689033Y-145257295D01*
X206689033Y-145257295D02*
X206655361Y-145425654D01*
X206655361Y-145425654D02*
X206655361Y-145560341D01*
X206655361Y-145560341D02*
X206689033Y-145661356D01*
X205645208Y-144684875D02*
X205173804Y-145156280D01*
X206082941Y-144583860D02*
X205746223Y-145257295D01*
X205746223Y-145257295D02*
X205308491Y-144819562D01*
X183486666Y-136764299D02*
X183819999Y-136288108D01*
X184058094Y-136764299D02*
X184058094Y-135764299D01*
X184058094Y-135764299D02*
X183677142Y-135764299D01*
X183677142Y-135764299D02*
X183581904Y-135811918D01*
X183581904Y-135811918D02*
X183534285Y-135859537D01*
X183534285Y-135859537D02*
X183486666Y-135954775D01*
X183486666Y-135954775D02*
X183486666Y-136097632D01*
X183486666Y-136097632D02*
X183534285Y-136192870D01*
X183534285Y-136192870D02*
X183581904Y-136240489D01*
X183581904Y-136240489D02*
X183677142Y-136288108D01*
X183677142Y-136288108D02*
X184058094Y-136288108D01*
X183153332Y-135764299D02*
X182486666Y-135764299D01*
X182486666Y-135764299D02*
X182915237Y-136764299D01*
D16*
X158773666Y-93363540D02*
X158821285Y-93411160D01*
X158821285Y-93411160D02*
X158964142Y-93458779D01*
X158964142Y-93458779D02*
X159059380Y-93458779D01*
X159059380Y-93458779D02*
X159202237Y-93411160D01*
X159202237Y-93411160D02*
X159297475Y-93315921D01*
X159297475Y-93315921D02*
X159345094Y-93220683D01*
X159345094Y-93220683D02*
X159392713Y-93030207D01*
X159392713Y-93030207D02*
X159392713Y-92887350D01*
X159392713Y-92887350D02*
X159345094Y-92696874D01*
X159345094Y-92696874D02*
X159297475Y-92601636D01*
X159297475Y-92601636D02*
X159202237Y-92506398D01*
X159202237Y-92506398D02*
X159059380Y-92458779D01*
X159059380Y-92458779D02*
X158964142Y-92458779D01*
X158964142Y-92458779D02*
X158821285Y-92506398D01*
X158821285Y-92506398D02*
X158773666Y-92554017D01*
X157821285Y-93458779D02*
X158392713Y-93458779D01*
X158106999Y-93458779D02*
X158106999Y-92458779D01*
X158106999Y-92458779D02*
X158202237Y-92601636D01*
X158202237Y-92601636D02*
X158297475Y-92696874D01*
X158297475Y-92696874D02*
X158392713Y-92744493D01*
X155090540Y-90988333D02*
X155138160Y-90940714D01*
X155138160Y-90940714D02*
X155185779Y-90797857D01*
X155185779Y-90797857D02*
X155185779Y-90702619D01*
X155185779Y-90702619D02*
X155138160Y-90559762D01*
X155138160Y-90559762D02*
X155042921Y-90464524D01*
X155042921Y-90464524D02*
X154947683Y-90416905D01*
X154947683Y-90416905D02*
X154757207Y-90369286D01*
X154757207Y-90369286D02*
X154614350Y-90369286D01*
X154614350Y-90369286D02*
X154423874Y-90416905D01*
X154423874Y-90416905D02*
X154328636Y-90464524D01*
X154328636Y-90464524D02*
X154233398Y-90559762D01*
X154233398Y-90559762D02*
X154185779Y-90702619D01*
X154185779Y-90702619D02*
X154185779Y-90797857D01*
X154185779Y-90797857D02*
X154233398Y-90940714D01*
X154233398Y-90940714D02*
X154281017Y-90988333D01*
X154281017Y-91369286D02*
X154233398Y-91416905D01*
X154233398Y-91416905D02*
X154185779Y-91512143D01*
X154185779Y-91512143D02*
X154185779Y-91750238D01*
X154185779Y-91750238D02*
X154233398Y-91845476D01*
X154233398Y-91845476D02*
X154281017Y-91893095D01*
X154281017Y-91893095D02*
X154376255Y-91940714D01*
X154376255Y-91940714D02*
X154471493Y-91940714D01*
X154471493Y-91940714D02*
X154614350Y-91893095D01*
X154614350Y-91893095D02*
X155185779Y-91321667D01*
X155185779Y-91321667D02*
X155185779Y-91940714D01*
X161260779Y-88093095D02*
X162070302Y-88093095D01*
X162070302Y-88093095D02*
X162165540Y-88140714D01*
X162165540Y-88140714D02*
X162213160Y-88188333D01*
X162213160Y-88188333D02*
X162260779Y-88283571D01*
X162260779Y-88283571D02*
X162260779Y-88474047D01*
X162260779Y-88474047D02*
X162213160Y-88569285D01*
X162213160Y-88569285D02*
X162165540Y-88616904D01*
X162165540Y-88616904D02*
X162070302Y-88664523D01*
X162070302Y-88664523D02*
X161260779Y-88664523D01*
X162260779Y-89664523D02*
X162260779Y-89093095D01*
X162260779Y-89378809D02*
X161260779Y-89378809D01*
X161260779Y-89378809D02*
X161403636Y-89283571D01*
X161403636Y-89283571D02*
X161498874Y-89188333D01*
X161498874Y-89188333D02*
X161546493Y-89093095D01*
D13*
%TO.C,Encoder_L1*%
X224300000Y-88130000D02*
X224300000Y-90330000D01*
X224300000Y-92530000D02*
X224300000Y-90330000D01*
X92570000Y-88130000D02*
X92570000Y-90330000D01*
X92570000Y-92530000D02*
X92570000Y-90330000D01*
%TO.C,X2*%
X168905000Y-106995000D02*
X167555000Y-106995000D01*
X168905000Y-108745000D02*
X167555000Y-108745000D01*
%TO.C,C11*%
X166420000Y-105210580D02*
X166420000Y-104929420D01*
X167440000Y-105210580D02*
X167440000Y-104929420D01*
%TO.C,C1*%
X164620580Y-117435000D02*
X164339420Y-117435000D01*
X164620580Y-118455000D02*
X164339420Y-118455000D01*
%TO.C,C17*%
X201904580Y-120058000D02*
X201623420Y-120058000D01*
X201904580Y-121078000D02*
X201623420Y-121078000D01*
%TO.C,C16*%
X135520580Y-106960000D02*
X135239420Y-106960000D01*
X135520580Y-107980000D02*
X135239420Y-107980000D01*
%TO.C,C23*%
X108620000Y-112010580D02*
X108620000Y-111729420D01*
X109640000Y-112010580D02*
X109640000Y-111729420D01*
%TO.C,C18*%
X209070000Y-112029420D02*
X209070000Y-112310580D01*
X210090000Y-112029420D02*
X210090000Y-112310580D01*
%TO.C,C6*%
X163120580Y-105935000D02*
X162839420Y-105935000D01*
X163120580Y-106955000D02*
X162839420Y-106955000D01*
%TO.C,C20*%
X117314420Y-102510000D02*
X117595580Y-102510000D01*
X117314420Y-103530000D02*
X117595580Y-103530000D01*
%TO.C,C10*%
X169220000Y-113235580D02*
X169220000Y-112954420D01*
X170240000Y-113235580D02*
X170240000Y-112954420D01*
%TO.C,C15*%
X131389420Y-106935000D02*
X131670580Y-106935000D01*
X131389420Y-107955000D02*
X131670580Y-107955000D01*
%TO.C,C2*%
X155095580Y-119660000D02*
X154814420Y-119660000D01*
X155095580Y-120680000D02*
X154814420Y-120680000D01*
%TO.C,C8*%
X167264420Y-110060000D02*
X167545580Y-110060000D01*
X167264420Y-111080000D02*
X167545580Y-111080000D01*
%TO.C,C7*%
X150064420Y-106935000D02*
X150345580Y-106935000D01*
X150064420Y-107955000D02*
X150345580Y-107955000D01*
%TO.C,C5*%
X163120580Y-104435000D02*
X162839420Y-104435000D01*
X163120580Y-105455000D02*
X162839420Y-105455000D01*
%TO.C,C4*%
X151064420Y-118435000D02*
X151345580Y-118435000D01*
X151064420Y-119455000D02*
X151345580Y-119455000D01*
D11*
%TO.C,Driver L*%
X112555000Y-108995000D02*
X112555000Y-114745000D01*
X112780000Y-108995000D02*
X112555000Y-108995000D01*
X112780000Y-114745000D02*
X112555000Y-114745000D01*
X120980000Y-108995000D02*
X121205000Y-108995000D01*
X120980000Y-114745000D02*
X121205000Y-114745000D01*
X121205000Y-108995000D02*
X121205000Y-114745000D01*
D13*
X121285000Y-115485000D02*
X120955000Y-115245000D01*
X121285000Y-115005000D01*
X121285000Y-115485000D01*
G36*
X121285000Y-115485000D02*
G01*
X120955000Y-115245000D01*
X121285000Y-115005000D01*
X121285000Y-115485000D01*
G37*
%TO.C,U2*%
X123670000Y-99910000D02*
X123670000Y-103670000D01*
X124930000Y-99910000D02*
X123670000Y-99910000D01*
X129230000Y-99910000D02*
X130490000Y-99910000D01*
X130490000Y-99910000D02*
X130490000Y-103670000D01*
X130720000Y-105190000D02*
X130390000Y-104950000D01*
X130720000Y-104710000D01*
X130720000Y-105190000D01*
G36*
X130720000Y-105190000D02*
G01*
X130390000Y-104950000D01*
X130720000Y-104710000D01*
X130720000Y-105190000D01*
G37*
%TO.C,R11*%
X184392258Y-121822500D02*
X183917742Y-121822500D01*
X184392258Y-122867500D02*
X183917742Y-122867500D01*
%TO.C,C3*%
X155095580Y-121235000D02*
X154814420Y-121235000D01*
X155095580Y-122255000D02*
X154814420Y-122255000D01*
%TO.C,C12*%
X169020000Y-105210580D02*
X169020000Y-104929420D01*
X170040000Y-105210580D02*
X170040000Y-104929420D01*
%TO.C,C14*%
X127970580Y-106935000D02*
X127689420Y-106935000D01*
X127970580Y-107955000D02*
X127689420Y-107955000D01*
%TO.C,U3*%
X131195000Y-99935000D02*
X131195000Y-103695000D01*
X132455000Y-99935000D02*
X131195000Y-99935000D01*
X136755000Y-99935000D02*
X138015000Y-99935000D01*
X138015000Y-99935000D02*
X138015000Y-103695000D01*
X138245000Y-105215000D02*
X137915000Y-104975000D01*
X138245000Y-104735000D01*
X138245000Y-105215000D01*
G36*
X138245000Y-105215000D02*
G01*
X137915000Y-104975000D01*
X138245000Y-104735000D01*
X138245000Y-105215000D01*
G37*
%TO.C,X1*%
X165980000Y-113870000D02*
X168680000Y-113870000D01*
X168680000Y-113870000D02*
X168680000Y-111570000D01*
%TO.C,C24*%
X110320000Y-111985580D02*
X110320000Y-111704420D01*
X111340000Y-111985580D02*
X111340000Y-111704420D01*
%TO.C,GRUZIK3.0*%
X165280000Y-101170000D02*
X163790000Y-101170000D01*
X165280000Y-99830000D02*
X165280000Y-101170000D01*
X154970000Y-102370000D02*
X154970000Y-101170000D01*
X153480000Y-101170000D02*
X154970000Y-101170000D01*
X153480000Y-99830000D02*
X153480000Y-101170000D01*
%TO.C,U1*%
X152095000Y-107510000D02*
X153045000Y-107510000D01*
X152095000Y-108460000D02*
X152095000Y-107510000D01*
X152095000Y-116780000D02*
X152095000Y-117730000D01*
X152095000Y-117730000D02*
X153045000Y-117730000D01*
X162315000Y-107510000D02*
X161365000Y-107510000D01*
X162315000Y-108460000D02*
X162315000Y-107510000D01*
X162315000Y-116780000D02*
X162315000Y-117730000D01*
X162315000Y-117730000D02*
X161365000Y-117730000D01*
X162930000Y-108460000D02*
X162590000Y-107990000D01*
X163270000Y-107990000D01*
X162930000Y-108460000D01*
G36*
X162930000Y-108460000D02*
G01*
X162590000Y-107990000D01*
X163270000Y-107990000D01*
X162930000Y-108460000D01*
G37*
%TO.C,R12*%
X183917742Y-119822500D02*
X184392258Y-119822500D01*
X183917742Y-120867500D02*
X184392258Y-120867500D01*
D11*
%TO.C,Driver R*%
X197555000Y-114745000D02*
X197555000Y-108995000D01*
X197780000Y-108995000D02*
X197555000Y-108995000D01*
X197780000Y-114745000D02*
X197555000Y-114745000D01*
X205980000Y-108995000D02*
X206205000Y-108995000D01*
X205980000Y-114745000D02*
X206205000Y-114745000D01*
X206205000Y-114745000D02*
X206205000Y-108995000D01*
D13*
X197805000Y-108495000D02*
X197475000Y-108735000D01*
X197475000Y-108255000D01*
X197805000Y-108495000D01*
G36*
X197805000Y-108495000D02*
G01*
X197475000Y-108735000D01*
X197475000Y-108255000D01*
X197805000Y-108495000D01*
G37*
D11*
%TO.C,SD_Card*%
X125645032Y-113891855D02*
X125645032Y-121141855D01*
X125645032Y-123891855D02*
X125645032Y-124370000D01*
X125645032Y-124370000D02*
X127045032Y-124370000D01*
X129895032Y-112391855D02*
X127145032Y-112391855D01*
X140395032Y-113891855D02*
X140395032Y-121141855D01*
X140395032Y-123902783D02*
X140395032Y-124380928D01*
X140395032Y-124370000D02*
X139130000Y-124370000D01*
D13*
%TO.C,C13*%
X123864420Y-106810000D02*
X124145580Y-106810000D01*
X123864420Y-107830000D02*
X124145580Y-107830000D01*
%TO.C,C19*%
X207070000Y-112029420D02*
X207070000Y-112310580D01*
X208090000Y-112029420D02*
X208090000Y-112310580D01*
%TO.C,L1*%
X155130279Y-122810000D02*
X154804721Y-122810000D01*
X155130279Y-123830000D02*
X154804721Y-123830000D01*
%TO.C,C2*%
X170779420Y-135800000D02*
X171060580Y-135800000D01*
X170779420Y-136820000D02*
X171060580Y-136820000D01*
%TO.C,Q1*%
X159257000Y-141392000D02*
X160932000Y-141392000D01*
X160282000Y-138272000D02*
X160932000Y-138272000D01*
X161582000Y-138272000D02*
X160932000Y-138272000D01*
X161582000Y-141392000D02*
X160932000Y-141392000D01*
%TO.C,C1*%
X170804420Y-137375000D02*
X171085580Y-137375000D01*
X170804420Y-138395000D02*
X171085580Y-138395000D01*
%TO.C,R3*%
X122418303Y-145172770D02*
X122082770Y-145508303D01*
X123157230Y-145911697D02*
X122821697Y-146247230D01*
%TO.C,R20*%
X203032770Y-147861697D02*
X203368303Y-148197230D01*
X203771697Y-147122770D02*
X204107230Y-147458303D01*
%TO.C,R21*%
X164507742Y-139137500D02*
X164982258Y-139137500D01*
X164507742Y-140182500D02*
X164982258Y-140182500D01*
%TO.C,R17*%
X157557258Y-134287500D02*
X157082742Y-134287500D01*
X157557258Y-135332500D02*
X157082742Y-135332500D01*
%TO.C,R12*%
X171557258Y-129687500D02*
X171082742Y-129687500D01*
X171557258Y-130732500D02*
X171082742Y-130732500D01*
%TO.C,R4*%
X129057258Y-135987500D02*
X128582742Y-135987500D01*
X129057258Y-137032500D02*
X128582742Y-137032500D01*
%TO.C,C11*%
X157460580Y-132400000D02*
X157179420Y-132400000D01*
X157460580Y-133420000D02*
X157179420Y-133420000D01*
%TO.C,C7*%
X185679420Y-134150000D02*
X185960580Y-134150000D01*
X185679420Y-135170000D02*
X185960580Y-135170000D01*
%TO.C,R5*%
X149807258Y-134387500D02*
X149332742Y-134387500D01*
X149807258Y-135432500D02*
X149332742Y-135432500D01*
%TO.C,C6*%
X166679420Y-132400000D02*
X166960580Y-132400000D01*
X166679420Y-133420000D02*
X166960580Y-133420000D01*
%TO.C,R13*%
X190807258Y-131962500D02*
X190332742Y-131962500D01*
X190807258Y-133007500D02*
X190332742Y-133007500D01*
%TO.C,R19*%
X195082742Y-135887500D02*
X195557258Y-135887500D01*
X195082742Y-136932500D02*
X195557258Y-136932500D01*
%TO.C,R11*%
X152807258Y-129887500D02*
X152332742Y-129887500D01*
X152807258Y-130932500D02*
X152332742Y-130932500D01*
%TO.C,C3*%
X115359970Y-147648781D02*
X115558781Y-147449970D01*
X116081219Y-148370030D02*
X116280030Y-148171219D01*
%TO.C,R15*%
X127209940Y-140131133D02*
X126874407Y-140466666D01*
X127948867Y-140870060D02*
X127613334Y-141205593D01*
%TO.C,C10*%
X138460580Y-134400000D02*
X138179420Y-134400000D01*
X138460580Y-135420000D02*
X138179420Y-135420000D01*
%TO.C,R8*%
X197782770Y-141111697D02*
X198118303Y-141447230D01*
X198521697Y-140372770D02*
X198857230Y-140708303D01*
%TO.C,R14*%
X206618303Y-143447230D02*
X206282770Y-143111697D01*
X207357230Y-142708303D02*
X207021697Y-142372770D01*
%TO.C,R16*%
X139882258Y-136387500D02*
X139407742Y-136387500D01*
X139882258Y-137432500D02*
X139407742Y-137432500D01*
%TO.C,C4*%
X128960580Y-134400000D02*
X128679420Y-134400000D01*
X128960580Y-135420000D02*
X128679420Y-135420000D01*
%TO.C,C12*%
X176179420Y-132150000D02*
X176460580Y-132150000D01*
X176179420Y-133170000D02*
X176460580Y-133170000D01*
%TO.C,C5*%
X147960580Y-132400000D02*
X147679420Y-132400000D01*
X147960580Y-133420000D02*
X147679420Y-133420000D01*
%TO.C,R9*%
X117118303Y-142372770D02*
X116782770Y-142708303D01*
X117857230Y-143111697D02*
X117521697Y-143447230D01*
%TO.C,R23*%
X157557258Y-140287500D02*
X157082742Y-140287500D01*
X157557258Y-141332500D02*
X157082742Y-141332500D01*
%TO.C,R10*%
X133807258Y-131962500D02*
X133332742Y-131962500D01*
X133807258Y-133007500D02*
X133332742Y-133007500D01*
%TO.C,R18*%
X176082742Y-134387500D02*
X176557258Y-134387500D01*
X176082742Y-135432500D02*
X176557258Y-135432500D01*
%TO.C,C9*%
X121859970Y-141148781D02*
X122058781Y-140949970D01*
X122581219Y-141870030D02*
X122780030Y-141671219D01*
%TO.C,C13*%
X195204420Y-134400000D02*
X195485580Y-134400000D01*
X195204420Y-135420000D02*
X195485580Y-135420000D01*
%TO.C,C8*%
X201758781Y-141670030D02*
X201559970Y-141471219D01*
X202480030Y-140948781D02*
X202281219Y-140749970D01*
%TO.C,R22*%
X164507742Y-137387500D02*
X164982258Y-137387500D01*
X164507742Y-138432500D02*
X164982258Y-138432500D01*
%TO.C,R6*%
X166582742Y-134087500D02*
X167057258Y-134087500D01*
X166582742Y-135132500D02*
X167057258Y-135132500D01*
%TO.C,C14*%
X208058781Y-148370030D02*
X207859970Y-148171219D01*
X208780030Y-147648781D02*
X208581219Y-147449970D01*
%TO.C,R7*%
X185557742Y-135687500D02*
X186032258Y-135687500D01*
X185557742Y-136732500D02*
X186032258Y-136732500D01*
%TO.C,C1*%
X161222580Y-93540000D02*
X160941420Y-93540000D01*
X161222580Y-92520000D02*
X160941420Y-92520000D01*
%TO.C,C2*%
X156567000Y-91295580D02*
X156567000Y-91014420D01*
X155547000Y-91295580D02*
X155547000Y-91014420D01*
D10*
%TO.C,IMU_Conn1*%
X164582000Y-84980000D02*
X164582000Y-86980000D01*
X154582000Y-84980000D02*
X154582000Y-86980000D01*
D13*
%TO.C,U1*%
X160917000Y-91702500D02*
X160917000Y-91327500D01*
X160917000Y-88782500D02*
X160917000Y-89457500D01*
X160742000Y-88782500D02*
X160917000Y-88782500D01*
X158372000Y-92002500D02*
X158197000Y-92002500D01*
X158372000Y-88782500D02*
X158197000Y-88782500D01*
X158197000Y-92002500D02*
X158197000Y-91327500D01*
X158197000Y-88782500D02*
X158197000Y-89457500D01*
X161107000Y-92142500D02*
X160917000Y-92002500D01*
X161107000Y-91862500D01*
X161107000Y-92142500D01*
G36*
X161107000Y-92142500D02*
G01*
X160917000Y-92002500D01*
X161107000Y-91862500D01*
X161107000Y-92142500D01*
G37*
%TD*%
M02*
