%TF.GenerationSoftware,KiCad,Pcbnew,8.0.4*%
%TF.CreationDate,2024-11-30T23:44:48+01:00*%
%TF.ProjectId,ALL_PCBS,414c4c5f-5043-4425-932e-6b696361645f,rev?*%
%TF.SameCoordinates,Original*%
%TF.FileFunction,Paste,Bot*%
%TF.FilePolarity,Positive*%
%FSLAX46Y46*%
G04 Gerber Fmt 4.6, Leading zero omitted, Abs format (unit mm)*
G04 Created by KiCad (PCBNEW 8.0.4) date 2024-11-30 23:44:48*
%MOMM*%
%LPD*%
G01*
G04 APERTURE LIST*
G04 Aperture macros list*
%AMRoundRect*
0 Rectangle with rounded corners*
0 $1 Rounding radius*
0 $2 $3 $4 $5 $6 $7 $8 $9 X,Y pos of 4 corners*
0 Add a 4 corners polygon primitive as box body*
4,1,4,$2,$3,$4,$5,$6,$7,$8,$9,$2,$3,0*
0 Add four circle primitives for the rounded corners*
1,1,$1+$1,$2,$3*
1,1,$1+$1,$4,$5*
1,1,$1+$1,$6,$7*
1,1,$1+$1,$8,$9*
0 Add four rect primitives between the rounded corners*
20,1,$1+$1,$2,$3,$4,$5,0*
20,1,$1+$1,$4,$5,$6,$7,0*
20,1,$1+$1,$6,$7,$8,$9,0*
20,1,$1+$1,$8,$9,$2,$3,0*%
G04 Aperture macros list end*
%ADD10RoundRect,0.250000X-0.750000X-0.250000X0.750000X-0.250000X0.750000X0.250000X-0.750000X0.250000X0*%
%ADD11RoundRect,0.100000X0.100000X-0.637500X0.100000X0.637500X-0.100000X0.637500X-0.100000X-0.637500X0*%
%ADD12R,1.000000X1.800000*%
%ADD13RoundRect,0.225000X-0.250000X0.225000X-0.250000X-0.225000X0.250000X-0.225000X0.250000X0.225000X0*%
%ADD14RoundRect,0.225000X-0.225000X-0.250000X0.225000X-0.250000X0.225000X0.250000X-0.225000X0.250000X0*%
%ADD15RoundRect,0.225000X0.250000X-0.225000X0.250000X0.225000X-0.250000X0.225000X-0.250000X-0.225000X0*%
%ADD16RoundRect,0.225000X0.225000X0.250000X-0.225000X0.250000X-0.225000X-0.250000X0.225000X-0.250000X0*%
%ADD17R,0.450000X1.750000*%
%ADD18RoundRect,0.375000X0.375000X-0.625000X0.375000X0.625000X-0.375000X0.625000X-0.375000X-0.625000X0*%
%ADD19RoundRect,0.500000X1.400000X-0.500000X1.400000X0.500000X-1.400000X0.500000X-1.400000X-0.500000X0*%
%ADD20RoundRect,0.200000X-0.200000X-0.275000X0.200000X-0.275000X0.200000X0.275000X-0.200000X0.275000X0*%
%ADD21R,0.900000X0.800000*%
%ADD22R,1.800000X2.200000*%
%ADD23R,0.300000X1.300000*%
%ADD24RoundRect,0.075000X0.700000X0.075000X-0.700000X0.075000X-0.700000X-0.075000X0.700000X-0.075000X0*%
%ADD25RoundRect,0.075000X0.075000X0.700000X-0.075000X0.700000X-0.075000X-0.700000X0.075000X-0.700000X0*%
%ADD26RoundRect,0.200000X0.200000X0.275000X-0.200000X0.275000X-0.200000X-0.275000X0.200000X-0.275000X0*%
%ADD27RoundRect,0.175000X-0.175000X-0.625000X0.175000X-0.625000X0.175000X0.625000X-0.175000X0.625000X0*%
%ADD28RoundRect,0.300000X-0.300000X-0.800000X0.300000X-0.800000X0.300000X0.800000X-0.300000X0.800000X0*%
%ADD29RoundRect,0.350000X-0.450000X-0.350000X0.450000X-0.350000X0.450000X0.350000X-0.450000X0.350000X0*%
%ADD30RoundRect,0.300000X-0.300000X-0.400000X0.300000X-0.400000X0.300000X0.400000X-0.300000X0.400000X0*%
%ADD31RoundRect,0.218750X-0.218750X-0.256250X0.218750X-0.256250X0.218750X0.256250X-0.218750X0.256250X0*%
%ADD32RoundRect,0.150000X-0.587500X-0.150000X0.587500X-0.150000X0.587500X0.150000X-0.587500X0.150000X0*%
%ADD33RoundRect,0.200000X0.053033X-0.335876X0.335876X-0.053033X-0.053033X0.335876X-0.335876X0.053033X0*%
%ADD34RoundRect,0.200000X0.335876X0.053033X0.053033X0.335876X-0.335876X-0.053033X-0.053033X-0.335876X0*%
%ADD35RoundRect,0.225000X-0.017678X0.335876X-0.335876X0.017678X0.017678X-0.335876X0.335876X-0.017678X0*%
%ADD36RoundRect,0.200000X-0.335876X-0.053033X-0.053033X-0.335876X0.335876X0.053033X0.053033X0.335876X0*%
%ADD37RoundRect,0.225000X-0.335876X-0.017678X-0.017678X-0.335876X0.335876X0.017678X0.017678X0.335876X0*%
%ADD38RoundRect,0.375000X-0.375000X0.875000X-0.375000X-0.875000X0.375000X-0.875000X0.375000X0.875000X0*%
%ADD39RoundRect,0.087500X0.087500X-0.225000X0.087500X0.225000X-0.087500X0.225000X-0.087500X-0.225000X0*%
%ADD40RoundRect,0.087500X0.225000X-0.087500X0.225000X0.087500X-0.225000X0.087500X-0.225000X-0.087500X0*%
G04 APERTURE END LIST*
D10*
%TO.C,Encoder_L2*%
X222410000Y-88080000D03*
X222410000Y-89580000D03*
X222410000Y-91080000D03*
X222410000Y-92580000D03*
%TD*%
D11*
%TO.C,Encoder_L1*%
X228860000Y-93192500D03*
X228210000Y-93192500D03*
X227560000Y-93192500D03*
X226910000Y-93192500D03*
X226260000Y-93192500D03*
X225610000Y-93192500D03*
X224960000Y-93192500D03*
X224960000Y-87467500D03*
X225610000Y-87467500D03*
X226260000Y-87467500D03*
X226910000Y-87467500D03*
X227560000Y-87467500D03*
X228210000Y-87467500D03*
X228860000Y-87467500D03*
%TD*%
D10*
%TO.C,Encoder_L2*%
X90680000Y-88080000D03*
X90680000Y-89580000D03*
X90680000Y-91080000D03*
X90680000Y-92580000D03*
%TD*%
D11*
%TO.C,Encoder_L1*%
X97130000Y-93192500D03*
X96480000Y-93192500D03*
X95830000Y-93192500D03*
X95180000Y-93192500D03*
X94530000Y-93192500D03*
X93880000Y-93192500D03*
X93230000Y-93192500D03*
X93230000Y-87467500D03*
X93880000Y-87467500D03*
X94530000Y-87467500D03*
X95180000Y-87467500D03*
X95830000Y-87467500D03*
X96480000Y-87467500D03*
X97130000Y-87467500D03*
%TD*%
D12*
%TO.C,X2*%
X169480000Y-107870000D03*
X166980000Y-107870000D03*
%TD*%
D13*
%TO.C,C11*%
X166930000Y-104295000D03*
X166930000Y-105845000D03*
%TD*%
D14*
%TO.C,C1*%
X163705000Y-117945000D03*
X165255000Y-117945000D03*
%TD*%
%TO.C,C17*%
X200989000Y-120568000D03*
X202539000Y-120568000D03*
%TD*%
%TO.C,C16*%
X134605000Y-107470000D03*
X136155000Y-107470000D03*
%TD*%
D13*
%TO.C,C23*%
X109130000Y-111095000D03*
X109130000Y-112645000D03*
%TD*%
D15*
%TO.C,C18*%
X209580000Y-112945000D03*
X209580000Y-111395000D03*
%TD*%
D14*
%TO.C,C6*%
X162205000Y-106445000D03*
X163755000Y-106445000D03*
%TD*%
D16*
%TO.C,C20*%
X118230000Y-103020000D03*
X116680000Y-103020000D03*
%TD*%
D13*
%TO.C,C10*%
X169730000Y-112320000D03*
X169730000Y-113870000D03*
%TD*%
D16*
%TO.C,C15*%
X132305000Y-107445000D03*
X130755000Y-107445000D03*
%TD*%
D14*
%TO.C,C2*%
X154180000Y-120170000D03*
X155730000Y-120170000D03*
%TD*%
D16*
%TO.C,C8*%
X168180000Y-110570000D03*
X166630000Y-110570000D03*
%TD*%
%TO.C,C7*%
X150980000Y-107445000D03*
X149430000Y-107445000D03*
%TD*%
D14*
%TO.C,C5*%
X162205000Y-104945000D03*
X163755000Y-104945000D03*
%TD*%
D16*
%TO.C,C4*%
X151980000Y-118945000D03*
X150430000Y-118945000D03*
%TD*%
D17*
%TO.C,Driver L*%
X120455000Y-115470000D03*
X119805000Y-115470000D03*
X119155000Y-115470000D03*
X118505000Y-115470000D03*
X117855000Y-115470000D03*
X117205000Y-115470000D03*
X116555000Y-115470000D03*
X115905000Y-115470000D03*
X115255000Y-115470000D03*
X114605000Y-115470000D03*
X113955000Y-115470000D03*
X113305000Y-115470000D03*
X113305000Y-108270000D03*
X113955000Y-108270000D03*
X114605000Y-108270000D03*
X115255000Y-108270000D03*
X115905000Y-108270000D03*
X116555000Y-108270000D03*
X117205000Y-108270000D03*
X117855000Y-108270000D03*
X118505000Y-108270000D03*
X119155000Y-108270000D03*
X119805000Y-108270000D03*
X120455000Y-108270000D03*
%TD*%
D18*
%TO.C,U2*%
X129380000Y-104970000D03*
X127080000Y-104970000D03*
D19*
X127080000Y-98670000D03*
D18*
X124780000Y-104970000D03*
%TD*%
D20*
%TO.C,R11*%
X183330000Y-122345000D03*
X184980000Y-122345000D03*
%TD*%
D14*
%TO.C,C3*%
X154180000Y-121745000D03*
X155730000Y-121745000D03*
%TD*%
D13*
%TO.C,C12*%
X169530000Y-104295000D03*
X169530000Y-105845000D03*
%TD*%
D14*
%TO.C,C14*%
X127055000Y-107445000D03*
X128605000Y-107445000D03*
%TD*%
D18*
%TO.C,U3*%
X136905000Y-104995000D03*
X134605000Y-104995000D03*
D19*
X134605000Y-98695000D03*
D18*
X132305000Y-104995000D03*
%TD*%
D21*
%TO.C,X1*%
X168030000Y-113270000D03*
X166630000Y-113270000D03*
X166630000Y-112170000D03*
X168030000Y-112170000D03*
%TD*%
D13*
%TO.C,C24*%
X110830000Y-111070000D03*
X110830000Y-112620000D03*
%TD*%
D22*
%TO.C,GRUZIK3.0*%
X165280000Y-98470000D03*
X153480000Y-98470000D03*
D23*
X163380000Y-101720000D03*
X162880000Y-101720000D03*
X162380000Y-101720000D03*
X161880000Y-101720000D03*
X161380000Y-101720000D03*
X160880000Y-101720000D03*
X160380000Y-101720000D03*
X159880000Y-101720000D03*
X159380000Y-101720000D03*
X158880000Y-101720000D03*
X158380000Y-101720000D03*
X157880000Y-101720000D03*
X157380000Y-101720000D03*
X156880000Y-101720000D03*
X156380000Y-101720000D03*
X155880000Y-101720000D03*
X155380000Y-101720000D03*
%TD*%
D24*
%TO.C,U1*%
X162880000Y-108870000D03*
X162880000Y-109370000D03*
X162880000Y-109870000D03*
X162880000Y-110370000D03*
X162880000Y-110870000D03*
X162880000Y-111370000D03*
X162880000Y-111870000D03*
X162880000Y-112370000D03*
X162880000Y-112870000D03*
X162880000Y-113370000D03*
X162880000Y-113870000D03*
X162880000Y-114370000D03*
X162880000Y-114870000D03*
X162880000Y-115370000D03*
X162880000Y-115870000D03*
X162880000Y-116370000D03*
D25*
X160955000Y-118295000D03*
X160455000Y-118295000D03*
X159955000Y-118295000D03*
X159455000Y-118295000D03*
X158955000Y-118295000D03*
X158455000Y-118295000D03*
X157955000Y-118295000D03*
X157455000Y-118295000D03*
X156955000Y-118295000D03*
X156455000Y-118295000D03*
X155955000Y-118295000D03*
X155455000Y-118295000D03*
X154955000Y-118295000D03*
X154455000Y-118295000D03*
X153955000Y-118295000D03*
X153455000Y-118295000D03*
D24*
X151530000Y-116370000D03*
X151530000Y-115870000D03*
X151530000Y-115370000D03*
X151530000Y-114870000D03*
X151530000Y-114370000D03*
X151530000Y-113870000D03*
X151530000Y-113370000D03*
X151530000Y-112870000D03*
X151530000Y-112370000D03*
X151530000Y-111870000D03*
X151530000Y-111370000D03*
X151530000Y-110870000D03*
X151530000Y-110370000D03*
X151530000Y-109870000D03*
X151530000Y-109370000D03*
X151530000Y-108870000D03*
D25*
X153455000Y-106945000D03*
X153955000Y-106945000D03*
X154455000Y-106945000D03*
X154955000Y-106945000D03*
X155455000Y-106945000D03*
X155955000Y-106945000D03*
X156455000Y-106945000D03*
X156955000Y-106945000D03*
X157455000Y-106945000D03*
X157955000Y-106945000D03*
X158455000Y-106945000D03*
X158955000Y-106945000D03*
X159455000Y-106945000D03*
X159955000Y-106945000D03*
X160455000Y-106945000D03*
X160955000Y-106945000D03*
%TD*%
D26*
%TO.C,R12*%
X184980000Y-120345000D03*
X183330000Y-120345000D03*
%TD*%
D17*
%TO.C,Driver R*%
X198305000Y-108270000D03*
X198955000Y-108270000D03*
X199605000Y-108270000D03*
X200255000Y-108270000D03*
X200905000Y-108270000D03*
X201555000Y-108270000D03*
X202205000Y-108270000D03*
X202855000Y-108270000D03*
X203505000Y-108270000D03*
X204155000Y-108270000D03*
X204805000Y-108270000D03*
X205455000Y-108270000D03*
X205455000Y-115470000D03*
X204805000Y-115470000D03*
X204155000Y-115470000D03*
X203505000Y-115470000D03*
X202855000Y-115470000D03*
X202205000Y-115470000D03*
X201555000Y-115470000D03*
X200905000Y-115470000D03*
X200255000Y-115470000D03*
X199605000Y-115470000D03*
X198955000Y-115470000D03*
X198305000Y-115470000D03*
%TD*%
D27*
%TO.C,SD_Card*%
X130680000Y-112370000D03*
X131780000Y-112370000D03*
X132880000Y-112370000D03*
X133980000Y-112370000D03*
X135080000Y-112370000D03*
X136180000Y-112370000D03*
X137280000Y-112370000D03*
X138380000Y-112370000D03*
X139480000Y-112370000D03*
D28*
X125180000Y-122470000D03*
D29*
X126080000Y-112870000D03*
D30*
X140680000Y-112870000D03*
D28*
X140680000Y-122470000D03*
%TD*%
D16*
%TO.C,C13*%
X124780000Y-107320000D03*
X123230000Y-107320000D03*
%TD*%
D15*
%TO.C,C19*%
X207580000Y-112945000D03*
X207580000Y-111395000D03*
%TD*%
D31*
%TO.C,L1*%
X154180000Y-123320000D03*
X155755000Y-123320000D03*
%TD*%
D16*
%TO.C,C2*%
X171695000Y-136310000D03*
X170145000Y-136310000D03*
%TD*%
D32*
%TO.C,Q1*%
X161869500Y-139832000D03*
X159994500Y-140782000D03*
X159994500Y-138882000D03*
%TD*%
D16*
%TO.C,C1*%
X171720000Y-137885000D03*
X170170000Y-137885000D03*
%TD*%
D33*
%TO.C,R3*%
X122036637Y-146293363D03*
X123203363Y-145126637D03*
%TD*%
D34*
%TO.C,R20*%
X204153363Y-148243363D03*
X202986637Y-147076637D03*
%TD*%
D26*
%TO.C,R21*%
X165570000Y-139660000D03*
X163920000Y-139660000D03*
%TD*%
D20*
%TO.C,R17*%
X156495000Y-134810000D03*
X158145000Y-134810000D03*
%TD*%
%TO.C,R12*%
X170495000Y-130210000D03*
X172145000Y-130210000D03*
%TD*%
%TO.C,R4*%
X127995000Y-136510000D03*
X129645000Y-136510000D03*
%TD*%
D14*
%TO.C,C11*%
X156545000Y-132910000D03*
X158095000Y-132910000D03*
%TD*%
D16*
%TO.C,C7*%
X186595000Y-134660000D03*
X185045000Y-134660000D03*
%TD*%
D20*
%TO.C,R5*%
X148745000Y-134910000D03*
X150395000Y-134910000D03*
%TD*%
D16*
%TO.C,C6*%
X167595000Y-132910000D03*
X166045000Y-132910000D03*
%TD*%
D20*
%TO.C,R13*%
X189745000Y-132485000D03*
X191395000Y-132485000D03*
%TD*%
D26*
%TO.C,R19*%
X196145000Y-136410000D03*
X194495000Y-136410000D03*
%TD*%
D20*
%TO.C,R11*%
X151745000Y-130410000D03*
X153395000Y-130410000D03*
%TD*%
D35*
%TO.C,C3*%
X116368008Y-147361992D03*
X115271992Y-148458008D03*
%TD*%
D33*
%TO.C,R15*%
X126828274Y-141251726D03*
X127995000Y-140085000D03*
%TD*%
D14*
%TO.C,C10*%
X137545000Y-134910000D03*
X139095000Y-134910000D03*
%TD*%
D34*
%TO.C,R8*%
X198903363Y-141493363D03*
X197736637Y-140326637D03*
%TD*%
D36*
%TO.C,R14*%
X206236637Y-142326637D03*
X207403363Y-143493363D03*
%TD*%
D20*
%TO.C,R16*%
X138820000Y-136910000D03*
X140470000Y-136910000D03*
%TD*%
D14*
%TO.C,C4*%
X128045000Y-134910000D03*
X129595000Y-134910000D03*
%TD*%
D16*
%TO.C,C12*%
X177095000Y-132660000D03*
X175545000Y-132660000D03*
%TD*%
D14*
%TO.C,C5*%
X147045000Y-132910000D03*
X148595000Y-132910000D03*
%TD*%
D33*
%TO.C,R9*%
X116736637Y-143493363D03*
X117903363Y-142326637D03*
%TD*%
D20*
%TO.C,R23*%
X156495000Y-140810000D03*
X158145000Y-140810000D03*
%TD*%
%TO.C,R10*%
X132745000Y-132485000D03*
X134395000Y-132485000D03*
%TD*%
D26*
%TO.C,R18*%
X177145000Y-134910000D03*
X175495000Y-134910000D03*
%TD*%
D35*
%TO.C,C9*%
X122868008Y-140861992D03*
X121771992Y-141958008D03*
%TD*%
D16*
%TO.C,C13*%
X196120000Y-134910000D03*
X194570000Y-134910000D03*
%TD*%
D37*
%TO.C,C8*%
X201471992Y-140661992D03*
X202568008Y-141758008D03*
%TD*%
D26*
%TO.C,R22*%
X165570000Y-137910000D03*
X163920000Y-137910000D03*
%TD*%
%TO.C,R6*%
X167645000Y-134610000D03*
X165995000Y-134610000D03*
%TD*%
D37*
%TO.C,C14*%
X207771992Y-147361992D03*
X208868008Y-148458008D03*
%TD*%
D26*
%TO.C,R7*%
X186620000Y-136210000D03*
X184970000Y-136210000D03*
%TD*%
D14*
%TO.C,C1*%
X160307000Y-93030000D03*
X161857000Y-93030000D03*
%TD*%
D13*
%TO.C,C2*%
X156057000Y-90380000D03*
X156057000Y-91930000D03*
%TD*%
D38*
%TO.C,IMU_Conn1*%
X155582000Y-85980000D03*
X157582000Y-85980000D03*
X159582000Y-85980000D03*
X161582000Y-85980000D03*
X163582000Y-85980000D03*
%TD*%
D39*
%TO.C,U1*%
X160307000Y-91555000D03*
X159807000Y-91555000D03*
X159307000Y-91555000D03*
X158807000Y-91555000D03*
D40*
X158644500Y-90892500D03*
X158644500Y-90392500D03*
X158644500Y-89892500D03*
D39*
X158807000Y-89230000D03*
X159307000Y-89230000D03*
X159807000Y-89230000D03*
X160307000Y-89230000D03*
D40*
X160469500Y-89892500D03*
X160469500Y-90392500D03*
X160469500Y-90892500D03*
%TD*%
M02*
