%TF.GenerationSoftware,KiCad,Pcbnew,8.0.4*%
%TF.CreationDate,2024-11-30T23:44:53+01:00*%
%TF.ProjectId,ALL_PCBS,414c4c5f-5043-4425-932e-6b696361645f,rev?*%
%TF.SameCoordinates,Original*%
%TF.FileFunction,Plated,1,4,PTH,Drill*%
%TF.FilePolarity,Positive*%
%FSLAX46Y46*%
G04 Gerber Fmt 4.6, Leading zero omitted, Abs format (unit mm)*
G04 Created by KiCad (PCBNEW 8.0.4) date 2024-11-30 23:44:53*
%MOMM*%
%LPD*%
G01*
G04 APERTURE LIST*
%TA.AperFunction,ViaDrill*%
%ADD10C,0.260000*%
%TD*%
%TA.AperFunction,ViaDrill*%
%ADD11C,0.300000*%
%TD*%
%TA.AperFunction,ViaDrill*%
%ADD12C,0.400000*%
%TD*%
%TA.AperFunction,ComponentDrill*%
%ADD13C,1.000000*%
%TD*%
G04 APERTURE END LIST*
D10*
X144005000Y-109920000D03*
X146180000Y-108845000D03*
X152980000Y-110570000D03*
X153005000Y-111470000D03*
X153180000Y-120170000D03*
X153180000Y-121370000D03*
X154342500Y-112182500D03*
X154480000Y-113845000D03*
X154580000Y-104970000D03*
X154673413Y-104163413D03*
X154880000Y-111570000D03*
X155684722Y-114945000D03*
X158730000Y-109670000D03*
X159205000Y-113270000D03*
X160117347Y-111907347D03*
X160680000Y-115770000D03*
X160830000Y-113770000D03*
X161380000Y-108345000D03*
X161480000Y-116670000D03*
X174980000Y-112632347D03*
X177348769Y-99025595D03*
X177380000Y-99870000D03*
X177430000Y-100745000D03*
X188805000Y-112745000D03*
X201510000Y-118028000D03*
D11*
X92180000Y-88080000D03*
X92180000Y-89580000D03*
X92180000Y-91080000D03*
X92180000Y-92580000D03*
X93930000Y-90630000D03*
X94930000Y-90330000D03*
X95855000Y-88905000D03*
X95950000Y-90450000D03*
X109270000Y-121060000D03*
X112230000Y-118200000D03*
X112620000Y-147410000D03*
X113055000Y-112645000D03*
X113130000Y-121070000D03*
X113320000Y-118200000D03*
X113830000Y-112420000D03*
X114410000Y-118200000D03*
X114720000Y-151110000D03*
X115105000Y-112470000D03*
X115105000Y-113520000D03*
X115605000Y-103045000D03*
X116120000Y-145410000D03*
X116655000Y-98020000D03*
X118360000Y-118200000D03*
X119020000Y-142010000D03*
X119220000Y-140810000D03*
X119355000Y-103020000D03*
X119540000Y-118210000D03*
X120570000Y-118200000D03*
X121120000Y-145410000D03*
X121655000Y-101845000D03*
X121655000Y-102670000D03*
X121655000Y-103920000D03*
X122210000Y-107320000D03*
X122705000Y-104970000D03*
X123520000Y-142310000D03*
X123830000Y-114845000D03*
X124320000Y-144010000D03*
X125820000Y-140210000D03*
X128020000Y-135710000D03*
X128220000Y-132410000D03*
X129380000Y-103460000D03*
X129390000Y-102570000D03*
X129710000Y-107470000D03*
X131220000Y-137310000D03*
X131920000Y-135510000D03*
X132220000Y-134210000D03*
X133980000Y-113870000D03*
X135220000Y-134010000D03*
X137520000Y-136010000D03*
X138620000Y-132410000D03*
X138690000Y-105000000D03*
X139070000Y-114000000D03*
X140090000Y-98820000D03*
X140180000Y-104460000D03*
X140820000Y-99550000D03*
X140970000Y-103630000D03*
X141430000Y-100150000D03*
X141820000Y-135610000D03*
X141920000Y-136810000D03*
X143020000Y-132510000D03*
X145880000Y-116745000D03*
X146920000Y-130410000D03*
X147320000Y-133910000D03*
X147455000Y-105395000D03*
X148330000Y-103995000D03*
X150510000Y-106120000D03*
X151120000Y-133410000D03*
X152120000Y-135610000D03*
X154220000Y-132010000D03*
X154930000Y-98620000D03*
X155020000Y-137510000D03*
X156520000Y-133910000D03*
X157445000Y-139310000D03*
X158120000Y-130410000D03*
X158920000Y-140810000D03*
X159155000Y-123070000D03*
X160410000Y-124950000D03*
X160620000Y-133610000D03*
X161460000Y-124970000D03*
X161620000Y-136010000D03*
X161820000Y-134810000D03*
X162420000Y-132910000D03*
X162460000Y-124970000D03*
X162830000Y-122195000D03*
X163720000Y-135910000D03*
X165120000Y-140910000D03*
X166070000Y-140710000D03*
X166270000Y-117970000D03*
X166620000Y-130160000D03*
X167220000Y-138910000D03*
X167620000Y-133810000D03*
X168205000Y-102920000D03*
X168620000Y-140610000D03*
X168990000Y-109800000D03*
X170320000Y-133210000D03*
X170320000Y-134510000D03*
X170520000Y-132210000D03*
X170950000Y-112860000D03*
X171555000Y-106020000D03*
X171920000Y-131610000D03*
X174220000Y-135616980D03*
X174230000Y-114145000D03*
X174910000Y-105860000D03*
X174910000Y-107750000D03*
X175020000Y-137510000D03*
X175890000Y-107880000D03*
X175900000Y-105810000D03*
X176005000Y-120170000D03*
X176020000Y-130160000D03*
X176720000Y-137410000D03*
X177120000Y-133810000D03*
X177120000Y-136310000D03*
X179820000Y-133510000D03*
X181020000Y-135610000D03*
X181120000Y-131910000D03*
X181530000Y-114145000D03*
X181670000Y-123580000D03*
X182070000Y-119740000D03*
X184320000Y-132510000D03*
X186620000Y-135410000D03*
X188650000Y-123590000D03*
X189320000Y-135110000D03*
X189450000Y-125370000D03*
X191720000Y-133710000D03*
X195320000Y-132410000D03*
X195505000Y-97895000D03*
X195610000Y-126160000D03*
X196120000Y-135710000D03*
X196755000Y-101245000D03*
X197720000Y-138110000D03*
X198350000Y-105330000D03*
X198520000Y-135510000D03*
X199230000Y-105330000D03*
X199620000Y-144010000D03*
X200180000Y-105330000D03*
X200834492Y-141324492D03*
X202020000Y-138610000D03*
X202290000Y-110660000D03*
X203360000Y-110660000D03*
X203620000Y-145010000D03*
X204050000Y-105330000D03*
X204920000Y-145610000D03*
X204930000Y-105330000D03*
X205020000Y-147410000D03*
X205040000Y-110660000D03*
X205320000Y-143210000D03*
X205355000Y-123570000D03*
X205420000Y-119730000D03*
X205440000Y-118390000D03*
X205455000Y-117230000D03*
X205830000Y-105330000D03*
X209420000Y-145310000D03*
X211820000Y-148310000D03*
X223910000Y-88080000D03*
X223910000Y-89580000D03*
X223910000Y-91080000D03*
X223910000Y-92580000D03*
X225660000Y-90630000D03*
X226660000Y-90330000D03*
X227585000Y-88905000D03*
X227680000Y-90450000D03*
D12*
X116280000Y-106270000D03*
X117205000Y-105495000D03*
X118280000Y-106245000D03*
X122990000Y-112650000D03*
X147480000Y-117070000D03*
X149430000Y-108470000D03*
X149805000Y-116995000D03*
X150430000Y-120095000D03*
X150730000Y-122220000D03*
X151630000Y-120620000D03*
X151780000Y-103170000D03*
X151780000Y-105570000D03*
X153605000Y-116295000D03*
X153860000Y-114690000D03*
X154468000Y-102482000D03*
X155357000Y-89680000D03*
X157332000Y-92830000D03*
X158017000Y-87730000D03*
X158080000Y-122670000D03*
X159557000Y-88005000D03*
X160792653Y-105382653D03*
X162032000Y-90105000D03*
X162405625Y-103769344D03*
X162907000Y-93005000D03*
X163755571Y-103745026D03*
X164282000Y-88655000D03*
X165405000Y-119070000D03*
X165480000Y-112632347D03*
X165830000Y-103870000D03*
X165842500Y-101557500D03*
X170480000Y-117040000D03*
X174530000Y-119770000D03*
X175530000Y-114045000D03*
X181505000Y-121295000D03*
X183080000Y-104245000D03*
X189050000Y-121870000D03*
X189990000Y-121030000D03*
X194855000Y-110470000D03*
X199732000Y-120568000D03*
X200494000Y-117520000D03*
X202780000Y-117266000D03*
X203796000Y-120568000D03*
D13*
%TO.C,P4*%
X109880000Y-98870000D03*
%TO.C,P3*%
X109880000Y-124870000D03*
%TO.C,+VIN-*%
X165490000Y-124960000D03*
X168030000Y-124960000D03*
%TO.C,P1*%
X208880000Y-98870000D03*
%TO.C,P2*%
X208880000Y-124870000D03*
M02*
