%TF.GenerationSoftware,KiCad,Pcbnew,8.0.4*%
%TF.CreationDate,2024-11-30T13:52:58+01:00*%
%TF.ProjectId,ALL_PCBS,414c4c5f-5043-4425-932e-6b696361645f,rev?*%
%TF.SameCoordinates,Original*%
%TF.FileFunction,Paste,Bot*%
%TF.FilePolarity,Positive*%
%FSLAX46Y46*%
G04 Gerber Fmt 4.6, Leading zero omitted, Abs format (unit mm)*
G04 Created by KiCad (PCBNEW 8.0.4) date 2024-11-30 13:52:58*
%MOMM*%
%LPD*%
G01*
G04 APERTURE LIST*
G04 Aperture macros list*
%AMRoundRect*
0 Rectangle with rounded corners*
0 $1 Rounding radius*
0 $2 $3 $4 $5 $6 $7 $8 $9 X,Y pos of 4 corners*
0 Add a 4 corners polygon primitive as box body*
4,1,4,$2,$3,$4,$5,$6,$7,$8,$9,$2,$3,0*
0 Add four circle primitives for the rounded corners*
1,1,$1+$1,$2,$3*
1,1,$1+$1,$4,$5*
1,1,$1+$1,$6,$7*
1,1,$1+$1,$8,$9*
0 Add four rect primitives between the rounded corners*
20,1,$1+$1,$2,$3,$4,$5,0*
20,1,$1+$1,$4,$5,$6,$7,0*
20,1,$1+$1,$6,$7,$8,$9,0*
20,1,$1+$1,$8,$9,$2,$3,0*%
G04 Aperture macros list end*
%ADD10RoundRect,0.225000X-0.225000X-0.250000X0.225000X-0.250000X0.225000X0.250000X-0.225000X0.250000X0*%
%ADD11RoundRect,0.200000X-0.200000X-0.275000X0.200000X-0.275000X0.200000X0.275000X-0.200000X0.275000X0*%
%ADD12RoundRect,0.225000X0.225000X0.250000X-0.225000X0.250000X-0.225000X-0.250000X0.225000X-0.250000X0*%
%ADD13RoundRect,0.375000X0.375000X-0.625000X0.375000X0.625000X-0.375000X0.625000X-0.375000X-0.625000X0*%
%ADD14RoundRect,0.500000X1.400000X-0.500000X1.400000X0.500000X-1.400000X0.500000X-1.400000X-0.500000X0*%
%ADD15RoundRect,0.075000X0.700000X0.075000X-0.700000X0.075000X-0.700000X-0.075000X0.700000X-0.075000X0*%
%ADD16RoundRect,0.075000X0.075000X0.700000X-0.075000X0.700000X-0.075000X-0.700000X0.075000X-0.700000X0*%
%ADD17RoundRect,0.225000X-0.250000X0.225000X-0.250000X-0.225000X0.250000X-0.225000X0.250000X0.225000X0*%
%ADD18R,0.900000X0.800000*%
%ADD19RoundRect,0.375000X-0.375000X0.875000X-0.375000X-0.875000X0.375000X-0.875000X0.375000X0.875000X0*%
%ADD20RoundRect,0.100000X0.100000X-0.637500X0.100000X0.637500X-0.100000X0.637500X-0.100000X-0.637500X0*%
%ADD21R,1.000000X1.800000*%
%ADD22RoundRect,0.250000X-0.750000X-0.250000X0.750000X-0.250000X0.750000X0.250000X-0.750000X0.250000X0*%
%ADD23RoundRect,0.200000X0.200000X0.275000X-0.200000X0.275000X-0.200000X-0.275000X0.200000X-0.275000X0*%
%ADD24RoundRect,0.218750X-0.218750X-0.256250X0.218750X-0.256250X0.218750X0.256250X-0.218750X0.256250X0*%
%ADD25R,0.300000X1.300000*%
%ADD26R,1.800000X2.200000*%
%ADD27RoundRect,0.250000X0.750000X0.250000X-0.750000X0.250000X-0.750000X-0.250000X0.750000X-0.250000X0*%
%ADD28RoundRect,0.225000X0.250000X-0.225000X0.250000X0.225000X-0.250000X0.225000X-0.250000X-0.225000X0*%
%ADD29RoundRect,0.087500X0.087500X-0.225000X0.087500X0.225000X-0.087500X0.225000X-0.087500X-0.225000X0*%
%ADD30RoundRect,0.087500X0.225000X-0.087500X0.225000X0.087500X-0.225000X0.087500X-0.225000X-0.087500X0*%
%ADD31R,0.450000X1.750000*%
%ADD32RoundRect,0.175000X-0.175000X-0.625000X0.175000X-0.625000X0.175000X0.625000X-0.175000X0.625000X0*%
%ADD33RoundRect,0.300000X-0.300000X-0.800000X0.300000X-0.800000X0.300000X0.800000X-0.300000X0.800000X0*%
%ADD34RoundRect,0.350000X-0.450000X-0.350000X0.450000X-0.350000X0.450000X0.350000X-0.450000X0.350000X0*%
%ADD35RoundRect,0.300000X-0.300000X-0.400000X0.300000X-0.400000X0.300000X0.400000X-0.300000X0.400000X0*%
%ADD36RoundRect,0.100000X-0.100000X0.637500X-0.100000X-0.637500X0.100000X-0.637500X0.100000X0.637500X0*%
G04 APERTURE END LIST*
D10*
%TO.C,C1*%
X167625000Y-125275000D03*
X169175000Y-125275000D03*
%TD*%
D11*
%TO.C,R11*%
X187250000Y-129675000D03*
X188900000Y-129675000D03*
%TD*%
D12*
%TO.C,C13*%
X128700000Y-114650000D03*
X127150000Y-114650000D03*
%TD*%
D13*
%TO.C,U2*%
X133300000Y-112300000D03*
X131000000Y-112300000D03*
D14*
X131000000Y-106000000D03*
D13*
X128700000Y-112300000D03*
%TD*%
D15*
%TO.C,U1*%
X166800000Y-116200000D03*
X166800000Y-116700000D03*
X166800000Y-117200000D03*
X166800000Y-117700000D03*
X166800000Y-118200000D03*
X166800000Y-118700000D03*
X166800000Y-119200000D03*
X166800000Y-119700000D03*
X166800000Y-120200000D03*
X166800000Y-120700000D03*
X166800000Y-121200000D03*
X166800000Y-121700000D03*
X166800000Y-122200000D03*
X166800000Y-122700000D03*
X166800000Y-123200000D03*
X166800000Y-123700000D03*
D16*
X164875000Y-125625000D03*
X164375000Y-125625000D03*
X163875000Y-125625000D03*
X163375000Y-125625000D03*
X162875000Y-125625000D03*
X162375000Y-125625000D03*
X161875000Y-125625000D03*
X161375000Y-125625000D03*
X160875000Y-125625000D03*
X160375000Y-125625000D03*
X159875000Y-125625000D03*
X159375000Y-125625000D03*
X158875000Y-125625000D03*
X158375000Y-125625000D03*
X157875000Y-125625000D03*
X157375000Y-125625000D03*
D15*
X155450000Y-123700000D03*
X155450000Y-123200000D03*
X155450000Y-122700000D03*
X155450000Y-122200000D03*
X155450000Y-121700000D03*
X155450000Y-121200000D03*
X155450000Y-120700000D03*
X155450000Y-120200000D03*
X155450000Y-119700000D03*
X155450000Y-119200000D03*
X155450000Y-118700000D03*
X155450000Y-118200000D03*
X155450000Y-117700000D03*
X155450000Y-117200000D03*
X155450000Y-116700000D03*
X155450000Y-116200000D03*
D16*
X157375000Y-114275000D03*
X157875000Y-114275000D03*
X158375000Y-114275000D03*
X158875000Y-114275000D03*
X159375000Y-114275000D03*
X159875000Y-114275000D03*
X160375000Y-114275000D03*
X160875000Y-114275000D03*
X161375000Y-114275000D03*
X161875000Y-114275000D03*
X162375000Y-114275000D03*
X162875000Y-114275000D03*
X163375000Y-114275000D03*
X163875000Y-114275000D03*
X164375000Y-114275000D03*
X164875000Y-114275000D03*
%TD*%
D10*
%TO.C,C1*%
X163650000Y-99900000D03*
X165200000Y-99900000D03*
%TD*%
%TO.C,C2*%
X158100000Y-127500000D03*
X159650000Y-127500000D03*
%TD*%
%TO.C,C16*%
X138525000Y-114800000D03*
X140075000Y-114800000D03*
%TD*%
%TO.C,C14*%
X130975000Y-114775000D03*
X132525000Y-114775000D03*
%TD*%
D12*
%TO.C,C8*%
X172100000Y-117900000D03*
X170550000Y-117900000D03*
%TD*%
D10*
%TO.C,C6*%
X166125000Y-113775000D03*
X167675000Y-113775000D03*
%TD*%
D17*
%TO.C,C10*%
X173650000Y-119650000D03*
X173650000Y-121200000D03*
%TD*%
D18*
%TO.C,X1*%
X171950000Y-120600000D03*
X170550000Y-120600000D03*
X170550000Y-119500000D03*
X171950000Y-119500000D03*
%TD*%
D19*
%TO.C,IMU_Conn1*%
X158925000Y-92850000D03*
X160925000Y-92850000D03*
X162925000Y-92850000D03*
X164925000Y-92850000D03*
X166925000Y-92850000D03*
%TD*%
D20*
%TO.C,Encoder_L1*%
X228650000Y-100062500D03*
X228000000Y-100062500D03*
X227350000Y-100062500D03*
X226700000Y-100062500D03*
X226050000Y-100062500D03*
X225400000Y-100062500D03*
X224750000Y-100062500D03*
X224750000Y-94337500D03*
X225400000Y-94337500D03*
X226050000Y-94337500D03*
X226700000Y-94337500D03*
X227350000Y-94337500D03*
X228000000Y-94337500D03*
X228650000Y-94337500D03*
%TD*%
D21*
%TO.C,X2*%
X173400000Y-115200000D03*
X170900000Y-115200000D03*
%TD*%
D17*
%TO.C,C23*%
X113050000Y-118425000D03*
X113050000Y-119975000D03*
%TD*%
D22*
%TO.C,Encoder_L2*%
X222200000Y-94950000D03*
X222200000Y-96450000D03*
X222200000Y-97950000D03*
X222200000Y-99450000D03*
%TD*%
D23*
%TO.C,R12*%
X188900000Y-127675000D03*
X187250000Y-127675000D03*
%TD*%
D24*
%TO.C,L1*%
X158100000Y-130650000D03*
X159675000Y-130650000D03*
%TD*%
D10*
%TO.C,C17*%
X204909000Y-127898000D03*
X206459000Y-127898000D03*
%TD*%
D25*
%TO.C,GRUZIK3.0*%
X159300000Y-109050000D03*
X159800000Y-109050000D03*
X160300000Y-109050000D03*
X160800000Y-109050000D03*
X161300000Y-109050000D03*
X161800000Y-109050000D03*
X162300000Y-109050000D03*
X162800000Y-109050000D03*
X163300000Y-109050000D03*
X163800000Y-109050000D03*
X164300000Y-109050000D03*
X164800000Y-109050000D03*
X165300000Y-109050000D03*
X165800000Y-109050000D03*
X166300000Y-109050000D03*
X166800000Y-109050000D03*
X167300000Y-109050000D03*
D26*
X157400000Y-105800000D03*
X169200000Y-105800000D03*
%TD*%
D27*
%TO.C,Encoder_L2*%
X104250000Y-99450000D03*
X104250000Y-97950000D03*
X104250000Y-96450000D03*
X104250000Y-94950000D03*
%TD*%
D10*
%TO.C,C3*%
X158100000Y-129075000D03*
X159650000Y-129075000D03*
%TD*%
D17*
%TO.C,C24*%
X114750000Y-118400000D03*
X114750000Y-119950000D03*
%TD*%
D28*
%TO.C,C18*%
X213500000Y-120275000D03*
X213500000Y-118725000D03*
%TD*%
D29*
%TO.C,U1*%
X163650000Y-98425000D03*
X163150000Y-98425000D03*
X162650000Y-98425000D03*
X162150000Y-98425000D03*
D30*
X161987500Y-97762500D03*
X161987500Y-97262500D03*
X161987500Y-96762500D03*
D29*
X162150000Y-96100000D03*
X162650000Y-96100000D03*
X163150000Y-96100000D03*
X163650000Y-96100000D03*
D30*
X163812500Y-96762500D03*
X163812500Y-97262500D03*
X163812500Y-97762500D03*
%TD*%
D12*
%TO.C,C20*%
X122150000Y-110350000D03*
X120600000Y-110350000D03*
%TD*%
%TO.C,C15*%
X136225000Y-114775000D03*
X134675000Y-114775000D03*
%TD*%
D17*
%TO.C,C2*%
X159400000Y-97250000D03*
X159400000Y-98800000D03*
%TD*%
D31*
%TO.C,Driver R*%
X202225000Y-115600000D03*
X202875000Y-115600000D03*
X203525000Y-115600000D03*
X204175000Y-115600000D03*
X204825000Y-115600000D03*
X205475000Y-115600000D03*
X206125000Y-115600000D03*
X206775000Y-115600000D03*
X207425000Y-115600000D03*
X208075000Y-115600000D03*
X208725000Y-115600000D03*
X209375000Y-115600000D03*
X209375000Y-122800000D03*
X208725000Y-122800000D03*
X208075000Y-122800000D03*
X207425000Y-122800000D03*
X206775000Y-122800000D03*
X206125000Y-122800000D03*
X205475000Y-122800000D03*
X204825000Y-122800000D03*
X204175000Y-122800000D03*
X203525000Y-122800000D03*
X202875000Y-122800000D03*
X202225000Y-122800000D03*
%TD*%
D12*
%TO.C,C7*%
X154900000Y-114775000D03*
X153350000Y-114775000D03*
%TD*%
D32*
%TO.C,SD_Card*%
X134600000Y-119700000D03*
X135700000Y-119700000D03*
X136800000Y-119700000D03*
X137900000Y-119700000D03*
X139000000Y-119700000D03*
X140100000Y-119700000D03*
X141200000Y-119700000D03*
X142300000Y-119700000D03*
X143400000Y-119700000D03*
D33*
X129100000Y-129800000D03*
D34*
X130000000Y-120200000D03*
D35*
X144600000Y-120200000D03*
D33*
X144600000Y-129800000D03*
%TD*%
D13*
%TO.C,U3*%
X140825000Y-112325000D03*
X138525000Y-112325000D03*
D14*
X138525000Y-106025000D03*
D13*
X136225000Y-112325000D03*
%TD*%
D31*
%TO.C,Driver L*%
X124375000Y-122800000D03*
X123725000Y-122800000D03*
X123075000Y-122800000D03*
X122425000Y-122800000D03*
X121775000Y-122800000D03*
X121125000Y-122800000D03*
X120475000Y-122800000D03*
X119825000Y-122800000D03*
X119175000Y-122800000D03*
X118525000Y-122800000D03*
X117875000Y-122800000D03*
X117225000Y-122800000D03*
X117225000Y-115600000D03*
X117875000Y-115600000D03*
X118525000Y-115600000D03*
X119175000Y-115600000D03*
X119825000Y-115600000D03*
X120475000Y-115600000D03*
X121125000Y-115600000D03*
X121775000Y-115600000D03*
X122425000Y-115600000D03*
X123075000Y-115600000D03*
X123725000Y-115600000D03*
X124375000Y-115600000D03*
%TD*%
D28*
%TO.C,C19*%
X211500000Y-120275000D03*
X211500000Y-118725000D03*
%TD*%
D10*
%TO.C,C5*%
X166125000Y-112275000D03*
X167675000Y-112275000D03*
%TD*%
D36*
%TO.C,Encoder_L1*%
X97800000Y-94337500D03*
X98450000Y-94337500D03*
X99100000Y-94337500D03*
X99750000Y-94337500D03*
X100400000Y-94337500D03*
X101050000Y-94337500D03*
X101700000Y-94337500D03*
X101700000Y-100062500D03*
X101050000Y-100062500D03*
X100400000Y-100062500D03*
X99750000Y-100062500D03*
X99100000Y-100062500D03*
X98450000Y-100062500D03*
X97800000Y-100062500D03*
%TD*%
D17*
%TO.C,C11*%
X170850000Y-111625000D03*
X170850000Y-113175000D03*
%TD*%
%TO.C,C12*%
X173450000Y-111625000D03*
X173450000Y-113175000D03*
%TD*%
D12*
%TO.C,C4*%
X155900000Y-126275000D03*
X154350000Y-126275000D03*
%TD*%
M02*
