%TF.GenerationSoftware,KiCad,Pcbnew,8.0.4*%
%TF.CreationDate,2024-11-30T13:52:58+01:00*%
%TF.ProjectId,ALL_PCBS,414c4c5f-5043-4425-932e-6b696361645f,rev?*%
%TF.SameCoordinates,Original*%
%TF.FileFunction,Legend,Top*%
%TF.FilePolarity,Positive*%
%FSLAX46Y46*%
G04 Gerber Fmt 4.6, Leading zero omitted, Abs format (unit mm)*
G04 Created by KiCad (PCBNEW 8.0.4) date 2024-11-30 13:52:58*
%MOMM*%
%LPD*%
G01*
G04 APERTURE LIST*
%ADD10C,0.100000*%
%ADD11C,0.160000*%
%ADD12C,0.150000*%
%ADD13C,0.130000*%
%ADD14C,0.170000*%
%ADD15C,0.200000*%
%ADD16C,0.250000*%
%ADD17C,0.120000*%
G04 APERTURE END LIST*
D10*
X225900000Y-100300000D02*
X225900000Y-94000000D01*
D11*
X222200000Y-96100000D02*
X222200000Y-96900000D01*
D12*
X183820000Y-105600000D02*
X183820000Y-105600000D01*
D10*
X225900000Y-94000000D02*
X227260000Y-94000000D01*
X100550000Y-100400000D02*
X99190000Y-100400000D01*
D12*
X183700000Y-105600000D02*
X182300000Y-105600000D01*
D13*
X153950000Y-129850000D02*
X152675000Y-129850000D01*
D10*
X183820000Y-110740000D02*
X183820000Y-105600000D01*
X168900000Y-130900000D02*
X172700000Y-130900000D01*
D12*
X183820000Y-105600000D02*
X183500000Y-105600000D01*
D13*
X152675000Y-129850000D02*
X152675000Y-133700000D01*
D10*
X227260000Y-94000000D02*
X227260000Y-100300000D01*
D11*
X158750000Y-126300000D02*
X159000000Y-126300000D01*
X167900000Y-126300000D02*
X159000000Y-126300000D01*
D13*
X152675000Y-133700000D02*
X153975000Y-133700000D01*
D10*
X99190000Y-94100000D02*
X100550000Y-94100000D01*
D13*
X153975000Y-133700000D02*
X153975000Y-129850000D01*
X202900000Y-128900000D02*
X202900000Y-130200000D01*
D10*
X168900000Y-129600000D02*
X168900000Y-130900000D01*
X99190000Y-100400000D02*
X99190000Y-94100000D01*
X161850000Y-126250000D02*
X161850000Y-124825000D01*
D12*
X183700000Y-109700000D02*
X183700000Y-105600000D01*
X182300000Y-109700000D02*
X183700000Y-109700000D01*
D13*
X205500000Y-130200000D02*
X205500000Y-128900000D01*
D10*
X153975000Y-129850000D02*
X153925000Y-129850000D01*
X161850000Y-124825000D02*
X164925000Y-124825000D01*
D12*
X182300000Y-105600000D02*
X182300000Y-109700000D01*
X183820000Y-105600000D02*
X183820000Y-110800000D01*
D10*
X100550000Y-94100000D02*
X100550000Y-100400000D01*
D11*
X104650000Y-99450000D02*
X103850000Y-99450000D01*
X221800000Y-94950000D02*
X222600000Y-94950000D01*
D10*
X227260000Y-100300000D02*
X225900000Y-100300000D01*
X164925000Y-124825000D02*
X164925000Y-126275000D01*
X172700000Y-130900000D02*
X172700000Y-129600000D01*
X172700000Y-129600000D02*
X168900000Y-129600000D01*
D13*
X205500000Y-128900000D02*
X202900000Y-128900000D01*
D11*
X104250000Y-98300000D02*
X104250000Y-97500000D01*
X168325000Y-126725000D02*
X167900000Y-126300000D01*
X222200000Y-94600000D02*
X222200000Y-95300000D01*
X104250000Y-99800000D02*
X104250000Y-99100000D01*
X158325000Y-126725000D02*
X158750000Y-126300000D01*
D14*
X164478840Y-91802318D02*
X164431220Y-91945175D01*
X164431220Y-91945175D02*
X164431220Y-92183270D01*
X164431220Y-92183270D02*
X164478840Y-92278508D01*
X164478840Y-92278508D02*
X164526459Y-92326127D01*
X164526459Y-92326127D02*
X164621697Y-92373746D01*
X164621697Y-92373746D02*
X164716935Y-92373746D01*
X164716935Y-92373746D02*
X164812173Y-92326127D01*
X164812173Y-92326127D02*
X164859792Y-92278508D01*
X164859792Y-92278508D02*
X164907411Y-92183270D01*
X164907411Y-92183270D02*
X164955030Y-91992794D01*
X164955030Y-91992794D02*
X165002649Y-91897556D01*
X165002649Y-91897556D02*
X165050268Y-91849937D01*
X165050268Y-91849937D02*
X165145506Y-91802318D01*
X165145506Y-91802318D02*
X165240744Y-91802318D01*
X165240744Y-91802318D02*
X165335982Y-91849937D01*
X165335982Y-91849937D02*
X165383601Y-91897556D01*
X165383601Y-91897556D02*
X165431220Y-91992794D01*
X165431220Y-91992794D02*
X165431220Y-92230889D01*
X165431220Y-92230889D02*
X165383601Y-92373746D01*
X164431220Y-92802318D02*
X165431220Y-92802318D01*
X165431220Y-92802318D02*
X165431220Y-93040413D01*
X165431220Y-93040413D02*
X165383601Y-93183270D01*
X165383601Y-93183270D02*
X165288363Y-93278508D01*
X165288363Y-93278508D02*
X165193125Y-93326127D01*
X165193125Y-93326127D02*
X165002649Y-93373746D01*
X165002649Y-93373746D02*
X164859792Y-93373746D01*
X164859792Y-93373746D02*
X164669316Y-93326127D01*
X164669316Y-93326127D02*
X164574078Y-93278508D01*
X164574078Y-93278508D02*
X164478840Y-93183270D01*
X164478840Y-93183270D02*
X164431220Y-93040413D01*
X164431220Y-93040413D02*
X164431220Y-92802318D01*
X164716935Y-93754699D02*
X164716935Y-94230889D01*
X164431220Y-93659461D02*
X165431220Y-93992794D01*
X165431220Y-93992794D02*
X164431220Y-94326127D01*
X161283601Y-92273746D02*
X161331220Y-92178508D01*
X161331220Y-92178508D02*
X161331220Y-92035651D01*
X161331220Y-92035651D02*
X161283601Y-91892794D01*
X161283601Y-91892794D02*
X161188363Y-91797556D01*
X161188363Y-91797556D02*
X161093125Y-91749937D01*
X161093125Y-91749937D02*
X160902649Y-91702318D01*
X160902649Y-91702318D02*
X160759792Y-91702318D01*
X160759792Y-91702318D02*
X160569316Y-91749937D01*
X160569316Y-91749937D02*
X160474078Y-91797556D01*
X160474078Y-91797556D02*
X160378840Y-91892794D01*
X160378840Y-91892794D02*
X160331220Y-92035651D01*
X160331220Y-92035651D02*
X160331220Y-92130889D01*
X160331220Y-92130889D02*
X160378840Y-92273746D01*
X160378840Y-92273746D02*
X160426459Y-92321365D01*
X160426459Y-92321365D02*
X160759792Y-92321365D01*
X160759792Y-92321365D02*
X160759792Y-92130889D01*
X160331220Y-92749937D02*
X161331220Y-92749937D01*
X161331220Y-92749937D02*
X160331220Y-93321365D01*
X160331220Y-93321365D02*
X161331220Y-93321365D01*
X160331220Y-93797556D02*
X161331220Y-93797556D01*
X161331220Y-93797556D02*
X161331220Y-94035651D01*
X161331220Y-94035651D02*
X161283601Y-94178508D01*
X161283601Y-94178508D02*
X161188363Y-94273746D01*
X161188363Y-94273746D02*
X161093125Y-94321365D01*
X161093125Y-94321365D02*
X160902649Y-94368984D01*
X160902649Y-94368984D02*
X160759792Y-94368984D01*
X160759792Y-94368984D02*
X160569316Y-94321365D01*
X160569316Y-94321365D02*
X160474078Y-94273746D01*
X160474078Y-94273746D02*
X160378840Y-94178508D01*
X160378840Y-94178508D02*
X160331220Y-94035651D01*
X160331220Y-94035651D02*
X160331220Y-93797556D01*
X120511428Y-117019969D02*
X120654285Y-117067588D01*
X120654285Y-117067588D02*
X120701904Y-117115207D01*
X120701904Y-117115207D02*
X120749523Y-117210445D01*
X120749523Y-117210445D02*
X120749523Y-117353302D01*
X120749523Y-117353302D02*
X120701904Y-117448540D01*
X120701904Y-117448540D02*
X120654285Y-117496160D01*
X120654285Y-117496160D02*
X120559047Y-117543779D01*
X120559047Y-117543779D02*
X120178095Y-117543779D01*
X120178095Y-117543779D02*
X120178095Y-116543779D01*
X120178095Y-116543779D02*
X120511428Y-116543779D01*
X120511428Y-116543779D02*
X120606666Y-116591398D01*
X120606666Y-116591398D02*
X120654285Y-116639017D01*
X120654285Y-116639017D02*
X120701904Y-116734255D01*
X120701904Y-116734255D02*
X120701904Y-116829493D01*
X120701904Y-116829493D02*
X120654285Y-116924731D01*
X120654285Y-116924731D02*
X120606666Y-116972350D01*
X120606666Y-116972350D02*
X120511428Y-117019969D01*
X120511428Y-117019969D02*
X120178095Y-117019969D01*
X206241428Y-121319969D02*
X206384285Y-121367588D01*
X206384285Y-121367588D02*
X206431904Y-121415207D01*
X206431904Y-121415207D02*
X206479523Y-121510445D01*
X206479523Y-121510445D02*
X206479523Y-121653302D01*
X206479523Y-121653302D02*
X206431904Y-121748540D01*
X206431904Y-121748540D02*
X206384285Y-121796160D01*
X206384285Y-121796160D02*
X206289047Y-121843779D01*
X206289047Y-121843779D02*
X205908095Y-121843779D01*
X205908095Y-121843779D02*
X205908095Y-120843779D01*
X205908095Y-120843779D02*
X206241428Y-120843779D01*
X206241428Y-120843779D02*
X206336666Y-120891398D01*
X206336666Y-120891398D02*
X206384285Y-120939017D01*
X206384285Y-120939017D02*
X206431904Y-121034255D01*
X206431904Y-121034255D02*
X206431904Y-121129493D01*
X206431904Y-121129493D02*
X206384285Y-121224731D01*
X206384285Y-121224731D02*
X206336666Y-121272350D01*
X206336666Y-121272350D02*
X206241428Y-121319969D01*
X206241428Y-121319969D02*
X205908095Y-121319969D01*
X162531220Y-91749937D02*
X163531220Y-91749937D01*
X162531220Y-92226127D02*
X163531220Y-92226127D01*
X163531220Y-92226127D02*
X162531220Y-92797555D01*
X162531220Y-92797555D02*
X163531220Y-92797555D01*
X163531220Y-93130889D02*
X163531220Y-93702317D01*
X162531220Y-93416603D02*
X163531220Y-93416603D01*
X166378840Y-91802318D02*
X166331220Y-91945175D01*
X166331220Y-91945175D02*
X166331220Y-92183270D01*
X166331220Y-92183270D02*
X166378840Y-92278508D01*
X166378840Y-92278508D02*
X166426459Y-92326127D01*
X166426459Y-92326127D02*
X166521697Y-92373746D01*
X166521697Y-92373746D02*
X166616935Y-92373746D01*
X166616935Y-92373746D02*
X166712173Y-92326127D01*
X166712173Y-92326127D02*
X166759792Y-92278508D01*
X166759792Y-92278508D02*
X166807411Y-92183270D01*
X166807411Y-92183270D02*
X166855030Y-91992794D01*
X166855030Y-91992794D02*
X166902649Y-91897556D01*
X166902649Y-91897556D02*
X166950268Y-91849937D01*
X166950268Y-91849937D02*
X167045506Y-91802318D01*
X167045506Y-91802318D02*
X167140744Y-91802318D01*
X167140744Y-91802318D02*
X167235982Y-91849937D01*
X167235982Y-91849937D02*
X167283601Y-91897556D01*
X167283601Y-91897556D02*
X167331220Y-91992794D01*
X167331220Y-91992794D02*
X167331220Y-92230889D01*
X167331220Y-92230889D02*
X167283601Y-92373746D01*
X166426459Y-93373746D02*
X166378840Y-93326127D01*
X166378840Y-93326127D02*
X166331220Y-93183270D01*
X166331220Y-93183270D02*
X166331220Y-93088032D01*
X166331220Y-93088032D02*
X166378840Y-92945175D01*
X166378840Y-92945175D02*
X166474078Y-92849937D01*
X166474078Y-92849937D02*
X166569316Y-92802318D01*
X166569316Y-92802318D02*
X166759792Y-92754699D01*
X166759792Y-92754699D02*
X166902649Y-92754699D01*
X166902649Y-92754699D02*
X167093125Y-92802318D01*
X167093125Y-92802318D02*
X167188363Y-92849937D01*
X167188363Y-92849937D02*
X167283601Y-92945175D01*
X167283601Y-92945175D02*
X167331220Y-93088032D01*
X167331220Y-93088032D02*
X167331220Y-93183270D01*
X167331220Y-93183270D02*
X167283601Y-93326127D01*
X167283601Y-93326127D02*
X167235982Y-93373746D01*
X166331220Y-94278508D02*
X166331220Y-93802318D01*
X166331220Y-93802318D02*
X167331220Y-93802318D01*
D15*
G36*
X100018861Y-96972371D02*
G01*
X100073606Y-96980837D01*
X100127255Y-97002157D01*
X100173348Y-97036018D01*
X100181547Y-97044172D01*
X100214606Y-97088748D01*
X100234441Y-97139675D01*
X100241053Y-97196950D01*
X100240791Y-97208909D01*
X100231645Y-97264767D01*
X100209433Y-97314067D01*
X100174154Y-97356807D01*
X100161250Y-97368090D01*
X100113016Y-97397685D01*
X100056753Y-97414949D01*
X99999252Y-97419944D01*
X99979888Y-97419384D01*
X99925793Y-97410990D01*
X99872715Y-97389848D01*
X99827036Y-97356270D01*
X99818870Y-97348151D01*
X99785943Y-97303779D01*
X99766187Y-97253110D01*
X99759601Y-97196144D01*
X99759861Y-97184022D01*
X99768971Y-97127508D01*
X99791094Y-97077815D01*
X99826230Y-97034944D01*
X99839027Y-97023660D01*
X99886800Y-96994065D01*
X99942443Y-96976801D01*
X99999252Y-96971807D01*
X100018861Y-96972371D01*
G37*
G36*
X100018165Y-95983139D02*
G01*
X100073765Y-95991604D01*
X100127866Y-96012924D01*
X100173886Y-96046786D01*
X100182019Y-96054943D01*
X100214816Y-96099629D01*
X100234493Y-96150823D01*
X100241053Y-96208524D01*
X100240786Y-96220196D01*
X100231456Y-96275094D01*
X100208798Y-96324220D01*
X100172811Y-96367575D01*
X100159685Y-96379098D01*
X100111157Y-96409323D01*
X100055283Y-96426954D01*
X99998715Y-96432055D01*
X99979399Y-96431497D01*
X99925419Y-96423138D01*
X99872420Y-96402086D01*
X99826768Y-96368649D01*
X99818634Y-96360597D01*
X99785838Y-96316524D01*
X99766160Y-96266101D01*
X99759601Y-96209330D01*
X99759859Y-96197171D01*
X99768895Y-96140379D01*
X99790840Y-96090250D01*
X99825693Y-96046786D01*
X99838394Y-96035311D01*
X99885914Y-96005212D01*
X99941411Y-95987654D01*
X99998177Y-95982575D01*
X100018165Y-95983139D01*
G37*
G36*
X99897159Y-95413269D02*
G01*
X99878805Y-95404508D01*
X99832410Y-95377066D01*
X99790766Y-95337773D01*
X99765264Y-95295065D01*
X99748121Y-95243297D01*
X99742406Y-95186514D01*
X99745093Y-95148094D01*
X99759198Y-95094999D01*
X99785393Y-95047344D01*
X99802420Y-95026174D01*
X99845533Y-94989897D01*
X99897159Y-94966744D01*
X99897159Y-95413269D01*
G37*
G36*
X100552416Y-100394605D02*
G01*
X99155928Y-100394605D01*
X99155928Y-100272383D01*
X99295344Y-100272383D01*
X100413000Y-100272383D01*
X100413000Y-99665464D01*
X100206663Y-99665464D01*
X100206663Y-100062285D01*
X99914353Y-100062285D01*
X99914353Y-99665464D01*
X99708017Y-99665464D01*
X99708017Y-100062285D01*
X99501681Y-100062285D01*
X99501681Y-99665464D01*
X99295344Y-99665464D01*
X99295344Y-100272383D01*
X99155928Y-100272383D01*
X99155928Y-99045648D01*
X99570459Y-99045648D01*
X99570549Y-99053094D01*
X99576904Y-99108262D01*
X99593296Y-99162250D01*
X99610864Y-99199160D01*
X99641089Y-99246916D01*
X99673896Y-99289598D01*
X99587654Y-99289598D01*
X99587654Y-99495129D01*
X100413000Y-99495129D01*
X100413000Y-99289598D01*
X100083614Y-99289598D01*
X100031840Y-99289161D01*
X99972775Y-99287020D01*
X99917040Y-99280464D01*
X99894739Y-99274415D01*
X99844122Y-99252364D01*
X99801513Y-99218401D01*
X99796438Y-99212690D01*
X99768810Y-99165440D01*
X99759601Y-99110397D01*
X99762585Y-99078991D01*
X99784856Y-99029260D01*
X99809188Y-99005691D01*
X99858471Y-98983049D01*
X99879981Y-98978575D01*
X99937471Y-98972777D01*
X99993959Y-98970514D01*
X100053523Y-98969884D01*
X100413000Y-98969884D01*
X100413000Y-98765966D01*
X99870292Y-98765966D01*
X99811455Y-98769399D01*
X99752398Y-98781728D01*
X99702074Y-98803024D01*
X99655896Y-98837700D01*
X99618517Y-98882735D01*
X99591818Y-98932405D01*
X99575799Y-98986710D01*
X99570459Y-99045648D01*
X99155928Y-99045648D01*
X99155928Y-98145614D01*
X99570459Y-98145614D01*
X99570683Y-98162038D01*
X99574986Y-98217970D01*
X99584766Y-98271484D01*
X99602649Y-98329684D01*
X99627685Y-98384727D01*
X99658851Y-98435237D01*
X99695390Y-98479836D01*
X99737302Y-98518524D01*
X99784587Y-98551301D01*
X99835735Y-98577395D01*
X99889233Y-98596034D01*
X99945082Y-98607217D01*
X100003282Y-98610945D01*
X100035039Y-98609866D01*
X100096257Y-98601233D01*
X100154415Y-98583967D01*
X100209513Y-98558068D01*
X100261550Y-98523536D01*
X100302577Y-98488164D01*
X100318031Y-98472449D01*
X100352303Y-98429948D01*
X100380344Y-98382855D01*
X100402153Y-98331171D01*
X100417732Y-98274895D01*
X100427079Y-98214028D01*
X100430194Y-98148569D01*
X100428725Y-98104291D01*
X100422198Y-98048236D01*
X100406694Y-97982961D01*
X100383031Y-97923012D01*
X100351208Y-97868389D01*
X100311226Y-97819092D01*
X100263083Y-97775122D01*
X100155079Y-97937665D01*
X100160368Y-97942544D01*
X100196639Y-97985884D01*
X100222162Y-98036880D01*
X100236939Y-98095533D01*
X100241053Y-98153136D01*
X100240472Y-98173714D01*
X100231758Y-98230915D01*
X100209814Y-98286496D01*
X100174960Y-98333681D01*
X100162230Y-98345972D01*
X100114920Y-98378212D01*
X100060105Y-98397019D01*
X100004357Y-98402459D01*
X99978158Y-98401343D01*
X99923599Y-98390665D01*
X99870107Y-98365540D01*
X99828380Y-98330994D01*
X99805006Y-98302645D01*
X99779012Y-98254314D01*
X99763900Y-98199011D01*
X99759601Y-98144002D01*
X99763733Y-98088101D01*
X99778408Y-98033311D01*
X99780874Y-98027396D01*
X99808916Y-97979775D01*
X99845575Y-97937665D01*
X99753422Y-97766256D01*
X99726951Y-97786516D01*
X99684263Y-97827348D01*
X99647950Y-97873791D01*
X99618013Y-97925844D01*
X99597209Y-97976051D01*
X99582348Y-98029415D01*
X99573432Y-98085936D01*
X99570459Y-98145614D01*
X99155928Y-98145614D01*
X99155928Y-97199368D01*
X99570459Y-97199368D01*
X99570894Y-97219340D01*
X99577411Y-97277517D01*
X99591749Y-97333087D01*
X99613908Y-97386050D01*
X99643887Y-97436406D01*
X99681688Y-97484155D01*
X99697922Y-97501268D01*
X99740684Y-97539220D01*
X99786556Y-97570271D01*
X99835536Y-97594423D01*
X99887626Y-97611673D01*
X99942825Y-97622024D01*
X100001133Y-97625474D01*
X100034210Y-97624376D01*
X100097532Y-97615592D01*
X100157075Y-97598024D01*
X100212840Y-97571671D01*
X100264827Y-97536534D01*
X100305264Y-97500544D01*
X100327590Y-97476616D01*
X100365655Y-97426039D01*
X100394936Y-97371835D01*
X100415432Y-97314005D01*
X100427144Y-97252547D01*
X100430194Y-97198562D01*
X100426651Y-97139791D01*
X100416022Y-97083572D01*
X100398307Y-97029906D01*
X100373505Y-96978792D01*
X100342407Y-96931456D01*
X100305801Y-96889393D01*
X100263688Y-96852603D01*
X100216066Y-96821085D01*
X100164751Y-96795813D01*
X100111555Y-96777762D01*
X100056478Y-96766931D01*
X99999521Y-96763321D01*
X99943017Y-96766915D01*
X99888494Y-96777695D01*
X99835953Y-96795662D01*
X99785393Y-96820816D01*
X99738410Y-96852267D01*
X99696599Y-96889393D01*
X99659959Y-96932195D01*
X99628491Y-96980673D01*
X99603102Y-97032727D01*
X99584967Y-97086528D01*
X99574086Y-97142075D01*
X99570663Y-97196144D01*
X99570459Y-97199368D01*
X99155928Y-97199368D01*
X99155928Y-95992515D01*
X99278150Y-95992515D01*
X99681419Y-95992515D01*
X99658425Y-96017087D01*
X99625228Y-96061423D01*
X99598132Y-96112609D01*
X99587349Y-96141479D01*
X99574351Y-96197345D01*
X99573490Y-96209330D01*
X99570459Y-96251510D01*
X99570933Y-96271438D01*
X99578032Y-96328954D01*
X99593652Y-96383069D01*
X99617791Y-96433784D01*
X99650450Y-96481099D01*
X99691628Y-96525013D01*
X99722924Y-96551397D01*
X99773881Y-96584377D01*
X99829656Y-96609442D01*
X99890248Y-96626592D01*
X99944421Y-96634837D01*
X100001939Y-96637585D01*
X100035622Y-96636563D01*
X100089440Y-96630314D01*
X100150196Y-96615318D01*
X100206776Y-96592142D01*
X100259182Y-96560787D01*
X100307413Y-96521252D01*
X100322281Y-96506543D01*
X100361130Y-96460399D01*
X100391346Y-96411233D01*
X100412928Y-96359044D01*
X100425878Y-96303833D01*
X100430194Y-96245600D01*
X100429584Y-96223684D01*
X100422288Y-96169036D01*
X100405208Y-96113953D01*
X100388667Y-96079690D01*
X100358876Y-96034138D01*
X100323802Y-95992515D01*
X100413000Y-95992515D01*
X100413000Y-95786985D01*
X99278150Y-95786985D01*
X99278150Y-95992515D01*
X99155928Y-95992515D01*
X99155928Y-95196454D01*
X99570459Y-95196454D01*
X99571546Y-95230171D01*
X99578184Y-95283973D01*
X99594115Y-95344587D01*
X99618735Y-95400893D01*
X99652046Y-95452893D01*
X99694046Y-95500586D01*
X99725938Y-95528985D01*
X99777506Y-95564483D01*
X99833552Y-95591462D01*
X99894074Y-95609922D01*
X99947930Y-95618796D01*
X100004894Y-95621755D01*
X100038611Y-95620687D01*
X100092412Y-95614165D01*
X100153026Y-95598511D01*
X100209333Y-95574318D01*
X100261333Y-95541587D01*
X100309025Y-95500317D01*
X100343932Y-95460533D01*
X100378011Y-95408168D01*
X100403570Y-95350759D01*
X100418361Y-95299065D01*
X100427236Y-95243869D01*
X100430194Y-95185170D01*
X100428112Y-95132264D01*
X100420631Y-95075797D01*
X100407710Y-95023596D01*
X100386670Y-94969968D01*
X100368576Y-94936821D01*
X100335166Y-94890501D01*
X100294232Y-94848262D01*
X100251531Y-94814141D01*
X100170930Y-94987969D01*
X100209132Y-95031526D01*
X100236418Y-95079181D01*
X100252790Y-95130933D01*
X100258247Y-95186782D01*
X100252790Y-95243874D01*
X100234181Y-95298917D01*
X100202364Y-95345833D01*
X100159374Y-95383003D01*
X100107240Y-95408808D01*
X100051911Y-95422404D01*
X100051911Y-94759602D01*
X100013491Y-94758796D01*
X99964804Y-94760697D01*
X99907368Y-94768423D01*
X99853737Y-94782091D01*
X99794402Y-94806337D01*
X99740545Y-94839141D01*
X99692166Y-94880502D01*
X99657104Y-94920306D01*
X99622874Y-94972747D01*
X99597201Y-95030288D01*
X99582345Y-95082135D01*
X99573431Y-95137524D01*
X99570960Y-95186514D01*
X99570459Y-95196454D01*
X99155928Y-95196454D01*
X99155928Y-94288628D01*
X99570459Y-94288628D01*
X99578049Y-94343101D01*
X99600819Y-94393140D01*
X99604690Y-94399011D01*
X99643597Y-94440688D01*
X99689210Y-94469441D01*
X99587654Y-94469441D01*
X99587654Y-94646224D01*
X100413000Y-94646224D01*
X100413000Y-94441500D01*
X100076628Y-94441500D01*
X100036060Y-94442037D01*
X99974706Y-94440885D01*
X99913321Y-94436628D01*
X99856612Y-94427921D01*
X99802050Y-94409260D01*
X99763433Y-94380145D01*
X99742406Y-94328660D01*
X99742852Y-94321040D01*
X99760676Y-94269016D01*
X99590609Y-94204804D01*
X99579137Y-94234467D01*
X99570459Y-94288628D01*
X99155928Y-94288628D01*
X99155928Y-94082582D01*
X100552416Y-94082582D01*
X100552416Y-100394605D01*
G37*
D14*
X159431220Y-91654699D02*
X159431220Y-92273746D01*
X159431220Y-92273746D02*
X159050268Y-91940413D01*
X159050268Y-91940413D02*
X159050268Y-92083270D01*
X159050268Y-92083270D02*
X159002649Y-92178508D01*
X159002649Y-92178508D02*
X158955030Y-92226127D01*
X158955030Y-92226127D02*
X158859792Y-92273746D01*
X158859792Y-92273746D02*
X158621697Y-92273746D01*
X158621697Y-92273746D02*
X158526459Y-92226127D01*
X158526459Y-92226127D02*
X158478840Y-92178508D01*
X158478840Y-92178508D02*
X158431220Y-92083270D01*
X158431220Y-92083270D02*
X158431220Y-91797556D01*
X158431220Y-91797556D02*
X158478840Y-91702318D01*
X158478840Y-91702318D02*
X158526459Y-91654699D01*
X158478840Y-92749937D02*
X158431220Y-92749937D01*
X158431220Y-92749937D02*
X158335982Y-92702318D01*
X158335982Y-92702318D02*
X158288363Y-92654699D01*
X159431220Y-93083270D02*
X159431220Y-93702317D01*
X159431220Y-93702317D02*
X159050268Y-93368984D01*
X159050268Y-93368984D02*
X159050268Y-93511841D01*
X159050268Y-93511841D02*
X159002649Y-93607079D01*
X159002649Y-93607079D02*
X158955030Y-93654698D01*
X158955030Y-93654698D02*
X158859792Y-93702317D01*
X158859792Y-93702317D02*
X158621697Y-93702317D01*
X158621697Y-93702317D02*
X158526459Y-93654698D01*
X158526459Y-93654698D02*
X158478840Y-93607079D01*
X158478840Y-93607079D02*
X158431220Y-93511841D01*
X158431220Y-93511841D02*
X158431220Y-93226127D01*
X158431220Y-93226127D02*
X158478840Y-93130889D01*
X158478840Y-93130889D02*
X158526459Y-93083270D01*
X159431220Y-93988032D02*
X158431220Y-94321365D01*
X158431220Y-94321365D02*
X159431220Y-94654698D01*
X120171905Y-118638064D02*
X120648095Y-118638064D01*
X120076667Y-118923779D02*
X120410000Y-117923779D01*
X120410000Y-117923779D02*
X120743333Y-118923779D01*
X118658095Y-119561398D02*
X118562857Y-119513779D01*
X118562857Y-119513779D02*
X118420000Y-119513779D01*
X118420000Y-119513779D02*
X118277143Y-119561398D01*
X118277143Y-119561398D02*
X118181905Y-119656636D01*
X118181905Y-119656636D02*
X118134286Y-119751874D01*
X118134286Y-119751874D02*
X118086667Y-119942350D01*
X118086667Y-119942350D02*
X118086667Y-120085207D01*
X118086667Y-120085207D02*
X118134286Y-120275683D01*
X118134286Y-120275683D02*
X118181905Y-120370921D01*
X118181905Y-120370921D02*
X118277143Y-120466160D01*
X118277143Y-120466160D02*
X118420000Y-120513779D01*
X118420000Y-120513779D02*
X118515238Y-120513779D01*
X118515238Y-120513779D02*
X118658095Y-120466160D01*
X118658095Y-120466160D02*
X118705714Y-120418540D01*
X118705714Y-120418540D02*
X118705714Y-120085207D01*
X118705714Y-120085207D02*
X118515238Y-120085207D01*
X119134286Y-120513779D02*
X119134286Y-119513779D01*
X119134286Y-119513779D02*
X119705714Y-120513779D01*
X119705714Y-120513779D02*
X119705714Y-119513779D01*
X120181905Y-120513779D02*
X120181905Y-119513779D01*
X120181905Y-119513779D02*
X120420000Y-119513779D01*
X120420000Y-119513779D02*
X120562857Y-119561398D01*
X120562857Y-119561398D02*
X120658095Y-119656636D01*
X120658095Y-119656636D02*
X120705714Y-119751874D01*
X120705714Y-119751874D02*
X120753333Y-119942350D01*
X120753333Y-119942350D02*
X120753333Y-120085207D01*
X120753333Y-120085207D02*
X120705714Y-120275683D01*
X120705714Y-120275683D02*
X120658095Y-120370921D01*
X120658095Y-120370921D02*
X120562857Y-120466160D01*
X120562857Y-120466160D02*
X120420000Y-120513779D01*
X120420000Y-120513779D02*
X120181905Y-120513779D01*
X205901905Y-120158064D02*
X206378095Y-120158064D01*
X205806667Y-120443779D02*
X206140000Y-119443779D01*
X206140000Y-119443779D02*
X206473333Y-120443779D01*
X206428095Y-117991398D02*
X206332857Y-117943779D01*
X206332857Y-117943779D02*
X206190000Y-117943779D01*
X206190000Y-117943779D02*
X206047143Y-117991398D01*
X206047143Y-117991398D02*
X205951905Y-118086636D01*
X205951905Y-118086636D02*
X205904286Y-118181874D01*
X205904286Y-118181874D02*
X205856667Y-118372350D01*
X205856667Y-118372350D02*
X205856667Y-118515207D01*
X205856667Y-118515207D02*
X205904286Y-118705683D01*
X205904286Y-118705683D02*
X205951905Y-118800921D01*
X205951905Y-118800921D02*
X206047143Y-118896160D01*
X206047143Y-118896160D02*
X206190000Y-118943779D01*
X206190000Y-118943779D02*
X206285238Y-118943779D01*
X206285238Y-118943779D02*
X206428095Y-118896160D01*
X206428095Y-118896160D02*
X206475714Y-118848540D01*
X206475714Y-118848540D02*
X206475714Y-118515207D01*
X206475714Y-118515207D02*
X206285238Y-118515207D01*
X206904286Y-118943779D02*
X206904286Y-117943779D01*
X206904286Y-117943779D02*
X207475714Y-118943779D01*
X207475714Y-118943779D02*
X207475714Y-117943779D01*
X207951905Y-118943779D02*
X207951905Y-117943779D01*
X207951905Y-117943779D02*
X208190000Y-117943779D01*
X208190000Y-117943779D02*
X208332857Y-117991398D01*
X208332857Y-117991398D02*
X208428095Y-118086636D01*
X208428095Y-118086636D02*
X208475714Y-118181874D01*
X208475714Y-118181874D02*
X208523333Y-118372350D01*
X208523333Y-118372350D02*
X208523333Y-118515207D01*
X208523333Y-118515207D02*
X208475714Y-118705683D01*
X208475714Y-118705683D02*
X208428095Y-118800921D01*
X208428095Y-118800921D02*
X208332857Y-118896160D01*
X208332857Y-118896160D02*
X208190000Y-118943779D01*
X208190000Y-118943779D02*
X207951905Y-118943779D01*
X117743810Y-120873779D02*
X118362857Y-120873779D01*
X118362857Y-120873779D02*
X118029524Y-121254731D01*
X118029524Y-121254731D02*
X118172381Y-121254731D01*
X118172381Y-121254731D02*
X118267619Y-121302350D01*
X118267619Y-121302350D02*
X118315238Y-121349969D01*
X118315238Y-121349969D02*
X118362857Y-121445207D01*
X118362857Y-121445207D02*
X118362857Y-121683302D01*
X118362857Y-121683302D02*
X118315238Y-121778540D01*
X118315238Y-121778540D02*
X118267619Y-121826160D01*
X118267619Y-121826160D02*
X118172381Y-121873779D01*
X118172381Y-121873779D02*
X117886667Y-121873779D01*
X117886667Y-121873779D02*
X117791429Y-121826160D01*
X117791429Y-121826160D02*
X117743810Y-121778540D01*
X118791429Y-121778540D02*
X118839048Y-121826160D01*
X118839048Y-121826160D02*
X118791429Y-121873779D01*
X118791429Y-121873779D02*
X118743810Y-121826160D01*
X118743810Y-121826160D02*
X118791429Y-121778540D01*
X118791429Y-121778540D02*
X118791429Y-121873779D01*
X119172381Y-120873779D02*
X119791428Y-120873779D01*
X119791428Y-120873779D02*
X119458095Y-121254731D01*
X119458095Y-121254731D02*
X119600952Y-121254731D01*
X119600952Y-121254731D02*
X119696190Y-121302350D01*
X119696190Y-121302350D02*
X119743809Y-121349969D01*
X119743809Y-121349969D02*
X119791428Y-121445207D01*
X119791428Y-121445207D02*
X119791428Y-121683302D01*
X119791428Y-121683302D02*
X119743809Y-121778540D01*
X119743809Y-121778540D02*
X119696190Y-121826160D01*
X119696190Y-121826160D02*
X119600952Y-121873779D01*
X119600952Y-121873779D02*
X119315238Y-121873779D01*
X119315238Y-121873779D02*
X119220000Y-121826160D01*
X119220000Y-121826160D02*
X119172381Y-121778540D01*
X120077143Y-120873779D02*
X120410476Y-121873779D01*
X120410476Y-121873779D02*
X120743809Y-120873779D01*
X205843810Y-116393779D02*
X206462857Y-116393779D01*
X206462857Y-116393779D02*
X206129524Y-116774731D01*
X206129524Y-116774731D02*
X206272381Y-116774731D01*
X206272381Y-116774731D02*
X206367619Y-116822350D01*
X206367619Y-116822350D02*
X206415238Y-116869969D01*
X206415238Y-116869969D02*
X206462857Y-116965207D01*
X206462857Y-116965207D02*
X206462857Y-117203302D01*
X206462857Y-117203302D02*
X206415238Y-117298540D01*
X206415238Y-117298540D02*
X206367619Y-117346160D01*
X206367619Y-117346160D02*
X206272381Y-117393779D01*
X206272381Y-117393779D02*
X205986667Y-117393779D01*
X205986667Y-117393779D02*
X205891429Y-117346160D01*
X205891429Y-117346160D02*
X205843810Y-117298540D01*
X206891429Y-117298540D02*
X206939048Y-117346160D01*
X206939048Y-117346160D02*
X206891429Y-117393779D01*
X206891429Y-117393779D02*
X206843810Y-117346160D01*
X206843810Y-117346160D02*
X206891429Y-117298540D01*
X206891429Y-117298540D02*
X206891429Y-117393779D01*
X207272381Y-116393779D02*
X207891428Y-116393779D01*
X207891428Y-116393779D02*
X207558095Y-116774731D01*
X207558095Y-116774731D02*
X207700952Y-116774731D01*
X207700952Y-116774731D02*
X207796190Y-116822350D01*
X207796190Y-116822350D02*
X207843809Y-116869969D01*
X207843809Y-116869969D02*
X207891428Y-116965207D01*
X207891428Y-116965207D02*
X207891428Y-117203302D01*
X207891428Y-117203302D02*
X207843809Y-117298540D01*
X207843809Y-117298540D02*
X207796190Y-117346160D01*
X207796190Y-117346160D02*
X207700952Y-117393779D01*
X207700952Y-117393779D02*
X207415238Y-117393779D01*
X207415238Y-117393779D02*
X207320000Y-117346160D01*
X207320000Y-117346160D02*
X207272381Y-117298540D01*
X208177143Y-116393779D02*
X208510476Y-117393779D01*
X208510476Y-117393779D02*
X208843809Y-116393779D01*
D15*
G36*
X226571194Y-98995491D02*
G01*
X226617589Y-99022933D01*
X226659233Y-99062226D01*
X226684735Y-99104934D01*
X226701878Y-99156702D01*
X226707593Y-99213485D01*
X226704906Y-99251905D01*
X226690801Y-99305000D01*
X226664606Y-99352655D01*
X226647579Y-99373825D01*
X226604466Y-99410102D01*
X226552840Y-99433255D01*
X226552840Y-98986730D01*
X226571194Y-98995491D01*
G37*
G36*
X226470600Y-97968502D02*
G01*
X226524580Y-97976861D01*
X226577579Y-97997913D01*
X226623231Y-98031350D01*
X226631365Y-98039402D01*
X226664161Y-98083475D01*
X226683839Y-98133898D01*
X226690398Y-98190669D01*
X226690140Y-98202828D01*
X226681104Y-98259620D01*
X226659159Y-98309749D01*
X226624306Y-98353213D01*
X226611605Y-98364688D01*
X226564085Y-98394787D01*
X226508588Y-98412345D01*
X226451822Y-98417424D01*
X226431834Y-98416860D01*
X226376234Y-98408395D01*
X226322133Y-98387075D01*
X226276113Y-98353213D01*
X226267980Y-98345056D01*
X226235183Y-98300370D01*
X226215506Y-98249176D01*
X226208946Y-98191475D01*
X226209213Y-98179803D01*
X226218543Y-98124905D01*
X226241201Y-98075779D01*
X226277188Y-98032424D01*
X226290314Y-98020901D01*
X226338842Y-97990676D01*
X226394716Y-97973045D01*
X226451284Y-97967944D01*
X226470600Y-97968502D01*
G37*
G36*
X226470111Y-96980615D02*
G01*
X226524206Y-96989009D01*
X226577284Y-97010151D01*
X226622963Y-97043729D01*
X226631129Y-97051848D01*
X226664056Y-97096220D01*
X226683812Y-97146889D01*
X226690398Y-97203855D01*
X226690138Y-97215977D01*
X226681028Y-97272491D01*
X226658905Y-97322184D01*
X226623769Y-97365055D01*
X226610972Y-97376339D01*
X226563199Y-97405934D01*
X226507556Y-97423198D01*
X226450747Y-97428192D01*
X226431138Y-97427628D01*
X226376393Y-97419162D01*
X226322744Y-97397842D01*
X226276651Y-97363981D01*
X226268452Y-97355827D01*
X226235393Y-97311251D01*
X226215558Y-97260324D01*
X226208946Y-97203049D01*
X226209208Y-97191090D01*
X226218354Y-97135232D01*
X226240566Y-97085932D01*
X226275845Y-97043192D01*
X226288749Y-97031909D01*
X226336983Y-97002314D01*
X226393246Y-96985050D01*
X226450747Y-96980055D01*
X226470111Y-96980615D01*
G37*
G36*
X227294071Y-100317417D02*
G01*
X225897583Y-100317417D01*
X225897583Y-99958499D01*
X226037000Y-99958499D01*
X226373371Y-99958499D01*
X226413939Y-99957962D01*
X226475293Y-99959114D01*
X226536678Y-99963371D01*
X226593387Y-99972078D01*
X226647949Y-99990739D01*
X226686566Y-100019854D01*
X226707593Y-100071339D01*
X226707147Y-100078959D01*
X226689323Y-100130983D01*
X226859390Y-100195195D01*
X226870862Y-100165532D01*
X226879540Y-100111371D01*
X226871950Y-100056898D01*
X226849180Y-100006859D01*
X226845309Y-100000988D01*
X226806402Y-99959311D01*
X226760789Y-99930558D01*
X226862345Y-99930558D01*
X226862345Y-99753775D01*
X226037000Y-99753775D01*
X226037000Y-99958499D01*
X225897583Y-99958499D01*
X225897583Y-99214829D01*
X226019805Y-99214829D01*
X226021887Y-99267735D01*
X226029368Y-99324202D01*
X226042289Y-99376403D01*
X226063329Y-99430031D01*
X226081423Y-99463178D01*
X226114833Y-99509498D01*
X226155767Y-99551737D01*
X226198468Y-99585858D01*
X226279069Y-99412030D01*
X226240867Y-99368473D01*
X226213581Y-99320818D01*
X226197209Y-99269066D01*
X226191752Y-99213217D01*
X226197209Y-99156125D01*
X226215818Y-99101082D01*
X226247635Y-99054166D01*
X226290625Y-99016996D01*
X226342759Y-98991191D01*
X226398088Y-98977595D01*
X226398088Y-99433255D01*
X226398088Y-99640397D01*
X226436508Y-99641203D01*
X226485195Y-99639302D01*
X226542631Y-99631576D01*
X226596262Y-99617908D01*
X226655597Y-99593662D01*
X226709454Y-99560858D01*
X226757833Y-99519497D01*
X226792895Y-99479693D01*
X226827125Y-99427252D01*
X226852798Y-99369711D01*
X226867654Y-99317864D01*
X226876568Y-99262475D01*
X226879540Y-99203545D01*
X226878453Y-99169828D01*
X226871815Y-99116026D01*
X226855884Y-99055412D01*
X226831264Y-98999106D01*
X226797953Y-98947106D01*
X226755953Y-98899413D01*
X226724061Y-98871014D01*
X226672493Y-98835516D01*
X226616447Y-98808537D01*
X226555925Y-98790077D01*
X226502069Y-98781203D01*
X226445105Y-98778244D01*
X226411388Y-98779312D01*
X226357587Y-98785834D01*
X226296973Y-98801488D01*
X226240666Y-98825681D01*
X226188666Y-98858412D01*
X226140974Y-98899682D01*
X226106067Y-98939466D01*
X226071988Y-98991831D01*
X226046429Y-99049240D01*
X226031638Y-99100934D01*
X226022763Y-99156130D01*
X226019805Y-99214829D01*
X225897583Y-99214829D01*
X225897583Y-98154399D01*
X226019805Y-98154399D01*
X226020415Y-98176315D01*
X226022439Y-98191475D01*
X226027711Y-98230963D01*
X226044791Y-98286046D01*
X226061332Y-98320309D01*
X226091123Y-98365861D01*
X226126197Y-98407484D01*
X226037000Y-98407484D01*
X226037000Y-98613014D01*
X227171849Y-98613014D01*
X227171849Y-98407484D01*
X226768580Y-98407484D01*
X226791574Y-98382912D01*
X226824771Y-98338576D01*
X226851867Y-98287390D01*
X226862650Y-98258520D01*
X226875648Y-98202654D01*
X226879540Y-98148489D01*
X226879066Y-98128561D01*
X226871967Y-98071045D01*
X226856347Y-98016930D01*
X226832208Y-97966215D01*
X226799549Y-97918900D01*
X226758371Y-97874986D01*
X226727075Y-97848602D01*
X226676118Y-97815622D01*
X226620343Y-97790557D01*
X226559751Y-97773407D01*
X226505578Y-97765162D01*
X226448060Y-97762414D01*
X226414377Y-97763436D01*
X226360559Y-97769685D01*
X226299803Y-97784681D01*
X226243223Y-97807857D01*
X226190817Y-97839212D01*
X226142586Y-97878747D01*
X226127718Y-97893456D01*
X226088869Y-97939600D01*
X226058653Y-97988766D01*
X226037071Y-98040955D01*
X226024121Y-98096166D01*
X226019805Y-98154399D01*
X225897583Y-98154399D01*
X225897583Y-97201437D01*
X226019805Y-97201437D01*
X226019902Y-97203049D01*
X226023348Y-97260208D01*
X226033977Y-97316427D01*
X226051692Y-97370093D01*
X226076494Y-97421207D01*
X226107592Y-97468543D01*
X226144198Y-97510606D01*
X226186311Y-97547396D01*
X226233933Y-97578914D01*
X226285248Y-97604186D01*
X226338444Y-97622237D01*
X226393521Y-97633068D01*
X226450478Y-97636678D01*
X226506982Y-97633084D01*
X226561505Y-97622304D01*
X226614046Y-97604337D01*
X226664606Y-97579183D01*
X226711589Y-97547732D01*
X226753400Y-97510606D01*
X226790040Y-97467804D01*
X226821508Y-97419326D01*
X226846897Y-97367272D01*
X226865032Y-97313471D01*
X226875913Y-97257924D01*
X226879540Y-97200631D01*
X226879105Y-97180659D01*
X226872588Y-97122482D01*
X226858250Y-97066912D01*
X226836091Y-97013949D01*
X226806112Y-96963593D01*
X226768311Y-96915844D01*
X226752077Y-96898731D01*
X226709315Y-96860779D01*
X226663443Y-96829728D01*
X226614463Y-96805576D01*
X226562373Y-96788326D01*
X226507174Y-96777975D01*
X226448866Y-96774525D01*
X226415789Y-96775623D01*
X226352467Y-96784407D01*
X226292924Y-96801975D01*
X226237159Y-96828328D01*
X226185172Y-96863465D01*
X226144735Y-96899455D01*
X226122409Y-96923383D01*
X226084344Y-96973960D01*
X226055063Y-97028164D01*
X226034567Y-97085994D01*
X226022855Y-97147452D01*
X226019805Y-97201437D01*
X225897583Y-97201437D01*
X225897583Y-96251430D01*
X226019805Y-96251430D01*
X226021274Y-96295708D01*
X226027801Y-96351763D01*
X226043305Y-96417038D01*
X226066968Y-96476987D01*
X226098791Y-96531610D01*
X226138773Y-96580907D01*
X226186916Y-96624877D01*
X226294920Y-96462334D01*
X226289631Y-96457455D01*
X226253360Y-96414115D01*
X226227837Y-96363119D01*
X226213060Y-96304466D01*
X226208946Y-96246863D01*
X226209527Y-96226285D01*
X226218241Y-96169084D01*
X226240185Y-96113503D01*
X226275039Y-96066318D01*
X226287769Y-96054027D01*
X226335079Y-96021787D01*
X226389894Y-96002980D01*
X226445642Y-95997540D01*
X226471841Y-95998656D01*
X226526400Y-96009334D01*
X226579892Y-96034459D01*
X226621619Y-96069005D01*
X226644993Y-96097354D01*
X226670987Y-96145685D01*
X226686099Y-96200988D01*
X226690398Y-96255997D01*
X226686266Y-96311898D01*
X226671591Y-96366688D01*
X226669125Y-96372603D01*
X226641083Y-96420224D01*
X226604424Y-96462334D01*
X226696577Y-96633743D01*
X226723048Y-96613483D01*
X226765736Y-96572651D01*
X226802049Y-96526208D01*
X226831986Y-96474155D01*
X226852790Y-96423948D01*
X226867651Y-96370584D01*
X226876567Y-96314063D01*
X226879540Y-96254385D01*
X226879316Y-96237961D01*
X226875013Y-96182029D01*
X226865233Y-96128515D01*
X226847350Y-96070315D01*
X226822314Y-96015272D01*
X226791148Y-95964762D01*
X226754609Y-95920163D01*
X226712697Y-95881475D01*
X226665412Y-95848698D01*
X226614264Y-95822604D01*
X226560766Y-95803965D01*
X226504917Y-95792782D01*
X226446717Y-95789054D01*
X226414960Y-95790133D01*
X226353742Y-95798766D01*
X226295584Y-95816032D01*
X226240486Y-95841931D01*
X226188449Y-95876463D01*
X226147422Y-95911835D01*
X226131968Y-95927550D01*
X226097696Y-95970051D01*
X226069655Y-96017144D01*
X226047846Y-96068828D01*
X226032267Y-96125104D01*
X226022920Y-96185971D01*
X226019805Y-96251430D01*
X225897583Y-96251430D01*
X225897583Y-95110401D01*
X226037000Y-95110401D01*
X226366385Y-95110401D01*
X226418159Y-95110838D01*
X226477224Y-95112979D01*
X226532959Y-95119535D01*
X226555260Y-95125584D01*
X226605877Y-95147635D01*
X226648486Y-95181598D01*
X226653561Y-95187309D01*
X226681189Y-95234559D01*
X226690398Y-95289602D01*
X226687414Y-95321008D01*
X226665143Y-95370739D01*
X226640811Y-95394308D01*
X226591528Y-95416950D01*
X226570018Y-95421424D01*
X226512528Y-95427222D01*
X226456040Y-95429485D01*
X226396476Y-95430115D01*
X226037000Y-95430115D01*
X226037000Y-95634033D01*
X226579707Y-95634033D01*
X226638544Y-95630600D01*
X226697601Y-95618271D01*
X226747925Y-95596975D01*
X226794103Y-95562299D01*
X226831482Y-95517264D01*
X226858181Y-95467594D01*
X226874200Y-95413289D01*
X226879540Y-95354351D01*
X226879450Y-95346905D01*
X226873095Y-95291737D01*
X226856703Y-95237749D01*
X226839135Y-95200839D01*
X226808910Y-95153083D01*
X226776103Y-95110401D01*
X226862345Y-95110401D01*
X226862345Y-94904870D01*
X226037000Y-94904870D01*
X226037000Y-95110401D01*
X225897583Y-95110401D01*
X225897583Y-94734535D01*
X226037000Y-94734535D01*
X226243336Y-94734535D01*
X226243336Y-94337714D01*
X226535646Y-94337714D01*
X226535646Y-94734535D01*
X226741982Y-94734535D01*
X226741982Y-94337714D01*
X226948318Y-94337714D01*
X226948318Y-94734535D01*
X227154655Y-94734535D01*
X227154655Y-94127616D01*
X226037000Y-94127616D01*
X226037000Y-94734535D01*
X225897583Y-94734535D01*
X225897583Y-94005394D01*
X227294071Y-94005394D01*
X227294071Y-100317417D01*
G37*
D11*
X221916415Y-97695739D02*
X221916415Y-98171929D01*
X221630700Y-97600501D02*
X222630700Y-97933834D01*
X222630700Y-97933834D02*
X221630700Y-98267167D01*
X222154510Y-99695739D02*
X222106891Y-99838596D01*
X222106891Y-99838596D02*
X222059272Y-99886215D01*
X222059272Y-99886215D02*
X221964034Y-99933834D01*
X221964034Y-99933834D02*
X221821177Y-99933834D01*
X221821177Y-99933834D02*
X221725939Y-99886215D01*
X221725939Y-99886215D02*
X221678320Y-99838596D01*
X221678320Y-99838596D02*
X221630700Y-99743358D01*
X221630700Y-99743358D02*
X221630700Y-99362406D01*
X221630700Y-99362406D02*
X222630700Y-99362406D01*
X222630700Y-99362406D02*
X222630700Y-99695739D01*
X222630700Y-99695739D02*
X222583081Y-99790977D01*
X222583081Y-99790977D02*
X222535462Y-99838596D01*
X222535462Y-99838596D02*
X222440224Y-99886215D01*
X222440224Y-99886215D02*
X222344986Y-99886215D01*
X222344986Y-99886215D02*
X222249748Y-99838596D01*
X222249748Y-99838596D02*
X222202129Y-99790977D01*
X222202129Y-99790977D02*
X222154510Y-99695739D01*
X222154510Y-99695739D02*
X222154510Y-99362406D01*
X104533584Y-96704260D02*
X104533584Y-96228070D01*
X104819299Y-96799498D02*
X103819299Y-96466165D01*
X103819299Y-96466165D02*
X104819299Y-96132832D01*
X104295489Y-94704260D02*
X104343108Y-94561403D01*
X104343108Y-94561403D02*
X104390727Y-94513784D01*
X104390727Y-94513784D02*
X104485965Y-94466165D01*
X104485965Y-94466165D02*
X104628822Y-94466165D01*
X104628822Y-94466165D02*
X104724060Y-94513784D01*
X104724060Y-94513784D02*
X104771680Y-94561403D01*
X104771680Y-94561403D02*
X104819299Y-94656641D01*
X104819299Y-94656641D02*
X104819299Y-95037593D01*
X104819299Y-95037593D02*
X103819299Y-95037593D01*
X103819299Y-95037593D02*
X103819299Y-94704260D01*
X103819299Y-94704260D02*
X103866918Y-94609022D01*
X103866918Y-94609022D02*
X103914537Y-94561403D01*
X103914537Y-94561403D02*
X104009775Y-94513784D01*
X104009775Y-94513784D02*
X104105013Y-94513784D01*
X104105013Y-94513784D02*
X104200251Y-94561403D01*
X104200251Y-94561403D02*
X104247870Y-94609022D01*
X104247870Y-94609022D02*
X104295489Y-94704260D01*
X104295489Y-94704260D02*
X104295489Y-95037593D01*
X185058333Y-120879299D02*
X184725000Y-120403108D01*
X184486905Y-120879299D02*
X184486905Y-119879299D01*
X184486905Y-119879299D02*
X184867857Y-119879299D01*
X184867857Y-119879299D02*
X184963095Y-119926918D01*
X184963095Y-119926918D02*
X185010714Y-119974537D01*
X185010714Y-119974537D02*
X185058333Y-120069775D01*
X185058333Y-120069775D02*
X185058333Y-120212632D01*
X185058333Y-120212632D02*
X185010714Y-120307870D01*
X185010714Y-120307870D02*
X184963095Y-120355489D01*
X184963095Y-120355489D02*
X184867857Y-120403108D01*
X184867857Y-120403108D02*
X184486905Y-120403108D01*
X185629762Y-120307870D02*
X185534524Y-120260251D01*
X185534524Y-120260251D02*
X185486905Y-120212632D01*
X185486905Y-120212632D02*
X185439286Y-120117394D01*
X185439286Y-120117394D02*
X185439286Y-120069775D01*
X185439286Y-120069775D02*
X185486905Y-119974537D01*
X185486905Y-119974537D02*
X185534524Y-119926918D01*
X185534524Y-119926918D02*
X185629762Y-119879299D01*
X185629762Y-119879299D02*
X185820238Y-119879299D01*
X185820238Y-119879299D02*
X185915476Y-119926918D01*
X185915476Y-119926918D02*
X185963095Y-119974537D01*
X185963095Y-119974537D02*
X186010714Y-120069775D01*
X186010714Y-120069775D02*
X186010714Y-120117394D01*
X186010714Y-120117394D02*
X185963095Y-120212632D01*
X185963095Y-120212632D02*
X185915476Y-120260251D01*
X185915476Y-120260251D02*
X185820238Y-120307870D01*
X185820238Y-120307870D02*
X185629762Y-120307870D01*
X185629762Y-120307870D02*
X185534524Y-120355489D01*
X185534524Y-120355489D02*
X185486905Y-120403108D01*
X185486905Y-120403108D02*
X185439286Y-120498346D01*
X185439286Y-120498346D02*
X185439286Y-120688822D01*
X185439286Y-120688822D02*
X185486905Y-120784060D01*
X185486905Y-120784060D02*
X185534524Y-120831680D01*
X185534524Y-120831680D02*
X185629762Y-120879299D01*
X185629762Y-120879299D02*
X185820238Y-120879299D01*
X185820238Y-120879299D02*
X185915476Y-120831680D01*
X185915476Y-120831680D02*
X185963095Y-120784060D01*
X185963095Y-120784060D02*
X186010714Y-120688822D01*
X186010714Y-120688822D02*
X186010714Y-120498346D01*
X186010714Y-120498346D02*
X185963095Y-120403108D01*
X185963095Y-120403108D02*
X185915476Y-120355489D01*
X185915476Y-120355489D02*
X185820238Y-120307870D01*
D15*
G36*
X153130945Y-133212658D02*
G01*
X153171650Y-133241004D01*
X153176670Y-133247688D01*
X153195102Y-133294063D01*
X153199738Y-133345052D01*
X153199738Y-133347250D01*
X153199738Y-133387062D01*
X152996528Y-133387062D01*
X152996528Y-133337480D01*
X153001623Y-133286229D01*
X153023150Y-133239295D01*
X153045613Y-133219648D01*
X153094958Y-133207055D01*
X153130945Y-133212658D01*
G37*
G36*
X153519943Y-133136265D02*
G01*
X153568361Y-133146604D01*
X153606402Y-133177745D01*
X153611946Y-133186218D01*
X153628667Y-133233845D01*
X153635482Y-133283991D01*
X153637421Y-133338946D01*
X153637421Y-133387062D01*
X153371685Y-133387062D01*
X153371685Y-133347250D01*
X153371836Y-133333336D01*
X153375477Y-133282716D01*
X153386855Y-133230777D01*
X153410519Y-133185073D01*
X153423277Y-133171000D01*
X153466420Y-133144286D01*
X153516277Y-133136224D01*
X153519943Y-133136265D01*
G37*
G36*
X153369259Y-131963089D02*
G01*
X153417667Y-131973239D01*
X153470172Y-131993632D01*
X153518399Y-132023234D01*
X153556332Y-132055938D01*
X153584196Y-132086994D01*
X153615271Y-132133779D01*
X153637090Y-132184420D01*
X153649652Y-132238919D01*
X153653053Y-132288701D01*
X153651889Y-132318499D01*
X153644250Y-132368588D01*
X153629482Y-132416059D01*
X153607585Y-132460912D01*
X153578558Y-132503147D01*
X153560049Y-132524622D01*
X153519411Y-132561235D01*
X153473948Y-132589400D01*
X153423659Y-132609115D01*
X153368544Y-132620380D01*
X153318928Y-132623314D01*
X153309789Y-132623221D01*
X153257067Y-132618744D01*
X153207968Y-132607553D01*
X153162493Y-132589647D01*
X153114019Y-132560270D01*
X153076395Y-132527815D01*
X153043940Y-132490432D01*
X153014563Y-132442846D01*
X152994326Y-132390982D01*
X152984254Y-132343123D01*
X152980896Y-132292121D01*
X152983287Y-132249793D01*
X152994669Y-132193981D01*
X153015424Y-132142189D01*
X153045553Y-132094418D01*
X153078838Y-132056671D01*
X153117002Y-132023718D01*
X153165392Y-131993890D01*
X153217942Y-131973342D01*
X153266296Y-131963115D01*
X153317707Y-131959706D01*
X153369259Y-131963089D01*
G37*
G36*
X153369259Y-130787793D02*
G01*
X153417667Y-130797942D01*
X153470172Y-130818335D01*
X153518399Y-130847938D01*
X153556332Y-130880641D01*
X153584196Y-130911698D01*
X153615271Y-130958482D01*
X153637090Y-131009124D01*
X153649652Y-131063622D01*
X153653053Y-131113405D01*
X153651889Y-131143202D01*
X153644250Y-131193291D01*
X153629482Y-131240762D01*
X153607585Y-131285615D01*
X153578558Y-131327850D01*
X153560049Y-131349325D01*
X153519411Y-131385939D01*
X153473948Y-131414103D01*
X153423659Y-131433818D01*
X153368544Y-131445084D01*
X153318928Y-131448018D01*
X153309789Y-131447924D01*
X153257067Y-131443448D01*
X153207968Y-131432256D01*
X153162493Y-131414350D01*
X153114019Y-131384973D01*
X153076395Y-131352519D01*
X153043940Y-131315135D01*
X153014563Y-131267549D01*
X152994326Y-131215685D01*
X152984254Y-131167826D01*
X152980896Y-131116824D01*
X152983287Y-131074497D01*
X152994669Y-131018684D01*
X153015424Y-130966893D01*
X153045553Y-130919121D01*
X153078838Y-130881374D01*
X153117002Y-130848421D01*
X153165392Y-130818593D01*
X153217942Y-130798045D01*
X153266296Y-130787819D01*
X153317707Y-130784410D01*
X153369259Y-130787793D01*
G37*
G36*
X153951742Y-133690392D02*
G01*
X152682207Y-133690392D01*
X152682207Y-133420523D01*
X152808949Y-133420523D01*
X152808949Y-133579281D01*
X153825000Y-133579281D01*
X153825000Y-133296203D01*
X153824135Y-133259328D01*
X153819155Y-133205686D01*
X153808260Y-133153222D01*
X153789584Y-133104717D01*
X153760994Y-133060030D01*
X153723918Y-133021346D01*
X153682850Y-132991388D01*
X153673846Y-132986064D01*
X153627048Y-132964598D01*
X153577293Y-132951718D01*
X153524581Y-132947424D01*
X153513379Y-132947591D01*
X153460204Y-132953435D01*
X153411751Y-132967627D01*
X153368021Y-132990167D01*
X153347873Y-133004658D01*
X153310798Y-133040903D01*
X153281101Y-133081804D01*
X153257623Y-133124745D01*
X153247338Y-133111483D01*
X153212700Y-133074972D01*
X153170429Y-133045366D01*
X153164586Y-133042408D01*
X153118089Y-133026308D01*
X153066870Y-133020941D01*
X153056030Y-133021151D01*
X153004519Y-133028498D01*
X152957493Y-133046339D01*
X152914951Y-133074675D01*
X152903217Y-133085030D01*
X152869252Y-133124262D01*
X152843206Y-133170744D01*
X152826535Y-133218778D01*
X152825453Y-133222835D01*
X152816523Y-133271378D01*
X152811852Y-133320654D01*
X152811094Y-133337480D01*
X152809567Y-133371384D01*
X152808949Y-133420523D01*
X152682207Y-133420523D01*
X152682207Y-132290167D01*
X152793318Y-132290167D01*
X152793348Y-132292121D01*
X152793592Y-132307770D01*
X152797714Y-132359700D01*
X152806782Y-132410307D01*
X152820795Y-132459591D01*
X152839754Y-132507554D01*
X152863660Y-132554193D01*
X152872616Y-132569315D01*
X152901823Y-132612216D01*
X152934532Y-132651426D01*
X152970745Y-132686943D01*
X153010461Y-132718768D01*
X153053681Y-132746901D01*
X153068762Y-132755389D01*
X153115092Y-132777569D01*
X153163055Y-132794819D01*
X153212648Y-132807141D01*
X153263874Y-132814534D01*
X153316730Y-132816999D01*
X153369189Y-132814648D01*
X153419831Y-132807595D01*
X153468657Y-132795841D01*
X153515666Y-132779385D01*
X153560858Y-132758228D01*
X153604234Y-132732369D01*
X153645794Y-132701808D01*
X153685537Y-132666545D01*
X153721887Y-132627730D01*
X153753391Y-132586510D01*
X153780047Y-132542886D01*
X153801857Y-132496857D01*
X153818821Y-132448425D01*
X153830938Y-132397588D01*
X153838208Y-132344347D01*
X153840631Y-132288701D01*
X153838269Y-132235434D01*
X153831182Y-132184196D01*
X153819370Y-132134989D01*
X153802834Y-132087812D01*
X153781574Y-132042665D01*
X153755589Y-131999548D01*
X153724879Y-131958462D01*
X153689445Y-131919406D01*
X153650599Y-131883743D01*
X153609654Y-131852835D01*
X153566610Y-131826682D01*
X153521467Y-131805284D01*
X153474225Y-131788641D01*
X153424884Y-131776753D01*
X153373444Y-131769621D01*
X153319905Y-131767243D01*
X153265878Y-131769655D01*
X153213950Y-131776891D01*
X153164120Y-131788950D01*
X153116390Y-131805833D01*
X153070759Y-131827540D01*
X153027226Y-131854071D01*
X152985793Y-131885426D01*
X152946458Y-131921604D01*
X152910566Y-131961076D01*
X152879459Y-132002434D01*
X152853138Y-132045676D01*
X152831603Y-132090804D01*
X152814853Y-132137817D01*
X152802889Y-132186715D01*
X152795711Y-132237498D01*
X152793318Y-132290167D01*
X152682207Y-132290167D01*
X152682207Y-131114870D01*
X152793318Y-131114870D01*
X152793348Y-131116824D01*
X152793592Y-131132474D01*
X152797714Y-131184403D01*
X152806782Y-131235010D01*
X152820795Y-131284295D01*
X152839754Y-131332257D01*
X152863660Y-131378897D01*
X152872616Y-131394018D01*
X152901823Y-131436920D01*
X152934532Y-131476129D01*
X152970745Y-131511647D01*
X153010461Y-131543472D01*
X153053681Y-131571604D01*
X153068762Y-131580093D01*
X153115092Y-131602272D01*
X153163055Y-131619523D01*
X153212648Y-131631845D01*
X153263874Y-131639238D01*
X153316730Y-131641702D01*
X153369189Y-131639351D01*
X153419831Y-131632299D01*
X153468657Y-131620545D01*
X153515666Y-131604089D01*
X153560858Y-131582931D01*
X153604234Y-131557072D01*
X153645794Y-131526511D01*
X153685537Y-131491249D01*
X153721887Y-131452433D01*
X153753391Y-131411213D01*
X153780047Y-131367589D01*
X153801857Y-131321561D01*
X153818821Y-131273128D01*
X153830938Y-131222291D01*
X153838208Y-131169050D01*
X153840631Y-131113405D01*
X153838269Y-131060137D01*
X153831182Y-131008899D01*
X153819370Y-130959692D01*
X153802834Y-130912515D01*
X153781574Y-130867368D01*
X153755589Y-130824252D01*
X153724879Y-130783166D01*
X153689445Y-130744110D01*
X153650599Y-130708446D01*
X153609654Y-130677538D01*
X153566610Y-130651385D01*
X153521467Y-130629987D01*
X153474225Y-130613344D01*
X153424884Y-130601457D01*
X153373444Y-130594324D01*
X153319905Y-130591946D01*
X153265878Y-130594358D01*
X153213950Y-130601594D01*
X153164120Y-130613653D01*
X153116390Y-130630537D01*
X153070759Y-130652244D01*
X153027226Y-130678775D01*
X152985793Y-130710129D01*
X152946458Y-130746308D01*
X152910566Y-130785780D01*
X152879459Y-130827137D01*
X152853138Y-130870379D01*
X152831603Y-130915507D01*
X152814853Y-130962520D01*
X152802889Y-131011418D01*
X152795711Y-131062202D01*
X152793318Y-131114870D01*
X152682207Y-131114870D01*
X152682207Y-130516475D01*
X152808949Y-130516475D01*
X152996528Y-130516475D01*
X152996528Y-130337201D01*
X153825000Y-130337201D01*
X153825000Y-130142051D01*
X152996528Y-130142051D01*
X152996528Y-129958136D01*
X152808949Y-129958136D01*
X152808949Y-130516475D01*
X152682207Y-130516475D01*
X152682207Y-129847025D01*
X153951742Y-129847025D01*
X153951742Y-133690392D01*
G37*
D11*
X148932142Y-119254299D02*
X148598809Y-118778108D01*
X148360714Y-119254299D02*
X148360714Y-118254299D01*
X148360714Y-118254299D02*
X148741666Y-118254299D01*
X148741666Y-118254299D02*
X148836904Y-118301918D01*
X148836904Y-118301918D02*
X148884523Y-118349537D01*
X148884523Y-118349537D02*
X148932142Y-118444775D01*
X148932142Y-118444775D02*
X148932142Y-118587632D01*
X148932142Y-118587632D02*
X148884523Y-118682870D01*
X148884523Y-118682870D02*
X148836904Y-118730489D01*
X148836904Y-118730489D02*
X148741666Y-118778108D01*
X148741666Y-118778108D02*
X148360714Y-118778108D01*
X149884523Y-119254299D02*
X149313095Y-119254299D01*
X149598809Y-119254299D02*
X149598809Y-118254299D01*
X149598809Y-118254299D02*
X149503571Y-118397156D01*
X149503571Y-118397156D02*
X149408333Y-118492394D01*
X149408333Y-118492394D02*
X149313095Y-118540013D01*
X150217857Y-118254299D02*
X150836904Y-118254299D01*
X150836904Y-118254299D02*
X150503571Y-118635251D01*
X150503571Y-118635251D02*
X150646428Y-118635251D01*
X150646428Y-118635251D02*
X150741666Y-118682870D01*
X150741666Y-118682870D02*
X150789285Y-118730489D01*
X150789285Y-118730489D02*
X150836904Y-118825727D01*
X150836904Y-118825727D02*
X150836904Y-119063822D01*
X150836904Y-119063822D02*
X150789285Y-119159060D01*
X150789285Y-119159060D02*
X150741666Y-119206680D01*
X150741666Y-119206680D02*
X150646428Y-119254299D01*
X150646428Y-119254299D02*
X150360714Y-119254299D01*
X150360714Y-119254299D02*
X150265476Y-119206680D01*
X150265476Y-119206680D02*
X150217857Y-119159060D01*
D14*
G36*
X182799914Y-109144356D02*
G01*
X182846263Y-109160083D01*
X182851861Y-109164303D01*
X182879724Y-109204535D01*
X182888085Y-109253474D01*
X182889738Y-109304919D01*
X182889738Y-109365979D01*
X182686528Y-109365979D01*
X182686528Y-109311757D01*
X182687005Y-109285199D01*
X182691413Y-109236469D01*
X182706067Y-109189392D01*
X182740200Y-109155320D01*
X182789842Y-109143962D01*
X182799914Y-109144356D01*
G37*
G36*
X182824559Y-108351631D02*
G01*
X182866290Y-108381436D01*
X182877625Y-108405485D01*
X182887448Y-108456254D01*
X182889738Y-108508198D01*
X182889738Y-108568771D01*
X182686528Y-108568771D01*
X182686528Y-108515770D01*
X182686538Y-108511008D01*
X182688261Y-108461200D01*
X182697030Y-108410013D01*
X182699866Y-108402991D01*
X182731468Y-108364095D01*
X182739157Y-108359099D01*
X182787889Y-108346754D01*
X182824559Y-108351631D01*
G37*
G36*
X183059259Y-107157743D02*
G01*
X183107667Y-107167893D01*
X183160172Y-107188286D01*
X183208399Y-107217888D01*
X183246332Y-107250592D01*
X183274196Y-107281648D01*
X183305271Y-107328433D01*
X183327090Y-107379074D01*
X183339652Y-107433573D01*
X183343053Y-107483355D01*
X183341889Y-107513153D01*
X183334250Y-107563242D01*
X183319482Y-107610713D01*
X183297585Y-107655566D01*
X183268558Y-107697801D01*
X183250049Y-107719276D01*
X183209411Y-107755889D01*
X183163948Y-107784054D01*
X183113659Y-107803769D01*
X183058544Y-107815034D01*
X183008928Y-107817968D01*
X182999789Y-107817875D01*
X182947067Y-107813398D01*
X182897968Y-107802207D01*
X182852493Y-107784301D01*
X182804019Y-107754924D01*
X182766395Y-107722469D01*
X182733940Y-107685086D01*
X182704563Y-107637500D01*
X182684326Y-107585636D01*
X182674254Y-107537777D01*
X182670896Y-107486775D01*
X182673287Y-107444447D01*
X182684669Y-107388635D01*
X182705424Y-107336843D01*
X182735553Y-107289072D01*
X182768838Y-107251325D01*
X182807002Y-107218372D01*
X182855392Y-107188544D01*
X182907942Y-107167996D01*
X182956296Y-107157769D01*
X183007707Y-107154360D01*
X183059259Y-107157743D01*
G37*
G36*
X183641742Y-109669309D02*
G01*
X182372207Y-109669309D01*
X182372207Y-109354256D01*
X182498949Y-109354256D01*
X182498949Y-109558198D01*
X183515000Y-109558198D01*
X183515000Y-109365979D01*
X183077316Y-109365979D01*
X183076767Y-109314053D01*
X183074737Y-109261590D01*
X183070584Y-109212337D01*
X183061685Y-109163258D01*
X183052105Y-109134609D01*
X183029661Y-109087911D01*
X183000533Y-109047472D01*
X182964720Y-109013293D01*
X182937372Y-108994451D01*
X182891680Y-108973497D01*
X182840385Y-108961315D01*
X182790087Y-108957849D01*
X182772556Y-108958221D01*
X182722825Y-108963791D01*
X182672597Y-108977821D01*
X182627665Y-109000103D01*
X182588901Y-109029541D01*
X182554746Y-109068921D01*
X182529480Y-109115630D01*
X182519104Y-109146270D01*
X182508609Y-109197248D01*
X182502557Y-109251346D01*
X182499695Y-109304767D01*
X182499590Y-109311757D01*
X182498949Y-109354256D01*
X182372207Y-109354256D01*
X182372207Y-108557047D01*
X182498949Y-108557047D01*
X182498949Y-108760990D01*
X183515000Y-108760990D01*
X183515000Y-108568771D01*
X183077316Y-108568771D01*
X183077316Y-108550697D01*
X183515000Y-108323307D01*
X183515000Y-108113258D01*
X183056067Y-108352371D01*
X183049372Y-108334755D01*
X183025888Y-108287033D01*
X182993812Y-108243026D01*
X182955439Y-108208512D01*
X182938323Y-108197292D01*
X182891092Y-108175788D01*
X182843159Y-108164428D01*
X182790087Y-108160641D01*
X182772677Y-108161021D01*
X182723099Y-108166720D01*
X182672681Y-108181074D01*
X182627177Y-108203872D01*
X182587969Y-108233634D01*
X182553711Y-108272709D01*
X182528747Y-108318422D01*
X182518620Y-108348466D01*
X182508377Y-108399078D01*
X182502470Y-108453256D01*
X182499677Y-108507043D01*
X182499550Y-108515770D01*
X182498949Y-108557047D01*
X182372207Y-108557047D01*
X182372207Y-107484821D01*
X182483318Y-107484821D01*
X182483348Y-107486775D01*
X182483592Y-107502424D01*
X182487714Y-107554354D01*
X182496782Y-107604961D01*
X182510795Y-107654245D01*
X182529754Y-107702207D01*
X182553660Y-107748847D01*
X182562616Y-107763968D01*
X182591823Y-107806870D01*
X182624532Y-107846080D01*
X182660745Y-107881597D01*
X182700461Y-107913422D01*
X182743681Y-107941555D01*
X182758762Y-107950043D01*
X182805092Y-107972223D01*
X182853055Y-107989473D01*
X182902648Y-108001795D01*
X182953874Y-108009188D01*
X183006730Y-108011653D01*
X183059189Y-108009302D01*
X183109831Y-108002249D01*
X183158657Y-107990495D01*
X183205666Y-107974039D01*
X183250858Y-107952882D01*
X183294234Y-107927023D01*
X183335794Y-107896462D01*
X183375537Y-107861199D01*
X183411887Y-107822384D01*
X183443391Y-107781164D01*
X183470047Y-107737540D01*
X183491857Y-107691511D01*
X183508821Y-107643079D01*
X183520938Y-107592242D01*
X183528208Y-107539001D01*
X183530631Y-107483355D01*
X183528269Y-107430088D01*
X183521182Y-107378850D01*
X183509370Y-107329643D01*
X183492834Y-107282466D01*
X183471574Y-107237319D01*
X183445589Y-107194202D01*
X183414879Y-107153116D01*
X183379445Y-107114060D01*
X183340599Y-107078397D01*
X183299654Y-107047489D01*
X183256610Y-107021336D01*
X183211467Y-106999938D01*
X183164225Y-106983295D01*
X183114884Y-106971407D01*
X183063444Y-106964274D01*
X183009905Y-106961897D01*
X182955878Y-106964309D01*
X182903950Y-106971544D01*
X182854120Y-106983604D01*
X182806390Y-107000487D01*
X182760759Y-107022194D01*
X182717226Y-107048725D01*
X182675793Y-107080080D01*
X182636458Y-107116258D01*
X182600566Y-107155730D01*
X182569459Y-107197087D01*
X182543138Y-107240330D01*
X182521603Y-107285458D01*
X182504853Y-107332471D01*
X182492889Y-107381369D01*
X182485711Y-107432152D01*
X182483318Y-107484821D01*
X182372207Y-107484821D01*
X182372207Y-106290229D01*
X182483318Y-106290229D01*
X182486039Y-106351763D01*
X182494202Y-106410335D01*
X182507807Y-106465947D01*
X182526854Y-106518596D01*
X182551343Y-106568284D01*
X182581274Y-106615011D01*
X182616648Y-106658776D01*
X182657463Y-106699580D01*
X182675981Y-106715640D01*
X182724031Y-106751257D01*
X182774585Y-106780398D01*
X182827643Y-106803063D01*
X182883206Y-106819252D01*
X182941274Y-106828966D01*
X183001845Y-106832204D01*
X183019812Y-106831923D01*
X183072798Y-106827716D01*
X183124409Y-106818460D01*
X183174647Y-106804154D01*
X183223511Y-106784800D01*
X183271001Y-106760397D01*
X183286378Y-106751220D01*
X183329818Y-106721287D01*
X183369222Y-106687748D01*
X183404590Y-106650602D01*
X183435923Y-106609849D01*
X183463220Y-106565491D01*
X183471383Y-106549940D01*
X183492712Y-106501698D01*
X183509302Y-106451068D01*
X183521151Y-106398051D01*
X183528261Y-106342647D01*
X183530631Y-106284856D01*
X183528459Y-106231049D01*
X183521941Y-106179904D01*
X183511079Y-106131421D01*
X183492915Y-106078221D01*
X183468838Y-106028645D01*
X183448174Y-105995447D01*
X183414696Y-105952315D01*
X183375912Y-105913087D01*
X183331822Y-105877763D01*
X183289808Y-105850592D01*
X183252761Y-105830820D01*
X183207423Y-105811517D01*
X183153314Y-105795096D01*
X183097896Y-105785244D01*
X183041168Y-105781960D01*
X182999159Y-105783425D01*
X182999159Y-106291695D01*
X183186737Y-106291695D01*
X183186737Y-105999092D01*
X183196645Y-106004446D01*
X183241177Y-106034308D01*
X183277360Y-106069323D01*
X183305195Y-106109489D01*
X183314068Y-106127018D01*
X183331074Y-106175146D01*
X183340058Y-106223723D01*
X183343053Y-106277284D01*
X183342665Y-106296237D01*
X183336855Y-106350817D01*
X183324072Y-106401979D01*
X183304317Y-106449723D01*
X183277590Y-106494051D01*
X183243890Y-106534960D01*
X183231324Y-106547589D01*
X183191576Y-106580588D01*
X183148754Y-106606254D01*
X183102859Y-106624586D01*
X183053889Y-106635586D01*
X183001845Y-106639252D01*
X182959735Y-106636795D01*
X182904186Y-106625101D01*
X182852611Y-106603777D01*
X182805010Y-106572822D01*
X182767372Y-106538624D01*
X182755690Y-106525856D01*
X182725164Y-106485272D01*
X182701422Y-106441271D01*
X182684463Y-106393853D01*
X182674288Y-106343017D01*
X182670896Y-106288764D01*
X182671416Y-106267558D01*
X182677266Y-106215998D01*
X182689615Y-106166512D01*
X182708464Y-106119102D01*
X182733813Y-106073767D01*
X182765661Y-106030507D01*
X182804009Y-105989322D01*
X182671629Y-105854011D01*
X182653508Y-105871448D01*
X182615248Y-105912401D01*
X182582622Y-105953727D01*
X182555629Y-105995428D01*
X182531678Y-106043544D01*
X182517746Y-106079834D01*
X182502208Y-106132044D01*
X182491299Y-106185889D01*
X182485018Y-106241371D01*
X182483318Y-106290229D01*
X182372207Y-106290229D01*
X182372207Y-105670849D01*
X183641742Y-105670849D01*
X183641742Y-109669309D01*
G37*
D11*
X198649060Y-130202857D02*
X198696680Y-130250476D01*
X198696680Y-130250476D02*
X198744299Y-130393333D01*
X198744299Y-130393333D02*
X198744299Y-130488571D01*
X198744299Y-130488571D02*
X198696680Y-130631428D01*
X198696680Y-130631428D02*
X198601441Y-130726666D01*
X198601441Y-130726666D02*
X198506203Y-130774285D01*
X198506203Y-130774285D02*
X198315727Y-130821904D01*
X198315727Y-130821904D02*
X198172870Y-130821904D01*
X198172870Y-130821904D02*
X197982394Y-130774285D01*
X197982394Y-130774285D02*
X197887156Y-130726666D01*
X197887156Y-130726666D02*
X197791918Y-130631428D01*
X197791918Y-130631428D02*
X197744299Y-130488571D01*
X197744299Y-130488571D02*
X197744299Y-130393333D01*
X197744299Y-130393333D02*
X197791918Y-130250476D01*
X197791918Y-130250476D02*
X197839537Y-130202857D01*
X197839537Y-129821904D02*
X197791918Y-129774285D01*
X197791918Y-129774285D02*
X197744299Y-129679047D01*
X197744299Y-129679047D02*
X197744299Y-129440952D01*
X197744299Y-129440952D02*
X197791918Y-129345714D01*
X197791918Y-129345714D02*
X197839537Y-129298095D01*
X197839537Y-129298095D02*
X197934775Y-129250476D01*
X197934775Y-129250476D02*
X198030013Y-129250476D01*
X198030013Y-129250476D02*
X198172870Y-129298095D01*
X198172870Y-129298095D02*
X198744299Y-129869523D01*
X198744299Y-129869523D02*
X198744299Y-129250476D01*
X197744299Y-128917142D02*
X197744299Y-128250476D01*
X197744299Y-128250476D02*
X198744299Y-128679047D01*
X142659060Y-112866666D02*
X142706680Y-112914285D01*
X142706680Y-112914285D02*
X142754299Y-113057142D01*
X142754299Y-113057142D02*
X142754299Y-113152380D01*
X142754299Y-113152380D02*
X142706680Y-113295237D01*
X142706680Y-113295237D02*
X142611441Y-113390475D01*
X142611441Y-113390475D02*
X142516203Y-113438094D01*
X142516203Y-113438094D02*
X142325727Y-113485713D01*
X142325727Y-113485713D02*
X142182870Y-113485713D01*
X142182870Y-113485713D02*
X141992394Y-113438094D01*
X141992394Y-113438094D02*
X141897156Y-113390475D01*
X141897156Y-113390475D02*
X141801918Y-113295237D01*
X141801918Y-113295237D02*
X141754299Y-113152380D01*
X141754299Y-113152380D02*
X141754299Y-113057142D01*
X141754299Y-113057142D02*
X141801918Y-112914285D01*
X141801918Y-112914285D02*
X141849537Y-112866666D01*
X142754299Y-112390475D02*
X142754299Y-112199999D01*
X142754299Y-112199999D02*
X142706680Y-112104761D01*
X142706680Y-112104761D02*
X142659060Y-112057142D01*
X142659060Y-112057142D02*
X142516203Y-111961904D01*
X142516203Y-111961904D02*
X142325727Y-111914285D01*
X142325727Y-111914285D02*
X141944775Y-111914285D01*
X141944775Y-111914285D02*
X141849537Y-111961904D01*
X141849537Y-111961904D02*
X141801918Y-112009523D01*
X141801918Y-112009523D02*
X141754299Y-112104761D01*
X141754299Y-112104761D02*
X141754299Y-112295237D01*
X141754299Y-112295237D02*
X141801918Y-112390475D01*
X141801918Y-112390475D02*
X141849537Y-112438094D01*
X141849537Y-112438094D02*
X141944775Y-112485713D01*
X141944775Y-112485713D02*
X142182870Y-112485713D01*
X142182870Y-112485713D02*
X142278108Y-112438094D01*
X142278108Y-112438094D02*
X142325727Y-112390475D01*
X142325727Y-112390475D02*
X142373346Y-112295237D01*
X142373346Y-112295237D02*
X142373346Y-112104761D01*
X142373346Y-112104761D02*
X142325727Y-112009523D01*
X142325727Y-112009523D02*
X142278108Y-111961904D01*
X142278108Y-111961904D02*
X142182870Y-111914285D01*
D14*
X228708540Y-94866666D02*
X228756160Y-94914285D01*
X228756160Y-94914285D02*
X228803779Y-95057142D01*
X228803779Y-95057142D02*
X228803779Y-95152380D01*
X228803779Y-95152380D02*
X228756160Y-95295237D01*
X228756160Y-95295237D02*
X228660921Y-95390475D01*
X228660921Y-95390475D02*
X228565683Y-95438094D01*
X228565683Y-95438094D02*
X228375207Y-95485713D01*
X228375207Y-95485713D02*
X228232350Y-95485713D01*
X228232350Y-95485713D02*
X228041874Y-95438094D01*
X228041874Y-95438094D02*
X227946636Y-95390475D01*
X227946636Y-95390475D02*
X227851398Y-95295237D01*
X227851398Y-95295237D02*
X227803779Y-95152380D01*
X227803779Y-95152380D02*
X227803779Y-95057142D01*
X227803779Y-95057142D02*
X227851398Y-94914285D01*
X227851398Y-94914285D02*
X227899017Y-94866666D01*
X228803779Y-93914285D02*
X228803779Y-94485713D01*
X228803779Y-94199999D02*
X227803779Y-94199999D01*
X227803779Y-94199999D02*
X227946636Y-94295237D01*
X227946636Y-94295237D02*
X228041874Y-94390475D01*
X228041874Y-94390475D02*
X228089493Y-94485713D01*
G36*
X205474237Y-130201111D02*
G01*
X202944165Y-130201111D01*
X202944165Y-130090000D01*
X203055276Y-130090000D01*
X203249693Y-130090000D01*
X203249693Y-129631067D01*
X203561591Y-130090000D01*
X203789714Y-130090000D01*
X203922093Y-130090000D01*
X204473838Y-130090000D01*
X204473838Y-129902421D01*
X204113091Y-129902421D01*
X204113091Y-129636685D01*
X204473838Y-129636685D01*
X204473838Y-129449106D01*
X204113091Y-129449106D01*
X204113091Y-129261528D01*
X204473838Y-129261528D01*
X204473838Y-129073949D01*
X204577153Y-129073949D01*
X204873908Y-129650118D01*
X204873908Y-130090000D01*
X205067592Y-130090000D01*
X205067592Y-129650118D01*
X205363126Y-129073949D01*
X205158939Y-129073949D01*
X204972093Y-129434696D01*
X204784026Y-129073949D01*
X204577153Y-129073949D01*
X204473838Y-129073949D01*
X203922093Y-129073949D01*
X203922093Y-130090000D01*
X203789714Y-130090000D01*
X203402100Y-129519448D01*
X203755276Y-129073949D01*
X203523733Y-129073949D01*
X203249693Y-129415157D01*
X203249693Y-129073949D01*
X203055276Y-129073949D01*
X203055276Y-130090000D01*
X202944165Y-130090000D01*
X202944165Y-128962838D01*
X205474237Y-128962838D01*
X205474237Y-130201111D01*
G37*
D11*
X200583333Y-107654299D02*
X200250000Y-107178108D01*
X200011905Y-107654299D02*
X200011905Y-106654299D01*
X200011905Y-106654299D02*
X200392857Y-106654299D01*
X200392857Y-106654299D02*
X200488095Y-106701918D01*
X200488095Y-106701918D02*
X200535714Y-106749537D01*
X200535714Y-106749537D02*
X200583333Y-106844775D01*
X200583333Y-106844775D02*
X200583333Y-106987632D01*
X200583333Y-106987632D02*
X200535714Y-107082870D01*
X200535714Y-107082870D02*
X200488095Y-107130489D01*
X200488095Y-107130489D02*
X200392857Y-107178108D01*
X200392857Y-107178108D02*
X200011905Y-107178108D01*
X200916667Y-106654299D02*
X201583333Y-106654299D01*
X201583333Y-106654299D02*
X201154762Y-107654299D01*
D15*
G36*
X172721181Y-130876111D02*
G01*
X168860473Y-130876111D01*
X168860473Y-130186632D01*
X168971584Y-130186632D01*
X168971584Y-130358579D01*
X169229260Y-130358579D01*
X169229260Y-130608684D01*
X169400963Y-130608684D01*
X169400963Y-130358579D01*
X169657906Y-130358579D01*
X169657906Y-130186632D01*
X169400963Y-130186632D01*
X169400963Y-129936528D01*
X169229260Y-129936528D01*
X169229260Y-130186632D01*
X168971584Y-130186632D01*
X168860473Y-130186632D01*
X168860473Y-129748949D01*
X169771479Y-129748949D01*
X170129295Y-130765000D01*
X170314675Y-130765000D01*
X170814396Y-130765000D01*
X171005394Y-130765000D01*
X171220572Y-130765000D01*
X171413035Y-130765000D01*
X171413035Y-130098461D01*
X171845834Y-130765000D01*
X172030481Y-130765000D01*
X172030481Y-130483632D01*
X172261047Y-130483632D01*
X172610070Y-130483632D01*
X172610070Y-130311685D01*
X172261047Y-130311685D01*
X172261047Y-130483632D01*
X172030481Y-130483632D01*
X172030481Y-129748949D01*
X171838262Y-129748949D01*
X171838262Y-130417686D01*
X171404731Y-129748949D01*
X171220572Y-129748949D01*
X171220572Y-130765000D01*
X171005394Y-130765000D01*
X171005394Y-129748949D01*
X170814396Y-129748949D01*
X170814396Y-130765000D01*
X170314675Y-130765000D01*
X170678841Y-129748949D01*
X170481005Y-129748949D01*
X170223329Y-130470687D01*
X169969316Y-129748949D01*
X169771479Y-129748949D01*
X168860473Y-129748949D01*
X168860473Y-129637838D01*
X172721181Y-129637838D01*
X172721181Y-130876111D01*
G37*
D11*
X179331905Y-120874299D02*
X179331905Y-119874299D01*
X179331905Y-119874299D02*
X179570000Y-119874299D01*
X179570000Y-119874299D02*
X179712857Y-119921918D01*
X179712857Y-119921918D02*
X179808095Y-120017156D01*
X179808095Y-120017156D02*
X179855714Y-120112394D01*
X179855714Y-120112394D02*
X179903333Y-120302870D01*
X179903333Y-120302870D02*
X179903333Y-120445727D01*
X179903333Y-120445727D02*
X179855714Y-120636203D01*
X179855714Y-120636203D02*
X179808095Y-120731441D01*
X179808095Y-120731441D02*
X179712857Y-120826680D01*
X179712857Y-120826680D02*
X179570000Y-120874299D01*
X179570000Y-120874299D02*
X179331905Y-120874299D01*
X180236667Y-119874299D02*
X180903333Y-119874299D01*
X180903333Y-119874299D02*
X180474762Y-120874299D01*
X149107142Y-117704299D02*
X148773809Y-117228108D01*
X148535714Y-117704299D02*
X148535714Y-116704299D01*
X148535714Y-116704299D02*
X148916666Y-116704299D01*
X148916666Y-116704299D02*
X149011904Y-116751918D01*
X149011904Y-116751918D02*
X149059523Y-116799537D01*
X149059523Y-116799537D02*
X149107142Y-116894775D01*
X149107142Y-116894775D02*
X149107142Y-117037632D01*
X149107142Y-117037632D02*
X149059523Y-117132870D01*
X149059523Y-117132870D02*
X149011904Y-117180489D01*
X149011904Y-117180489D02*
X148916666Y-117228108D01*
X148916666Y-117228108D02*
X148535714Y-117228108D01*
X150059523Y-117704299D02*
X149488095Y-117704299D01*
X149773809Y-117704299D02*
X149773809Y-116704299D01*
X149773809Y-116704299D02*
X149678571Y-116847156D01*
X149678571Y-116847156D02*
X149583333Y-116942394D01*
X149583333Y-116942394D02*
X149488095Y-116990013D01*
X150916666Y-117037632D02*
X150916666Y-117704299D01*
X150678571Y-116656680D02*
X150440476Y-117370965D01*
X150440476Y-117370965D02*
X151059523Y-117370965D01*
X153754299Y-109366666D02*
X153278108Y-109699999D01*
X153754299Y-109938094D02*
X152754299Y-109938094D01*
X152754299Y-109938094D02*
X152754299Y-109557142D01*
X152754299Y-109557142D02*
X152801918Y-109461904D01*
X152801918Y-109461904D02*
X152849537Y-109414285D01*
X152849537Y-109414285D02*
X152944775Y-109366666D01*
X152944775Y-109366666D02*
X153087632Y-109366666D01*
X153087632Y-109366666D02*
X153182870Y-109414285D01*
X153182870Y-109414285D02*
X153230489Y-109461904D01*
X153230489Y-109461904D02*
X153278108Y-109557142D01*
X153278108Y-109557142D02*
X153278108Y-109938094D01*
X152849537Y-108985713D02*
X152801918Y-108938094D01*
X152801918Y-108938094D02*
X152754299Y-108842856D01*
X152754299Y-108842856D02*
X152754299Y-108604761D01*
X152754299Y-108604761D02*
X152801918Y-108509523D01*
X152801918Y-108509523D02*
X152849537Y-108461904D01*
X152849537Y-108461904D02*
X152944775Y-108414285D01*
X152944775Y-108414285D02*
X153040013Y-108414285D01*
X153040013Y-108414285D02*
X153182870Y-108461904D01*
X153182870Y-108461904D02*
X153754299Y-109033332D01*
X153754299Y-109033332D02*
X153754299Y-108414285D01*
X173754299Y-109366666D02*
X173278108Y-109699999D01*
X173754299Y-109938094D02*
X172754299Y-109938094D01*
X172754299Y-109938094D02*
X172754299Y-109557142D01*
X172754299Y-109557142D02*
X172801918Y-109461904D01*
X172801918Y-109461904D02*
X172849537Y-109414285D01*
X172849537Y-109414285D02*
X172944775Y-109366666D01*
X172944775Y-109366666D02*
X173087632Y-109366666D01*
X173087632Y-109366666D02*
X173182870Y-109414285D01*
X173182870Y-109414285D02*
X173230489Y-109461904D01*
X173230489Y-109461904D02*
X173278108Y-109557142D01*
X173278108Y-109557142D02*
X173278108Y-109938094D01*
X173754299Y-108414285D02*
X173754299Y-108985713D01*
X173754299Y-108699999D02*
X172754299Y-108699999D01*
X172754299Y-108699999D02*
X172897156Y-108795237D01*
X172897156Y-108795237D02*
X172992394Y-108890475D01*
X172992394Y-108890475D02*
X173040013Y-108985713D01*
D15*
G36*
X136962176Y-108636538D02*
G01*
X137011984Y-108638261D01*
X137063171Y-108647030D01*
X137070193Y-108649866D01*
X137109089Y-108681468D01*
X137114085Y-108689157D01*
X137126430Y-108737889D01*
X137121553Y-108774559D01*
X137091748Y-108816290D01*
X137067699Y-108827625D01*
X137016930Y-108837448D01*
X136964986Y-108839738D01*
X136904413Y-108839738D01*
X136904413Y-108636528D01*
X136957414Y-108636528D01*
X136962176Y-108636538D01*
G37*
G36*
X140264443Y-109591742D02*
G01*
X136601083Y-109591742D01*
X136601083Y-108839738D01*
X136712194Y-108839738D01*
X136712194Y-109465000D01*
X136904413Y-109465000D01*
X136904413Y-109027316D01*
X136922487Y-109027316D01*
X137149877Y-109465000D01*
X137359926Y-109465000D01*
X137511601Y-109465000D01*
X138063346Y-109465000D01*
X138063346Y-109277421D01*
X137702599Y-109277421D01*
X137702599Y-109253485D01*
X138151517Y-109253485D01*
X138158722Y-109267926D01*
X138185364Y-109314622D01*
X138214227Y-109355334D01*
X138249932Y-109394535D01*
X138288538Y-109425921D01*
X138324907Y-109447238D01*
X138375549Y-109466953D01*
X138424230Y-109477212D01*
X138476360Y-109480631D01*
X138510100Y-109479391D01*
X138565196Y-109471251D01*
X138585086Y-109465000D01*
X138967288Y-109465000D01*
X139519033Y-109465000D01*
X139519033Y-109277421D01*
X139158286Y-109277421D01*
X139158286Y-109011685D01*
X139519033Y-109011685D01*
X139519033Y-108824106D01*
X139158286Y-108824106D01*
X139158286Y-108636528D01*
X139519033Y-108636528D01*
X139594993Y-108636528D01*
X139774267Y-108636528D01*
X139774267Y-109465000D01*
X139969417Y-109465000D01*
X139969417Y-108636528D01*
X140153332Y-108636528D01*
X140153332Y-108448949D01*
X139594993Y-108448949D01*
X139594993Y-108636528D01*
X139519033Y-108636528D01*
X139519033Y-108448949D01*
X138967288Y-108448949D01*
X138967288Y-109465000D01*
X138585086Y-109465000D01*
X138615267Y-109455515D01*
X138660312Y-109432182D01*
X138700331Y-109401252D01*
X138710742Y-109391135D01*
X138741890Y-109353141D01*
X138767414Y-109304796D01*
X138782191Y-109251200D01*
X138786304Y-109199996D01*
X138785923Y-109184460D01*
X138778576Y-109132548D01*
X138761880Y-109084469D01*
X138745456Y-109054270D01*
X138715202Y-109012802D01*
X138679082Y-108973583D01*
X138664782Y-108960134D01*
X138625544Y-108926107D01*
X138584137Y-108891463D01*
X138545970Y-108860010D01*
X138518069Y-108836650D01*
X138476313Y-108800895D01*
X138439612Y-108768018D01*
X138405041Y-108732759D01*
X138387944Y-108685621D01*
X138387968Y-108684069D01*
X138411880Y-108640924D01*
X138424825Y-108632162D01*
X138473918Y-108620896D01*
X138512478Y-108627735D01*
X138555493Y-108651778D01*
X138593404Y-108687681D01*
X138626325Y-108730317D01*
X138768475Y-108600868D01*
X138743867Y-108572480D01*
X138705635Y-108533111D01*
X138664303Y-108497725D01*
X138620464Y-108469466D01*
X138577006Y-108450403D01*
X138527549Y-108437589D01*
X138476360Y-108433318D01*
X138469054Y-108433390D01*
X138419955Y-108437928D01*
X138368222Y-108451758D01*
X138321159Y-108474808D01*
X138278768Y-108507079D01*
X138247648Y-108540645D01*
X138221441Y-108582441D01*
X138203892Y-108633841D01*
X138198900Y-108683422D01*
X138204586Y-108732483D01*
X138221643Y-108781601D01*
X138247016Y-108826304D01*
X138264903Y-108850135D01*
X138299521Y-108888426D01*
X138338086Y-108925824D01*
X138376495Y-108960216D01*
X138420604Y-108997542D01*
X138459996Y-109029515D01*
X138499518Y-109061968D01*
X138538143Y-109096267D01*
X138572104Y-109132585D01*
X138584382Y-109151407D01*
X138597505Y-109199508D01*
X138593522Y-109223992D01*
X138563799Y-109264965D01*
X138531315Y-109284165D01*
X138480757Y-109293053D01*
X138468967Y-109292503D01*
X138418063Y-109276429D01*
X138375767Y-109243456D01*
X138341037Y-109200179D01*
X138312962Y-109152369D01*
X138151517Y-109253485D01*
X137702599Y-109253485D01*
X137702599Y-109011685D01*
X138063346Y-109011685D01*
X138063346Y-108824106D01*
X137702599Y-108824106D01*
X137702599Y-108636528D01*
X138063346Y-108636528D01*
X138063346Y-108448949D01*
X137511601Y-108448949D01*
X137511601Y-109465000D01*
X137359926Y-109465000D01*
X137120813Y-109006067D01*
X137138429Y-108999372D01*
X137186151Y-108975888D01*
X137230158Y-108943812D01*
X137264672Y-108905439D01*
X137275891Y-108888323D01*
X137297396Y-108841092D01*
X137308756Y-108793159D01*
X137312543Y-108740087D01*
X137312163Y-108722677D01*
X137306464Y-108673099D01*
X137292110Y-108622681D01*
X137269312Y-108577177D01*
X137239550Y-108537969D01*
X137200475Y-108503711D01*
X137154762Y-108478747D01*
X137124718Y-108468620D01*
X137074106Y-108458377D01*
X137019928Y-108452470D01*
X136966141Y-108449677D01*
X136916137Y-108448949D01*
X136712194Y-108448949D01*
X136712194Y-108839738D01*
X136601083Y-108839738D01*
X136601083Y-108322207D01*
X140264443Y-108322207D01*
X140264443Y-109591742D01*
G37*
D11*
X125083333Y-107629299D02*
X124750000Y-107153108D01*
X124511905Y-107629299D02*
X124511905Y-106629299D01*
X124511905Y-106629299D02*
X124892857Y-106629299D01*
X124892857Y-106629299D02*
X124988095Y-106676918D01*
X124988095Y-106676918D02*
X125035714Y-106724537D01*
X125035714Y-106724537D02*
X125083333Y-106819775D01*
X125083333Y-106819775D02*
X125083333Y-106962632D01*
X125083333Y-106962632D02*
X125035714Y-107057870D01*
X125035714Y-107057870D02*
X124988095Y-107105489D01*
X124988095Y-107105489D02*
X124892857Y-107153108D01*
X124892857Y-107153108D02*
X124511905Y-107153108D01*
X125416667Y-106629299D02*
X126035714Y-106629299D01*
X126035714Y-106629299D02*
X125702381Y-107010251D01*
X125702381Y-107010251D02*
X125845238Y-107010251D01*
X125845238Y-107010251D02*
X125940476Y-107057870D01*
X125940476Y-107057870D02*
X125988095Y-107105489D01*
X125988095Y-107105489D02*
X126035714Y-107200727D01*
X126035714Y-107200727D02*
X126035714Y-107438822D01*
X126035714Y-107438822D02*
X125988095Y-107534060D01*
X125988095Y-107534060D02*
X125940476Y-107581680D01*
X125940476Y-107581680D02*
X125845238Y-107629299D01*
X125845238Y-107629299D02*
X125559524Y-107629299D01*
X125559524Y-107629299D02*
X125464286Y-107581680D01*
X125464286Y-107581680D02*
X125416667Y-107534060D01*
X176124299Y-122866666D02*
X175648108Y-123199999D01*
X176124299Y-123438094D02*
X175124299Y-123438094D01*
X175124299Y-123438094D02*
X175124299Y-123057142D01*
X175124299Y-123057142D02*
X175171918Y-122961904D01*
X175171918Y-122961904D02*
X175219537Y-122914285D01*
X175219537Y-122914285D02*
X175314775Y-122866666D01*
X175314775Y-122866666D02*
X175457632Y-122866666D01*
X175457632Y-122866666D02*
X175552870Y-122914285D01*
X175552870Y-122914285D02*
X175600489Y-122961904D01*
X175600489Y-122961904D02*
X175648108Y-123057142D01*
X175648108Y-123057142D02*
X175648108Y-123438094D01*
X175457632Y-122009523D02*
X176124299Y-122009523D01*
X175076680Y-122247618D02*
X175790965Y-122485713D01*
X175790965Y-122485713D02*
X175790965Y-121866666D01*
X124561905Y-105654299D02*
X124561905Y-104654299D01*
X124561905Y-104654299D02*
X124800000Y-104654299D01*
X124800000Y-104654299D02*
X124942857Y-104701918D01*
X124942857Y-104701918D02*
X125038095Y-104797156D01*
X125038095Y-104797156D02*
X125085714Y-104892394D01*
X125085714Y-104892394D02*
X125133333Y-105082870D01*
X125133333Y-105082870D02*
X125133333Y-105225727D01*
X125133333Y-105225727D02*
X125085714Y-105416203D01*
X125085714Y-105416203D02*
X125038095Y-105511441D01*
X125038095Y-105511441D02*
X124942857Y-105606680D01*
X124942857Y-105606680D02*
X124800000Y-105654299D01*
X124800000Y-105654299D02*
X124561905Y-105654299D01*
X125466667Y-104654299D02*
X126085714Y-104654299D01*
X126085714Y-104654299D02*
X125752381Y-105035251D01*
X125752381Y-105035251D02*
X125895238Y-105035251D01*
X125895238Y-105035251D02*
X125990476Y-105082870D01*
X125990476Y-105082870D02*
X126038095Y-105130489D01*
X126038095Y-105130489D02*
X126085714Y-105225727D01*
X126085714Y-105225727D02*
X126085714Y-105463822D01*
X126085714Y-105463822D02*
X126038095Y-105559060D01*
X126038095Y-105559060D02*
X125990476Y-105606680D01*
X125990476Y-105606680D02*
X125895238Y-105654299D01*
X125895238Y-105654299D02*
X125609524Y-105654299D01*
X125609524Y-105654299D02*
X125514286Y-105606680D01*
X125514286Y-105606680D02*
X125466667Y-105559060D01*
D16*
G36*
X164927827Y-126330090D02*
G01*
X161850415Y-126330090D01*
X161850415Y-126178000D01*
X161983748Y-126178000D01*
X162212945Y-126178000D01*
X162378249Y-126178000D01*
X162603050Y-126178000D01*
X162735820Y-125408048D01*
X162990517Y-126178000D01*
X163194215Y-126178000D01*
X163452136Y-125408048D01*
X163582561Y-126178000D01*
X163805018Y-126178000D01*
X163721269Y-125678865D01*
X163973252Y-125678865D01*
X163973907Y-125730843D01*
X163977345Y-125801494D01*
X163983730Y-125863366D01*
X163994904Y-125924454D01*
X164015164Y-125985438D01*
X164023564Y-126002154D01*
X164058598Y-126054040D01*
X164104451Y-126100031D01*
X164154969Y-126136381D01*
X164199424Y-126159906D01*
X164261361Y-126181663D01*
X164320932Y-126192984D01*
X164384752Y-126196757D01*
X164439353Y-126194253D01*
X164500798Y-126184393D01*
X164561193Y-126165103D01*
X164602479Y-126144609D01*
X164653127Y-126108916D01*
X164695136Y-126067797D01*
X164718730Y-126038836D01*
X164750824Y-125988078D01*
X164773685Y-125931510D01*
X164785532Y-125869788D01*
X164791060Y-125808367D01*
X164793763Y-125743203D01*
X164794494Y-125678865D01*
X164794494Y-124958739D01*
X164562659Y-124958739D01*
X164562659Y-125709053D01*
X164562061Y-125751705D01*
X164557861Y-125815662D01*
X164545660Y-125873184D01*
X164529256Y-125903176D01*
X164484697Y-125943819D01*
X164439745Y-125963805D01*
X164379770Y-125971663D01*
X164338856Y-125968160D01*
X164281291Y-125946750D01*
X164258061Y-125929548D01*
X164222673Y-125880219D01*
X164215821Y-125859077D01*
X164207165Y-125799964D01*
X164205087Y-125737776D01*
X164205087Y-124958739D01*
X163973252Y-124958739D01*
X163973252Y-125678865D01*
X163721269Y-125678865D01*
X163600440Y-124958739D01*
X163377983Y-124958739D01*
X163093685Y-125809290D01*
X162813489Y-124958739D01*
X162587516Y-124958739D01*
X162378249Y-126178000D01*
X162212945Y-126178000D01*
X162212945Y-124958739D01*
X161983748Y-124958739D01*
X161983748Y-126178000D01*
X161850415Y-126178000D01*
X161850415Y-124825406D01*
X164927827Y-124825406D01*
X164927827Y-126330090D01*
G37*
D11*
X189351904Y-133345700D02*
X189351904Y-132536177D01*
X189351904Y-132536177D02*
X189304285Y-132440939D01*
X189304285Y-132440939D02*
X189256666Y-132393320D01*
X189256666Y-132393320D02*
X189161428Y-132345700D01*
X189161428Y-132345700D02*
X188970952Y-132345700D01*
X188970952Y-132345700D02*
X188875714Y-132393320D01*
X188875714Y-132393320D02*
X188828095Y-132440939D01*
X188828095Y-132440939D02*
X188780476Y-132536177D01*
X188780476Y-132536177D02*
X188780476Y-133345700D01*
X188399523Y-133345700D02*
X187732857Y-133345700D01*
X187732857Y-133345700D02*
X188161428Y-132345700D01*
X191246641Y-130930700D02*
X191246641Y-131930700D01*
X191246641Y-131454510D02*
X190675213Y-131454510D01*
X190675213Y-130930700D02*
X190675213Y-131930700D01*
X189627594Y-131025939D02*
X189675213Y-130978320D01*
X189675213Y-130978320D02*
X189818070Y-130930700D01*
X189818070Y-130930700D02*
X189913308Y-130930700D01*
X189913308Y-130930700D02*
X190056165Y-130978320D01*
X190056165Y-130978320D02*
X190151403Y-131073558D01*
X190151403Y-131073558D02*
X190199022Y-131168796D01*
X190199022Y-131168796D02*
X190246641Y-131359272D01*
X190246641Y-131359272D02*
X190246641Y-131502129D01*
X190246641Y-131502129D02*
X190199022Y-131692605D01*
X190199022Y-131692605D02*
X190151403Y-131787843D01*
X190151403Y-131787843D02*
X190056165Y-131883081D01*
X190056165Y-131883081D02*
X189913308Y-131930700D01*
X189913308Y-131930700D02*
X189818070Y-131930700D01*
X189818070Y-131930700D02*
X189675213Y-131883081D01*
X189675213Y-131883081D02*
X189627594Y-131835462D01*
X189199022Y-131311653D02*
X188437118Y-131311653D01*
X187770451Y-131930700D02*
X187675213Y-131930700D01*
X187675213Y-131930700D02*
X187579975Y-131883081D01*
X187579975Y-131883081D02*
X187532356Y-131835462D01*
X187532356Y-131835462D02*
X187484737Y-131740224D01*
X187484737Y-131740224D02*
X187437118Y-131549748D01*
X187437118Y-131549748D02*
X187437118Y-131311653D01*
X187437118Y-131311653D02*
X187484737Y-131121177D01*
X187484737Y-131121177D02*
X187532356Y-131025939D01*
X187532356Y-131025939D02*
X187579975Y-130978320D01*
X187579975Y-130978320D02*
X187675213Y-130930700D01*
X187675213Y-130930700D02*
X187770451Y-130930700D01*
X187770451Y-130930700D02*
X187865689Y-130978320D01*
X187865689Y-130978320D02*
X187913308Y-131025939D01*
X187913308Y-131025939D02*
X187960927Y-131121177D01*
X187960927Y-131121177D02*
X188008546Y-131311653D01*
X188008546Y-131311653D02*
X188008546Y-131549748D01*
X188008546Y-131549748D02*
X187960927Y-131740224D01*
X187960927Y-131740224D02*
X187913308Y-131835462D01*
X187913308Y-131835462D02*
X187865689Y-131883081D01*
X187865689Y-131883081D02*
X187770451Y-131930700D01*
X186579975Y-131597367D02*
X186579975Y-130930700D01*
X186818070Y-131978320D02*
X187056165Y-131264034D01*
X187056165Y-131264034D02*
X186437118Y-131264034D01*
X200061905Y-105654299D02*
X200061905Y-104654299D01*
X200061905Y-104654299D02*
X200300000Y-104654299D01*
X200300000Y-104654299D02*
X200442857Y-104701918D01*
X200442857Y-104701918D02*
X200538095Y-104797156D01*
X200538095Y-104797156D02*
X200585714Y-104892394D01*
X200585714Y-104892394D02*
X200633333Y-105082870D01*
X200633333Y-105082870D02*
X200633333Y-105225727D01*
X200633333Y-105225727D02*
X200585714Y-105416203D01*
X200585714Y-105416203D02*
X200538095Y-105511441D01*
X200538095Y-105511441D02*
X200442857Y-105606680D01*
X200442857Y-105606680D02*
X200300000Y-105654299D01*
X200300000Y-105654299D02*
X200061905Y-105654299D01*
X201490476Y-104654299D02*
X201300000Y-104654299D01*
X201300000Y-104654299D02*
X201204762Y-104701918D01*
X201204762Y-104701918D02*
X201157143Y-104749537D01*
X201157143Y-104749537D02*
X201061905Y-104892394D01*
X201061905Y-104892394D02*
X201014286Y-105082870D01*
X201014286Y-105082870D02*
X201014286Y-105463822D01*
X201014286Y-105463822D02*
X201061905Y-105559060D01*
X201061905Y-105559060D02*
X201109524Y-105606680D01*
X201109524Y-105606680D02*
X201204762Y-105654299D01*
X201204762Y-105654299D02*
X201395238Y-105654299D01*
X201395238Y-105654299D02*
X201490476Y-105606680D01*
X201490476Y-105606680D02*
X201538095Y-105559060D01*
X201538095Y-105559060D02*
X201585714Y-105463822D01*
X201585714Y-105463822D02*
X201585714Y-105225727D01*
X201585714Y-105225727D02*
X201538095Y-105130489D01*
X201538095Y-105130489D02*
X201490476Y-105082870D01*
X201490476Y-105082870D02*
X201395238Y-105035251D01*
X201395238Y-105035251D02*
X201204762Y-105035251D01*
X201204762Y-105035251D02*
X201109524Y-105082870D01*
X201109524Y-105082870D02*
X201061905Y-105130489D01*
X201061905Y-105130489D02*
X201014286Y-105225727D01*
X186253333Y-113154299D02*
X185920000Y-112678108D01*
X185681905Y-113154299D02*
X185681905Y-112154299D01*
X185681905Y-112154299D02*
X186062857Y-112154299D01*
X186062857Y-112154299D02*
X186158095Y-112201918D01*
X186158095Y-112201918D02*
X186205714Y-112249537D01*
X186205714Y-112249537D02*
X186253333Y-112344775D01*
X186253333Y-112344775D02*
X186253333Y-112487632D01*
X186253333Y-112487632D02*
X186205714Y-112582870D01*
X186205714Y-112582870D02*
X186158095Y-112630489D01*
X186158095Y-112630489D02*
X186062857Y-112678108D01*
X186062857Y-112678108D02*
X185681905Y-112678108D01*
X187158095Y-112154299D02*
X186681905Y-112154299D01*
X186681905Y-112154299D02*
X186634286Y-112630489D01*
X186634286Y-112630489D02*
X186681905Y-112582870D01*
X186681905Y-112582870D02*
X186777143Y-112535251D01*
X186777143Y-112535251D02*
X187015238Y-112535251D01*
X187015238Y-112535251D02*
X187110476Y-112582870D01*
X187110476Y-112582870D02*
X187158095Y-112630489D01*
X187158095Y-112630489D02*
X187205714Y-112725727D01*
X187205714Y-112725727D02*
X187205714Y-112963822D01*
X187205714Y-112963822D02*
X187158095Y-113059060D01*
X187158095Y-113059060D02*
X187110476Y-113106680D01*
X187110476Y-113106680D02*
X187015238Y-113154299D01*
X187015238Y-113154299D02*
X186777143Y-113154299D01*
X186777143Y-113154299D02*
X186681905Y-113106680D01*
X186681905Y-113106680D02*
X186634286Y-113059060D01*
D14*
X98458540Y-99866666D02*
X98506160Y-99914285D01*
X98506160Y-99914285D02*
X98553779Y-100057142D01*
X98553779Y-100057142D02*
X98553779Y-100152380D01*
X98553779Y-100152380D02*
X98506160Y-100295237D01*
X98506160Y-100295237D02*
X98410921Y-100390475D01*
X98410921Y-100390475D02*
X98315683Y-100438094D01*
X98315683Y-100438094D02*
X98125207Y-100485713D01*
X98125207Y-100485713D02*
X97982350Y-100485713D01*
X97982350Y-100485713D02*
X97791874Y-100438094D01*
X97791874Y-100438094D02*
X97696636Y-100390475D01*
X97696636Y-100390475D02*
X97601398Y-100295237D01*
X97601398Y-100295237D02*
X97553779Y-100152380D01*
X97553779Y-100152380D02*
X97553779Y-100057142D01*
X97553779Y-100057142D02*
X97601398Y-99914285D01*
X97601398Y-99914285D02*
X97649017Y-99866666D01*
X98553779Y-98914285D02*
X98553779Y-99485713D01*
X98553779Y-99199999D02*
X97553779Y-99199999D01*
X97553779Y-99199999D02*
X97696636Y-99295237D01*
X97696636Y-99295237D02*
X97791874Y-99390475D01*
X97791874Y-99390475D02*
X97839493Y-99485713D01*
D11*
X177754299Y-122866666D02*
X177278108Y-123199999D01*
X177754299Y-123438094D02*
X176754299Y-123438094D01*
X176754299Y-123438094D02*
X176754299Y-123057142D01*
X176754299Y-123057142D02*
X176801918Y-122961904D01*
X176801918Y-122961904D02*
X176849537Y-122914285D01*
X176849537Y-122914285D02*
X176944775Y-122866666D01*
X176944775Y-122866666D02*
X177087632Y-122866666D01*
X177087632Y-122866666D02*
X177182870Y-122914285D01*
X177182870Y-122914285D02*
X177230489Y-122961904D01*
X177230489Y-122961904D02*
X177278108Y-123057142D01*
X177278108Y-123057142D02*
X177278108Y-123438094D01*
X176754299Y-122009523D02*
X176754299Y-122199999D01*
X176754299Y-122199999D02*
X176801918Y-122295237D01*
X176801918Y-122295237D02*
X176849537Y-122342856D01*
X176849537Y-122342856D02*
X176992394Y-122438094D01*
X176992394Y-122438094D02*
X177182870Y-122485713D01*
X177182870Y-122485713D02*
X177563822Y-122485713D01*
X177563822Y-122485713D02*
X177659060Y-122438094D01*
X177659060Y-122438094D02*
X177706680Y-122390475D01*
X177706680Y-122390475D02*
X177754299Y-122295237D01*
X177754299Y-122295237D02*
X177754299Y-122104761D01*
X177754299Y-122104761D02*
X177706680Y-122009523D01*
X177706680Y-122009523D02*
X177659060Y-121961904D01*
X177659060Y-121961904D02*
X177563822Y-121914285D01*
X177563822Y-121914285D02*
X177325727Y-121914285D01*
X177325727Y-121914285D02*
X177230489Y-121961904D01*
X177230489Y-121961904D02*
X177182870Y-122009523D01*
X177182870Y-122009523D02*
X177135251Y-122104761D01*
X177135251Y-122104761D02*
X177135251Y-122295237D01*
X177135251Y-122295237D02*
X177182870Y-122390475D01*
X177182870Y-122390475D02*
X177230489Y-122438094D01*
X177230489Y-122438094D02*
X177325727Y-122485713D01*
X155714299Y-109888094D02*
X154714299Y-109888094D01*
X154714299Y-109888094D02*
X154714299Y-109649999D01*
X154714299Y-109649999D02*
X154761918Y-109507142D01*
X154761918Y-109507142D02*
X154857156Y-109411904D01*
X154857156Y-109411904D02*
X154952394Y-109364285D01*
X154952394Y-109364285D02*
X155142870Y-109316666D01*
X155142870Y-109316666D02*
X155285727Y-109316666D01*
X155285727Y-109316666D02*
X155476203Y-109364285D01*
X155476203Y-109364285D02*
X155571441Y-109411904D01*
X155571441Y-109411904D02*
X155666680Y-109507142D01*
X155666680Y-109507142D02*
X155714299Y-109649999D01*
X155714299Y-109649999D02*
X155714299Y-109888094D01*
X154809537Y-108935713D02*
X154761918Y-108888094D01*
X154761918Y-108888094D02*
X154714299Y-108792856D01*
X154714299Y-108792856D02*
X154714299Y-108554761D01*
X154714299Y-108554761D02*
X154761918Y-108459523D01*
X154761918Y-108459523D02*
X154809537Y-108411904D01*
X154809537Y-108411904D02*
X154904775Y-108364285D01*
X154904775Y-108364285D02*
X155000013Y-108364285D01*
X155000013Y-108364285D02*
X155142870Y-108411904D01*
X155142870Y-108411904D02*
X155714299Y-108983332D01*
X155714299Y-108983332D02*
X155714299Y-108364285D01*
X171854299Y-109788094D02*
X170854299Y-109788094D01*
X170854299Y-109788094D02*
X170854299Y-109549999D01*
X170854299Y-109549999D02*
X170901918Y-109407142D01*
X170901918Y-109407142D02*
X170997156Y-109311904D01*
X170997156Y-109311904D02*
X171092394Y-109264285D01*
X171092394Y-109264285D02*
X171282870Y-109216666D01*
X171282870Y-109216666D02*
X171425727Y-109216666D01*
X171425727Y-109216666D02*
X171616203Y-109264285D01*
X171616203Y-109264285D02*
X171711441Y-109311904D01*
X171711441Y-109311904D02*
X171806680Y-109407142D01*
X171806680Y-109407142D02*
X171854299Y-109549999D01*
X171854299Y-109549999D02*
X171854299Y-109788094D01*
X171854299Y-108264285D02*
X171854299Y-108835713D01*
X171854299Y-108549999D02*
X170854299Y-108549999D01*
X170854299Y-108549999D02*
X170997156Y-108645237D01*
X170997156Y-108645237D02*
X171092394Y-108740475D01*
X171092394Y-108740475D02*
X171140013Y-108835713D01*
D17*
%TO.C,R8*%
X188012258Y-119852500D02*
X187537742Y-119852500D01*
X188012258Y-120897500D02*
X187537742Y-120897500D01*
%TO.C,BOOT*%
X155000000Y-131910000D02*
X155000000Y-132700000D01*
X156850000Y-130860000D02*
X158550000Y-130860000D01*
X159850000Y-130860000D02*
X160050000Y-130860000D01*
X161900000Y-132700000D02*
X161900000Y-131910000D01*
%TO.C,R13*%
X152337742Y-118277500D02*
X152812258Y-118277500D01*
X152337742Y-119322500D02*
X152812258Y-119322500D01*
%TO.C,P1*%
X211470000Y-104870000D02*
X212800000Y-104870000D01*
X211470000Y-106200000D02*
X211470000Y-104870000D01*
X211470000Y-107470000D02*
X211470000Y-107530000D01*
X211470000Y-107470000D02*
X214130000Y-107470000D01*
X211470000Y-107530000D02*
X214130000Y-107530000D01*
X214130000Y-107470000D02*
X214130000Y-107530000D01*
%TO.C,P4*%
X112470000Y-104870000D02*
X113800000Y-104870000D01*
X112470000Y-106200000D02*
X112470000Y-104870000D01*
X112470000Y-107470000D02*
X112470000Y-107530000D01*
X112470000Y-107470000D02*
X115130000Y-107470000D01*
X112470000Y-107530000D02*
X115130000Y-107530000D01*
X115130000Y-107470000D02*
X115130000Y-107530000D01*
%TO.C,PROG*%
X183755000Y-105885000D02*
X183820000Y-105885000D01*
X183755000Y-109415000D02*
X183755000Y-105885000D01*
X183755000Y-109415000D02*
X183820000Y-109415000D01*
X183820000Y-110740000D02*
X183820000Y-109415000D01*
X192700000Y-105885000D02*
X192765000Y-105885000D01*
X192700000Y-109415000D02*
X192765000Y-109415000D01*
X192765000Y-109415000D02*
X192765000Y-105885000D01*
%TO.C,C27*%
X197700000Y-132409420D02*
X197700000Y-132690580D01*
X198720000Y-132409420D02*
X198720000Y-132690580D01*
%TO.C,P2*%
X211470000Y-130870000D02*
X212800000Y-130870000D01*
X211470000Y-132200000D02*
X211470000Y-130870000D01*
X211470000Y-133470000D02*
X211470000Y-133530000D01*
X211470000Y-133470000D02*
X214130000Y-133470000D01*
X211470000Y-133530000D02*
X214130000Y-133530000D01*
X214130000Y-133470000D02*
X214130000Y-133530000D01*
%TO.C,C9*%
X141790000Y-110340580D02*
X141790000Y-110059420D01*
X142810000Y-110340580D02*
X142810000Y-110059420D01*
%TO.C,P3*%
X112470000Y-130870000D02*
X113800000Y-130870000D01*
X112470000Y-132200000D02*
X112470000Y-130870000D01*
X112470000Y-133470000D02*
X112470000Y-133530000D01*
X112470000Y-133470000D02*
X115130000Y-133470000D01*
X112470000Y-133530000D02*
X115130000Y-133530000D01*
X115130000Y-133470000D02*
X115130000Y-133530000D01*
%TO.C,C1*%
X227940000Y-98509420D02*
X227940000Y-98790580D01*
X228960000Y-98509420D02*
X228960000Y-98790580D01*
%TO.C,KEY*%
X201140000Y-130240000D02*
X207260000Y-130240000D01*
X201140000Y-133940000D02*
X201140000Y-130240000D01*
X207260000Y-130240000D02*
X207260000Y-133940000D01*
X207260000Y-133940000D02*
X201140000Y-133940000D01*
%TO.C,R7*%
X203987258Y-106677500D02*
X203512742Y-106677500D01*
X203987258Y-107722500D02*
X203512742Y-107722500D01*
%TO.C,+VIN-*%
X168080000Y-133620000D02*
X168080000Y-132290000D01*
X169410000Y-133620000D02*
X168080000Y-133620000D01*
X170680000Y-130960000D02*
X173280000Y-130960000D01*
X170680000Y-133620000D02*
X170680000Y-130960000D01*
X170680000Y-133620000D02*
X173280000Y-133620000D01*
X173280000Y-133620000D02*
X173280000Y-130960000D01*
%TO.C,D7*%
X181185000Y-119645000D02*
X181185000Y-121115000D01*
X181185000Y-121115000D02*
X183470000Y-121115000D01*
X183470000Y-119645000D02*
X181185000Y-119645000D01*
%TO.C,R14*%
X152337742Y-116727500D02*
X152812258Y-116727500D01*
X152337742Y-117772500D02*
X152812258Y-117772500D01*
%TO.C,R2*%
X152777500Y-106937258D02*
X152777500Y-106462742D01*
X153822500Y-106937258D02*
X153822500Y-106462742D01*
%TO.C,R1*%
X172777500Y-106937258D02*
X172777500Y-106462742D01*
X173822500Y-106937258D02*
X173822500Y-106462742D01*
%TO.C,RESET*%
X135265000Y-104575000D02*
X141385000Y-104575000D01*
X135265000Y-108275000D02*
X135265000Y-104575000D01*
X141385000Y-104575000D02*
X141385000Y-108275000D01*
X141385000Y-108275000D02*
X135265000Y-108275000D01*
%TO.C,R3*%
X122987258Y-106652500D02*
X122512742Y-106652500D01*
X122987258Y-107697500D02*
X122512742Y-107697500D01*
%TO.C,R4*%
X175147500Y-124957742D02*
X175147500Y-125432258D01*
X176192500Y-124957742D02*
X176192500Y-125432258D01*
%TO.C,D3*%
X121315000Y-104465000D02*
X121315000Y-105935000D01*
X121315000Y-105935000D02*
X123600000Y-105935000D01*
X123600000Y-104465000D02*
X121315000Y-104465000D01*
D11*
%TO.C,IMU*%
X158325000Y-126725000D02*
X158325000Y-128725000D01*
X168325000Y-126725000D02*
X168325000Y-128725000D01*
D10*
%TO.C,U7*%
X183590000Y-122300000D02*
X194090000Y-122300000D01*
X183590000Y-133800000D02*
X183590000Y-122300000D01*
X183590000Y-133800000D02*
X194090000Y-133800000D01*
X194090000Y-133800000D02*
X194090000Y-122300000D01*
D17*
%TO.C,D6*%
X202315000Y-104465000D02*
X202315000Y-105935000D01*
X202315000Y-105935000D02*
X204600000Y-105935000D01*
X204600000Y-104465000D02*
X202315000Y-104465000D01*
%TO.C,R5*%
X188682742Y-112177500D02*
X189157258Y-112177500D01*
X188682742Y-113222500D02*
X189157258Y-113222500D01*
%TO.C,C1*%
X97490000Y-95890580D02*
X97490000Y-95609420D01*
X98510000Y-95890580D02*
X98510000Y-95609420D01*
%TO.C,R6*%
X176777500Y-125437258D02*
X176777500Y-124962742D01*
X177822500Y-125437258D02*
X177822500Y-124962742D01*
%TO.C,D2*%
X154485000Y-105242500D02*
X154485000Y-107527500D01*
X155955000Y-105242500D02*
X154485000Y-105242500D01*
X155955000Y-107527500D02*
X155955000Y-105242500D01*
%TO.C,D1*%
X170635000Y-105242500D02*
X170635000Y-107527500D01*
X172105000Y-105242500D02*
X170635000Y-105242500D01*
X172105000Y-107527500D02*
X172105000Y-105242500D01*
%TD*%
M02*
