%TF.GenerationSoftware,KiCad,Pcbnew,8.0.4*%
%TF.CreationDate,2024-11-30T13:52:58+01:00*%
%TF.ProjectId,ALL_PCBS,414c4c5f-5043-4425-932e-6b696361645f,rev?*%
%TF.SameCoordinates,Original*%
%TF.FileFunction,Paste,Top*%
%TF.FilePolarity,Positive*%
%FSLAX46Y46*%
G04 Gerber Fmt 4.6, Leading zero omitted, Abs format (unit mm)*
G04 Created by KiCad (PCBNEW 8.0.4) date 2024-11-30 13:52:58*
%MOMM*%
%LPD*%
G01*
G04 APERTURE LIST*
G04 Aperture macros list*
%AMRoundRect*
0 Rectangle with rounded corners*
0 $1 Rounding radius*
0 $2 $3 $4 $5 $6 $7 $8 $9 X,Y pos of 4 corners*
0 Add a 4 corners polygon primitive as box body*
4,1,4,$2,$3,$4,$5,$6,$7,$8,$9,$2,$3,0*
0 Add four circle primitives for the rounded corners*
1,1,$1+$1,$2,$3*
1,1,$1+$1,$4,$5*
1,1,$1+$1,$6,$7*
1,1,$1+$1,$8,$9*
0 Add four rect primitives between the rounded corners*
20,1,$1+$1,$2,$3,$4,$5,0*
20,1,$1+$1,$4,$5,$6,$7,0*
20,1,$1+$1,$6,$7,$8,$9,0*
20,1,$1+$1,$8,$9,$2,$3,0*%
G04 Aperture macros list end*
%ADD10RoundRect,0.200000X0.200000X0.275000X-0.200000X0.275000X-0.200000X-0.275000X0.200000X-0.275000X0*%
%ADD11R,1.000000X0.800000*%
%ADD12R,0.700000X1.500000*%
%ADD13RoundRect,0.200000X-0.200000X-0.275000X0.200000X-0.275000X0.200000X0.275000X-0.200000X0.275000X0*%
%ADD14R,0.740000X2.400000*%
%ADD15RoundRect,0.225000X-0.250000X0.225000X-0.250000X-0.225000X0.250000X-0.225000X0.250000X0.225000X0*%
%ADD16RoundRect,0.225000X0.250000X-0.225000X0.250000X0.225000X-0.250000X0.225000X-0.250000X-0.225000X0*%
%ADD17R,1.500000X1.500000*%
%ADD18RoundRect,0.218750X-0.218750X-0.256250X0.218750X-0.256250X0.218750X0.256250X-0.218750X0.256250X0*%
%ADD19RoundRect,0.200000X0.275000X-0.200000X0.275000X0.200000X-0.275000X0.200000X-0.275000X-0.200000X0*%
%ADD20RoundRect,0.250000X1.750000X0.250000X-1.750000X0.250000X-1.750000X-0.250000X1.750000X-0.250000X0*%
%ADD21RoundRect,0.200000X-0.275000X0.200000X-0.275000X-0.200000X0.275000X-0.200000X0.275000X0.200000X0*%
%ADD22RoundRect,0.375000X0.375000X-0.875000X0.375000X0.875000X-0.375000X0.875000X-0.375000X-0.875000X0*%
%ADD23RoundRect,0.275000X0.475000X0.275000X-0.475000X0.275000X-0.475000X-0.275000X0.475000X-0.275000X0*%
%ADD24RoundRect,0.250000X-1.750000X-0.250000X1.750000X-0.250000X1.750000X0.250000X-1.750000X0.250000X0*%
%ADD25RoundRect,0.218750X-0.256250X0.218750X-0.256250X-0.218750X0.256250X-0.218750X0.256250X0.218750X0*%
G04 APERTURE END LIST*
D10*
%TO.C,R8*%
X188600000Y-120375000D03*
X186950000Y-120375000D03*
%TD*%
D11*
%TO.C,BOOT*%
X154800000Y-131200000D03*
X154800000Y-133410000D03*
X162100000Y-131200000D03*
X162100000Y-133410000D03*
D12*
X156200000Y-130550000D03*
X159200000Y-130550000D03*
X160700000Y-130550000D03*
%TD*%
D13*
%TO.C,R13*%
X151750000Y-118800000D03*
X153400000Y-118800000D03*
%TD*%
D14*
%TO.C,PROG*%
X184450000Y-109600000D03*
X184450000Y-105700000D03*
X185720000Y-109600000D03*
X185720000Y-105700000D03*
X186990000Y-109600000D03*
X186990000Y-105700000D03*
X188260000Y-109600000D03*
X188260000Y-105700000D03*
X189530000Y-109600000D03*
X189530000Y-105700000D03*
X190800000Y-109600000D03*
X190800000Y-105700000D03*
X192070000Y-109600000D03*
X192070000Y-105700000D03*
%TD*%
D15*
%TO.C,C27*%
X198210000Y-131775000D03*
X198210000Y-133325000D03*
%TD*%
D16*
%TO.C,C9*%
X142300000Y-110975000D03*
X142300000Y-109425000D03*
%TD*%
D15*
%TO.C,C1*%
X228450000Y-97875000D03*
X228450000Y-99425000D03*
%TD*%
D17*
%TO.C,KEY*%
X200300000Y-132090000D03*
X208100000Y-132090000D03*
%TD*%
D10*
%TO.C,R7*%
X204575000Y-107200000D03*
X202925000Y-107200000D03*
%TD*%
D18*
%TO.C,D7*%
X181882500Y-120380000D03*
X183457500Y-120380000D03*
%TD*%
D13*
%TO.C,R14*%
X151750000Y-117250000D03*
X153400000Y-117250000D03*
%TD*%
D19*
%TO.C,R2*%
X153300000Y-107525000D03*
X153300000Y-105875000D03*
%TD*%
%TO.C,R1*%
X173300000Y-107525000D03*
X173300000Y-105875000D03*
%TD*%
D17*
%TO.C,RESET*%
X134425000Y-106425000D03*
X142225000Y-106425000D03*
%TD*%
D10*
%TO.C,R3*%
X123575000Y-107175000D03*
X121925000Y-107175000D03*
%TD*%
D20*
%TO.C,Encoder_L1*%
X124300000Y-121450000D03*
X124300000Y-119950000D03*
X124300000Y-118450000D03*
X124300000Y-116950000D03*
%TD*%
D21*
%TO.C,R4*%
X175670000Y-124370000D03*
X175670000Y-126020000D03*
%TD*%
D18*
%TO.C,D3*%
X122012500Y-105200000D03*
X123587500Y-105200000D03*
%TD*%
D22*
%TO.C,IMU*%
X159325000Y-127725000D03*
X161325000Y-127725000D03*
X163325000Y-127725000D03*
X165325000Y-127725000D03*
X167325000Y-127725000D03*
%TD*%
D23*
%TO.C,U7*%
X195590000Y-133300000D03*
X195590000Y-131800000D03*
X195590000Y-130300000D03*
X195590000Y-128800000D03*
X195590000Y-127300000D03*
X195590000Y-125800000D03*
X195590000Y-124300000D03*
X195590000Y-122800000D03*
X182590000Y-122800000D03*
X182590000Y-124300000D03*
X182590000Y-125800000D03*
X182590000Y-127300000D03*
X182590000Y-128800000D03*
X182590000Y-130300000D03*
X182590000Y-131800000D03*
X182590000Y-133300000D03*
%TD*%
D18*
%TO.C,D6*%
X203012500Y-105200000D03*
X204587500Y-105200000D03*
%TD*%
D24*
%TO.C,Encoder_L2*%
X202300000Y-116950000D03*
X202300000Y-118450000D03*
X202300000Y-119950000D03*
X202300000Y-121450000D03*
%TD*%
D13*
%TO.C,R5*%
X188095000Y-112700000D03*
X189745000Y-112700000D03*
%TD*%
D16*
%TO.C,C1*%
X98000000Y-96525000D03*
X98000000Y-94975000D03*
%TD*%
D19*
%TO.C,R6*%
X177300000Y-126025000D03*
X177300000Y-124375000D03*
%TD*%
D25*
%TO.C,D2*%
X155220000Y-105940000D03*
X155220000Y-107515000D03*
%TD*%
%TO.C,D1*%
X171370000Y-105940000D03*
X171370000Y-107515000D03*
%TD*%
M02*
