%TF.GenerationSoftware,KiCad,Pcbnew,8.0.4*%
%TF.CreationDate,2024-11-30T13:53:13+01:00*%
%TF.ProjectId,ALL_PCBS,414c4c5f-5043-4425-932e-6b696361645f,rev?*%
%TF.SameCoordinates,Original*%
%TF.FileFunction,Drillmap*%
%TF.FilePolarity,Positive*%
%FSLAX45Y45*%
G04 Gerber Fmt 4.5, Leading zero omitted, Abs format (unit mm)*
G04 Created by KiCad (PCBNEW 8.0.4) date 2024-11-30 13:53:13*
%MOMM*%
%LPD*%
G01*
G04 APERTURE LIST*
%ADD10C,0.050000*%
%ADD11C,0.200000*%
%ADD12C,0.100000*%
G04 APERTURE END LIST*
D10*
X15240000Y-9120000D02*
X17340000Y-9120000D01*
X22147000Y-9320000D02*
X22130000Y-9320000D01*
X22080000Y-10070000D02*
X22080000Y-9370000D01*
X9704355Y-9570000D02*
X9704355Y-9370000D01*
X9775000Y-9320000D02*
X10300000Y-9320000D01*
X18040000Y-9770000D02*
G75*
G02*
X17690000Y-10120000I-350000J0D01*
G01*
X22890645Y-10120000D02*
X22680000Y-10120000D01*
X9480000Y-13420000D02*
G75*
G02*
X9080000Y-13020000I0J400000D01*
G01*
X9080000Y-10820000D02*
G75*
G02*
X9480000Y-10420000I400000J0D01*
G01*
X10565000Y-9370000D02*
X10565000Y-10070000D01*
X16760000Y-10120000D02*
X15900000Y-10120000D01*
X15900000Y-10420000D02*
X16760000Y-10420000D01*
X23180000Y-13420000D02*
X9480000Y-13420000D01*
X9704355Y-9370000D02*
G75*
G02*
X9754355Y-9319995I50005J0D01*
G01*
X15900000Y-10120000D02*
X15900000Y-10420000D01*
X23180000Y-10420000D02*
G75*
G02*
X23580000Y-10820000I0J-400000D01*
G01*
X22940645Y-9370000D02*
X22940645Y-9570000D01*
X17060000Y-10120000D02*
X17690000Y-10120000D01*
X22380000Y-10420000D02*
X17060000Y-10420000D01*
X22130000Y-10120000D02*
G75*
G02*
X22080000Y-10070000I0J50000D01*
G01*
X14890000Y-10120000D02*
G75*
G02*
X14540000Y-9770000I0J350000D01*
G01*
X15600000Y-10420000D02*
X15600000Y-10120000D01*
X22270000Y-9320000D02*
X22185000Y-9320000D01*
X22275000Y-9320000D02*
X22270000Y-9320000D01*
X10370000Y-9320000D02*
X10460000Y-9320000D01*
X14540000Y-9770000D02*
X14540000Y-9120000D01*
X9080000Y-13020000D02*
X9080000Y-10820000D01*
X9754355Y-10120000D02*
G75*
G02*
X9704360Y-10070000I5J50000D01*
G01*
X22680000Y-10420000D02*
X22680000Y-10120000D01*
X9980000Y-10120000D02*
X9775000Y-10120000D01*
X22890645Y-9320000D02*
G75*
G02*
X22940640Y-9370000I-5J-50000D01*
G01*
X10300000Y-9320000D02*
X10370000Y-9320000D01*
X10498000Y-9320000D02*
X10515000Y-9320000D01*
X9754355Y-9320000D02*
X9775000Y-9320000D01*
X10515000Y-10120000D02*
X10280000Y-10120000D01*
X22345000Y-9320000D02*
X22870000Y-9320000D01*
X10280000Y-10420000D02*
X15600000Y-10420000D01*
X14540000Y-9120000D02*
G75*
G02*
X15240000Y-9120000I350000J0D01*
G01*
X16760000Y-10120000D02*
X16760000Y-10420000D01*
X22890645Y-9320000D02*
X22870000Y-9320000D01*
X22380000Y-10120000D02*
X22130000Y-10120000D01*
X22940645Y-9870000D02*
X22940645Y-10070000D01*
X10515000Y-9320000D02*
G75*
G02*
X10565000Y-9370000I0J-50000D01*
G01*
X10460000Y-9320000D02*
X10498000Y-9320000D01*
X10280000Y-10120000D02*
X10280000Y-10420000D01*
X22940645Y-9570000D02*
X22940645Y-9870000D01*
X23580000Y-10820000D02*
X23580000Y-13020000D01*
X22940645Y-10070000D02*
G75*
G02*
X22890645Y-10120005I-50005J0D01*
G01*
X9704355Y-9870000D02*
X9704355Y-9570000D01*
X17340000Y-9120000D02*
G75*
G02*
X18040000Y-9120000I350000J0D01*
G01*
X18040000Y-9120000D02*
X18040000Y-9770000D01*
X9480000Y-10420000D02*
X9980000Y-10420000D01*
X9754355Y-10120000D02*
X9775000Y-10120000D01*
X23180000Y-10420000D02*
X22680000Y-10420000D01*
X22380000Y-10120000D02*
X22380000Y-10420000D01*
X17060000Y-10420000D02*
X17060000Y-10120000D01*
X9704355Y-10070000D02*
X9704355Y-9870000D01*
X22185000Y-9320000D02*
X22147000Y-9320000D01*
X9980000Y-10420000D02*
X9980000Y-10120000D01*
X23580000Y-13020000D02*
G75*
G02*
X23180000Y-13420000I-400000J0D01*
G01*
X22345000Y-9320000D02*
X22275000Y-9320000D01*
X22080000Y-9370000D02*
G75*
G02*
X22130000Y-9320000I50000J0D01*
G01*
X10565000Y-10070000D02*
G75*
G02*
X10515000Y-10120000I-50000J0D01*
G01*
X15600000Y-10120000D02*
X14890000Y-10120000D01*
D11*
D12*
X14779500Y-11712000D02*
X14805500Y-11738000D01*
X14805500Y-11712000D02*
X14779500Y-11738000D01*
X14997000Y-11604500D02*
X15023000Y-11630500D01*
X15023000Y-11604500D02*
X14997000Y-11630500D01*
X15677000Y-11777000D02*
X15703000Y-11803000D01*
X15703000Y-11777000D02*
X15677000Y-11803000D01*
X15679500Y-11867000D02*
X15705500Y-11893000D01*
X15705500Y-11867000D02*
X15679500Y-11893000D01*
X15697000Y-12737000D02*
X15723000Y-12763000D01*
X15723000Y-12737000D02*
X15697000Y-12763000D01*
X15697000Y-12857000D02*
X15723000Y-12883000D01*
X15723000Y-12857000D02*
X15697000Y-12883000D01*
X15813250Y-11938250D02*
X15839250Y-11964250D01*
X15839250Y-11938250D02*
X15813250Y-11964250D01*
X15827000Y-12104500D02*
X15853000Y-12130500D01*
X15853000Y-12104500D02*
X15827000Y-12130500D01*
X15837000Y-11217000D02*
X15863000Y-11243000D01*
X15863000Y-11217000D02*
X15837000Y-11243000D01*
X15846341Y-11136341D02*
X15872341Y-11162341D01*
X15872341Y-11136341D02*
X15846341Y-11162341D01*
X15867000Y-11877000D02*
X15893000Y-11903000D01*
X15893000Y-11877000D02*
X15867000Y-11903000D01*
X15947472Y-12214500D02*
X15973472Y-12240500D01*
X15973472Y-12214500D02*
X15947472Y-12240500D01*
X16252000Y-11687000D02*
X16278000Y-11713000D01*
X16278000Y-11687000D02*
X16252000Y-11713000D01*
X16299500Y-12047000D02*
X16325500Y-12073000D01*
X16325500Y-12047000D02*
X16299500Y-12073000D01*
X16390735Y-11910735D02*
X16416735Y-11936735D01*
X16416735Y-11910735D02*
X16390735Y-11936735D01*
X16447000Y-12297000D02*
X16473000Y-12323000D01*
X16473000Y-12297000D02*
X16447000Y-12323000D01*
X16462000Y-12097000D02*
X16488000Y-12123000D01*
X16488000Y-12097000D02*
X16462000Y-12123000D01*
X16517000Y-11554500D02*
X16543000Y-11580500D01*
X16543000Y-11554500D02*
X16517000Y-11580500D01*
X16527000Y-12387000D02*
X16553000Y-12413000D01*
X16553000Y-12387000D02*
X16527000Y-12413000D01*
X17877000Y-11983235D02*
X17903000Y-12009235D01*
X17903000Y-11983235D02*
X17877000Y-12009235D01*
X18113877Y-10622560D02*
X18139877Y-10648560D01*
X18139877Y-10622560D02*
X18113877Y-10648560D01*
X18117000Y-10707000D02*
X18143000Y-10733000D01*
X18143000Y-10707000D02*
X18117000Y-10733000D01*
X18122000Y-10794500D02*
X18148000Y-10820500D01*
X18148000Y-10794500D02*
X18122000Y-10820500D01*
X19259500Y-11994500D02*
X19285500Y-12020500D01*
X19285500Y-11994500D02*
X19259500Y-12020500D01*
X20530000Y-12522800D02*
X20556000Y-12548800D01*
X20556000Y-12522800D02*
X20530000Y-12548800D01*
X9913000Y-9708000D02*
G75*
G02*
X9883000Y-9708000I-15000J0D01*
G01*
X9883000Y-9708000D02*
G75*
G02*
X9913000Y-9708000I15000J0D01*
G01*
X9922500Y-9862500D02*
G75*
G02*
X9892500Y-9862500I-15000J0D01*
G01*
X9892500Y-9862500D02*
G75*
G02*
X9922500Y-9862500I15000J0D01*
G01*
X10015000Y-9720000D02*
G75*
G02*
X9985000Y-9720000I-15000J0D01*
G01*
X9985000Y-9720000D02*
G75*
G02*
X10015000Y-9720000I15000J0D01*
G01*
X10115000Y-9690000D02*
G75*
G02*
X10085000Y-9690000I-15000J0D01*
G01*
X10085000Y-9690000D02*
G75*
G02*
X10115000Y-9690000I15000J0D01*
G01*
X10290000Y-9495000D02*
G75*
G02*
X10260000Y-9495000I-15000J0D01*
G01*
X10260000Y-9495000D02*
G75*
G02*
X10290000Y-9495000I15000J0D01*
G01*
X10290000Y-9645000D02*
G75*
G02*
X10260000Y-9645000I-15000J0D01*
G01*
X10260000Y-9645000D02*
G75*
G02*
X10290000Y-9645000I15000J0D01*
G01*
X10290000Y-9795000D02*
G75*
G02*
X10260000Y-9795000I-15000J0D01*
G01*
X10260000Y-9795000D02*
G75*
G02*
X10290000Y-9795000I15000J0D01*
G01*
X10290000Y-9945000D02*
G75*
G02*
X10260000Y-9945000I-15000J0D01*
G01*
X10260000Y-9945000D02*
G75*
G02*
X10290000Y-9945000I15000J0D01*
G01*
X11334000Y-12839000D02*
G75*
G02*
X11304000Y-12839000I-15000J0D01*
G01*
X11304000Y-12839000D02*
G75*
G02*
X11334000Y-12839000I15000J0D01*
G01*
X11630000Y-12553000D02*
G75*
G02*
X11600000Y-12553000I-15000J0D01*
G01*
X11600000Y-12553000D02*
G75*
G02*
X11630000Y-12553000I15000J0D01*
G01*
X11712500Y-11997500D02*
G75*
G02*
X11682500Y-11997500I-15000J0D01*
G01*
X11682500Y-11997500D02*
G75*
G02*
X11712500Y-11997500I15000J0D01*
G01*
X11720000Y-12840000D02*
G75*
G02*
X11690000Y-12840000I-15000J0D01*
G01*
X11690000Y-12840000D02*
G75*
G02*
X11720000Y-12840000I15000J0D01*
G01*
X11739000Y-12553000D02*
G75*
G02*
X11709000Y-12553000I-15000J0D01*
G01*
X11709000Y-12553000D02*
G75*
G02*
X11739000Y-12553000I15000J0D01*
G01*
X11790000Y-11975000D02*
G75*
G02*
X11760000Y-11975000I-15000J0D01*
G01*
X11760000Y-11975000D02*
G75*
G02*
X11790000Y-11975000I15000J0D01*
G01*
X11848000Y-12553000D02*
G75*
G02*
X11818000Y-12553000I-15000J0D01*
G01*
X11818000Y-12553000D02*
G75*
G02*
X11848000Y-12553000I15000J0D01*
G01*
X11917500Y-11980000D02*
G75*
G02*
X11887500Y-11980000I-15000J0D01*
G01*
X11887500Y-11980000D02*
G75*
G02*
X11917500Y-11980000I15000J0D01*
G01*
X11917500Y-12085000D02*
G75*
G02*
X11887500Y-12085000I-15000J0D01*
G01*
X11887500Y-12085000D02*
G75*
G02*
X11917500Y-12085000I15000J0D01*
G01*
X11967500Y-11037500D02*
G75*
G02*
X11937500Y-11037500I-15000J0D01*
G01*
X11937500Y-11037500D02*
G75*
G02*
X11967500Y-11037500I15000J0D01*
G01*
X12072500Y-10535000D02*
G75*
G02*
X12042500Y-10535000I-15000J0D01*
G01*
X12042500Y-10535000D02*
G75*
G02*
X12072500Y-10535000I15000J0D01*
G01*
X12243000Y-12553000D02*
G75*
G02*
X12213000Y-12553000I-15000J0D01*
G01*
X12213000Y-12553000D02*
G75*
G02*
X12243000Y-12553000I15000J0D01*
G01*
X12342500Y-11035000D02*
G75*
G02*
X12312500Y-11035000I-15000J0D01*
G01*
X12312500Y-11035000D02*
G75*
G02*
X12342500Y-11035000I15000J0D01*
G01*
X12361000Y-12554000D02*
G75*
G02*
X12331000Y-12554000I-15000J0D01*
G01*
X12331000Y-12554000D02*
G75*
G02*
X12361000Y-12554000I15000J0D01*
G01*
X12464000Y-12553000D02*
G75*
G02*
X12434000Y-12553000I-15000J0D01*
G01*
X12434000Y-12553000D02*
G75*
G02*
X12464000Y-12553000I15000J0D01*
G01*
X12572500Y-10917500D02*
G75*
G02*
X12542500Y-10917500I-15000J0D01*
G01*
X12542500Y-10917500D02*
G75*
G02*
X12572500Y-10917500I15000J0D01*
G01*
X12572500Y-11000000D02*
G75*
G02*
X12542500Y-11000000I-15000J0D01*
G01*
X12542500Y-11000000D02*
G75*
G02*
X12572500Y-11000000I15000J0D01*
G01*
X12572500Y-11125000D02*
G75*
G02*
X12542500Y-11125000I-15000J0D01*
G01*
X12542500Y-11125000D02*
G75*
G02*
X12572500Y-11125000I15000J0D01*
G01*
X12628000Y-11465000D02*
G75*
G02*
X12598000Y-11465000I-15000J0D01*
G01*
X12598000Y-11465000D02*
G75*
G02*
X12628000Y-11465000I15000J0D01*
G01*
X12677500Y-11230000D02*
G75*
G02*
X12647500Y-11230000I-15000J0D01*
G01*
X12647500Y-11230000D02*
G75*
G02*
X12677500Y-11230000I15000J0D01*
G01*
X12790000Y-12217500D02*
G75*
G02*
X12760000Y-12217500I-15000J0D01*
G01*
X12760000Y-12217500D02*
G75*
G02*
X12790000Y-12217500I15000J0D01*
G01*
X13345000Y-11079000D02*
G75*
G02*
X13315000Y-11079000I-15000J0D01*
G01*
X13315000Y-11079000D02*
G75*
G02*
X13345000Y-11079000I15000J0D01*
G01*
X13346000Y-10990000D02*
G75*
G02*
X13316000Y-10990000I-15000J0D01*
G01*
X13316000Y-10990000D02*
G75*
G02*
X13346000Y-10990000I15000J0D01*
G01*
X13378000Y-11480000D02*
G75*
G02*
X13348000Y-11480000I-15000J0D01*
G01*
X13348000Y-11480000D02*
G75*
G02*
X13378000Y-11480000I15000J0D01*
G01*
X13805000Y-12120000D02*
G75*
G02*
X13775000Y-12120000I-15000J0D01*
G01*
X13775000Y-12120000D02*
G75*
G02*
X13805000Y-12120000I15000J0D01*
G01*
X14276000Y-11233000D02*
G75*
G02*
X14246000Y-11233000I-15000J0D01*
G01*
X14246000Y-11233000D02*
G75*
G02*
X14276000Y-11233000I15000J0D01*
G01*
X14314000Y-12133000D02*
G75*
G02*
X14284000Y-12133000I-15000J0D01*
G01*
X14284000Y-12133000D02*
G75*
G02*
X14314000Y-12133000I15000J0D01*
G01*
X14416000Y-10615000D02*
G75*
G02*
X14386000Y-10615000I-15000J0D01*
G01*
X14386000Y-10615000D02*
G75*
G02*
X14416000Y-10615000I15000J0D01*
G01*
X14425000Y-11179000D02*
G75*
G02*
X14395000Y-11179000I-15000J0D01*
G01*
X14395000Y-11179000D02*
G75*
G02*
X14425000Y-11179000I15000J0D01*
G01*
X14489000Y-10688000D02*
G75*
G02*
X14459000Y-10688000I-15000J0D01*
G01*
X14459000Y-10688000D02*
G75*
G02*
X14489000Y-10688000I15000J0D01*
G01*
X14504000Y-11096000D02*
G75*
G02*
X14474000Y-11096000I-15000J0D01*
G01*
X14474000Y-11096000D02*
G75*
G02*
X14504000Y-11096000I15000J0D01*
G01*
X14550000Y-10748000D02*
G75*
G02*
X14520000Y-10748000I-15000J0D01*
G01*
X14520000Y-10748000D02*
G75*
G02*
X14550000Y-10748000I15000J0D01*
G01*
X14995000Y-12407500D02*
G75*
G02*
X14965000Y-12407500I-15000J0D01*
G01*
X14965000Y-12407500D02*
G75*
G02*
X14995000Y-12407500I15000J0D01*
G01*
X15152500Y-11272500D02*
G75*
G02*
X15122500Y-11272500I-15000J0D01*
G01*
X15122500Y-11272500D02*
G75*
G02*
X15152500Y-11272500I15000J0D01*
G01*
X15240000Y-11132500D02*
G75*
G02*
X15210000Y-11132500I-15000J0D01*
G01*
X15210000Y-11132500D02*
G75*
G02*
X15240000Y-11132500I15000J0D01*
G01*
X15458000Y-11345000D02*
G75*
G02*
X15428000Y-11345000I-15000J0D01*
G01*
X15428000Y-11345000D02*
G75*
G02*
X15458000Y-11345000I15000J0D01*
G01*
X15900000Y-10595000D02*
G75*
G02*
X15870000Y-10595000I-15000J0D01*
G01*
X15870000Y-10595000D02*
G75*
G02*
X15900000Y-10595000I15000J0D01*
G01*
X16322500Y-13040000D02*
G75*
G02*
X16292500Y-13040000I-15000J0D01*
G01*
X16292500Y-13040000D02*
G75*
G02*
X16322500Y-13040000I15000J0D01*
G01*
X16448000Y-13228000D02*
G75*
G02*
X16418000Y-13228000I-15000J0D01*
G01*
X16418000Y-13228000D02*
G75*
G02*
X16448000Y-13228000I15000J0D01*
G01*
X16553000Y-13230000D02*
G75*
G02*
X16523000Y-13230000I-15000J0D01*
G01*
X16523000Y-13230000D02*
G75*
G02*
X16553000Y-13230000I15000J0D01*
G01*
X16653000Y-13230000D02*
G75*
G02*
X16623000Y-13230000I-15000J0D01*
G01*
X16623000Y-13230000D02*
G75*
G02*
X16653000Y-13230000I15000J0D01*
G01*
X16690000Y-12952500D02*
G75*
G02*
X16660000Y-12952500I-15000J0D01*
G01*
X16660000Y-12952500D02*
G75*
G02*
X16690000Y-12952500I15000J0D01*
G01*
X17034000Y-12530000D02*
G75*
G02*
X17004000Y-12530000I-15000J0D01*
G01*
X17004000Y-12530000D02*
G75*
G02*
X17034000Y-12530000I15000J0D01*
G01*
X17227500Y-11025000D02*
G75*
G02*
X17197500Y-11025000I-15000J0D01*
G01*
X17197500Y-11025000D02*
G75*
G02*
X17227500Y-11025000I15000J0D01*
G01*
X17306000Y-11713000D02*
G75*
G02*
X17276000Y-11713000I-15000J0D01*
G01*
X17276000Y-11713000D02*
G75*
G02*
X17306000Y-11713000I15000J0D01*
G01*
X17502000Y-12019000D02*
G75*
G02*
X17472000Y-12019000I-15000J0D01*
G01*
X17472000Y-12019000D02*
G75*
G02*
X17502000Y-12019000I15000J0D01*
G01*
X17562500Y-11335000D02*
G75*
G02*
X17532500Y-11335000I-15000J0D01*
G01*
X17532500Y-11335000D02*
G75*
G02*
X17562500Y-11335000I15000J0D01*
G01*
X17830000Y-12147500D02*
G75*
G02*
X17800000Y-12147500I-15000J0D01*
G01*
X17800000Y-12147500D02*
G75*
G02*
X17830000Y-12147500I15000J0D01*
G01*
X17898000Y-11319000D02*
G75*
G02*
X17868000Y-11319000I-15000J0D01*
G01*
X17868000Y-11319000D02*
G75*
G02*
X17898000Y-11319000I15000J0D01*
G01*
X17898000Y-11508000D02*
G75*
G02*
X17868000Y-11508000I-15000J0D01*
G01*
X17868000Y-11508000D02*
G75*
G02*
X17898000Y-11508000I15000J0D01*
G01*
X17996000Y-11521000D02*
G75*
G02*
X17966000Y-11521000I-15000J0D01*
G01*
X17966000Y-11521000D02*
G75*
G02*
X17996000Y-11521000I15000J0D01*
G01*
X17997000Y-11314000D02*
G75*
G02*
X17967000Y-11314000I-15000J0D01*
G01*
X17967000Y-11314000D02*
G75*
G02*
X17997000Y-11314000I15000J0D01*
G01*
X18007500Y-12750000D02*
G75*
G02*
X17977500Y-12750000I-15000J0D01*
G01*
X17977500Y-12750000D02*
G75*
G02*
X18007500Y-12750000I15000J0D01*
G01*
X18560000Y-12147500D02*
G75*
G02*
X18530000Y-12147500I-15000J0D01*
G01*
X18530000Y-12147500D02*
G75*
G02*
X18560000Y-12147500I15000J0D01*
G01*
X18574000Y-13091000D02*
G75*
G02*
X18544000Y-13091000I-15000J0D01*
G01*
X18544000Y-13091000D02*
G75*
G02*
X18574000Y-13091000I15000J0D01*
G01*
X18614000Y-12707000D02*
G75*
G02*
X18584000Y-12707000I-15000J0D01*
G01*
X18584000Y-12707000D02*
G75*
G02*
X18614000Y-12707000I15000J0D01*
G01*
X19272000Y-13092000D02*
G75*
G02*
X19242000Y-13092000I-15000J0D01*
G01*
X19242000Y-13092000D02*
G75*
G02*
X19272000Y-13092000I15000J0D01*
G01*
X19352000Y-13270000D02*
G75*
G02*
X19322000Y-13270000I-15000J0D01*
G01*
X19322000Y-13270000D02*
G75*
G02*
X19352000Y-13270000I15000J0D01*
G01*
X19957500Y-10522500D02*
G75*
G02*
X19927500Y-10522500I-15000J0D01*
G01*
X19927500Y-10522500D02*
G75*
G02*
X19957500Y-10522500I15000J0D01*
G01*
X19968000Y-13349000D02*
G75*
G02*
X19938000Y-13349000I-15000J0D01*
G01*
X19938000Y-13349000D02*
G75*
G02*
X19968000Y-13349000I15000J0D01*
G01*
X20082500Y-10857500D02*
G75*
G02*
X20052500Y-10857500I-15000J0D01*
G01*
X20052500Y-10857500D02*
G75*
G02*
X20082500Y-10857500I15000J0D01*
G01*
X20242000Y-11266000D02*
G75*
G02*
X20212000Y-11266000I-15000J0D01*
G01*
X20212000Y-11266000D02*
G75*
G02*
X20242000Y-11266000I15000J0D01*
G01*
X20330000Y-11266000D02*
G75*
G02*
X20300000Y-11266000I-15000J0D01*
G01*
X20300000Y-11266000D02*
G75*
G02*
X20330000Y-11266000I15000J0D01*
G01*
X20425000Y-11266000D02*
G75*
G02*
X20395000Y-11266000I-15000J0D01*
G01*
X20395000Y-11266000D02*
G75*
G02*
X20425000Y-11266000I15000J0D01*
G01*
X20636000Y-11799000D02*
G75*
G02*
X20606000Y-11799000I-15000J0D01*
G01*
X20606000Y-11799000D02*
G75*
G02*
X20636000Y-11799000I15000J0D01*
G01*
X20743000Y-11799000D02*
G75*
G02*
X20713000Y-11799000I-15000J0D01*
G01*
X20713000Y-11799000D02*
G75*
G02*
X20743000Y-11799000I15000J0D01*
G01*
X20812000Y-11266000D02*
G75*
G02*
X20782000Y-11266000I-15000J0D01*
G01*
X20782000Y-11266000D02*
G75*
G02*
X20812000Y-11266000I15000J0D01*
G01*
X20900000Y-11266000D02*
G75*
G02*
X20870000Y-11266000I-15000J0D01*
G01*
X20870000Y-11266000D02*
G75*
G02*
X20900000Y-11266000I15000J0D01*
G01*
X20911000Y-11799000D02*
G75*
G02*
X20881000Y-11799000I-15000J0D01*
G01*
X20881000Y-11799000D02*
G75*
G02*
X20911000Y-11799000I15000J0D01*
G01*
X20942500Y-13090000D02*
G75*
G02*
X20912500Y-13090000I-15000J0D01*
G01*
X20912500Y-13090000D02*
G75*
G02*
X20942500Y-13090000I15000J0D01*
G01*
X20949000Y-12706000D02*
G75*
G02*
X20919000Y-12706000I-15000J0D01*
G01*
X20919000Y-12706000D02*
G75*
G02*
X20949000Y-12706000I15000J0D01*
G01*
X20951000Y-12572000D02*
G75*
G02*
X20921000Y-12572000I-15000J0D01*
G01*
X20921000Y-12572000D02*
G75*
G02*
X20951000Y-12572000I15000J0D01*
G01*
X20952500Y-12456000D02*
G75*
G02*
X20922500Y-12456000I-15000J0D01*
G01*
X20922500Y-12456000D02*
G75*
G02*
X20952500Y-12456000I15000J0D01*
G01*
X20990000Y-11266000D02*
G75*
G02*
X20960000Y-11266000I-15000J0D01*
G01*
X20960000Y-11266000D02*
G75*
G02*
X20990000Y-11266000I15000J0D01*
G01*
X22385000Y-9495000D02*
G75*
G02*
X22355000Y-9495000I-15000J0D01*
G01*
X22355000Y-9495000D02*
G75*
G02*
X22385000Y-9495000I15000J0D01*
G01*
X22385000Y-9645000D02*
G75*
G02*
X22355000Y-9645000I-15000J0D01*
G01*
X22355000Y-9645000D02*
G75*
G02*
X22385000Y-9645000I15000J0D01*
G01*
X22385000Y-9795000D02*
G75*
G02*
X22355000Y-9795000I-15000J0D01*
G01*
X22355000Y-9795000D02*
G75*
G02*
X22385000Y-9795000I15000J0D01*
G01*
X22385000Y-9945000D02*
G75*
G02*
X22355000Y-9945000I-15000J0D01*
G01*
X22355000Y-9945000D02*
G75*
G02*
X22385000Y-9945000I15000J0D01*
G01*
X22560000Y-9750000D02*
G75*
G02*
X22530000Y-9750000I-15000J0D01*
G01*
X22530000Y-9750000D02*
G75*
G02*
X22560000Y-9750000I15000J0D01*
G01*
X22660000Y-9720000D02*
G75*
G02*
X22630000Y-9720000I-15000J0D01*
G01*
X22630000Y-9720000D02*
G75*
G02*
X22660000Y-9720000I15000J0D01*
G01*
X22752500Y-9577500D02*
G75*
G02*
X22722500Y-9577500I-15000J0D01*
G01*
X22722500Y-9577500D02*
G75*
G02*
X22752500Y-9577500I15000J0D01*
G01*
X22762000Y-9732000D02*
G75*
G02*
X22732000Y-9732000I-15000J0D01*
G01*
X22732000Y-9732000D02*
G75*
G02*
X22762000Y-9732000I15000J0D01*
G01*
X12020000Y-11340000D02*
X12020000Y-11380000D01*
X12000000Y-11360000D02*
X12040000Y-11360000D01*
X12112500Y-11262500D02*
X12112500Y-11302500D01*
X12092500Y-11282500D02*
X12132500Y-11282500D01*
X12220000Y-11337500D02*
X12220000Y-11377500D01*
X12200000Y-11357500D02*
X12240000Y-11357500D01*
X12691000Y-11978000D02*
X12691000Y-12018000D01*
X12671000Y-11998000D02*
X12711000Y-11998000D01*
X15140000Y-12420000D02*
X15140000Y-12460000D01*
X15120000Y-12440000D02*
X15160000Y-12440000D01*
X15335000Y-11560000D02*
X15335000Y-11600000D01*
X15315000Y-11580000D02*
X15355000Y-11580000D01*
X15372500Y-12412500D02*
X15372500Y-12452500D01*
X15352500Y-12432500D02*
X15392500Y-12432500D01*
X15435000Y-12722500D02*
X15435000Y-12762500D01*
X15415000Y-12742500D02*
X15455000Y-12742500D01*
X15465000Y-12935000D02*
X15465000Y-12975000D01*
X15445000Y-12955000D02*
X15485000Y-12955000D01*
X15555000Y-12775000D02*
X15555000Y-12815000D01*
X15535000Y-12795000D02*
X15575000Y-12795000D01*
X15570000Y-11030000D02*
X15570000Y-11070000D01*
X15550000Y-11050000D02*
X15590000Y-11050000D01*
X15570000Y-11270000D02*
X15570000Y-11310000D01*
X15550000Y-11290000D02*
X15590000Y-11290000D01*
X15752500Y-12342500D02*
X15752500Y-12382500D01*
X15732500Y-12362500D02*
X15772500Y-12362500D01*
X15778000Y-12182000D02*
X15778000Y-12222000D01*
X15758000Y-12202000D02*
X15798000Y-12202000D01*
X15838800Y-10961200D02*
X15838800Y-11001200D01*
X15818800Y-10981200D02*
X15858800Y-10981200D01*
X15870000Y-9635000D02*
X15870000Y-9675000D01*
X15850000Y-9655000D02*
X15890000Y-9655000D01*
X16067500Y-9950000D02*
X16067500Y-9990000D01*
X16047500Y-9970000D02*
X16087500Y-9970000D01*
X16136000Y-9440000D02*
X16136000Y-9480000D01*
X16116000Y-9460000D02*
X16156000Y-9460000D01*
X16200000Y-12980000D02*
X16200000Y-13020000D01*
X16180000Y-13000000D02*
X16220000Y-13000000D01*
X16290000Y-9467500D02*
X16290000Y-9507500D01*
X16270000Y-9487500D02*
X16310000Y-9487500D01*
X16471265Y-11251265D02*
X16471265Y-11291265D01*
X16451265Y-11271265D02*
X16491265Y-11271265D01*
X16537500Y-9677500D02*
X16537500Y-9717500D01*
X16517500Y-9697500D02*
X16557500Y-9697500D01*
X16625000Y-9967500D02*
X16625000Y-10007500D01*
X16605000Y-9987500D02*
X16645000Y-9987500D01*
X16632562Y-11089934D02*
X16632562Y-11129934D01*
X16612562Y-11109934D02*
X16652562Y-11109934D01*
X16762500Y-9532500D02*
X16762500Y-9572500D01*
X16742500Y-9552500D02*
X16782500Y-9552500D01*
X16767557Y-11087503D02*
X16767557Y-11127503D01*
X16747557Y-11107503D02*
X16787557Y-11107503D01*
X16932500Y-12620000D02*
X16932500Y-12660000D01*
X16912500Y-12640000D02*
X16952500Y-12640000D01*
X16940000Y-11976235D02*
X16940000Y-12016235D01*
X16920000Y-11996235D02*
X16960000Y-11996235D01*
X16975000Y-11100000D02*
X16975000Y-11140000D01*
X16955000Y-11120000D02*
X16995000Y-11120000D01*
X16976250Y-10868750D02*
X16976250Y-10908750D01*
X16956250Y-10888750D02*
X16996250Y-10888750D01*
X17440000Y-12417000D02*
X17440000Y-12457000D01*
X17420000Y-12437000D02*
X17460000Y-12437000D01*
X17845000Y-12690000D02*
X17845000Y-12730000D01*
X17825000Y-12710000D02*
X17865000Y-12710000D01*
X17945000Y-12117500D02*
X17945000Y-12157500D01*
X17925000Y-12137500D02*
X17965000Y-12137500D01*
X18542500Y-12842500D02*
X18542500Y-12882500D01*
X18522500Y-12862500D02*
X18562500Y-12862500D01*
X18700000Y-11137500D02*
X18700000Y-11177500D01*
X18680000Y-11157500D02*
X18720000Y-11157500D01*
X19297000Y-12900000D02*
X19297000Y-12940000D01*
X19277000Y-12920000D02*
X19317000Y-12920000D01*
X19391000Y-12816000D02*
X19391000Y-12856000D01*
X19371000Y-12836000D02*
X19411000Y-12836000D01*
X19877500Y-11760000D02*
X19877500Y-11800000D01*
X19857500Y-11780000D02*
X19897500Y-11780000D01*
X20365200Y-12769800D02*
X20365200Y-12809800D01*
X20345200Y-12789800D02*
X20385200Y-12789800D01*
X20441400Y-12465000D02*
X20441400Y-12505000D01*
X20421400Y-12485000D02*
X20461400Y-12485000D01*
X20670000Y-12439600D02*
X20670000Y-12479600D01*
X20650000Y-12459600D02*
X20690000Y-12459600D01*
X20771600Y-12769800D02*
X20771600Y-12809800D01*
X20751600Y-12789800D02*
X20791600Y-12789800D01*
X10081213Y-10171213D02*
X10081213Y-10128787D01*
X10038787Y-10128787D01*
X10038787Y-10171213D01*
X10081213Y-10171213D01*
X10081213Y-10441213D02*
X10081213Y-10398787D01*
X10038787Y-10398787D01*
X10038787Y-10441213D01*
X10081213Y-10441213D01*
X10221213Y-10171213D02*
X10221213Y-10128787D01*
X10178787Y-10128787D01*
X10178787Y-10171213D01*
X10221213Y-10171213D01*
X10221213Y-10441213D02*
X10221213Y-10398787D01*
X10178787Y-10398787D01*
X10178787Y-10441213D01*
X10221213Y-10441213D01*
X15701213Y-10141213D02*
X15701213Y-10098787D01*
X15658787Y-10098787D01*
X15658787Y-10141213D01*
X15701213Y-10141213D01*
X15841213Y-10141213D02*
X15841213Y-10098787D01*
X15798787Y-10098787D01*
X15798787Y-10141213D01*
X15841213Y-10141213D01*
X16861213Y-10141213D02*
X16861213Y-10098787D01*
X16818787Y-10098787D01*
X16818787Y-10141213D01*
X16861213Y-10141213D01*
X17001213Y-10141213D02*
X17001213Y-10098787D01*
X16958787Y-10098787D01*
X16958787Y-10141213D01*
X17001213Y-10141213D01*
X22481213Y-10161213D02*
X22481213Y-10118787D01*
X22438787Y-10118787D01*
X22438787Y-10161213D01*
X22481213Y-10161213D01*
X22491213Y-10441213D02*
X22491213Y-10398787D01*
X22448787Y-10398787D01*
X22448787Y-10441213D01*
X22491213Y-10441213D01*
X22621213Y-10161213D02*
X22621213Y-10118787D01*
X22578787Y-10118787D01*
X22578787Y-10161213D01*
X22621213Y-10161213D01*
X22621213Y-10441213D02*
X22621213Y-10398787D01*
X22578787Y-10398787D01*
X22578787Y-10441213D01*
X22621213Y-10441213D01*
X11380000Y-10670000D02*
X11430000Y-10620000D01*
X11380000Y-10570000D01*
X11330000Y-10620000D01*
X11380000Y-10670000D01*
X11380000Y-13270000D02*
X11430000Y-13220000D01*
X11380000Y-13170000D01*
X11330000Y-13220000D01*
X11380000Y-13270000D01*
X16941000Y-13279000D02*
X16991000Y-13229000D01*
X16941000Y-13179000D01*
X16891000Y-13229000D01*
X16941000Y-13279000D01*
X17195000Y-13279000D02*
X17245000Y-13229000D01*
X17195000Y-13179000D01*
X17145000Y-13229000D01*
X17195000Y-13279000D01*
X21280000Y-10670000D02*
X21330000Y-10620000D01*
X21280000Y-10570000D01*
X21230000Y-10620000D01*
X21280000Y-10670000D01*
X21280000Y-13270000D02*
X21330000Y-13220000D01*
X21280000Y-13170000D01*
X21230000Y-13220000D01*
X21280000Y-13270000D01*
D11*
X9338277Y-13733984D02*
X9338277Y-13533984D01*
X9338277Y-13533984D02*
X9385896Y-13533984D01*
X9385896Y-13533984D02*
X9414467Y-13543508D01*
X9414467Y-13543508D02*
X9433515Y-13562555D01*
X9433515Y-13562555D02*
X9443039Y-13581603D01*
X9443039Y-13581603D02*
X9452563Y-13619698D01*
X9452563Y-13619698D02*
X9452563Y-13648269D01*
X9452563Y-13648269D02*
X9443039Y-13686365D01*
X9443039Y-13686365D02*
X9433515Y-13705412D01*
X9433515Y-13705412D02*
X9414467Y-13724460D01*
X9414467Y-13724460D02*
X9385896Y-13733984D01*
X9385896Y-13733984D02*
X9338277Y-13733984D01*
X9538277Y-13733984D02*
X9538277Y-13600650D01*
X9538277Y-13638746D02*
X9547801Y-13619698D01*
X9547801Y-13619698D02*
X9557324Y-13610174D01*
X9557324Y-13610174D02*
X9576372Y-13600650D01*
X9576372Y-13600650D02*
X9595420Y-13600650D01*
X9662086Y-13733984D02*
X9662086Y-13600650D01*
X9662086Y-13533984D02*
X9652563Y-13543508D01*
X9652563Y-13543508D02*
X9662086Y-13553031D01*
X9662086Y-13553031D02*
X9671610Y-13543508D01*
X9671610Y-13543508D02*
X9662086Y-13533984D01*
X9662086Y-13533984D02*
X9662086Y-13553031D01*
X9785896Y-13733984D02*
X9766848Y-13724460D01*
X9766848Y-13724460D02*
X9757324Y-13705412D01*
X9757324Y-13705412D02*
X9757324Y-13533984D01*
X9890658Y-13733984D02*
X9871610Y-13724460D01*
X9871610Y-13724460D02*
X9862086Y-13705412D01*
X9862086Y-13705412D02*
X9862086Y-13533984D01*
X10119229Y-13733984D02*
X10119229Y-13533984D01*
X10119229Y-13533984D02*
X10185896Y-13676841D01*
X10185896Y-13676841D02*
X10252563Y-13533984D01*
X10252563Y-13533984D02*
X10252563Y-13733984D01*
X10433515Y-13733984D02*
X10433515Y-13629222D01*
X10433515Y-13629222D02*
X10423991Y-13610174D01*
X10423991Y-13610174D02*
X10404944Y-13600650D01*
X10404944Y-13600650D02*
X10366848Y-13600650D01*
X10366848Y-13600650D02*
X10347801Y-13610174D01*
X10433515Y-13724460D02*
X10414467Y-13733984D01*
X10414467Y-13733984D02*
X10366848Y-13733984D01*
X10366848Y-13733984D02*
X10347801Y-13724460D01*
X10347801Y-13724460D02*
X10338277Y-13705412D01*
X10338277Y-13705412D02*
X10338277Y-13686365D01*
X10338277Y-13686365D02*
X10347801Y-13667317D01*
X10347801Y-13667317D02*
X10366848Y-13657793D01*
X10366848Y-13657793D02*
X10414467Y-13657793D01*
X10414467Y-13657793D02*
X10433515Y-13648269D01*
X10528753Y-13600650D02*
X10528753Y-13800650D01*
X10528753Y-13610174D02*
X10547801Y-13600650D01*
X10547801Y-13600650D02*
X10585896Y-13600650D01*
X10585896Y-13600650D02*
X10604944Y-13610174D01*
X10604944Y-13610174D02*
X10614467Y-13619698D01*
X10614467Y-13619698D02*
X10623991Y-13638746D01*
X10623991Y-13638746D02*
X10623991Y-13695888D01*
X10623991Y-13695888D02*
X10614467Y-13714936D01*
X10614467Y-13714936D02*
X10604944Y-13724460D01*
X10604944Y-13724460D02*
X10585896Y-13733984D01*
X10585896Y-13733984D02*
X10547801Y-13733984D01*
X10547801Y-13733984D02*
X10528753Y-13724460D01*
X10709705Y-13714936D02*
X10719229Y-13724460D01*
X10719229Y-13724460D02*
X10709705Y-13733984D01*
X10709705Y-13733984D02*
X10700182Y-13724460D01*
X10700182Y-13724460D02*
X10709705Y-13714936D01*
X10709705Y-13714936D02*
X10709705Y-13733984D01*
X10709705Y-13610174D02*
X10719229Y-13619698D01*
X10719229Y-13619698D02*
X10709705Y-13629222D01*
X10709705Y-13629222D02*
X10700182Y-13619698D01*
X10700182Y-13619698D02*
X10709705Y-13610174D01*
X10709705Y-13610174D02*
X10709705Y-13629222D01*
D12*
X9051500Y-14049500D02*
X9077500Y-14075500D01*
X9077500Y-14049500D02*
X9051500Y-14075500D01*
D11*
X9376372Y-13953984D02*
X9395420Y-13953984D01*
X9395420Y-13953984D02*
X9414467Y-13963508D01*
X9414467Y-13963508D02*
X9423991Y-13973031D01*
X9423991Y-13973031D02*
X9433515Y-13992079D01*
X9433515Y-13992079D02*
X9443039Y-14030174D01*
X9443039Y-14030174D02*
X9443039Y-14077793D01*
X9443039Y-14077793D02*
X9433515Y-14115888D01*
X9433515Y-14115888D02*
X9423991Y-14134936D01*
X9423991Y-14134936D02*
X9414467Y-14144460D01*
X9414467Y-14144460D02*
X9395420Y-14153984D01*
X9395420Y-14153984D02*
X9376372Y-14153984D01*
X9376372Y-14153984D02*
X9357324Y-14144460D01*
X9357324Y-14144460D02*
X9347801Y-14134936D01*
X9347801Y-14134936D02*
X9338277Y-14115888D01*
X9338277Y-14115888D02*
X9328753Y-14077793D01*
X9328753Y-14077793D02*
X9328753Y-14030174D01*
X9328753Y-14030174D02*
X9338277Y-13992079D01*
X9338277Y-13992079D02*
X9347801Y-13973031D01*
X9347801Y-13973031D02*
X9357324Y-13963508D01*
X9357324Y-13963508D02*
X9376372Y-13953984D01*
X9528753Y-14134936D02*
X9538277Y-14144460D01*
X9538277Y-14144460D02*
X9528753Y-14153984D01*
X9528753Y-14153984D02*
X9519229Y-14144460D01*
X9519229Y-14144460D02*
X9528753Y-14134936D01*
X9528753Y-14134936D02*
X9528753Y-14153984D01*
X9614467Y-13973031D02*
X9623991Y-13963508D01*
X9623991Y-13963508D02*
X9643039Y-13953984D01*
X9643039Y-13953984D02*
X9690658Y-13953984D01*
X9690658Y-13953984D02*
X9709705Y-13963508D01*
X9709705Y-13963508D02*
X9719229Y-13973031D01*
X9719229Y-13973031D02*
X9728753Y-13992079D01*
X9728753Y-13992079D02*
X9728753Y-14011127D01*
X9728753Y-14011127D02*
X9719229Y-14039698D01*
X9719229Y-14039698D02*
X9604944Y-14153984D01*
X9604944Y-14153984D02*
X9728753Y-14153984D01*
X9900182Y-13953984D02*
X9862086Y-13953984D01*
X9862086Y-13953984D02*
X9843039Y-13963508D01*
X9843039Y-13963508D02*
X9833515Y-13973031D01*
X9833515Y-13973031D02*
X9814467Y-14001603D01*
X9814467Y-14001603D02*
X9804944Y-14039698D01*
X9804944Y-14039698D02*
X9804944Y-14115888D01*
X9804944Y-14115888D02*
X9814467Y-14134936D01*
X9814467Y-14134936D02*
X9823991Y-14144460D01*
X9823991Y-14144460D02*
X9843039Y-14153984D01*
X9843039Y-14153984D02*
X9881134Y-14153984D01*
X9881134Y-14153984D02*
X9900182Y-14144460D01*
X9900182Y-14144460D02*
X9909705Y-14134936D01*
X9909705Y-14134936D02*
X9919229Y-14115888D01*
X9919229Y-14115888D02*
X9919229Y-14068269D01*
X9919229Y-14068269D02*
X9909705Y-14049222D01*
X9909705Y-14049222D02*
X9900182Y-14039698D01*
X9900182Y-14039698D02*
X9881134Y-14030174D01*
X9881134Y-14030174D02*
X9843039Y-14030174D01*
X9843039Y-14030174D02*
X9823991Y-14039698D01*
X9823991Y-14039698D02*
X9814467Y-14049222D01*
X9814467Y-14049222D02*
X9804944Y-14068269D01*
X10043039Y-13953984D02*
X10062086Y-13953984D01*
X10062086Y-13953984D02*
X10081134Y-13963508D01*
X10081134Y-13963508D02*
X10090658Y-13973031D01*
X10090658Y-13973031D02*
X10100182Y-13992079D01*
X10100182Y-13992079D02*
X10109705Y-14030174D01*
X10109705Y-14030174D02*
X10109705Y-14077793D01*
X10109705Y-14077793D02*
X10100182Y-14115888D01*
X10100182Y-14115888D02*
X10090658Y-14134936D01*
X10090658Y-14134936D02*
X10081134Y-14144460D01*
X10081134Y-14144460D02*
X10062086Y-14153984D01*
X10062086Y-14153984D02*
X10043039Y-14153984D01*
X10043039Y-14153984D02*
X10023991Y-14144460D01*
X10023991Y-14144460D02*
X10014467Y-14134936D01*
X10014467Y-14134936D02*
X10004944Y-14115888D01*
X10004944Y-14115888D02*
X9995420Y-14077793D01*
X9995420Y-14077793D02*
X9995420Y-14030174D01*
X9995420Y-14030174D02*
X10004944Y-13992079D01*
X10004944Y-13992079D02*
X10014467Y-13973031D01*
X10014467Y-13973031D02*
X10023991Y-13963508D01*
X10023991Y-13963508D02*
X10043039Y-13953984D01*
X10195420Y-14153984D02*
X10195420Y-14020650D01*
X10195420Y-14039698D02*
X10204944Y-14030174D01*
X10204944Y-14030174D02*
X10223991Y-14020650D01*
X10223991Y-14020650D02*
X10252563Y-14020650D01*
X10252563Y-14020650D02*
X10271610Y-14030174D01*
X10271610Y-14030174D02*
X10281134Y-14049222D01*
X10281134Y-14049222D02*
X10281134Y-14153984D01*
X10281134Y-14049222D02*
X10290658Y-14030174D01*
X10290658Y-14030174D02*
X10309705Y-14020650D01*
X10309705Y-14020650D02*
X10338277Y-14020650D01*
X10338277Y-14020650D02*
X10357325Y-14030174D01*
X10357325Y-14030174D02*
X10366848Y-14049222D01*
X10366848Y-14049222D02*
X10366848Y-14153984D01*
X10462086Y-14153984D02*
X10462086Y-14020650D01*
X10462086Y-14039698D02*
X10471610Y-14030174D01*
X10471610Y-14030174D02*
X10490658Y-14020650D01*
X10490658Y-14020650D02*
X10519229Y-14020650D01*
X10519229Y-14020650D02*
X10538277Y-14030174D01*
X10538277Y-14030174D02*
X10547801Y-14049222D01*
X10547801Y-14049222D02*
X10547801Y-14153984D01*
X10547801Y-14049222D02*
X10557325Y-14030174D01*
X10557325Y-14030174D02*
X10576372Y-14020650D01*
X10576372Y-14020650D02*
X10604944Y-14020650D01*
X10604944Y-14020650D02*
X10623991Y-14030174D01*
X10623991Y-14030174D02*
X10633515Y-14049222D01*
X10633515Y-14049222D02*
X10633515Y-14153984D01*
X11023991Y-13944460D02*
X10852563Y-14201603D01*
X11281134Y-13953984D02*
X11300182Y-13953984D01*
X11300182Y-13953984D02*
X11319229Y-13963508D01*
X11319229Y-13963508D02*
X11328753Y-13973031D01*
X11328753Y-13973031D02*
X11338277Y-13992079D01*
X11338277Y-13992079D02*
X11347801Y-14030174D01*
X11347801Y-14030174D02*
X11347801Y-14077793D01*
X11347801Y-14077793D02*
X11338277Y-14115888D01*
X11338277Y-14115888D02*
X11328753Y-14134936D01*
X11328753Y-14134936D02*
X11319229Y-14144460D01*
X11319229Y-14144460D02*
X11300182Y-14153984D01*
X11300182Y-14153984D02*
X11281134Y-14153984D01*
X11281134Y-14153984D02*
X11262086Y-14144460D01*
X11262086Y-14144460D02*
X11252563Y-14134936D01*
X11252563Y-14134936D02*
X11243039Y-14115888D01*
X11243039Y-14115888D02*
X11233515Y-14077793D01*
X11233515Y-14077793D02*
X11233515Y-14030174D01*
X11233515Y-14030174D02*
X11243039Y-13992079D01*
X11243039Y-13992079D02*
X11252563Y-13973031D01*
X11252563Y-13973031D02*
X11262086Y-13963508D01*
X11262086Y-13963508D02*
X11281134Y-13953984D01*
X11433515Y-14134936D02*
X11443039Y-14144460D01*
X11443039Y-14144460D02*
X11433515Y-14153984D01*
X11433515Y-14153984D02*
X11423991Y-14144460D01*
X11423991Y-14144460D02*
X11433515Y-14134936D01*
X11433515Y-14134936D02*
X11433515Y-14153984D01*
X11566848Y-13953984D02*
X11585896Y-13953984D01*
X11585896Y-13953984D02*
X11604944Y-13963508D01*
X11604944Y-13963508D02*
X11614467Y-13973031D01*
X11614467Y-13973031D02*
X11623991Y-13992079D01*
X11623991Y-13992079D02*
X11633515Y-14030174D01*
X11633515Y-14030174D02*
X11633515Y-14077793D01*
X11633515Y-14077793D02*
X11623991Y-14115888D01*
X11623991Y-14115888D02*
X11614467Y-14134936D01*
X11614467Y-14134936D02*
X11604944Y-14144460D01*
X11604944Y-14144460D02*
X11585896Y-14153984D01*
X11585896Y-14153984D02*
X11566848Y-14153984D01*
X11566848Y-14153984D02*
X11547801Y-14144460D01*
X11547801Y-14144460D02*
X11538277Y-14134936D01*
X11538277Y-14134936D02*
X11528753Y-14115888D01*
X11528753Y-14115888D02*
X11519229Y-14077793D01*
X11519229Y-14077793D02*
X11519229Y-14030174D01*
X11519229Y-14030174D02*
X11528753Y-13992079D01*
X11528753Y-13992079D02*
X11538277Y-13973031D01*
X11538277Y-13973031D02*
X11547801Y-13963508D01*
X11547801Y-13963508D02*
X11566848Y-13953984D01*
X11823991Y-14153984D02*
X11709706Y-14153984D01*
X11766848Y-14153984D02*
X11766848Y-13953984D01*
X11766848Y-13953984D02*
X11747801Y-13982555D01*
X11747801Y-13982555D02*
X11728753Y-14001603D01*
X11728753Y-14001603D02*
X11709706Y-14011127D01*
X11947801Y-13953984D02*
X11966848Y-13953984D01*
X11966848Y-13953984D02*
X11985896Y-13963508D01*
X11985896Y-13963508D02*
X11995420Y-13973031D01*
X11995420Y-13973031D02*
X12004944Y-13992079D01*
X12004944Y-13992079D02*
X12014467Y-14030174D01*
X12014467Y-14030174D02*
X12014467Y-14077793D01*
X12014467Y-14077793D02*
X12004944Y-14115888D01*
X12004944Y-14115888D02*
X11995420Y-14134936D01*
X11995420Y-14134936D02*
X11985896Y-14144460D01*
X11985896Y-14144460D02*
X11966848Y-14153984D01*
X11966848Y-14153984D02*
X11947801Y-14153984D01*
X11947801Y-14153984D02*
X11928753Y-14144460D01*
X11928753Y-14144460D02*
X11919229Y-14134936D01*
X11919229Y-14134936D02*
X11909706Y-14115888D01*
X11909706Y-14115888D02*
X11900182Y-14077793D01*
X11900182Y-14077793D02*
X11900182Y-14030174D01*
X11900182Y-14030174D02*
X11909706Y-13992079D01*
X11909706Y-13992079D02*
X11919229Y-13973031D01*
X11919229Y-13973031D02*
X11928753Y-13963508D01*
X11928753Y-13963508D02*
X11947801Y-13953984D01*
X12090658Y-13973031D02*
X12100182Y-13963508D01*
X12100182Y-13963508D02*
X12119229Y-13953984D01*
X12119229Y-13953984D02*
X12166848Y-13953984D01*
X12166848Y-13953984D02*
X12185896Y-13963508D01*
X12185896Y-13963508D02*
X12195420Y-13973031D01*
X12195420Y-13973031D02*
X12204944Y-13992079D01*
X12204944Y-13992079D02*
X12204944Y-14011127D01*
X12204944Y-14011127D02*
X12195420Y-14039698D01*
X12195420Y-14039698D02*
X12081134Y-14153984D01*
X12081134Y-14153984D02*
X12204944Y-14153984D01*
X12281134Y-13953984D02*
X12281134Y-13992079D01*
X12357325Y-13953984D02*
X12357325Y-13992079D01*
X12652563Y-14230174D02*
X12643039Y-14220650D01*
X12643039Y-14220650D02*
X12623991Y-14192079D01*
X12623991Y-14192079D02*
X12614468Y-14173031D01*
X12614468Y-14173031D02*
X12604944Y-14144460D01*
X12604944Y-14144460D02*
X12595420Y-14096841D01*
X12595420Y-14096841D02*
X12595420Y-14058746D01*
X12595420Y-14058746D02*
X12604944Y-14011127D01*
X12604944Y-14011127D02*
X12614468Y-13982555D01*
X12614468Y-13982555D02*
X12623991Y-13963508D01*
X12623991Y-13963508D02*
X12643039Y-13934936D01*
X12643039Y-13934936D02*
X12652563Y-13925412D01*
X12719229Y-13973031D02*
X12728753Y-13963508D01*
X12728753Y-13963508D02*
X12747801Y-13953984D01*
X12747801Y-13953984D02*
X12795420Y-13953984D01*
X12795420Y-13953984D02*
X12814468Y-13963508D01*
X12814468Y-13963508D02*
X12823991Y-13973031D01*
X12823991Y-13973031D02*
X12833515Y-13992079D01*
X12833515Y-13992079D02*
X12833515Y-14011127D01*
X12833515Y-14011127D02*
X12823991Y-14039698D01*
X12823991Y-14039698D02*
X12709706Y-14153984D01*
X12709706Y-14153984D02*
X12833515Y-14153984D01*
X13014468Y-13953984D02*
X12919229Y-13953984D01*
X12919229Y-13953984D02*
X12909706Y-14049222D01*
X12909706Y-14049222D02*
X12919229Y-14039698D01*
X12919229Y-14039698D02*
X12938277Y-14030174D01*
X12938277Y-14030174D02*
X12985896Y-14030174D01*
X12985896Y-14030174D02*
X13004944Y-14039698D01*
X13004944Y-14039698D02*
X13014468Y-14049222D01*
X13014468Y-14049222D02*
X13023991Y-14068269D01*
X13023991Y-14068269D02*
X13023991Y-14115888D01*
X13023991Y-14115888D02*
X13014468Y-14134936D01*
X13014468Y-14134936D02*
X13004944Y-14144460D01*
X13004944Y-14144460D02*
X12985896Y-14153984D01*
X12985896Y-14153984D02*
X12938277Y-14153984D01*
X12938277Y-14153984D02*
X12919229Y-14144460D01*
X12919229Y-14144460D02*
X12909706Y-14134936D01*
X13262087Y-14153984D02*
X13262087Y-13953984D01*
X13347801Y-14153984D02*
X13347801Y-14049222D01*
X13347801Y-14049222D02*
X13338277Y-14030174D01*
X13338277Y-14030174D02*
X13319230Y-14020650D01*
X13319230Y-14020650D02*
X13290658Y-14020650D01*
X13290658Y-14020650D02*
X13271610Y-14030174D01*
X13271610Y-14030174D02*
X13262087Y-14039698D01*
X13471610Y-14153984D02*
X13452563Y-14144460D01*
X13452563Y-14144460D02*
X13443039Y-14134936D01*
X13443039Y-14134936D02*
X13433515Y-14115888D01*
X13433515Y-14115888D02*
X13433515Y-14058746D01*
X13433515Y-14058746D02*
X13443039Y-14039698D01*
X13443039Y-14039698D02*
X13452563Y-14030174D01*
X13452563Y-14030174D02*
X13471610Y-14020650D01*
X13471610Y-14020650D02*
X13500182Y-14020650D01*
X13500182Y-14020650D02*
X13519230Y-14030174D01*
X13519230Y-14030174D02*
X13528753Y-14039698D01*
X13528753Y-14039698D02*
X13538277Y-14058746D01*
X13538277Y-14058746D02*
X13538277Y-14115888D01*
X13538277Y-14115888D02*
X13528753Y-14134936D01*
X13528753Y-14134936D02*
X13519230Y-14144460D01*
X13519230Y-14144460D02*
X13500182Y-14153984D01*
X13500182Y-14153984D02*
X13471610Y-14153984D01*
X13652563Y-14153984D02*
X13633515Y-14144460D01*
X13633515Y-14144460D02*
X13623991Y-14125412D01*
X13623991Y-14125412D02*
X13623991Y-13953984D01*
X13804944Y-14144460D02*
X13785896Y-14153984D01*
X13785896Y-14153984D02*
X13747801Y-14153984D01*
X13747801Y-14153984D02*
X13728753Y-14144460D01*
X13728753Y-14144460D02*
X13719230Y-14125412D01*
X13719230Y-14125412D02*
X13719230Y-14049222D01*
X13719230Y-14049222D02*
X13728753Y-14030174D01*
X13728753Y-14030174D02*
X13747801Y-14020650D01*
X13747801Y-14020650D02*
X13785896Y-14020650D01*
X13785896Y-14020650D02*
X13804944Y-14030174D01*
X13804944Y-14030174D02*
X13814468Y-14049222D01*
X13814468Y-14049222D02*
X13814468Y-14068269D01*
X13814468Y-14068269D02*
X13719230Y-14087317D01*
X13890658Y-14144460D02*
X13909706Y-14153984D01*
X13909706Y-14153984D02*
X13947801Y-14153984D01*
X13947801Y-14153984D02*
X13966849Y-14144460D01*
X13966849Y-14144460D02*
X13976372Y-14125412D01*
X13976372Y-14125412D02*
X13976372Y-14115888D01*
X13976372Y-14115888D02*
X13966849Y-14096841D01*
X13966849Y-14096841D02*
X13947801Y-14087317D01*
X13947801Y-14087317D02*
X13919230Y-14087317D01*
X13919230Y-14087317D02*
X13900182Y-14077793D01*
X13900182Y-14077793D02*
X13890658Y-14058746D01*
X13890658Y-14058746D02*
X13890658Y-14049222D01*
X13890658Y-14049222D02*
X13900182Y-14030174D01*
X13900182Y-14030174D02*
X13919230Y-14020650D01*
X13919230Y-14020650D02*
X13947801Y-14020650D01*
X13947801Y-14020650D02*
X13966849Y-14030174D01*
X14043039Y-14230174D02*
X14052563Y-14220650D01*
X14052563Y-14220650D02*
X14071611Y-14192079D01*
X14071611Y-14192079D02*
X14081134Y-14173031D01*
X14081134Y-14173031D02*
X14090658Y-14144460D01*
X14090658Y-14144460D02*
X14100182Y-14096841D01*
X14100182Y-14096841D02*
X14100182Y-14058746D01*
X14100182Y-14058746D02*
X14090658Y-14011127D01*
X14090658Y-14011127D02*
X14081134Y-13982555D01*
X14081134Y-13982555D02*
X14071611Y-13963508D01*
X14071611Y-13963508D02*
X14052563Y-13934936D01*
X14052563Y-13934936D02*
X14043039Y-13925412D01*
D12*
X9077500Y-14326500D02*
G75*
G02*
X9047500Y-14326500I-15000J0D01*
G01*
X9047500Y-14326500D02*
G75*
G02*
X9077500Y-14326500I15000J0D01*
G01*
D11*
X9376372Y-14217984D02*
X9395420Y-14217984D01*
X9395420Y-14217984D02*
X9414467Y-14227508D01*
X9414467Y-14227508D02*
X9423991Y-14237031D01*
X9423991Y-14237031D02*
X9433515Y-14256079D01*
X9433515Y-14256079D02*
X9443039Y-14294174D01*
X9443039Y-14294174D02*
X9443039Y-14341793D01*
X9443039Y-14341793D02*
X9433515Y-14379888D01*
X9433515Y-14379888D02*
X9423991Y-14398936D01*
X9423991Y-14398936D02*
X9414467Y-14408460D01*
X9414467Y-14408460D02*
X9395420Y-14417984D01*
X9395420Y-14417984D02*
X9376372Y-14417984D01*
X9376372Y-14417984D02*
X9357324Y-14408460D01*
X9357324Y-14408460D02*
X9347801Y-14398936D01*
X9347801Y-14398936D02*
X9338277Y-14379888D01*
X9338277Y-14379888D02*
X9328753Y-14341793D01*
X9328753Y-14341793D02*
X9328753Y-14294174D01*
X9328753Y-14294174D02*
X9338277Y-14256079D01*
X9338277Y-14256079D02*
X9347801Y-14237031D01*
X9347801Y-14237031D02*
X9357324Y-14227508D01*
X9357324Y-14227508D02*
X9376372Y-14217984D01*
X9528753Y-14398936D02*
X9538277Y-14408460D01*
X9538277Y-14408460D02*
X9528753Y-14417984D01*
X9528753Y-14417984D02*
X9519229Y-14408460D01*
X9519229Y-14408460D02*
X9528753Y-14398936D01*
X9528753Y-14398936D02*
X9528753Y-14417984D01*
X9604944Y-14217984D02*
X9728753Y-14217984D01*
X9728753Y-14217984D02*
X9662086Y-14294174D01*
X9662086Y-14294174D02*
X9690658Y-14294174D01*
X9690658Y-14294174D02*
X9709705Y-14303698D01*
X9709705Y-14303698D02*
X9719229Y-14313222D01*
X9719229Y-14313222D02*
X9728753Y-14332269D01*
X9728753Y-14332269D02*
X9728753Y-14379888D01*
X9728753Y-14379888D02*
X9719229Y-14398936D01*
X9719229Y-14398936D02*
X9709705Y-14408460D01*
X9709705Y-14408460D02*
X9690658Y-14417984D01*
X9690658Y-14417984D02*
X9633515Y-14417984D01*
X9633515Y-14417984D02*
X9614467Y-14408460D01*
X9614467Y-14408460D02*
X9604944Y-14398936D01*
X9852563Y-14217984D02*
X9871610Y-14217984D01*
X9871610Y-14217984D02*
X9890658Y-14227508D01*
X9890658Y-14227508D02*
X9900182Y-14237031D01*
X9900182Y-14237031D02*
X9909705Y-14256079D01*
X9909705Y-14256079D02*
X9919229Y-14294174D01*
X9919229Y-14294174D02*
X9919229Y-14341793D01*
X9919229Y-14341793D02*
X9909705Y-14379888D01*
X9909705Y-14379888D02*
X9900182Y-14398936D01*
X9900182Y-14398936D02*
X9890658Y-14408460D01*
X9890658Y-14408460D02*
X9871610Y-14417984D01*
X9871610Y-14417984D02*
X9852563Y-14417984D01*
X9852563Y-14417984D02*
X9833515Y-14408460D01*
X9833515Y-14408460D02*
X9823991Y-14398936D01*
X9823991Y-14398936D02*
X9814467Y-14379888D01*
X9814467Y-14379888D02*
X9804944Y-14341793D01*
X9804944Y-14341793D02*
X9804944Y-14294174D01*
X9804944Y-14294174D02*
X9814467Y-14256079D01*
X9814467Y-14256079D02*
X9823991Y-14237031D01*
X9823991Y-14237031D02*
X9833515Y-14227508D01*
X9833515Y-14227508D02*
X9852563Y-14217984D01*
X10043039Y-14217984D02*
X10062086Y-14217984D01*
X10062086Y-14217984D02*
X10081134Y-14227508D01*
X10081134Y-14227508D02*
X10090658Y-14237031D01*
X10090658Y-14237031D02*
X10100182Y-14256079D01*
X10100182Y-14256079D02*
X10109705Y-14294174D01*
X10109705Y-14294174D02*
X10109705Y-14341793D01*
X10109705Y-14341793D02*
X10100182Y-14379888D01*
X10100182Y-14379888D02*
X10090658Y-14398936D01*
X10090658Y-14398936D02*
X10081134Y-14408460D01*
X10081134Y-14408460D02*
X10062086Y-14417984D01*
X10062086Y-14417984D02*
X10043039Y-14417984D01*
X10043039Y-14417984D02*
X10023991Y-14408460D01*
X10023991Y-14408460D02*
X10014467Y-14398936D01*
X10014467Y-14398936D02*
X10004944Y-14379888D01*
X10004944Y-14379888D02*
X9995420Y-14341793D01*
X9995420Y-14341793D02*
X9995420Y-14294174D01*
X9995420Y-14294174D02*
X10004944Y-14256079D01*
X10004944Y-14256079D02*
X10014467Y-14237031D01*
X10014467Y-14237031D02*
X10023991Y-14227508D01*
X10023991Y-14227508D02*
X10043039Y-14217984D01*
X10195420Y-14417984D02*
X10195420Y-14284650D01*
X10195420Y-14303698D02*
X10204944Y-14294174D01*
X10204944Y-14294174D02*
X10223991Y-14284650D01*
X10223991Y-14284650D02*
X10252563Y-14284650D01*
X10252563Y-14284650D02*
X10271610Y-14294174D01*
X10271610Y-14294174D02*
X10281134Y-14313222D01*
X10281134Y-14313222D02*
X10281134Y-14417984D01*
X10281134Y-14313222D02*
X10290658Y-14294174D01*
X10290658Y-14294174D02*
X10309705Y-14284650D01*
X10309705Y-14284650D02*
X10338277Y-14284650D01*
X10338277Y-14284650D02*
X10357325Y-14294174D01*
X10357325Y-14294174D02*
X10366848Y-14313222D01*
X10366848Y-14313222D02*
X10366848Y-14417984D01*
X10462086Y-14417984D02*
X10462086Y-14284650D01*
X10462086Y-14303698D02*
X10471610Y-14294174D01*
X10471610Y-14294174D02*
X10490658Y-14284650D01*
X10490658Y-14284650D02*
X10519229Y-14284650D01*
X10519229Y-14284650D02*
X10538277Y-14294174D01*
X10538277Y-14294174D02*
X10547801Y-14313222D01*
X10547801Y-14313222D02*
X10547801Y-14417984D01*
X10547801Y-14313222D02*
X10557325Y-14294174D01*
X10557325Y-14294174D02*
X10576372Y-14284650D01*
X10576372Y-14284650D02*
X10604944Y-14284650D01*
X10604944Y-14284650D02*
X10623991Y-14294174D01*
X10623991Y-14294174D02*
X10633515Y-14313222D01*
X10633515Y-14313222D02*
X10633515Y-14417984D01*
X11023991Y-14208460D02*
X10852563Y-14465603D01*
X11281134Y-14217984D02*
X11300182Y-14217984D01*
X11300182Y-14217984D02*
X11319229Y-14227508D01*
X11319229Y-14227508D02*
X11328753Y-14237031D01*
X11328753Y-14237031D02*
X11338277Y-14256079D01*
X11338277Y-14256079D02*
X11347801Y-14294174D01*
X11347801Y-14294174D02*
X11347801Y-14341793D01*
X11347801Y-14341793D02*
X11338277Y-14379888D01*
X11338277Y-14379888D02*
X11328753Y-14398936D01*
X11328753Y-14398936D02*
X11319229Y-14408460D01*
X11319229Y-14408460D02*
X11300182Y-14417984D01*
X11300182Y-14417984D02*
X11281134Y-14417984D01*
X11281134Y-14417984D02*
X11262086Y-14408460D01*
X11262086Y-14408460D02*
X11252563Y-14398936D01*
X11252563Y-14398936D02*
X11243039Y-14379888D01*
X11243039Y-14379888D02*
X11233515Y-14341793D01*
X11233515Y-14341793D02*
X11233515Y-14294174D01*
X11233515Y-14294174D02*
X11243039Y-14256079D01*
X11243039Y-14256079D02*
X11252563Y-14237031D01*
X11252563Y-14237031D02*
X11262086Y-14227508D01*
X11262086Y-14227508D02*
X11281134Y-14217984D01*
X11433515Y-14398936D02*
X11443039Y-14408460D01*
X11443039Y-14408460D02*
X11433515Y-14417984D01*
X11433515Y-14417984D02*
X11423991Y-14408460D01*
X11423991Y-14408460D02*
X11433515Y-14398936D01*
X11433515Y-14398936D02*
X11433515Y-14417984D01*
X11566848Y-14217984D02*
X11585896Y-14217984D01*
X11585896Y-14217984D02*
X11604944Y-14227508D01*
X11604944Y-14227508D02*
X11614467Y-14237031D01*
X11614467Y-14237031D02*
X11623991Y-14256079D01*
X11623991Y-14256079D02*
X11633515Y-14294174D01*
X11633515Y-14294174D02*
X11633515Y-14341793D01*
X11633515Y-14341793D02*
X11623991Y-14379888D01*
X11623991Y-14379888D02*
X11614467Y-14398936D01*
X11614467Y-14398936D02*
X11604944Y-14408460D01*
X11604944Y-14408460D02*
X11585896Y-14417984D01*
X11585896Y-14417984D02*
X11566848Y-14417984D01*
X11566848Y-14417984D02*
X11547801Y-14408460D01*
X11547801Y-14408460D02*
X11538277Y-14398936D01*
X11538277Y-14398936D02*
X11528753Y-14379888D01*
X11528753Y-14379888D02*
X11519229Y-14341793D01*
X11519229Y-14341793D02*
X11519229Y-14294174D01*
X11519229Y-14294174D02*
X11528753Y-14256079D01*
X11528753Y-14256079D02*
X11538277Y-14237031D01*
X11538277Y-14237031D02*
X11547801Y-14227508D01*
X11547801Y-14227508D02*
X11566848Y-14217984D01*
X11823991Y-14417984D02*
X11709706Y-14417984D01*
X11766848Y-14417984D02*
X11766848Y-14217984D01*
X11766848Y-14217984D02*
X11747801Y-14246555D01*
X11747801Y-14246555D02*
X11728753Y-14265603D01*
X11728753Y-14265603D02*
X11709706Y-14275127D01*
X12014467Y-14417984D02*
X11900182Y-14417984D01*
X11957325Y-14417984D02*
X11957325Y-14217984D01*
X11957325Y-14217984D02*
X11938277Y-14246555D01*
X11938277Y-14246555D02*
X11919229Y-14265603D01*
X11919229Y-14265603D02*
X11900182Y-14275127D01*
X12128753Y-14303698D02*
X12109706Y-14294174D01*
X12109706Y-14294174D02*
X12100182Y-14284650D01*
X12100182Y-14284650D02*
X12090658Y-14265603D01*
X12090658Y-14265603D02*
X12090658Y-14256079D01*
X12090658Y-14256079D02*
X12100182Y-14237031D01*
X12100182Y-14237031D02*
X12109706Y-14227508D01*
X12109706Y-14227508D02*
X12128753Y-14217984D01*
X12128753Y-14217984D02*
X12166848Y-14217984D01*
X12166848Y-14217984D02*
X12185896Y-14227508D01*
X12185896Y-14227508D02*
X12195420Y-14237031D01*
X12195420Y-14237031D02*
X12204944Y-14256079D01*
X12204944Y-14256079D02*
X12204944Y-14265603D01*
X12204944Y-14265603D02*
X12195420Y-14284650D01*
X12195420Y-14284650D02*
X12185896Y-14294174D01*
X12185896Y-14294174D02*
X12166848Y-14303698D01*
X12166848Y-14303698D02*
X12128753Y-14303698D01*
X12128753Y-14303698D02*
X12109706Y-14313222D01*
X12109706Y-14313222D02*
X12100182Y-14322746D01*
X12100182Y-14322746D02*
X12090658Y-14341793D01*
X12090658Y-14341793D02*
X12090658Y-14379888D01*
X12090658Y-14379888D02*
X12100182Y-14398936D01*
X12100182Y-14398936D02*
X12109706Y-14408460D01*
X12109706Y-14408460D02*
X12128753Y-14417984D01*
X12128753Y-14417984D02*
X12166848Y-14417984D01*
X12166848Y-14417984D02*
X12185896Y-14408460D01*
X12185896Y-14408460D02*
X12195420Y-14398936D01*
X12195420Y-14398936D02*
X12204944Y-14379888D01*
X12204944Y-14379888D02*
X12204944Y-14341793D01*
X12204944Y-14341793D02*
X12195420Y-14322746D01*
X12195420Y-14322746D02*
X12185896Y-14313222D01*
X12185896Y-14313222D02*
X12166848Y-14303698D01*
X12281134Y-14217984D02*
X12281134Y-14256079D01*
X12357325Y-14217984D02*
X12357325Y-14256079D01*
X12652563Y-14494174D02*
X12643039Y-14484650D01*
X12643039Y-14484650D02*
X12623991Y-14456079D01*
X12623991Y-14456079D02*
X12614468Y-14437031D01*
X12614468Y-14437031D02*
X12604944Y-14408460D01*
X12604944Y-14408460D02*
X12595420Y-14360841D01*
X12595420Y-14360841D02*
X12595420Y-14322746D01*
X12595420Y-14322746D02*
X12604944Y-14275127D01*
X12604944Y-14275127D02*
X12614468Y-14246555D01*
X12614468Y-14246555D02*
X12623991Y-14227508D01*
X12623991Y-14227508D02*
X12643039Y-14198936D01*
X12643039Y-14198936D02*
X12652563Y-14189412D01*
X12738277Y-14417984D02*
X12776372Y-14417984D01*
X12776372Y-14417984D02*
X12795420Y-14408460D01*
X12795420Y-14408460D02*
X12804944Y-14398936D01*
X12804944Y-14398936D02*
X12823991Y-14370365D01*
X12823991Y-14370365D02*
X12833515Y-14332269D01*
X12833515Y-14332269D02*
X12833515Y-14256079D01*
X12833515Y-14256079D02*
X12823991Y-14237031D01*
X12823991Y-14237031D02*
X12814468Y-14227508D01*
X12814468Y-14227508D02*
X12795420Y-14217984D01*
X12795420Y-14217984D02*
X12757325Y-14217984D01*
X12757325Y-14217984D02*
X12738277Y-14227508D01*
X12738277Y-14227508D02*
X12728753Y-14237031D01*
X12728753Y-14237031D02*
X12719229Y-14256079D01*
X12719229Y-14256079D02*
X12719229Y-14303698D01*
X12719229Y-14303698D02*
X12728753Y-14322746D01*
X12728753Y-14322746D02*
X12738277Y-14332269D01*
X12738277Y-14332269D02*
X12757325Y-14341793D01*
X12757325Y-14341793D02*
X12795420Y-14341793D01*
X12795420Y-14341793D02*
X12814468Y-14332269D01*
X12814468Y-14332269D02*
X12823991Y-14322746D01*
X12823991Y-14322746D02*
X12833515Y-14303698D01*
X12957325Y-14217984D02*
X12976372Y-14217984D01*
X12976372Y-14217984D02*
X12995420Y-14227508D01*
X12995420Y-14227508D02*
X13004944Y-14237031D01*
X13004944Y-14237031D02*
X13014468Y-14256079D01*
X13014468Y-14256079D02*
X13023991Y-14294174D01*
X13023991Y-14294174D02*
X13023991Y-14341793D01*
X13023991Y-14341793D02*
X13014468Y-14379888D01*
X13014468Y-14379888D02*
X13004944Y-14398936D01*
X13004944Y-14398936D02*
X12995420Y-14408460D01*
X12995420Y-14408460D02*
X12976372Y-14417984D01*
X12976372Y-14417984D02*
X12957325Y-14417984D01*
X12957325Y-14417984D02*
X12938277Y-14408460D01*
X12938277Y-14408460D02*
X12928753Y-14398936D01*
X12928753Y-14398936D02*
X12919229Y-14379888D01*
X12919229Y-14379888D02*
X12909706Y-14341793D01*
X12909706Y-14341793D02*
X12909706Y-14294174D01*
X12909706Y-14294174D02*
X12919229Y-14256079D01*
X12919229Y-14256079D02*
X12928753Y-14237031D01*
X12928753Y-14237031D02*
X12938277Y-14227508D01*
X12938277Y-14227508D02*
X12957325Y-14217984D01*
X13262087Y-14417984D02*
X13262087Y-14217984D01*
X13347801Y-14417984D02*
X13347801Y-14313222D01*
X13347801Y-14313222D02*
X13338277Y-14294174D01*
X13338277Y-14294174D02*
X13319230Y-14284650D01*
X13319230Y-14284650D02*
X13290658Y-14284650D01*
X13290658Y-14284650D02*
X13271610Y-14294174D01*
X13271610Y-14294174D02*
X13262087Y-14303698D01*
X13471610Y-14417984D02*
X13452563Y-14408460D01*
X13452563Y-14408460D02*
X13443039Y-14398936D01*
X13443039Y-14398936D02*
X13433515Y-14379888D01*
X13433515Y-14379888D02*
X13433515Y-14322746D01*
X13433515Y-14322746D02*
X13443039Y-14303698D01*
X13443039Y-14303698D02*
X13452563Y-14294174D01*
X13452563Y-14294174D02*
X13471610Y-14284650D01*
X13471610Y-14284650D02*
X13500182Y-14284650D01*
X13500182Y-14284650D02*
X13519230Y-14294174D01*
X13519230Y-14294174D02*
X13528753Y-14303698D01*
X13528753Y-14303698D02*
X13538277Y-14322746D01*
X13538277Y-14322746D02*
X13538277Y-14379888D01*
X13538277Y-14379888D02*
X13528753Y-14398936D01*
X13528753Y-14398936D02*
X13519230Y-14408460D01*
X13519230Y-14408460D02*
X13500182Y-14417984D01*
X13500182Y-14417984D02*
X13471610Y-14417984D01*
X13652563Y-14417984D02*
X13633515Y-14408460D01*
X13633515Y-14408460D02*
X13623991Y-14389412D01*
X13623991Y-14389412D02*
X13623991Y-14217984D01*
X13804944Y-14408460D02*
X13785896Y-14417984D01*
X13785896Y-14417984D02*
X13747801Y-14417984D01*
X13747801Y-14417984D02*
X13728753Y-14408460D01*
X13728753Y-14408460D02*
X13719230Y-14389412D01*
X13719230Y-14389412D02*
X13719230Y-14313222D01*
X13719230Y-14313222D02*
X13728753Y-14294174D01*
X13728753Y-14294174D02*
X13747801Y-14284650D01*
X13747801Y-14284650D02*
X13785896Y-14284650D01*
X13785896Y-14284650D02*
X13804944Y-14294174D01*
X13804944Y-14294174D02*
X13814468Y-14313222D01*
X13814468Y-14313222D02*
X13814468Y-14332269D01*
X13814468Y-14332269D02*
X13719230Y-14351317D01*
X13890658Y-14408460D02*
X13909706Y-14417984D01*
X13909706Y-14417984D02*
X13947801Y-14417984D01*
X13947801Y-14417984D02*
X13966849Y-14408460D01*
X13966849Y-14408460D02*
X13976372Y-14389412D01*
X13976372Y-14389412D02*
X13976372Y-14379888D01*
X13976372Y-14379888D02*
X13966849Y-14360841D01*
X13966849Y-14360841D02*
X13947801Y-14351317D01*
X13947801Y-14351317D02*
X13919230Y-14351317D01*
X13919230Y-14351317D02*
X13900182Y-14341793D01*
X13900182Y-14341793D02*
X13890658Y-14322746D01*
X13890658Y-14322746D02*
X13890658Y-14313222D01*
X13890658Y-14313222D02*
X13900182Y-14294174D01*
X13900182Y-14294174D02*
X13919230Y-14284650D01*
X13919230Y-14284650D02*
X13947801Y-14284650D01*
X13947801Y-14284650D02*
X13966849Y-14294174D01*
X14043039Y-14494174D02*
X14052563Y-14484650D01*
X14052563Y-14484650D02*
X14071611Y-14456079D01*
X14071611Y-14456079D02*
X14081134Y-14437031D01*
X14081134Y-14437031D02*
X14090658Y-14408460D01*
X14090658Y-14408460D02*
X14100182Y-14360841D01*
X14100182Y-14360841D02*
X14100182Y-14322746D01*
X14100182Y-14322746D02*
X14090658Y-14275127D01*
X14090658Y-14275127D02*
X14081134Y-14246555D01*
X14081134Y-14246555D02*
X14071611Y-14227508D01*
X14071611Y-14227508D02*
X14052563Y-14198936D01*
X14052563Y-14198936D02*
X14043039Y-14189412D01*
D12*
X9057500Y-14570500D02*
X9057500Y-14610500D01*
X9037500Y-14590500D02*
X9077500Y-14590500D01*
D11*
X9376372Y-14481984D02*
X9395420Y-14481984D01*
X9395420Y-14481984D02*
X9414467Y-14491508D01*
X9414467Y-14491508D02*
X9423991Y-14501031D01*
X9423991Y-14501031D02*
X9433515Y-14520079D01*
X9433515Y-14520079D02*
X9443039Y-14558174D01*
X9443039Y-14558174D02*
X9443039Y-14605793D01*
X9443039Y-14605793D02*
X9433515Y-14643888D01*
X9433515Y-14643888D02*
X9423991Y-14662936D01*
X9423991Y-14662936D02*
X9414467Y-14672460D01*
X9414467Y-14672460D02*
X9395420Y-14681984D01*
X9395420Y-14681984D02*
X9376372Y-14681984D01*
X9376372Y-14681984D02*
X9357324Y-14672460D01*
X9357324Y-14672460D02*
X9347801Y-14662936D01*
X9347801Y-14662936D02*
X9338277Y-14643888D01*
X9338277Y-14643888D02*
X9328753Y-14605793D01*
X9328753Y-14605793D02*
X9328753Y-14558174D01*
X9328753Y-14558174D02*
X9338277Y-14520079D01*
X9338277Y-14520079D02*
X9347801Y-14501031D01*
X9347801Y-14501031D02*
X9357324Y-14491508D01*
X9357324Y-14491508D02*
X9376372Y-14481984D01*
X9528753Y-14662936D02*
X9538277Y-14672460D01*
X9538277Y-14672460D02*
X9528753Y-14681984D01*
X9528753Y-14681984D02*
X9519229Y-14672460D01*
X9519229Y-14672460D02*
X9528753Y-14662936D01*
X9528753Y-14662936D02*
X9528753Y-14681984D01*
X9709705Y-14548650D02*
X9709705Y-14681984D01*
X9662086Y-14472460D02*
X9614467Y-14615317D01*
X9614467Y-14615317D02*
X9738277Y-14615317D01*
X9852563Y-14481984D02*
X9871610Y-14481984D01*
X9871610Y-14481984D02*
X9890658Y-14491508D01*
X9890658Y-14491508D02*
X9900182Y-14501031D01*
X9900182Y-14501031D02*
X9909705Y-14520079D01*
X9909705Y-14520079D02*
X9919229Y-14558174D01*
X9919229Y-14558174D02*
X9919229Y-14605793D01*
X9919229Y-14605793D02*
X9909705Y-14643888D01*
X9909705Y-14643888D02*
X9900182Y-14662936D01*
X9900182Y-14662936D02*
X9890658Y-14672460D01*
X9890658Y-14672460D02*
X9871610Y-14681984D01*
X9871610Y-14681984D02*
X9852563Y-14681984D01*
X9852563Y-14681984D02*
X9833515Y-14672460D01*
X9833515Y-14672460D02*
X9823991Y-14662936D01*
X9823991Y-14662936D02*
X9814467Y-14643888D01*
X9814467Y-14643888D02*
X9804944Y-14605793D01*
X9804944Y-14605793D02*
X9804944Y-14558174D01*
X9804944Y-14558174D02*
X9814467Y-14520079D01*
X9814467Y-14520079D02*
X9823991Y-14501031D01*
X9823991Y-14501031D02*
X9833515Y-14491508D01*
X9833515Y-14491508D02*
X9852563Y-14481984D01*
X10043039Y-14481984D02*
X10062086Y-14481984D01*
X10062086Y-14481984D02*
X10081134Y-14491508D01*
X10081134Y-14491508D02*
X10090658Y-14501031D01*
X10090658Y-14501031D02*
X10100182Y-14520079D01*
X10100182Y-14520079D02*
X10109705Y-14558174D01*
X10109705Y-14558174D02*
X10109705Y-14605793D01*
X10109705Y-14605793D02*
X10100182Y-14643888D01*
X10100182Y-14643888D02*
X10090658Y-14662936D01*
X10090658Y-14662936D02*
X10081134Y-14672460D01*
X10081134Y-14672460D02*
X10062086Y-14681984D01*
X10062086Y-14681984D02*
X10043039Y-14681984D01*
X10043039Y-14681984D02*
X10023991Y-14672460D01*
X10023991Y-14672460D02*
X10014467Y-14662936D01*
X10014467Y-14662936D02*
X10004944Y-14643888D01*
X10004944Y-14643888D02*
X9995420Y-14605793D01*
X9995420Y-14605793D02*
X9995420Y-14558174D01*
X9995420Y-14558174D02*
X10004944Y-14520079D01*
X10004944Y-14520079D02*
X10014467Y-14501031D01*
X10014467Y-14501031D02*
X10023991Y-14491508D01*
X10023991Y-14491508D02*
X10043039Y-14481984D01*
X10195420Y-14681984D02*
X10195420Y-14548650D01*
X10195420Y-14567698D02*
X10204944Y-14558174D01*
X10204944Y-14558174D02*
X10223991Y-14548650D01*
X10223991Y-14548650D02*
X10252563Y-14548650D01*
X10252563Y-14548650D02*
X10271610Y-14558174D01*
X10271610Y-14558174D02*
X10281134Y-14577222D01*
X10281134Y-14577222D02*
X10281134Y-14681984D01*
X10281134Y-14577222D02*
X10290658Y-14558174D01*
X10290658Y-14558174D02*
X10309705Y-14548650D01*
X10309705Y-14548650D02*
X10338277Y-14548650D01*
X10338277Y-14548650D02*
X10357325Y-14558174D01*
X10357325Y-14558174D02*
X10366848Y-14577222D01*
X10366848Y-14577222D02*
X10366848Y-14681984D01*
X10462086Y-14681984D02*
X10462086Y-14548650D01*
X10462086Y-14567698D02*
X10471610Y-14558174D01*
X10471610Y-14558174D02*
X10490658Y-14548650D01*
X10490658Y-14548650D02*
X10519229Y-14548650D01*
X10519229Y-14548650D02*
X10538277Y-14558174D01*
X10538277Y-14558174D02*
X10547801Y-14577222D01*
X10547801Y-14577222D02*
X10547801Y-14681984D01*
X10547801Y-14577222D02*
X10557325Y-14558174D01*
X10557325Y-14558174D02*
X10576372Y-14548650D01*
X10576372Y-14548650D02*
X10604944Y-14548650D01*
X10604944Y-14548650D02*
X10623991Y-14558174D01*
X10623991Y-14558174D02*
X10633515Y-14577222D01*
X10633515Y-14577222D02*
X10633515Y-14681984D01*
X11023991Y-14472460D02*
X10852563Y-14729603D01*
X11281134Y-14481984D02*
X11300182Y-14481984D01*
X11300182Y-14481984D02*
X11319229Y-14491508D01*
X11319229Y-14491508D02*
X11328753Y-14501031D01*
X11328753Y-14501031D02*
X11338277Y-14520079D01*
X11338277Y-14520079D02*
X11347801Y-14558174D01*
X11347801Y-14558174D02*
X11347801Y-14605793D01*
X11347801Y-14605793D02*
X11338277Y-14643888D01*
X11338277Y-14643888D02*
X11328753Y-14662936D01*
X11328753Y-14662936D02*
X11319229Y-14672460D01*
X11319229Y-14672460D02*
X11300182Y-14681984D01*
X11300182Y-14681984D02*
X11281134Y-14681984D01*
X11281134Y-14681984D02*
X11262086Y-14672460D01*
X11262086Y-14672460D02*
X11252563Y-14662936D01*
X11252563Y-14662936D02*
X11243039Y-14643888D01*
X11243039Y-14643888D02*
X11233515Y-14605793D01*
X11233515Y-14605793D02*
X11233515Y-14558174D01*
X11233515Y-14558174D02*
X11243039Y-14520079D01*
X11243039Y-14520079D02*
X11252563Y-14501031D01*
X11252563Y-14501031D02*
X11262086Y-14491508D01*
X11262086Y-14491508D02*
X11281134Y-14481984D01*
X11433515Y-14662936D02*
X11443039Y-14672460D01*
X11443039Y-14672460D02*
X11433515Y-14681984D01*
X11433515Y-14681984D02*
X11423991Y-14672460D01*
X11423991Y-14672460D02*
X11433515Y-14662936D01*
X11433515Y-14662936D02*
X11433515Y-14681984D01*
X11566848Y-14481984D02*
X11585896Y-14481984D01*
X11585896Y-14481984D02*
X11604944Y-14491508D01*
X11604944Y-14491508D02*
X11614467Y-14501031D01*
X11614467Y-14501031D02*
X11623991Y-14520079D01*
X11623991Y-14520079D02*
X11633515Y-14558174D01*
X11633515Y-14558174D02*
X11633515Y-14605793D01*
X11633515Y-14605793D02*
X11623991Y-14643888D01*
X11623991Y-14643888D02*
X11614467Y-14662936D01*
X11614467Y-14662936D02*
X11604944Y-14672460D01*
X11604944Y-14672460D02*
X11585896Y-14681984D01*
X11585896Y-14681984D02*
X11566848Y-14681984D01*
X11566848Y-14681984D02*
X11547801Y-14672460D01*
X11547801Y-14672460D02*
X11538277Y-14662936D01*
X11538277Y-14662936D02*
X11528753Y-14643888D01*
X11528753Y-14643888D02*
X11519229Y-14605793D01*
X11519229Y-14605793D02*
X11519229Y-14558174D01*
X11519229Y-14558174D02*
X11528753Y-14520079D01*
X11528753Y-14520079D02*
X11538277Y-14501031D01*
X11538277Y-14501031D02*
X11547801Y-14491508D01*
X11547801Y-14491508D02*
X11566848Y-14481984D01*
X11823991Y-14681984D02*
X11709706Y-14681984D01*
X11766848Y-14681984D02*
X11766848Y-14481984D01*
X11766848Y-14481984D02*
X11747801Y-14510555D01*
X11747801Y-14510555D02*
X11728753Y-14529603D01*
X11728753Y-14529603D02*
X11709706Y-14539127D01*
X12004944Y-14481984D02*
X11909706Y-14481984D01*
X11909706Y-14481984D02*
X11900182Y-14577222D01*
X11900182Y-14577222D02*
X11909706Y-14567698D01*
X11909706Y-14567698D02*
X11928753Y-14558174D01*
X11928753Y-14558174D02*
X11976372Y-14558174D01*
X11976372Y-14558174D02*
X11995420Y-14567698D01*
X11995420Y-14567698D02*
X12004944Y-14577222D01*
X12004944Y-14577222D02*
X12014467Y-14596269D01*
X12014467Y-14596269D02*
X12014467Y-14643888D01*
X12014467Y-14643888D02*
X12004944Y-14662936D01*
X12004944Y-14662936D02*
X11995420Y-14672460D01*
X11995420Y-14672460D02*
X11976372Y-14681984D01*
X11976372Y-14681984D02*
X11928753Y-14681984D01*
X11928753Y-14681984D02*
X11909706Y-14672460D01*
X11909706Y-14672460D02*
X11900182Y-14662936D01*
X12081134Y-14481984D02*
X12214467Y-14481984D01*
X12214467Y-14481984D02*
X12128753Y-14681984D01*
X12281134Y-14481984D02*
X12281134Y-14520079D01*
X12357325Y-14481984D02*
X12357325Y-14520079D01*
X12652563Y-14758174D02*
X12643039Y-14748650D01*
X12643039Y-14748650D02*
X12623991Y-14720079D01*
X12623991Y-14720079D02*
X12614468Y-14701031D01*
X12614468Y-14701031D02*
X12604944Y-14672460D01*
X12604944Y-14672460D02*
X12595420Y-14624841D01*
X12595420Y-14624841D02*
X12595420Y-14586746D01*
X12595420Y-14586746D02*
X12604944Y-14539127D01*
X12604944Y-14539127D02*
X12614468Y-14510555D01*
X12614468Y-14510555D02*
X12623991Y-14491508D01*
X12623991Y-14491508D02*
X12643039Y-14462936D01*
X12643039Y-14462936D02*
X12652563Y-14453412D01*
X12814468Y-14548650D02*
X12814468Y-14681984D01*
X12766848Y-14472460D02*
X12719229Y-14615317D01*
X12719229Y-14615317D02*
X12843039Y-14615317D01*
X12909706Y-14501031D02*
X12919229Y-14491508D01*
X12919229Y-14491508D02*
X12938277Y-14481984D01*
X12938277Y-14481984D02*
X12985896Y-14481984D01*
X12985896Y-14481984D02*
X13004944Y-14491508D01*
X13004944Y-14491508D02*
X13014468Y-14501031D01*
X13014468Y-14501031D02*
X13023991Y-14520079D01*
X13023991Y-14520079D02*
X13023991Y-14539127D01*
X13023991Y-14539127D02*
X13014468Y-14567698D01*
X13014468Y-14567698D02*
X12900182Y-14681984D01*
X12900182Y-14681984D02*
X13023991Y-14681984D01*
X13262087Y-14681984D02*
X13262087Y-14481984D01*
X13347801Y-14681984D02*
X13347801Y-14577222D01*
X13347801Y-14577222D02*
X13338277Y-14558174D01*
X13338277Y-14558174D02*
X13319230Y-14548650D01*
X13319230Y-14548650D02*
X13290658Y-14548650D01*
X13290658Y-14548650D02*
X13271610Y-14558174D01*
X13271610Y-14558174D02*
X13262087Y-14567698D01*
X13471610Y-14681984D02*
X13452563Y-14672460D01*
X13452563Y-14672460D02*
X13443039Y-14662936D01*
X13443039Y-14662936D02*
X13433515Y-14643888D01*
X13433515Y-14643888D02*
X13433515Y-14586746D01*
X13433515Y-14586746D02*
X13443039Y-14567698D01*
X13443039Y-14567698D02*
X13452563Y-14558174D01*
X13452563Y-14558174D02*
X13471610Y-14548650D01*
X13471610Y-14548650D02*
X13500182Y-14548650D01*
X13500182Y-14548650D02*
X13519230Y-14558174D01*
X13519230Y-14558174D02*
X13528753Y-14567698D01*
X13528753Y-14567698D02*
X13538277Y-14586746D01*
X13538277Y-14586746D02*
X13538277Y-14643888D01*
X13538277Y-14643888D02*
X13528753Y-14662936D01*
X13528753Y-14662936D02*
X13519230Y-14672460D01*
X13519230Y-14672460D02*
X13500182Y-14681984D01*
X13500182Y-14681984D02*
X13471610Y-14681984D01*
X13652563Y-14681984D02*
X13633515Y-14672460D01*
X13633515Y-14672460D02*
X13623991Y-14653412D01*
X13623991Y-14653412D02*
X13623991Y-14481984D01*
X13804944Y-14672460D02*
X13785896Y-14681984D01*
X13785896Y-14681984D02*
X13747801Y-14681984D01*
X13747801Y-14681984D02*
X13728753Y-14672460D01*
X13728753Y-14672460D02*
X13719230Y-14653412D01*
X13719230Y-14653412D02*
X13719230Y-14577222D01*
X13719230Y-14577222D02*
X13728753Y-14558174D01*
X13728753Y-14558174D02*
X13747801Y-14548650D01*
X13747801Y-14548650D02*
X13785896Y-14548650D01*
X13785896Y-14548650D02*
X13804944Y-14558174D01*
X13804944Y-14558174D02*
X13814468Y-14577222D01*
X13814468Y-14577222D02*
X13814468Y-14596269D01*
X13814468Y-14596269D02*
X13719230Y-14615317D01*
X13890658Y-14672460D02*
X13909706Y-14681984D01*
X13909706Y-14681984D02*
X13947801Y-14681984D01*
X13947801Y-14681984D02*
X13966849Y-14672460D01*
X13966849Y-14672460D02*
X13976372Y-14653412D01*
X13976372Y-14653412D02*
X13976372Y-14643888D01*
X13976372Y-14643888D02*
X13966849Y-14624841D01*
X13966849Y-14624841D02*
X13947801Y-14615317D01*
X13947801Y-14615317D02*
X13919230Y-14615317D01*
X13919230Y-14615317D02*
X13900182Y-14605793D01*
X13900182Y-14605793D02*
X13890658Y-14586746D01*
X13890658Y-14586746D02*
X13890658Y-14577222D01*
X13890658Y-14577222D02*
X13900182Y-14558174D01*
X13900182Y-14558174D02*
X13919230Y-14548650D01*
X13919230Y-14548650D02*
X13947801Y-14548650D01*
X13947801Y-14548650D02*
X13966849Y-14558174D01*
X14043039Y-14758174D02*
X14052563Y-14748650D01*
X14052563Y-14748650D02*
X14071611Y-14720079D01*
X14071611Y-14720079D02*
X14081134Y-14701031D01*
X14081134Y-14701031D02*
X14090658Y-14672460D01*
X14090658Y-14672460D02*
X14100182Y-14624841D01*
X14100182Y-14624841D02*
X14100182Y-14586746D01*
X14100182Y-14586746D02*
X14090658Y-14539127D01*
X14090658Y-14539127D02*
X14081134Y-14510555D01*
X14081134Y-14510555D02*
X14071611Y-14491508D01*
X14071611Y-14491508D02*
X14052563Y-14462936D01*
X14052563Y-14462936D02*
X14043039Y-14453412D01*
D12*
X9068713Y-14875713D02*
X9068713Y-14833287D01*
X9026287Y-14833287D01*
X9026287Y-14875713D01*
X9068713Y-14875713D01*
D11*
X9376372Y-14745984D02*
X9395420Y-14745984D01*
X9395420Y-14745984D02*
X9414467Y-14755508D01*
X9414467Y-14755508D02*
X9423991Y-14765031D01*
X9423991Y-14765031D02*
X9433515Y-14784079D01*
X9433515Y-14784079D02*
X9443039Y-14822174D01*
X9443039Y-14822174D02*
X9443039Y-14869793D01*
X9443039Y-14869793D02*
X9433515Y-14907888D01*
X9433515Y-14907888D02*
X9423991Y-14926936D01*
X9423991Y-14926936D02*
X9414467Y-14936460D01*
X9414467Y-14936460D02*
X9395420Y-14945984D01*
X9395420Y-14945984D02*
X9376372Y-14945984D01*
X9376372Y-14945984D02*
X9357324Y-14936460D01*
X9357324Y-14936460D02*
X9347801Y-14926936D01*
X9347801Y-14926936D02*
X9338277Y-14907888D01*
X9338277Y-14907888D02*
X9328753Y-14869793D01*
X9328753Y-14869793D02*
X9328753Y-14822174D01*
X9328753Y-14822174D02*
X9338277Y-14784079D01*
X9338277Y-14784079D02*
X9347801Y-14765031D01*
X9347801Y-14765031D02*
X9357324Y-14755508D01*
X9357324Y-14755508D02*
X9376372Y-14745984D01*
X9528753Y-14926936D02*
X9538277Y-14936460D01*
X9538277Y-14936460D02*
X9528753Y-14945984D01*
X9528753Y-14945984D02*
X9519229Y-14936460D01*
X9519229Y-14936460D02*
X9528753Y-14926936D01*
X9528753Y-14926936D02*
X9528753Y-14945984D01*
X9709705Y-14745984D02*
X9671610Y-14745984D01*
X9671610Y-14745984D02*
X9652563Y-14755508D01*
X9652563Y-14755508D02*
X9643039Y-14765031D01*
X9643039Y-14765031D02*
X9623991Y-14793603D01*
X9623991Y-14793603D02*
X9614467Y-14831698D01*
X9614467Y-14831698D02*
X9614467Y-14907888D01*
X9614467Y-14907888D02*
X9623991Y-14926936D01*
X9623991Y-14926936D02*
X9633515Y-14936460D01*
X9633515Y-14936460D02*
X9652563Y-14945984D01*
X9652563Y-14945984D02*
X9690658Y-14945984D01*
X9690658Y-14945984D02*
X9709705Y-14936460D01*
X9709705Y-14936460D02*
X9719229Y-14926936D01*
X9719229Y-14926936D02*
X9728753Y-14907888D01*
X9728753Y-14907888D02*
X9728753Y-14860269D01*
X9728753Y-14860269D02*
X9719229Y-14841222D01*
X9719229Y-14841222D02*
X9709705Y-14831698D01*
X9709705Y-14831698D02*
X9690658Y-14822174D01*
X9690658Y-14822174D02*
X9652563Y-14822174D01*
X9652563Y-14822174D02*
X9633515Y-14831698D01*
X9633515Y-14831698D02*
X9623991Y-14841222D01*
X9623991Y-14841222D02*
X9614467Y-14860269D01*
X9852563Y-14745984D02*
X9871610Y-14745984D01*
X9871610Y-14745984D02*
X9890658Y-14755508D01*
X9890658Y-14755508D02*
X9900182Y-14765031D01*
X9900182Y-14765031D02*
X9909705Y-14784079D01*
X9909705Y-14784079D02*
X9919229Y-14822174D01*
X9919229Y-14822174D02*
X9919229Y-14869793D01*
X9919229Y-14869793D02*
X9909705Y-14907888D01*
X9909705Y-14907888D02*
X9900182Y-14926936D01*
X9900182Y-14926936D02*
X9890658Y-14936460D01*
X9890658Y-14936460D02*
X9871610Y-14945984D01*
X9871610Y-14945984D02*
X9852563Y-14945984D01*
X9852563Y-14945984D02*
X9833515Y-14936460D01*
X9833515Y-14936460D02*
X9823991Y-14926936D01*
X9823991Y-14926936D02*
X9814467Y-14907888D01*
X9814467Y-14907888D02*
X9804944Y-14869793D01*
X9804944Y-14869793D02*
X9804944Y-14822174D01*
X9804944Y-14822174D02*
X9814467Y-14784079D01*
X9814467Y-14784079D02*
X9823991Y-14765031D01*
X9823991Y-14765031D02*
X9833515Y-14755508D01*
X9833515Y-14755508D02*
X9852563Y-14745984D01*
X10043039Y-14745984D02*
X10062086Y-14745984D01*
X10062086Y-14745984D02*
X10081134Y-14755508D01*
X10081134Y-14755508D02*
X10090658Y-14765031D01*
X10090658Y-14765031D02*
X10100182Y-14784079D01*
X10100182Y-14784079D02*
X10109705Y-14822174D01*
X10109705Y-14822174D02*
X10109705Y-14869793D01*
X10109705Y-14869793D02*
X10100182Y-14907888D01*
X10100182Y-14907888D02*
X10090658Y-14926936D01*
X10090658Y-14926936D02*
X10081134Y-14936460D01*
X10081134Y-14936460D02*
X10062086Y-14945984D01*
X10062086Y-14945984D02*
X10043039Y-14945984D01*
X10043039Y-14945984D02*
X10023991Y-14936460D01*
X10023991Y-14936460D02*
X10014467Y-14926936D01*
X10014467Y-14926936D02*
X10004944Y-14907888D01*
X10004944Y-14907888D02*
X9995420Y-14869793D01*
X9995420Y-14869793D02*
X9995420Y-14822174D01*
X9995420Y-14822174D02*
X10004944Y-14784079D01*
X10004944Y-14784079D02*
X10014467Y-14765031D01*
X10014467Y-14765031D02*
X10023991Y-14755508D01*
X10023991Y-14755508D02*
X10043039Y-14745984D01*
X10195420Y-14945984D02*
X10195420Y-14812650D01*
X10195420Y-14831698D02*
X10204944Y-14822174D01*
X10204944Y-14822174D02*
X10223991Y-14812650D01*
X10223991Y-14812650D02*
X10252563Y-14812650D01*
X10252563Y-14812650D02*
X10271610Y-14822174D01*
X10271610Y-14822174D02*
X10281134Y-14841222D01*
X10281134Y-14841222D02*
X10281134Y-14945984D01*
X10281134Y-14841222D02*
X10290658Y-14822174D01*
X10290658Y-14822174D02*
X10309705Y-14812650D01*
X10309705Y-14812650D02*
X10338277Y-14812650D01*
X10338277Y-14812650D02*
X10357325Y-14822174D01*
X10357325Y-14822174D02*
X10366848Y-14841222D01*
X10366848Y-14841222D02*
X10366848Y-14945984D01*
X10462086Y-14945984D02*
X10462086Y-14812650D01*
X10462086Y-14831698D02*
X10471610Y-14822174D01*
X10471610Y-14822174D02*
X10490658Y-14812650D01*
X10490658Y-14812650D02*
X10519229Y-14812650D01*
X10519229Y-14812650D02*
X10538277Y-14822174D01*
X10538277Y-14822174D02*
X10547801Y-14841222D01*
X10547801Y-14841222D02*
X10547801Y-14945984D01*
X10547801Y-14841222D02*
X10557325Y-14822174D01*
X10557325Y-14822174D02*
X10576372Y-14812650D01*
X10576372Y-14812650D02*
X10604944Y-14812650D01*
X10604944Y-14812650D02*
X10623991Y-14822174D01*
X10623991Y-14822174D02*
X10633515Y-14841222D01*
X10633515Y-14841222D02*
X10633515Y-14945984D01*
X11023991Y-14736460D02*
X10852563Y-14993603D01*
X11281134Y-14745984D02*
X11300182Y-14745984D01*
X11300182Y-14745984D02*
X11319229Y-14755508D01*
X11319229Y-14755508D02*
X11328753Y-14765031D01*
X11328753Y-14765031D02*
X11338277Y-14784079D01*
X11338277Y-14784079D02*
X11347801Y-14822174D01*
X11347801Y-14822174D02*
X11347801Y-14869793D01*
X11347801Y-14869793D02*
X11338277Y-14907888D01*
X11338277Y-14907888D02*
X11328753Y-14926936D01*
X11328753Y-14926936D02*
X11319229Y-14936460D01*
X11319229Y-14936460D02*
X11300182Y-14945984D01*
X11300182Y-14945984D02*
X11281134Y-14945984D01*
X11281134Y-14945984D02*
X11262086Y-14936460D01*
X11262086Y-14936460D02*
X11252563Y-14926936D01*
X11252563Y-14926936D02*
X11243039Y-14907888D01*
X11243039Y-14907888D02*
X11233515Y-14869793D01*
X11233515Y-14869793D02*
X11233515Y-14822174D01*
X11233515Y-14822174D02*
X11243039Y-14784079D01*
X11243039Y-14784079D02*
X11252563Y-14765031D01*
X11252563Y-14765031D02*
X11262086Y-14755508D01*
X11262086Y-14755508D02*
X11281134Y-14745984D01*
X11433515Y-14926936D02*
X11443039Y-14936460D01*
X11443039Y-14936460D02*
X11433515Y-14945984D01*
X11433515Y-14945984D02*
X11423991Y-14936460D01*
X11423991Y-14936460D02*
X11433515Y-14926936D01*
X11433515Y-14926936D02*
X11433515Y-14945984D01*
X11566848Y-14745984D02*
X11585896Y-14745984D01*
X11585896Y-14745984D02*
X11604944Y-14755508D01*
X11604944Y-14755508D02*
X11614467Y-14765031D01*
X11614467Y-14765031D02*
X11623991Y-14784079D01*
X11623991Y-14784079D02*
X11633515Y-14822174D01*
X11633515Y-14822174D02*
X11633515Y-14869793D01*
X11633515Y-14869793D02*
X11623991Y-14907888D01*
X11623991Y-14907888D02*
X11614467Y-14926936D01*
X11614467Y-14926936D02*
X11604944Y-14936460D01*
X11604944Y-14936460D02*
X11585896Y-14945984D01*
X11585896Y-14945984D02*
X11566848Y-14945984D01*
X11566848Y-14945984D02*
X11547801Y-14936460D01*
X11547801Y-14936460D02*
X11538277Y-14926936D01*
X11538277Y-14926936D02*
X11528753Y-14907888D01*
X11528753Y-14907888D02*
X11519229Y-14869793D01*
X11519229Y-14869793D02*
X11519229Y-14822174D01*
X11519229Y-14822174D02*
X11528753Y-14784079D01*
X11528753Y-14784079D02*
X11538277Y-14765031D01*
X11538277Y-14765031D02*
X11547801Y-14755508D01*
X11547801Y-14755508D02*
X11566848Y-14745984D01*
X11709706Y-14765031D02*
X11719229Y-14755508D01*
X11719229Y-14755508D02*
X11738277Y-14745984D01*
X11738277Y-14745984D02*
X11785896Y-14745984D01*
X11785896Y-14745984D02*
X11804944Y-14755508D01*
X11804944Y-14755508D02*
X11814467Y-14765031D01*
X11814467Y-14765031D02*
X11823991Y-14784079D01*
X11823991Y-14784079D02*
X11823991Y-14803127D01*
X11823991Y-14803127D02*
X11814467Y-14831698D01*
X11814467Y-14831698D02*
X11700182Y-14945984D01*
X11700182Y-14945984D02*
X11823991Y-14945984D01*
X11890658Y-14745984D02*
X12014467Y-14745984D01*
X12014467Y-14745984D02*
X11947801Y-14822174D01*
X11947801Y-14822174D02*
X11976372Y-14822174D01*
X11976372Y-14822174D02*
X11995420Y-14831698D01*
X11995420Y-14831698D02*
X12004944Y-14841222D01*
X12004944Y-14841222D02*
X12014467Y-14860269D01*
X12014467Y-14860269D02*
X12014467Y-14907888D01*
X12014467Y-14907888D02*
X12004944Y-14926936D01*
X12004944Y-14926936D02*
X11995420Y-14936460D01*
X11995420Y-14936460D02*
X11976372Y-14945984D01*
X11976372Y-14945984D02*
X11919229Y-14945984D01*
X11919229Y-14945984D02*
X11900182Y-14936460D01*
X11900182Y-14936460D02*
X11890658Y-14926936D01*
X12185896Y-14745984D02*
X12147801Y-14745984D01*
X12147801Y-14745984D02*
X12128753Y-14755508D01*
X12128753Y-14755508D02*
X12119229Y-14765031D01*
X12119229Y-14765031D02*
X12100182Y-14793603D01*
X12100182Y-14793603D02*
X12090658Y-14831698D01*
X12090658Y-14831698D02*
X12090658Y-14907888D01*
X12090658Y-14907888D02*
X12100182Y-14926936D01*
X12100182Y-14926936D02*
X12109706Y-14936460D01*
X12109706Y-14936460D02*
X12128753Y-14945984D01*
X12128753Y-14945984D02*
X12166848Y-14945984D01*
X12166848Y-14945984D02*
X12185896Y-14936460D01*
X12185896Y-14936460D02*
X12195420Y-14926936D01*
X12195420Y-14926936D02*
X12204944Y-14907888D01*
X12204944Y-14907888D02*
X12204944Y-14860269D01*
X12204944Y-14860269D02*
X12195420Y-14841222D01*
X12195420Y-14841222D02*
X12185896Y-14831698D01*
X12185896Y-14831698D02*
X12166848Y-14822174D01*
X12166848Y-14822174D02*
X12128753Y-14822174D01*
X12128753Y-14822174D02*
X12109706Y-14831698D01*
X12109706Y-14831698D02*
X12100182Y-14841222D01*
X12100182Y-14841222D02*
X12090658Y-14860269D01*
X12281134Y-14745984D02*
X12281134Y-14784079D01*
X12357325Y-14745984D02*
X12357325Y-14784079D01*
X12652563Y-15022174D02*
X12643039Y-15012650D01*
X12643039Y-15012650D02*
X12623991Y-14984079D01*
X12623991Y-14984079D02*
X12614468Y-14965031D01*
X12614468Y-14965031D02*
X12604944Y-14936460D01*
X12604944Y-14936460D02*
X12595420Y-14888841D01*
X12595420Y-14888841D02*
X12595420Y-14850746D01*
X12595420Y-14850746D02*
X12604944Y-14803127D01*
X12604944Y-14803127D02*
X12614468Y-14774555D01*
X12614468Y-14774555D02*
X12623991Y-14755508D01*
X12623991Y-14755508D02*
X12643039Y-14726936D01*
X12643039Y-14726936D02*
X12652563Y-14717412D01*
X12833515Y-14945984D02*
X12719229Y-14945984D01*
X12776372Y-14945984D02*
X12776372Y-14745984D01*
X12776372Y-14745984D02*
X12757325Y-14774555D01*
X12757325Y-14774555D02*
X12738277Y-14793603D01*
X12738277Y-14793603D02*
X12719229Y-14803127D01*
X12909706Y-14765031D02*
X12919229Y-14755508D01*
X12919229Y-14755508D02*
X12938277Y-14745984D01*
X12938277Y-14745984D02*
X12985896Y-14745984D01*
X12985896Y-14745984D02*
X13004944Y-14755508D01*
X13004944Y-14755508D02*
X13014468Y-14765031D01*
X13014468Y-14765031D02*
X13023991Y-14784079D01*
X13023991Y-14784079D02*
X13023991Y-14803127D01*
X13023991Y-14803127D02*
X13014468Y-14831698D01*
X13014468Y-14831698D02*
X12900182Y-14945984D01*
X12900182Y-14945984D02*
X13023991Y-14945984D01*
X13262087Y-14945984D02*
X13262087Y-14745984D01*
X13347801Y-14945984D02*
X13347801Y-14841222D01*
X13347801Y-14841222D02*
X13338277Y-14822174D01*
X13338277Y-14822174D02*
X13319230Y-14812650D01*
X13319230Y-14812650D02*
X13290658Y-14812650D01*
X13290658Y-14812650D02*
X13271610Y-14822174D01*
X13271610Y-14822174D02*
X13262087Y-14831698D01*
X13471610Y-14945984D02*
X13452563Y-14936460D01*
X13452563Y-14936460D02*
X13443039Y-14926936D01*
X13443039Y-14926936D02*
X13433515Y-14907888D01*
X13433515Y-14907888D02*
X13433515Y-14850746D01*
X13433515Y-14850746D02*
X13443039Y-14831698D01*
X13443039Y-14831698D02*
X13452563Y-14822174D01*
X13452563Y-14822174D02*
X13471610Y-14812650D01*
X13471610Y-14812650D02*
X13500182Y-14812650D01*
X13500182Y-14812650D02*
X13519230Y-14822174D01*
X13519230Y-14822174D02*
X13528753Y-14831698D01*
X13528753Y-14831698D02*
X13538277Y-14850746D01*
X13538277Y-14850746D02*
X13538277Y-14907888D01*
X13538277Y-14907888D02*
X13528753Y-14926936D01*
X13528753Y-14926936D02*
X13519230Y-14936460D01*
X13519230Y-14936460D02*
X13500182Y-14945984D01*
X13500182Y-14945984D02*
X13471610Y-14945984D01*
X13652563Y-14945984D02*
X13633515Y-14936460D01*
X13633515Y-14936460D02*
X13623991Y-14917412D01*
X13623991Y-14917412D02*
X13623991Y-14745984D01*
X13804944Y-14936460D02*
X13785896Y-14945984D01*
X13785896Y-14945984D02*
X13747801Y-14945984D01*
X13747801Y-14945984D02*
X13728753Y-14936460D01*
X13728753Y-14936460D02*
X13719230Y-14917412D01*
X13719230Y-14917412D02*
X13719230Y-14841222D01*
X13719230Y-14841222D02*
X13728753Y-14822174D01*
X13728753Y-14822174D02*
X13747801Y-14812650D01*
X13747801Y-14812650D02*
X13785896Y-14812650D01*
X13785896Y-14812650D02*
X13804944Y-14822174D01*
X13804944Y-14822174D02*
X13814468Y-14841222D01*
X13814468Y-14841222D02*
X13814468Y-14860269D01*
X13814468Y-14860269D02*
X13719230Y-14879317D01*
X13890658Y-14936460D02*
X13909706Y-14945984D01*
X13909706Y-14945984D02*
X13947801Y-14945984D01*
X13947801Y-14945984D02*
X13966849Y-14936460D01*
X13966849Y-14936460D02*
X13976372Y-14917412D01*
X13976372Y-14917412D02*
X13976372Y-14907888D01*
X13976372Y-14907888D02*
X13966849Y-14888841D01*
X13966849Y-14888841D02*
X13947801Y-14879317D01*
X13947801Y-14879317D02*
X13919230Y-14879317D01*
X13919230Y-14879317D02*
X13900182Y-14869793D01*
X13900182Y-14869793D02*
X13890658Y-14850746D01*
X13890658Y-14850746D02*
X13890658Y-14841222D01*
X13890658Y-14841222D02*
X13900182Y-14822174D01*
X13900182Y-14822174D02*
X13919230Y-14812650D01*
X13919230Y-14812650D02*
X13947801Y-14812650D01*
X13947801Y-14812650D02*
X13966849Y-14822174D01*
X14043039Y-15022174D02*
X14052563Y-15012650D01*
X14052563Y-15012650D02*
X14071611Y-14984079D01*
X14071611Y-14984079D02*
X14081134Y-14965031D01*
X14081134Y-14965031D02*
X14090658Y-14936460D01*
X14090658Y-14936460D02*
X14100182Y-14888841D01*
X14100182Y-14888841D02*
X14100182Y-14850746D01*
X14100182Y-14850746D02*
X14090658Y-14803127D01*
X14090658Y-14803127D02*
X14081134Y-14774555D01*
X14081134Y-14774555D02*
X14071611Y-14755508D01*
X14071611Y-14755508D02*
X14052563Y-14726936D01*
X14052563Y-14726936D02*
X14043039Y-14717412D01*
D12*
X9027500Y-15168500D02*
X9077500Y-15118500D01*
X9027500Y-15068500D01*
X8977500Y-15118500D01*
X9027500Y-15168500D01*
D11*
X9443039Y-15209984D02*
X9328753Y-15209984D01*
X9385896Y-15209984D02*
X9385896Y-15009984D01*
X9385896Y-15009984D02*
X9366848Y-15038555D01*
X9366848Y-15038555D02*
X9347801Y-15057603D01*
X9347801Y-15057603D02*
X9328753Y-15067127D01*
X9528753Y-15190936D02*
X9538277Y-15200460D01*
X9538277Y-15200460D02*
X9528753Y-15209984D01*
X9528753Y-15209984D02*
X9519229Y-15200460D01*
X9519229Y-15200460D02*
X9528753Y-15190936D01*
X9528753Y-15190936D02*
X9528753Y-15209984D01*
X9662086Y-15009984D02*
X9681134Y-15009984D01*
X9681134Y-15009984D02*
X9700182Y-15019508D01*
X9700182Y-15019508D02*
X9709705Y-15029031D01*
X9709705Y-15029031D02*
X9719229Y-15048079D01*
X9719229Y-15048079D02*
X9728753Y-15086174D01*
X9728753Y-15086174D02*
X9728753Y-15133793D01*
X9728753Y-15133793D02*
X9719229Y-15171888D01*
X9719229Y-15171888D02*
X9709705Y-15190936D01*
X9709705Y-15190936D02*
X9700182Y-15200460D01*
X9700182Y-15200460D02*
X9681134Y-15209984D01*
X9681134Y-15209984D02*
X9662086Y-15209984D01*
X9662086Y-15209984D02*
X9643039Y-15200460D01*
X9643039Y-15200460D02*
X9633515Y-15190936D01*
X9633515Y-15190936D02*
X9623991Y-15171888D01*
X9623991Y-15171888D02*
X9614467Y-15133793D01*
X9614467Y-15133793D02*
X9614467Y-15086174D01*
X9614467Y-15086174D02*
X9623991Y-15048079D01*
X9623991Y-15048079D02*
X9633515Y-15029031D01*
X9633515Y-15029031D02*
X9643039Y-15019508D01*
X9643039Y-15019508D02*
X9662086Y-15009984D01*
X9852563Y-15009984D02*
X9871610Y-15009984D01*
X9871610Y-15009984D02*
X9890658Y-15019508D01*
X9890658Y-15019508D02*
X9900182Y-15029031D01*
X9900182Y-15029031D02*
X9909705Y-15048079D01*
X9909705Y-15048079D02*
X9919229Y-15086174D01*
X9919229Y-15086174D02*
X9919229Y-15133793D01*
X9919229Y-15133793D02*
X9909705Y-15171888D01*
X9909705Y-15171888D02*
X9900182Y-15190936D01*
X9900182Y-15190936D02*
X9890658Y-15200460D01*
X9890658Y-15200460D02*
X9871610Y-15209984D01*
X9871610Y-15209984D02*
X9852563Y-15209984D01*
X9852563Y-15209984D02*
X9833515Y-15200460D01*
X9833515Y-15200460D02*
X9823991Y-15190936D01*
X9823991Y-15190936D02*
X9814467Y-15171888D01*
X9814467Y-15171888D02*
X9804944Y-15133793D01*
X9804944Y-15133793D02*
X9804944Y-15086174D01*
X9804944Y-15086174D02*
X9814467Y-15048079D01*
X9814467Y-15048079D02*
X9823991Y-15029031D01*
X9823991Y-15029031D02*
X9833515Y-15019508D01*
X9833515Y-15019508D02*
X9852563Y-15009984D01*
X10043039Y-15009984D02*
X10062086Y-15009984D01*
X10062086Y-15009984D02*
X10081134Y-15019508D01*
X10081134Y-15019508D02*
X10090658Y-15029031D01*
X10090658Y-15029031D02*
X10100182Y-15048079D01*
X10100182Y-15048079D02*
X10109705Y-15086174D01*
X10109705Y-15086174D02*
X10109705Y-15133793D01*
X10109705Y-15133793D02*
X10100182Y-15171888D01*
X10100182Y-15171888D02*
X10090658Y-15190936D01*
X10090658Y-15190936D02*
X10081134Y-15200460D01*
X10081134Y-15200460D02*
X10062086Y-15209984D01*
X10062086Y-15209984D02*
X10043039Y-15209984D01*
X10043039Y-15209984D02*
X10023991Y-15200460D01*
X10023991Y-15200460D02*
X10014467Y-15190936D01*
X10014467Y-15190936D02*
X10004944Y-15171888D01*
X10004944Y-15171888D02*
X9995420Y-15133793D01*
X9995420Y-15133793D02*
X9995420Y-15086174D01*
X9995420Y-15086174D02*
X10004944Y-15048079D01*
X10004944Y-15048079D02*
X10014467Y-15029031D01*
X10014467Y-15029031D02*
X10023991Y-15019508D01*
X10023991Y-15019508D02*
X10043039Y-15009984D01*
X10195420Y-15209984D02*
X10195420Y-15076650D01*
X10195420Y-15095698D02*
X10204944Y-15086174D01*
X10204944Y-15086174D02*
X10223991Y-15076650D01*
X10223991Y-15076650D02*
X10252563Y-15076650D01*
X10252563Y-15076650D02*
X10271610Y-15086174D01*
X10271610Y-15086174D02*
X10281134Y-15105222D01*
X10281134Y-15105222D02*
X10281134Y-15209984D01*
X10281134Y-15105222D02*
X10290658Y-15086174D01*
X10290658Y-15086174D02*
X10309705Y-15076650D01*
X10309705Y-15076650D02*
X10338277Y-15076650D01*
X10338277Y-15076650D02*
X10357325Y-15086174D01*
X10357325Y-15086174D02*
X10366848Y-15105222D01*
X10366848Y-15105222D02*
X10366848Y-15209984D01*
X10462086Y-15209984D02*
X10462086Y-15076650D01*
X10462086Y-15095698D02*
X10471610Y-15086174D01*
X10471610Y-15086174D02*
X10490658Y-15076650D01*
X10490658Y-15076650D02*
X10519229Y-15076650D01*
X10519229Y-15076650D02*
X10538277Y-15086174D01*
X10538277Y-15086174D02*
X10547801Y-15105222D01*
X10547801Y-15105222D02*
X10547801Y-15209984D01*
X10547801Y-15105222D02*
X10557325Y-15086174D01*
X10557325Y-15086174D02*
X10576372Y-15076650D01*
X10576372Y-15076650D02*
X10604944Y-15076650D01*
X10604944Y-15076650D02*
X10623991Y-15086174D01*
X10623991Y-15086174D02*
X10633515Y-15105222D01*
X10633515Y-15105222D02*
X10633515Y-15209984D01*
X11023991Y-15000460D02*
X10852563Y-15257603D01*
X11281134Y-15009984D02*
X11300182Y-15009984D01*
X11300182Y-15009984D02*
X11319229Y-15019508D01*
X11319229Y-15019508D02*
X11328753Y-15029031D01*
X11328753Y-15029031D02*
X11338277Y-15048079D01*
X11338277Y-15048079D02*
X11347801Y-15086174D01*
X11347801Y-15086174D02*
X11347801Y-15133793D01*
X11347801Y-15133793D02*
X11338277Y-15171888D01*
X11338277Y-15171888D02*
X11328753Y-15190936D01*
X11328753Y-15190936D02*
X11319229Y-15200460D01*
X11319229Y-15200460D02*
X11300182Y-15209984D01*
X11300182Y-15209984D02*
X11281134Y-15209984D01*
X11281134Y-15209984D02*
X11262086Y-15200460D01*
X11262086Y-15200460D02*
X11252563Y-15190936D01*
X11252563Y-15190936D02*
X11243039Y-15171888D01*
X11243039Y-15171888D02*
X11233515Y-15133793D01*
X11233515Y-15133793D02*
X11233515Y-15086174D01*
X11233515Y-15086174D02*
X11243039Y-15048079D01*
X11243039Y-15048079D02*
X11252563Y-15029031D01*
X11252563Y-15029031D02*
X11262086Y-15019508D01*
X11262086Y-15019508D02*
X11281134Y-15009984D01*
X11433515Y-15190936D02*
X11443039Y-15200460D01*
X11443039Y-15200460D02*
X11433515Y-15209984D01*
X11433515Y-15209984D02*
X11423991Y-15200460D01*
X11423991Y-15200460D02*
X11433515Y-15190936D01*
X11433515Y-15190936D02*
X11433515Y-15209984D01*
X11566848Y-15009984D02*
X11585896Y-15009984D01*
X11585896Y-15009984D02*
X11604944Y-15019508D01*
X11604944Y-15019508D02*
X11614467Y-15029031D01*
X11614467Y-15029031D02*
X11623991Y-15048079D01*
X11623991Y-15048079D02*
X11633515Y-15086174D01*
X11633515Y-15086174D02*
X11633515Y-15133793D01*
X11633515Y-15133793D02*
X11623991Y-15171888D01*
X11623991Y-15171888D02*
X11614467Y-15190936D01*
X11614467Y-15190936D02*
X11604944Y-15200460D01*
X11604944Y-15200460D02*
X11585896Y-15209984D01*
X11585896Y-15209984D02*
X11566848Y-15209984D01*
X11566848Y-15209984D02*
X11547801Y-15200460D01*
X11547801Y-15200460D02*
X11538277Y-15190936D01*
X11538277Y-15190936D02*
X11528753Y-15171888D01*
X11528753Y-15171888D02*
X11519229Y-15133793D01*
X11519229Y-15133793D02*
X11519229Y-15086174D01*
X11519229Y-15086174D02*
X11528753Y-15048079D01*
X11528753Y-15048079D02*
X11538277Y-15029031D01*
X11538277Y-15029031D02*
X11547801Y-15019508D01*
X11547801Y-15019508D02*
X11566848Y-15009984D01*
X11700182Y-15009984D02*
X11823991Y-15009984D01*
X11823991Y-15009984D02*
X11757325Y-15086174D01*
X11757325Y-15086174D02*
X11785896Y-15086174D01*
X11785896Y-15086174D02*
X11804944Y-15095698D01*
X11804944Y-15095698D02*
X11814467Y-15105222D01*
X11814467Y-15105222D02*
X11823991Y-15124269D01*
X11823991Y-15124269D02*
X11823991Y-15171888D01*
X11823991Y-15171888D02*
X11814467Y-15190936D01*
X11814467Y-15190936D02*
X11804944Y-15200460D01*
X11804944Y-15200460D02*
X11785896Y-15209984D01*
X11785896Y-15209984D02*
X11728753Y-15209984D01*
X11728753Y-15209984D02*
X11709706Y-15200460D01*
X11709706Y-15200460D02*
X11700182Y-15190936D01*
X11919229Y-15209984D02*
X11957325Y-15209984D01*
X11957325Y-15209984D02*
X11976372Y-15200460D01*
X11976372Y-15200460D02*
X11985896Y-15190936D01*
X11985896Y-15190936D02*
X12004944Y-15162365D01*
X12004944Y-15162365D02*
X12014467Y-15124269D01*
X12014467Y-15124269D02*
X12014467Y-15048079D01*
X12014467Y-15048079D02*
X12004944Y-15029031D01*
X12004944Y-15029031D02*
X11995420Y-15019508D01*
X11995420Y-15019508D02*
X11976372Y-15009984D01*
X11976372Y-15009984D02*
X11938277Y-15009984D01*
X11938277Y-15009984D02*
X11919229Y-15019508D01*
X11919229Y-15019508D02*
X11909706Y-15029031D01*
X11909706Y-15029031D02*
X11900182Y-15048079D01*
X11900182Y-15048079D02*
X11900182Y-15095698D01*
X11900182Y-15095698D02*
X11909706Y-15114746D01*
X11909706Y-15114746D02*
X11919229Y-15124269D01*
X11919229Y-15124269D02*
X11938277Y-15133793D01*
X11938277Y-15133793D02*
X11976372Y-15133793D01*
X11976372Y-15133793D02*
X11995420Y-15124269D01*
X11995420Y-15124269D02*
X12004944Y-15114746D01*
X12004944Y-15114746D02*
X12014467Y-15095698D01*
X12185896Y-15076650D02*
X12185896Y-15209984D01*
X12138277Y-15000460D02*
X12090658Y-15143317D01*
X12090658Y-15143317D02*
X12214467Y-15143317D01*
X12281134Y-15009984D02*
X12281134Y-15048079D01*
X12357325Y-15009984D02*
X12357325Y-15048079D01*
X12652563Y-15286174D02*
X12643039Y-15276650D01*
X12643039Y-15276650D02*
X12623991Y-15248079D01*
X12623991Y-15248079D02*
X12614468Y-15229031D01*
X12614468Y-15229031D02*
X12604944Y-15200460D01*
X12604944Y-15200460D02*
X12595420Y-15152841D01*
X12595420Y-15152841D02*
X12595420Y-15114746D01*
X12595420Y-15114746D02*
X12604944Y-15067127D01*
X12604944Y-15067127D02*
X12614468Y-15038555D01*
X12614468Y-15038555D02*
X12623991Y-15019508D01*
X12623991Y-15019508D02*
X12643039Y-14990936D01*
X12643039Y-14990936D02*
X12652563Y-14981412D01*
X12814468Y-15009984D02*
X12776372Y-15009984D01*
X12776372Y-15009984D02*
X12757325Y-15019508D01*
X12757325Y-15019508D02*
X12747801Y-15029031D01*
X12747801Y-15029031D02*
X12728753Y-15057603D01*
X12728753Y-15057603D02*
X12719229Y-15095698D01*
X12719229Y-15095698D02*
X12719229Y-15171888D01*
X12719229Y-15171888D02*
X12728753Y-15190936D01*
X12728753Y-15190936D02*
X12738277Y-15200460D01*
X12738277Y-15200460D02*
X12757325Y-15209984D01*
X12757325Y-15209984D02*
X12795420Y-15209984D01*
X12795420Y-15209984D02*
X12814468Y-15200460D01*
X12814468Y-15200460D02*
X12823991Y-15190936D01*
X12823991Y-15190936D02*
X12833515Y-15171888D01*
X12833515Y-15171888D02*
X12833515Y-15124269D01*
X12833515Y-15124269D02*
X12823991Y-15105222D01*
X12823991Y-15105222D02*
X12814468Y-15095698D01*
X12814468Y-15095698D02*
X12795420Y-15086174D01*
X12795420Y-15086174D02*
X12757325Y-15086174D01*
X12757325Y-15086174D02*
X12738277Y-15095698D01*
X12738277Y-15095698D02*
X12728753Y-15105222D01*
X12728753Y-15105222D02*
X12719229Y-15124269D01*
X13071610Y-15209984D02*
X13071610Y-15009984D01*
X13157325Y-15209984D02*
X13157325Y-15105222D01*
X13157325Y-15105222D02*
X13147801Y-15086174D01*
X13147801Y-15086174D02*
X13128753Y-15076650D01*
X13128753Y-15076650D02*
X13100182Y-15076650D01*
X13100182Y-15076650D02*
X13081134Y-15086174D01*
X13081134Y-15086174D02*
X13071610Y-15095698D01*
X13281134Y-15209984D02*
X13262087Y-15200460D01*
X13262087Y-15200460D02*
X13252563Y-15190936D01*
X13252563Y-15190936D02*
X13243039Y-15171888D01*
X13243039Y-15171888D02*
X13243039Y-15114746D01*
X13243039Y-15114746D02*
X13252563Y-15095698D01*
X13252563Y-15095698D02*
X13262087Y-15086174D01*
X13262087Y-15086174D02*
X13281134Y-15076650D01*
X13281134Y-15076650D02*
X13309706Y-15076650D01*
X13309706Y-15076650D02*
X13328753Y-15086174D01*
X13328753Y-15086174D02*
X13338277Y-15095698D01*
X13338277Y-15095698D02*
X13347801Y-15114746D01*
X13347801Y-15114746D02*
X13347801Y-15171888D01*
X13347801Y-15171888D02*
X13338277Y-15190936D01*
X13338277Y-15190936D02*
X13328753Y-15200460D01*
X13328753Y-15200460D02*
X13309706Y-15209984D01*
X13309706Y-15209984D02*
X13281134Y-15209984D01*
X13462087Y-15209984D02*
X13443039Y-15200460D01*
X13443039Y-15200460D02*
X13433515Y-15181412D01*
X13433515Y-15181412D02*
X13433515Y-15009984D01*
X13614468Y-15200460D02*
X13595420Y-15209984D01*
X13595420Y-15209984D02*
X13557325Y-15209984D01*
X13557325Y-15209984D02*
X13538277Y-15200460D01*
X13538277Y-15200460D02*
X13528753Y-15181412D01*
X13528753Y-15181412D02*
X13528753Y-15105222D01*
X13528753Y-15105222D02*
X13538277Y-15086174D01*
X13538277Y-15086174D02*
X13557325Y-15076650D01*
X13557325Y-15076650D02*
X13595420Y-15076650D01*
X13595420Y-15076650D02*
X13614468Y-15086174D01*
X13614468Y-15086174D02*
X13623991Y-15105222D01*
X13623991Y-15105222D02*
X13623991Y-15124269D01*
X13623991Y-15124269D02*
X13528753Y-15143317D01*
X13700182Y-15200460D02*
X13719230Y-15209984D01*
X13719230Y-15209984D02*
X13757325Y-15209984D01*
X13757325Y-15209984D02*
X13776372Y-15200460D01*
X13776372Y-15200460D02*
X13785896Y-15181412D01*
X13785896Y-15181412D02*
X13785896Y-15171888D01*
X13785896Y-15171888D02*
X13776372Y-15152841D01*
X13776372Y-15152841D02*
X13757325Y-15143317D01*
X13757325Y-15143317D02*
X13728753Y-15143317D01*
X13728753Y-15143317D02*
X13709706Y-15133793D01*
X13709706Y-15133793D02*
X13700182Y-15114746D01*
X13700182Y-15114746D02*
X13700182Y-15105222D01*
X13700182Y-15105222D02*
X13709706Y-15086174D01*
X13709706Y-15086174D02*
X13728753Y-15076650D01*
X13728753Y-15076650D02*
X13757325Y-15076650D01*
X13757325Y-15076650D02*
X13776372Y-15086174D01*
X13852563Y-15286174D02*
X13862087Y-15276650D01*
X13862087Y-15276650D02*
X13881134Y-15248079D01*
X13881134Y-15248079D02*
X13890658Y-15229031D01*
X13890658Y-15229031D02*
X13900182Y-15200460D01*
X13900182Y-15200460D02*
X13909706Y-15152841D01*
X13909706Y-15152841D02*
X13909706Y-15114746D01*
X13909706Y-15114746D02*
X13900182Y-15067127D01*
X13900182Y-15067127D02*
X13890658Y-15038555D01*
X13890658Y-15038555D02*
X13881134Y-15019508D01*
X13881134Y-15019508D02*
X13862087Y-14990936D01*
X13862087Y-14990936D02*
X13852563Y-14981412D01*
M02*
