%TF.GenerationSoftware,KiCad,Pcbnew,8.0.4*%
%TF.CreationDate,2024-11-30T14:16:15+01:00*%
%TF.ProjectId,Sensor_PCB,53656e73-6f72-45f5-9043-422e6b696361,rev?*%
%TF.SameCoordinates,Original*%
%TF.FileFunction,Legend,Top*%
%TF.FilePolarity,Positive*%
%FSLAX46Y46*%
G04 Gerber Fmt 4.6, Leading zero omitted, Abs format (unit mm)*
G04 Created by KiCad (PCBNEW 8.0.4) date 2024-11-30 14:16:15*
%MOMM*%
%LPD*%
G01*
G04 APERTURE LIST*
%ADD10C,0.160000*%
%ADD11C,0.200000*%
%ADD12C,0.100000*%
%ADD13C,0.120000*%
G04 APERTURE END LIST*
D10*
X66023810Y-65454299D02*
X66023810Y-64454299D01*
X67071428Y-65359060D02*
X67023809Y-65406680D01*
X67023809Y-65406680D02*
X66880952Y-65454299D01*
X66880952Y-65454299D02*
X66785714Y-65454299D01*
X66785714Y-65454299D02*
X66642857Y-65406680D01*
X66642857Y-65406680D02*
X66547619Y-65311441D01*
X66547619Y-65311441D02*
X66500000Y-65216203D01*
X66500000Y-65216203D02*
X66452381Y-65025727D01*
X66452381Y-65025727D02*
X66452381Y-64882870D01*
X66452381Y-64882870D02*
X66500000Y-64692394D01*
X66500000Y-64692394D02*
X66547619Y-64597156D01*
X66547619Y-64597156D02*
X66642857Y-64501918D01*
X66642857Y-64501918D02*
X66785714Y-64454299D01*
X66785714Y-64454299D02*
X66880952Y-64454299D01*
X66880952Y-64454299D02*
X67023809Y-64501918D01*
X67023809Y-64501918D02*
X67071428Y-64549537D01*
X68023809Y-65454299D02*
X67452381Y-65454299D01*
X67738095Y-65454299D02*
X67738095Y-64454299D01*
X67738095Y-64454299D02*
X67642857Y-64597156D01*
X67642857Y-64597156D02*
X67547619Y-64692394D01*
X67547619Y-64692394D02*
X67452381Y-64740013D01*
X109476189Y-49645700D02*
X109476189Y-50645700D01*
X108428571Y-49740939D02*
X108476190Y-49693320D01*
X108476190Y-49693320D02*
X108619047Y-49645700D01*
X108619047Y-49645700D02*
X108714285Y-49645700D01*
X108714285Y-49645700D02*
X108857142Y-49693320D01*
X108857142Y-49693320D02*
X108952380Y-49788558D01*
X108952380Y-49788558D02*
X108999999Y-49883796D01*
X108999999Y-49883796D02*
X109047618Y-50074272D01*
X109047618Y-50074272D02*
X109047618Y-50217129D01*
X109047618Y-50217129D02*
X108999999Y-50407605D01*
X108999999Y-50407605D02*
X108952380Y-50502843D01*
X108952380Y-50502843D02*
X108857142Y-50598081D01*
X108857142Y-50598081D02*
X108714285Y-50645700D01*
X108714285Y-50645700D02*
X108619047Y-50645700D01*
X108619047Y-50645700D02*
X108476190Y-50598081D01*
X108476190Y-50598081D02*
X108428571Y-50550462D01*
X107952380Y-49645700D02*
X107761904Y-49645700D01*
X107761904Y-49645700D02*
X107666666Y-49693320D01*
X107666666Y-49693320D02*
X107619047Y-49740939D01*
X107619047Y-49740939D02*
X107523809Y-49883796D01*
X107523809Y-49883796D02*
X107476190Y-50074272D01*
X107476190Y-50074272D02*
X107476190Y-50455224D01*
X107476190Y-50455224D02*
X107523809Y-50550462D01*
X107523809Y-50550462D02*
X107571428Y-50598081D01*
X107571428Y-50598081D02*
X107666666Y-50645700D01*
X107666666Y-50645700D02*
X107857142Y-50645700D01*
X107857142Y-50645700D02*
X107952380Y-50598081D01*
X107952380Y-50598081D02*
X107999999Y-50550462D01*
X107999999Y-50550462D02*
X108047618Y-50455224D01*
X108047618Y-50455224D02*
X108047618Y-50217129D01*
X108047618Y-50217129D02*
X107999999Y-50121891D01*
X107999999Y-50121891D02*
X107952380Y-50074272D01*
X107952380Y-50074272D02*
X107857142Y-50026653D01*
X107857142Y-50026653D02*
X107666666Y-50026653D01*
X107666666Y-50026653D02*
X107571428Y-50074272D01*
X107571428Y-50074272D02*
X107523809Y-50121891D01*
X107523809Y-50121891D02*
X107476190Y-50217129D01*
X99976189Y-49545700D02*
X99976189Y-50545700D01*
X98928571Y-49640939D02*
X98976190Y-49593320D01*
X98976190Y-49593320D02*
X99119047Y-49545700D01*
X99119047Y-49545700D02*
X99214285Y-49545700D01*
X99214285Y-49545700D02*
X99357142Y-49593320D01*
X99357142Y-49593320D02*
X99452380Y-49688558D01*
X99452380Y-49688558D02*
X99499999Y-49783796D01*
X99499999Y-49783796D02*
X99547618Y-49974272D01*
X99547618Y-49974272D02*
X99547618Y-50117129D01*
X99547618Y-50117129D02*
X99499999Y-50307605D01*
X99499999Y-50307605D02*
X99452380Y-50402843D01*
X99452380Y-50402843D02*
X99357142Y-50498081D01*
X99357142Y-50498081D02*
X99214285Y-50545700D01*
X99214285Y-50545700D02*
X99119047Y-50545700D01*
X99119047Y-50545700D02*
X98976190Y-50498081D01*
X98976190Y-50498081D02*
X98928571Y-50450462D01*
X98595237Y-50545700D02*
X97976190Y-50545700D01*
X97976190Y-50545700D02*
X98309523Y-50164748D01*
X98309523Y-50164748D02*
X98166666Y-50164748D01*
X98166666Y-50164748D02*
X98071428Y-50117129D01*
X98071428Y-50117129D02*
X98023809Y-50069510D01*
X98023809Y-50069510D02*
X97976190Y-49974272D01*
X97976190Y-49974272D02*
X97976190Y-49736177D01*
X97976190Y-49736177D02*
X98023809Y-49640939D01*
X98023809Y-49640939D02*
X98071428Y-49593320D01*
X98071428Y-49593320D02*
X98166666Y-49545700D01*
X98166666Y-49545700D02*
X98452380Y-49545700D01*
X98452380Y-49545700D02*
X98547618Y-49593320D01*
X98547618Y-49593320D02*
X98595237Y-49640939D01*
X72523810Y-58954299D02*
X72523810Y-57954299D01*
X73571428Y-58859060D02*
X73523809Y-58906680D01*
X73523809Y-58906680D02*
X73380952Y-58954299D01*
X73380952Y-58954299D02*
X73285714Y-58954299D01*
X73285714Y-58954299D02*
X73142857Y-58906680D01*
X73142857Y-58906680D02*
X73047619Y-58811441D01*
X73047619Y-58811441D02*
X73000000Y-58716203D01*
X73000000Y-58716203D02*
X72952381Y-58525727D01*
X72952381Y-58525727D02*
X72952381Y-58382870D01*
X72952381Y-58382870D02*
X73000000Y-58192394D01*
X73000000Y-58192394D02*
X73047619Y-58097156D01*
X73047619Y-58097156D02*
X73142857Y-58001918D01*
X73142857Y-58001918D02*
X73285714Y-57954299D01*
X73285714Y-57954299D02*
X73380952Y-57954299D01*
X73380952Y-57954299D02*
X73523809Y-58001918D01*
X73523809Y-58001918D02*
X73571428Y-58049537D01*
X73904762Y-57954299D02*
X74571428Y-57954299D01*
X74571428Y-57954299D02*
X74142857Y-58954299D01*
X128952380Y-49795700D02*
X128952380Y-50795700D01*
X127904762Y-49890939D02*
X127952381Y-49843320D01*
X127952381Y-49843320D02*
X128095238Y-49795700D01*
X128095238Y-49795700D02*
X128190476Y-49795700D01*
X128190476Y-49795700D02*
X128333333Y-49843320D01*
X128333333Y-49843320D02*
X128428571Y-49938558D01*
X128428571Y-49938558D02*
X128476190Y-50033796D01*
X128476190Y-50033796D02*
X128523809Y-50224272D01*
X128523809Y-50224272D02*
X128523809Y-50367129D01*
X128523809Y-50367129D02*
X128476190Y-50557605D01*
X128476190Y-50557605D02*
X128428571Y-50652843D01*
X128428571Y-50652843D02*
X128333333Y-50748081D01*
X128333333Y-50748081D02*
X128190476Y-50795700D01*
X128190476Y-50795700D02*
X128095238Y-50795700D01*
X128095238Y-50795700D02*
X127952381Y-50748081D01*
X127952381Y-50748081D02*
X127904762Y-50700462D01*
X126952381Y-49795700D02*
X127523809Y-49795700D01*
X127238095Y-49795700D02*
X127238095Y-50795700D01*
X127238095Y-50795700D02*
X127333333Y-50652843D01*
X127333333Y-50652843D02*
X127428571Y-50557605D01*
X127428571Y-50557605D02*
X127523809Y-50509986D01*
X126333333Y-50795700D02*
X126238095Y-50795700D01*
X126238095Y-50795700D02*
X126142857Y-50748081D01*
X126142857Y-50748081D02*
X126095238Y-50700462D01*
X126095238Y-50700462D02*
X126047619Y-50605224D01*
X126047619Y-50605224D02*
X126000000Y-50414748D01*
X126000000Y-50414748D02*
X126000000Y-50176653D01*
X126000000Y-50176653D02*
X126047619Y-49986177D01*
X126047619Y-49986177D02*
X126095238Y-49890939D01*
X126095238Y-49890939D02*
X126142857Y-49843320D01*
X126142857Y-49843320D02*
X126238095Y-49795700D01*
X126238095Y-49795700D02*
X126333333Y-49795700D01*
X126333333Y-49795700D02*
X126428571Y-49843320D01*
X126428571Y-49843320D02*
X126476190Y-49890939D01*
X126476190Y-49890939D02*
X126523809Y-49986177D01*
X126523809Y-49986177D02*
X126571428Y-50176653D01*
X126571428Y-50176653D02*
X126571428Y-50414748D01*
X126571428Y-50414748D02*
X126523809Y-50605224D01*
X126523809Y-50605224D02*
X126476190Y-50700462D01*
X126476190Y-50700462D02*
X126428571Y-50748081D01*
X126428571Y-50748081D02*
X126333333Y-50795700D01*
X80976189Y-51545700D02*
X80976189Y-52545700D01*
X79928571Y-51640939D02*
X79976190Y-51593320D01*
X79976190Y-51593320D02*
X80119047Y-51545700D01*
X80119047Y-51545700D02*
X80214285Y-51545700D01*
X80214285Y-51545700D02*
X80357142Y-51593320D01*
X80357142Y-51593320D02*
X80452380Y-51688558D01*
X80452380Y-51688558D02*
X80499999Y-51783796D01*
X80499999Y-51783796D02*
X80547618Y-51974272D01*
X80547618Y-51974272D02*
X80547618Y-52117129D01*
X80547618Y-52117129D02*
X80499999Y-52307605D01*
X80499999Y-52307605D02*
X80452380Y-52402843D01*
X80452380Y-52402843D02*
X80357142Y-52498081D01*
X80357142Y-52498081D02*
X80214285Y-52545700D01*
X80214285Y-52545700D02*
X80119047Y-52545700D01*
X80119047Y-52545700D02*
X79976190Y-52498081D01*
X79976190Y-52498081D02*
X79928571Y-52450462D01*
X79547618Y-52450462D02*
X79499999Y-52498081D01*
X79499999Y-52498081D02*
X79404761Y-52545700D01*
X79404761Y-52545700D02*
X79166666Y-52545700D01*
X79166666Y-52545700D02*
X79071428Y-52498081D01*
X79071428Y-52498081D02*
X79023809Y-52450462D01*
X79023809Y-52450462D02*
X78976190Y-52355224D01*
X78976190Y-52355224D02*
X78976190Y-52259986D01*
X78976190Y-52259986D02*
X79023809Y-52117129D01*
X79023809Y-52117129D02*
X79595237Y-51545700D01*
X79595237Y-51545700D02*
X78976190Y-51545700D01*
X153976189Y-58045700D02*
X153976189Y-59045700D01*
X152928571Y-58140939D02*
X152976190Y-58093320D01*
X152976190Y-58093320D02*
X153119047Y-58045700D01*
X153119047Y-58045700D02*
X153214285Y-58045700D01*
X153214285Y-58045700D02*
X153357142Y-58093320D01*
X153357142Y-58093320D02*
X153452380Y-58188558D01*
X153452380Y-58188558D02*
X153499999Y-58283796D01*
X153499999Y-58283796D02*
X153547618Y-58474272D01*
X153547618Y-58474272D02*
X153547618Y-58617129D01*
X153547618Y-58617129D02*
X153499999Y-58807605D01*
X153499999Y-58807605D02*
X153452380Y-58902843D01*
X153452380Y-58902843D02*
X153357142Y-58998081D01*
X153357142Y-58998081D02*
X153214285Y-59045700D01*
X153214285Y-59045700D02*
X153119047Y-59045700D01*
X153119047Y-59045700D02*
X152976190Y-58998081D01*
X152976190Y-58998081D02*
X152928571Y-58950462D01*
X152071428Y-59045700D02*
X152261904Y-59045700D01*
X152261904Y-59045700D02*
X152357142Y-58998081D01*
X152357142Y-58998081D02*
X152404761Y-58950462D01*
X152404761Y-58950462D02*
X152499999Y-58807605D01*
X152499999Y-58807605D02*
X152547618Y-58617129D01*
X152547618Y-58617129D02*
X152547618Y-58236177D01*
X152547618Y-58236177D02*
X152499999Y-58140939D01*
X152499999Y-58140939D02*
X152452380Y-58093320D01*
X152452380Y-58093320D02*
X152357142Y-58045700D01*
X152357142Y-58045700D02*
X152166666Y-58045700D01*
X152166666Y-58045700D02*
X152071428Y-58093320D01*
X152071428Y-58093320D02*
X152023809Y-58140939D01*
X152023809Y-58140939D02*
X151976190Y-58236177D01*
X151976190Y-58236177D02*
X151976190Y-58474272D01*
X151976190Y-58474272D02*
X152023809Y-58569510D01*
X152023809Y-58569510D02*
X152071428Y-58617129D01*
X152071428Y-58617129D02*
X152166666Y-58664748D01*
X152166666Y-58664748D02*
X152357142Y-58664748D01*
X152357142Y-58664748D02*
X152452380Y-58617129D01*
X152452380Y-58617129D02*
X152499999Y-58569510D01*
X152499999Y-58569510D02*
X152547618Y-58474272D01*
X147952380Y-51545700D02*
X147952380Y-52545700D01*
X146904762Y-51640939D02*
X146952381Y-51593320D01*
X146952381Y-51593320D02*
X147095238Y-51545700D01*
X147095238Y-51545700D02*
X147190476Y-51545700D01*
X147190476Y-51545700D02*
X147333333Y-51593320D01*
X147333333Y-51593320D02*
X147428571Y-51688558D01*
X147428571Y-51688558D02*
X147476190Y-51783796D01*
X147476190Y-51783796D02*
X147523809Y-51974272D01*
X147523809Y-51974272D02*
X147523809Y-52117129D01*
X147523809Y-52117129D02*
X147476190Y-52307605D01*
X147476190Y-52307605D02*
X147428571Y-52402843D01*
X147428571Y-52402843D02*
X147333333Y-52498081D01*
X147333333Y-52498081D02*
X147190476Y-52545700D01*
X147190476Y-52545700D02*
X147095238Y-52545700D01*
X147095238Y-52545700D02*
X146952381Y-52498081D01*
X146952381Y-52498081D02*
X146904762Y-52450462D01*
X145952381Y-51545700D02*
X146523809Y-51545700D01*
X146238095Y-51545700D02*
X146238095Y-52545700D01*
X146238095Y-52545700D02*
X146333333Y-52402843D01*
X146333333Y-52402843D02*
X146428571Y-52307605D01*
X146428571Y-52307605D02*
X146523809Y-52259986D01*
X145000000Y-51545700D02*
X145571428Y-51545700D01*
X145285714Y-51545700D02*
X145285714Y-52545700D01*
X145285714Y-52545700D02*
X145380952Y-52402843D01*
X145380952Y-52402843D02*
X145476190Y-52307605D01*
X145476190Y-52307605D02*
X145571428Y-52259986D01*
D11*
G36*
X114859810Y-54132023D02*
G01*
X114923989Y-54196202D01*
X114961904Y-54347861D01*
X114961904Y-54656575D01*
X114923988Y-54808235D01*
X114859812Y-54872413D01*
X114800202Y-54902219D01*
X114656940Y-54902219D01*
X114597330Y-54872414D01*
X114533153Y-54808236D01*
X114495238Y-54656575D01*
X114495238Y-54347862D01*
X114533153Y-54196202D01*
X114597332Y-54132023D01*
X114656940Y-54102219D01*
X114800202Y-54102219D01*
X114859810Y-54132023D01*
G37*
G36*
X115907430Y-54132024D02*
G01*
X115932099Y-54156692D01*
X115961904Y-54216302D01*
X115961904Y-54311945D01*
X115932099Y-54371554D01*
X115907430Y-54396222D01*
X115847821Y-54426028D01*
X115590476Y-54426028D01*
X115590476Y-54102219D01*
X115847821Y-54102219D01*
X115907430Y-54132024D01*
G37*
G36*
X116273015Y-55213330D02*
G01*
X110326984Y-55213330D01*
X110326984Y-54192695D01*
X110438095Y-54192695D01*
X110438095Y-54287933D01*
X110440016Y-54307442D01*
X110441391Y-54310762D01*
X110441646Y-54314346D01*
X110448652Y-54332654D01*
X110496271Y-54427892D01*
X110501556Y-54436288D01*
X110502567Y-54438728D01*
X110504820Y-54441474D01*
X110506714Y-54444482D01*
X110508708Y-54446211D01*
X110515003Y-54453882D01*
X110562622Y-54501500D01*
X110570288Y-54507792D01*
X110572021Y-54509790D01*
X110575029Y-54511683D01*
X110577775Y-54513937D01*
X110580215Y-54514947D01*
X110588612Y-54520233D01*
X110683849Y-54567852D01*
X110685277Y-54568398D01*
X110685857Y-54568828D01*
X110694033Y-54571749D01*
X110702158Y-54574858D01*
X110702878Y-54574909D01*
X110704317Y-54575423D01*
X110884142Y-54620379D01*
X110955049Y-54655833D01*
X110979718Y-54680501D01*
X111009523Y-54740111D01*
X111009523Y-54788135D01*
X110979718Y-54847743D01*
X110955049Y-54872413D01*
X110895440Y-54902219D01*
X110697178Y-54902219D01*
X110569718Y-54859732D01*
X110550602Y-54855385D01*
X110511682Y-54858151D01*
X110476783Y-54875601D01*
X110451218Y-54905077D01*
X110438880Y-54942093D01*
X110441646Y-54981013D01*
X110459096Y-55015912D01*
X110488572Y-55041477D01*
X110506472Y-55049468D01*
X110649329Y-55097087D01*
X110659001Y-55099286D01*
X110661443Y-55100298D01*
X110664980Y-55100646D01*
X110668444Y-55101434D01*
X110671078Y-55101246D01*
X110680952Y-55102219D01*
X110919047Y-55102219D01*
X110938556Y-55100298D01*
X110941876Y-55098922D01*
X110945460Y-55098668D01*
X110963768Y-55091662D01*
X111059006Y-55044043D01*
X111067401Y-55038758D01*
X111069843Y-55037747D01*
X111072590Y-55035491D01*
X111075596Y-55033600D01*
X111077326Y-55031605D01*
X111084996Y-55025310D01*
X111132615Y-54977690D01*
X111138907Y-54970023D01*
X111140904Y-54968292D01*
X111142797Y-54965284D01*
X111145052Y-54962537D01*
X111146063Y-54960095D01*
X111151347Y-54951701D01*
X111198966Y-54856464D01*
X111205972Y-54838155D01*
X111206226Y-54834571D01*
X111207602Y-54831251D01*
X111209523Y-54811742D01*
X111209523Y-54716504D01*
X111207602Y-54696995D01*
X111206226Y-54693674D01*
X111205972Y-54690091D01*
X111198966Y-54671782D01*
X111151347Y-54576545D01*
X111146061Y-54568148D01*
X111145051Y-54565708D01*
X111142797Y-54562962D01*
X111140904Y-54559954D01*
X111138906Y-54558221D01*
X111132614Y-54550555D01*
X111084996Y-54502936D01*
X111077325Y-54496641D01*
X111075596Y-54494647D01*
X111072588Y-54492753D01*
X111069842Y-54490500D01*
X111067402Y-54489489D01*
X111059006Y-54484204D01*
X110963768Y-54436585D01*
X110962341Y-54436039D01*
X110961761Y-54435609D01*
X110953584Y-54432687D01*
X110945460Y-54429579D01*
X110944737Y-54429527D01*
X110943300Y-54429014D01*
X110763475Y-54384057D01*
X110692568Y-54348604D01*
X110667900Y-54323935D01*
X110638095Y-54264325D01*
X110638095Y-54216302D01*
X110667900Y-54156692D01*
X110692568Y-54132023D01*
X110752178Y-54102219D01*
X110950439Y-54102219D01*
X111077900Y-54144706D01*
X111097015Y-54149053D01*
X111135935Y-54146287D01*
X111170834Y-54128837D01*
X111196399Y-54099361D01*
X111208738Y-54062345D01*
X111205971Y-54023425D01*
X111195368Y-54002219D01*
X111438095Y-54002219D01*
X111438095Y-55002219D01*
X111440016Y-55021728D01*
X111454948Y-55057776D01*
X111482538Y-55085366D01*
X111518586Y-55100298D01*
X111538095Y-55102219D01*
X112014285Y-55102219D01*
X112033794Y-55100298D01*
X112069842Y-55085366D01*
X112097432Y-55057776D01*
X112112364Y-55021728D01*
X112112364Y-54982710D01*
X112097432Y-54946662D01*
X112069842Y-54919072D01*
X112033794Y-54904140D01*
X112014285Y-54902219D01*
X111638095Y-54902219D01*
X111638095Y-54578409D01*
X111871428Y-54578409D01*
X111890937Y-54576488D01*
X111926985Y-54561556D01*
X111954575Y-54533966D01*
X111969507Y-54497918D01*
X111969507Y-54458900D01*
X111954575Y-54422852D01*
X111926985Y-54395262D01*
X111890937Y-54380330D01*
X111871428Y-54378409D01*
X111638095Y-54378409D01*
X111638095Y-54102219D01*
X112014285Y-54102219D01*
X112033794Y-54100298D01*
X112069842Y-54085366D01*
X112097432Y-54057776D01*
X112112364Y-54021728D01*
X112112364Y-54002219D01*
X112342857Y-54002219D01*
X112342857Y-55002219D01*
X112344778Y-55021728D01*
X112359710Y-55057776D01*
X112387300Y-55085366D01*
X112423348Y-55100298D01*
X112462366Y-55100298D01*
X112498414Y-55085366D01*
X112526004Y-55057776D01*
X112540936Y-55021728D01*
X112542857Y-55002219D01*
X112542857Y-54378775D01*
X112927461Y-55051833D01*
X112930379Y-55055943D01*
X112931138Y-55057776D01*
X112933004Y-55059642D01*
X112938808Y-55067818D01*
X112949324Y-55075962D01*
X112958728Y-55085366D01*
X112964615Y-55087804D01*
X112969657Y-55091709D01*
X112982489Y-55095208D01*
X112994776Y-55100298D01*
X113001152Y-55100298D01*
X113007301Y-55101975D01*
X113020494Y-55100298D01*
X113033794Y-55100298D01*
X113039682Y-55097858D01*
X113046007Y-55097055D01*
X113057556Y-55090454D01*
X113069842Y-55085366D01*
X113074349Y-55080858D01*
X113079884Y-55077696D01*
X113088028Y-55067179D01*
X113097432Y-55057776D01*
X113099870Y-55051888D01*
X113103775Y-55046847D01*
X113107274Y-55034014D01*
X113112364Y-55021728D01*
X113113346Y-55011750D01*
X113114041Y-55009204D01*
X113113790Y-55007236D01*
X113114285Y-55002219D01*
X113114285Y-54192695D01*
X113342857Y-54192695D01*
X113342857Y-54287933D01*
X113344778Y-54307442D01*
X113346153Y-54310762D01*
X113346408Y-54314346D01*
X113353414Y-54332654D01*
X113401033Y-54427892D01*
X113406318Y-54436288D01*
X113407329Y-54438728D01*
X113409582Y-54441474D01*
X113411476Y-54444482D01*
X113413470Y-54446211D01*
X113419765Y-54453882D01*
X113467384Y-54501500D01*
X113475050Y-54507792D01*
X113476783Y-54509790D01*
X113479791Y-54511683D01*
X113482537Y-54513937D01*
X113484977Y-54514947D01*
X113493374Y-54520233D01*
X113588611Y-54567852D01*
X113590039Y-54568398D01*
X113590619Y-54568828D01*
X113598795Y-54571749D01*
X113606920Y-54574858D01*
X113607640Y-54574909D01*
X113609079Y-54575423D01*
X113788904Y-54620379D01*
X113859811Y-54655833D01*
X113884480Y-54680501D01*
X113914285Y-54740111D01*
X113914285Y-54788135D01*
X113884480Y-54847743D01*
X113859811Y-54872413D01*
X113800202Y-54902219D01*
X113601940Y-54902219D01*
X113474480Y-54859732D01*
X113455364Y-54855385D01*
X113416444Y-54858151D01*
X113381545Y-54875601D01*
X113355980Y-54905077D01*
X113343642Y-54942093D01*
X113346408Y-54981013D01*
X113363858Y-55015912D01*
X113393334Y-55041477D01*
X113411234Y-55049468D01*
X113554091Y-55097087D01*
X113563763Y-55099286D01*
X113566205Y-55100298D01*
X113569742Y-55100646D01*
X113573206Y-55101434D01*
X113575840Y-55101246D01*
X113585714Y-55102219D01*
X113823809Y-55102219D01*
X113843318Y-55100298D01*
X113846638Y-55098922D01*
X113850222Y-55098668D01*
X113868530Y-55091662D01*
X113963768Y-55044043D01*
X113972163Y-55038758D01*
X113974605Y-55037747D01*
X113977352Y-55035491D01*
X113980358Y-55033600D01*
X113982088Y-55031605D01*
X113989758Y-55025310D01*
X114037377Y-54977690D01*
X114043669Y-54970023D01*
X114045666Y-54968292D01*
X114047559Y-54965284D01*
X114049814Y-54962537D01*
X114050825Y-54960095D01*
X114056109Y-54951701D01*
X114103728Y-54856464D01*
X114110734Y-54838155D01*
X114110988Y-54834571D01*
X114112364Y-54831251D01*
X114114285Y-54811742D01*
X114114285Y-54716504D01*
X114112364Y-54696995D01*
X114110988Y-54693674D01*
X114110734Y-54690091D01*
X114103728Y-54671782D01*
X114056109Y-54576545D01*
X114050823Y-54568148D01*
X114049813Y-54565708D01*
X114047559Y-54562962D01*
X114045666Y-54559954D01*
X114043668Y-54558221D01*
X114037376Y-54550555D01*
X113989758Y-54502936D01*
X113982087Y-54496641D01*
X113980358Y-54494647D01*
X113977350Y-54492753D01*
X113974604Y-54490500D01*
X113972164Y-54489489D01*
X113963768Y-54484204D01*
X113868530Y-54436585D01*
X113867103Y-54436039D01*
X113866523Y-54435609D01*
X113858346Y-54432687D01*
X113850222Y-54429579D01*
X113849499Y-54429527D01*
X113848062Y-54429014D01*
X113668237Y-54384057D01*
X113597330Y-54348604D01*
X113584279Y-54335552D01*
X114295238Y-54335552D01*
X114295238Y-54668885D01*
X114295573Y-54672287D01*
X114295356Y-54673746D01*
X114296435Y-54681043D01*
X114297159Y-54688394D01*
X114297723Y-54689757D01*
X114298224Y-54693139D01*
X114345843Y-54883614D01*
X114352438Y-54902075D01*
X114356863Y-54908047D01*
X114359709Y-54914918D01*
X114372146Y-54930071D01*
X114467384Y-55025311D01*
X114475052Y-55031604D01*
X114476783Y-55033600D01*
X114479790Y-55035493D01*
X114482537Y-55037747D01*
X114484977Y-55038757D01*
X114493374Y-55044043D01*
X114588611Y-55091662D01*
X114606920Y-55098668D01*
X114610503Y-55098922D01*
X114613824Y-55100298D01*
X114633333Y-55102219D01*
X114823809Y-55102219D01*
X114843318Y-55100298D01*
X114846638Y-55098922D01*
X114850222Y-55098668D01*
X114868530Y-55091662D01*
X114963768Y-55044043D01*
X114972163Y-55038758D01*
X114974605Y-55037747D01*
X114977352Y-55035491D01*
X114980358Y-55033600D01*
X114982088Y-55031605D01*
X114989758Y-55025310D01*
X115084996Y-54930071D01*
X115097433Y-54914918D01*
X115100278Y-54908047D01*
X115104704Y-54902075D01*
X115111299Y-54883615D01*
X115158918Y-54693139D01*
X115159418Y-54689757D01*
X115159983Y-54688394D01*
X115160706Y-54681043D01*
X115161786Y-54673746D01*
X115161568Y-54672287D01*
X115161904Y-54668885D01*
X115161904Y-54335552D01*
X115161568Y-54332149D01*
X115161786Y-54330691D01*
X115160706Y-54323393D01*
X115159983Y-54316043D01*
X115159418Y-54314679D01*
X115158918Y-54311298D01*
X115111299Y-54120822D01*
X115104704Y-54102362D01*
X115100277Y-54096387D01*
X115097432Y-54089519D01*
X115084996Y-54074365D01*
X115012850Y-54002219D01*
X115390476Y-54002219D01*
X115390476Y-55002219D01*
X115392397Y-55021728D01*
X115407329Y-55057776D01*
X115434919Y-55085366D01*
X115470967Y-55100298D01*
X115509985Y-55100298D01*
X115546033Y-55085366D01*
X115573623Y-55057776D01*
X115588555Y-55021728D01*
X115590476Y-55002219D01*
X115590476Y-54626028D01*
X115676506Y-54626028D01*
X115979981Y-55059565D01*
X115992742Y-55074446D01*
X116025647Y-55095415D01*
X116064072Y-55102196D01*
X116102166Y-55093756D01*
X116134131Y-55071381D01*
X116155100Y-55038476D01*
X116161881Y-55000052D01*
X116153441Y-54961957D01*
X116143827Y-54944873D01*
X115913859Y-54616347D01*
X115916149Y-54615471D01*
X116011387Y-54567852D01*
X116019783Y-54562566D01*
X116022223Y-54561556D01*
X116024969Y-54559302D01*
X116027977Y-54557409D01*
X116029706Y-54555414D01*
X116037377Y-54549120D01*
X116084995Y-54501501D01*
X116091287Y-54493834D01*
X116093285Y-54492102D01*
X116095178Y-54489093D01*
X116097432Y-54486348D01*
X116098442Y-54483907D01*
X116103728Y-54475511D01*
X116151347Y-54380274D01*
X116158353Y-54361965D01*
X116158607Y-54358381D01*
X116159983Y-54355061D01*
X116161904Y-54335552D01*
X116161904Y-54192695D01*
X116159983Y-54173186D01*
X116158607Y-54169865D01*
X116158353Y-54166282D01*
X116151347Y-54147973D01*
X116103728Y-54052736D01*
X116098442Y-54044339D01*
X116097432Y-54041899D01*
X116095178Y-54039153D01*
X116093285Y-54036145D01*
X116091287Y-54034412D01*
X116084995Y-54026746D01*
X116037377Y-53979127D01*
X116029706Y-53972832D01*
X116027977Y-53970838D01*
X116024969Y-53968944D01*
X116022223Y-53966691D01*
X116019783Y-53965680D01*
X116011387Y-53960395D01*
X115916149Y-53912776D01*
X115897841Y-53905770D01*
X115894257Y-53905515D01*
X115890937Y-53904140D01*
X115871428Y-53902219D01*
X115490476Y-53902219D01*
X115470967Y-53904140D01*
X115434919Y-53919072D01*
X115407329Y-53946662D01*
X115392397Y-53982710D01*
X115390476Y-54002219D01*
X115012850Y-54002219D01*
X114989758Y-53979127D01*
X114982087Y-53972832D01*
X114980358Y-53970838D01*
X114977350Y-53968944D01*
X114974604Y-53966691D01*
X114972164Y-53965680D01*
X114963768Y-53960395D01*
X114868530Y-53912776D01*
X114850222Y-53905770D01*
X114846638Y-53905515D01*
X114843318Y-53904140D01*
X114823809Y-53902219D01*
X114633333Y-53902219D01*
X114613824Y-53904140D01*
X114610503Y-53905515D01*
X114606920Y-53905770D01*
X114588611Y-53912776D01*
X114493374Y-53960395D01*
X114484975Y-53965681D01*
X114482538Y-53966691D01*
X114479794Y-53968942D01*
X114476783Y-53970838D01*
X114475050Y-53972835D01*
X114467384Y-53979127D01*
X114372146Y-54074365D01*
X114359710Y-54089519D01*
X114356864Y-54096387D01*
X114352438Y-54102362D01*
X114345843Y-54120823D01*
X114298224Y-54311298D01*
X114297723Y-54314679D01*
X114297159Y-54316043D01*
X114296435Y-54323393D01*
X114295356Y-54330691D01*
X114295573Y-54332149D01*
X114295238Y-54335552D01*
X113584279Y-54335552D01*
X113572662Y-54323935D01*
X113542857Y-54264325D01*
X113542857Y-54216302D01*
X113572662Y-54156692D01*
X113597330Y-54132023D01*
X113656940Y-54102219D01*
X113855201Y-54102219D01*
X113982662Y-54144706D01*
X114001777Y-54149053D01*
X114040697Y-54146287D01*
X114075596Y-54128837D01*
X114101161Y-54099361D01*
X114113500Y-54062345D01*
X114110733Y-54023425D01*
X114093284Y-53988526D01*
X114063808Y-53962961D01*
X114045907Y-53954970D01*
X113903051Y-53907351D01*
X113893379Y-53905151D01*
X113890937Y-53904140D01*
X113887398Y-53903791D01*
X113883935Y-53903004D01*
X113881301Y-53903191D01*
X113871428Y-53902219D01*
X113633333Y-53902219D01*
X113613824Y-53904140D01*
X113610503Y-53905515D01*
X113606920Y-53905770D01*
X113588611Y-53912776D01*
X113493374Y-53960395D01*
X113484977Y-53965680D01*
X113482537Y-53966691D01*
X113479791Y-53968944D01*
X113476783Y-53970838D01*
X113475050Y-53972835D01*
X113467384Y-53979128D01*
X113419765Y-54026746D01*
X113413470Y-54034416D01*
X113411476Y-54036146D01*
X113409582Y-54039153D01*
X113407329Y-54041900D01*
X113406318Y-54044339D01*
X113401033Y-54052736D01*
X113353414Y-54147974D01*
X113346408Y-54166282D01*
X113346153Y-54169865D01*
X113344778Y-54173186D01*
X113342857Y-54192695D01*
X113114285Y-54192695D01*
X113114285Y-54002219D01*
X113112364Y-53982710D01*
X113097432Y-53946662D01*
X113069842Y-53919072D01*
X113033794Y-53904140D01*
X112994776Y-53904140D01*
X112958728Y-53919072D01*
X112931138Y-53946662D01*
X112916206Y-53982710D01*
X112914285Y-54002219D01*
X112914285Y-54625662D01*
X112529681Y-53952605D01*
X112526762Y-53948494D01*
X112526004Y-53946662D01*
X112524137Y-53944795D01*
X112518334Y-53936620D01*
X112507819Y-53928477D01*
X112498414Y-53919072D01*
X112492523Y-53916632D01*
X112487485Y-53912730D01*
X112474656Y-53909231D01*
X112462366Y-53904140D01*
X112455991Y-53904140D01*
X112449842Y-53902463D01*
X112436649Y-53904140D01*
X112423348Y-53904140D01*
X112417459Y-53906579D01*
X112411135Y-53907383D01*
X112399585Y-53913983D01*
X112387300Y-53919072D01*
X112382792Y-53923579D01*
X112377258Y-53926742D01*
X112369115Y-53937256D01*
X112359710Y-53946662D01*
X112357270Y-53952552D01*
X112353368Y-53957591D01*
X112349869Y-53970419D01*
X112344778Y-53982710D01*
X112343795Y-53992687D01*
X112343101Y-53995234D01*
X112343351Y-53997201D01*
X112342857Y-54002219D01*
X112112364Y-54002219D01*
X112112364Y-53982710D01*
X112097432Y-53946662D01*
X112069842Y-53919072D01*
X112033794Y-53904140D01*
X112014285Y-53902219D01*
X111538095Y-53902219D01*
X111518586Y-53904140D01*
X111482538Y-53919072D01*
X111454948Y-53946662D01*
X111440016Y-53982710D01*
X111438095Y-54002219D01*
X111195368Y-54002219D01*
X111188522Y-53988526D01*
X111159046Y-53962961D01*
X111141145Y-53954970D01*
X110998289Y-53907351D01*
X110988617Y-53905151D01*
X110986175Y-53904140D01*
X110982636Y-53903791D01*
X110979173Y-53903004D01*
X110976539Y-53903191D01*
X110966666Y-53902219D01*
X110728571Y-53902219D01*
X110709062Y-53904140D01*
X110705741Y-53905515D01*
X110702158Y-53905770D01*
X110683849Y-53912776D01*
X110588612Y-53960395D01*
X110580215Y-53965680D01*
X110577775Y-53966691D01*
X110575029Y-53968944D01*
X110572021Y-53970838D01*
X110570288Y-53972835D01*
X110562622Y-53979128D01*
X110515003Y-54026746D01*
X110508708Y-54034416D01*
X110506714Y-54036146D01*
X110504820Y-54039153D01*
X110502567Y-54041900D01*
X110501556Y-54044339D01*
X110496271Y-54052736D01*
X110448652Y-54147974D01*
X110441646Y-54166282D01*
X110441391Y-54169865D01*
X110440016Y-54173186D01*
X110438095Y-54192695D01*
X110326984Y-54192695D01*
X110326984Y-53791108D01*
X116273015Y-53791108D01*
X116273015Y-55213330D01*
G37*
D10*
X161052380Y-64545700D02*
X161052380Y-65545700D01*
X160004762Y-64640939D02*
X160052381Y-64593320D01*
X160052381Y-64593320D02*
X160195238Y-64545700D01*
X160195238Y-64545700D02*
X160290476Y-64545700D01*
X160290476Y-64545700D02*
X160433333Y-64593320D01*
X160433333Y-64593320D02*
X160528571Y-64688558D01*
X160528571Y-64688558D02*
X160576190Y-64783796D01*
X160576190Y-64783796D02*
X160623809Y-64974272D01*
X160623809Y-64974272D02*
X160623809Y-65117129D01*
X160623809Y-65117129D02*
X160576190Y-65307605D01*
X160576190Y-65307605D02*
X160528571Y-65402843D01*
X160528571Y-65402843D02*
X160433333Y-65498081D01*
X160433333Y-65498081D02*
X160290476Y-65545700D01*
X160290476Y-65545700D02*
X160195238Y-65545700D01*
X160195238Y-65545700D02*
X160052381Y-65498081D01*
X160052381Y-65498081D02*
X160004762Y-65450462D01*
X159052381Y-64545700D02*
X159623809Y-64545700D01*
X159338095Y-64545700D02*
X159338095Y-65545700D01*
X159338095Y-65545700D02*
X159433333Y-65402843D01*
X159433333Y-65402843D02*
X159528571Y-65307605D01*
X159528571Y-65307605D02*
X159623809Y-65259986D01*
X158671428Y-65450462D02*
X158623809Y-65498081D01*
X158623809Y-65498081D02*
X158528571Y-65545700D01*
X158528571Y-65545700D02*
X158290476Y-65545700D01*
X158290476Y-65545700D02*
X158195238Y-65498081D01*
X158195238Y-65498081D02*
X158147619Y-65450462D01*
X158147619Y-65450462D02*
X158100000Y-65355224D01*
X158100000Y-65355224D02*
X158100000Y-65259986D01*
X158100000Y-65259986D02*
X158147619Y-65117129D01*
X158147619Y-65117129D02*
X158719047Y-64545700D01*
X158719047Y-64545700D02*
X158100000Y-64545700D01*
X118976189Y-49545700D02*
X118976189Y-50545700D01*
X117928571Y-49640939D02*
X117976190Y-49593320D01*
X117976190Y-49593320D02*
X118119047Y-49545700D01*
X118119047Y-49545700D02*
X118214285Y-49545700D01*
X118214285Y-49545700D02*
X118357142Y-49593320D01*
X118357142Y-49593320D02*
X118452380Y-49688558D01*
X118452380Y-49688558D02*
X118499999Y-49783796D01*
X118499999Y-49783796D02*
X118547618Y-49974272D01*
X118547618Y-49974272D02*
X118547618Y-50117129D01*
X118547618Y-50117129D02*
X118499999Y-50307605D01*
X118499999Y-50307605D02*
X118452380Y-50402843D01*
X118452380Y-50402843D02*
X118357142Y-50498081D01*
X118357142Y-50498081D02*
X118214285Y-50545700D01*
X118214285Y-50545700D02*
X118119047Y-50545700D01*
X118119047Y-50545700D02*
X117976190Y-50498081D01*
X117976190Y-50498081D02*
X117928571Y-50450462D01*
X117071428Y-50212367D02*
X117071428Y-49545700D01*
X117309523Y-50593320D02*
X117547618Y-49879034D01*
X117547618Y-49879034D02*
X116928571Y-49879034D01*
X90476189Y-51545700D02*
X90476189Y-52545700D01*
X89428571Y-51640939D02*
X89476190Y-51593320D01*
X89476190Y-51593320D02*
X89619047Y-51545700D01*
X89619047Y-51545700D02*
X89714285Y-51545700D01*
X89714285Y-51545700D02*
X89857142Y-51593320D01*
X89857142Y-51593320D02*
X89952380Y-51688558D01*
X89952380Y-51688558D02*
X89999999Y-51783796D01*
X89999999Y-51783796D02*
X90047618Y-51974272D01*
X90047618Y-51974272D02*
X90047618Y-52117129D01*
X90047618Y-52117129D02*
X89999999Y-52307605D01*
X89999999Y-52307605D02*
X89952380Y-52402843D01*
X89952380Y-52402843D02*
X89857142Y-52498081D01*
X89857142Y-52498081D02*
X89714285Y-52545700D01*
X89714285Y-52545700D02*
X89619047Y-52545700D01*
X89619047Y-52545700D02*
X89476190Y-52498081D01*
X89476190Y-52498081D02*
X89428571Y-52450462D01*
X88857142Y-52117129D02*
X88952380Y-52164748D01*
X88952380Y-52164748D02*
X88999999Y-52212367D01*
X88999999Y-52212367D02*
X89047618Y-52307605D01*
X89047618Y-52307605D02*
X89047618Y-52355224D01*
X89047618Y-52355224D02*
X88999999Y-52450462D01*
X88999999Y-52450462D02*
X88952380Y-52498081D01*
X88952380Y-52498081D02*
X88857142Y-52545700D01*
X88857142Y-52545700D02*
X88666666Y-52545700D01*
X88666666Y-52545700D02*
X88571428Y-52498081D01*
X88571428Y-52498081D02*
X88523809Y-52450462D01*
X88523809Y-52450462D02*
X88476190Y-52355224D01*
X88476190Y-52355224D02*
X88476190Y-52307605D01*
X88476190Y-52307605D02*
X88523809Y-52212367D01*
X88523809Y-52212367D02*
X88571428Y-52164748D01*
X88571428Y-52164748D02*
X88666666Y-52117129D01*
X88666666Y-52117129D02*
X88857142Y-52117129D01*
X88857142Y-52117129D02*
X88952380Y-52069510D01*
X88952380Y-52069510D02*
X88999999Y-52021891D01*
X88999999Y-52021891D02*
X89047618Y-51926653D01*
X89047618Y-51926653D02*
X89047618Y-51736177D01*
X89047618Y-51736177D02*
X88999999Y-51640939D01*
X88999999Y-51640939D02*
X88952380Y-51593320D01*
X88952380Y-51593320D02*
X88857142Y-51545700D01*
X88857142Y-51545700D02*
X88666666Y-51545700D01*
X88666666Y-51545700D02*
X88571428Y-51593320D01*
X88571428Y-51593320D02*
X88523809Y-51640939D01*
X88523809Y-51640939D02*
X88476190Y-51736177D01*
X88476190Y-51736177D02*
X88476190Y-51926653D01*
X88476190Y-51926653D02*
X88523809Y-52021891D01*
X88523809Y-52021891D02*
X88571428Y-52069510D01*
X88571428Y-52069510D02*
X88666666Y-52117129D01*
X137976189Y-51545700D02*
X137976189Y-52545700D01*
X136928571Y-51640939D02*
X136976190Y-51593320D01*
X136976190Y-51593320D02*
X137119047Y-51545700D01*
X137119047Y-51545700D02*
X137214285Y-51545700D01*
X137214285Y-51545700D02*
X137357142Y-51593320D01*
X137357142Y-51593320D02*
X137452380Y-51688558D01*
X137452380Y-51688558D02*
X137499999Y-51783796D01*
X137499999Y-51783796D02*
X137547618Y-51974272D01*
X137547618Y-51974272D02*
X137547618Y-52117129D01*
X137547618Y-52117129D02*
X137499999Y-52307605D01*
X137499999Y-52307605D02*
X137452380Y-52402843D01*
X137452380Y-52402843D02*
X137357142Y-52498081D01*
X137357142Y-52498081D02*
X137214285Y-52545700D01*
X137214285Y-52545700D02*
X137119047Y-52545700D01*
X137119047Y-52545700D02*
X136976190Y-52498081D01*
X136976190Y-52498081D02*
X136928571Y-52450462D01*
X136023809Y-52545700D02*
X136499999Y-52545700D01*
X136499999Y-52545700D02*
X136547618Y-52069510D01*
X136547618Y-52069510D02*
X136499999Y-52117129D01*
X136499999Y-52117129D02*
X136404761Y-52164748D01*
X136404761Y-52164748D02*
X136166666Y-52164748D01*
X136166666Y-52164748D02*
X136071428Y-52117129D01*
X136071428Y-52117129D02*
X136023809Y-52069510D01*
X136023809Y-52069510D02*
X135976190Y-51974272D01*
X135976190Y-51974272D02*
X135976190Y-51736177D01*
X135976190Y-51736177D02*
X136023809Y-51640939D01*
X136023809Y-51640939D02*
X136071428Y-51593320D01*
X136071428Y-51593320D02*
X136166666Y-51545700D01*
X136166666Y-51545700D02*
X136404761Y-51545700D01*
X136404761Y-51545700D02*
X136499999Y-51593320D01*
X136499999Y-51593320D02*
X136547618Y-51640939D01*
D11*
%TO.C,IC1*%
X63900000Y-66500000D02*
X63900000Y-66500000D01*
X64000000Y-66500000D02*
X64000000Y-66500000D01*
D12*
X65650000Y-63300000D02*
X68350000Y-63300000D01*
X65650000Y-66700000D02*
X68350000Y-66700000D01*
D11*
X63900000Y-66500000D02*
G75*
G02*
X64000000Y-66500000I50000J0D01*
G01*
X64000000Y-66500000D02*
G75*
G02*
X63900000Y-66500000I-50000J0D01*
G01*
D12*
%TO.C,IC9*%
X109850000Y-48300000D02*
X107150000Y-48300000D01*
X109850000Y-51700000D02*
X107150000Y-51700000D01*
D11*
X111500000Y-48500000D02*
X111500000Y-48500000D01*
X111600000Y-48500000D02*
X111600000Y-48500000D01*
X111500000Y-48500000D02*
G75*
G02*
X111600000Y-48500000I50000J0D01*
G01*
X111600000Y-48500000D02*
G75*
G02*
X111500000Y-48500000I-50000J0D01*
G01*
D12*
%TO.C,IC3*%
X100350000Y-48300000D02*
X97650000Y-48300000D01*
X100350000Y-51700000D02*
X97650000Y-51700000D01*
D11*
X102000000Y-48500000D02*
X102000000Y-48500000D01*
X102100000Y-48500000D02*
X102100000Y-48500000D01*
X102000000Y-48500000D02*
G75*
G02*
X102100000Y-48500000I50000J0D01*
G01*
X102100000Y-48500000D02*
G75*
G02*
X102000000Y-48500000I-50000J0D01*
G01*
%TO.C,IC7*%
X70400000Y-60000000D02*
X70400000Y-60000000D01*
X70500000Y-60000000D02*
X70500000Y-60000000D01*
D12*
X72150000Y-56800000D02*
X74850000Y-56800000D01*
X72150000Y-60200000D02*
X74850000Y-60200000D01*
D11*
X70400000Y-60000000D02*
G75*
G02*
X70500000Y-60000000I50000J0D01*
G01*
X70500000Y-60000000D02*
G75*
G02*
X70400000Y-60000000I-50000J0D01*
G01*
D12*
%TO.C,IC10*%
X128850000Y-48300000D02*
X126150000Y-48300000D01*
X128850000Y-51700000D02*
X126150000Y-51700000D01*
D11*
X130500000Y-48500000D02*
X130500000Y-48500000D01*
X130600000Y-48500000D02*
X130600000Y-48500000D01*
X130500000Y-48500000D02*
G75*
G02*
X130600000Y-48500000I50000J0D01*
G01*
X130600000Y-48500000D02*
G75*
G02*
X130500000Y-48500000I-50000J0D01*
G01*
D12*
%TO.C,IC2*%
X81350000Y-50300000D02*
X78650000Y-50300000D01*
X81350000Y-53700000D02*
X78650000Y-53700000D01*
D11*
X83000000Y-50500000D02*
X83000000Y-50500000D01*
X83100000Y-50500000D02*
X83100000Y-50500000D01*
X83000000Y-50500000D02*
G75*
G02*
X83100000Y-50500000I50000J0D01*
G01*
X83100000Y-50500000D02*
G75*
G02*
X83000000Y-50500000I-50000J0D01*
G01*
%TO.C,IC6*%
X154000000Y-57500000D02*
X154000000Y-57500000D01*
X154100000Y-57500000D02*
X154100000Y-57500000D01*
D12*
X154350000Y-56800000D02*
X151650000Y-56800000D01*
X154350000Y-60200000D02*
X151650000Y-60200000D01*
D11*
X154000000Y-57500000D02*
G75*
G02*
X154100000Y-57500000I50000J0D01*
G01*
X154100000Y-57500000D02*
G75*
G02*
X154000000Y-57500000I-50000J0D01*
G01*
D12*
%TO.C,IC11*%
X147850000Y-50300000D02*
X145150000Y-50300000D01*
X147850000Y-53700000D02*
X145150000Y-53700000D01*
D11*
X147000000Y-51000000D02*
G75*
G02*
X147100000Y-51000000I50000J0D01*
G01*
X147050000Y-51000000D02*
G75*
G02*
X146950000Y-51000000I-50000J0D01*
G01*
D13*
%TO.C,SENSOR*%
X107350000Y-56950000D02*
X107350000Y-58290000D01*
X108840000Y-56950000D02*
X107350000Y-56950000D01*
X108840000Y-56950000D02*
X108840000Y-55750000D01*
X117660000Y-56950000D02*
X119150000Y-56950000D01*
X119150000Y-56950000D02*
X119150000Y-58290000D01*
D11*
%TO.C,IC12*%
X160500000Y-64000000D02*
X160500000Y-64000000D01*
X160600000Y-64000000D02*
X160600000Y-64000000D01*
D12*
X160850000Y-63300000D02*
X158150000Y-63300000D01*
X160850000Y-66700000D02*
X158150000Y-66700000D01*
D11*
X160500000Y-64000000D02*
G75*
G02*
X160600000Y-64000000I50000J0D01*
G01*
X160600000Y-64000000D02*
G75*
G02*
X160500000Y-64000000I-50000J0D01*
G01*
D12*
%TO.C,IC4*%
X119350000Y-48300000D02*
X116650000Y-48300000D01*
X119350000Y-51700000D02*
X116650000Y-51700000D01*
D11*
X121000000Y-48500000D02*
X121000000Y-48500000D01*
X121100000Y-48500000D02*
X121100000Y-48500000D01*
X121000000Y-48500000D02*
G75*
G02*
X121100000Y-48500000I50000J0D01*
G01*
X121100000Y-48500000D02*
G75*
G02*
X121000000Y-48500000I-50000J0D01*
G01*
D12*
%TO.C,IC8*%
X90850000Y-50300000D02*
X88150000Y-50300000D01*
X90850000Y-53700000D02*
X88150000Y-53700000D01*
D11*
X92500000Y-50500000D02*
X92500000Y-50500000D01*
X92600000Y-50500000D02*
X92600000Y-50500000D01*
X92500000Y-50500000D02*
G75*
G02*
X92600000Y-50500000I50000J0D01*
G01*
X92600000Y-50500000D02*
G75*
G02*
X92500000Y-50500000I-50000J0D01*
G01*
D12*
%TO.C,IC5*%
X138350000Y-50300000D02*
X135650000Y-50300000D01*
X138350000Y-53700000D02*
X135650000Y-53700000D01*
D11*
X140000000Y-50500000D02*
X140000000Y-50500000D01*
X140100000Y-50500000D02*
X140100000Y-50500000D01*
X140000000Y-50500000D02*
G75*
G02*
X140100000Y-50500000I50000J0D01*
G01*
X140100000Y-50500000D02*
G75*
G02*
X140000000Y-50500000I-50000J0D01*
G01*
%TD*%
M02*
