%TF.GenerationSoftware,KiCad,Pcbnew,8.0.4*%
%TF.CreationDate,2024-11-30T14:16:15+01:00*%
%TF.ProjectId,Sensor_PCB,53656e73-6f72-45f5-9043-422e6b696361,rev?*%
%TF.SameCoordinates,Original*%
%TF.FileFunction,Legend,Bot*%
%TF.FilePolarity,Positive*%
%FSLAX46Y46*%
G04 Gerber Fmt 4.6, Leading zero omitted, Abs format (unit mm)*
G04 Created by KiCad (PCBNEW 8.0.4) date 2024-11-30 14:16:15*
%MOMM*%
%LPD*%
G01*
G04 APERTURE LIST*
%ADD10C,0.160000*%
%ADD11C,0.120000*%
G04 APERTURE END LIST*
D10*
X124766666Y-53859060D02*
X124814285Y-53906680D01*
X124814285Y-53906680D02*
X124957142Y-53954299D01*
X124957142Y-53954299D02*
X125052380Y-53954299D01*
X125052380Y-53954299D02*
X125195237Y-53906680D01*
X125195237Y-53906680D02*
X125290475Y-53811441D01*
X125290475Y-53811441D02*
X125338094Y-53716203D01*
X125338094Y-53716203D02*
X125385713Y-53525727D01*
X125385713Y-53525727D02*
X125385713Y-53382870D01*
X125385713Y-53382870D02*
X125338094Y-53192394D01*
X125338094Y-53192394D02*
X125290475Y-53097156D01*
X125290475Y-53097156D02*
X125195237Y-53001918D01*
X125195237Y-53001918D02*
X125052380Y-52954299D01*
X125052380Y-52954299D02*
X124957142Y-52954299D01*
X124957142Y-52954299D02*
X124814285Y-53001918D01*
X124814285Y-53001918D02*
X124766666Y-53049537D01*
X124385713Y-53049537D02*
X124338094Y-53001918D01*
X124338094Y-53001918D02*
X124242856Y-52954299D01*
X124242856Y-52954299D02*
X124004761Y-52954299D01*
X124004761Y-52954299D02*
X123909523Y-53001918D01*
X123909523Y-53001918D02*
X123861904Y-53049537D01*
X123861904Y-53049537D02*
X123814285Y-53144775D01*
X123814285Y-53144775D02*
X123814285Y-53240013D01*
X123814285Y-53240013D02*
X123861904Y-53382870D01*
X123861904Y-53382870D02*
X124433332Y-53954299D01*
X124433332Y-53954299D02*
X123814285Y-53954299D01*
X112195238Y-55049537D02*
X112290476Y-55001918D01*
X112290476Y-55001918D02*
X112385714Y-54906680D01*
X112385714Y-54906680D02*
X112528571Y-54763822D01*
X112528571Y-54763822D02*
X112623809Y-54716203D01*
X112623809Y-54716203D02*
X112719047Y-54716203D01*
X112671428Y-54954299D02*
X112766666Y-54906680D01*
X112766666Y-54906680D02*
X112861904Y-54811441D01*
X112861904Y-54811441D02*
X112909523Y-54620965D01*
X112909523Y-54620965D02*
X112909523Y-54287632D01*
X112909523Y-54287632D02*
X112861904Y-54097156D01*
X112861904Y-54097156D02*
X112766666Y-54001918D01*
X112766666Y-54001918D02*
X112671428Y-53954299D01*
X112671428Y-53954299D02*
X112480952Y-53954299D01*
X112480952Y-53954299D02*
X112385714Y-54001918D01*
X112385714Y-54001918D02*
X112290476Y-54097156D01*
X112290476Y-54097156D02*
X112242857Y-54287632D01*
X112242857Y-54287632D02*
X112242857Y-54620965D01*
X112242857Y-54620965D02*
X112290476Y-54811441D01*
X112290476Y-54811441D02*
X112385714Y-54906680D01*
X112385714Y-54906680D02*
X112480952Y-54954299D01*
X112480952Y-54954299D02*
X112671428Y-54954299D01*
X111290476Y-54954299D02*
X111861904Y-54954299D01*
X111576190Y-54954299D02*
X111576190Y-53954299D01*
X111576190Y-53954299D02*
X111671428Y-54097156D01*
X111671428Y-54097156D02*
X111766666Y-54192394D01*
X111766666Y-54192394D02*
X111861904Y-54240013D01*
X124666666Y-55359060D02*
X124714285Y-55406680D01*
X124714285Y-55406680D02*
X124857142Y-55454299D01*
X124857142Y-55454299D02*
X124952380Y-55454299D01*
X124952380Y-55454299D02*
X125095237Y-55406680D01*
X125095237Y-55406680D02*
X125190475Y-55311441D01*
X125190475Y-55311441D02*
X125238094Y-55216203D01*
X125238094Y-55216203D02*
X125285713Y-55025727D01*
X125285713Y-55025727D02*
X125285713Y-54882870D01*
X125285713Y-54882870D02*
X125238094Y-54692394D01*
X125238094Y-54692394D02*
X125190475Y-54597156D01*
X125190475Y-54597156D02*
X125095237Y-54501918D01*
X125095237Y-54501918D02*
X124952380Y-54454299D01*
X124952380Y-54454299D02*
X124857142Y-54454299D01*
X124857142Y-54454299D02*
X124714285Y-54501918D01*
X124714285Y-54501918D02*
X124666666Y-54549537D01*
X123714285Y-55454299D02*
X124285713Y-55454299D01*
X123999999Y-55454299D02*
X123999999Y-54454299D01*
X123999999Y-54454299D02*
X124095237Y-54597156D01*
X124095237Y-54597156D02*
X124190475Y-54692394D01*
X124190475Y-54692394D02*
X124285713Y-54740013D01*
X72639088Y-64703387D02*
X72538073Y-64130967D01*
X73043149Y-64299326D02*
X72336042Y-63592219D01*
X72336042Y-63592219D02*
X72066668Y-63861593D01*
X72066668Y-63861593D02*
X72032997Y-63962608D01*
X72032997Y-63962608D02*
X72032997Y-64029952D01*
X72032997Y-64029952D02*
X72066668Y-64130967D01*
X72066668Y-64130967D02*
X72167684Y-64231982D01*
X72167684Y-64231982D02*
X72268699Y-64265654D01*
X72268699Y-64265654D02*
X72336042Y-64265654D01*
X72336042Y-64265654D02*
X72437058Y-64231982D01*
X72437058Y-64231982D02*
X72706432Y-63962608D01*
X71696279Y-64231982D02*
X71258546Y-64669715D01*
X71258546Y-64669715D02*
X71763623Y-64703387D01*
X71763623Y-64703387D02*
X71662607Y-64804402D01*
X71662607Y-64804402D02*
X71628936Y-64905417D01*
X71628936Y-64905417D02*
X71628936Y-64972761D01*
X71628936Y-64972761D02*
X71662607Y-65073776D01*
X71662607Y-65073776D02*
X71830966Y-65242135D01*
X71830966Y-65242135D02*
X71931981Y-65275806D01*
X71931981Y-65275806D02*
X71999325Y-65275806D01*
X71999325Y-65275806D02*
X72100340Y-65242135D01*
X72100340Y-65242135D02*
X72302371Y-65040104D01*
X72302371Y-65040104D02*
X72336042Y-64939089D01*
X72336042Y-64939089D02*
X72336042Y-64871745D01*
X152633330Y-63525806D02*
X153205750Y-63424791D01*
X153037391Y-63929867D02*
X153744498Y-63222760D01*
X153744498Y-63222760D02*
X153475124Y-62953386D01*
X153475124Y-62953386D02*
X153374109Y-62919715D01*
X153374109Y-62919715D02*
X153306765Y-62919715D01*
X153306765Y-62919715D02*
X153205750Y-62953386D01*
X153205750Y-62953386D02*
X153104735Y-63054402D01*
X153104735Y-63054402D02*
X153071063Y-63155417D01*
X153071063Y-63155417D02*
X153071063Y-63222760D01*
X153071063Y-63222760D02*
X153104735Y-63323776D01*
X153104735Y-63323776D02*
X153374109Y-63593150D01*
X153003720Y-62616669D02*
X153003720Y-62549325D01*
X153003720Y-62549325D02*
X152970048Y-62448310D01*
X152970048Y-62448310D02*
X152801689Y-62279951D01*
X152801689Y-62279951D02*
X152700674Y-62246280D01*
X152700674Y-62246280D02*
X152633330Y-62246280D01*
X152633330Y-62246280D02*
X152532315Y-62279951D01*
X152532315Y-62279951D02*
X152464971Y-62347295D01*
X152464971Y-62347295D02*
X152397628Y-62481982D01*
X152397628Y-62481982D02*
X152397628Y-63290104D01*
X152397628Y-63290104D02*
X151959895Y-62852371D01*
X152229269Y-61707532D02*
X152161926Y-61640188D01*
X152161926Y-61640188D02*
X152060910Y-61606516D01*
X152060910Y-61606516D02*
X151993567Y-61606516D01*
X151993567Y-61606516D02*
X151892552Y-61640188D01*
X151892552Y-61640188D02*
X151724193Y-61741203D01*
X151724193Y-61741203D02*
X151555834Y-61909562D01*
X151555834Y-61909562D02*
X151454819Y-62077921D01*
X151454819Y-62077921D02*
X151421147Y-62178936D01*
X151421147Y-62178936D02*
X151421147Y-62246280D01*
X151421147Y-62246280D02*
X151454819Y-62347295D01*
X151454819Y-62347295D02*
X151522162Y-62414638D01*
X151522162Y-62414638D02*
X151623178Y-62448310D01*
X151623178Y-62448310D02*
X151690521Y-62448310D01*
X151690521Y-62448310D02*
X151791536Y-62414638D01*
X151791536Y-62414638D02*
X151959895Y-62313623D01*
X151959895Y-62313623D02*
X152128254Y-62145264D01*
X152128254Y-62145264D02*
X152229269Y-61976906D01*
X152229269Y-61976906D02*
X152262941Y-61875890D01*
X152262941Y-61875890D02*
X152262941Y-61808547D01*
X152262941Y-61808547D02*
X152229269Y-61707532D01*
X119642857Y-57204299D02*
X119976190Y-56728108D01*
X120214285Y-57204299D02*
X120214285Y-56204299D01*
X120214285Y-56204299D02*
X119833333Y-56204299D01*
X119833333Y-56204299D02*
X119738095Y-56251918D01*
X119738095Y-56251918D02*
X119690476Y-56299537D01*
X119690476Y-56299537D02*
X119642857Y-56394775D01*
X119642857Y-56394775D02*
X119642857Y-56537632D01*
X119642857Y-56537632D02*
X119690476Y-56632870D01*
X119690476Y-56632870D02*
X119738095Y-56680489D01*
X119738095Y-56680489D02*
X119833333Y-56728108D01*
X119833333Y-56728108D02*
X120214285Y-56728108D01*
X119261904Y-56299537D02*
X119214285Y-56251918D01*
X119214285Y-56251918D02*
X119119047Y-56204299D01*
X119119047Y-56204299D02*
X118880952Y-56204299D01*
X118880952Y-56204299D02*
X118785714Y-56251918D01*
X118785714Y-56251918D02*
X118738095Y-56299537D01*
X118738095Y-56299537D02*
X118690476Y-56394775D01*
X118690476Y-56394775D02*
X118690476Y-56490013D01*
X118690476Y-56490013D02*
X118738095Y-56632870D01*
X118738095Y-56632870D02*
X119309523Y-57204299D01*
X119309523Y-57204299D02*
X118690476Y-57204299D01*
X117738095Y-57204299D02*
X118309523Y-57204299D01*
X118023809Y-57204299D02*
X118023809Y-56204299D01*
X118023809Y-56204299D02*
X118119047Y-56347156D01*
X118119047Y-56347156D02*
X118214285Y-56442394D01*
X118214285Y-56442394D02*
X118309523Y-56490013D01*
X106142857Y-52354299D02*
X106476190Y-51878108D01*
X106714285Y-52354299D02*
X106714285Y-51354299D01*
X106714285Y-51354299D02*
X106333333Y-51354299D01*
X106333333Y-51354299D02*
X106238095Y-51401918D01*
X106238095Y-51401918D02*
X106190476Y-51449537D01*
X106190476Y-51449537D02*
X106142857Y-51544775D01*
X106142857Y-51544775D02*
X106142857Y-51687632D01*
X106142857Y-51687632D02*
X106190476Y-51782870D01*
X106190476Y-51782870D02*
X106238095Y-51830489D01*
X106238095Y-51830489D02*
X106333333Y-51878108D01*
X106333333Y-51878108D02*
X106714285Y-51878108D01*
X105190476Y-52354299D02*
X105761904Y-52354299D01*
X105476190Y-52354299D02*
X105476190Y-51354299D01*
X105476190Y-51354299D02*
X105571428Y-51497156D01*
X105571428Y-51497156D02*
X105666666Y-51592394D01*
X105666666Y-51592394D02*
X105761904Y-51640013D01*
X104857142Y-51354299D02*
X104190476Y-51354299D01*
X104190476Y-51354299D02*
X104619047Y-52354299D01*
X120142857Y-47754299D02*
X120476190Y-47278108D01*
X120714285Y-47754299D02*
X120714285Y-46754299D01*
X120714285Y-46754299D02*
X120333333Y-46754299D01*
X120333333Y-46754299D02*
X120238095Y-46801918D01*
X120238095Y-46801918D02*
X120190476Y-46849537D01*
X120190476Y-46849537D02*
X120142857Y-46944775D01*
X120142857Y-46944775D02*
X120142857Y-47087632D01*
X120142857Y-47087632D02*
X120190476Y-47182870D01*
X120190476Y-47182870D02*
X120238095Y-47230489D01*
X120238095Y-47230489D02*
X120333333Y-47278108D01*
X120333333Y-47278108D02*
X120714285Y-47278108D01*
X119190476Y-47754299D02*
X119761904Y-47754299D01*
X119476190Y-47754299D02*
X119476190Y-46754299D01*
X119476190Y-46754299D02*
X119571428Y-46897156D01*
X119571428Y-46897156D02*
X119666666Y-46992394D01*
X119666666Y-46992394D02*
X119761904Y-47040013D01*
X118809523Y-46849537D02*
X118761904Y-46801918D01*
X118761904Y-46801918D02*
X118666666Y-46754299D01*
X118666666Y-46754299D02*
X118428571Y-46754299D01*
X118428571Y-46754299D02*
X118333333Y-46801918D01*
X118333333Y-46801918D02*
X118285714Y-46849537D01*
X118285714Y-46849537D02*
X118238095Y-46944775D01*
X118238095Y-46944775D02*
X118238095Y-47040013D01*
X118238095Y-47040013D02*
X118285714Y-47182870D01*
X118285714Y-47182870D02*
X118857142Y-47754299D01*
X118857142Y-47754299D02*
X118238095Y-47754299D01*
X77666666Y-54054299D02*
X77999999Y-53578108D01*
X78238094Y-54054299D02*
X78238094Y-53054299D01*
X78238094Y-53054299D02*
X77857142Y-53054299D01*
X77857142Y-53054299D02*
X77761904Y-53101918D01*
X77761904Y-53101918D02*
X77714285Y-53149537D01*
X77714285Y-53149537D02*
X77666666Y-53244775D01*
X77666666Y-53244775D02*
X77666666Y-53387632D01*
X77666666Y-53387632D02*
X77714285Y-53482870D01*
X77714285Y-53482870D02*
X77761904Y-53530489D01*
X77761904Y-53530489D02*
X77857142Y-53578108D01*
X77857142Y-53578108D02*
X78238094Y-53578108D01*
X76809523Y-53387632D02*
X76809523Y-54054299D01*
X77047618Y-53006680D02*
X77285713Y-53720965D01*
X77285713Y-53720965D02*
X76666666Y-53720965D01*
X106142857Y-50359060D02*
X106190476Y-50406680D01*
X106190476Y-50406680D02*
X106333333Y-50454299D01*
X106333333Y-50454299D02*
X106428571Y-50454299D01*
X106428571Y-50454299D02*
X106571428Y-50406680D01*
X106571428Y-50406680D02*
X106666666Y-50311441D01*
X106666666Y-50311441D02*
X106714285Y-50216203D01*
X106714285Y-50216203D02*
X106761904Y-50025727D01*
X106761904Y-50025727D02*
X106761904Y-49882870D01*
X106761904Y-49882870D02*
X106714285Y-49692394D01*
X106714285Y-49692394D02*
X106666666Y-49597156D01*
X106666666Y-49597156D02*
X106571428Y-49501918D01*
X106571428Y-49501918D02*
X106428571Y-49454299D01*
X106428571Y-49454299D02*
X106333333Y-49454299D01*
X106333333Y-49454299D02*
X106190476Y-49501918D01*
X106190476Y-49501918D02*
X106142857Y-49549537D01*
X105190476Y-50454299D02*
X105761904Y-50454299D01*
X105476190Y-50454299D02*
X105476190Y-49454299D01*
X105476190Y-49454299D02*
X105571428Y-49597156D01*
X105571428Y-49597156D02*
X105666666Y-49692394D01*
X105666666Y-49692394D02*
X105761904Y-49740013D01*
X104238095Y-50454299D02*
X104809523Y-50454299D01*
X104523809Y-50454299D02*
X104523809Y-49454299D01*
X104523809Y-49454299D02*
X104619047Y-49597156D01*
X104619047Y-49597156D02*
X104714285Y-49692394D01*
X104714285Y-49692394D02*
X104809523Y-49740013D01*
X134666666Y-52159060D02*
X134714285Y-52206680D01*
X134714285Y-52206680D02*
X134857142Y-52254299D01*
X134857142Y-52254299D02*
X134952380Y-52254299D01*
X134952380Y-52254299D02*
X135095237Y-52206680D01*
X135095237Y-52206680D02*
X135190475Y-52111441D01*
X135190475Y-52111441D02*
X135238094Y-52016203D01*
X135238094Y-52016203D02*
X135285713Y-51825727D01*
X135285713Y-51825727D02*
X135285713Y-51682870D01*
X135285713Y-51682870D02*
X135238094Y-51492394D01*
X135238094Y-51492394D02*
X135190475Y-51397156D01*
X135190475Y-51397156D02*
X135095237Y-51301918D01*
X135095237Y-51301918D02*
X134952380Y-51254299D01*
X134952380Y-51254299D02*
X134857142Y-51254299D01*
X134857142Y-51254299D02*
X134714285Y-51301918D01*
X134714285Y-51301918D02*
X134666666Y-51349537D01*
X134333332Y-51254299D02*
X133666666Y-51254299D01*
X133666666Y-51254299D02*
X134095237Y-52254299D01*
X98416666Y-52454299D02*
X98749999Y-51978108D01*
X98988094Y-52454299D02*
X98988094Y-51454299D01*
X98988094Y-51454299D02*
X98607142Y-51454299D01*
X98607142Y-51454299D02*
X98511904Y-51501918D01*
X98511904Y-51501918D02*
X98464285Y-51549537D01*
X98464285Y-51549537D02*
X98416666Y-51644775D01*
X98416666Y-51644775D02*
X98416666Y-51787632D01*
X98416666Y-51787632D02*
X98464285Y-51882870D01*
X98464285Y-51882870D02*
X98511904Y-51930489D01*
X98511904Y-51930489D02*
X98607142Y-51978108D01*
X98607142Y-51978108D02*
X98988094Y-51978108D01*
X97511904Y-51454299D02*
X97988094Y-51454299D01*
X97988094Y-51454299D02*
X98035713Y-51930489D01*
X98035713Y-51930489D02*
X97988094Y-51882870D01*
X97988094Y-51882870D02*
X97892856Y-51835251D01*
X97892856Y-51835251D02*
X97654761Y-51835251D01*
X97654761Y-51835251D02*
X97559523Y-51882870D01*
X97559523Y-51882870D02*
X97511904Y-51930489D01*
X97511904Y-51930489D02*
X97464285Y-52025727D01*
X97464285Y-52025727D02*
X97464285Y-52263822D01*
X97464285Y-52263822D02*
X97511904Y-52359060D01*
X97511904Y-52359060D02*
X97559523Y-52406680D01*
X97559523Y-52406680D02*
X97654761Y-52454299D01*
X97654761Y-52454299D02*
X97892856Y-52454299D01*
X97892856Y-52454299D02*
X97988094Y-52406680D01*
X97988094Y-52406680D02*
X98035713Y-52359060D01*
X115666666Y-50359060D02*
X115714285Y-50406680D01*
X115714285Y-50406680D02*
X115857142Y-50454299D01*
X115857142Y-50454299D02*
X115952380Y-50454299D01*
X115952380Y-50454299D02*
X116095237Y-50406680D01*
X116095237Y-50406680D02*
X116190475Y-50311441D01*
X116190475Y-50311441D02*
X116238094Y-50216203D01*
X116238094Y-50216203D02*
X116285713Y-50025727D01*
X116285713Y-50025727D02*
X116285713Y-49882870D01*
X116285713Y-49882870D02*
X116238094Y-49692394D01*
X116238094Y-49692394D02*
X116190475Y-49597156D01*
X116190475Y-49597156D02*
X116095237Y-49501918D01*
X116095237Y-49501918D02*
X115952380Y-49454299D01*
X115952380Y-49454299D02*
X115857142Y-49454299D01*
X115857142Y-49454299D02*
X115714285Y-49501918D01*
X115714285Y-49501918D02*
X115666666Y-49549537D01*
X114809523Y-49454299D02*
X114999999Y-49454299D01*
X114999999Y-49454299D02*
X115095237Y-49501918D01*
X115095237Y-49501918D02*
X115142856Y-49549537D01*
X115142856Y-49549537D02*
X115238094Y-49692394D01*
X115238094Y-49692394D02*
X115285713Y-49882870D01*
X115285713Y-49882870D02*
X115285713Y-50263822D01*
X115285713Y-50263822D02*
X115238094Y-50359060D01*
X115238094Y-50359060D02*
X115190475Y-50406680D01*
X115190475Y-50406680D02*
X115095237Y-50454299D01*
X115095237Y-50454299D02*
X114904761Y-50454299D01*
X114904761Y-50454299D02*
X114809523Y-50406680D01*
X114809523Y-50406680D02*
X114761904Y-50359060D01*
X114761904Y-50359060D02*
X114714285Y-50263822D01*
X114714285Y-50263822D02*
X114714285Y-50025727D01*
X114714285Y-50025727D02*
X114761904Y-49930489D01*
X114761904Y-49930489D02*
X114809523Y-49882870D01*
X114809523Y-49882870D02*
X114904761Y-49835251D01*
X114904761Y-49835251D02*
X115095237Y-49835251D01*
X115095237Y-49835251D02*
X115190475Y-49882870D01*
X115190475Y-49882870D02*
X115238094Y-49930489D01*
X115238094Y-49930489D02*
X115285713Y-50025727D01*
X139392857Y-50029299D02*
X139726190Y-49553108D01*
X139964285Y-50029299D02*
X139964285Y-49029299D01*
X139964285Y-49029299D02*
X139583333Y-49029299D01*
X139583333Y-49029299D02*
X139488095Y-49076918D01*
X139488095Y-49076918D02*
X139440476Y-49124537D01*
X139440476Y-49124537D02*
X139392857Y-49219775D01*
X139392857Y-49219775D02*
X139392857Y-49362632D01*
X139392857Y-49362632D02*
X139440476Y-49457870D01*
X139440476Y-49457870D02*
X139488095Y-49505489D01*
X139488095Y-49505489D02*
X139583333Y-49553108D01*
X139583333Y-49553108D02*
X139964285Y-49553108D01*
X138440476Y-50029299D02*
X139011904Y-50029299D01*
X138726190Y-50029299D02*
X138726190Y-49029299D01*
X138726190Y-49029299D02*
X138821428Y-49172156D01*
X138821428Y-49172156D02*
X138916666Y-49267394D01*
X138916666Y-49267394D02*
X139011904Y-49315013D01*
X138107142Y-49029299D02*
X137488095Y-49029299D01*
X137488095Y-49029299D02*
X137821428Y-49410251D01*
X137821428Y-49410251D02*
X137678571Y-49410251D01*
X137678571Y-49410251D02*
X137583333Y-49457870D01*
X137583333Y-49457870D02*
X137535714Y-49505489D01*
X137535714Y-49505489D02*
X137488095Y-49600727D01*
X137488095Y-49600727D02*
X137488095Y-49838822D01*
X137488095Y-49838822D02*
X137535714Y-49934060D01*
X137535714Y-49934060D02*
X137583333Y-49981680D01*
X137583333Y-49981680D02*
X137678571Y-50029299D01*
X137678571Y-50029299D02*
X137964285Y-50029299D01*
X137964285Y-50029299D02*
X138059523Y-49981680D01*
X138059523Y-49981680D02*
X138107142Y-49934060D01*
X144142857Y-53954299D02*
X144476190Y-53478108D01*
X144714285Y-53954299D02*
X144714285Y-52954299D01*
X144714285Y-52954299D02*
X144333333Y-52954299D01*
X144333333Y-52954299D02*
X144238095Y-53001918D01*
X144238095Y-53001918D02*
X144190476Y-53049537D01*
X144190476Y-53049537D02*
X144142857Y-53144775D01*
X144142857Y-53144775D02*
X144142857Y-53287632D01*
X144142857Y-53287632D02*
X144190476Y-53382870D01*
X144190476Y-53382870D02*
X144238095Y-53430489D01*
X144238095Y-53430489D02*
X144333333Y-53478108D01*
X144333333Y-53478108D02*
X144714285Y-53478108D01*
X143190476Y-53954299D02*
X143761904Y-53954299D01*
X143476190Y-53954299D02*
X143476190Y-52954299D01*
X143476190Y-52954299D02*
X143571428Y-53097156D01*
X143571428Y-53097156D02*
X143666666Y-53192394D01*
X143666666Y-53192394D02*
X143761904Y-53240013D01*
X142714285Y-53954299D02*
X142523809Y-53954299D01*
X142523809Y-53954299D02*
X142428571Y-53906680D01*
X142428571Y-53906680D02*
X142380952Y-53859060D01*
X142380952Y-53859060D02*
X142285714Y-53716203D01*
X142285714Y-53716203D02*
X142238095Y-53525727D01*
X142238095Y-53525727D02*
X142238095Y-53144775D01*
X142238095Y-53144775D02*
X142285714Y-53049537D01*
X142285714Y-53049537D02*
X142333333Y-53001918D01*
X142333333Y-53001918D02*
X142428571Y-52954299D01*
X142428571Y-52954299D02*
X142619047Y-52954299D01*
X142619047Y-52954299D02*
X142714285Y-53001918D01*
X142714285Y-53001918D02*
X142761904Y-53049537D01*
X142761904Y-53049537D02*
X142809523Y-53144775D01*
X142809523Y-53144775D02*
X142809523Y-53382870D01*
X142809523Y-53382870D02*
X142761904Y-53478108D01*
X142761904Y-53478108D02*
X142714285Y-53525727D01*
X142714285Y-53525727D02*
X142619047Y-53573346D01*
X142619047Y-53573346D02*
X142428571Y-53573346D01*
X142428571Y-53573346D02*
X142333333Y-53525727D01*
X142333333Y-53525727D02*
X142285714Y-53478108D01*
X142285714Y-53478108D02*
X142238095Y-53382870D01*
X101392857Y-47954299D02*
X101726190Y-47478108D01*
X101964285Y-47954299D02*
X101964285Y-46954299D01*
X101964285Y-46954299D02*
X101583333Y-46954299D01*
X101583333Y-46954299D02*
X101488095Y-47001918D01*
X101488095Y-47001918D02*
X101440476Y-47049537D01*
X101440476Y-47049537D02*
X101392857Y-47144775D01*
X101392857Y-47144775D02*
X101392857Y-47287632D01*
X101392857Y-47287632D02*
X101440476Y-47382870D01*
X101440476Y-47382870D02*
X101488095Y-47430489D01*
X101488095Y-47430489D02*
X101583333Y-47478108D01*
X101583333Y-47478108D02*
X101964285Y-47478108D01*
X100440476Y-47954299D02*
X101011904Y-47954299D01*
X100726190Y-47954299D02*
X100726190Y-46954299D01*
X100726190Y-46954299D02*
X100821428Y-47097156D01*
X100821428Y-47097156D02*
X100916666Y-47192394D01*
X100916666Y-47192394D02*
X101011904Y-47240013D01*
X99488095Y-47954299D02*
X100059523Y-47954299D01*
X99773809Y-47954299D02*
X99773809Y-46954299D01*
X99773809Y-46954299D02*
X99869047Y-47097156D01*
X99869047Y-47097156D02*
X99964285Y-47192394D01*
X99964285Y-47192394D02*
X100059523Y-47240013D01*
X65621745Y-66886043D02*
X65689088Y-66886043D01*
X65689088Y-66886043D02*
X65823775Y-66818700D01*
X65823775Y-66818700D02*
X65891119Y-66751356D01*
X65891119Y-66751356D02*
X65958462Y-66616669D01*
X65958462Y-66616669D02*
X65958462Y-66481982D01*
X65958462Y-66481982D02*
X65924790Y-66380967D01*
X65924790Y-66380967D02*
X65823775Y-66212608D01*
X65823775Y-66212608D02*
X65722760Y-66111593D01*
X65722760Y-66111593D02*
X65554401Y-66010578D01*
X65554401Y-66010578D02*
X65453386Y-65976906D01*
X65453386Y-65976906D02*
X65318699Y-65976906D01*
X65318699Y-65976906D02*
X65184012Y-66044249D01*
X65184012Y-66044249D02*
X65116668Y-66111593D01*
X65116668Y-66111593D02*
X65049325Y-66246280D01*
X65049325Y-66246280D02*
X65049325Y-66313623D01*
X64746279Y-66481982D02*
X64308546Y-66919715D01*
X64308546Y-66919715D02*
X64813623Y-66953387D01*
X64813623Y-66953387D02*
X64712607Y-67054402D01*
X64712607Y-67054402D02*
X64678936Y-67155417D01*
X64678936Y-67155417D02*
X64678936Y-67222761D01*
X64678936Y-67222761D02*
X64712607Y-67323776D01*
X64712607Y-67323776D02*
X64880966Y-67492135D01*
X64880966Y-67492135D02*
X64981981Y-67525806D01*
X64981981Y-67525806D02*
X65049325Y-67525806D01*
X65049325Y-67525806D02*
X65150340Y-67492135D01*
X65150340Y-67492135D02*
X65352371Y-67290104D01*
X65352371Y-67290104D02*
X65386042Y-67189089D01*
X65386042Y-67189089D02*
X65386042Y-67121745D01*
X77450806Y-59691669D02*
X77349791Y-59119249D01*
X77854867Y-59287608D02*
X77147760Y-58580501D01*
X77147760Y-58580501D02*
X76878386Y-58849875D01*
X76878386Y-58849875D02*
X76844715Y-58950890D01*
X76844715Y-58950890D02*
X76844715Y-59018234D01*
X76844715Y-59018234D02*
X76878386Y-59119249D01*
X76878386Y-59119249D02*
X76979402Y-59220264D01*
X76979402Y-59220264D02*
X77080417Y-59253936D01*
X77080417Y-59253936D02*
X77147760Y-59253936D01*
X77147760Y-59253936D02*
X77248776Y-59220264D01*
X77248776Y-59220264D02*
X77518150Y-58950890D01*
X76777371Y-60365104D02*
X77181432Y-59961043D01*
X76979402Y-60163073D02*
X76272295Y-59455966D01*
X76272295Y-59455966D02*
X76440654Y-59489638D01*
X76440654Y-59489638D02*
X76575341Y-59489638D01*
X76575341Y-59489638D02*
X76676356Y-59455966D01*
X75430501Y-60297760D02*
X75767219Y-59961043D01*
X75767219Y-59961043D02*
X76137608Y-60264089D01*
X76137608Y-60264089D02*
X76070264Y-60264089D01*
X76070264Y-60264089D02*
X75969249Y-60297760D01*
X75969249Y-60297760D02*
X75800890Y-60466119D01*
X75800890Y-60466119D02*
X75767219Y-60567134D01*
X75767219Y-60567134D02*
X75767219Y-60634478D01*
X75767219Y-60634478D02*
X75800890Y-60735493D01*
X75800890Y-60735493D02*
X75969249Y-60903852D01*
X75969249Y-60903852D02*
X76070264Y-60937524D01*
X76070264Y-60937524D02*
X76137608Y-60937524D01*
X76137608Y-60937524D02*
X76238623Y-60903852D01*
X76238623Y-60903852D02*
X76406982Y-60735493D01*
X76406982Y-60735493D02*
X76440654Y-60634478D01*
X76440654Y-60634478D02*
X76440654Y-60567134D01*
X87142857Y-52359060D02*
X87190476Y-52406680D01*
X87190476Y-52406680D02*
X87333333Y-52454299D01*
X87333333Y-52454299D02*
X87428571Y-52454299D01*
X87428571Y-52454299D02*
X87571428Y-52406680D01*
X87571428Y-52406680D02*
X87666666Y-52311441D01*
X87666666Y-52311441D02*
X87714285Y-52216203D01*
X87714285Y-52216203D02*
X87761904Y-52025727D01*
X87761904Y-52025727D02*
X87761904Y-51882870D01*
X87761904Y-51882870D02*
X87714285Y-51692394D01*
X87714285Y-51692394D02*
X87666666Y-51597156D01*
X87666666Y-51597156D02*
X87571428Y-51501918D01*
X87571428Y-51501918D02*
X87428571Y-51454299D01*
X87428571Y-51454299D02*
X87333333Y-51454299D01*
X87333333Y-51454299D02*
X87190476Y-51501918D01*
X87190476Y-51501918D02*
X87142857Y-51549537D01*
X86190476Y-52454299D02*
X86761904Y-52454299D01*
X86476190Y-52454299D02*
X86476190Y-51454299D01*
X86476190Y-51454299D02*
X86571428Y-51597156D01*
X86571428Y-51597156D02*
X86666666Y-51692394D01*
X86666666Y-51692394D02*
X86761904Y-51740013D01*
X85571428Y-51454299D02*
X85476190Y-51454299D01*
X85476190Y-51454299D02*
X85380952Y-51501918D01*
X85380952Y-51501918D02*
X85333333Y-51549537D01*
X85333333Y-51549537D02*
X85285714Y-51644775D01*
X85285714Y-51644775D02*
X85238095Y-51835251D01*
X85238095Y-51835251D02*
X85238095Y-52073346D01*
X85238095Y-52073346D02*
X85285714Y-52263822D01*
X85285714Y-52263822D02*
X85333333Y-52359060D01*
X85333333Y-52359060D02*
X85380952Y-52406680D01*
X85380952Y-52406680D02*
X85476190Y-52454299D01*
X85476190Y-52454299D02*
X85571428Y-52454299D01*
X85571428Y-52454299D02*
X85666666Y-52406680D01*
X85666666Y-52406680D02*
X85714285Y-52359060D01*
X85714285Y-52359060D02*
X85761904Y-52263822D01*
X85761904Y-52263822D02*
X85809523Y-52073346D01*
X85809523Y-52073346D02*
X85809523Y-51835251D01*
X85809523Y-51835251D02*
X85761904Y-51644775D01*
X85761904Y-51644775D02*
X85714285Y-51549537D01*
X85714285Y-51549537D02*
X85666666Y-51501918D01*
X85666666Y-51501918D02*
X85571428Y-51454299D01*
X147546612Y-56689088D02*
X148119032Y-56588073D01*
X147950673Y-57093149D02*
X148657780Y-56386042D01*
X148657780Y-56386042D02*
X148388406Y-56116668D01*
X148388406Y-56116668D02*
X148287391Y-56082997D01*
X148287391Y-56082997D02*
X148220047Y-56082997D01*
X148220047Y-56082997D02*
X148119032Y-56116668D01*
X148119032Y-56116668D02*
X148018017Y-56217684D01*
X148018017Y-56217684D02*
X147984345Y-56318699D01*
X147984345Y-56318699D02*
X147984345Y-56386042D01*
X147984345Y-56386042D02*
X148018017Y-56487058D01*
X148018017Y-56487058D02*
X148287391Y-56756432D01*
X147546612Y-55880966D02*
X147647628Y-55914638D01*
X147647628Y-55914638D02*
X147714971Y-55914638D01*
X147714971Y-55914638D02*
X147815986Y-55880966D01*
X147815986Y-55880966D02*
X147849658Y-55847294D01*
X147849658Y-55847294D02*
X147883330Y-55746279D01*
X147883330Y-55746279D02*
X147883330Y-55678936D01*
X147883330Y-55678936D02*
X147849658Y-55577920D01*
X147849658Y-55577920D02*
X147714971Y-55443233D01*
X147714971Y-55443233D02*
X147613956Y-55409562D01*
X147613956Y-55409562D02*
X147546612Y-55409562D01*
X147546612Y-55409562D02*
X147445597Y-55443233D01*
X147445597Y-55443233D02*
X147411925Y-55476905D01*
X147411925Y-55476905D02*
X147378254Y-55577920D01*
X147378254Y-55577920D02*
X147378254Y-55645264D01*
X147378254Y-55645264D02*
X147411925Y-55746279D01*
X147411925Y-55746279D02*
X147546612Y-55880966D01*
X147546612Y-55880966D02*
X147580284Y-55981981D01*
X147580284Y-55981981D02*
X147580284Y-56049325D01*
X147580284Y-56049325D02*
X147546612Y-56150340D01*
X147546612Y-56150340D02*
X147411925Y-56285027D01*
X147411925Y-56285027D02*
X147310910Y-56318699D01*
X147310910Y-56318699D02*
X147243567Y-56318699D01*
X147243567Y-56318699D02*
X147142551Y-56285027D01*
X147142551Y-56285027D02*
X147007864Y-56150340D01*
X147007864Y-56150340D02*
X146974193Y-56049325D01*
X146974193Y-56049325D02*
X146974193Y-55981981D01*
X146974193Y-55981981D02*
X147007864Y-55880966D01*
X147007864Y-55880966D02*
X147142551Y-55746279D01*
X147142551Y-55746279D02*
X147243567Y-55712607D01*
X147243567Y-55712607D02*
X147310910Y-55712607D01*
X147310910Y-55712607D02*
X147411925Y-55746279D01*
X155933330Y-58675806D02*
X156505750Y-58574791D01*
X156337391Y-59079867D02*
X157044498Y-58372760D01*
X157044498Y-58372760D02*
X156775124Y-58103386D01*
X156775124Y-58103386D02*
X156674109Y-58069715D01*
X156674109Y-58069715D02*
X156606765Y-58069715D01*
X156606765Y-58069715D02*
X156505750Y-58103386D01*
X156505750Y-58103386D02*
X156404735Y-58204402D01*
X156404735Y-58204402D02*
X156371063Y-58305417D01*
X156371063Y-58305417D02*
X156371063Y-58372760D01*
X156371063Y-58372760D02*
X156404735Y-58473776D01*
X156404735Y-58473776D02*
X156674109Y-58743150D01*
X155259895Y-58002371D02*
X155663956Y-58406432D01*
X155461926Y-58204402D02*
X156169033Y-57497295D01*
X156169033Y-57497295D02*
X156135361Y-57665654D01*
X156135361Y-57665654D02*
X156135361Y-57800341D01*
X156135361Y-57800341D02*
X156169033Y-57901356D01*
X155125208Y-56924875D02*
X154653804Y-57396280D01*
X155562941Y-56823860D02*
X155226223Y-57497295D01*
X155226223Y-57497295D02*
X154788491Y-57059562D01*
X88467857Y-54454299D02*
X88801190Y-53978108D01*
X89039285Y-54454299D02*
X89039285Y-53454299D01*
X89039285Y-53454299D02*
X88658333Y-53454299D01*
X88658333Y-53454299D02*
X88563095Y-53501918D01*
X88563095Y-53501918D02*
X88515476Y-53549537D01*
X88515476Y-53549537D02*
X88467857Y-53644775D01*
X88467857Y-53644775D02*
X88467857Y-53787632D01*
X88467857Y-53787632D02*
X88515476Y-53882870D01*
X88515476Y-53882870D02*
X88563095Y-53930489D01*
X88563095Y-53930489D02*
X88658333Y-53978108D01*
X88658333Y-53978108D02*
X89039285Y-53978108D01*
X87515476Y-54454299D02*
X88086904Y-54454299D01*
X87801190Y-54454299D02*
X87801190Y-53454299D01*
X87801190Y-53454299D02*
X87896428Y-53597156D01*
X87896428Y-53597156D02*
X87991666Y-53692394D01*
X87991666Y-53692394D02*
X88086904Y-53740013D01*
X86658333Y-53454299D02*
X86848809Y-53454299D01*
X86848809Y-53454299D02*
X86944047Y-53501918D01*
X86944047Y-53501918D02*
X86991666Y-53549537D01*
X86991666Y-53549537D02*
X87086904Y-53692394D01*
X87086904Y-53692394D02*
X87134523Y-53882870D01*
X87134523Y-53882870D02*
X87134523Y-54263822D01*
X87134523Y-54263822D02*
X87086904Y-54359060D01*
X87086904Y-54359060D02*
X87039285Y-54406680D01*
X87039285Y-54406680D02*
X86944047Y-54454299D01*
X86944047Y-54454299D02*
X86753571Y-54454299D01*
X86753571Y-54454299D02*
X86658333Y-54406680D01*
X86658333Y-54406680D02*
X86610714Y-54359060D01*
X86610714Y-54359060D02*
X86563095Y-54263822D01*
X86563095Y-54263822D02*
X86563095Y-54025727D01*
X86563095Y-54025727D02*
X86610714Y-53930489D01*
X86610714Y-53930489D02*
X86658333Y-53882870D01*
X86658333Y-53882870D02*
X86753571Y-53835251D01*
X86753571Y-53835251D02*
X86944047Y-53835251D01*
X86944047Y-53835251D02*
X87039285Y-53882870D01*
X87039285Y-53882870D02*
X87086904Y-53930489D01*
X87086904Y-53930489D02*
X87134523Y-54025727D01*
X77666666Y-52359060D02*
X77714285Y-52406680D01*
X77714285Y-52406680D02*
X77857142Y-52454299D01*
X77857142Y-52454299D02*
X77952380Y-52454299D01*
X77952380Y-52454299D02*
X78095237Y-52406680D01*
X78095237Y-52406680D02*
X78190475Y-52311441D01*
X78190475Y-52311441D02*
X78238094Y-52216203D01*
X78238094Y-52216203D02*
X78285713Y-52025727D01*
X78285713Y-52025727D02*
X78285713Y-51882870D01*
X78285713Y-51882870D02*
X78238094Y-51692394D01*
X78238094Y-51692394D02*
X78190475Y-51597156D01*
X78190475Y-51597156D02*
X78095237Y-51501918D01*
X78095237Y-51501918D02*
X77952380Y-51454299D01*
X77952380Y-51454299D02*
X77857142Y-51454299D01*
X77857142Y-51454299D02*
X77714285Y-51501918D01*
X77714285Y-51501918D02*
X77666666Y-51549537D01*
X76809523Y-51787632D02*
X76809523Y-52454299D01*
X77047618Y-51406680D02*
X77285713Y-52120965D01*
X77285713Y-52120965D02*
X76666666Y-52120965D01*
X125042857Y-50059060D02*
X125090476Y-50106680D01*
X125090476Y-50106680D02*
X125233333Y-50154299D01*
X125233333Y-50154299D02*
X125328571Y-50154299D01*
X125328571Y-50154299D02*
X125471428Y-50106680D01*
X125471428Y-50106680D02*
X125566666Y-50011441D01*
X125566666Y-50011441D02*
X125614285Y-49916203D01*
X125614285Y-49916203D02*
X125661904Y-49725727D01*
X125661904Y-49725727D02*
X125661904Y-49582870D01*
X125661904Y-49582870D02*
X125614285Y-49392394D01*
X125614285Y-49392394D02*
X125566666Y-49297156D01*
X125566666Y-49297156D02*
X125471428Y-49201918D01*
X125471428Y-49201918D02*
X125328571Y-49154299D01*
X125328571Y-49154299D02*
X125233333Y-49154299D01*
X125233333Y-49154299D02*
X125090476Y-49201918D01*
X125090476Y-49201918D02*
X125042857Y-49249537D01*
X124090476Y-50154299D02*
X124661904Y-50154299D01*
X124376190Y-50154299D02*
X124376190Y-49154299D01*
X124376190Y-49154299D02*
X124471428Y-49297156D01*
X124471428Y-49297156D02*
X124566666Y-49392394D01*
X124566666Y-49392394D02*
X124661904Y-49440013D01*
X123709523Y-49249537D02*
X123661904Y-49201918D01*
X123661904Y-49201918D02*
X123566666Y-49154299D01*
X123566666Y-49154299D02*
X123328571Y-49154299D01*
X123328571Y-49154299D02*
X123233333Y-49201918D01*
X123233333Y-49201918D02*
X123185714Y-49249537D01*
X123185714Y-49249537D02*
X123138095Y-49344775D01*
X123138095Y-49344775D02*
X123138095Y-49440013D01*
X123138095Y-49440013D02*
X123185714Y-49582870D01*
X123185714Y-49582870D02*
X123757142Y-50154299D01*
X123757142Y-50154299D02*
X123138095Y-50154299D01*
X96666666Y-50359060D02*
X96714285Y-50406680D01*
X96714285Y-50406680D02*
X96857142Y-50454299D01*
X96857142Y-50454299D02*
X96952380Y-50454299D01*
X96952380Y-50454299D02*
X97095237Y-50406680D01*
X97095237Y-50406680D02*
X97190475Y-50311441D01*
X97190475Y-50311441D02*
X97238094Y-50216203D01*
X97238094Y-50216203D02*
X97285713Y-50025727D01*
X97285713Y-50025727D02*
X97285713Y-49882870D01*
X97285713Y-49882870D02*
X97238094Y-49692394D01*
X97238094Y-49692394D02*
X97190475Y-49597156D01*
X97190475Y-49597156D02*
X97095237Y-49501918D01*
X97095237Y-49501918D02*
X96952380Y-49454299D01*
X96952380Y-49454299D02*
X96857142Y-49454299D01*
X96857142Y-49454299D02*
X96714285Y-49501918D01*
X96714285Y-49501918D02*
X96666666Y-49549537D01*
X95761904Y-49454299D02*
X96238094Y-49454299D01*
X96238094Y-49454299D02*
X96285713Y-49930489D01*
X96285713Y-49930489D02*
X96238094Y-49882870D01*
X96238094Y-49882870D02*
X96142856Y-49835251D01*
X96142856Y-49835251D02*
X95904761Y-49835251D01*
X95904761Y-49835251D02*
X95809523Y-49882870D01*
X95809523Y-49882870D02*
X95761904Y-49930489D01*
X95761904Y-49930489D02*
X95714285Y-50025727D01*
X95714285Y-50025727D02*
X95714285Y-50263822D01*
X95714285Y-50263822D02*
X95761904Y-50359060D01*
X95761904Y-50359060D02*
X95809523Y-50406680D01*
X95809523Y-50406680D02*
X95904761Y-50454299D01*
X95904761Y-50454299D02*
X96142856Y-50454299D01*
X96142856Y-50454299D02*
X96238094Y-50406680D01*
X96238094Y-50406680D02*
X96285713Y-50359060D01*
X67189088Y-61953387D02*
X67088073Y-61380967D01*
X67593149Y-61549326D02*
X66886042Y-60842219D01*
X66886042Y-60842219D02*
X66616668Y-61111593D01*
X66616668Y-61111593D02*
X66582997Y-61212608D01*
X66582997Y-61212608D02*
X66582997Y-61279952D01*
X66582997Y-61279952D02*
X66616668Y-61380967D01*
X66616668Y-61380967D02*
X66717684Y-61481982D01*
X66717684Y-61481982D02*
X66818699Y-61515654D01*
X66818699Y-61515654D02*
X66886042Y-61515654D01*
X66886042Y-61515654D02*
X66987058Y-61481982D01*
X66987058Y-61481982D02*
X67256432Y-61212608D01*
X66852371Y-62290104D02*
X66717684Y-62424791D01*
X66717684Y-62424791D02*
X66616668Y-62458463D01*
X66616668Y-62458463D02*
X66549325Y-62458463D01*
X66549325Y-62458463D02*
X66380966Y-62424791D01*
X66380966Y-62424791D02*
X66212607Y-62323776D01*
X66212607Y-62323776D02*
X65943233Y-62054402D01*
X65943233Y-62054402D02*
X65909562Y-61953387D01*
X65909562Y-61953387D02*
X65909562Y-61886043D01*
X65909562Y-61886043D02*
X65943233Y-61785028D01*
X65943233Y-61785028D02*
X66077920Y-61650341D01*
X66077920Y-61650341D02*
X66178936Y-61616669D01*
X66178936Y-61616669D02*
X66246279Y-61616669D01*
X66246279Y-61616669D02*
X66347294Y-61650341D01*
X66347294Y-61650341D02*
X66515653Y-61818700D01*
X66515653Y-61818700D02*
X66549325Y-61919715D01*
X66549325Y-61919715D02*
X66549325Y-61987058D01*
X66549325Y-61987058D02*
X66515653Y-62088074D01*
X66515653Y-62088074D02*
X66380966Y-62222761D01*
X66380966Y-62222761D02*
X66279951Y-62256432D01*
X66279951Y-62256432D02*
X66212607Y-62256432D01*
X66212607Y-62256432D02*
X66111592Y-62222761D01*
X109142857Y-56854299D02*
X109476190Y-56378108D01*
X109714285Y-56854299D02*
X109714285Y-55854299D01*
X109714285Y-55854299D02*
X109333333Y-55854299D01*
X109333333Y-55854299D02*
X109238095Y-55901918D01*
X109238095Y-55901918D02*
X109190476Y-55949537D01*
X109190476Y-55949537D02*
X109142857Y-56044775D01*
X109142857Y-56044775D02*
X109142857Y-56187632D01*
X109142857Y-56187632D02*
X109190476Y-56282870D01*
X109190476Y-56282870D02*
X109238095Y-56330489D01*
X109238095Y-56330489D02*
X109333333Y-56378108D01*
X109333333Y-56378108D02*
X109714285Y-56378108D01*
X108761904Y-55949537D02*
X108714285Y-55901918D01*
X108714285Y-55901918D02*
X108619047Y-55854299D01*
X108619047Y-55854299D02*
X108380952Y-55854299D01*
X108380952Y-55854299D02*
X108285714Y-55901918D01*
X108285714Y-55901918D02*
X108238095Y-55949537D01*
X108238095Y-55949537D02*
X108190476Y-56044775D01*
X108190476Y-56044775D02*
X108190476Y-56140013D01*
X108190476Y-56140013D02*
X108238095Y-56282870D01*
X108238095Y-56282870D02*
X108809523Y-56854299D01*
X108809523Y-56854299D02*
X108190476Y-56854299D01*
X107857142Y-55854299D02*
X107238095Y-55854299D01*
X107238095Y-55854299D02*
X107571428Y-56235251D01*
X107571428Y-56235251D02*
X107428571Y-56235251D01*
X107428571Y-56235251D02*
X107333333Y-56282870D01*
X107333333Y-56282870D02*
X107285714Y-56330489D01*
X107285714Y-56330489D02*
X107238095Y-56425727D01*
X107238095Y-56425727D02*
X107238095Y-56663822D01*
X107238095Y-56663822D02*
X107285714Y-56759060D01*
X107285714Y-56759060D02*
X107333333Y-56806680D01*
X107333333Y-56806680D02*
X107428571Y-56854299D01*
X107428571Y-56854299D02*
X107714285Y-56854299D01*
X107714285Y-56854299D02*
X107809523Y-56806680D01*
X107809523Y-56806680D02*
X107857142Y-56759060D01*
X82392857Y-50029299D02*
X82726190Y-49553108D01*
X82964285Y-50029299D02*
X82964285Y-49029299D01*
X82964285Y-49029299D02*
X82583333Y-49029299D01*
X82583333Y-49029299D02*
X82488095Y-49076918D01*
X82488095Y-49076918D02*
X82440476Y-49124537D01*
X82440476Y-49124537D02*
X82392857Y-49219775D01*
X82392857Y-49219775D02*
X82392857Y-49362632D01*
X82392857Y-49362632D02*
X82440476Y-49457870D01*
X82440476Y-49457870D02*
X82488095Y-49505489D01*
X82488095Y-49505489D02*
X82583333Y-49553108D01*
X82583333Y-49553108D02*
X82964285Y-49553108D01*
X81440476Y-50029299D02*
X82011904Y-50029299D01*
X81726190Y-50029299D02*
X81726190Y-49029299D01*
X81726190Y-49029299D02*
X81821428Y-49172156D01*
X81821428Y-49172156D02*
X81916666Y-49267394D01*
X81916666Y-49267394D02*
X82011904Y-49315013D01*
X80821428Y-49029299D02*
X80726190Y-49029299D01*
X80726190Y-49029299D02*
X80630952Y-49076918D01*
X80630952Y-49076918D02*
X80583333Y-49124537D01*
X80583333Y-49124537D02*
X80535714Y-49219775D01*
X80535714Y-49219775D02*
X80488095Y-49410251D01*
X80488095Y-49410251D02*
X80488095Y-49648346D01*
X80488095Y-49648346D02*
X80535714Y-49838822D01*
X80535714Y-49838822D02*
X80583333Y-49934060D01*
X80583333Y-49934060D02*
X80630952Y-49981680D01*
X80630952Y-49981680D02*
X80726190Y-50029299D01*
X80726190Y-50029299D02*
X80821428Y-50029299D01*
X80821428Y-50029299D02*
X80916666Y-49981680D01*
X80916666Y-49981680D02*
X80964285Y-49934060D01*
X80964285Y-49934060D02*
X81011904Y-49838822D01*
X81011904Y-49838822D02*
X81059523Y-49648346D01*
X81059523Y-49648346D02*
X81059523Y-49410251D01*
X81059523Y-49410251D02*
X81011904Y-49219775D01*
X81011904Y-49219775D02*
X80964285Y-49124537D01*
X80964285Y-49124537D02*
X80916666Y-49076918D01*
X80916666Y-49076918D02*
X80821428Y-49029299D01*
X125142857Y-52454299D02*
X125476190Y-51978108D01*
X125714285Y-52454299D02*
X125714285Y-51454299D01*
X125714285Y-51454299D02*
X125333333Y-51454299D01*
X125333333Y-51454299D02*
X125238095Y-51501918D01*
X125238095Y-51501918D02*
X125190476Y-51549537D01*
X125190476Y-51549537D02*
X125142857Y-51644775D01*
X125142857Y-51644775D02*
X125142857Y-51787632D01*
X125142857Y-51787632D02*
X125190476Y-51882870D01*
X125190476Y-51882870D02*
X125238095Y-51930489D01*
X125238095Y-51930489D02*
X125333333Y-51978108D01*
X125333333Y-51978108D02*
X125714285Y-51978108D01*
X124190476Y-52454299D02*
X124761904Y-52454299D01*
X124476190Y-52454299D02*
X124476190Y-51454299D01*
X124476190Y-51454299D02*
X124571428Y-51597156D01*
X124571428Y-51597156D02*
X124666666Y-51692394D01*
X124666666Y-51692394D02*
X124761904Y-51740013D01*
X123619047Y-51882870D02*
X123714285Y-51835251D01*
X123714285Y-51835251D02*
X123761904Y-51787632D01*
X123761904Y-51787632D02*
X123809523Y-51692394D01*
X123809523Y-51692394D02*
X123809523Y-51644775D01*
X123809523Y-51644775D02*
X123761904Y-51549537D01*
X123761904Y-51549537D02*
X123714285Y-51501918D01*
X123714285Y-51501918D02*
X123619047Y-51454299D01*
X123619047Y-51454299D02*
X123428571Y-51454299D01*
X123428571Y-51454299D02*
X123333333Y-51501918D01*
X123333333Y-51501918D02*
X123285714Y-51549537D01*
X123285714Y-51549537D02*
X123238095Y-51644775D01*
X123238095Y-51644775D02*
X123238095Y-51692394D01*
X123238095Y-51692394D02*
X123285714Y-51787632D01*
X123285714Y-51787632D02*
X123333333Y-51835251D01*
X123333333Y-51835251D02*
X123428571Y-51882870D01*
X123428571Y-51882870D02*
X123619047Y-51882870D01*
X123619047Y-51882870D02*
X123714285Y-51930489D01*
X123714285Y-51930489D02*
X123761904Y-51978108D01*
X123761904Y-51978108D02*
X123809523Y-52073346D01*
X123809523Y-52073346D02*
X123809523Y-52263822D01*
X123809523Y-52263822D02*
X123761904Y-52359060D01*
X123761904Y-52359060D02*
X123714285Y-52406680D01*
X123714285Y-52406680D02*
X123619047Y-52454299D01*
X123619047Y-52454299D02*
X123428571Y-52454299D01*
X123428571Y-52454299D02*
X123333333Y-52406680D01*
X123333333Y-52406680D02*
X123285714Y-52359060D01*
X123285714Y-52359060D02*
X123238095Y-52263822D01*
X123238095Y-52263822D02*
X123238095Y-52073346D01*
X123238095Y-52073346D02*
X123285714Y-51978108D01*
X123285714Y-51978108D02*
X123333333Y-51930489D01*
X123333333Y-51930489D02*
X123428571Y-51882870D01*
X72121745Y-60386043D02*
X72189088Y-60386043D01*
X72189088Y-60386043D02*
X72323775Y-60318700D01*
X72323775Y-60318700D02*
X72391119Y-60251356D01*
X72391119Y-60251356D02*
X72458462Y-60116669D01*
X72458462Y-60116669D02*
X72458462Y-59981982D01*
X72458462Y-59981982D02*
X72424790Y-59880967D01*
X72424790Y-59880967D02*
X72323775Y-59712608D01*
X72323775Y-59712608D02*
X72222760Y-59611593D01*
X72222760Y-59611593D02*
X72054401Y-59510578D01*
X72054401Y-59510578D02*
X71953386Y-59476906D01*
X71953386Y-59476906D02*
X71818699Y-59476906D01*
X71818699Y-59476906D02*
X71684012Y-59544249D01*
X71684012Y-59544249D02*
X71616668Y-59611593D01*
X71616668Y-59611593D02*
X71549325Y-59746280D01*
X71549325Y-59746280D02*
X71549325Y-59813623D01*
X71852371Y-60790104D02*
X71717684Y-60924791D01*
X71717684Y-60924791D02*
X71616668Y-60958463D01*
X71616668Y-60958463D02*
X71549325Y-60958463D01*
X71549325Y-60958463D02*
X71380966Y-60924791D01*
X71380966Y-60924791D02*
X71212607Y-60823776D01*
X71212607Y-60823776D02*
X70943233Y-60554402D01*
X70943233Y-60554402D02*
X70909562Y-60453387D01*
X70909562Y-60453387D02*
X70909562Y-60386043D01*
X70909562Y-60386043D02*
X70943233Y-60285028D01*
X70943233Y-60285028D02*
X71077920Y-60150341D01*
X71077920Y-60150341D02*
X71178936Y-60116669D01*
X71178936Y-60116669D02*
X71246279Y-60116669D01*
X71246279Y-60116669D02*
X71347294Y-60150341D01*
X71347294Y-60150341D02*
X71515653Y-60318700D01*
X71515653Y-60318700D02*
X71549325Y-60419715D01*
X71549325Y-60419715D02*
X71549325Y-60487058D01*
X71549325Y-60487058D02*
X71515653Y-60588074D01*
X71515653Y-60588074D02*
X71380966Y-60722761D01*
X71380966Y-60722761D02*
X71279951Y-60756432D01*
X71279951Y-60756432D02*
X71212607Y-60756432D01*
X71212607Y-60756432D02*
X71111592Y-60722761D01*
X144242857Y-52359060D02*
X144290476Y-52406680D01*
X144290476Y-52406680D02*
X144433333Y-52454299D01*
X144433333Y-52454299D02*
X144528571Y-52454299D01*
X144528571Y-52454299D02*
X144671428Y-52406680D01*
X144671428Y-52406680D02*
X144766666Y-52311441D01*
X144766666Y-52311441D02*
X144814285Y-52216203D01*
X144814285Y-52216203D02*
X144861904Y-52025727D01*
X144861904Y-52025727D02*
X144861904Y-51882870D01*
X144861904Y-51882870D02*
X144814285Y-51692394D01*
X144814285Y-51692394D02*
X144766666Y-51597156D01*
X144766666Y-51597156D02*
X144671428Y-51501918D01*
X144671428Y-51501918D02*
X144528571Y-51454299D01*
X144528571Y-51454299D02*
X144433333Y-51454299D01*
X144433333Y-51454299D02*
X144290476Y-51501918D01*
X144290476Y-51501918D02*
X144242857Y-51549537D01*
X143290476Y-52454299D02*
X143861904Y-52454299D01*
X143576190Y-52454299D02*
X143576190Y-51454299D01*
X143576190Y-51454299D02*
X143671428Y-51597156D01*
X143671428Y-51597156D02*
X143766666Y-51692394D01*
X143766666Y-51692394D02*
X143861904Y-51740013D01*
X142957142Y-51454299D02*
X142338095Y-51454299D01*
X142338095Y-51454299D02*
X142671428Y-51835251D01*
X142671428Y-51835251D02*
X142528571Y-51835251D01*
X142528571Y-51835251D02*
X142433333Y-51882870D01*
X142433333Y-51882870D02*
X142385714Y-51930489D01*
X142385714Y-51930489D02*
X142338095Y-52025727D01*
X142338095Y-52025727D02*
X142338095Y-52263822D01*
X142338095Y-52263822D02*
X142385714Y-52359060D01*
X142385714Y-52359060D02*
X142433333Y-52406680D01*
X142433333Y-52406680D02*
X142528571Y-52454299D01*
X142528571Y-52454299D02*
X142814285Y-52454299D01*
X142814285Y-52454299D02*
X142909523Y-52406680D01*
X142909523Y-52406680D02*
X142957142Y-52359060D01*
X151288956Y-56921746D02*
X151288956Y-56989089D01*
X151288956Y-56989089D02*
X151356299Y-57123776D01*
X151356299Y-57123776D02*
X151423643Y-57191120D01*
X151423643Y-57191120D02*
X151558330Y-57258463D01*
X151558330Y-57258463D02*
X151693017Y-57258463D01*
X151693017Y-57258463D02*
X151794032Y-57224791D01*
X151794032Y-57224791D02*
X151962391Y-57123776D01*
X151962391Y-57123776D02*
X152063406Y-57022761D01*
X152063406Y-57022761D02*
X152164421Y-56854402D01*
X152164421Y-56854402D02*
X152198093Y-56753387D01*
X152198093Y-56753387D02*
X152198093Y-56618700D01*
X152198093Y-56618700D02*
X152130750Y-56484013D01*
X152130750Y-56484013D02*
X152063406Y-56416669D01*
X152063406Y-56416669D02*
X151928719Y-56349326D01*
X151928719Y-56349326D02*
X151861376Y-56349326D01*
X151221612Y-56180967D02*
X151322628Y-56214639D01*
X151322628Y-56214639D02*
X151389971Y-56214639D01*
X151389971Y-56214639D02*
X151490986Y-56180967D01*
X151490986Y-56180967D02*
X151524658Y-56147295D01*
X151524658Y-56147295D02*
X151558330Y-56046280D01*
X151558330Y-56046280D02*
X151558330Y-55978937D01*
X151558330Y-55978937D02*
X151524658Y-55877921D01*
X151524658Y-55877921D02*
X151389971Y-55743234D01*
X151389971Y-55743234D02*
X151288956Y-55709563D01*
X151288956Y-55709563D02*
X151221612Y-55709563D01*
X151221612Y-55709563D02*
X151120597Y-55743234D01*
X151120597Y-55743234D02*
X151086925Y-55776906D01*
X151086925Y-55776906D02*
X151053254Y-55877921D01*
X151053254Y-55877921D02*
X151053254Y-55945265D01*
X151053254Y-55945265D02*
X151086925Y-56046280D01*
X151086925Y-56046280D02*
X151221612Y-56180967D01*
X151221612Y-56180967D02*
X151255284Y-56281982D01*
X151255284Y-56281982D02*
X151255284Y-56349326D01*
X151255284Y-56349326D02*
X151221612Y-56450341D01*
X151221612Y-56450341D02*
X151086925Y-56585028D01*
X151086925Y-56585028D02*
X150985910Y-56618700D01*
X150985910Y-56618700D02*
X150918567Y-56618700D01*
X150918567Y-56618700D02*
X150817551Y-56585028D01*
X150817551Y-56585028D02*
X150682864Y-56450341D01*
X150682864Y-56450341D02*
X150649193Y-56349326D01*
X150649193Y-56349326D02*
X150649193Y-56281982D01*
X150649193Y-56281982D02*
X150682864Y-56180967D01*
X150682864Y-56180967D02*
X150817551Y-56046280D01*
X150817551Y-56046280D02*
X150918567Y-56012608D01*
X150918567Y-56012608D02*
X150985910Y-56012608D01*
X150985910Y-56012608D02*
X151086925Y-56046280D01*
X119642857Y-55454299D02*
X119976190Y-54978108D01*
X120214285Y-55454299D02*
X120214285Y-54454299D01*
X120214285Y-54454299D02*
X119833333Y-54454299D01*
X119833333Y-54454299D02*
X119738095Y-54501918D01*
X119738095Y-54501918D02*
X119690476Y-54549537D01*
X119690476Y-54549537D02*
X119642857Y-54644775D01*
X119642857Y-54644775D02*
X119642857Y-54787632D01*
X119642857Y-54787632D02*
X119690476Y-54882870D01*
X119690476Y-54882870D02*
X119738095Y-54930489D01*
X119738095Y-54930489D02*
X119833333Y-54978108D01*
X119833333Y-54978108D02*
X120214285Y-54978108D01*
X119261904Y-54549537D02*
X119214285Y-54501918D01*
X119214285Y-54501918D02*
X119119047Y-54454299D01*
X119119047Y-54454299D02*
X118880952Y-54454299D01*
X118880952Y-54454299D02*
X118785714Y-54501918D01*
X118785714Y-54501918D02*
X118738095Y-54549537D01*
X118738095Y-54549537D02*
X118690476Y-54644775D01*
X118690476Y-54644775D02*
X118690476Y-54740013D01*
X118690476Y-54740013D02*
X118738095Y-54882870D01*
X118738095Y-54882870D02*
X119309523Y-55454299D01*
X119309523Y-55454299D02*
X118690476Y-55454299D01*
X118309523Y-54549537D02*
X118261904Y-54501918D01*
X118261904Y-54501918D02*
X118166666Y-54454299D01*
X118166666Y-54454299D02*
X117928571Y-54454299D01*
X117928571Y-54454299D02*
X117833333Y-54501918D01*
X117833333Y-54501918D02*
X117785714Y-54549537D01*
X117785714Y-54549537D02*
X117738095Y-54644775D01*
X117738095Y-54644775D02*
X117738095Y-54740013D01*
X117738095Y-54740013D02*
X117785714Y-54882870D01*
X117785714Y-54882870D02*
X118357142Y-55454299D01*
X118357142Y-55454299D02*
X117738095Y-55454299D01*
X115591666Y-52154299D02*
X115924999Y-51678108D01*
X116163094Y-52154299D02*
X116163094Y-51154299D01*
X116163094Y-51154299D02*
X115782142Y-51154299D01*
X115782142Y-51154299D02*
X115686904Y-51201918D01*
X115686904Y-51201918D02*
X115639285Y-51249537D01*
X115639285Y-51249537D02*
X115591666Y-51344775D01*
X115591666Y-51344775D02*
X115591666Y-51487632D01*
X115591666Y-51487632D02*
X115639285Y-51582870D01*
X115639285Y-51582870D02*
X115686904Y-51630489D01*
X115686904Y-51630489D02*
X115782142Y-51678108D01*
X115782142Y-51678108D02*
X116163094Y-51678108D01*
X114734523Y-51154299D02*
X114924999Y-51154299D01*
X114924999Y-51154299D02*
X115020237Y-51201918D01*
X115020237Y-51201918D02*
X115067856Y-51249537D01*
X115067856Y-51249537D02*
X115163094Y-51392394D01*
X115163094Y-51392394D02*
X115210713Y-51582870D01*
X115210713Y-51582870D02*
X115210713Y-51963822D01*
X115210713Y-51963822D02*
X115163094Y-52059060D01*
X115163094Y-52059060D02*
X115115475Y-52106680D01*
X115115475Y-52106680D02*
X115020237Y-52154299D01*
X115020237Y-52154299D02*
X114829761Y-52154299D01*
X114829761Y-52154299D02*
X114734523Y-52106680D01*
X114734523Y-52106680D02*
X114686904Y-52059060D01*
X114686904Y-52059060D02*
X114639285Y-51963822D01*
X114639285Y-51963822D02*
X114639285Y-51725727D01*
X114639285Y-51725727D02*
X114686904Y-51630489D01*
X114686904Y-51630489D02*
X114734523Y-51582870D01*
X114734523Y-51582870D02*
X114829761Y-51535251D01*
X114829761Y-51535251D02*
X115020237Y-51535251D01*
X115020237Y-51535251D02*
X115115475Y-51582870D01*
X115115475Y-51582870D02*
X115163094Y-51630489D01*
X115163094Y-51630489D02*
X115210713Y-51725727D01*
X157700674Y-63458463D02*
X157700674Y-63525806D01*
X157700674Y-63525806D02*
X157768017Y-63660493D01*
X157768017Y-63660493D02*
X157835361Y-63727837D01*
X157835361Y-63727837D02*
X157970048Y-63795180D01*
X157970048Y-63795180D02*
X158104735Y-63795180D01*
X158104735Y-63795180D02*
X158205750Y-63761508D01*
X158205750Y-63761508D02*
X158374109Y-63660493D01*
X158374109Y-63660493D02*
X158475124Y-63559478D01*
X158475124Y-63559478D02*
X158576139Y-63391119D01*
X158576139Y-63391119D02*
X158609811Y-63290104D01*
X158609811Y-63290104D02*
X158609811Y-63155417D01*
X158609811Y-63155417D02*
X158542468Y-63020730D01*
X158542468Y-63020730D02*
X158475124Y-62953386D01*
X158475124Y-62953386D02*
X158340437Y-62886043D01*
X158340437Y-62886043D02*
X158273094Y-62886043D01*
X156959895Y-62852371D02*
X157363956Y-63256432D01*
X157161926Y-63054402D02*
X157869033Y-62347295D01*
X157869033Y-62347295D02*
X157835361Y-62515654D01*
X157835361Y-62515654D02*
X157835361Y-62650341D01*
X157835361Y-62650341D02*
X157869033Y-62751356D01*
X156825208Y-61774875D02*
X156353804Y-62246280D01*
X157262941Y-61673860D02*
X156926223Y-62347295D01*
X156926223Y-62347295D02*
X156488491Y-61909562D01*
X134666666Y-53854299D02*
X134999999Y-53378108D01*
X135238094Y-53854299D02*
X135238094Y-52854299D01*
X135238094Y-52854299D02*
X134857142Y-52854299D01*
X134857142Y-52854299D02*
X134761904Y-52901918D01*
X134761904Y-52901918D02*
X134714285Y-52949537D01*
X134714285Y-52949537D02*
X134666666Y-53044775D01*
X134666666Y-53044775D02*
X134666666Y-53187632D01*
X134666666Y-53187632D02*
X134714285Y-53282870D01*
X134714285Y-53282870D02*
X134761904Y-53330489D01*
X134761904Y-53330489D02*
X134857142Y-53378108D01*
X134857142Y-53378108D02*
X135238094Y-53378108D01*
X134333332Y-52854299D02*
X133666666Y-52854299D01*
X133666666Y-52854299D02*
X134095237Y-53854299D01*
D11*
%TO.C,C2*%
X121959420Y-52890000D02*
X122240580Y-52890000D01*
X121959420Y-53910000D02*
X122240580Y-53910000D01*
%TO.C,Q1*%
X110437000Y-58482000D02*
X112112000Y-58482000D01*
X111462000Y-55362000D02*
X112112000Y-55362000D01*
X112762000Y-55362000D02*
X112112000Y-55362000D01*
X112762000Y-58482000D02*
X112112000Y-58482000D01*
%TO.C,C1*%
X121984420Y-54465000D02*
X122265580Y-54465000D01*
X121984420Y-55485000D02*
X122265580Y-55485000D01*
%TO.C,R3*%
X73598303Y-62262770D02*
X73262770Y-62598303D01*
X74337230Y-63001697D02*
X74001697Y-63337230D01*
%TO.C,R20*%
X154212770Y-64951697D02*
X154548303Y-65287230D01*
X154951697Y-64212770D02*
X155287230Y-64548303D01*
%TO.C,R21*%
X115687742Y-56227500D02*
X116162258Y-56227500D01*
X115687742Y-57272500D02*
X116162258Y-57272500D01*
%TO.C,R17*%
X108737258Y-51377500D02*
X108262742Y-51377500D01*
X108737258Y-52422500D02*
X108262742Y-52422500D01*
%TO.C,R12*%
X122737258Y-46777500D02*
X122262742Y-46777500D01*
X122737258Y-47822500D02*
X122262742Y-47822500D01*
%TO.C,R4*%
X80237258Y-53077500D02*
X79762742Y-53077500D01*
X80237258Y-54122500D02*
X79762742Y-54122500D01*
%TO.C,C11*%
X108640580Y-49490000D02*
X108359420Y-49490000D01*
X108640580Y-50510000D02*
X108359420Y-50510000D01*
%TO.C,C7*%
X136859420Y-51240000D02*
X137140580Y-51240000D01*
X136859420Y-52260000D02*
X137140580Y-52260000D01*
%TO.C,R5*%
X100987258Y-51477500D02*
X100512742Y-51477500D01*
X100987258Y-52522500D02*
X100512742Y-52522500D01*
%TO.C,C6*%
X117859420Y-49490000D02*
X118140580Y-49490000D01*
X117859420Y-50510000D02*
X118140580Y-50510000D01*
%TO.C,R13*%
X141987258Y-49052500D02*
X141512742Y-49052500D01*
X141987258Y-50097500D02*
X141512742Y-50097500D01*
%TO.C,R19*%
X146262742Y-52977500D02*
X146737258Y-52977500D01*
X146262742Y-54022500D02*
X146737258Y-54022500D01*
%TO.C,R11*%
X103987258Y-46977500D02*
X103512742Y-46977500D01*
X103987258Y-48022500D02*
X103512742Y-48022500D01*
%TO.C,C3*%
X66539970Y-64738781D02*
X66738781Y-64539970D01*
X67261219Y-65460030D02*
X67460030Y-65261219D01*
%TO.C,R15*%
X78389940Y-57221133D02*
X78054407Y-57556666D01*
X79128867Y-57960060D02*
X78793334Y-58295593D01*
%TO.C,C10*%
X89640580Y-51490000D02*
X89359420Y-51490000D01*
X89640580Y-52510000D02*
X89359420Y-52510000D01*
%TO.C,R8*%
X148962770Y-58201697D02*
X149298303Y-58537230D01*
X149701697Y-57462770D02*
X150037230Y-57798303D01*
%TO.C,R14*%
X157798303Y-60537230D02*
X157462770Y-60201697D01*
X158537230Y-59798303D02*
X158201697Y-59462770D01*
%TO.C,R16*%
X91062258Y-53477500D02*
X90587742Y-53477500D01*
X91062258Y-54522500D02*
X90587742Y-54522500D01*
%TO.C,C4*%
X80140580Y-51490000D02*
X79859420Y-51490000D01*
X80140580Y-52510000D02*
X79859420Y-52510000D01*
%TO.C,C12*%
X127359420Y-49240000D02*
X127640580Y-49240000D01*
X127359420Y-50260000D02*
X127640580Y-50260000D01*
%TO.C,C5*%
X99140580Y-49490000D02*
X98859420Y-49490000D01*
X99140580Y-50510000D02*
X98859420Y-50510000D01*
%TO.C,R9*%
X68298303Y-59462770D02*
X67962770Y-59798303D01*
X69037230Y-60201697D02*
X68701697Y-60537230D01*
%TO.C,R23*%
X108737258Y-57377500D02*
X108262742Y-57377500D01*
X108737258Y-58422500D02*
X108262742Y-58422500D01*
%TO.C,R10*%
X84987258Y-49052500D02*
X84512742Y-49052500D01*
X84987258Y-50097500D02*
X84512742Y-50097500D01*
%TO.C,R18*%
X127262742Y-51477500D02*
X127737258Y-51477500D01*
X127262742Y-52522500D02*
X127737258Y-52522500D01*
%TO.C,C9*%
X73039970Y-58238781D02*
X73238781Y-58039970D01*
X73761219Y-58960030D02*
X73960030Y-58761219D01*
%TO.C,C13*%
X146384420Y-51490000D02*
X146665580Y-51490000D01*
X146384420Y-52510000D02*
X146665580Y-52510000D01*
%TO.C,C8*%
X152938781Y-58760030D02*
X152739970Y-58561219D01*
X153660030Y-58038781D02*
X153461219Y-57839970D01*
%TO.C,R22*%
X115687742Y-54477500D02*
X116162258Y-54477500D01*
X115687742Y-55522500D02*
X116162258Y-55522500D01*
%TO.C,R6*%
X117762742Y-51177500D02*
X118237258Y-51177500D01*
X117762742Y-52222500D02*
X118237258Y-52222500D01*
%TO.C,C14*%
X159238781Y-65460030D02*
X159039970Y-65261219D01*
X159960030Y-64738781D02*
X159761219Y-64539970D01*
%TO.C,R7*%
X136737742Y-52777500D02*
X137212258Y-52777500D01*
X136737742Y-53822500D02*
X137212258Y-53822500D01*
%TD*%
M02*
