%TF.GenerationSoftware,KiCad,Pcbnew,8.0.4*%
%TF.CreationDate,2024-11-30T14:16:15+01:00*%
%TF.ProjectId,Sensor_PCB,53656e73-6f72-45f5-9043-422e6b696361,rev?*%
%TF.SameCoordinates,Original*%
%TF.FileFunction,Copper,L3,Inr*%
%TF.FilePolarity,Positive*%
%FSLAX46Y46*%
G04 Gerber Fmt 4.6, Leading zero omitted, Abs format (unit mm)*
G04 Created by KiCad (PCBNEW 8.0.4) date 2024-11-30 14:16:15*
%MOMM*%
%LPD*%
G01*
G04 APERTURE LIST*
%TA.AperFunction,ViaPad*%
%ADD10C,0.650000*%
%TD*%
%TA.AperFunction,ViaPad*%
%ADD11C,0.600000*%
%TD*%
G04 APERTURE END LIST*
D10*
%TO.N,+5V*%
X132200000Y-52700000D03*
X117250000Y-57800000D03*
X113600000Y-50000000D03*
D11*
X83400000Y-51300000D03*
D10*
X132300000Y-49000000D03*
X116300000Y-58000000D03*
X112800000Y-53100000D03*
X154800000Y-62100000D03*
X148900000Y-55200000D03*
X94200000Y-49600000D03*
X121700000Y-49300000D03*
D11*
X118400000Y-56000000D03*
X65900000Y-68200000D03*
D10*
%TO.N,GND*%
X163000000Y-65400000D03*
X131000000Y-50600000D03*
X83100000Y-52600000D03*
X102300000Y-50500000D03*
X111800000Y-50700000D03*
X121500000Y-51600000D03*
X156500000Y-60300000D03*
X121500000Y-50300000D03*
X63800000Y-64500000D03*
X140500000Y-52200000D03*
X108625000Y-56400000D03*
X149700000Y-52600000D03*
X93000000Y-52700000D03*
X70400000Y-57900000D03*
%TO.N,Net-(C3-Pad1)*%
X72300000Y-62500000D03*
%TO.N,Net-(C4-Pad1)*%
X79200000Y-52800000D03*
%TO.N,Net-(C5-Pad1)*%
X98500000Y-51000000D03*
%TO.N,Net-(C6-Pad1)*%
X118800000Y-50900000D03*
%TO.N,Net-(C7-Pad1)*%
X137800000Y-52500000D03*
%TO.N,Net-(C8-Pad1)*%
X152014492Y-58414492D03*
%TO.N,Net-(C9-Pad1)*%
X77000000Y-57300000D03*
%TO.N,Net-(C10-Pad1)*%
X88700000Y-53100000D03*
%TO.N,Net-(C11-Pad1)*%
X107700000Y-51000000D03*
%TO.N,Net-(C12-Pad1)*%
X128300000Y-50900000D03*
%TO.N,Net-(C13-Pad1)*%
X147300000Y-52800000D03*
%TO.N,Net-(C14-Pad1)*%
X156200000Y-64500000D03*
%TO.N,Net-(IC1-Pad4)*%
X67300000Y-62500000D03*
%TO.N,Net-(IC3-Pad4)*%
X98100000Y-47500000D03*
%TO.N,Net-(IC5-Pad4)*%
X135500000Y-49600000D03*
%TO.N,Net-(IC8-Pad1)*%
X89800000Y-49500000D03*
%TO.N,Net-(IC10-Pad1)*%
X127200000Y-47250000D03*
%TO.N,Net-(IC12-Pad1)*%
X160600000Y-62400000D03*
%TO.N,SENSOR1*%
X75500000Y-61100000D03*
%TO.N,SENSOR3*%
X82400000Y-54400000D03*
%TO.N,SENSOR5*%
X103300000Y-52700000D03*
%TO.N,SENSOR7*%
X114900000Y-53000000D03*
%TO.N,SENSOR9*%
X128300000Y-53400000D03*
%TO.N,SENSOR11*%
X126200000Y-54600000D03*
%TO.N,SENSOR2*%
X106200000Y-54600000D03*
%TO.N,SENSOR4*%
X93100000Y-53900000D03*
%TO.N,SENSOR6*%
X113000000Y-51900000D03*
%TO.N,SENSOR8*%
X125400000Y-52706980D03*
%TO.N,SENSOR10*%
X127900000Y-54500000D03*
%TO.N,SENSOR12*%
X150800000Y-61100000D03*
%TO.N,LED_ON*%
X110100000Y-57900000D03*
%TO.N,Net-(IC2-Pad4)*%
X79400000Y-49500000D03*
%TO.N,Net-(IC4-Pad4)*%
X117800000Y-47250000D03*
%TO.N,Net-(IC6-Pad4)*%
X153200000Y-55700000D03*
%TO.N,Net-(IC7-Pad1)*%
X70200000Y-59100000D03*
%TO.N,Net-(IC9-Pad1)*%
X109300000Y-47500000D03*
%TO.N,Net-(IC11-Pad1)*%
X146500000Y-49500000D03*
%TO.N,Line_4*%
X142900000Y-50800000D03*
X156100000Y-62700000D03*
X86400000Y-51100000D03*
X74700000Y-59400000D03*
X119800000Y-57700000D03*
X123100000Y-48700000D03*
X105400000Y-49100000D03*
%TD*%
%TA.AperFunction,Conductor*%
%TO.N,GND*%
G36*
X97407544Y-46820185D02*
G01*
X97453299Y-46872989D01*
X97463243Y-46942147D01*
X97434218Y-47005703D01*
X97432655Y-47007472D01*
X97428476Y-47012112D01*
X97341712Y-47162391D01*
X97288093Y-47327420D01*
X97288092Y-47327424D01*
X97269953Y-47500000D01*
X97288092Y-47672576D01*
X97288093Y-47672579D01*
X97341712Y-47837608D01*
X97428477Y-47987887D01*
X97428476Y-47987887D01*
X97524434Y-48094459D01*
X97544590Y-48116845D01*
X97623700Y-48174322D01*
X97684976Y-48218842D01*
X97843495Y-48289420D01*
X97843501Y-48289422D01*
X98013236Y-48325500D01*
X98013237Y-48325500D01*
X98186762Y-48325500D01*
X98186764Y-48325500D01*
X98356499Y-48289422D01*
X98356501Y-48289420D01*
X98356504Y-48289420D01*
X98409899Y-48265646D01*
X98515024Y-48218842D01*
X98655410Y-48116845D01*
X98771522Y-47987889D01*
X98858286Y-47837611D01*
X98911908Y-47672576D01*
X98930047Y-47500000D01*
X98911908Y-47327424D01*
X98858286Y-47162389D01*
X98771522Y-47012111D01*
X98767344Y-47007471D01*
X98737115Y-46944480D01*
X98745740Y-46875145D01*
X98790482Y-46821480D01*
X98857134Y-46800522D01*
X98859495Y-46800500D01*
X108540505Y-46800500D01*
X108607544Y-46820185D01*
X108653299Y-46872989D01*
X108663243Y-46942147D01*
X108634218Y-47005703D01*
X108632655Y-47007472D01*
X108628476Y-47012112D01*
X108541712Y-47162391D01*
X108488093Y-47327420D01*
X108488092Y-47327424D01*
X108469953Y-47500000D01*
X108488092Y-47672576D01*
X108488093Y-47672579D01*
X108541712Y-47837608D01*
X108628477Y-47987887D01*
X108628476Y-47987887D01*
X108724434Y-48094459D01*
X108744590Y-48116845D01*
X108823700Y-48174322D01*
X108884976Y-48218842D01*
X109043495Y-48289420D01*
X109043501Y-48289422D01*
X109213236Y-48325500D01*
X109213237Y-48325500D01*
X109386762Y-48325500D01*
X109386764Y-48325500D01*
X109556499Y-48289422D01*
X109556501Y-48289420D01*
X109556504Y-48289420D01*
X109609899Y-48265646D01*
X109715024Y-48218842D01*
X109855410Y-48116845D01*
X109971522Y-47987889D01*
X110058286Y-47837611D01*
X110111908Y-47672576D01*
X110130047Y-47500000D01*
X110111908Y-47327424D01*
X110058286Y-47162389D01*
X109971522Y-47012111D01*
X109967344Y-47007471D01*
X109937115Y-46944480D01*
X109945740Y-46875145D01*
X109990482Y-46821480D01*
X110057134Y-46800522D01*
X110059495Y-46800500D01*
X113210438Y-46800500D01*
X116907398Y-46800500D01*
X116974437Y-46820185D01*
X117020192Y-46872989D01*
X117030136Y-46942147D01*
X117025329Y-46962817D01*
X117009313Y-47012112D01*
X116988092Y-47077424D01*
X116969953Y-47250000D01*
X116988092Y-47422576D01*
X116988093Y-47422579D01*
X117041712Y-47587608D01*
X117128477Y-47737887D01*
X117128476Y-47737887D01*
X117128478Y-47737889D01*
X117244590Y-47866845D01*
X117377546Y-47963444D01*
X117384976Y-47968842D01*
X117543495Y-48039420D01*
X117543501Y-48039422D01*
X117713236Y-48075500D01*
X117713237Y-48075500D01*
X117886762Y-48075500D01*
X117886764Y-48075500D01*
X118056499Y-48039422D01*
X118056501Y-48039420D01*
X118056504Y-48039420D01*
X118109899Y-48015646D01*
X118215024Y-47968842D01*
X118355410Y-47866845D01*
X118471522Y-47737889D01*
X118558286Y-47587611D01*
X118611908Y-47422576D01*
X118630047Y-47250000D01*
X118611908Y-47077424D01*
X118574671Y-46962817D01*
X118572676Y-46892976D01*
X118608757Y-46833143D01*
X118671458Y-46802316D01*
X118692602Y-46800500D01*
X126307398Y-46800500D01*
X126374437Y-46820185D01*
X126420192Y-46872989D01*
X126430136Y-46942147D01*
X126425329Y-46962817D01*
X126409313Y-47012112D01*
X126388092Y-47077424D01*
X126369953Y-47250000D01*
X126388092Y-47422576D01*
X126388093Y-47422579D01*
X126441712Y-47587608D01*
X126528477Y-47737887D01*
X126528476Y-47737887D01*
X126528478Y-47737889D01*
X126644590Y-47866845D01*
X126777546Y-47963444D01*
X126784976Y-47968842D01*
X126943495Y-48039420D01*
X126943501Y-48039422D01*
X127113236Y-48075500D01*
X127113237Y-48075500D01*
X127286762Y-48075500D01*
X127286764Y-48075500D01*
X127456499Y-48039422D01*
X127456501Y-48039420D01*
X127456504Y-48039420D01*
X127509899Y-48015646D01*
X127615024Y-47968842D01*
X127755410Y-47866845D01*
X127871522Y-47737889D01*
X127958286Y-47587611D01*
X128011908Y-47422576D01*
X128030047Y-47250000D01*
X128011908Y-47077424D01*
X127974671Y-46962817D01*
X127972676Y-46892976D01*
X128008757Y-46833143D01*
X128071458Y-46802316D01*
X128092602Y-46800500D01*
X131074167Y-46800500D01*
X131141206Y-46820185D01*
X131161848Y-46836819D01*
X132288473Y-47963444D01*
X132321958Y-48024767D01*
X132316974Y-48094459D01*
X132275102Y-48150392D01*
X132219398Y-48172234D01*
X132219593Y-48173149D01*
X132214072Y-48174322D01*
X132213760Y-48174445D01*
X132213236Y-48174500D01*
X132043501Y-48210577D01*
X132043496Y-48210579D01*
X131884977Y-48281157D01*
X131884972Y-48281160D01*
X131744591Y-48383153D01*
X131744589Y-48383155D01*
X131628477Y-48512112D01*
X131541712Y-48662391D01*
X131493565Y-48810578D01*
X131488092Y-48827424D01*
X131469953Y-49000000D01*
X131488092Y-49172576D01*
X131488093Y-49172579D01*
X131541712Y-49337608D01*
X131628477Y-49487887D01*
X131628476Y-49487887D01*
X131629857Y-49489420D01*
X131744590Y-49616845D01*
X131821297Y-49672576D01*
X131884976Y-49718842D01*
X132043495Y-49789420D01*
X132043501Y-49789422D01*
X132213236Y-49825500D01*
X132213237Y-49825500D01*
X132386762Y-49825500D01*
X132386764Y-49825500D01*
X132556499Y-49789422D01*
X132556501Y-49789420D01*
X132556504Y-49789420D01*
X132609899Y-49765646D01*
X132715024Y-49718842D01*
X132855410Y-49616845D01*
X132971522Y-49487889D01*
X133058286Y-49337611D01*
X133111908Y-49172576D01*
X133121670Y-49079696D01*
X133148254Y-49015086D01*
X133205551Y-48975101D01*
X133275370Y-48972441D01*
X133307515Y-48988015D01*
X133308451Y-48986396D01*
X133315487Y-48990458D01*
X133315489Y-48990460D01*
X133332013Y-49000000D01*
X133384008Y-49030020D01*
X133384012Y-49030022D01*
X133460438Y-49050500D01*
X134649274Y-49050500D01*
X134716313Y-49070185D01*
X134762068Y-49122989D01*
X134772012Y-49192147D01*
X134756662Y-49236499D01*
X134741712Y-49262392D01*
X134690880Y-49418842D01*
X134688092Y-49427424D01*
X134669953Y-49600000D01*
X134688092Y-49772576D01*
X134688093Y-49772579D01*
X134741712Y-49937608D01*
X134828477Y-50087887D01*
X134828476Y-50087887D01*
X134914256Y-50183155D01*
X134944590Y-50216845D01*
X135044483Y-50289422D01*
X135084976Y-50318842D01*
X135243495Y-50389420D01*
X135243501Y-50389422D01*
X135413236Y-50425500D01*
X135413237Y-50425500D01*
X135586762Y-50425500D01*
X135586764Y-50425500D01*
X135756499Y-50389422D01*
X135756501Y-50389420D01*
X135756504Y-50389420D01*
X135872868Y-50337611D01*
X135915024Y-50318842D01*
X136055410Y-50216845D01*
X136171522Y-50087889D01*
X136258286Y-49937611D01*
X136311908Y-49772576D01*
X136330047Y-49600000D01*
X136311908Y-49427424D01*
X136258286Y-49262389D01*
X136243337Y-49236498D01*
X136226866Y-49168599D01*
X136249719Y-49102572D01*
X136304641Y-49059382D01*
X136350726Y-49050500D01*
X145607398Y-49050500D01*
X145674437Y-49070185D01*
X145720192Y-49122989D01*
X145730136Y-49192147D01*
X145725329Y-49212817D01*
X145703124Y-49281160D01*
X145688092Y-49327424D01*
X145669953Y-49500000D01*
X145688092Y-49672576D01*
X145688093Y-49672579D01*
X145741712Y-49837608D01*
X145828477Y-49987887D01*
X145828476Y-49987887D01*
X145919897Y-50089420D01*
X145944590Y-50116845D01*
X146035859Y-50183156D01*
X146084976Y-50218842D01*
X146243495Y-50289420D01*
X146243501Y-50289422D01*
X146413236Y-50325500D01*
X146413237Y-50325500D01*
X146586762Y-50325500D01*
X146586764Y-50325500D01*
X146756499Y-50289422D01*
X146756501Y-50289420D01*
X146756504Y-50289420D01*
X146809899Y-50265646D01*
X146915024Y-50218842D01*
X147055410Y-50116845D01*
X147171522Y-49987889D01*
X147258286Y-49837611D01*
X147311908Y-49672576D01*
X147330047Y-49500000D01*
X147311908Y-49327424D01*
X147274671Y-49212817D01*
X147272676Y-49142976D01*
X147308757Y-49083143D01*
X147371458Y-49052316D01*
X147392602Y-49050500D01*
X147824167Y-49050500D01*
X147891206Y-49070185D01*
X147911848Y-49086819D01*
X153514941Y-54689912D01*
X153548426Y-54751235D01*
X153543442Y-54820927D01*
X153501570Y-54876860D01*
X153436106Y-54901277D01*
X153401480Y-54898883D01*
X153286764Y-54874500D01*
X153113236Y-54874500D01*
X153098967Y-54877533D01*
X152943501Y-54910577D01*
X152943496Y-54910579D01*
X152784977Y-54981157D01*
X152784972Y-54981160D01*
X152644591Y-55083153D01*
X152644589Y-55083155D01*
X152528477Y-55212112D01*
X152441712Y-55362391D01*
X152388093Y-55527420D01*
X152388092Y-55527424D01*
X152369953Y-55700000D01*
X152388092Y-55872576D01*
X152388093Y-55872579D01*
X152441712Y-56037608D01*
X152528477Y-56187887D01*
X152528476Y-56187887D01*
X152528478Y-56187889D01*
X152644590Y-56316845D01*
X152784976Y-56418842D01*
X152943495Y-56489420D01*
X152943501Y-56489422D01*
X153113236Y-56525500D01*
X153113237Y-56525500D01*
X153286762Y-56525500D01*
X153286764Y-56525500D01*
X153456499Y-56489422D01*
X153456501Y-56489420D01*
X153456504Y-56489420D01*
X153509995Y-56465604D01*
X153615024Y-56418842D01*
X153755410Y-56316845D01*
X153871522Y-56187889D01*
X153958286Y-56037611D01*
X154011908Y-55872576D01*
X154030047Y-55700000D01*
X154011908Y-55527424D01*
X154007607Y-55514189D01*
X154005611Y-55444350D01*
X154041691Y-55384517D01*
X154104391Y-55353687D01*
X154173806Y-55361651D01*
X154213219Y-55388190D01*
X160279655Y-61454626D01*
X160313140Y-61515949D01*
X160308156Y-61585641D01*
X160266284Y-61641574D01*
X160242411Y-61655586D01*
X160184974Y-61681159D01*
X160184972Y-61681160D01*
X160044591Y-61783153D01*
X160044589Y-61783155D01*
X159928477Y-61912112D01*
X159841712Y-62062391D01*
X159793067Y-62212111D01*
X159788092Y-62227424D01*
X159769953Y-62400000D01*
X159788092Y-62572576D01*
X159788093Y-62572579D01*
X159841712Y-62737608D01*
X159928477Y-62887887D01*
X159928476Y-62887887D01*
X159929857Y-62889420D01*
X160044590Y-63016845D01*
X160073168Y-63037608D01*
X160184976Y-63118842D01*
X160343495Y-63189420D01*
X160343501Y-63189422D01*
X160513236Y-63225500D01*
X160513237Y-63225500D01*
X160686762Y-63225500D01*
X160686764Y-63225500D01*
X160856499Y-63189422D01*
X160856501Y-63189420D01*
X160856504Y-63189420D01*
X160909899Y-63165646D01*
X161015024Y-63118842D01*
X161155410Y-63016845D01*
X161271522Y-62887889D01*
X161352286Y-62748002D01*
X161402850Y-62699789D01*
X161471457Y-62686565D01*
X161536322Y-62712533D01*
X161547352Y-62722323D01*
X164503858Y-65678829D01*
X164503859Y-65678831D01*
X164503860Y-65678831D01*
X164533210Y-65708182D01*
X164541380Y-65717197D01*
X164624302Y-65818237D01*
X164637805Y-65838445D01*
X164696541Y-65948333D01*
X164705839Y-65970779D01*
X164736216Y-66070917D01*
X164742008Y-66090011D01*
X164746750Y-66113852D01*
X164758962Y-66237846D01*
X164758962Y-66262154D01*
X164746750Y-66386147D01*
X164742008Y-66409988D01*
X164705842Y-66529213D01*
X164696539Y-66551672D01*
X164637807Y-66661551D01*
X164624302Y-66681762D01*
X164541380Y-66782802D01*
X164533212Y-66791815D01*
X164509542Y-66815487D01*
X164509538Y-66815490D01*
X162411848Y-68913181D01*
X162350525Y-68946666D01*
X162324167Y-68949500D01*
X158175833Y-68949500D01*
X158108794Y-68929815D01*
X158088152Y-68913181D01*
X151274971Y-62100000D01*
X153969953Y-62100000D01*
X153988092Y-62272576D01*
X153988093Y-62272579D01*
X154041712Y-62437608D01*
X154128477Y-62587887D01*
X154128476Y-62587887D01*
X154128478Y-62587889D01*
X154244590Y-62716845D01*
X154252130Y-62722323D01*
X154384976Y-62818842D01*
X154543495Y-62889420D01*
X154543501Y-62889422D01*
X154713236Y-62925500D01*
X154713237Y-62925500D01*
X154886762Y-62925500D01*
X154886764Y-62925500D01*
X155056499Y-62889422D01*
X155056501Y-62889420D01*
X155056504Y-62889420D01*
X155137794Y-62853227D01*
X155207044Y-62843942D01*
X155270320Y-62873570D01*
X155306161Y-62928189D01*
X155341712Y-63037608D01*
X155428477Y-63187887D01*
X155428476Y-63187887D01*
X155519897Y-63289420D01*
X155544590Y-63316845D01*
X155556503Y-63325500D01*
X155684976Y-63418842D01*
X155843495Y-63489420D01*
X155843497Y-63489420D01*
X155843501Y-63489422D01*
X155874108Y-63495927D01*
X155935588Y-63529118D01*
X155969365Y-63590281D01*
X155964713Y-63659995D01*
X155923109Y-63716128D01*
X155898763Y-63730496D01*
X155784974Y-63781159D01*
X155784972Y-63781160D01*
X155644591Y-63883153D01*
X155644589Y-63883155D01*
X155528477Y-64012112D01*
X155441712Y-64162391D01*
X155388093Y-64327420D01*
X155388092Y-64327424D01*
X155369953Y-64500000D01*
X155388092Y-64672576D01*
X155388093Y-64672579D01*
X155441712Y-64837608D01*
X155528477Y-64987887D01*
X155528476Y-64987887D01*
X155528478Y-64987889D01*
X155644590Y-65116845D01*
X155784976Y-65218842D01*
X155943495Y-65289420D01*
X155943501Y-65289422D01*
X156113236Y-65325500D01*
X156113237Y-65325500D01*
X156286762Y-65325500D01*
X156286764Y-65325500D01*
X156456499Y-65289422D01*
X156456501Y-65289420D01*
X156456504Y-65289420D01*
X156536372Y-65253860D01*
X156615024Y-65218842D01*
X156755410Y-65116845D01*
X156871522Y-64987889D01*
X156958286Y-64837611D01*
X157011908Y-64672576D01*
X157030047Y-64500000D01*
X157011908Y-64327424D01*
X156958286Y-64162389D01*
X156871522Y-64012111D01*
X156755410Y-63883155D01*
X156615027Y-63781160D01*
X156615023Y-63781157D01*
X156456504Y-63710579D01*
X156456499Y-63710578D01*
X156425891Y-63704072D01*
X156364409Y-63670879D01*
X156330633Y-63609716D01*
X156335287Y-63540001D01*
X156376892Y-63483869D01*
X156401231Y-63469505D01*
X156515024Y-63418842D01*
X156655410Y-63316845D01*
X156771522Y-63187889D01*
X156858286Y-63037611D01*
X156911908Y-62872576D01*
X156930047Y-62700000D01*
X156911908Y-62527424D01*
X156858286Y-62362389D01*
X156771522Y-62212111D01*
X156655410Y-62083155D01*
X156515024Y-61981158D01*
X156515023Y-61981157D01*
X156356504Y-61910579D01*
X156356498Y-61910577D01*
X156222841Y-61882168D01*
X156186764Y-61874500D01*
X156013236Y-61874500D01*
X155983483Y-61880824D01*
X155843501Y-61910577D01*
X155843496Y-61910579D01*
X155762205Y-61946773D01*
X155692955Y-61956058D01*
X155629678Y-61926430D01*
X155593840Y-61871815D01*
X155558286Y-61762389D01*
X155471522Y-61612111D01*
X155447689Y-61585641D01*
X155355411Y-61483156D01*
X155215023Y-61381157D01*
X155056504Y-61310579D01*
X155056498Y-61310577D01*
X154922841Y-61282168D01*
X154886764Y-61274500D01*
X154713236Y-61274500D01*
X154683483Y-61280824D01*
X154543501Y-61310577D01*
X154543496Y-61310579D01*
X154384977Y-61381157D01*
X154384972Y-61381160D01*
X154244591Y-61483153D01*
X154244589Y-61483155D01*
X154128477Y-61612112D01*
X154041712Y-61762391D01*
X153993565Y-61910578D01*
X153988092Y-61927424D01*
X153969953Y-62100000D01*
X151274971Y-62100000D01*
X151189050Y-62014079D01*
X151155565Y-61952756D01*
X151160549Y-61883064D01*
X151202421Y-61827131D01*
X151214738Y-61819007D01*
X151215019Y-61818843D01*
X151215024Y-61818842D01*
X151355410Y-61716845D01*
X151471522Y-61587889D01*
X151558286Y-61437611D01*
X151611908Y-61272576D01*
X151630047Y-61100000D01*
X151611908Y-60927424D01*
X151558286Y-60762389D01*
X151471522Y-60612111D01*
X151355410Y-60483155D01*
X151267006Y-60418925D01*
X151215023Y-60381157D01*
X151056504Y-60310579D01*
X151056498Y-60310577D01*
X150922841Y-60282168D01*
X150886764Y-60274500D01*
X150713236Y-60274500D01*
X150683483Y-60280824D01*
X150543501Y-60310577D01*
X150543496Y-60310579D01*
X150384977Y-60381157D01*
X150384972Y-60381160D01*
X150244591Y-60483153D01*
X150244589Y-60483155D01*
X150128476Y-60612112D01*
X150128474Y-60612115D01*
X150084316Y-60688598D01*
X150033749Y-60736813D01*
X149965141Y-60750035D01*
X149900277Y-60724067D01*
X149889249Y-60714278D01*
X147589463Y-58414492D01*
X151184445Y-58414492D01*
X151202584Y-58587068D01*
X151202585Y-58587071D01*
X151256204Y-58752100D01*
X151300504Y-58828829D01*
X151324762Y-58870845D01*
X151342969Y-58902379D01*
X151342968Y-58902379D01*
X151445725Y-59016502D01*
X151459082Y-59031337D01*
X151553588Y-59100000D01*
X151599468Y-59133334D01*
X151757987Y-59203912D01*
X151757993Y-59203914D01*
X151927728Y-59239992D01*
X151927729Y-59239992D01*
X152101254Y-59239992D01*
X152101256Y-59239992D01*
X152270991Y-59203914D01*
X152270993Y-59203912D01*
X152270996Y-59203912D01*
X152324391Y-59180138D01*
X152429516Y-59133334D01*
X152569902Y-59031337D01*
X152686014Y-58902381D01*
X152772778Y-58752103D01*
X152826400Y-58587068D01*
X152844539Y-58414492D01*
X152826400Y-58241916D01*
X152772778Y-58076881D01*
X152686014Y-57926603D01*
X152569902Y-57797647D01*
X152473249Y-57727424D01*
X152429515Y-57695649D01*
X152270996Y-57625071D01*
X152270990Y-57625069D01*
X152137333Y-57596660D01*
X152101256Y-57588992D01*
X151927728Y-57588992D01*
X151897975Y-57595316D01*
X151757993Y-57625069D01*
X151757988Y-57625071D01*
X151599469Y-57695649D01*
X151599464Y-57695652D01*
X151459083Y-57797645D01*
X151459081Y-57797647D01*
X151342969Y-57926604D01*
X151256204Y-58076883D01*
X151202585Y-58241912D01*
X151202584Y-58241916D01*
X151184445Y-58414492D01*
X147589463Y-58414492D01*
X144684512Y-55509541D01*
X144684507Y-55509537D01*
X144664069Y-55497737D01*
X144664067Y-55497737D01*
X144637188Y-55482218D01*
X144615990Y-55469979D01*
X144590513Y-55463152D01*
X144539562Y-55449500D01*
X133539562Y-55449500D01*
X132047595Y-55449500D01*
X132000000Y-55449500D01*
X131860845Y-55449500D01*
X131860842Y-55449500D01*
X131695077Y-55469627D01*
X131584565Y-55483046D01*
X131477075Y-55509540D01*
X131314337Y-55549651D01*
X131054115Y-55648341D01*
X130807691Y-55777676D01*
X130807682Y-55777681D01*
X130578650Y-55935770D01*
X130578647Y-55935772D01*
X130578645Y-55935774D01*
X130370327Y-56120327D01*
X130310473Y-56187889D01*
X130185770Y-56328650D01*
X130027681Y-56557682D01*
X130027676Y-56557691D01*
X129898341Y-56804115D01*
X129799651Y-57064337D01*
X129784103Y-57127420D01*
X129733046Y-57334565D01*
X129727146Y-57383155D01*
X129699500Y-57610842D01*
X129699500Y-58246249D01*
X129699274Y-58253736D01*
X129682092Y-58537769D01*
X129680287Y-58552633D01*
X129629673Y-58828829D01*
X129626089Y-58843369D01*
X129542555Y-59111438D01*
X129537246Y-59125438D01*
X129422002Y-59381500D01*
X129415043Y-59394759D01*
X129269779Y-59635056D01*
X129261273Y-59647379D01*
X129088100Y-59868417D01*
X129078170Y-59879625D01*
X128879625Y-60078170D01*
X128868417Y-60088100D01*
X128647379Y-60261273D01*
X128635056Y-60269779D01*
X128394759Y-60415043D01*
X128381500Y-60422002D01*
X128125438Y-60537246D01*
X128111438Y-60542555D01*
X127843369Y-60626089D01*
X127828829Y-60629673D01*
X127552633Y-60680287D01*
X127537769Y-60682092D01*
X127257487Y-60699047D01*
X127242513Y-60699047D01*
X126962230Y-60682092D01*
X126947366Y-60680287D01*
X126671170Y-60629673D01*
X126656630Y-60626089D01*
X126388561Y-60542555D01*
X126374561Y-60537246D01*
X126118499Y-60422002D01*
X126105240Y-60415043D01*
X125864943Y-60269779D01*
X125852620Y-60261273D01*
X125806959Y-60225500D01*
X125631582Y-60088100D01*
X125620374Y-60078170D01*
X125421829Y-59879625D01*
X125411899Y-59868417D01*
X125309419Y-59737611D01*
X125238722Y-59647373D01*
X125230224Y-59635062D01*
X125084955Y-59394758D01*
X125077997Y-59381500D01*
X125008651Y-59227420D01*
X124962751Y-59125434D01*
X124957447Y-59111447D01*
X124873907Y-58843358D01*
X124870326Y-58828829D01*
X124861956Y-58783156D01*
X124819711Y-58552632D01*
X124817907Y-58537769D01*
X124814982Y-58489420D01*
X124800726Y-58253736D01*
X124800500Y-58246249D01*
X124800500Y-58147648D01*
X125949500Y-58147648D01*
X125949500Y-58352351D01*
X125981522Y-58554534D01*
X126044781Y-58749223D01*
X126085343Y-58828829D01*
X126135580Y-58927424D01*
X126137715Y-58931613D01*
X126258028Y-59097213D01*
X126402786Y-59241971D01*
X126557749Y-59354556D01*
X126568390Y-59362287D01*
X126680117Y-59419215D01*
X126750776Y-59455218D01*
X126750778Y-59455218D01*
X126750781Y-59455220D01*
X126855137Y-59489127D01*
X126945465Y-59518477D01*
X127046557Y-59534488D01*
X127147648Y-59550500D01*
X127147649Y-59550500D01*
X127352351Y-59550500D01*
X127352352Y-59550500D01*
X127554534Y-59518477D01*
X127749219Y-59455220D01*
X127931610Y-59362287D01*
X128024590Y-59294732D01*
X128097213Y-59241971D01*
X128097215Y-59241968D01*
X128097219Y-59241966D01*
X128241966Y-59097219D01*
X128241968Y-59097215D01*
X128241971Y-59097213D01*
X128300613Y-59016498D01*
X128362287Y-58931610D01*
X128455220Y-58749219D01*
X128518477Y-58554534D01*
X128550500Y-58352352D01*
X128550500Y-58147648D01*
X128530099Y-58018842D01*
X128518477Y-57945465D01*
X128480123Y-57827424D01*
X128455220Y-57750781D01*
X128455218Y-57750778D01*
X128455218Y-57750776D01*
X128391167Y-57625071D01*
X128362287Y-57568390D01*
X128321399Y-57512112D01*
X128241971Y-57402786D01*
X128097213Y-57258028D01*
X127931613Y-57137715D01*
X127931612Y-57137714D01*
X127931610Y-57137713D01*
X127874653Y-57108691D01*
X127749223Y-57044781D01*
X127554534Y-56981522D01*
X127379995Y-56953878D01*
X127352352Y-56949500D01*
X127147648Y-56949500D01*
X127123329Y-56953351D01*
X126945465Y-56981522D01*
X126750776Y-57044781D01*
X126568386Y-57137715D01*
X126402786Y-57258028D01*
X126258028Y-57402786D01*
X126137715Y-57568386D01*
X126044781Y-57750776D01*
X125981522Y-57945465D01*
X125949500Y-58147648D01*
X124800500Y-58147648D01*
X124800500Y-57610842D01*
X124790371Y-57527424D01*
X124766954Y-57334565D01*
X124700350Y-57064343D01*
X124668940Y-56981523D01*
X124601658Y-56804115D01*
X124538173Y-56683156D01*
X124472323Y-56557689D01*
X124314226Y-56328645D01*
X124129673Y-56120327D01*
X123921355Y-55935774D01*
X123692311Y-55777677D01*
X123607728Y-55733284D01*
X123445884Y-55648341D01*
X123185662Y-55549651D01*
X123095483Y-55527424D01*
X122915435Y-55483046D01*
X122777295Y-55466273D01*
X122639158Y-55449500D01*
X122639155Y-55449500D01*
X122547595Y-55449500D01*
X122500000Y-55449500D01*
X122360845Y-55449500D01*
X122360842Y-55449500D01*
X122195077Y-55469627D01*
X122084565Y-55483046D01*
X121977075Y-55509540D01*
X121814337Y-55549651D01*
X121554115Y-55648341D01*
X121307691Y-55777676D01*
X121307682Y-55777681D01*
X121078650Y-55935770D01*
X121078647Y-55935772D01*
X121078645Y-55935774D01*
X120870327Y-56120327D01*
X120810473Y-56187889D01*
X120685770Y-56328650D01*
X120527681Y-56557682D01*
X120527676Y-56557691D01*
X120398343Y-56804112D01*
X120360938Y-56902740D01*
X120318759Y-56958442D01*
X120253162Y-56982499D01*
X120194560Y-56972047D01*
X120056504Y-56910579D01*
X120056498Y-56910577D01*
X119922841Y-56882168D01*
X119886764Y-56874500D01*
X119713236Y-56874500D01*
X119683483Y-56880824D01*
X119543501Y-56910577D01*
X119543496Y-56910579D01*
X119384977Y-56981157D01*
X119384972Y-56981160D01*
X119244591Y-57083153D01*
X119244589Y-57083155D01*
X119128477Y-57212112D01*
X119041712Y-57362391D01*
X118993067Y-57512111D01*
X118988092Y-57527424D01*
X118969953Y-57700000D01*
X118988092Y-57872576D01*
X118988093Y-57872579D01*
X119041712Y-58037608D01*
X119128477Y-58187887D01*
X119128476Y-58187887D01*
X119236494Y-58307853D01*
X119244590Y-58316845D01*
X119342373Y-58387889D01*
X119384976Y-58418842D01*
X119543495Y-58489420D01*
X119543501Y-58489422D01*
X119713236Y-58525500D01*
X119713237Y-58525500D01*
X119886762Y-58525500D01*
X119886764Y-58525500D01*
X120049719Y-58490863D01*
X120119386Y-58496179D01*
X120175120Y-58538316D01*
X120199225Y-58603896D01*
X120199500Y-58612153D01*
X120199500Y-60740244D01*
X120197973Y-60759644D01*
X120192808Y-60792251D01*
X120180820Y-60829146D01*
X120170314Y-60849765D01*
X120147510Y-60881151D01*
X120131151Y-60897510D01*
X120099765Y-60920314D01*
X120079146Y-60930820D01*
X120042251Y-60942808D01*
X120029663Y-60944801D01*
X120009638Y-60947973D01*
X119990244Y-60949500D01*
X118363342Y-60949500D01*
X118343938Y-60947972D01*
X118311307Y-60942801D01*
X118274420Y-60930815D01*
X118253777Y-60920297D01*
X118222398Y-60897500D01*
X118206009Y-60881113D01*
X118183215Y-60849743D01*
X118178486Y-60840466D01*
X118172694Y-60829101D01*
X118160703Y-60792218D01*
X118155581Y-60759914D01*
X118154053Y-60740504D01*
X118154053Y-59202545D01*
X118154008Y-59201883D01*
X118154015Y-59171213D01*
X118123275Y-59016543D01*
X118062946Y-58870845D01*
X117975348Y-58739719D01*
X117975322Y-58739693D01*
X117863849Y-58628207D01*
X117863847Y-58628206D01*
X117827666Y-58604030D01*
X117782862Y-58550418D01*
X117774155Y-58481093D01*
X117804310Y-58418066D01*
X117804408Y-58417957D01*
X117805407Y-58416846D01*
X117805410Y-58416845D01*
X117921522Y-58287889D01*
X118008286Y-58137611D01*
X118061908Y-57972576D01*
X118080047Y-57800000D01*
X118061908Y-57627424D01*
X118008286Y-57462389D01*
X117921522Y-57312111D01*
X117805410Y-57183155D01*
X117665024Y-57081158D01*
X117665023Y-57081157D01*
X117506504Y-57010579D01*
X117506498Y-57010577D01*
X117368083Y-56981157D01*
X117336764Y-56974500D01*
X117163236Y-56974500D01*
X117133483Y-56980824D01*
X116993501Y-57010577D01*
X116993496Y-57010579D01*
X116834977Y-57081157D01*
X116834972Y-57081160D01*
X116694590Y-57183154D01*
X116689761Y-57187503D01*
X116688070Y-57185625D01*
X116638211Y-57216325D01*
X116568354Y-57214975D01*
X116558186Y-57211126D01*
X116556497Y-57210577D01*
X116432579Y-57184238D01*
X116386764Y-57174500D01*
X116213236Y-57174500D01*
X116183483Y-57180824D01*
X116043501Y-57210577D01*
X116043496Y-57210579D01*
X115884977Y-57281157D01*
X115884972Y-57281160D01*
X115744591Y-57383153D01*
X115744589Y-57383155D01*
X115628477Y-57512112D01*
X115541712Y-57662391D01*
X115497002Y-57800000D01*
X115488092Y-57827424D01*
X115469953Y-58000000D01*
X115488092Y-58172576D01*
X115488093Y-58172579D01*
X115525329Y-58287183D01*
X115527324Y-58357024D01*
X115491243Y-58416857D01*
X115428542Y-58447684D01*
X115407398Y-58449500D01*
X110950726Y-58449500D01*
X110883687Y-58429815D01*
X110837932Y-58377011D01*
X110827988Y-58307853D01*
X110843338Y-58263501D01*
X110858286Y-58237611D01*
X110911908Y-58072576D01*
X110930047Y-57900000D01*
X110911908Y-57727424D01*
X110858286Y-57562389D01*
X110771522Y-57412111D01*
X110655410Y-57283155D01*
X110523757Y-57187503D01*
X110515023Y-57181157D01*
X110356504Y-57110579D01*
X110356498Y-57110577D01*
X110218083Y-57081157D01*
X110186764Y-57074500D01*
X110013236Y-57074500D01*
X109983483Y-57080824D01*
X109843501Y-57110577D01*
X109843496Y-57110579D01*
X109684977Y-57181157D01*
X109684972Y-57181160D01*
X109544591Y-57283153D01*
X109544589Y-57283155D01*
X109428477Y-57412112D01*
X109341712Y-57562391D01*
X109298415Y-57695652D01*
X109288092Y-57727424D01*
X109269953Y-57900000D01*
X109288092Y-58072576D01*
X109288093Y-58072579D01*
X109341712Y-58237607D01*
X109341713Y-58237609D01*
X109341714Y-58237611D01*
X109344200Y-58241916D01*
X109356662Y-58263501D01*
X109373134Y-58331401D01*
X109350281Y-58397428D01*
X109295359Y-58440618D01*
X109249274Y-58449500D01*
X109204033Y-58449500D01*
X109203959Y-58449494D01*
X109197822Y-58449494D01*
X109197644Y-58449442D01*
X109067570Y-58449454D01*
X108912922Y-58480230D01*
X108912918Y-58480231D01*
X108767247Y-58540584D01*
X108767242Y-58540587D01*
X108636142Y-58628197D01*
X108636135Y-58628203D01*
X108524648Y-58739703D01*
X108524645Y-58739706D01*
X108437048Y-58870815D01*
X108437045Y-58870820D01*
X108376708Y-59016498D01*
X108376707Y-59016501D01*
X108376707Y-59016502D01*
X108353593Y-59132713D01*
X108345946Y-59171159D01*
X108345947Y-59213991D01*
X108345947Y-60740241D01*
X108344420Y-60759640D01*
X108339257Y-60792236D01*
X108327266Y-60829137D01*
X108316766Y-60849742D01*
X108293957Y-60881131D01*
X108277608Y-60897477D01*
X108246224Y-60920276D01*
X108225618Y-60930774D01*
X108188713Y-60942762D01*
X108155782Y-60947974D01*
X108136388Y-60949498D01*
X108088935Y-60949494D01*
X108088861Y-60949500D01*
X106509756Y-60949500D01*
X106490360Y-60947973D01*
X106474110Y-60945399D01*
X106457749Y-60942808D01*
X106420853Y-60930820D01*
X106400234Y-60920314D01*
X106368848Y-60897510D01*
X106352489Y-60881151D01*
X106329685Y-60849765D01*
X106329674Y-60849743D01*
X106319178Y-60829144D01*
X106307192Y-60792253D01*
X106302025Y-60759630D01*
X106300500Y-60740244D01*
X106300500Y-57610842D01*
X106290371Y-57527424D01*
X106266954Y-57334565D01*
X106200350Y-57064343D01*
X106168940Y-56981523D01*
X106101658Y-56804115D01*
X106038173Y-56683156D01*
X105972323Y-56557689D01*
X105814226Y-56328645D01*
X105629673Y-56120327D01*
X105493847Y-55999996D01*
X117594435Y-55999996D01*
X117594435Y-56000003D01*
X117614630Y-56179249D01*
X117614631Y-56179254D01*
X117674211Y-56349523D01*
X117747150Y-56465604D01*
X117770184Y-56502262D01*
X117897738Y-56629816D01*
X118050478Y-56725789D01*
X118220745Y-56785368D01*
X118220750Y-56785369D01*
X118399996Y-56805565D01*
X118400000Y-56805565D01*
X118400004Y-56805565D01*
X118579249Y-56785369D01*
X118579252Y-56785368D01*
X118579255Y-56785368D01*
X118749522Y-56725789D01*
X118902262Y-56629816D01*
X119029816Y-56502262D01*
X119125789Y-56349522D01*
X119185368Y-56179255D01*
X119199875Y-56050500D01*
X119205565Y-56000003D01*
X119205565Y-55999996D01*
X119185369Y-55820750D01*
X119185368Y-55820745D01*
X119170298Y-55777677D01*
X119125789Y-55650478D01*
X119029816Y-55497738D01*
X118902262Y-55370184D01*
X118820552Y-55318842D01*
X118749523Y-55274211D01*
X118579254Y-55214631D01*
X118579249Y-55214630D01*
X118400004Y-55194435D01*
X118399996Y-55194435D01*
X118220750Y-55214630D01*
X118220745Y-55214631D01*
X118050476Y-55274211D01*
X117897737Y-55370184D01*
X117770184Y-55497737D01*
X117674211Y-55650476D01*
X117614631Y-55820745D01*
X117614630Y-55820750D01*
X117594435Y-55999996D01*
X105493847Y-55999996D01*
X105421355Y-55935774D01*
X105192311Y-55777677D01*
X105107728Y-55733284D01*
X104945884Y-55648341D01*
X104685662Y-55549651D01*
X104595483Y-55527424D01*
X104415435Y-55483046D01*
X104277295Y-55466273D01*
X104139158Y-55449500D01*
X104139155Y-55449500D01*
X104047595Y-55449500D01*
X104000000Y-55449500D01*
X103860845Y-55449500D01*
X103860842Y-55449500D01*
X103695077Y-55469627D01*
X103584565Y-55483046D01*
X103477075Y-55509540D01*
X103314337Y-55549651D01*
X103054115Y-55648341D01*
X102807691Y-55777676D01*
X102807682Y-55777681D01*
X102578650Y-55935770D01*
X102578647Y-55935772D01*
X102578645Y-55935774D01*
X102370327Y-56120327D01*
X102310473Y-56187889D01*
X102185770Y-56328650D01*
X102027681Y-56557682D01*
X102027676Y-56557691D01*
X101898341Y-56804115D01*
X101799651Y-57064337D01*
X101784103Y-57127420D01*
X101733046Y-57334565D01*
X101727146Y-57383155D01*
X101699500Y-57610842D01*
X101699500Y-58246249D01*
X101699274Y-58253736D01*
X101682092Y-58537769D01*
X101680287Y-58552633D01*
X101629673Y-58828829D01*
X101626089Y-58843369D01*
X101542555Y-59111438D01*
X101537246Y-59125438D01*
X101422002Y-59381500D01*
X101415043Y-59394759D01*
X101269779Y-59635056D01*
X101261273Y-59647379D01*
X101088100Y-59868417D01*
X101078170Y-59879625D01*
X100879625Y-60078170D01*
X100868417Y-60088100D01*
X100647379Y-60261273D01*
X100635056Y-60269779D01*
X100394759Y-60415043D01*
X100381500Y-60422002D01*
X100125438Y-60537246D01*
X100111438Y-60542555D01*
X99843369Y-60626089D01*
X99828829Y-60629673D01*
X99552633Y-60680287D01*
X99537769Y-60682092D01*
X99257487Y-60699047D01*
X99242513Y-60699047D01*
X98962230Y-60682092D01*
X98947366Y-60680287D01*
X98671170Y-60629673D01*
X98656630Y-60626089D01*
X98388561Y-60542555D01*
X98374561Y-60537246D01*
X98118499Y-60422002D01*
X98105240Y-60415043D01*
X97864943Y-60269779D01*
X97852620Y-60261273D01*
X97806959Y-60225500D01*
X97631582Y-60088100D01*
X97620374Y-60078170D01*
X97421829Y-59879625D01*
X97411899Y-59868417D01*
X97309419Y-59737611D01*
X97238722Y-59647373D01*
X97230224Y-59635062D01*
X97084955Y-59394758D01*
X97077997Y-59381500D01*
X97008651Y-59227420D01*
X96962751Y-59125434D01*
X96957447Y-59111447D01*
X96873907Y-58843358D01*
X96870326Y-58828829D01*
X96861956Y-58783156D01*
X96819711Y-58552632D01*
X96817907Y-58537769D01*
X96814982Y-58489420D01*
X96800726Y-58253736D01*
X96800500Y-58246249D01*
X96800500Y-58147648D01*
X97949500Y-58147648D01*
X97949500Y-58352351D01*
X97981522Y-58554534D01*
X98044781Y-58749223D01*
X98085343Y-58828829D01*
X98135580Y-58927424D01*
X98137715Y-58931613D01*
X98258028Y-59097213D01*
X98402786Y-59241971D01*
X98557749Y-59354556D01*
X98568390Y-59362287D01*
X98680117Y-59419215D01*
X98750776Y-59455218D01*
X98750778Y-59455218D01*
X98750781Y-59455220D01*
X98855137Y-59489127D01*
X98945465Y-59518477D01*
X99046557Y-59534488D01*
X99147648Y-59550500D01*
X99147649Y-59550500D01*
X99352351Y-59550500D01*
X99352352Y-59550500D01*
X99554534Y-59518477D01*
X99749219Y-59455220D01*
X99931610Y-59362287D01*
X100024590Y-59294732D01*
X100097213Y-59241971D01*
X100097215Y-59241968D01*
X100097219Y-59241966D01*
X100241966Y-59097219D01*
X100241968Y-59097215D01*
X100241971Y-59097213D01*
X100300613Y-59016498D01*
X100362287Y-58931610D01*
X100455220Y-58749219D01*
X100518477Y-58554534D01*
X100550500Y-58352352D01*
X100550500Y-58147648D01*
X100530099Y-58018842D01*
X100518477Y-57945465D01*
X100480123Y-57827424D01*
X100455220Y-57750781D01*
X100455218Y-57750778D01*
X100455218Y-57750776D01*
X100391167Y-57625071D01*
X100362287Y-57568390D01*
X100321399Y-57512112D01*
X100241971Y-57402786D01*
X100097213Y-57258028D01*
X99931613Y-57137715D01*
X99931612Y-57137714D01*
X99931610Y-57137713D01*
X99874653Y-57108691D01*
X99749223Y-57044781D01*
X99554534Y-56981522D01*
X99379995Y-56953878D01*
X99352352Y-56949500D01*
X99147648Y-56949500D01*
X99123329Y-56953351D01*
X98945465Y-56981522D01*
X98750776Y-57044781D01*
X98568386Y-57137715D01*
X98402786Y-57258028D01*
X98258028Y-57402786D01*
X98137715Y-57568386D01*
X98044781Y-57750776D01*
X97981522Y-57945465D01*
X97949500Y-58147648D01*
X96800500Y-58147648D01*
X96800500Y-57610842D01*
X96790371Y-57527424D01*
X96766954Y-57334565D01*
X96700350Y-57064343D01*
X96668940Y-56981523D01*
X96601658Y-56804115D01*
X96538173Y-56683156D01*
X96472323Y-56557689D01*
X96314226Y-56328645D01*
X96129673Y-56120327D01*
X95921355Y-55935774D01*
X95692311Y-55777677D01*
X95607728Y-55733284D01*
X95445884Y-55648341D01*
X95185662Y-55549651D01*
X95095483Y-55527424D01*
X94915435Y-55483046D01*
X94777295Y-55466273D01*
X94639158Y-55449500D01*
X94639155Y-55449500D01*
X94539562Y-55449500D01*
X93039562Y-55449500D01*
X82612707Y-55449500D01*
X82545668Y-55429815D01*
X82499913Y-55377011D01*
X82489969Y-55307853D01*
X82518994Y-55244297D01*
X82577772Y-55206523D01*
X82586926Y-55204210D01*
X82656499Y-55189422D01*
X82656501Y-55189420D01*
X82656504Y-55189420D01*
X82709899Y-55165646D01*
X82815024Y-55118842D01*
X82955410Y-55016845D01*
X83071522Y-54887889D01*
X83158286Y-54737611D01*
X83211908Y-54572576D01*
X83230047Y-54400000D01*
X83211908Y-54227424D01*
X83158286Y-54062389D01*
X83071522Y-53912111D01*
X82993538Y-53825500D01*
X82955411Y-53783156D01*
X82815023Y-53681157D01*
X82656504Y-53610579D01*
X82656498Y-53610577D01*
X82522841Y-53582168D01*
X82486764Y-53574500D01*
X82313236Y-53574500D01*
X82283483Y-53580824D01*
X82143501Y-53610577D01*
X82143496Y-53610579D01*
X81984977Y-53681157D01*
X81984972Y-53681160D01*
X81844591Y-53783153D01*
X81844589Y-53783155D01*
X81728477Y-53912112D01*
X81641712Y-54062391D01*
X81600087Y-54190506D01*
X81588092Y-54227424D01*
X81569953Y-54400000D01*
X81588092Y-54572576D01*
X81588093Y-54572579D01*
X81641712Y-54737608D01*
X81641714Y-54737611D01*
X81706792Y-54850329D01*
X81728477Y-54887887D01*
X81728476Y-54887887D01*
X81812457Y-54981157D01*
X81844590Y-55016845D01*
X81942373Y-55087889D01*
X81984976Y-55118842D01*
X82143495Y-55189420D01*
X82143501Y-55189422D01*
X82167085Y-55194435D01*
X82213074Y-55204210D01*
X82274556Y-55237402D01*
X82308332Y-55298565D01*
X82303680Y-55368280D01*
X82262075Y-55424412D01*
X82196728Y-55449141D01*
X82187293Y-55449500D01*
X81960438Y-55449500D01*
X81893039Y-55467559D01*
X81884007Y-55469980D01*
X81835932Y-55497737D01*
X81815492Y-55509537D01*
X81815487Y-55509541D01*
X76476007Y-60849020D01*
X76414684Y-60882505D01*
X76344992Y-60877521D01*
X76289059Y-60835649D01*
X76270395Y-60799657D01*
X76266638Y-60788094D01*
X76258286Y-60762389D01*
X76171522Y-60612111D01*
X76055410Y-60483155D01*
X75967006Y-60418925D01*
X75915023Y-60381157D01*
X75756504Y-60310579D01*
X75756498Y-60310577D01*
X75622841Y-60282168D01*
X75586764Y-60274500D01*
X75413236Y-60274500D01*
X75413234Y-60274500D01*
X75259479Y-60307181D01*
X75189812Y-60301865D01*
X75134079Y-60259727D01*
X75109974Y-60194147D01*
X75125151Y-60125946D01*
X75160812Y-60085574D01*
X75255410Y-60016845D01*
X75371522Y-59887889D01*
X75458286Y-59737611D01*
X75511908Y-59572576D01*
X75530047Y-59400000D01*
X75511908Y-59227424D01*
X75469147Y-59095817D01*
X75458287Y-59062391D01*
X75431819Y-59016548D01*
X75371522Y-58912111D01*
X75255410Y-58783155D01*
X75115024Y-58681158D01*
X75115023Y-58681157D01*
X74956504Y-58610579D01*
X74956498Y-58610577D01*
X74822841Y-58582168D01*
X74786764Y-58574500D01*
X74613236Y-58574500D01*
X74583483Y-58580824D01*
X74443501Y-58610577D01*
X74443496Y-58610579D01*
X74284977Y-58681157D01*
X74284972Y-58681160D01*
X74144591Y-58783153D01*
X74144589Y-58783155D01*
X74028477Y-58912112D01*
X73941712Y-59062391D01*
X73888093Y-59227420D01*
X73888092Y-59227424D01*
X73869953Y-59400000D01*
X73888092Y-59572576D01*
X73888093Y-59572579D01*
X73941712Y-59737608D01*
X74028477Y-59887887D01*
X74028476Y-59887887D01*
X74029857Y-59889420D01*
X74144590Y-60016845D01*
X74242664Y-60088100D01*
X74284976Y-60118842D01*
X74443495Y-60189420D01*
X74443501Y-60189422D01*
X74613236Y-60225500D01*
X74613237Y-60225500D01*
X74786762Y-60225500D01*
X74786764Y-60225500D01*
X74940521Y-60192818D01*
X75010187Y-60198134D01*
X75065921Y-60240271D01*
X75090026Y-60305851D01*
X75074849Y-60374052D01*
X75039187Y-60414426D01*
X74944588Y-60483156D01*
X74828477Y-60612112D01*
X74741712Y-60762391D01*
X74688093Y-60927420D01*
X74688092Y-60927424D01*
X74669953Y-61100000D01*
X74688092Y-61272576D01*
X74688093Y-61272579D01*
X74741712Y-61437608D01*
X74828477Y-61587887D01*
X74828476Y-61587887D01*
X74906463Y-61674500D01*
X74944590Y-61716845D01*
X75084976Y-61818842D01*
X75211602Y-61875220D01*
X75264839Y-61920470D01*
X75285160Y-61987319D01*
X75266115Y-62054543D01*
X75248847Y-62076180D01*
X68411848Y-68913181D01*
X68350525Y-68946666D01*
X68324167Y-68949500D01*
X66581940Y-68949500D01*
X66514901Y-68929815D01*
X66469146Y-68877011D01*
X66459202Y-68807853D01*
X66488227Y-68744297D01*
X66494259Y-68737819D01*
X66529816Y-68702262D01*
X66625789Y-68549522D01*
X66685368Y-68379255D01*
X66705565Y-68200000D01*
X66685368Y-68020745D01*
X66625789Y-67850478D01*
X66529816Y-67697738D01*
X66402262Y-67570184D01*
X66249523Y-67474211D01*
X66079254Y-67414631D01*
X66079249Y-67414630D01*
X65900004Y-67394435D01*
X65899996Y-67394435D01*
X65720750Y-67414630D01*
X65720745Y-67414631D01*
X65550476Y-67474211D01*
X65397737Y-67570184D01*
X65270184Y-67697737D01*
X65174211Y-67850476D01*
X65114631Y-68020745D01*
X65114630Y-68020750D01*
X65094435Y-68199996D01*
X65094435Y-68200003D01*
X65114630Y-68379249D01*
X65114631Y-68379254D01*
X65174211Y-68549523D01*
X65270184Y-68702262D01*
X65305741Y-68737819D01*
X65339226Y-68799142D01*
X65334242Y-68868834D01*
X65292370Y-68924767D01*
X65226906Y-68949184D01*
X65218060Y-68949500D01*
X64175833Y-68949500D01*
X64108794Y-68929815D01*
X64088152Y-68913181D01*
X61990461Y-66815490D01*
X61990460Y-66815488D01*
X61966789Y-66791816D01*
X61958619Y-66782802D01*
X61875697Y-66681762D01*
X61862195Y-66661556D01*
X61803455Y-66551661D01*
X61794162Y-66529226D01*
X61757989Y-66409982D01*
X61753249Y-66386147D01*
X61741037Y-66262154D01*
X61741037Y-66237846D01*
X61753249Y-66113852D01*
X61757989Y-66090019D01*
X61794163Y-65970770D01*
X61803453Y-65948341D01*
X61862198Y-65838438D01*
X61875692Y-65818243D01*
X61958627Y-65717188D01*
X61966791Y-65708181D01*
X61996137Y-65678834D01*
X61996136Y-65678834D01*
X61996140Y-65678831D01*
X65174971Y-62500000D01*
X66469953Y-62500000D01*
X66488092Y-62672576D01*
X66488093Y-62672579D01*
X66541712Y-62837608D01*
X66628477Y-62987887D01*
X66628476Y-62987887D01*
X66673248Y-63037611D01*
X66744590Y-63116845D01*
X66844483Y-63189422D01*
X66884976Y-63218842D01*
X67043495Y-63289420D01*
X67043501Y-63289422D01*
X67213236Y-63325500D01*
X67213237Y-63325500D01*
X67386762Y-63325500D01*
X67386764Y-63325500D01*
X67556499Y-63289422D01*
X67556501Y-63289420D01*
X67556504Y-63289420D01*
X67609899Y-63265646D01*
X67715024Y-63218842D01*
X67855410Y-63116845D01*
X67971522Y-62987889D01*
X68058286Y-62837611D01*
X68111908Y-62672576D01*
X68130047Y-62500000D01*
X71469953Y-62500000D01*
X71488092Y-62672576D01*
X71488093Y-62672579D01*
X71541712Y-62837608D01*
X71628477Y-62987887D01*
X71628476Y-62987887D01*
X71673248Y-63037611D01*
X71744590Y-63116845D01*
X71844483Y-63189422D01*
X71884976Y-63218842D01*
X72043495Y-63289420D01*
X72043501Y-63289422D01*
X72213236Y-63325500D01*
X72213237Y-63325500D01*
X72386762Y-63325500D01*
X72386764Y-63325500D01*
X72556499Y-63289422D01*
X72556501Y-63289420D01*
X72556504Y-63289420D01*
X72609899Y-63265646D01*
X72715024Y-63218842D01*
X72855410Y-63116845D01*
X72971522Y-62987889D01*
X73058286Y-62837611D01*
X73111908Y-62672576D01*
X73130047Y-62500000D01*
X73111908Y-62327424D01*
X73058286Y-62162389D01*
X72971522Y-62012111D01*
X72889009Y-61920470D01*
X72855411Y-61883156D01*
X72855284Y-61883064D01*
X72715024Y-61781158D01*
X72715023Y-61781157D01*
X72556504Y-61710579D01*
X72556498Y-61710577D01*
X72418088Y-61681158D01*
X72386764Y-61674500D01*
X72213236Y-61674500D01*
X72183483Y-61680824D01*
X72043501Y-61710577D01*
X72043496Y-61710579D01*
X71884977Y-61781157D01*
X71884972Y-61781160D01*
X71744591Y-61883153D01*
X71744589Y-61883155D01*
X71628477Y-62012112D01*
X71541712Y-62162391D01*
X71488093Y-62327420D01*
X71488092Y-62327424D01*
X71469953Y-62500000D01*
X68130047Y-62500000D01*
X68111908Y-62327424D01*
X68058286Y-62162389D01*
X67971522Y-62012111D01*
X67889009Y-61920470D01*
X67855411Y-61883156D01*
X67855284Y-61883064D01*
X67715024Y-61781158D01*
X67715023Y-61781157D01*
X67556504Y-61710579D01*
X67556498Y-61710577D01*
X67418088Y-61681158D01*
X67386764Y-61674500D01*
X67213236Y-61674500D01*
X67183483Y-61680824D01*
X67043501Y-61710577D01*
X67043496Y-61710579D01*
X66884977Y-61781157D01*
X66884972Y-61781160D01*
X66744591Y-61883153D01*
X66744589Y-61883155D01*
X66628477Y-62012112D01*
X66541712Y-62162391D01*
X66488093Y-62327420D01*
X66488092Y-62327424D01*
X66469953Y-62500000D01*
X65174971Y-62500000D01*
X68574971Y-59100000D01*
X69369953Y-59100000D01*
X69388092Y-59272576D01*
X69388093Y-59272579D01*
X69441712Y-59437608D01*
X69528477Y-59587887D01*
X69528476Y-59587887D01*
X69528478Y-59587889D01*
X69644590Y-59716845D01*
X69659820Y-59727910D01*
X69784976Y-59818842D01*
X69943495Y-59889420D01*
X69943501Y-59889422D01*
X70113236Y-59925500D01*
X70113237Y-59925500D01*
X70286762Y-59925500D01*
X70286764Y-59925500D01*
X70456499Y-59889422D01*
X70456501Y-59889420D01*
X70456504Y-59889420D01*
X70509899Y-59865646D01*
X70615024Y-59818842D01*
X70755410Y-59716845D01*
X70871522Y-59587889D01*
X70958286Y-59437611D01*
X71011908Y-59272576D01*
X71030047Y-59100000D01*
X71011908Y-58927424D01*
X70976160Y-58817400D01*
X70958287Y-58762391D01*
X70952347Y-58752103D01*
X70871522Y-58612111D01*
X70804585Y-58537769D01*
X70755411Y-58483156D01*
X70615023Y-58381157D01*
X70456504Y-58310579D01*
X70456498Y-58310577D01*
X70322841Y-58282168D01*
X70286764Y-58274500D01*
X70113236Y-58274500D01*
X70083483Y-58280824D01*
X69943501Y-58310577D01*
X69943496Y-58310579D01*
X69784977Y-58381157D01*
X69784972Y-58381160D01*
X69644591Y-58483153D01*
X69644589Y-58483155D01*
X69528477Y-58612112D01*
X69441712Y-58762391D01*
X69393067Y-58912111D01*
X69388092Y-58927424D01*
X69369953Y-59100000D01*
X68574971Y-59100000D01*
X70374971Y-57300000D01*
X76169953Y-57300000D01*
X76188092Y-57472576D01*
X76188093Y-57472579D01*
X76241712Y-57637608D01*
X76241714Y-57637611D01*
X76307053Y-57750781D01*
X76328477Y-57787887D01*
X76328476Y-57787887D01*
X76328478Y-57787889D01*
X76444590Y-57916845D01*
X76584976Y-58018842D01*
X76743495Y-58089420D01*
X76743501Y-58089422D01*
X76913236Y-58125500D01*
X76913237Y-58125500D01*
X77086762Y-58125500D01*
X77086764Y-58125500D01*
X77256499Y-58089422D01*
X77256501Y-58089420D01*
X77256504Y-58089420D01*
X77372868Y-58037611D01*
X77415024Y-58018842D01*
X77555410Y-57916845D01*
X77671522Y-57787889D01*
X77758286Y-57637611D01*
X77811908Y-57472576D01*
X77830047Y-57300000D01*
X77811908Y-57127424D01*
X77764385Y-56981160D01*
X77758287Y-56962391D01*
X77728373Y-56910579D01*
X77671522Y-56812111D01*
X77664323Y-56804115D01*
X77555411Y-56683156D01*
X77415023Y-56581157D01*
X77256504Y-56510579D01*
X77256498Y-56510577D01*
X77122841Y-56482168D01*
X77086764Y-56474500D01*
X76913236Y-56474500D01*
X76883483Y-56480824D01*
X76743501Y-56510577D01*
X76743496Y-56510579D01*
X76584977Y-56581157D01*
X76584972Y-56581160D01*
X76444591Y-56683153D01*
X76444589Y-56683155D01*
X76328477Y-56812112D01*
X76241712Y-56962391D01*
X76193565Y-57110578D01*
X76188092Y-57127424D01*
X76169953Y-57300000D01*
X70374971Y-57300000D01*
X74874970Y-52800000D01*
X78369953Y-52800000D01*
X78388092Y-52972576D01*
X78388093Y-52972579D01*
X78441712Y-53137608D01*
X78466856Y-53181158D01*
X78525745Y-53283156D01*
X78528477Y-53287887D01*
X78528476Y-53287887D01*
X78640328Y-53412111D01*
X78644590Y-53416845D01*
X78754090Y-53496402D01*
X78784976Y-53518842D01*
X78943495Y-53589420D01*
X78943501Y-53589422D01*
X79113236Y-53625500D01*
X79113237Y-53625500D01*
X79286762Y-53625500D01*
X79286764Y-53625500D01*
X79456499Y-53589422D01*
X79456501Y-53589420D01*
X79456504Y-53589420D01*
X79509899Y-53565646D01*
X79615024Y-53518842D01*
X79755410Y-53416845D01*
X79871522Y-53287889D01*
X79958286Y-53137611D01*
X79970506Y-53100000D01*
X87869953Y-53100000D01*
X87888092Y-53272576D01*
X87888093Y-53272579D01*
X87941712Y-53437608D01*
X88028477Y-53587887D01*
X88028476Y-53587887D01*
X88112457Y-53681157D01*
X88144590Y-53716845D01*
X88244483Y-53789422D01*
X88284976Y-53818842D01*
X88443495Y-53889420D01*
X88443501Y-53889422D01*
X88613236Y-53925500D01*
X88613237Y-53925500D01*
X88786762Y-53925500D01*
X88786764Y-53925500D01*
X88906733Y-53900000D01*
X92269953Y-53900000D01*
X92288092Y-54072576D01*
X92288093Y-54072579D01*
X92341712Y-54237608D01*
X92428477Y-54387887D01*
X92428476Y-54387887D01*
X92512457Y-54481157D01*
X92544590Y-54516845D01*
X92684976Y-54618842D01*
X92843495Y-54689420D01*
X92843501Y-54689422D01*
X93013236Y-54725500D01*
X93013237Y-54725500D01*
X93186762Y-54725500D01*
X93186764Y-54725500D01*
X93356499Y-54689422D01*
X93356501Y-54689420D01*
X93356504Y-54689420D01*
X93409899Y-54665646D01*
X93515024Y-54618842D01*
X93540958Y-54600000D01*
X105369953Y-54600000D01*
X105388092Y-54772576D01*
X105388093Y-54772579D01*
X105441712Y-54937608D01*
X105528477Y-55087887D01*
X105528476Y-55087887D01*
X105642597Y-55214631D01*
X105644590Y-55216845D01*
X105744483Y-55289422D01*
X105784976Y-55318842D01*
X105943495Y-55389420D01*
X105943501Y-55389422D01*
X106113236Y-55425500D01*
X106113237Y-55425500D01*
X106286762Y-55425500D01*
X106286764Y-55425500D01*
X106456499Y-55389422D01*
X106456501Y-55389420D01*
X106456504Y-55389420D01*
X106509899Y-55365646D01*
X106615024Y-55318842D01*
X106755410Y-55216845D01*
X106871522Y-55087889D01*
X106958286Y-54937611D01*
X107011908Y-54772576D01*
X107030047Y-54600000D01*
X125369953Y-54600000D01*
X125388092Y-54772576D01*
X125388093Y-54772579D01*
X125441712Y-54937608D01*
X125528477Y-55087887D01*
X125528476Y-55087887D01*
X125642597Y-55214631D01*
X125644590Y-55216845D01*
X125744483Y-55289422D01*
X125784976Y-55318842D01*
X125943495Y-55389420D01*
X125943501Y-55389422D01*
X126113236Y-55425500D01*
X126113237Y-55425500D01*
X126286762Y-55425500D01*
X126286764Y-55425500D01*
X126456499Y-55389422D01*
X126456501Y-55389420D01*
X126456504Y-55389420D01*
X126509899Y-55365646D01*
X126615024Y-55318842D01*
X126755410Y-55216845D01*
X126871522Y-55087889D01*
X126958286Y-54937611D01*
X126959066Y-54935208D01*
X126959895Y-54933995D01*
X126960931Y-54931671D01*
X126961355Y-54931860D01*
X126998498Y-54877533D01*
X127062855Y-54850329D01*
X127131702Y-54862238D01*
X127183181Y-54909478D01*
X127184379Y-54911508D01*
X127228478Y-54987889D01*
X127344590Y-55116845D01*
X127475712Y-55212111D01*
X127484976Y-55218842D01*
X127643495Y-55289420D01*
X127643501Y-55289422D01*
X127813236Y-55325500D01*
X127813237Y-55325500D01*
X127986762Y-55325500D01*
X127986764Y-55325500D01*
X128156499Y-55289422D01*
X128156501Y-55289420D01*
X128156504Y-55289420D01*
X128257851Y-55244297D01*
X128315024Y-55218842D01*
X128340958Y-55200000D01*
X148069953Y-55200000D01*
X148088092Y-55372576D01*
X148088093Y-55372579D01*
X148141712Y-55537608D01*
X148228477Y-55687887D01*
X148228476Y-55687887D01*
X148228478Y-55687889D01*
X148344590Y-55816845D01*
X148349965Y-55820750D01*
X148484976Y-55918842D01*
X148643495Y-55989420D01*
X148643501Y-55989422D01*
X148813236Y-56025500D01*
X148813237Y-56025500D01*
X148986762Y-56025500D01*
X148986764Y-56025500D01*
X149156499Y-55989422D01*
X149156501Y-55989420D01*
X149156504Y-55989420D01*
X149277003Y-55935770D01*
X149315024Y-55918842D01*
X149455410Y-55816845D01*
X149571522Y-55687889D01*
X149658286Y-55537611D01*
X149711908Y-55372576D01*
X149730047Y-55200000D01*
X149711908Y-55027424D01*
X149666571Y-54887887D01*
X149658287Y-54862391D01*
X149643980Y-54837611D01*
X149571522Y-54712111D01*
X149455410Y-54583155D01*
X149315024Y-54481158D01*
X149315023Y-54481157D01*
X149156504Y-54410579D01*
X149156498Y-54410577D01*
X149022841Y-54382168D01*
X148986764Y-54374500D01*
X148813236Y-54374500D01*
X148783483Y-54380824D01*
X148643501Y-54410577D01*
X148643496Y-54410579D01*
X148484977Y-54481157D01*
X148484972Y-54481160D01*
X148344591Y-54583153D01*
X148344589Y-54583155D01*
X148228477Y-54712112D01*
X148141712Y-54862391D01*
X148100938Y-54987887D01*
X148088092Y-55027424D01*
X148069953Y-55200000D01*
X128340958Y-55200000D01*
X128455410Y-55116845D01*
X128571522Y-54987889D01*
X128658286Y-54837611D01*
X128711908Y-54672576D01*
X128730047Y-54500000D01*
X128711908Y-54327424D01*
X128690777Y-54262389D01*
X128685514Y-54246189D01*
X128683519Y-54176348D01*
X128719600Y-54116515D01*
X128730555Y-54107557D01*
X128855410Y-54016845D01*
X128971522Y-53887889D01*
X129058286Y-53737611D01*
X129111908Y-53572576D01*
X129130047Y-53400000D01*
X129111908Y-53227424D01*
X129058286Y-53062389D01*
X128971522Y-52912111D01*
X128942210Y-52879556D01*
X128855411Y-52783156D01*
X128740958Y-52700000D01*
X131369953Y-52700000D01*
X131388092Y-52872576D01*
X131388093Y-52872579D01*
X131441712Y-53037608D01*
X131528477Y-53187887D01*
X131528476Y-53187887D01*
X131619897Y-53289420D01*
X131644590Y-53316845D01*
X131775712Y-53412111D01*
X131784976Y-53418842D01*
X131943495Y-53489420D01*
X131943501Y-53489422D01*
X132113236Y-53525500D01*
X132113237Y-53525500D01*
X132286762Y-53525500D01*
X132286764Y-53525500D01*
X132456499Y-53489422D01*
X132456501Y-53489420D01*
X132456504Y-53489420D01*
X132572868Y-53437611D01*
X132615024Y-53418842D01*
X132755410Y-53316845D01*
X132871522Y-53187889D01*
X132958286Y-53037611D01*
X133011908Y-52872576D01*
X133030047Y-52700000D01*
X133011908Y-52527424D01*
X133002998Y-52500000D01*
X136969953Y-52500000D01*
X136988092Y-52672576D01*
X136988093Y-52672579D01*
X137041712Y-52837608D01*
X137128477Y-52987887D01*
X137128476Y-52987887D01*
X137206463Y-53074500D01*
X137244590Y-53116845D01*
X137351980Y-53194869D01*
X137384976Y-53218842D01*
X137543495Y-53289420D01*
X137543501Y-53289422D01*
X137713236Y-53325500D01*
X137713237Y-53325500D01*
X137886762Y-53325500D01*
X137886764Y-53325500D01*
X138056499Y-53289422D01*
X138056501Y-53289420D01*
X138056504Y-53289420D01*
X138109899Y-53265646D01*
X138215024Y-53218842D01*
X138355410Y-53116845D01*
X138471522Y-52987889D01*
X138558286Y-52837611D01*
X138570506Y-52800000D01*
X146469953Y-52800000D01*
X146488092Y-52972576D01*
X146488093Y-52972579D01*
X146541712Y-53137608D01*
X146566856Y-53181158D01*
X146625745Y-53283156D01*
X146628477Y-53287887D01*
X146628476Y-53287887D01*
X146740328Y-53412111D01*
X146744590Y-53416845D01*
X146854090Y-53496402D01*
X146884976Y-53518842D01*
X147043495Y-53589420D01*
X147043501Y-53589422D01*
X147213236Y-53625500D01*
X147213237Y-53625500D01*
X147386762Y-53625500D01*
X147386764Y-53625500D01*
X147556499Y-53589422D01*
X147556501Y-53589420D01*
X147556504Y-53589420D01*
X147609899Y-53565646D01*
X147715024Y-53518842D01*
X147855410Y-53416845D01*
X147971522Y-53287889D01*
X148058286Y-53137611D01*
X148111908Y-52972576D01*
X148130047Y-52800000D01*
X148111908Y-52627424D01*
X148070506Y-52500000D01*
X148058287Y-52462391D01*
X148050729Y-52449300D01*
X147971522Y-52312111D01*
X147904440Y-52237608D01*
X147855411Y-52183156D01*
X147715023Y-52081157D01*
X147556504Y-52010579D01*
X147556498Y-52010577D01*
X147418083Y-51981157D01*
X147386764Y-51974500D01*
X147213236Y-51974500D01*
X147183483Y-51980824D01*
X147043501Y-52010577D01*
X147043496Y-52010579D01*
X146884977Y-52081157D01*
X146884972Y-52081160D01*
X146744591Y-52183153D01*
X146744589Y-52183155D01*
X146628477Y-52312112D01*
X146541712Y-52462391D01*
X146488093Y-52627420D01*
X146488092Y-52627424D01*
X146469953Y-52800000D01*
X138570506Y-52800000D01*
X138611908Y-52672576D01*
X138630047Y-52500000D01*
X138611908Y-52327424D01*
X138573943Y-52210577D01*
X138558287Y-52162391D01*
X138516570Y-52090136D01*
X138471522Y-52012111D01*
X138393538Y-51925500D01*
X138355411Y-51883156D01*
X138353104Y-51881480D01*
X138244071Y-51802262D01*
X138215023Y-51781157D01*
X138056504Y-51710579D01*
X138056498Y-51710577D01*
X137922841Y-51682168D01*
X137886764Y-51674500D01*
X137713236Y-51674500D01*
X137683483Y-51680824D01*
X137543501Y-51710577D01*
X137543496Y-51710579D01*
X137384977Y-51781157D01*
X137384972Y-51781160D01*
X137244591Y-51883153D01*
X137244589Y-51883155D01*
X137128477Y-52012112D01*
X137041712Y-52162391D01*
X136988093Y-52327420D01*
X136988092Y-52327424D01*
X136969953Y-52500000D01*
X133002998Y-52500000D01*
X132966571Y-52387887D01*
X132958287Y-52362391D01*
X132958286Y-52362389D01*
X132871522Y-52212111D01*
X132757404Y-52085369D01*
X132755411Y-52083156D01*
X132615023Y-51981157D01*
X132456504Y-51910579D01*
X132456498Y-51910577D01*
X132322841Y-51882168D01*
X132286764Y-51874500D01*
X132113236Y-51874500D01*
X132083483Y-51880824D01*
X131943501Y-51910577D01*
X131943496Y-51910579D01*
X131784977Y-51981157D01*
X131784972Y-51981160D01*
X131644591Y-52083153D01*
X131644589Y-52083155D01*
X131528477Y-52212112D01*
X131441712Y-52362391D01*
X131402475Y-52483156D01*
X131388092Y-52527424D01*
X131369953Y-52700000D01*
X128740958Y-52700000D01*
X128715023Y-52681157D01*
X128556504Y-52610579D01*
X128556498Y-52610577D01*
X128422841Y-52582168D01*
X128386764Y-52574500D01*
X128213236Y-52574500D01*
X128183483Y-52580824D01*
X128043501Y-52610577D01*
X128043496Y-52610579D01*
X127884977Y-52681157D01*
X127884972Y-52681160D01*
X127744591Y-52783153D01*
X127744589Y-52783155D01*
X127628477Y-52912112D01*
X127541712Y-53062391D01*
X127490880Y-53218842D01*
X127488092Y-53227424D01*
X127469953Y-53400000D01*
X127488092Y-53572576D01*
X127493565Y-53589422D01*
X127514486Y-53653810D01*
X127516481Y-53723651D01*
X127480400Y-53783483D01*
X127469441Y-53792445D01*
X127344588Y-53883156D01*
X127228477Y-54012112D01*
X127141713Y-54162390D01*
X127140929Y-54164804D01*
X127140096Y-54166021D01*
X127139069Y-54168329D01*
X127138646Y-54168141D01*
X127101488Y-54222477D01*
X127037127Y-54249672D01*
X126968282Y-54237753D01*
X126916809Y-54190506D01*
X126915639Y-54188524D01*
X126871522Y-54112111D01*
X126755410Y-53983155D01*
X126640958Y-53900000D01*
X126615023Y-53881157D01*
X126456504Y-53810579D01*
X126456498Y-53810577D01*
X126318088Y-53781158D01*
X126286764Y-53774500D01*
X126113236Y-53774500D01*
X126083483Y-53780824D01*
X125943501Y-53810577D01*
X125943496Y-53810579D01*
X125784977Y-53881157D01*
X125784972Y-53881160D01*
X125644591Y-53983153D01*
X125644589Y-53983155D01*
X125528477Y-54112112D01*
X125441712Y-54262391D01*
X125393565Y-54410578D01*
X125388092Y-54427424D01*
X125369953Y-54600000D01*
X107030047Y-54600000D01*
X107011908Y-54427424D01*
X106958286Y-54262389D01*
X106871522Y-54112111D01*
X106785745Y-54016845D01*
X106755411Y-53983156D01*
X106615023Y-53881157D01*
X106456504Y-53810579D01*
X106456498Y-53810577D01*
X106318088Y-53781158D01*
X106286764Y-53774500D01*
X106113236Y-53774500D01*
X106083483Y-53780824D01*
X105943501Y-53810577D01*
X105943496Y-53810579D01*
X105784977Y-53881157D01*
X105784972Y-53881160D01*
X105644591Y-53983153D01*
X105644589Y-53983155D01*
X105528477Y-54112112D01*
X105441712Y-54262391D01*
X105393565Y-54410578D01*
X105388092Y-54427424D01*
X105369953Y-54600000D01*
X93540958Y-54600000D01*
X93655410Y-54516845D01*
X93771522Y-54387889D01*
X93858286Y-54237611D01*
X93911908Y-54072576D01*
X93930047Y-53900000D01*
X93911908Y-53727424D01*
X93873943Y-53610577D01*
X93858287Y-53562391D01*
X93820188Y-53496402D01*
X93771522Y-53412111D01*
X93704440Y-53337608D01*
X93655411Y-53283156D01*
X93515023Y-53181157D01*
X93356504Y-53110579D01*
X93356498Y-53110577D01*
X93222841Y-53082168D01*
X93186764Y-53074500D01*
X93013236Y-53074500D01*
X92983483Y-53080824D01*
X92843501Y-53110577D01*
X92843496Y-53110579D01*
X92684977Y-53181157D01*
X92684972Y-53181160D01*
X92544591Y-53283153D01*
X92544589Y-53283155D01*
X92428477Y-53412112D01*
X92341712Y-53562391D01*
X92291530Y-53716843D01*
X92288092Y-53727424D01*
X92269953Y-53900000D01*
X88906733Y-53900000D01*
X88956499Y-53889422D01*
X88956501Y-53889420D01*
X88956504Y-53889420D01*
X89009899Y-53865646D01*
X89115024Y-53818842D01*
X89255410Y-53716845D01*
X89371522Y-53587889D01*
X89458286Y-53437611D01*
X89511908Y-53272576D01*
X89530047Y-53100000D01*
X89511908Y-52927424D01*
X89470506Y-52800000D01*
X89458287Y-52762391D01*
X89422265Y-52700000D01*
X102469953Y-52700000D01*
X102488092Y-52872576D01*
X102488093Y-52872579D01*
X102541712Y-53037608D01*
X102628477Y-53187887D01*
X102628476Y-53187887D01*
X102719897Y-53289420D01*
X102744590Y-53316845D01*
X102875712Y-53412111D01*
X102884976Y-53418842D01*
X103043495Y-53489420D01*
X103043501Y-53489422D01*
X103213236Y-53525500D01*
X103213237Y-53525500D01*
X103386762Y-53525500D01*
X103386764Y-53525500D01*
X103556499Y-53489422D01*
X103556501Y-53489420D01*
X103556504Y-53489420D01*
X103672868Y-53437611D01*
X103715024Y-53418842D01*
X103855410Y-53316845D01*
X103971522Y-53187889D01*
X104022265Y-53100000D01*
X111969953Y-53100000D01*
X111988092Y-53272576D01*
X111988093Y-53272579D01*
X112041712Y-53437608D01*
X112128477Y-53587887D01*
X112128476Y-53587887D01*
X112212457Y-53681157D01*
X112244590Y-53716845D01*
X112344483Y-53789422D01*
X112384976Y-53818842D01*
X112543495Y-53889420D01*
X112543501Y-53889422D01*
X112713236Y-53925500D01*
X112713237Y-53925500D01*
X112886762Y-53925500D01*
X112886764Y-53925500D01*
X113056499Y-53889422D01*
X113056501Y-53889420D01*
X113056504Y-53889420D01*
X113109899Y-53865646D01*
X113215024Y-53818842D01*
X113355410Y-53716845D01*
X113471522Y-53587889D01*
X113558286Y-53437611D01*
X113611908Y-53272576D01*
X113630047Y-53100000D01*
X113619536Y-53000000D01*
X114069953Y-53000000D01*
X114088092Y-53172576D01*
X114088093Y-53172579D01*
X114141712Y-53337608D01*
X114228477Y-53487887D01*
X114228476Y-53487887D01*
X114319897Y-53589420D01*
X114344590Y-53616845D01*
X114482225Y-53716843D01*
X114484976Y-53718842D01*
X114643495Y-53789420D01*
X114643501Y-53789422D01*
X114813236Y-53825500D01*
X114813237Y-53825500D01*
X114986762Y-53825500D01*
X114986764Y-53825500D01*
X115156499Y-53789422D01*
X115156501Y-53789420D01*
X115156504Y-53789420D01*
X115272868Y-53737611D01*
X115315024Y-53718842D01*
X115455410Y-53616845D01*
X115571522Y-53487889D01*
X115658286Y-53337611D01*
X115711908Y-53172576D01*
X115730047Y-53000000D01*
X115711908Y-52827424D01*
X115672774Y-52706980D01*
X124569953Y-52706980D01*
X124588092Y-52879556D01*
X124588093Y-52879559D01*
X124641712Y-53044588D01*
X124728477Y-53194867D01*
X124728476Y-53194867D01*
X124813614Y-53289422D01*
X124844590Y-53323825D01*
X124863561Y-53337608D01*
X124984976Y-53425822D01*
X125143495Y-53496400D01*
X125143501Y-53496402D01*
X125313236Y-53532480D01*
X125313237Y-53532480D01*
X125486762Y-53532480D01*
X125486764Y-53532480D01*
X125656499Y-53496402D01*
X125656501Y-53496400D01*
X125656504Y-53496400D01*
X125709899Y-53472626D01*
X125815024Y-53425822D01*
X125955410Y-53323825D01*
X126071522Y-53194869D01*
X126158286Y-53044591D01*
X126211908Y-52879556D01*
X126230047Y-52706980D01*
X126211908Y-52534404D01*
X126171044Y-52408635D01*
X126158287Y-52369371D01*
X126125228Y-52312112D01*
X126071522Y-52219091D01*
X126039164Y-52183153D01*
X125955411Y-52090136D01*
X125948848Y-52085368D01*
X125866846Y-52025789D01*
X125815023Y-51988137D01*
X125656504Y-51917559D01*
X125656498Y-51917557D01*
X125522841Y-51889148D01*
X125486764Y-51881480D01*
X125313236Y-51881480D01*
X125283483Y-51887804D01*
X125143501Y-51917557D01*
X125143496Y-51917559D01*
X124984977Y-51988137D01*
X124984972Y-51988140D01*
X124844591Y-52090133D01*
X124844589Y-52090135D01*
X124728477Y-52219092D01*
X124641712Y-52369371D01*
X124590361Y-52527420D01*
X124588092Y-52534404D01*
X124569953Y-52706980D01*
X115672774Y-52706980D01*
X115664385Y-52681160D01*
X115658287Y-52662391D01*
X115658286Y-52662389D01*
X115571522Y-52512111D01*
X115459673Y-52387889D01*
X115455411Y-52383156D01*
X115315023Y-52281157D01*
X115156504Y-52210579D01*
X115156498Y-52210577D01*
X115022841Y-52182168D01*
X114986764Y-52174500D01*
X114813236Y-52174500D01*
X114783483Y-52180824D01*
X114643501Y-52210577D01*
X114643496Y-52210579D01*
X114484977Y-52281157D01*
X114484972Y-52281160D01*
X114344591Y-52383153D01*
X114344589Y-52383155D01*
X114228477Y-52512112D01*
X114141712Y-52662391D01*
X114102475Y-52783156D01*
X114088092Y-52827424D01*
X114069953Y-53000000D01*
X113619536Y-53000000D01*
X113611908Y-52927424D01*
X113570506Y-52800000D01*
X113558287Y-52762391D01*
X113513389Y-52684625D01*
X113496916Y-52616724D01*
X113519769Y-52550698D01*
X113547891Y-52522307D01*
X113555410Y-52516845D01*
X113671522Y-52387889D01*
X113758286Y-52237611D01*
X113811908Y-52072576D01*
X113830047Y-51900000D01*
X113811908Y-51727424D01*
X113775979Y-51616843D01*
X113758287Y-51562391D01*
X113731991Y-51516845D01*
X113671522Y-51412111D01*
X113604440Y-51337608D01*
X113555411Y-51283156D01*
X113415023Y-51181157D01*
X113256504Y-51110579D01*
X113256498Y-51110577D01*
X113122841Y-51082168D01*
X113086764Y-51074500D01*
X112913236Y-51074500D01*
X112883483Y-51080824D01*
X112743501Y-51110577D01*
X112743496Y-51110579D01*
X112584977Y-51181157D01*
X112584972Y-51181160D01*
X112444591Y-51283153D01*
X112444589Y-51283155D01*
X112328477Y-51412112D01*
X112241712Y-51562391D01*
X112193565Y-51710578D01*
X112188092Y-51727424D01*
X112169953Y-51900000D01*
X112188092Y-52072576D01*
X112188093Y-52072579D01*
X112241712Y-52237608D01*
X112286610Y-52315373D01*
X112303083Y-52383273D01*
X112280230Y-52449300D01*
X112252117Y-52477685D01*
X112244592Y-52483153D01*
X112244589Y-52483155D01*
X112128477Y-52612112D01*
X112041712Y-52762391D01*
X111993067Y-52912111D01*
X111988092Y-52927424D01*
X111969953Y-53100000D01*
X104022265Y-53100000D01*
X104058286Y-53037611D01*
X104111908Y-52872576D01*
X104130047Y-52700000D01*
X104111908Y-52527424D01*
X104066571Y-52387887D01*
X104058287Y-52362391D01*
X104058286Y-52362389D01*
X103971522Y-52212111D01*
X103857404Y-52085369D01*
X103855411Y-52083156D01*
X103715023Y-51981157D01*
X103556504Y-51910579D01*
X103556498Y-51910577D01*
X103422841Y-51882168D01*
X103386764Y-51874500D01*
X103213236Y-51874500D01*
X103183483Y-51880824D01*
X103043501Y-51910577D01*
X103043496Y-51910579D01*
X102884977Y-51981157D01*
X102884972Y-51981160D01*
X102744591Y-52083153D01*
X102744589Y-52083155D01*
X102628477Y-52212112D01*
X102541712Y-52362391D01*
X102502475Y-52483156D01*
X102488092Y-52527424D01*
X102469953Y-52700000D01*
X89422265Y-52700000D01*
X89411388Y-52681160D01*
X89371522Y-52612111D01*
X89285745Y-52516845D01*
X89255411Y-52483156D01*
X89115023Y-52381157D01*
X88956504Y-52310579D01*
X88956498Y-52310577D01*
X88818083Y-52281157D01*
X88786764Y-52274500D01*
X88613236Y-52274500D01*
X88583483Y-52280824D01*
X88443501Y-52310577D01*
X88443496Y-52310579D01*
X88284977Y-52381157D01*
X88284972Y-52381160D01*
X88144591Y-52483153D01*
X88144589Y-52483155D01*
X88028477Y-52612112D01*
X87941712Y-52762391D01*
X87893067Y-52912111D01*
X87888092Y-52927424D01*
X87869953Y-53100000D01*
X79970506Y-53100000D01*
X80011908Y-52972576D01*
X80030047Y-52800000D01*
X80011908Y-52627424D01*
X79970506Y-52500000D01*
X79958287Y-52462391D01*
X79950729Y-52449300D01*
X79871522Y-52312111D01*
X79804440Y-52237608D01*
X79755411Y-52183156D01*
X79615023Y-52081157D01*
X79456504Y-52010579D01*
X79456498Y-52010577D01*
X79318083Y-51981157D01*
X79286764Y-51974500D01*
X79113236Y-51974500D01*
X79083483Y-51980824D01*
X78943501Y-52010577D01*
X78943496Y-52010579D01*
X78784977Y-52081157D01*
X78784972Y-52081160D01*
X78644591Y-52183153D01*
X78644589Y-52183155D01*
X78528477Y-52312112D01*
X78441712Y-52462391D01*
X78388093Y-52627420D01*
X78388092Y-52627424D01*
X78369953Y-52800000D01*
X74874970Y-52800000D01*
X76374974Y-51299996D01*
X82594435Y-51299996D01*
X82594435Y-51300003D01*
X82614630Y-51479249D01*
X82614631Y-51479254D01*
X82674211Y-51649523D01*
X82723160Y-51727424D01*
X82770184Y-51802262D01*
X82897738Y-51929816D01*
X82968852Y-51974500D01*
X83028709Y-52012111D01*
X83050478Y-52025789D01*
X83184188Y-52072576D01*
X83220745Y-52085368D01*
X83220750Y-52085369D01*
X83399996Y-52105565D01*
X83400000Y-52105565D01*
X83400004Y-52105565D01*
X83579249Y-52085369D01*
X83579252Y-52085368D01*
X83579255Y-52085368D01*
X83749522Y-52025789D01*
X83902262Y-51929816D01*
X84029816Y-51802262D01*
X84125789Y-51649522D01*
X84185368Y-51479255D01*
X84190060Y-51437611D01*
X84205565Y-51300003D01*
X84205565Y-51299996D01*
X84185369Y-51120750D01*
X84185368Y-51120745D01*
X84178109Y-51100000D01*
X85569953Y-51100000D01*
X85588092Y-51272576D01*
X85588093Y-51272579D01*
X85641712Y-51437608D01*
X85728477Y-51587887D01*
X85728476Y-51587887D01*
X85819897Y-51689420D01*
X85844590Y-51716845D01*
X85944483Y-51789422D01*
X85984976Y-51818842D01*
X86143495Y-51889420D01*
X86143501Y-51889422D01*
X86313236Y-51925500D01*
X86313237Y-51925500D01*
X86486762Y-51925500D01*
X86486764Y-51925500D01*
X86656499Y-51889422D01*
X86656501Y-51889420D01*
X86656504Y-51889420D01*
X86709899Y-51865646D01*
X86815024Y-51818842D01*
X86955410Y-51716845D01*
X87071522Y-51587889D01*
X87158286Y-51437611D01*
X87211908Y-51272576D01*
X87230047Y-51100000D01*
X87219536Y-51000000D01*
X97669953Y-51000000D01*
X97688092Y-51172576D01*
X97688093Y-51172579D01*
X97741712Y-51337608D01*
X97828477Y-51487887D01*
X97828476Y-51487887D01*
X97919897Y-51589420D01*
X97944590Y-51616845D01*
X98044483Y-51689422D01*
X98084976Y-51718842D01*
X98243495Y-51789420D01*
X98243501Y-51789422D01*
X98413236Y-51825500D01*
X98413237Y-51825500D01*
X98586762Y-51825500D01*
X98586764Y-51825500D01*
X98756499Y-51789422D01*
X98756501Y-51789420D01*
X98756504Y-51789420D01*
X98809899Y-51765646D01*
X98915024Y-51718842D01*
X99055410Y-51616845D01*
X99171522Y-51487889D01*
X99258286Y-51337611D01*
X99311908Y-51172576D01*
X99330047Y-51000000D01*
X106869953Y-51000000D01*
X106888092Y-51172576D01*
X106888093Y-51172579D01*
X106941712Y-51337608D01*
X107028477Y-51487887D01*
X107028476Y-51487887D01*
X107119897Y-51589420D01*
X107144590Y-51616845D01*
X107244483Y-51689422D01*
X107284976Y-51718842D01*
X107443495Y-51789420D01*
X107443501Y-51789422D01*
X107613236Y-51825500D01*
X107613237Y-51825500D01*
X107786762Y-51825500D01*
X107786764Y-51825500D01*
X107956499Y-51789422D01*
X107956501Y-51789420D01*
X107956504Y-51789420D01*
X108009899Y-51765646D01*
X108115024Y-51718842D01*
X108255410Y-51616845D01*
X108371522Y-51487889D01*
X108458286Y-51337611D01*
X108511908Y-51172576D01*
X108530047Y-51000000D01*
X108519536Y-50900000D01*
X117969953Y-50900000D01*
X117988092Y-51072576D01*
X117988093Y-51072579D01*
X118041712Y-51237608D01*
X118128477Y-51387887D01*
X118128476Y-51387887D01*
X118210739Y-51479249D01*
X118244590Y-51516845D01*
X118344483Y-51589422D01*
X118384976Y-51618842D01*
X118543495Y-51689420D01*
X118543501Y-51689422D01*
X118713236Y-51725500D01*
X118713237Y-51725500D01*
X118886762Y-51725500D01*
X118886764Y-51725500D01*
X119056499Y-51689422D01*
X119056501Y-51689420D01*
X119056504Y-51689420D01*
X119146113Y-51649523D01*
X119215024Y-51618842D01*
X119355410Y-51516845D01*
X119471522Y-51387889D01*
X119558286Y-51237611D01*
X119611908Y-51072576D01*
X119630047Y-50900000D01*
X127469953Y-50900000D01*
X127488092Y-51072576D01*
X127488093Y-51072579D01*
X127541712Y-51237608D01*
X127628477Y-51387887D01*
X127628476Y-51387887D01*
X127710739Y-51479249D01*
X127744590Y-51516845D01*
X127844483Y-51589422D01*
X127884976Y-51618842D01*
X128043495Y-51689420D01*
X128043501Y-51689422D01*
X128213236Y-51725500D01*
X128213237Y-51725500D01*
X128386762Y-51725500D01*
X128386764Y-51725500D01*
X128556499Y-51689422D01*
X128556501Y-51689420D01*
X128556504Y-51689420D01*
X128646113Y-51649523D01*
X128715024Y-51618842D01*
X128855410Y-51516845D01*
X128971522Y-51387889D01*
X129058286Y-51237611D01*
X129111908Y-51072576D01*
X129130047Y-50900000D01*
X129119536Y-50800000D01*
X142069953Y-50800000D01*
X142088092Y-50972576D01*
X142088093Y-50972579D01*
X142141712Y-51137608D01*
X142166856Y-51181158D01*
X142225745Y-51283156D01*
X142228477Y-51287887D01*
X142228476Y-51287887D01*
X142340328Y-51412111D01*
X142344590Y-51416845D01*
X142442373Y-51487889D01*
X142484976Y-51518842D01*
X142643495Y-51589420D01*
X142643501Y-51589422D01*
X142813236Y-51625500D01*
X142813237Y-51625500D01*
X142986762Y-51625500D01*
X142986764Y-51625500D01*
X143156499Y-51589422D01*
X143156501Y-51589420D01*
X143156504Y-51589420D01*
X143209899Y-51565646D01*
X143315024Y-51518842D01*
X143455410Y-51416845D01*
X143571522Y-51287889D01*
X143658286Y-51137611D01*
X143711908Y-50972576D01*
X143730047Y-50800000D01*
X143711908Y-50627424D01*
X143666571Y-50487887D01*
X143658287Y-50462391D01*
X143629258Y-50412112D01*
X143571522Y-50312111D01*
X143485745Y-50216845D01*
X143455411Y-50183156D01*
X143315023Y-50081157D01*
X143156504Y-50010579D01*
X143156498Y-50010577D01*
X143022841Y-49982168D01*
X142986764Y-49974500D01*
X142813236Y-49974500D01*
X142783483Y-49980824D01*
X142643501Y-50010577D01*
X142643496Y-50010579D01*
X142484977Y-50081157D01*
X142484972Y-50081160D01*
X142344591Y-50183153D01*
X142344589Y-50183155D01*
X142228477Y-50312112D01*
X142141712Y-50462391D01*
X142093067Y-50612111D01*
X142088092Y-50627424D01*
X142069953Y-50800000D01*
X129119536Y-50800000D01*
X129111908Y-50727424D01*
X129058286Y-50562389D01*
X128971522Y-50412111D01*
X128904440Y-50337608D01*
X128855411Y-50283156D01*
X128715023Y-50181157D01*
X128556504Y-50110579D01*
X128556498Y-50110577D01*
X128418083Y-50081157D01*
X128386764Y-50074500D01*
X128213236Y-50074500D01*
X128183483Y-50080824D01*
X128043501Y-50110577D01*
X128043496Y-50110579D01*
X127884977Y-50181157D01*
X127884972Y-50181160D01*
X127744591Y-50283153D01*
X127744589Y-50283155D01*
X127628477Y-50412112D01*
X127541712Y-50562391D01*
X127490880Y-50718842D01*
X127488092Y-50727424D01*
X127469953Y-50900000D01*
X119630047Y-50900000D01*
X119611908Y-50727424D01*
X119558286Y-50562389D01*
X119471522Y-50412111D01*
X119404440Y-50337608D01*
X119355411Y-50283156D01*
X119215023Y-50181157D01*
X119056504Y-50110579D01*
X119056498Y-50110577D01*
X118918083Y-50081157D01*
X118886764Y-50074500D01*
X118713236Y-50074500D01*
X118683483Y-50080824D01*
X118543501Y-50110577D01*
X118543496Y-50110579D01*
X118384977Y-50181157D01*
X118384972Y-50181160D01*
X118244591Y-50283153D01*
X118244589Y-50283155D01*
X118128477Y-50412112D01*
X118041712Y-50562391D01*
X117990880Y-50718842D01*
X117988092Y-50727424D01*
X117969953Y-50900000D01*
X108519536Y-50900000D01*
X108511908Y-50827424D01*
X108458286Y-50662389D01*
X108371522Y-50512111D01*
X108293538Y-50425500D01*
X108255411Y-50383156D01*
X108115023Y-50281157D01*
X107956504Y-50210579D01*
X107956498Y-50210577D01*
X107818083Y-50181157D01*
X107786764Y-50174500D01*
X107613236Y-50174500D01*
X107583483Y-50180824D01*
X107443501Y-50210577D01*
X107443496Y-50210579D01*
X107284977Y-50281157D01*
X107284972Y-50281160D01*
X107144591Y-50383153D01*
X107144589Y-50383155D01*
X107028477Y-50512112D01*
X106941712Y-50662391D01*
X106897737Y-50797738D01*
X106888092Y-50827424D01*
X106869953Y-51000000D01*
X99330047Y-51000000D01*
X99311908Y-50827424D01*
X99258286Y-50662389D01*
X99171522Y-50512111D01*
X99093538Y-50425500D01*
X99055411Y-50383156D01*
X98915023Y-50281157D01*
X98756504Y-50210579D01*
X98756498Y-50210577D01*
X98618083Y-50181157D01*
X98586764Y-50174500D01*
X98413236Y-50174500D01*
X98383483Y-50180824D01*
X98243501Y-50210577D01*
X98243496Y-50210579D01*
X98084977Y-50281157D01*
X98084972Y-50281160D01*
X97944591Y-50383153D01*
X97944589Y-50383155D01*
X97828477Y-50512112D01*
X97741712Y-50662391D01*
X97697737Y-50797738D01*
X97688092Y-50827424D01*
X97669953Y-51000000D01*
X87219536Y-51000000D01*
X87211908Y-50927424D01*
X87169771Y-50797737D01*
X87158287Y-50762391D01*
X87158286Y-50762389D01*
X87071522Y-50612111D01*
X86959673Y-50487889D01*
X86955411Y-50483156D01*
X86815023Y-50381157D01*
X86656504Y-50310579D01*
X86656498Y-50310577D01*
X86518083Y-50281157D01*
X86486764Y-50274500D01*
X86313236Y-50274500D01*
X86283483Y-50280824D01*
X86143501Y-50310577D01*
X86143496Y-50310579D01*
X85984977Y-50381157D01*
X85984972Y-50381160D01*
X85844591Y-50483153D01*
X85844589Y-50483155D01*
X85728477Y-50612112D01*
X85641712Y-50762391D01*
X85597002Y-50900000D01*
X85588092Y-50927424D01*
X85569953Y-51100000D01*
X84178109Y-51100000D01*
X84125788Y-50950476D01*
X84029815Y-50797737D01*
X83902262Y-50670184D01*
X83749523Y-50574211D01*
X83579254Y-50514631D01*
X83579249Y-50514630D01*
X83400004Y-50494435D01*
X83399996Y-50494435D01*
X83220750Y-50514630D01*
X83220745Y-50514631D01*
X83050476Y-50574211D01*
X82897737Y-50670184D01*
X82770184Y-50797737D01*
X82674211Y-50950476D01*
X82614631Y-51120745D01*
X82614630Y-51120750D01*
X82594435Y-51299996D01*
X76374974Y-51299996D01*
X78368741Y-49306229D01*
X78430062Y-49272746D01*
X78499754Y-49277730D01*
X78555687Y-49319602D01*
X78580104Y-49385066D01*
X78579741Y-49406873D01*
X78571065Y-49489420D01*
X78569953Y-49500000D01*
X78588092Y-49672576D01*
X78588093Y-49672579D01*
X78641712Y-49837608D01*
X78728477Y-49987887D01*
X78728476Y-49987887D01*
X78819897Y-50089420D01*
X78844590Y-50116845D01*
X78935859Y-50183156D01*
X78984976Y-50218842D01*
X79143495Y-50289420D01*
X79143501Y-50289422D01*
X79313236Y-50325500D01*
X79313237Y-50325500D01*
X79486762Y-50325500D01*
X79486764Y-50325500D01*
X79656499Y-50289422D01*
X79656501Y-50289420D01*
X79656504Y-50289420D01*
X79709899Y-50265646D01*
X79815024Y-50218842D01*
X79955410Y-50116845D01*
X80071522Y-49987889D01*
X80158286Y-49837611D01*
X80211908Y-49672576D01*
X80230047Y-49500000D01*
X80211908Y-49327424D01*
X80174671Y-49212817D01*
X80172676Y-49142976D01*
X80208757Y-49083143D01*
X80271458Y-49052316D01*
X80292602Y-49050500D01*
X88907398Y-49050500D01*
X88974437Y-49070185D01*
X89020192Y-49122989D01*
X89030136Y-49192147D01*
X89025329Y-49212817D01*
X89003124Y-49281160D01*
X88988092Y-49327424D01*
X88969953Y-49500000D01*
X88988092Y-49672576D01*
X88988093Y-49672579D01*
X89041712Y-49837608D01*
X89128477Y-49987887D01*
X89128476Y-49987887D01*
X89219897Y-50089420D01*
X89244590Y-50116845D01*
X89335859Y-50183156D01*
X89384976Y-50218842D01*
X89543495Y-50289420D01*
X89543501Y-50289422D01*
X89713236Y-50325500D01*
X89713237Y-50325500D01*
X89886762Y-50325500D01*
X89886764Y-50325500D01*
X90056499Y-50289422D01*
X90056501Y-50289420D01*
X90056504Y-50289420D01*
X90109899Y-50265646D01*
X90215024Y-50218842D01*
X90355410Y-50116845D01*
X90471522Y-49987889D01*
X90558286Y-49837611D01*
X90611908Y-49672576D01*
X90619536Y-49600000D01*
X93369953Y-49600000D01*
X93388092Y-49772576D01*
X93388093Y-49772579D01*
X93441712Y-49937608D01*
X93528477Y-50087887D01*
X93528476Y-50087887D01*
X93614256Y-50183155D01*
X93644590Y-50216845D01*
X93744483Y-50289422D01*
X93784976Y-50318842D01*
X93943495Y-50389420D01*
X93943501Y-50389422D01*
X94113236Y-50425500D01*
X94113237Y-50425500D01*
X94286762Y-50425500D01*
X94286764Y-50425500D01*
X94456499Y-50389422D01*
X94456501Y-50389420D01*
X94456504Y-50389420D01*
X94572868Y-50337611D01*
X94615024Y-50318842D01*
X94755410Y-50216845D01*
X94871522Y-50087889D01*
X94922265Y-50000000D01*
X112769953Y-50000000D01*
X112788092Y-50172576D01*
X112788093Y-50172579D01*
X112841712Y-50337608D01*
X112866856Y-50381158D01*
X112925745Y-50483156D01*
X112928477Y-50487887D01*
X112928476Y-50487887D01*
X113040328Y-50612111D01*
X113044590Y-50616845D01*
X113184976Y-50718842D01*
X113343495Y-50789420D01*
X113343501Y-50789422D01*
X113513236Y-50825500D01*
X113513237Y-50825500D01*
X113686762Y-50825500D01*
X113686764Y-50825500D01*
X113856499Y-50789422D01*
X113856501Y-50789420D01*
X113856504Y-50789420D01*
X113909899Y-50765646D01*
X114015024Y-50718842D01*
X114155410Y-50616845D01*
X114271522Y-50487889D01*
X114358286Y-50337611D01*
X114411908Y-50172576D01*
X114430047Y-50000000D01*
X114411908Y-49827424D01*
X114358286Y-49662389D01*
X114271522Y-49512111D01*
X114204440Y-49437608D01*
X114155411Y-49383156D01*
X114040958Y-49300000D01*
X120869953Y-49300000D01*
X120888092Y-49472576D01*
X120888093Y-49472579D01*
X120941712Y-49637608D01*
X121028477Y-49787887D01*
X121028476Y-49787887D01*
X121119897Y-49889420D01*
X121144590Y-49916845D01*
X121273600Y-50010577D01*
X121284976Y-50018842D01*
X121443495Y-50089420D01*
X121443501Y-50089422D01*
X121613236Y-50125500D01*
X121613237Y-50125500D01*
X121786762Y-50125500D01*
X121786764Y-50125500D01*
X121956499Y-50089422D01*
X121956501Y-50089420D01*
X121956504Y-50089420D01*
X122009899Y-50065646D01*
X122115024Y-50018842D01*
X122255410Y-49916845D01*
X122371522Y-49787889D01*
X122458286Y-49637611D01*
X122506628Y-49488823D01*
X122546064Y-49431149D01*
X122610423Y-49403950D01*
X122679269Y-49415864D01*
X122684201Y-49418496D01*
X122684972Y-49418839D01*
X122684976Y-49418842D01*
X122777419Y-49460000D01*
X122843495Y-49489420D01*
X122843501Y-49489422D01*
X123013236Y-49525500D01*
X123013237Y-49525500D01*
X123186762Y-49525500D01*
X123186764Y-49525500D01*
X123356499Y-49489422D01*
X123356501Y-49489420D01*
X123356504Y-49489420D01*
X123472868Y-49437611D01*
X123515024Y-49418842D01*
X123655410Y-49316845D01*
X123771522Y-49187889D01*
X123858286Y-49037611D01*
X123911908Y-48872576D01*
X123930047Y-48700000D01*
X123911908Y-48527424D01*
X123865033Y-48383155D01*
X123858287Y-48362391D01*
X123828373Y-48310579D01*
X123771522Y-48212111D01*
X123765064Y-48204938D01*
X123655411Y-48083156D01*
X123515023Y-47981157D01*
X123356504Y-47910579D01*
X123356498Y-47910577D01*
X123222841Y-47882168D01*
X123186764Y-47874500D01*
X123013236Y-47874500D01*
X122983483Y-47880824D01*
X122843501Y-47910577D01*
X122843496Y-47910579D01*
X122684977Y-47981157D01*
X122684972Y-47981160D01*
X122544591Y-48083153D01*
X122544589Y-48083155D01*
X122428477Y-48212112D01*
X122341713Y-48362390D01*
X122293371Y-48511175D01*
X122253934Y-48568850D01*
X122189575Y-48596049D01*
X122120729Y-48584135D01*
X122115796Y-48581502D01*
X122115024Y-48581158D01*
X122085937Y-48568207D01*
X121956504Y-48510579D01*
X121956498Y-48510577D01*
X121822841Y-48482168D01*
X121786764Y-48474500D01*
X121613236Y-48474500D01*
X121583483Y-48480824D01*
X121443501Y-48510577D01*
X121443496Y-48510579D01*
X121284977Y-48581157D01*
X121284972Y-48581160D01*
X121144591Y-48683153D01*
X121144589Y-48683155D01*
X121028477Y-48812112D01*
X120941712Y-48962391D01*
X120893067Y-49112111D01*
X120888092Y-49127424D01*
X120869953Y-49300000D01*
X114040958Y-49300000D01*
X114015023Y-49281157D01*
X113856504Y-49210579D01*
X113856498Y-49210577D01*
X113722841Y-49182168D01*
X113686764Y-49174500D01*
X113513236Y-49174500D01*
X113483483Y-49180824D01*
X113343501Y-49210577D01*
X113343496Y-49210579D01*
X113184977Y-49281157D01*
X113184972Y-49281160D01*
X113044591Y-49383153D01*
X113044589Y-49383155D01*
X112928477Y-49512112D01*
X112841712Y-49662391D01*
X112800439Y-49789422D01*
X112788092Y-49827424D01*
X112769953Y-50000000D01*
X94922265Y-50000000D01*
X94958286Y-49937611D01*
X95011908Y-49772576D01*
X95030047Y-49600000D01*
X95011908Y-49427424D01*
X94964385Y-49281160D01*
X94958287Y-49262391D01*
X94928373Y-49210579D01*
X94871522Y-49112111D01*
X94860617Y-49100000D01*
X104569953Y-49100000D01*
X104588092Y-49272576D01*
X104588093Y-49272579D01*
X104641712Y-49437608D01*
X104728477Y-49587887D01*
X104728476Y-49587887D01*
X104795560Y-49662391D01*
X104844590Y-49716845D01*
X104944483Y-49789422D01*
X104984976Y-49818842D01*
X105143495Y-49889420D01*
X105143501Y-49889422D01*
X105313236Y-49925500D01*
X105313237Y-49925500D01*
X105486762Y-49925500D01*
X105486764Y-49925500D01*
X105656499Y-49889422D01*
X105656501Y-49889420D01*
X105656504Y-49889420D01*
X105772868Y-49837611D01*
X105815024Y-49818842D01*
X105955410Y-49716845D01*
X106071522Y-49587889D01*
X106158286Y-49437611D01*
X106211908Y-49272576D01*
X106230047Y-49100000D01*
X106211908Y-48927424D01*
X106158286Y-48762389D01*
X106071522Y-48612111D01*
X106046333Y-48584135D01*
X105955411Y-48483156D01*
X105815023Y-48381157D01*
X105656504Y-48310579D01*
X105656498Y-48310577D01*
X105518083Y-48281157D01*
X105486764Y-48274500D01*
X105313236Y-48274500D01*
X105283483Y-48280824D01*
X105143501Y-48310577D01*
X105143496Y-48310579D01*
X104984977Y-48381157D01*
X104984972Y-48381160D01*
X104844591Y-48483153D01*
X104844589Y-48483155D01*
X104728477Y-48612112D01*
X104641712Y-48762391D01*
X104588093Y-48927420D01*
X104588092Y-48927424D01*
X104569953Y-49100000D01*
X94860617Y-49100000D01*
X94816048Y-49050500D01*
X94755411Y-48983156D01*
X94744324Y-48975101D01*
X94615024Y-48881158D01*
X94615023Y-48881157D01*
X94456504Y-48810579D01*
X94456498Y-48810577D01*
X94322841Y-48782168D01*
X94286764Y-48774500D01*
X94113236Y-48774500D01*
X94083483Y-48780824D01*
X93943501Y-48810577D01*
X93943496Y-48810579D01*
X93784977Y-48881157D01*
X93784972Y-48881160D01*
X93644591Y-48983153D01*
X93644589Y-48983155D01*
X93528477Y-49112112D01*
X93441712Y-49262391D01*
X93390880Y-49418842D01*
X93388092Y-49427424D01*
X93369953Y-49600000D01*
X90619536Y-49600000D01*
X90630047Y-49500000D01*
X90611908Y-49327424D01*
X90574671Y-49212817D01*
X90572676Y-49142976D01*
X90608757Y-49083143D01*
X90671458Y-49052316D01*
X90692602Y-49050500D01*
X93039560Y-49050500D01*
X93039562Y-49050500D01*
X93115989Y-49030021D01*
X93184511Y-48990460D01*
X93240460Y-48934511D01*
X95338152Y-46836819D01*
X95399475Y-46803334D01*
X95425833Y-46800500D01*
X97340505Y-46800500D01*
X97407544Y-46820185D01*
G37*
%TD.AperFunction*%
%TD*%
M02*
