%TF.GenerationSoftware,KiCad,Pcbnew,8.0.4*%
%TF.CreationDate,2024-11-30T14:16:15+01:00*%
%TF.ProjectId,Sensor_PCB,53656e73-6f72-45f5-9043-422e6b696361,rev?*%
%TF.SameCoordinates,Original*%
%TF.FileFunction,Soldermask,Top*%
%TF.FilePolarity,Negative*%
%FSLAX46Y46*%
G04 Gerber Fmt 4.6, Leading zero omitted, Abs format (unit mm)*
G04 Created by KiCad (PCBNEW 8.0.4) date 2024-11-30 14:16:15*
%MOMM*%
%LPD*%
G01*
G04 APERTURE LIST*
%ADD10R,1.000000X1.000000*%
%ADD11R,0.300000X1.300000*%
%ADD12R,1.800000X2.200000*%
%ADD13C,2.100000*%
G04 APERTURE END LIST*
D10*
%TO.C,IC1*%
X64850000Y-65900001D03*
X64850000Y-64099999D03*
X69150000Y-64099999D03*
X69150000Y-65900001D03*
%TD*%
%TO.C,IC9*%
X110650000Y-49100000D03*
X110650000Y-50900000D03*
X106350000Y-50900000D03*
X106350000Y-49100000D03*
%TD*%
%TO.C,IC3*%
X101150000Y-49100000D03*
X101150000Y-50900000D03*
X96850000Y-50900000D03*
X96850000Y-49100000D03*
%TD*%
%TO.C,IC7*%
X71350000Y-59400000D03*
X71350000Y-57600000D03*
X75650000Y-57600000D03*
X75650000Y-59400000D03*
%TD*%
%TO.C,IC10*%
X129650000Y-49100000D03*
X129650000Y-50900000D03*
X125350000Y-50900000D03*
X125350000Y-49100000D03*
%TD*%
%TO.C,IC2*%
X82150000Y-51099999D03*
X82150000Y-52900001D03*
X77850000Y-52900001D03*
X77850000Y-51099999D03*
%TD*%
%TO.C,IC6*%
X155150000Y-57600000D03*
X155150000Y-59400000D03*
X150850000Y-59400000D03*
X150850000Y-57600000D03*
%TD*%
%TO.C,IC11*%
X148650000Y-51100000D03*
X148650000Y-52900000D03*
X144350000Y-52900000D03*
X144350000Y-51100000D03*
%TD*%
D11*
%TO.C,SENSOR*%
X109250000Y-56400000D03*
X109750000Y-56400000D03*
X110250000Y-56400000D03*
X110750000Y-56400000D03*
X111250000Y-56400000D03*
X111750000Y-56400000D03*
X112250000Y-56400000D03*
X112750000Y-56400000D03*
X113250000Y-56400000D03*
X113750000Y-56400000D03*
X114250000Y-56400000D03*
X114750000Y-56400000D03*
X115250000Y-56400000D03*
X115750000Y-56400000D03*
X116250000Y-56400000D03*
X116750000Y-56400000D03*
X117250000Y-56400000D03*
D12*
X107350000Y-59650000D03*
X119150000Y-59650000D03*
%TD*%
D10*
%TO.C,IC12*%
X161650000Y-64100000D03*
X161650000Y-65900000D03*
X157350000Y-65900000D03*
X157350000Y-64100000D03*
%TD*%
%TO.C,IC4*%
X120150000Y-49100000D03*
X120150000Y-50900000D03*
X115850000Y-50900000D03*
X115850000Y-49100000D03*
%TD*%
%TO.C,IC8*%
X91650000Y-51100000D03*
X91650000Y-52900000D03*
X87350000Y-52900000D03*
X87350000Y-51100000D03*
%TD*%
%TO.C,IC5*%
X139150000Y-51100000D03*
X139150000Y-52900000D03*
X134850000Y-52900000D03*
X134850000Y-51100000D03*
%TD*%
D13*
%TO.C,REF\u002A\u002A*%
X127250000Y-58250000D03*
%TD*%
%TO.C,REF\u002A\u002A*%
X99250000Y-58250000D03*
%TD*%
M02*
