%TF.GenerationSoftware,KiCad,Pcbnew,8.0.4*%
%TF.CreationDate,2024-11-30T14:16:19+01:00*%
%TF.ProjectId,Sensor_PCB,53656e73-6f72-45f5-9043-422e6b696361,rev?*%
%TF.SameCoordinates,Original*%
%TF.FileFunction,Plated,1,4,PTH,Drill*%
%TF.FilePolarity,Positive*%
%FSLAX46Y46*%
G04 Gerber Fmt 4.6, Leading zero omitted, Abs format (unit mm)*
G04 Created by KiCad (PCBNEW 8.0.4) date 2024-11-30 14:16:19*
%MOMM*%
%LPD*%
G01*
G04 APERTURE LIST*
%TA.AperFunction,ViaDrill*%
%ADD10C,0.300000*%
%TD*%
G04 APERTURE END LIST*
D10*
X63800000Y-64500000D03*
X65900000Y-68200000D03*
X67300000Y-62500000D03*
X70200000Y-59100000D03*
X70400000Y-57900000D03*
X72300000Y-62500000D03*
X74700000Y-59400000D03*
X75500000Y-61100000D03*
X77000000Y-57300000D03*
X79200000Y-52800000D03*
X79400000Y-49500000D03*
X82400000Y-54400000D03*
X83100000Y-52600000D03*
X83400000Y-51300000D03*
X86400000Y-51100000D03*
X88700000Y-53100000D03*
X89800000Y-49500000D03*
X93000000Y-52700000D03*
X93100000Y-53900000D03*
X94200000Y-49600000D03*
X98100000Y-47500000D03*
X98500000Y-51000000D03*
X102300000Y-50500000D03*
X103300000Y-52700000D03*
X105400000Y-49100000D03*
X106200000Y-54600000D03*
X107700000Y-51000000D03*
X108625000Y-56400000D03*
X109300000Y-47500000D03*
X110100000Y-57900000D03*
X111800000Y-50700000D03*
X112800000Y-53100000D03*
X113000000Y-51900000D03*
X113600000Y-50000000D03*
X114900000Y-53000000D03*
X116300000Y-58000000D03*
X117250000Y-57800000D03*
X117800000Y-47250000D03*
X118400000Y-56000000D03*
X118800000Y-50900000D03*
X119800000Y-57700000D03*
X121500000Y-50300000D03*
X121500000Y-51600000D03*
X121700000Y-49300000D03*
X123100000Y-48700000D03*
X125400000Y-52706980D03*
X126200000Y-54600000D03*
X127200000Y-47250000D03*
X127900000Y-54500000D03*
X128300000Y-50900000D03*
X128300000Y-53400000D03*
X131000000Y-50600000D03*
X132200000Y-52700000D03*
X132300000Y-49000000D03*
X135500000Y-49600000D03*
X137800000Y-52500000D03*
X140500000Y-52200000D03*
X142900000Y-50800000D03*
X146500000Y-49500000D03*
X147300000Y-52800000D03*
X148900000Y-55200000D03*
X149700000Y-52600000D03*
X150800000Y-61100000D03*
X152014492Y-58414492D03*
X153200000Y-55700000D03*
X154800000Y-62100000D03*
X156100000Y-62700000D03*
X156200000Y-64500000D03*
X156500000Y-60300000D03*
X160600000Y-62400000D03*
X163000000Y-65400000D03*
M02*
