%TF.GenerationSoftware,KiCad,Pcbnew,8.0.4*%
%TF.CreationDate,2024-11-30T14:16:21+01:00*%
%TF.ProjectId,Sensor_PCB,53656e73-6f72-45f5-9043-422e6b696361,rev?*%
%TF.SameCoordinates,Original*%
%TF.FileFunction,Drillmap*%
%TF.FilePolarity,Positive*%
%FSLAX45Y45*%
G04 Gerber Fmt 4.5, Leading zero omitted, Abs format (unit mm)*
G04 Created by KiCad (PCBNEW 8.0.4) date 2024-11-30 14:16:21*
%MOMM*%
%LPD*%
G01*
G04 APERTURE LIST*
%ADD10C,0.050000*%
%ADD11C,0.200000*%
%ADD12C,0.100000*%
G04 APERTURE END LIST*
D10*
X9450000Y-5575000D02*
X9300000Y-5575000D01*
X10400000Y-5575000D02*
G75*
G02*
X10600000Y-5775000I0J-200000D01*
G01*
X9300000Y-4875000D02*
X9525000Y-4650000D01*
X7850000Y-4875000D02*
X9300000Y-4875000D01*
X9650000Y-5825000D02*
X9650000Y-5775000D01*
X11735355Y-5875000D02*
G75*
G02*
X11785350Y-5925000I5J-49990D01*
G01*
X10200000Y-5775000D02*
G75*
G02*
X10400000Y-5575000I200000J0D01*
G01*
X12250000Y-5575000D02*
G75*
G02*
X12450000Y-5775000I0J-200000D01*
G01*
X16475000Y-6550000D02*
G75*
G02*
X16475000Y-6700000I-75000J-75000D01*
G01*
X13350000Y-4875000D02*
X13125000Y-4650000D01*
X14800000Y-4875000D02*
X16475000Y-6550000D01*
X14450000Y-5575000D02*
X15800000Y-6925000D01*
X10864645Y-5925355D02*
X10864645Y-6075000D01*
X11835355Y-6125000D02*
G75*
G02*
X11785350Y-6075000I5J50010D01*
G01*
X14800000Y-4875000D02*
X13350000Y-4875000D01*
X13000000Y-5775000D02*
X13000000Y-5825000D01*
X7850000Y-4875000D02*
X6175000Y-6550000D01*
X13350000Y-5575000D02*
X14450000Y-5575000D01*
X8200000Y-5575000D02*
X6850000Y-6925000D01*
X6400000Y-6925000D02*
X6175000Y-6700000D01*
X12050000Y-5775000D02*
X12050000Y-6075000D01*
X10650000Y-6125000D02*
G75*
G02*
X10600000Y-6075000I0J50000D01*
G01*
X9450000Y-5575000D02*
G75*
G02*
X9650000Y-5775000I0J-200000D01*
G01*
X12000000Y-6125000D02*
X11850000Y-6125000D01*
X6850000Y-6925000D02*
X6400000Y-6925000D01*
X12050000Y-6075000D02*
G75*
G02*
X12000000Y-6125000I-50000J0D01*
G01*
X12450000Y-5825000D02*
X12450000Y-5775000D01*
X16475000Y-6700000D02*
X16250000Y-6925000D01*
X12050000Y-5775000D02*
G75*
G02*
X12250000Y-5575000I200000J0D01*
G01*
X13000000Y-5775000D02*
G75*
G02*
X13200000Y-5575000I200000J0D01*
G01*
X9525000Y-4650000D02*
X11325000Y-4650000D01*
X13350000Y-5575000D02*
X13200000Y-5575000D01*
X13000000Y-5825000D02*
G75*
G02*
X12450000Y-5825000I-275000J0D01*
G01*
X10800000Y-6125000D02*
X10650000Y-6125000D01*
X10864645Y-6075000D02*
G75*
G02*
X10814645Y-6124995I-49995J0D01*
G01*
X9300000Y-5575000D02*
X8200000Y-5575000D01*
X10600000Y-5775000D02*
X10600000Y-6075000D01*
X11850000Y-6125000D02*
X11835355Y-6125000D01*
X10800000Y-6125000D02*
X10814645Y-6125000D01*
X10864645Y-5925000D02*
G75*
G02*
X10914645Y-5874995I50005J0D01*
G01*
X10200000Y-5825000D02*
G75*
G02*
X9650000Y-5825000I-275000J0D01*
G01*
X11785355Y-6075000D02*
X11785355Y-5925000D01*
X10914645Y-5875000D02*
X11735355Y-5875000D01*
X15800000Y-6925000D02*
X16250000Y-6925000D01*
X13125000Y-4650000D02*
X11325000Y-4650000D01*
X10200000Y-5825000D02*
X10200000Y-5775000D01*
X6175000Y-6700000D02*
G75*
G02*
X6175000Y-6550000I75000J75000D01*
G01*
D11*
D12*
X6365000Y-6435000D02*
X6395000Y-6465000D01*
X6395000Y-6435000D02*
X6365000Y-6465000D01*
X6575000Y-6805000D02*
X6605000Y-6835000D01*
X6605000Y-6805000D02*
X6575000Y-6835000D01*
X6715000Y-6235000D02*
X6745000Y-6265000D01*
X6745000Y-6235000D02*
X6715000Y-6265000D01*
X7005000Y-5895000D02*
X7035000Y-5925000D01*
X7035000Y-5895000D02*
X7005000Y-5925000D01*
X7025000Y-5775000D02*
X7055000Y-5805000D01*
X7055000Y-5775000D02*
X7025000Y-5805000D01*
X7215000Y-6235000D02*
X7245000Y-6265000D01*
X7245000Y-6235000D02*
X7215000Y-6265000D01*
X7455000Y-5925000D02*
X7485000Y-5955000D01*
X7485000Y-5925000D02*
X7455000Y-5955000D01*
X7535000Y-6095000D02*
X7565000Y-6125000D01*
X7565000Y-6095000D02*
X7535000Y-6125000D01*
X7685000Y-5715000D02*
X7715000Y-5745000D01*
X7715000Y-5715000D02*
X7685000Y-5745000D01*
X7905000Y-5265000D02*
X7935000Y-5295000D01*
X7935000Y-5265000D02*
X7905000Y-5295000D01*
X7925000Y-4935000D02*
X7955000Y-4965000D01*
X7955000Y-4935000D02*
X7925000Y-4965000D01*
X8225000Y-5425000D02*
X8255000Y-5455000D01*
X8255000Y-5425000D02*
X8225000Y-5455000D01*
X8295000Y-5245000D02*
X8325000Y-5275000D01*
X8325000Y-5245000D02*
X8295000Y-5275000D01*
X8325000Y-5115000D02*
X8355000Y-5145000D01*
X8355000Y-5115000D02*
X8325000Y-5145000D01*
X8625000Y-5095000D02*
X8655000Y-5125000D01*
X8655000Y-5095000D02*
X8625000Y-5125000D01*
X8855000Y-5295000D02*
X8885000Y-5325000D01*
X8885000Y-5295000D02*
X8855000Y-5325000D01*
X8965000Y-4935000D02*
X8995000Y-4965000D01*
X8995000Y-4935000D02*
X8965000Y-4965000D01*
X9285000Y-5255000D02*
X9315000Y-5285000D01*
X9315000Y-5255000D02*
X9285000Y-5285000D01*
X9295000Y-5375000D02*
X9325000Y-5405000D01*
X9325000Y-5375000D02*
X9295000Y-5405000D01*
X9405000Y-4945000D02*
X9435000Y-4975000D01*
X9435000Y-4945000D02*
X9405000Y-4975000D01*
X9795000Y-4735000D02*
X9825000Y-4765000D01*
X9825000Y-4735000D02*
X9795000Y-4765000D01*
X9835000Y-5085000D02*
X9865000Y-5115000D01*
X9865000Y-5085000D02*
X9835000Y-5115000D01*
X10215000Y-5035000D02*
X10245000Y-5065000D01*
X10245000Y-5035000D02*
X10215000Y-5065000D01*
X10315000Y-5255000D02*
X10345000Y-5285000D01*
X10345000Y-5255000D02*
X10315000Y-5285000D01*
X10525000Y-4895000D02*
X10555000Y-4925000D01*
X10555000Y-4895000D02*
X10525000Y-4925000D01*
X10605000Y-5445000D02*
X10635000Y-5475000D01*
X10635000Y-5445000D02*
X10605000Y-5475000D01*
X10755000Y-5085000D02*
X10785000Y-5115000D01*
X10785000Y-5085000D02*
X10755000Y-5115000D01*
X10847500Y-5625000D02*
X10877500Y-5655000D01*
X10877500Y-5625000D02*
X10847500Y-5655000D01*
X10915000Y-4735000D02*
X10945000Y-4765000D01*
X10945000Y-4735000D02*
X10915000Y-4765000D01*
X10995000Y-5775000D02*
X11025000Y-5805000D01*
X11025000Y-5775000D02*
X10995000Y-5805000D01*
X11165000Y-5055000D02*
X11195000Y-5085000D01*
X11195000Y-5055000D02*
X11165000Y-5085000D01*
X11265000Y-5295000D02*
X11295000Y-5325000D01*
X11295000Y-5295000D02*
X11265000Y-5325000D01*
X11285000Y-5175000D02*
X11315000Y-5205000D01*
X11315000Y-5175000D02*
X11285000Y-5205000D01*
X11345000Y-4985000D02*
X11375000Y-5015000D01*
X11375000Y-4985000D02*
X11345000Y-5015000D01*
X11475000Y-5285000D02*
X11505000Y-5315000D01*
X11505000Y-5285000D02*
X11475000Y-5315000D01*
X11615000Y-5785000D02*
X11645000Y-5815000D01*
X11645000Y-5785000D02*
X11615000Y-5815000D01*
X11710000Y-5765000D02*
X11740000Y-5795000D01*
X11740000Y-5765000D02*
X11710000Y-5795000D01*
X11765000Y-4710000D02*
X11795000Y-4740000D01*
X11795000Y-4710000D02*
X11765000Y-4740000D01*
X11825000Y-5585000D02*
X11855000Y-5615000D01*
X11855000Y-5585000D02*
X11825000Y-5615000D01*
X11865000Y-5075000D02*
X11895000Y-5105000D01*
X11895000Y-5075000D02*
X11865000Y-5105000D01*
X11965000Y-5755000D02*
X11995000Y-5785000D01*
X11995000Y-5755000D02*
X11965000Y-5785000D01*
X12135000Y-5015000D02*
X12165000Y-5045000D01*
X12165000Y-5015000D02*
X12135000Y-5045000D01*
X12135000Y-5145000D02*
X12165000Y-5175000D01*
X12165000Y-5145000D02*
X12135000Y-5175000D01*
X12155000Y-4915000D02*
X12185000Y-4945000D01*
X12185000Y-4915000D02*
X12155000Y-4945000D01*
X12295000Y-4855000D02*
X12325000Y-4885000D01*
X12325000Y-4855000D02*
X12295000Y-4885000D01*
X12525000Y-5255698D02*
X12555000Y-5285698D01*
X12555000Y-5255698D02*
X12525000Y-5285698D01*
X12605000Y-5445000D02*
X12635000Y-5475000D01*
X12635000Y-5445000D02*
X12605000Y-5475000D01*
X12705000Y-4710000D02*
X12735000Y-4740000D01*
X12735000Y-4710000D02*
X12705000Y-4740000D01*
X12775000Y-5435000D02*
X12805000Y-5465000D01*
X12805000Y-5435000D02*
X12775000Y-5465000D01*
X12815000Y-5075000D02*
X12845000Y-5105000D01*
X12845000Y-5075000D02*
X12815000Y-5105000D01*
X12815000Y-5325000D02*
X12845000Y-5355000D01*
X12845000Y-5325000D02*
X12815000Y-5355000D01*
X13085000Y-5045000D02*
X13115000Y-5075000D01*
X13115000Y-5045000D02*
X13085000Y-5075000D01*
X13205000Y-5255000D02*
X13235000Y-5285000D01*
X13235000Y-5255000D02*
X13205000Y-5285000D01*
X13215000Y-4885000D02*
X13245000Y-4915000D01*
X13245000Y-4885000D02*
X13215000Y-4915000D01*
X13535000Y-4945000D02*
X13565000Y-4975000D01*
X13565000Y-4945000D02*
X13535000Y-4975000D01*
X13765000Y-5235000D02*
X13795000Y-5265000D01*
X13795000Y-5235000D02*
X13765000Y-5265000D01*
X14035000Y-5205000D02*
X14065000Y-5235000D01*
X14065000Y-5205000D02*
X14035000Y-5235000D01*
X14275000Y-5065000D02*
X14305000Y-5095000D01*
X14305000Y-5065000D02*
X14275000Y-5095000D01*
X14635000Y-4935000D02*
X14665000Y-4965000D01*
X14665000Y-4935000D02*
X14635000Y-4965000D01*
X14715000Y-5265000D02*
X14745000Y-5295000D01*
X14745000Y-5265000D02*
X14715000Y-5295000D01*
X14875000Y-5505000D02*
X14905000Y-5535000D01*
X14905000Y-5505000D02*
X14875000Y-5535000D01*
X14955000Y-5245000D02*
X14985000Y-5275000D01*
X14985000Y-5245000D02*
X14955000Y-5275000D01*
X15065000Y-6095000D02*
X15095000Y-6125000D01*
X15095000Y-6095000D02*
X15065000Y-6125000D01*
X15186449Y-5826449D02*
X15216449Y-5856449D01*
X15216449Y-5826449D02*
X15186449Y-5856449D01*
X15305000Y-5555000D02*
X15335000Y-5585000D01*
X15335000Y-5555000D02*
X15305000Y-5585000D01*
X15465000Y-6195000D02*
X15495000Y-6225000D01*
X15495000Y-6195000D02*
X15465000Y-6225000D01*
X15595000Y-6255000D02*
X15625000Y-6285000D01*
X15625000Y-6255000D02*
X15595000Y-6285000D01*
X15605000Y-6435000D02*
X15635000Y-6465000D01*
X15635000Y-6435000D02*
X15605000Y-6465000D01*
X15635000Y-6015000D02*
X15665000Y-6045000D01*
X15665000Y-6015000D02*
X15635000Y-6045000D01*
X16045000Y-6225000D02*
X16075000Y-6255000D01*
X16075000Y-6225000D02*
X16045000Y-6255000D01*
X16285000Y-6525000D02*
X16315000Y-6555000D01*
X16315000Y-6525000D02*
X16285000Y-6555000D01*
D11*
X6402211Y-7238984D02*
X6402211Y-7038984D01*
X6402211Y-7038984D02*
X6449830Y-7038984D01*
X6449830Y-7038984D02*
X6478401Y-7048508D01*
X6478401Y-7048508D02*
X6497449Y-7067555D01*
X6497449Y-7067555D02*
X6506973Y-7086603D01*
X6506973Y-7086603D02*
X6516496Y-7124698D01*
X6516496Y-7124698D02*
X6516496Y-7153269D01*
X6516496Y-7153269D02*
X6506973Y-7191365D01*
X6506973Y-7191365D02*
X6497449Y-7210412D01*
X6497449Y-7210412D02*
X6478401Y-7229460D01*
X6478401Y-7229460D02*
X6449830Y-7238984D01*
X6449830Y-7238984D02*
X6402211Y-7238984D01*
X6602211Y-7238984D02*
X6602211Y-7105650D01*
X6602211Y-7143746D02*
X6611735Y-7124698D01*
X6611735Y-7124698D02*
X6621258Y-7115174D01*
X6621258Y-7115174D02*
X6640306Y-7105650D01*
X6640306Y-7105650D02*
X6659354Y-7105650D01*
X6726020Y-7238984D02*
X6726020Y-7105650D01*
X6726020Y-7038984D02*
X6716496Y-7048508D01*
X6716496Y-7048508D02*
X6726020Y-7058031D01*
X6726020Y-7058031D02*
X6735544Y-7048508D01*
X6735544Y-7048508D02*
X6726020Y-7038984D01*
X6726020Y-7038984D02*
X6726020Y-7058031D01*
X6849830Y-7238984D02*
X6830782Y-7229460D01*
X6830782Y-7229460D02*
X6821258Y-7210412D01*
X6821258Y-7210412D02*
X6821258Y-7038984D01*
X6954592Y-7238984D02*
X6935544Y-7229460D01*
X6935544Y-7229460D02*
X6926020Y-7210412D01*
X6926020Y-7210412D02*
X6926020Y-7038984D01*
X7183163Y-7238984D02*
X7183163Y-7038984D01*
X7183163Y-7038984D02*
X7249830Y-7181841D01*
X7249830Y-7181841D02*
X7316496Y-7038984D01*
X7316496Y-7038984D02*
X7316496Y-7238984D01*
X7497449Y-7238984D02*
X7497449Y-7134222D01*
X7497449Y-7134222D02*
X7487925Y-7115174D01*
X7487925Y-7115174D02*
X7468877Y-7105650D01*
X7468877Y-7105650D02*
X7430782Y-7105650D01*
X7430782Y-7105650D02*
X7411735Y-7115174D01*
X7497449Y-7229460D02*
X7478401Y-7238984D01*
X7478401Y-7238984D02*
X7430782Y-7238984D01*
X7430782Y-7238984D02*
X7411735Y-7229460D01*
X7411735Y-7229460D02*
X7402211Y-7210412D01*
X7402211Y-7210412D02*
X7402211Y-7191365D01*
X7402211Y-7191365D02*
X7411735Y-7172317D01*
X7411735Y-7172317D02*
X7430782Y-7162793D01*
X7430782Y-7162793D02*
X7478401Y-7162793D01*
X7478401Y-7162793D02*
X7497449Y-7153269D01*
X7592687Y-7105650D02*
X7592687Y-7305650D01*
X7592687Y-7115174D02*
X7611735Y-7105650D01*
X7611735Y-7105650D02*
X7649830Y-7105650D01*
X7649830Y-7105650D02*
X7668877Y-7115174D01*
X7668877Y-7115174D02*
X7678401Y-7124698D01*
X7678401Y-7124698D02*
X7687925Y-7143746D01*
X7687925Y-7143746D02*
X7687925Y-7200888D01*
X7687925Y-7200888D02*
X7678401Y-7219936D01*
X7678401Y-7219936D02*
X7668877Y-7229460D01*
X7668877Y-7229460D02*
X7649830Y-7238984D01*
X7649830Y-7238984D02*
X7611735Y-7238984D01*
X7611735Y-7238984D02*
X7592687Y-7229460D01*
X7773639Y-7219936D02*
X7783163Y-7229460D01*
X7783163Y-7229460D02*
X7773639Y-7238984D01*
X7773639Y-7238984D02*
X7764116Y-7229460D01*
X7764116Y-7229460D02*
X7773639Y-7219936D01*
X7773639Y-7219936D02*
X7773639Y-7238984D01*
X7773639Y-7115174D02*
X7783163Y-7124698D01*
X7783163Y-7124698D02*
X7773639Y-7134222D01*
X7773639Y-7134222D02*
X7764116Y-7124698D01*
X7764116Y-7124698D02*
X7773639Y-7115174D01*
X7773639Y-7115174D02*
X7773639Y-7134222D01*
D12*
X6111434Y-7552500D02*
X6141434Y-7582500D01*
X6141434Y-7552500D02*
X6111434Y-7582500D01*
D11*
X6440306Y-7458984D02*
X6459354Y-7458984D01*
X6459354Y-7458984D02*
X6478401Y-7468508D01*
X6478401Y-7468508D02*
X6487925Y-7478031D01*
X6487925Y-7478031D02*
X6497449Y-7497079D01*
X6497449Y-7497079D02*
X6506973Y-7535174D01*
X6506973Y-7535174D02*
X6506973Y-7582793D01*
X6506973Y-7582793D02*
X6497449Y-7620888D01*
X6497449Y-7620888D02*
X6487925Y-7639936D01*
X6487925Y-7639936D02*
X6478401Y-7649460D01*
X6478401Y-7649460D02*
X6459354Y-7658984D01*
X6459354Y-7658984D02*
X6440306Y-7658984D01*
X6440306Y-7658984D02*
X6421258Y-7649460D01*
X6421258Y-7649460D02*
X6411735Y-7639936D01*
X6411735Y-7639936D02*
X6402211Y-7620888D01*
X6402211Y-7620888D02*
X6392687Y-7582793D01*
X6392687Y-7582793D02*
X6392687Y-7535174D01*
X6392687Y-7535174D02*
X6402211Y-7497079D01*
X6402211Y-7497079D02*
X6411735Y-7478031D01*
X6411735Y-7478031D02*
X6421258Y-7468508D01*
X6421258Y-7468508D02*
X6440306Y-7458984D01*
X6592687Y-7639936D02*
X6602211Y-7649460D01*
X6602211Y-7649460D02*
X6592687Y-7658984D01*
X6592687Y-7658984D02*
X6583163Y-7649460D01*
X6583163Y-7649460D02*
X6592687Y-7639936D01*
X6592687Y-7639936D02*
X6592687Y-7658984D01*
X6668877Y-7458984D02*
X6792687Y-7458984D01*
X6792687Y-7458984D02*
X6726020Y-7535174D01*
X6726020Y-7535174D02*
X6754592Y-7535174D01*
X6754592Y-7535174D02*
X6773639Y-7544698D01*
X6773639Y-7544698D02*
X6783163Y-7554222D01*
X6783163Y-7554222D02*
X6792687Y-7573269D01*
X6792687Y-7573269D02*
X6792687Y-7620888D01*
X6792687Y-7620888D02*
X6783163Y-7639936D01*
X6783163Y-7639936D02*
X6773639Y-7649460D01*
X6773639Y-7649460D02*
X6754592Y-7658984D01*
X6754592Y-7658984D02*
X6697449Y-7658984D01*
X6697449Y-7658984D02*
X6678401Y-7649460D01*
X6678401Y-7649460D02*
X6668877Y-7639936D01*
X6916496Y-7458984D02*
X6935544Y-7458984D01*
X6935544Y-7458984D02*
X6954592Y-7468508D01*
X6954592Y-7468508D02*
X6964116Y-7478031D01*
X6964116Y-7478031D02*
X6973639Y-7497079D01*
X6973639Y-7497079D02*
X6983163Y-7535174D01*
X6983163Y-7535174D02*
X6983163Y-7582793D01*
X6983163Y-7582793D02*
X6973639Y-7620888D01*
X6973639Y-7620888D02*
X6964116Y-7639936D01*
X6964116Y-7639936D02*
X6954592Y-7649460D01*
X6954592Y-7649460D02*
X6935544Y-7658984D01*
X6935544Y-7658984D02*
X6916496Y-7658984D01*
X6916496Y-7658984D02*
X6897449Y-7649460D01*
X6897449Y-7649460D02*
X6887925Y-7639936D01*
X6887925Y-7639936D02*
X6878401Y-7620888D01*
X6878401Y-7620888D02*
X6868877Y-7582793D01*
X6868877Y-7582793D02*
X6868877Y-7535174D01*
X6868877Y-7535174D02*
X6878401Y-7497079D01*
X6878401Y-7497079D02*
X6887925Y-7478031D01*
X6887925Y-7478031D02*
X6897449Y-7468508D01*
X6897449Y-7468508D02*
X6916496Y-7458984D01*
X7106973Y-7458984D02*
X7126020Y-7458984D01*
X7126020Y-7458984D02*
X7145068Y-7468508D01*
X7145068Y-7468508D02*
X7154592Y-7478031D01*
X7154592Y-7478031D02*
X7164116Y-7497079D01*
X7164116Y-7497079D02*
X7173639Y-7535174D01*
X7173639Y-7535174D02*
X7173639Y-7582793D01*
X7173639Y-7582793D02*
X7164116Y-7620888D01*
X7164116Y-7620888D02*
X7154592Y-7639936D01*
X7154592Y-7639936D02*
X7145068Y-7649460D01*
X7145068Y-7649460D02*
X7126020Y-7658984D01*
X7126020Y-7658984D02*
X7106973Y-7658984D01*
X7106973Y-7658984D02*
X7087925Y-7649460D01*
X7087925Y-7649460D02*
X7078401Y-7639936D01*
X7078401Y-7639936D02*
X7068877Y-7620888D01*
X7068877Y-7620888D02*
X7059354Y-7582793D01*
X7059354Y-7582793D02*
X7059354Y-7535174D01*
X7059354Y-7535174D02*
X7068877Y-7497079D01*
X7068877Y-7497079D02*
X7078401Y-7478031D01*
X7078401Y-7478031D02*
X7087925Y-7468508D01*
X7087925Y-7468508D02*
X7106973Y-7458984D01*
X7259354Y-7658984D02*
X7259354Y-7525650D01*
X7259354Y-7544698D02*
X7268877Y-7535174D01*
X7268877Y-7535174D02*
X7287925Y-7525650D01*
X7287925Y-7525650D02*
X7316497Y-7525650D01*
X7316497Y-7525650D02*
X7335544Y-7535174D01*
X7335544Y-7535174D02*
X7345068Y-7554222D01*
X7345068Y-7554222D02*
X7345068Y-7658984D01*
X7345068Y-7554222D02*
X7354592Y-7535174D01*
X7354592Y-7535174D02*
X7373639Y-7525650D01*
X7373639Y-7525650D02*
X7402211Y-7525650D01*
X7402211Y-7525650D02*
X7421258Y-7535174D01*
X7421258Y-7535174D02*
X7430782Y-7554222D01*
X7430782Y-7554222D02*
X7430782Y-7658984D01*
X7526020Y-7658984D02*
X7526020Y-7525650D01*
X7526020Y-7544698D02*
X7535544Y-7535174D01*
X7535544Y-7535174D02*
X7554592Y-7525650D01*
X7554592Y-7525650D02*
X7583163Y-7525650D01*
X7583163Y-7525650D02*
X7602211Y-7535174D01*
X7602211Y-7535174D02*
X7611735Y-7554222D01*
X7611735Y-7554222D02*
X7611735Y-7658984D01*
X7611735Y-7554222D02*
X7621258Y-7535174D01*
X7621258Y-7535174D02*
X7640306Y-7525650D01*
X7640306Y-7525650D02*
X7668877Y-7525650D01*
X7668877Y-7525650D02*
X7687925Y-7535174D01*
X7687925Y-7535174D02*
X7697449Y-7554222D01*
X7697449Y-7554222D02*
X7697449Y-7658984D01*
X8087925Y-7449460D02*
X7916497Y-7706603D01*
X8345068Y-7458984D02*
X8364116Y-7458984D01*
X8364116Y-7458984D02*
X8383163Y-7468508D01*
X8383163Y-7468508D02*
X8392687Y-7478031D01*
X8392687Y-7478031D02*
X8402211Y-7497079D01*
X8402211Y-7497079D02*
X8411735Y-7535174D01*
X8411735Y-7535174D02*
X8411735Y-7582793D01*
X8411735Y-7582793D02*
X8402211Y-7620888D01*
X8402211Y-7620888D02*
X8392687Y-7639936D01*
X8392687Y-7639936D02*
X8383163Y-7649460D01*
X8383163Y-7649460D02*
X8364116Y-7658984D01*
X8364116Y-7658984D02*
X8345068Y-7658984D01*
X8345068Y-7658984D02*
X8326020Y-7649460D01*
X8326020Y-7649460D02*
X8316497Y-7639936D01*
X8316497Y-7639936D02*
X8306973Y-7620888D01*
X8306973Y-7620888D02*
X8297449Y-7582793D01*
X8297449Y-7582793D02*
X8297449Y-7535174D01*
X8297449Y-7535174D02*
X8306973Y-7497079D01*
X8306973Y-7497079D02*
X8316497Y-7478031D01*
X8316497Y-7478031D02*
X8326020Y-7468508D01*
X8326020Y-7468508D02*
X8345068Y-7458984D01*
X8497449Y-7639936D02*
X8506973Y-7649460D01*
X8506973Y-7649460D02*
X8497449Y-7658984D01*
X8497449Y-7658984D02*
X8487925Y-7649460D01*
X8487925Y-7649460D02*
X8497449Y-7639936D01*
X8497449Y-7639936D02*
X8497449Y-7658984D01*
X8630782Y-7458984D02*
X8649830Y-7458984D01*
X8649830Y-7458984D02*
X8668878Y-7468508D01*
X8668878Y-7468508D02*
X8678402Y-7478031D01*
X8678402Y-7478031D02*
X8687925Y-7497079D01*
X8687925Y-7497079D02*
X8697449Y-7535174D01*
X8697449Y-7535174D02*
X8697449Y-7582793D01*
X8697449Y-7582793D02*
X8687925Y-7620888D01*
X8687925Y-7620888D02*
X8678402Y-7639936D01*
X8678402Y-7639936D02*
X8668878Y-7649460D01*
X8668878Y-7649460D02*
X8649830Y-7658984D01*
X8649830Y-7658984D02*
X8630782Y-7658984D01*
X8630782Y-7658984D02*
X8611735Y-7649460D01*
X8611735Y-7649460D02*
X8602211Y-7639936D01*
X8602211Y-7639936D02*
X8592687Y-7620888D01*
X8592687Y-7620888D02*
X8583163Y-7582793D01*
X8583163Y-7582793D02*
X8583163Y-7535174D01*
X8583163Y-7535174D02*
X8592687Y-7497079D01*
X8592687Y-7497079D02*
X8602211Y-7478031D01*
X8602211Y-7478031D02*
X8611735Y-7468508D01*
X8611735Y-7468508D02*
X8630782Y-7458984D01*
X8887925Y-7658984D02*
X8773640Y-7658984D01*
X8830782Y-7658984D02*
X8830782Y-7458984D01*
X8830782Y-7458984D02*
X8811735Y-7487555D01*
X8811735Y-7487555D02*
X8792687Y-7506603D01*
X8792687Y-7506603D02*
X8773640Y-7516127D01*
X9078402Y-7658984D02*
X8964116Y-7658984D01*
X9021259Y-7658984D02*
X9021259Y-7458984D01*
X9021259Y-7458984D02*
X9002211Y-7487555D01*
X9002211Y-7487555D02*
X8983163Y-7506603D01*
X8983163Y-7506603D02*
X8964116Y-7516127D01*
X9192687Y-7544698D02*
X9173640Y-7535174D01*
X9173640Y-7535174D02*
X9164116Y-7525650D01*
X9164116Y-7525650D02*
X9154592Y-7506603D01*
X9154592Y-7506603D02*
X9154592Y-7497079D01*
X9154592Y-7497079D02*
X9164116Y-7478031D01*
X9164116Y-7478031D02*
X9173640Y-7468508D01*
X9173640Y-7468508D02*
X9192687Y-7458984D01*
X9192687Y-7458984D02*
X9230783Y-7458984D01*
X9230783Y-7458984D02*
X9249830Y-7468508D01*
X9249830Y-7468508D02*
X9259354Y-7478031D01*
X9259354Y-7478031D02*
X9268878Y-7497079D01*
X9268878Y-7497079D02*
X9268878Y-7506603D01*
X9268878Y-7506603D02*
X9259354Y-7525650D01*
X9259354Y-7525650D02*
X9249830Y-7535174D01*
X9249830Y-7535174D02*
X9230783Y-7544698D01*
X9230783Y-7544698D02*
X9192687Y-7544698D01*
X9192687Y-7544698D02*
X9173640Y-7554222D01*
X9173640Y-7554222D02*
X9164116Y-7563746D01*
X9164116Y-7563746D02*
X9154592Y-7582793D01*
X9154592Y-7582793D02*
X9154592Y-7620888D01*
X9154592Y-7620888D02*
X9164116Y-7639936D01*
X9164116Y-7639936D02*
X9173640Y-7649460D01*
X9173640Y-7649460D02*
X9192687Y-7658984D01*
X9192687Y-7658984D02*
X9230783Y-7658984D01*
X9230783Y-7658984D02*
X9249830Y-7649460D01*
X9249830Y-7649460D02*
X9259354Y-7639936D01*
X9259354Y-7639936D02*
X9268878Y-7620888D01*
X9268878Y-7620888D02*
X9268878Y-7582793D01*
X9268878Y-7582793D02*
X9259354Y-7563746D01*
X9259354Y-7563746D02*
X9249830Y-7554222D01*
X9249830Y-7554222D02*
X9230783Y-7544698D01*
X9345068Y-7458984D02*
X9345068Y-7497079D01*
X9421259Y-7458984D02*
X9421259Y-7497079D01*
X9716497Y-7735174D02*
X9706973Y-7725650D01*
X9706973Y-7725650D02*
X9687925Y-7697079D01*
X9687925Y-7697079D02*
X9678402Y-7678031D01*
X9678402Y-7678031D02*
X9668878Y-7649460D01*
X9668878Y-7649460D02*
X9659354Y-7601841D01*
X9659354Y-7601841D02*
X9659354Y-7563746D01*
X9659354Y-7563746D02*
X9668878Y-7516127D01*
X9668878Y-7516127D02*
X9678402Y-7487555D01*
X9678402Y-7487555D02*
X9687925Y-7468508D01*
X9687925Y-7468508D02*
X9706973Y-7439936D01*
X9706973Y-7439936D02*
X9716497Y-7430412D01*
X9773640Y-7458984D02*
X9906973Y-7458984D01*
X9906973Y-7458984D02*
X9821259Y-7658984D01*
X10087925Y-7658984D02*
X9973640Y-7658984D01*
X10030783Y-7658984D02*
X10030783Y-7458984D01*
X10030783Y-7458984D02*
X10011735Y-7487555D01*
X10011735Y-7487555D02*
X9992687Y-7506603D01*
X9992687Y-7506603D02*
X9973640Y-7516127D01*
X10326021Y-7658984D02*
X10326021Y-7458984D01*
X10411735Y-7658984D02*
X10411735Y-7554222D01*
X10411735Y-7554222D02*
X10402211Y-7535174D01*
X10402211Y-7535174D02*
X10383164Y-7525650D01*
X10383164Y-7525650D02*
X10354592Y-7525650D01*
X10354592Y-7525650D02*
X10335545Y-7535174D01*
X10335545Y-7535174D02*
X10326021Y-7544698D01*
X10535545Y-7658984D02*
X10516497Y-7649460D01*
X10516497Y-7649460D02*
X10506973Y-7639936D01*
X10506973Y-7639936D02*
X10497449Y-7620888D01*
X10497449Y-7620888D02*
X10497449Y-7563746D01*
X10497449Y-7563746D02*
X10506973Y-7544698D01*
X10506973Y-7544698D02*
X10516497Y-7535174D01*
X10516497Y-7535174D02*
X10535545Y-7525650D01*
X10535545Y-7525650D02*
X10564116Y-7525650D01*
X10564116Y-7525650D02*
X10583164Y-7535174D01*
X10583164Y-7535174D02*
X10592687Y-7544698D01*
X10592687Y-7544698D02*
X10602211Y-7563746D01*
X10602211Y-7563746D02*
X10602211Y-7620888D01*
X10602211Y-7620888D02*
X10592687Y-7639936D01*
X10592687Y-7639936D02*
X10583164Y-7649460D01*
X10583164Y-7649460D02*
X10564116Y-7658984D01*
X10564116Y-7658984D02*
X10535545Y-7658984D01*
X10716497Y-7658984D02*
X10697449Y-7649460D01*
X10697449Y-7649460D02*
X10687926Y-7630412D01*
X10687926Y-7630412D02*
X10687926Y-7458984D01*
X10868878Y-7649460D02*
X10849830Y-7658984D01*
X10849830Y-7658984D02*
X10811735Y-7658984D01*
X10811735Y-7658984D02*
X10792687Y-7649460D01*
X10792687Y-7649460D02*
X10783164Y-7630412D01*
X10783164Y-7630412D02*
X10783164Y-7554222D01*
X10783164Y-7554222D02*
X10792687Y-7535174D01*
X10792687Y-7535174D02*
X10811735Y-7525650D01*
X10811735Y-7525650D02*
X10849830Y-7525650D01*
X10849830Y-7525650D02*
X10868878Y-7535174D01*
X10868878Y-7535174D02*
X10878402Y-7554222D01*
X10878402Y-7554222D02*
X10878402Y-7573269D01*
X10878402Y-7573269D02*
X10783164Y-7592317D01*
X10954592Y-7649460D02*
X10973640Y-7658984D01*
X10973640Y-7658984D02*
X11011735Y-7658984D01*
X11011735Y-7658984D02*
X11030783Y-7649460D01*
X11030783Y-7649460D02*
X11040307Y-7630412D01*
X11040307Y-7630412D02*
X11040307Y-7620888D01*
X11040307Y-7620888D02*
X11030783Y-7601841D01*
X11030783Y-7601841D02*
X11011735Y-7592317D01*
X11011735Y-7592317D02*
X10983164Y-7592317D01*
X10983164Y-7592317D02*
X10964116Y-7582793D01*
X10964116Y-7582793D02*
X10954592Y-7563746D01*
X10954592Y-7563746D02*
X10954592Y-7554222D01*
X10954592Y-7554222D02*
X10964116Y-7535174D01*
X10964116Y-7535174D02*
X10983164Y-7525650D01*
X10983164Y-7525650D02*
X11011735Y-7525650D01*
X11011735Y-7525650D02*
X11030783Y-7535174D01*
X11106973Y-7735174D02*
X11116497Y-7725650D01*
X11116497Y-7725650D02*
X11135545Y-7697079D01*
X11135545Y-7697079D02*
X11145068Y-7678031D01*
X11145068Y-7678031D02*
X11154592Y-7649460D01*
X11154592Y-7649460D02*
X11164116Y-7601841D01*
X11164116Y-7601841D02*
X11164116Y-7563746D01*
X11164116Y-7563746D02*
X11154592Y-7516127D01*
X11154592Y-7516127D02*
X11145068Y-7487555D01*
X11145068Y-7487555D02*
X11135545Y-7468508D01*
X11135545Y-7468508D02*
X11116497Y-7439936D01*
X11116497Y-7439936D02*
X11106973Y-7430412D01*
M02*
