%TF.GenerationSoftware,KiCad,Pcbnew,8.0.4*%
%TF.CreationDate,2024-11-30T14:16:15+01:00*%
%TF.ProjectId,Sensor_PCB,53656e73-6f72-45f5-9043-422e6b696361,rev?*%
%TF.SameCoordinates,Original*%
%TF.FileFunction,Soldermask,Bot*%
%TF.FilePolarity,Negative*%
%FSLAX46Y46*%
G04 Gerber Fmt 4.6, Leading zero omitted, Abs format (unit mm)*
G04 Created by KiCad (PCBNEW 8.0.4) date 2024-11-30 14:16:15*
%MOMM*%
%LPD*%
G01*
G04 APERTURE LIST*
G04 Aperture macros list*
%AMRoundRect*
0 Rectangle with rounded corners*
0 $1 Rounding radius*
0 $2 $3 $4 $5 $6 $7 $8 $9 X,Y pos of 4 corners*
0 Add a 4 corners polygon primitive as box body*
4,1,4,$2,$3,$4,$5,$6,$7,$8,$9,$2,$3,0*
0 Add four circle primitives for the rounded corners*
1,1,$1+$1,$2,$3*
1,1,$1+$1,$4,$5*
1,1,$1+$1,$6,$7*
1,1,$1+$1,$8,$9*
0 Add four rect primitives between the rounded corners*
20,1,$1+$1,$2,$3,$4,$5,0*
20,1,$1+$1,$4,$5,$6,$7,0*
20,1,$1+$1,$6,$7,$8,$9,0*
20,1,$1+$1,$8,$9,$2,$3,0*%
G04 Aperture macros list end*
%ADD10RoundRect,0.225000X0.225000X0.250000X-0.225000X0.250000X-0.225000X-0.250000X0.225000X-0.250000X0*%
%ADD11RoundRect,0.150000X-0.587500X-0.150000X0.587500X-0.150000X0.587500X0.150000X-0.587500X0.150000X0*%
%ADD12RoundRect,0.200000X0.053033X-0.335876X0.335876X-0.053033X-0.053033X0.335876X-0.335876X0.053033X0*%
%ADD13RoundRect,0.200000X0.335876X0.053033X0.053033X0.335876X-0.335876X-0.053033X-0.053033X-0.335876X0*%
%ADD14RoundRect,0.200000X0.200000X0.275000X-0.200000X0.275000X-0.200000X-0.275000X0.200000X-0.275000X0*%
%ADD15RoundRect,0.200000X-0.200000X-0.275000X0.200000X-0.275000X0.200000X0.275000X-0.200000X0.275000X0*%
%ADD16RoundRect,0.225000X-0.225000X-0.250000X0.225000X-0.250000X0.225000X0.250000X-0.225000X0.250000X0*%
%ADD17C,2.100000*%
%ADD18RoundRect,0.225000X-0.017678X0.335876X-0.335876X0.017678X0.017678X-0.335876X0.335876X-0.017678X0*%
%ADD19RoundRect,0.200000X-0.335876X-0.053033X-0.053033X-0.335876X0.335876X0.053033X0.053033X0.335876X0*%
%ADD20RoundRect,0.225000X-0.335876X-0.017678X-0.017678X-0.335876X0.335876X0.017678X0.017678X0.335876X0*%
G04 APERTURE END LIST*
D10*
%TO.C,C2*%
X122875000Y-53400000D03*
X121325000Y-53400000D03*
%TD*%
D11*
%TO.C,Q1*%
X113049500Y-56922000D03*
X111174500Y-57872000D03*
X111174500Y-55972000D03*
%TD*%
D10*
%TO.C,C1*%
X122900000Y-54975000D03*
X121350000Y-54975000D03*
%TD*%
D12*
%TO.C,R3*%
X73216637Y-63383363D03*
X74383363Y-62216637D03*
%TD*%
D13*
%TO.C,R20*%
X155333363Y-65333363D03*
X154166637Y-64166637D03*
%TD*%
D14*
%TO.C,R21*%
X116750000Y-56750000D03*
X115100000Y-56750000D03*
%TD*%
D15*
%TO.C,R17*%
X107675000Y-51900000D03*
X109325000Y-51900000D03*
%TD*%
%TO.C,R12*%
X121675000Y-47300000D03*
X123325000Y-47300000D03*
%TD*%
%TO.C,R4*%
X79175000Y-53600000D03*
X80825000Y-53600000D03*
%TD*%
D16*
%TO.C,C11*%
X107725000Y-50000000D03*
X109275000Y-50000000D03*
%TD*%
D10*
%TO.C,C7*%
X137775000Y-51750000D03*
X136225000Y-51750000D03*
%TD*%
D17*
%TO.C,REF\u002A\u002A*%
X127250000Y-58250000D03*
%TD*%
D15*
%TO.C,R5*%
X99925000Y-52000000D03*
X101575000Y-52000000D03*
%TD*%
D10*
%TO.C,C6*%
X118775000Y-50000000D03*
X117225000Y-50000000D03*
%TD*%
D15*
%TO.C,R13*%
X140925000Y-49575000D03*
X142575000Y-49575000D03*
%TD*%
D14*
%TO.C,R19*%
X147325000Y-53500000D03*
X145675000Y-53500000D03*
%TD*%
D15*
%TO.C,R11*%
X102925000Y-47500000D03*
X104575000Y-47500000D03*
%TD*%
D18*
%TO.C,C3*%
X67548008Y-64451992D03*
X66451992Y-65548008D03*
%TD*%
D12*
%TO.C,R15*%
X78008274Y-58341726D03*
X79175000Y-57175000D03*
%TD*%
D17*
%TO.C,REF\u002A\u002A*%
X99250000Y-58250000D03*
%TD*%
D16*
%TO.C,C10*%
X88725000Y-52000000D03*
X90275000Y-52000000D03*
%TD*%
D13*
%TO.C,R8*%
X150083363Y-58583363D03*
X148916637Y-57416637D03*
%TD*%
D19*
%TO.C,R14*%
X157416637Y-59416637D03*
X158583363Y-60583363D03*
%TD*%
D15*
%TO.C,R16*%
X90000000Y-54000000D03*
X91650000Y-54000000D03*
%TD*%
D16*
%TO.C,C4*%
X79225000Y-52000000D03*
X80775000Y-52000000D03*
%TD*%
D10*
%TO.C,C12*%
X128275000Y-49750000D03*
X126725000Y-49750000D03*
%TD*%
D16*
%TO.C,C5*%
X98225000Y-50000000D03*
X99775000Y-50000000D03*
%TD*%
D12*
%TO.C,R9*%
X67916637Y-60583363D03*
X69083363Y-59416637D03*
%TD*%
D15*
%TO.C,R23*%
X107675000Y-57900000D03*
X109325000Y-57900000D03*
%TD*%
%TO.C,R10*%
X83925000Y-49575000D03*
X85575000Y-49575000D03*
%TD*%
D14*
%TO.C,R18*%
X128325000Y-52000000D03*
X126675000Y-52000000D03*
%TD*%
D18*
%TO.C,C9*%
X74048008Y-57951992D03*
X72951992Y-59048008D03*
%TD*%
D10*
%TO.C,C13*%
X147300000Y-52000000D03*
X145750000Y-52000000D03*
%TD*%
D20*
%TO.C,C8*%
X152651992Y-57751992D03*
X153748008Y-58848008D03*
%TD*%
D14*
%TO.C,R22*%
X116750000Y-55000000D03*
X115100000Y-55000000D03*
%TD*%
%TO.C,R6*%
X118825000Y-51700000D03*
X117175000Y-51700000D03*
%TD*%
D20*
%TO.C,C14*%
X158951992Y-64451992D03*
X160048008Y-65548008D03*
%TD*%
D14*
%TO.C,R7*%
X137800000Y-53300000D03*
X136150000Y-53300000D03*
%TD*%
M02*
