%TF.GenerationSoftware,KiCad,Pcbnew,8.0.4*%
%TF.CreationDate,2024-11-30T14:16:21+01:00*%
%TF.ProjectId,Sensor_PCB,53656e73-6f72-45f5-9043-422e6b696361,rev?*%
%TF.SameCoordinates,Original*%
%TF.FileFunction,Drillmap*%
%TF.FilePolarity,Positive*%
%FSLAX45Y45*%
G04 Gerber Fmt 4.5, Leading zero omitted, Abs format (unit mm)*
G04 Created by KiCad (PCBNEW 8.0.4) date 2024-11-30 14:16:21*
%MOMM*%
%LPD*%
G01*
G04 APERTURE LIST*
%ADD10C,0.050000*%
%ADD11C,0.200000*%
%ADD12C,0.210000*%
G04 APERTURE END LIST*
D10*
X9450000Y-5575000D02*
X9300000Y-5575000D01*
X10400000Y-5575000D02*
G75*
G02*
X10600000Y-5775000I0J-200000D01*
G01*
X9300000Y-4875000D02*
X9525000Y-4650000D01*
X7850000Y-4875000D02*
X9300000Y-4875000D01*
X9650000Y-5825000D02*
X9650000Y-5775000D01*
X11735355Y-5875000D02*
G75*
G02*
X11785350Y-5925000I5J-49990D01*
G01*
X10200000Y-5775000D02*
G75*
G02*
X10400000Y-5575000I200000J0D01*
G01*
X12250000Y-5575000D02*
G75*
G02*
X12450000Y-5775000I0J-200000D01*
G01*
X16475000Y-6550000D02*
G75*
G02*
X16475000Y-6700000I-75000J-75000D01*
G01*
X13350000Y-4875000D02*
X13125000Y-4650000D01*
X14800000Y-4875000D02*
X16475000Y-6550000D01*
X14450000Y-5575000D02*
X15800000Y-6925000D01*
X10864645Y-5925355D02*
X10864645Y-6075000D01*
X11835355Y-6125000D02*
G75*
G02*
X11785350Y-6075000I5J50010D01*
G01*
X14800000Y-4875000D02*
X13350000Y-4875000D01*
X13000000Y-5775000D02*
X13000000Y-5825000D01*
X7850000Y-4875000D02*
X6175000Y-6550000D01*
X13350000Y-5575000D02*
X14450000Y-5575000D01*
X8200000Y-5575000D02*
X6850000Y-6925000D01*
X6400000Y-6925000D02*
X6175000Y-6700000D01*
X12050000Y-5775000D02*
X12050000Y-6075000D01*
X10650000Y-6125000D02*
G75*
G02*
X10600000Y-6075000I0J50000D01*
G01*
X9450000Y-5575000D02*
G75*
G02*
X9650000Y-5775000I0J-200000D01*
G01*
X12000000Y-6125000D02*
X11850000Y-6125000D01*
X6850000Y-6925000D02*
X6400000Y-6925000D01*
X12050000Y-6075000D02*
G75*
G02*
X12000000Y-6125000I-50000J0D01*
G01*
X12450000Y-5825000D02*
X12450000Y-5775000D01*
X16475000Y-6700000D02*
X16250000Y-6925000D01*
X12050000Y-5775000D02*
G75*
G02*
X12250000Y-5575000I200000J0D01*
G01*
X13000000Y-5775000D02*
G75*
G02*
X13200000Y-5575000I200000J0D01*
G01*
X9525000Y-4650000D02*
X11325000Y-4650000D01*
X13350000Y-5575000D02*
X13200000Y-5575000D01*
X13000000Y-5825000D02*
G75*
G02*
X12450000Y-5825000I-275000J0D01*
G01*
X10800000Y-6125000D02*
X10650000Y-6125000D01*
X10864645Y-6075000D02*
G75*
G02*
X10814645Y-6124995I-49995J0D01*
G01*
X9300000Y-5575000D02*
X8200000Y-5575000D01*
X10600000Y-5775000D02*
X10600000Y-6075000D01*
X11850000Y-6125000D02*
X11835355Y-6125000D01*
X10800000Y-6125000D02*
X10814645Y-6125000D01*
X10864645Y-5925000D02*
G75*
G02*
X10914645Y-5874995I50005J0D01*
G01*
X10200000Y-5825000D02*
G75*
G02*
X9650000Y-5825000I-275000J0D01*
G01*
X11785355Y-6075000D02*
X11785355Y-5925000D01*
X10914645Y-5875000D02*
X11735355Y-5875000D01*
X15800000Y-6925000D02*
X16250000Y-6925000D01*
X13125000Y-4650000D02*
X11325000Y-4650000D01*
X10200000Y-5825000D02*
X10200000Y-5775000D01*
X6175000Y-6700000D02*
G75*
G02*
X6175000Y-6550000I75000J75000D01*
G01*
D11*
D12*
X9820000Y-5720000D02*
X10030000Y-5930000D01*
X10030000Y-5720000D02*
X9820000Y-5930000D01*
X12620000Y-5720000D02*
X12830000Y-5930000D01*
X12830000Y-5720000D02*
X12620000Y-5930000D01*
D11*
X6402211Y-7238984D02*
X6402211Y-7038984D01*
X6402211Y-7038984D02*
X6449830Y-7038984D01*
X6449830Y-7038984D02*
X6478401Y-7048508D01*
X6478401Y-7048508D02*
X6497449Y-7067555D01*
X6497449Y-7067555D02*
X6506973Y-7086603D01*
X6506973Y-7086603D02*
X6516496Y-7124698D01*
X6516496Y-7124698D02*
X6516496Y-7153269D01*
X6516496Y-7153269D02*
X6506973Y-7191365D01*
X6506973Y-7191365D02*
X6497449Y-7210412D01*
X6497449Y-7210412D02*
X6478401Y-7229460D01*
X6478401Y-7229460D02*
X6449830Y-7238984D01*
X6449830Y-7238984D02*
X6402211Y-7238984D01*
X6602211Y-7238984D02*
X6602211Y-7105650D01*
X6602211Y-7143746D02*
X6611735Y-7124698D01*
X6611735Y-7124698D02*
X6621258Y-7115174D01*
X6621258Y-7115174D02*
X6640306Y-7105650D01*
X6640306Y-7105650D02*
X6659354Y-7105650D01*
X6726020Y-7238984D02*
X6726020Y-7105650D01*
X6726020Y-7038984D02*
X6716496Y-7048508D01*
X6716496Y-7048508D02*
X6726020Y-7058031D01*
X6726020Y-7058031D02*
X6735544Y-7048508D01*
X6735544Y-7048508D02*
X6726020Y-7038984D01*
X6726020Y-7038984D02*
X6726020Y-7058031D01*
X6849830Y-7238984D02*
X6830782Y-7229460D01*
X6830782Y-7229460D02*
X6821258Y-7210412D01*
X6821258Y-7210412D02*
X6821258Y-7038984D01*
X6954592Y-7238984D02*
X6935544Y-7229460D01*
X6935544Y-7229460D02*
X6926020Y-7210412D01*
X6926020Y-7210412D02*
X6926020Y-7038984D01*
X7183163Y-7238984D02*
X7183163Y-7038984D01*
X7183163Y-7038984D02*
X7249830Y-7181841D01*
X7249830Y-7181841D02*
X7316496Y-7038984D01*
X7316496Y-7038984D02*
X7316496Y-7238984D01*
X7497449Y-7238984D02*
X7497449Y-7134222D01*
X7497449Y-7134222D02*
X7487925Y-7115174D01*
X7487925Y-7115174D02*
X7468877Y-7105650D01*
X7468877Y-7105650D02*
X7430782Y-7105650D01*
X7430782Y-7105650D02*
X7411735Y-7115174D01*
X7497449Y-7229460D02*
X7478401Y-7238984D01*
X7478401Y-7238984D02*
X7430782Y-7238984D01*
X7430782Y-7238984D02*
X7411735Y-7229460D01*
X7411735Y-7229460D02*
X7402211Y-7210412D01*
X7402211Y-7210412D02*
X7402211Y-7191365D01*
X7402211Y-7191365D02*
X7411735Y-7172317D01*
X7411735Y-7172317D02*
X7430782Y-7162793D01*
X7430782Y-7162793D02*
X7478401Y-7162793D01*
X7478401Y-7162793D02*
X7497449Y-7153269D01*
X7592687Y-7105650D02*
X7592687Y-7305650D01*
X7592687Y-7115174D02*
X7611735Y-7105650D01*
X7611735Y-7105650D02*
X7649830Y-7105650D01*
X7649830Y-7105650D02*
X7668877Y-7115174D01*
X7668877Y-7115174D02*
X7678401Y-7124698D01*
X7678401Y-7124698D02*
X7687925Y-7143746D01*
X7687925Y-7143746D02*
X7687925Y-7200888D01*
X7687925Y-7200888D02*
X7678401Y-7219936D01*
X7678401Y-7219936D02*
X7668877Y-7229460D01*
X7668877Y-7229460D02*
X7649830Y-7238984D01*
X7649830Y-7238984D02*
X7611735Y-7238984D01*
X7611735Y-7238984D02*
X7592687Y-7229460D01*
X7773639Y-7219936D02*
X7783163Y-7229460D01*
X7783163Y-7229460D02*
X7773639Y-7238984D01*
X7773639Y-7238984D02*
X7764116Y-7229460D01*
X7764116Y-7229460D02*
X7773639Y-7219936D01*
X7773639Y-7219936D02*
X7773639Y-7238984D01*
X7773639Y-7115174D02*
X7783163Y-7124698D01*
X7783163Y-7124698D02*
X7773639Y-7134222D01*
X7773639Y-7134222D02*
X7764116Y-7124698D01*
X7764116Y-7124698D02*
X7773639Y-7115174D01*
X7773639Y-7115174D02*
X7773639Y-7134222D01*
X5941434Y-7467500D02*
X6141434Y-7667500D01*
X6141434Y-7467500D02*
X5941434Y-7667500D01*
X6392687Y-7478031D02*
X6402211Y-7468508D01*
X6402211Y-7468508D02*
X6421258Y-7458984D01*
X6421258Y-7458984D02*
X6468877Y-7458984D01*
X6468877Y-7458984D02*
X6487925Y-7468508D01*
X6487925Y-7468508D02*
X6497449Y-7478031D01*
X6497449Y-7478031D02*
X6506973Y-7497079D01*
X6506973Y-7497079D02*
X6506973Y-7516127D01*
X6506973Y-7516127D02*
X6497449Y-7544698D01*
X6497449Y-7544698D02*
X6383163Y-7658984D01*
X6383163Y-7658984D02*
X6506973Y-7658984D01*
X6592687Y-7639936D02*
X6602211Y-7649460D01*
X6602211Y-7649460D02*
X6592687Y-7658984D01*
X6592687Y-7658984D02*
X6583163Y-7649460D01*
X6583163Y-7649460D02*
X6592687Y-7639936D01*
X6592687Y-7639936D02*
X6592687Y-7658984D01*
X6792687Y-7658984D02*
X6678401Y-7658984D01*
X6735544Y-7658984D02*
X6735544Y-7458984D01*
X6735544Y-7458984D02*
X6716496Y-7487555D01*
X6716496Y-7487555D02*
X6697449Y-7506603D01*
X6697449Y-7506603D02*
X6678401Y-7516127D01*
X6916496Y-7458984D02*
X6935544Y-7458984D01*
X6935544Y-7458984D02*
X6954592Y-7468508D01*
X6954592Y-7468508D02*
X6964116Y-7478031D01*
X6964116Y-7478031D02*
X6973639Y-7497079D01*
X6973639Y-7497079D02*
X6983163Y-7535174D01*
X6983163Y-7535174D02*
X6983163Y-7582793D01*
X6983163Y-7582793D02*
X6973639Y-7620888D01*
X6973639Y-7620888D02*
X6964116Y-7639936D01*
X6964116Y-7639936D02*
X6954592Y-7649460D01*
X6954592Y-7649460D02*
X6935544Y-7658984D01*
X6935544Y-7658984D02*
X6916496Y-7658984D01*
X6916496Y-7658984D02*
X6897449Y-7649460D01*
X6897449Y-7649460D02*
X6887925Y-7639936D01*
X6887925Y-7639936D02*
X6878401Y-7620888D01*
X6878401Y-7620888D02*
X6868877Y-7582793D01*
X6868877Y-7582793D02*
X6868877Y-7535174D01*
X6868877Y-7535174D02*
X6878401Y-7497079D01*
X6878401Y-7497079D02*
X6887925Y-7478031D01*
X6887925Y-7478031D02*
X6897449Y-7468508D01*
X6897449Y-7468508D02*
X6916496Y-7458984D01*
X7106973Y-7458984D02*
X7126020Y-7458984D01*
X7126020Y-7458984D02*
X7145068Y-7468508D01*
X7145068Y-7468508D02*
X7154592Y-7478031D01*
X7154592Y-7478031D02*
X7164116Y-7497079D01*
X7164116Y-7497079D02*
X7173639Y-7535174D01*
X7173639Y-7535174D02*
X7173639Y-7582793D01*
X7173639Y-7582793D02*
X7164116Y-7620888D01*
X7164116Y-7620888D02*
X7154592Y-7639936D01*
X7154592Y-7639936D02*
X7145068Y-7649460D01*
X7145068Y-7649460D02*
X7126020Y-7658984D01*
X7126020Y-7658984D02*
X7106973Y-7658984D01*
X7106973Y-7658984D02*
X7087925Y-7649460D01*
X7087925Y-7649460D02*
X7078401Y-7639936D01*
X7078401Y-7639936D02*
X7068877Y-7620888D01*
X7068877Y-7620888D02*
X7059354Y-7582793D01*
X7059354Y-7582793D02*
X7059354Y-7535174D01*
X7059354Y-7535174D02*
X7068877Y-7497079D01*
X7068877Y-7497079D02*
X7078401Y-7478031D01*
X7078401Y-7478031D02*
X7087925Y-7468508D01*
X7087925Y-7468508D02*
X7106973Y-7458984D01*
X7259354Y-7658984D02*
X7259354Y-7525650D01*
X7259354Y-7544698D02*
X7268877Y-7535174D01*
X7268877Y-7535174D02*
X7287925Y-7525650D01*
X7287925Y-7525650D02*
X7316497Y-7525650D01*
X7316497Y-7525650D02*
X7335544Y-7535174D01*
X7335544Y-7535174D02*
X7345068Y-7554222D01*
X7345068Y-7554222D02*
X7345068Y-7658984D01*
X7345068Y-7554222D02*
X7354592Y-7535174D01*
X7354592Y-7535174D02*
X7373639Y-7525650D01*
X7373639Y-7525650D02*
X7402211Y-7525650D01*
X7402211Y-7525650D02*
X7421258Y-7535174D01*
X7421258Y-7535174D02*
X7430782Y-7554222D01*
X7430782Y-7554222D02*
X7430782Y-7658984D01*
X7526020Y-7658984D02*
X7526020Y-7525650D01*
X7526020Y-7544698D02*
X7535544Y-7535174D01*
X7535544Y-7535174D02*
X7554592Y-7525650D01*
X7554592Y-7525650D02*
X7583163Y-7525650D01*
X7583163Y-7525650D02*
X7602211Y-7535174D01*
X7602211Y-7535174D02*
X7611735Y-7554222D01*
X7611735Y-7554222D02*
X7611735Y-7658984D01*
X7611735Y-7554222D02*
X7621258Y-7535174D01*
X7621258Y-7535174D02*
X7640306Y-7525650D01*
X7640306Y-7525650D02*
X7668877Y-7525650D01*
X7668877Y-7525650D02*
X7687925Y-7535174D01*
X7687925Y-7535174D02*
X7697449Y-7554222D01*
X7697449Y-7554222D02*
X7697449Y-7658984D01*
X8087925Y-7449460D02*
X7916497Y-7706603D01*
X8345068Y-7458984D02*
X8364116Y-7458984D01*
X8364116Y-7458984D02*
X8383163Y-7468508D01*
X8383163Y-7468508D02*
X8392687Y-7478031D01*
X8392687Y-7478031D02*
X8402211Y-7497079D01*
X8402211Y-7497079D02*
X8411735Y-7535174D01*
X8411735Y-7535174D02*
X8411735Y-7582793D01*
X8411735Y-7582793D02*
X8402211Y-7620888D01*
X8402211Y-7620888D02*
X8392687Y-7639936D01*
X8392687Y-7639936D02*
X8383163Y-7649460D01*
X8383163Y-7649460D02*
X8364116Y-7658984D01*
X8364116Y-7658984D02*
X8345068Y-7658984D01*
X8345068Y-7658984D02*
X8326020Y-7649460D01*
X8326020Y-7649460D02*
X8316497Y-7639936D01*
X8316497Y-7639936D02*
X8306973Y-7620888D01*
X8306973Y-7620888D02*
X8297449Y-7582793D01*
X8297449Y-7582793D02*
X8297449Y-7535174D01*
X8297449Y-7535174D02*
X8306973Y-7497079D01*
X8306973Y-7497079D02*
X8316497Y-7478031D01*
X8316497Y-7478031D02*
X8326020Y-7468508D01*
X8326020Y-7468508D02*
X8345068Y-7458984D01*
X8497449Y-7639936D02*
X8506973Y-7649460D01*
X8506973Y-7649460D02*
X8497449Y-7658984D01*
X8497449Y-7658984D02*
X8487925Y-7649460D01*
X8487925Y-7649460D02*
X8497449Y-7639936D01*
X8497449Y-7639936D02*
X8497449Y-7658984D01*
X8630782Y-7458984D02*
X8649830Y-7458984D01*
X8649830Y-7458984D02*
X8668878Y-7468508D01*
X8668878Y-7468508D02*
X8678402Y-7478031D01*
X8678402Y-7478031D02*
X8687925Y-7497079D01*
X8687925Y-7497079D02*
X8697449Y-7535174D01*
X8697449Y-7535174D02*
X8697449Y-7582793D01*
X8697449Y-7582793D02*
X8687925Y-7620888D01*
X8687925Y-7620888D02*
X8678402Y-7639936D01*
X8678402Y-7639936D02*
X8668878Y-7649460D01*
X8668878Y-7649460D02*
X8649830Y-7658984D01*
X8649830Y-7658984D02*
X8630782Y-7658984D01*
X8630782Y-7658984D02*
X8611735Y-7649460D01*
X8611735Y-7649460D02*
X8602211Y-7639936D01*
X8602211Y-7639936D02*
X8592687Y-7620888D01*
X8592687Y-7620888D02*
X8583163Y-7582793D01*
X8583163Y-7582793D02*
X8583163Y-7535174D01*
X8583163Y-7535174D02*
X8592687Y-7497079D01*
X8592687Y-7497079D02*
X8602211Y-7478031D01*
X8602211Y-7478031D02*
X8611735Y-7468508D01*
X8611735Y-7468508D02*
X8630782Y-7458984D01*
X8811735Y-7544698D02*
X8792687Y-7535174D01*
X8792687Y-7535174D02*
X8783163Y-7525650D01*
X8783163Y-7525650D02*
X8773640Y-7506603D01*
X8773640Y-7506603D02*
X8773640Y-7497079D01*
X8773640Y-7497079D02*
X8783163Y-7478031D01*
X8783163Y-7478031D02*
X8792687Y-7468508D01*
X8792687Y-7468508D02*
X8811735Y-7458984D01*
X8811735Y-7458984D02*
X8849830Y-7458984D01*
X8849830Y-7458984D02*
X8868878Y-7468508D01*
X8868878Y-7468508D02*
X8878402Y-7478031D01*
X8878402Y-7478031D02*
X8887925Y-7497079D01*
X8887925Y-7497079D02*
X8887925Y-7506603D01*
X8887925Y-7506603D02*
X8878402Y-7525650D01*
X8878402Y-7525650D02*
X8868878Y-7535174D01*
X8868878Y-7535174D02*
X8849830Y-7544698D01*
X8849830Y-7544698D02*
X8811735Y-7544698D01*
X8811735Y-7544698D02*
X8792687Y-7554222D01*
X8792687Y-7554222D02*
X8783163Y-7563746D01*
X8783163Y-7563746D02*
X8773640Y-7582793D01*
X8773640Y-7582793D02*
X8773640Y-7620888D01*
X8773640Y-7620888D02*
X8783163Y-7639936D01*
X8783163Y-7639936D02*
X8792687Y-7649460D01*
X8792687Y-7649460D02*
X8811735Y-7658984D01*
X8811735Y-7658984D02*
X8849830Y-7658984D01*
X8849830Y-7658984D02*
X8868878Y-7649460D01*
X8868878Y-7649460D02*
X8878402Y-7639936D01*
X8878402Y-7639936D02*
X8887925Y-7620888D01*
X8887925Y-7620888D02*
X8887925Y-7582793D01*
X8887925Y-7582793D02*
X8878402Y-7563746D01*
X8878402Y-7563746D02*
X8868878Y-7554222D01*
X8868878Y-7554222D02*
X8849830Y-7544698D01*
X8964116Y-7478031D02*
X8973640Y-7468508D01*
X8973640Y-7468508D02*
X8992687Y-7458984D01*
X8992687Y-7458984D02*
X9040306Y-7458984D01*
X9040306Y-7458984D02*
X9059354Y-7468508D01*
X9059354Y-7468508D02*
X9068878Y-7478031D01*
X9068878Y-7478031D02*
X9078402Y-7497079D01*
X9078402Y-7497079D02*
X9078402Y-7516127D01*
X9078402Y-7516127D02*
X9068878Y-7544698D01*
X9068878Y-7544698D02*
X8954592Y-7658984D01*
X8954592Y-7658984D02*
X9078402Y-7658984D01*
X9145068Y-7458984D02*
X9278402Y-7458984D01*
X9278402Y-7458984D02*
X9192687Y-7658984D01*
X9345068Y-7458984D02*
X9345068Y-7497079D01*
X9421259Y-7458984D02*
X9421259Y-7497079D01*
X9716497Y-7735174D02*
X9706973Y-7725650D01*
X9706973Y-7725650D02*
X9687925Y-7697079D01*
X9687925Y-7697079D02*
X9678402Y-7678031D01*
X9678402Y-7678031D02*
X9668878Y-7649460D01*
X9668878Y-7649460D02*
X9659354Y-7601841D01*
X9659354Y-7601841D02*
X9659354Y-7563746D01*
X9659354Y-7563746D02*
X9668878Y-7516127D01*
X9668878Y-7516127D02*
X9678402Y-7487555D01*
X9678402Y-7487555D02*
X9687925Y-7468508D01*
X9687925Y-7468508D02*
X9706973Y-7439936D01*
X9706973Y-7439936D02*
X9716497Y-7430412D01*
X9783164Y-7478031D02*
X9792687Y-7468508D01*
X9792687Y-7468508D02*
X9811735Y-7458984D01*
X9811735Y-7458984D02*
X9859354Y-7458984D01*
X9859354Y-7458984D02*
X9878402Y-7468508D01*
X9878402Y-7468508D02*
X9887925Y-7478031D01*
X9887925Y-7478031D02*
X9897449Y-7497079D01*
X9897449Y-7497079D02*
X9897449Y-7516127D01*
X9897449Y-7516127D02*
X9887925Y-7544698D01*
X9887925Y-7544698D02*
X9773640Y-7658984D01*
X9773640Y-7658984D02*
X9897449Y-7658984D01*
X10135545Y-7658984D02*
X10135545Y-7458984D01*
X10221259Y-7658984D02*
X10221259Y-7554222D01*
X10221259Y-7554222D02*
X10211735Y-7535174D01*
X10211735Y-7535174D02*
X10192687Y-7525650D01*
X10192687Y-7525650D02*
X10164116Y-7525650D01*
X10164116Y-7525650D02*
X10145068Y-7535174D01*
X10145068Y-7535174D02*
X10135545Y-7544698D01*
X10345068Y-7658984D02*
X10326021Y-7649460D01*
X10326021Y-7649460D02*
X10316497Y-7639936D01*
X10316497Y-7639936D02*
X10306973Y-7620888D01*
X10306973Y-7620888D02*
X10306973Y-7563746D01*
X10306973Y-7563746D02*
X10316497Y-7544698D01*
X10316497Y-7544698D02*
X10326021Y-7535174D01*
X10326021Y-7535174D02*
X10345068Y-7525650D01*
X10345068Y-7525650D02*
X10373640Y-7525650D01*
X10373640Y-7525650D02*
X10392687Y-7535174D01*
X10392687Y-7535174D02*
X10402211Y-7544698D01*
X10402211Y-7544698D02*
X10411735Y-7563746D01*
X10411735Y-7563746D02*
X10411735Y-7620888D01*
X10411735Y-7620888D02*
X10402211Y-7639936D01*
X10402211Y-7639936D02*
X10392687Y-7649460D01*
X10392687Y-7649460D02*
X10373640Y-7658984D01*
X10373640Y-7658984D02*
X10345068Y-7658984D01*
X10526021Y-7658984D02*
X10506973Y-7649460D01*
X10506973Y-7649460D02*
X10497449Y-7630412D01*
X10497449Y-7630412D02*
X10497449Y-7458984D01*
X10678402Y-7649460D02*
X10659354Y-7658984D01*
X10659354Y-7658984D02*
X10621259Y-7658984D01*
X10621259Y-7658984D02*
X10602211Y-7649460D01*
X10602211Y-7649460D02*
X10592687Y-7630412D01*
X10592687Y-7630412D02*
X10592687Y-7554222D01*
X10592687Y-7554222D02*
X10602211Y-7535174D01*
X10602211Y-7535174D02*
X10621259Y-7525650D01*
X10621259Y-7525650D02*
X10659354Y-7525650D01*
X10659354Y-7525650D02*
X10678402Y-7535174D01*
X10678402Y-7535174D02*
X10687926Y-7554222D01*
X10687926Y-7554222D02*
X10687926Y-7573269D01*
X10687926Y-7573269D02*
X10592687Y-7592317D01*
X10764116Y-7649460D02*
X10783164Y-7658984D01*
X10783164Y-7658984D02*
X10821259Y-7658984D01*
X10821259Y-7658984D02*
X10840307Y-7649460D01*
X10840307Y-7649460D02*
X10849830Y-7630412D01*
X10849830Y-7630412D02*
X10849830Y-7620888D01*
X10849830Y-7620888D02*
X10840307Y-7601841D01*
X10840307Y-7601841D02*
X10821259Y-7592317D01*
X10821259Y-7592317D02*
X10792687Y-7592317D01*
X10792687Y-7592317D02*
X10773640Y-7582793D01*
X10773640Y-7582793D02*
X10764116Y-7563746D01*
X10764116Y-7563746D02*
X10764116Y-7554222D01*
X10764116Y-7554222D02*
X10773640Y-7535174D01*
X10773640Y-7535174D02*
X10792687Y-7525650D01*
X10792687Y-7525650D02*
X10821259Y-7525650D01*
X10821259Y-7525650D02*
X10840307Y-7535174D01*
X10916497Y-7735174D02*
X10926021Y-7725650D01*
X10926021Y-7725650D02*
X10945068Y-7697079D01*
X10945068Y-7697079D02*
X10954592Y-7678031D01*
X10954592Y-7678031D02*
X10964116Y-7649460D01*
X10964116Y-7649460D02*
X10973640Y-7601841D01*
X10973640Y-7601841D02*
X10973640Y-7563746D01*
X10973640Y-7563746D02*
X10964116Y-7516127D01*
X10964116Y-7516127D02*
X10954592Y-7487555D01*
X10954592Y-7487555D02*
X10945068Y-7468508D01*
X10945068Y-7468508D02*
X10926021Y-7439936D01*
X10926021Y-7439936D02*
X10916497Y-7430412D01*
X11278402Y-7735174D02*
X11268878Y-7725650D01*
X11268878Y-7725650D02*
X11249830Y-7697079D01*
X11249830Y-7697079D02*
X11240306Y-7678031D01*
X11240306Y-7678031D02*
X11230783Y-7649460D01*
X11230783Y-7649460D02*
X11221259Y-7601841D01*
X11221259Y-7601841D02*
X11221259Y-7563746D01*
X11221259Y-7563746D02*
X11230783Y-7516127D01*
X11230783Y-7516127D02*
X11240306Y-7487555D01*
X11240306Y-7487555D02*
X11249830Y-7468508D01*
X11249830Y-7468508D02*
X11268878Y-7439936D01*
X11268878Y-7439936D02*
X11278402Y-7430412D01*
X11354592Y-7525650D02*
X11354592Y-7658984D01*
X11354592Y-7544698D02*
X11364116Y-7535174D01*
X11364116Y-7535174D02*
X11383164Y-7525650D01*
X11383164Y-7525650D02*
X11411735Y-7525650D01*
X11411735Y-7525650D02*
X11430783Y-7535174D01*
X11430783Y-7535174D02*
X11440306Y-7554222D01*
X11440306Y-7554222D02*
X11440306Y-7658984D01*
X11564116Y-7658984D02*
X11545068Y-7649460D01*
X11545068Y-7649460D02*
X11535545Y-7639936D01*
X11535545Y-7639936D02*
X11526021Y-7620888D01*
X11526021Y-7620888D02*
X11526021Y-7563746D01*
X11526021Y-7563746D02*
X11535545Y-7544698D01*
X11535545Y-7544698D02*
X11545068Y-7535174D01*
X11545068Y-7535174D02*
X11564116Y-7525650D01*
X11564116Y-7525650D02*
X11592687Y-7525650D01*
X11592687Y-7525650D02*
X11611735Y-7535174D01*
X11611735Y-7535174D02*
X11621259Y-7544698D01*
X11621259Y-7544698D02*
X11630783Y-7563746D01*
X11630783Y-7563746D02*
X11630783Y-7620888D01*
X11630783Y-7620888D02*
X11621259Y-7639936D01*
X11621259Y-7639936D02*
X11611735Y-7649460D01*
X11611735Y-7649460D02*
X11592687Y-7658984D01*
X11592687Y-7658984D02*
X11564116Y-7658984D01*
X11687926Y-7525650D02*
X11764116Y-7525650D01*
X11716497Y-7458984D02*
X11716497Y-7630412D01*
X11716497Y-7630412D02*
X11726021Y-7649460D01*
X11726021Y-7649460D02*
X11745068Y-7658984D01*
X11745068Y-7658984D02*
X11764116Y-7658984D01*
X11983164Y-7525650D02*
X11983164Y-7725650D01*
X11983164Y-7535174D02*
X12002211Y-7525650D01*
X12002211Y-7525650D02*
X12040307Y-7525650D01*
X12040307Y-7525650D02*
X12059354Y-7535174D01*
X12059354Y-7535174D02*
X12068878Y-7544698D01*
X12068878Y-7544698D02*
X12078402Y-7563746D01*
X12078402Y-7563746D02*
X12078402Y-7620888D01*
X12078402Y-7620888D02*
X12068878Y-7639936D01*
X12068878Y-7639936D02*
X12059354Y-7649460D01*
X12059354Y-7649460D02*
X12040307Y-7658984D01*
X12040307Y-7658984D02*
X12002211Y-7658984D01*
X12002211Y-7658984D02*
X11983164Y-7649460D01*
X12192687Y-7658984D02*
X12173640Y-7649460D01*
X12173640Y-7649460D02*
X12164116Y-7630412D01*
X12164116Y-7630412D02*
X12164116Y-7458984D01*
X12354592Y-7658984D02*
X12354592Y-7554222D01*
X12354592Y-7554222D02*
X12345068Y-7535174D01*
X12345068Y-7535174D02*
X12326021Y-7525650D01*
X12326021Y-7525650D02*
X12287926Y-7525650D01*
X12287926Y-7525650D02*
X12268878Y-7535174D01*
X12354592Y-7649460D02*
X12335545Y-7658984D01*
X12335545Y-7658984D02*
X12287926Y-7658984D01*
X12287926Y-7658984D02*
X12268878Y-7649460D01*
X12268878Y-7649460D02*
X12259354Y-7630412D01*
X12259354Y-7630412D02*
X12259354Y-7611365D01*
X12259354Y-7611365D02*
X12268878Y-7592317D01*
X12268878Y-7592317D02*
X12287926Y-7582793D01*
X12287926Y-7582793D02*
X12335545Y-7582793D01*
X12335545Y-7582793D02*
X12354592Y-7573269D01*
X12421259Y-7525650D02*
X12497449Y-7525650D01*
X12449830Y-7458984D02*
X12449830Y-7630412D01*
X12449830Y-7630412D02*
X12459354Y-7649460D01*
X12459354Y-7649460D02*
X12478402Y-7658984D01*
X12478402Y-7658984D02*
X12497449Y-7658984D01*
X12640307Y-7649460D02*
X12621259Y-7658984D01*
X12621259Y-7658984D02*
X12583164Y-7658984D01*
X12583164Y-7658984D02*
X12564116Y-7649460D01*
X12564116Y-7649460D02*
X12554592Y-7630412D01*
X12554592Y-7630412D02*
X12554592Y-7554222D01*
X12554592Y-7554222D02*
X12564116Y-7535174D01*
X12564116Y-7535174D02*
X12583164Y-7525650D01*
X12583164Y-7525650D02*
X12621259Y-7525650D01*
X12621259Y-7525650D02*
X12640307Y-7535174D01*
X12640307Y-7535174D02*
X12649830Y-7554222D01*
X12649830Y-7554222D02*
X12649830Y-7573269D01*
X12649830Y-7573269D02*
X12554592Y-7592317D01*
X12821259Y-7658984D02*
X12821259Y-7458984D01*
X12821259Y-7649460D02*
X12802211Y-7658984D01*
X12802211Y-7658984D02*
X12764116Y-7658984D01*
X12764116Y-7658984D02*
X12745068Y-7649460D01*
X12745068Y-7649460D02*
X12735545Y-7639936D01*
X12735545Y-7639936D02*
X12726021Y-7620888D01*
X12726021Y-7620888D02*
X12726021Y-7563746D01*
X12726021Y-7563746D02*
X12735545Y-7544698D01*
X12735545Y-7544698D02*
X12745068Y-7535174D01*
X12745068Y-7535174D02*
X12764116Y-7525650D01*
X12764116Y-7525650D02*
X12802211Y-7525650D01*
X12802211Y-7525650D02*
X12821259Y-7535174D01*
X12897449Y-7735174D02*
X12906973Y-7725650D01*
X12906973Y-7725650D02*
X12926021Y-7697079D01*
X12926021Y-7697079D02*
X12935545Y-7678031D01*
X12935545Y-7678031D02*
X12945068Y-7649460D01*
X12945068Y-7649460D02*
X12954592Y-7601841D01*
X12954592Y-7601841D02*
X12954592Y-7563746D01*
X12954592Y-7563746D02*
X12945068Y-7516127D01*
X12945068Y-7516127D02*
X12935545Y-7487555D01*
X12935545Y-7487555D02*
X12926021Y-7468508D01*
X12926021Y-7468508D02*
X12906973Y-7439936D01*
X12906973Y-7439936D02*
X12897449Y-7430412D01*
M02*
