%TF.GenerationSoftware,KiCad,Pcbnew,8.0.4*%
%TF.CreationDate,2024-11-30T14:16:15+01:00*%
%TF.ProjectId,Sensor_PCB,53656e73-6f72-45f5-9043-422e6b696361,rev?*%
%TF.SameCoordinates,Original*%
%TF.FileFunction,Copper,L4,Bot*%
%TF.FilePolarity,Positive*%
%FSLAX46Y46*%
G04 Gerber Fmt 4.6, Leading zero omitted, Abs format (unit mm)*
G04 Created by KiCad (PCBNEW 8.0.4) date 2024-11-30 14:16:15*
%MOMM*%
%LPD*%
G01*
G04 APERTURE LIST*
G04 Aperture macros list*
%AMRoundRect*
0 Rectangle with rounded corners*
0 $1 Rounding radius*
0 $2 $3 $4 $5 $6 $7 $8 $9 X,Y pos of 4 corners*
0 Add a 4 corners polygon primitive as box body*
4,1,4,$2,$3,$4,$5,$6,$7,$8,$9,$2,$3,0*
0 Add four circle primitives for the rounded corners*
1,1,$1+$1,$2,$3*
1,1,$1+$1,$4,$5*
1,1,$1+$1,$6,$7*
1,1,$1+$1,$8,$9*
0 Add four rect primitives between the rounded corners*
20,1,$1+$1,$2,$3,$4,$5,0*
20,1,$1+$1,$4,$5,$6,$7,0*
20,1,$1+$1,$6,$7,$8,$9,0*
20,1,$1+$1,$8,$9,$2,$3,0*%
G04 Aperture macros list end*
%TA.AperFunction,SMDPad,CuDef*%
%ADD10RoundRect,0.225000X0.225000X0.250000X-0.225000X0.250000X-0.225000X-0.250000X0.225000X-0.250000X0*%
%TD*%
%TA.AperFunction,SMDPad,CuDef*%
%ADD11RoundRect,0.150000X-0.587500X-0.150000X0.587500X-0.150000X0.587500X0.150000X-0.587500X0.150000X0*%
%TD*%
%TA.AperFunction,SMDPad,CuDef*%
%ADD12RoundRect,0.200000X0.053033X-0.335876X0.335876X-0.053033X-0.053033X0.335876X-0.335876X0.053033X0*%
%TD*%
%TA.AperFunction,SMDPad,CuDef*%
%ADD13RoundRect,0.200000X0.335876X0.053033X0.053033X0.335876X-0.335876X-0.053033X-0.053033X-0.335876X0*%
%TD*%
%TA.AperFunction,SMDPad,CuDef*%
%ADD14RoundRect,0.200000X0.200000X0.275000X-0.200000X0.275000X-0.200000X-0.275000X0.200000X-0.275000X0*%
%TD*%
%TA.AperFunction,SMDPad,CuDef*%
%ADD15RoundRect,0.200000X-0.200000X-0.275000X0.200000X-0.275000X0.200000X0.275000X-0.200000X0.275000X0*%
%TD*%
%TA.AperFunction,SMDPad,CuDef*%
%ADD16RoundRect,0.225000X-0.225000X-0.250000X0.225000X-0.250000X0.225000X0.250000X-0.225000X0.250000X0*%
%TD*%
%TA.AperFunction,SMDPad,CuDef*%
%ADD17RoundRect,0.225000X-0.017678X0.335876X-0.335876X0.017678X0.017678X-0.335876X0.335876X-0.017678X0*%
%TD*%
%TA.AperFunction,SMDPad,CuDef*%
%ADD18RoundRect,0.200000X-0.335876X-0.053033X-0.053033X-0.335876X0.335876X0.053033X0.053033X0.335876X0*%
%TD*%
%TA.AperFunction,SMDPad,CuDef*%
%ADD19RoundRect,0.225000X-0.335876X-0.017678X-0.017678X-0.335876X0.335876X0.017678X0.017678X0.335876X0*%
%TD*%
%TA.AperFunction,ViaPad*%
%ADD20C,0.650000*%
%TD*%
%TA.AperFunction,ViaPad*%
%ADD21C,0.600000*%
%TD*%
%TA.AperFunction,Conductor*%
%ADD22C,0.500000*%
%TD*%
%TA.AperFunction,Conductor*%
%ADD23C,0.300000*%
%TD*%
G04 APERTURE END LIST*
D10*
%TO.P,C2,1*%
%TO.N,+5V*%
X122875000Y-53400000D03*
%TO.P,C2,2*%
%TO.N,GND*%
X121325000Y-53400000D03*
%TD*%
D11*
%TO.P,Q1,1,D*%
%TO.N,Net-(Q1-D)*%
X113049500Y-56922000D03*
%TO.P,Q1,2,G*%
%TO.N,LED_ON*%
X111174500Y-57872000D03*
%TO.P,Q1,3,S*%
%TO.N,GND*%
X111174500Y-55972000D03*
%TD*%
D10*
%TO.P,C1,1*%
%TO.N,+5V*%
X122900000Y-54975000D03*
%TO.P,C1,2*%
%TO.N,GND*%
X121350000Y-54975000D03*
%TD*%
D12*
%TO.P,R3,1*%
%TO.N,Net-(C3-Pad1)*%
X73216637Y-63383363D03*
%TO.P,R3,2*%
%TO.N,SENSOR1*%
X74383363Y-62216637D03*
%TD*%
D13*
%TO.P,R20,1*%
%TO.N,Net-(C14-Pad1)*%
X155333363Y-65333363D03*
%TO.P,R20,2*%
%TO.N,SENSOR12*%
X154166637Y-64166637D03*
%TD*%
D14*
%TO.P,R21,1*%
%TO.N,Line_4*%
X116750000Y-56750000D03*
%TO.P,R21,2*%
%TO.N,Net-(Q1-D)*%
X115100000Y-56750000D03*
%TD*%
D15*
%TO.P,R17,1*%
%TO.N,Net-(C11-Pad1)*%
X107675000Y-51900000D03*
%TO.P,R17,2*%
%TO.N,SENSOR6*%
X109325000Y-51900000D03*
%TD*%
%TO.P,R12,1*%
%TO.N,Net-(IC4-Pad4)*%
X121675000Y-47300000D03*
%TO.P,R12,2*%
%TO.N,Net-(IC10-Pad1)*%
X123325000Y-47300000D03*
%TD*%
%TO.P,R4,1*%
%TO.N,Net-(C4-Pad1)*%
X79175000Y-53600000D03*
%TO.P,R4,2*%
%TO.N,SENSOR3*%
X80825000Y-53600000D03*
%TD*%
D16*
%TO.P,C11,1*%
%TO.N,Net-(C11-Pad1)*%
X107725000Y-50000000D03*
%TO.P,C11,2*%
%TO.N,+5V*%
X109275000Y-50000000D03*
%TD*%
D10*
%TO.P,C7,1*%
%TO.N,Net-(C7-Pad1)*%
X137775000Y-51750000D03*
%TO.P,C7,2*%
%TO.N,+5V*%
X136225000Y-51750000D03*
%TD*%
D15*
%TO.P,R5,1*%
%TO.N,Net-(C5-Pad1)*%
X99925000Y-52000000D03*
%TO.P,R5,2*%
%TO.N,SENSOR5*%
X101575000Y-52000000D03*
%TD*%
D10*
%TO.P,C6,1*%
%TO.N,Net-(C6-Pad1)*%
X118775000Y-50000000D03*
%TO.P,C6,2*%
%TO.N,+5V*%
X117225000Y-50000000D03*
%TD*%
D15*
%TO.P,R13,1*%
%TO.N,Net-(IC5-Pad4)*%
X140925000Y-49575000D03*
%TO.P,R13,2*%
%TO.N,Net-(IC11-Pad1)*%
X142575000Y-49575000D03*
%TD*%
D14*
%TO.P,R19,1*%
%TO.N,Net-(C13-Pad1)*%
X147325000Y-53500000D03*
%TO.P,R19,2*%
%TO.N,SENSOR10*%
X145675000Y-53500000D03*
%TD*%
D15*
%TO.P,R11,1*%
%TO.N,Net-(IC3-Pad4)*%
X102925000Y-47500000D03*
%TO.P,R11,2*%
%TO.N,Net-(IC9-Pad1)*%
X104575000Y-47500000D03*
%TD*%
D17*
%TO.P,C3,1*%
%TO.N,Net-(C3-Pad1)*%
X67548008Y-64451992D03*
%TO.P,C3,2*%
%TO.N,+5V*%
X66451992Y-65548008D03*
%TD*%
D12*
%TO.P,R15,1*%
%TO.N,Net-(C9-Pad1)*%
X78008274Y-58341726D03*
%TO.P,R15,2*%
%TO.N,SENSOR2*%
X79175000Y-57175000D03*
%TD*%
D16*
%TO.P,C10,1*%
%TO.N,Net-(C10-Pad1)*%
X88725000Y-52000000D03*
%TO.P,C10,2*%
%TO.N,+5V*%
X90275000Y-52000000D03*
%TD*%
D13*
%TO.P,R8,1*%
%TO.N,Net-(C8-Pad1)*%
X150083363Y-58583363D03*
%TO.P,R8,2*%
%TO.N,SENSOR11*%
X148916637Y-57416637D03*
%TD*%
D18*
%TO.P,R14,1*%
%TO.N,Net-(IC6-Pad4)*%
X157416637Y-59416637D03*
%TO.P,R14,2*%
%TO.N,Net-(IC12-Pad1)*%
X158583363Y-60583363D03*
%TD*%
D15*
%TO.P,R16,1*%
%TO.N,Net-(C10-Pad1)*%
X90000000Y-54000000D03*
%TO.P,R16,2*%
%TO.N,SENSOR4*%
X91650000Y-54000000D03*
%TD*%
D16*
%TO.P,C4,1*%
%TO.N,Net-(C4-Pad1)*%
X79225000Y-52000000D03*
%TO.P,C4,2*%
%TO.N,+5V*%
X80775000Y-52000000D03*
%TD*%
D10*
%TO.P,C12,1*%
%TO.N,Net-(C12-Pad1)*%
X128275000Y-49750000D03*
%TO.P,C12,2*%
%TO.N,+5V*%
X126725000Y-49750000D03*
%TD*%
D16*
%TO.P,C5,1*%
%TO.N,Net-(C5-Pad1)*%
X98225000Y-50000000D03*
%TO.P,C5,2*%
%TO.N,+5V*%
X99775000Y-50000000D03*
%TD*%
D12*
%TO.P,R9,1*%
%TO.N,Net-(IC1-Pad4)*%
X67916637Y-60583363D03*
%TO.P,R9,2*%
%TO.N,Net-(IC7-Pad1)*%
X69083363Y-59416637D03*
%TD*%
D15*
%TO.P,R23,1*%
%TO.N,+5V*%
X107675000Y-57900000D03*
%TO.P,R23,2*%
%TO.N,LED_ON*%
X109325000Y-57900000D03*
%TD*%
%TO.P,R10,1*%
%TO.N,Net-(IC2-Pad4)*%
X83925000Y-49575000D03*
%TO.P,R10,2*%
%TO.N,Net-(IC8-Pad1)*%
X85575000Y-49575000D03*
%TD*%
D14*
%TO.P,R18,1*%
%TO.N,Net-(C12-Pad1)*%
X128325000Y-52000000D03*
%TO.P,R18,2*%
%TO.N,SENSOR8*%
X126675000Y-52000000D03*
%TD*%
D17*
%TO.P,C9,1*%
%TO.N,Net-(C9-Pad1)*%
X74048008Y-57951992D03*
%TO.P,C9,2*%
%TO.N,+5V*%
X72951992Y-59048008D03*
%TD*%
D10*
%TO.P,C13,1*%
%TO.N,Net-(C13-Pad1)*%
X147300000Y-52000000D03*
%TO.P,C13,2*%
%TO.N,+5V*%
X145750000Y-52000000D03*
%TD*%
D19*
%TO.P,C8,1*%
%TO.N,Net-(C8-Pad1)*%
X152651992Y-57751992D03*
%TO.P,C8,2*%
%TO.N,+5V*%
X153748008Y-58848008D03*
%TD*%
D14*
%TO.P,R22,1*%
%TO.N,Line_4*%
X116750000Y-55000000D03*
%TO.P,R22,2*%
%TO.N,Net-(Q1-D)*%
X115100000Y-55000000D03*
%TD*%
%TO.P,R6,1*%
%TO.N,Net-(C6-Pad1)*%
X118825000Y-51700000D03*
%TO.P,R6,2*%
%TO.N,SENSOR7*%
X117175000Y-51700000D03*
%TD*%
D19*
%TO.P,C14,1*%
%TO.N,Net-(C14-Pad1)*%
X158951992Y-64451992D03*
%TO.P,C14,2*%
%TO.N,+5V*%
X160048008Y-65548008D03*
%TD*%
D14*
%TO.P,R7,1*%
%TO.N,Net-(C7-Pad1)*%
X137800000Y-53300000D03*
%TO.P,R7,2*%
%TO.N,SENSOR9*%
X136150000Y-53300000D03*
%TD*%
D20*
%TO.N,+5V*%
X132200000Y-52700000D03*
X117250000Y-57800000D03*
X113600000Y-50000000D03*
D21*
X83400000Y-51300000D03*
D20*
X132300000Y-49000000D03*
X116300000Y-58000000D03*
X112800000Y-53100000D03*
X154800000Y-62100000D03*
X148900000Y-55200000D03*
X94200000Y-49600000D03*
X121700000Y-49300000D03*
D21*
X118400000Y-56000000D03*
X65900000Y-68200000D03*
D20*
%TO.N,GND*%
X163000000Y-65400000D03*
X131000000Y-50600000D03*
X83100000Y-52600000D03*
X102300000Y-50500000D03*
X111800000Y-50700000D03*
X121500000Y-51600000D03*
X156500000Y-60300000D03*
X121500000Y-50300000D03*
X63800000Y-64500000D03*
X140500000Y-52200000D03*
X108625000Y-56400000D03*
X149700000Y-52600000D03*
X93000000Y-52700000D03*
X70400000Y-57900000D03*
%TO.N,Net-(C3-Pad1)*%
X72300000Y-62500000D03*
%TO.N,Net-(C4-Pad1)*%
X79200000Y-52800000D03*
%TO.N,Net-(C5-Pad1)*%
X98500000Y-51000000D03*
%TO.N,Net-(C6-Pad1)*%
X118800000Y-50900000D03*
%TO.N,Net-(C7-Pad1)*%
X137800000Y-52500000D03*
%TO.N,Net-(C8-Pad1)*%
X152014492Y-58414492D03*
%TO.N,Net-(C9-Pad1)*%
X77000000Y-57300000D03*
%TO.N,Net-(C10-Pad1)*%
X88700000Y-53100000D03*
%TO.N,Net-(C11-Pad1)*%
X107700000Y-51000000D03*
%TO.N,Net-(C12-Pad1)*%
X128300000Y-50900000D03*
%TO.N,Net-(C13-Pad1)*%
X147300000Y-52800000D03*
%TO.N,Net-(C14-Pad1)*%
X156200000Y-64500000D03*
%TO.N,Net-(IC1-Pad4)*%
X67300000Y-62500000D03*
%TO.N,Net-(IC3-Pad4)*%
X98100000Y-47500000D03*
%TO.N,Net-(IC5-Pad4)*%
X135500000Y-49600000D03*
%TO.N,Net-(IC8-Pad1)*%
X89800000Y-49500000D03*
%TO.N,Net-(IC10-Pad1)*%
X127200000Y-47250000D03*
%TO.N,Net-(IC12-Pad1)*%
X160600000Y-62400000D03*
%TO.N,SENSOR1*%
X75500000Y-61100000D03*
%TO.N,SENSOR3*%
X82400000Y-54400000D03*
%TO.N,SENSOR5*%
X103300000Y-52700000D03*
%TO.N,SENSOR7*%
X114900000Y-53000000D03*
%TO.N,SENSOR9*%
X128300000Y-53400000D03*
%TO.N,SENSOR11*%
X126200000Y-54600000D03*
%TO.N,SENSOR2*%
X106200000Y-54600000D03*
%TO.N,SENSOR4*%
X93100000Y-53900000D03*
%TO.N,SENSOR6*%
X113000000Y-51900000D03*
%TO.N,SENSOR8*%
X125400000Y-52706980D03*
%TO.N,SENSOR10*%
X127900000Y-54500000D03*
%TO.N,SENSOR12*%
X150800000Y-61100000D03*
%TO.N,LED_ON*%
X110100000Y-57900000D03*
%TO.N,Net-(IC2-Pad4)*%
X79400000Y-49500000D03*
%TO.N,Net-(IC4-Pad4)*%
X117800000Y-47250000D03*
%TO.N,Net-(IC6-Pad4)*%
X153200000Y-55700000D03*
%TO.N,Net-(IC7-Pad1)*%
X70200000Y-59100000D03*
%TO.N,Net-(IC9-Pad1)*%
X109300000Y-47500000D03*
%TO.N,Net-(IC11-Pad1)*%
X146500000Y-49500000D03*
%TO.N,Line_4*%
X142900000Y-50800000D03*
X156100000Y-62700000D03*
X86400000Y-51100000D03*
X74700000Y-59400000D03*
X119800000Y-57700000D03*
X123100000Y-48700000D03*
X105400000Y-49100000D03*
%TD*%
D22*
%TO.N,GND*%
X121500000Y-51600000D02*
X121325000Y-51775000D01*
X121350000Y-54975000D02*
X121350000Y-53425000D01*
X111174500Y-55972000D02*
X109053000Y-55972000D01*
X121325000Y-51775000D02*
X121325000Y-53400000D01*
X109053000Y-55972000D02*
X108625000Y-56400000D01*
%TO.N,Net-(C3-Pad1)*%
X67548008Y-64451992D02*
X69900000Y-62100000D01*
X72300000Y-62500000D02*
X72333452Y-62500000D01*
X71933452Y-62100000D02*
X72300000Y-62466548D01*
X72333452Y-62500000D02*
X73166726Y-63333274D01*
X69900000Y-62100000D02*
X71933452Y-62100000D01*
X72300000Y-62466548D02*
X72300000Y-62500000D01*
D23*
%TO.N,Net-(C4-Pad1)*%
X79200000Y-52800000D02*
X79175000Y-52775000D01*
X79175000Y-52050000D02*
X79225000Y-52000000D01*
X79175000Y-52825000D02*
X79200000Y-52800000D01*
X79175000Y-53600000D02*
X79175000Y-52825000D01*
X79175000Y-52775000D02*
X79175000Y-52050000D01*
D22*
%TO.N,Net-(C5-Pad1)*%
X98500000Y-51000000D02*
X98225000Y-50725000D01*
X99925000Y-52000000D02*
X99500000Y-52000000D01*
X98225000Y-50725000D02*
X98225000Y-50000000D01*
X99500000Y-52000000D02*
X98500000Y-51000000D01*
%TO.N,Net-(C6-Pad1)*%
X118775000Y-50000000D02*
X118775000Y-50875000D01*
X118800000Y-50900000D02*
X118775000Y-50925000D01*
X118775000Y-50925000D02*
X118775000Y-51650000D01*
X118775000Y-50875000D02*
X118800000Y-50900000D01*
%TO.N,Net-(C7-Pad1)*%
X137800000Y-52500000D02*
X137775000Y-52525000D01*
X137775000Y-52475000D02*
X137800000Y-52500000D01*
X137775000Y-51750000D02*
X137775000Y-52475000D01*
X137775000Y-52525000D02*
X137775000Y-53275000D01*
%TO.N,Net-(C8-Pad1)*%
X152014492Y-58414492D02*
X152476992Y-57951992D01*
X152014492Y-58414492D02*
X151328984Y-59100000D01*
X150600000Y-59100000D02*
X150083363Y-58583363D01*
X151328984Y-59100000D02*
X150600000Y-59100000D01*
%TO.N,Net-(C9-Pad1)*%
X74048008Y-57951992D02*
X75300000Y-56700000D01*
X76366548Y-56700000D02*
X76966548Y-57300000D01*
X77000000Y-57300000D02*
X77000000Y-57333452D01*
X76966548Y-57300000D02*
X77000000Y-57300000D01*
X77000000Y-57333452D02*
X78083274Y-58416726D01*
X75300000Y-56700000D02*
X76366548Y-56700000D01*
%TO.N,Net-(C10-Pad1)*%
X88725000Y-53075000D02*
X88725000Y-52000000D01*
X88700000Y-53100000D02*
X88725000Y-53075000D01*
X88725000Y-53125000D02*
X88700000Y-53100000D01*
X90000000Y-54000000D02*
X89200000Y-54000000D01*
X88725000Y-53525000D02*
X88725000Y-53125000D01*
X89200000Y-54000000D02*
X88725000Y-53525000D01*
%TO.N,Net-(C11-Pad1)*%
X107725000Y-50975000D02*
X107700000Y-51000000D01*
X107725000Y-50000000D02*
X107725000Y-50975000D01*
X107700000Y-51000000D02*
X107725000Y-51025000D01*
X107725000Y-51025000D02*
X107725000Y-51850000D01*
%TO.N,Net-(C12-Pad1)*%
X128300000Y-50900000D02*
X128275000Y-50925000D01*
X128275000Y-49750000D02*
X128275000Y-50875000D01*
X128275000Y-50925000D02*
X128275000Y-51950000D01*
X128275000Y-50875000D02*
X128300000Y-50900000D01*
%TO.N,Net-(C13-Pad1)*%
X147300000Y-52800000D02*
X147300000Y-53475000D01*
X147300000Y-52000000D02*
X147300000Y-52800000D01*
%TO.N,Net-(C14-Pad1)*%
X156200000Y-64500000D02*
X156166726Y-64500000D01*
X156166726Y-64500000D02*
X155333363Y-65333363D01*
X158951992Y-64451992D02*
X156214734Y-64451992D01*
X156214734Y-64451992D02*
X156200000Y-64466726D01*
X156200000Y-64466726D02*
X156200000Y-64500000D01*
%TO.N,Net-(IC1-Pad4)*%
X67300000Y-61200000D02*
X67916637Y-60583363D01*
X67300000Y-62500000D02*
X67300000Y-61200000D01*
%TO.N,Net-(IC3-Pad4)*%
X102925000Y-47500000D02*
X98100000Y-47500000D01*
%TO.N,Net-(IC5-Pad4)*%
X135600000Y-49500000D02*
X140925000Y-49500000D01*
X135500000Y-49600000D02*
X135600000Y-49500000D01*
%TO.N,Net-(IC8-Pad1)*%
X85575000Y-49500000D02*
X89800000Y-49500000D01*
%TO.N,Net-(IC10-Pad1)*%
X127200000Y-47250000D02*
X123325000Y-47250000D01*
%TO.N,Net-(IC12-Pad1)*%
X158783363Y-60583363D02*
X160600000Y-62400000D01*
%TO.N,Net-(Q1-D)*%
X114928000Y-56922000D02*
X115100000Y-56750000D01*
X113049500Y-56922000D02*
X114928000Y-56922000D01*
X115100000Y-56750000D02*
X115100000Y-55000000D01*
D23*
%TO.N,SENSOR1*%
X75500000Y-61100000D02*
X74383363Y-62216637D01*
%TO.N,SENSOR3*%
X81600000Y-53600000D02*
X82400000Y-54400000D01*
X80825000Y-53600000D02*
X81600000Y-53600000D01*
%TO.N,SENSOR5*%
X102275000Y-52700000D02*
X101575000Y-52000000D01*
X103300000Y-52700000D02*
X102275000Y-52700000D01*
%TO.N,SENSOR7*%
X117175000Y-51700000D02*
X116200000Y-51700000D01*
X116200000Y-51700000D02*
X114900000Y-53000000D01*
%TO.N,SENSOR9*%
X128900000Y-54000000D02*
X135450000Y-54000000D01*
X128300000Y-53400000D02*
X128900000Y-54000000D01*
X135450000Y-54000000D02*
X136150000Y-53300000D01*
%TO.N,SENSOR11*%
X148133274Y-58200000D02*
X147900000Y-58200000D01*
X145000000Y-55300000D02*
X126900000Y-55300000D01*
X148916637Y-57416637D02*
X148133274Y-58200000D01*
X147900000Y-58200000D02*
X145000000Y-55300000D01*
X126900000Y-55300000D02*
X126200000Y-54600000D01*
%TO.N,SENSOR2*%
X105708289Y-55291711D02*
X106200000Y-54600000D01*
X81208289Y-55291711D02*
X105708289Y-55291711D01*
X79250000Y-57250000D02*
X81208289Y-55291711D01*
%TO.N,SENSOR4*%
X91650000Y-54000000D02*
X91725000Y-53925000D01*
X91725000Y-53925000D02*
X93075000Y-53925000D01*
X93100000Y-53900000D02*
X93125000Y-53925000D01*
X93075000Y-53925000D02*
X93100000Y-53900000D01*
%TO.N,SENSOR6*%
X109325000Y-51900000D02*
X113000000Y-51900000D01*
%TO.N,SENSOR8*%
X125400000Y-52706980D02*
X125968020Y-52706980D01*
X125968020Y-52706980D02*
X126675000Y-52000000D01*
%TO.N,SENSOR10*%
X144675000Y-54500000D02*
X127900000Y-54500000D01*
X145675000Y-53500000D02*
X144675000Y-54500000D01*
%TO.N,SENSOR12*%
X150800000Y-61100000D02*
X153866637Y-64166637D01*
D22*
%TO.N,LED_ON*%
X110100000Y-57900000D02*
X110128000Y-57872000D01*
X109900000Y-58000000D02*
X110028000Y-57872000D01*
X110128000Y-57872000D02*
X111174500Y-57872000D01*
X110028000Y-57872000D02*
X110072000Y-57872000D01*
X110072000Y-57872000D02*
X110100000Y-57900000D01*
X109325000Y-58000000D02*
X109900000Y-58000000D01*
%TO.N,Net-(IC2-Pad4)*%
X83925000Y-49500000D02*
X79400000Y-49500000D01*
%TO.N,Net-(IC4-Pad4)*%
X117800000Y-47250000D02*
X121675000Y-47250000D01*
%TO.N,Net-(IC6-Pad4)*%
X157416637Y-59416637D02*
X153700000Y-55700000D01*
X153700000Y-55700000D02*
X153200000Y-55700000D01*
%TO.N,Net-(IC7-Pad1)*%
X69900000Y-58800000D02*
X70200000Y-59100000D01*
X69083363Y-59416637D02*
X69700000Y-58800000D01*
X69700000Y-58800000D02*
X69900000Y-58800000D01*
%TO.N,Net-(IC9-Pad1)*%
X104575000Y-47500000D02*
X109300000Y-47500000D01*
%TO.N,Net-(IC11-Pad1)*%
X146500000Y-49500000D02*
X142575000Y-49500000D01*
%TO.N,Line_4*%
X119800000Y-57700000D02*
X118800000Y-57700000D01*
X118800000Y-57700000D02*
X117850000Y-56750000D01*
X116750000Y-55000000D02*
X116750000Y-56750000D01*
X117850000Y-56750000D02*
X116750000Y-56750000D01*
%TD*%
%TA.AperFunction,Conductor*%
%TO.N,+5V*%
G36*
X66468834Y-61308650D02*
G01*
X66524767Y-61350522D01*
X66549184Y-61415986D01*
X66549500Y-61424832D01*
X66549500Y-62118786D01*
X66543431Y-62157103D01*
X66488093Y-62327420D01*
X66488092Y-62327424D01*
X66469953Y-62500000D01*
X66488092Y-62672576D01*
X66488093Y-62672579D01*
X66541712Y-62837608D01*
X66628477Y-62987887D01*
X66628476Y-62987887D01*
X66673248Y-63037611D01*
X66744590Y-63116845D01*
X66864193Y-63203742D01*
X66884976Y-63218842D01*
X67043495Y-63289420D01*
X67043497Y-63289420D01*
X67043501Y-63289422D01*
X67068621Y-63294761D01*
X67130102Y-63327952D01*
X67163879Y-63389115D01*
X67159227Y-63458830D01*
X67121156Y-63512189D01*
X67051520Y-63568915D01*
X67051502Y-63568931D01*
X66664950Y-63955485D01*
X66664942Y-63955494D01*
X66601860Y-64032929D01*
X66601855Y-64032937D01*
X66525745Y-64184485D01*
X66525744Y-64184488D01*
X66525744Y-64184489D01*
X66499082Y-64296987D01*
X66486632Y-64349516D01*
X66486632Y-64363132D01*
X66466947Y-64430171D01*
X66414143Y-64475926D01*
X66362632Y-64487132D01*
X66349576Y-64487132D01*
X66184657Y-64526218D01*
X66033213Y-64602276D01*
X66033206Y-64602281D01*
X65955836Y-64665307D01*
X65955829Y-64665313D01*
X65939338Y-64681802D01*
X66451992Y-65194455D01*
X67318197Y-66060660D01*
X67334680Y-66044176D01*
X67334694Y-66044160D01*
X67397718Y-65966793D01*
X67397723Y-65966786D01*
X67473781Y-65815342D01*
X67512868Y-65650424D01*
X67512868Y-65637368D01*
X67532553Y-65570329D01*
X67585357Y-65524574D01*
X67636868Y-65513368D01*
X67650483Y-65513368D01*
X67650485Y-65513368D01*
X67815511Y-65474256D01*
X67967068Y-65398141D01*
X68044507Y-65335059D01*
X68431073Y-64948491D01*
X68494157Y-64871052D01*
X68570272Y-64719495D01*
X68609384Y-64554469D01*
X68609384Y-64503346D01*
X68629069Y-64436307D01*
X68645703Y-64415665D01*
X70174549Y-62886819D01*
X70235872Y-62853334D01*
X70262230Y-62850500D01*
X71477565Y-62850500D01*
X71544604Y-62870185D01*
X71584951Y-62912499D01*
X71628478Y-62987889D01*
X71744590Y-63116845D01*
X71864193Y-63203742D01*
X71884976Y-63218842D01*
X72049438Y-63292066D01*
X72048924Y-63293220D01*
X72091221Y-63319137D01*
X72153459Y-63381374D01*
X72186175Y-63439381D01*
X72220970Y-63580554D01*
X72246399Y-63629003D01*
X72300027Y-63731182D01*
X72345399Y-63785625D01*
X72814375Y-64254601D01*
X72849731Y-64284066D01*
X72888627Y-64342103D01*
X72889971Y-64411960D01*
X72858025Y-64467002D01*
X68411848Y-68913181D01*
X68350525Y-68946666D01*
X68324167Y-68949500D01*
X64175833Y-68949500D01*
X64108794Y-68929815D01*
X64088152Y-68913181D01*
X61990461Y-66815490D01*
X61990460Y-66815488D01*
X61966789Y-66791816D01*
X61958619Y-66782802D01*
X61875697Y-66681762D01*
X61862195Y-66661556D01*
X61803455Y-66551661D01*
X61794162Y-66529226D01*
X61757989Y-66409982D01*
X61755315Y-66396534D01*
X65957017Y-66396534D01*
X65957017Y-66396535D01*
X65991178Y-66430696D01*
X65991194Y-66430710D01*
X66068561Y-66493734D01*
X66068568Y-66493739D01*
X66220012Y-66569797D01*
X66384931Y-66608884D01*
X66554408Y-66608884D01*
X66719326Y-66569797D01*
X66870770Y-66493739D01*
X66870777Y-66493734D01*
X66948155Y-66430701D01*
X66948168Y-66430689D01*
X66964644Y-66414213D01*
X66964643Y-66414212D01*
X66451993Y-65901561D01*
X66451992Y-65901561D01*
X65957017Y-66396534D01*
X61755315Y-66396534D01*
X61753249Y-66386147D01*
X61747623Y-66329029D01*
X61741037Y-66262153D01*
X61741037Y-66237846D01*
X61753249Y-66113852D01*
X61757989Y-66090019D01*
X61794163Y-65970770D01*
X61803453Y-65948341D01*
X61862198Y-65838438D01*
X61875692Y-65818243D01*
X61958627Y-65717188D01*
X61966791Y-65708181D01*
X61996137Y-65678834D01*
X61996136Y-65678834D01*
X61996140Y-65678831D01*
X62229379Y-65445591D01*
X65391116Y-65445591D01*
X65391116Y-65615069D01*
X65430202Y-65779987D01*
X65506260Y-65931431D01*
X65506265Y-65931438D01*
X65569297Y-66008815D01*
X65569309Y-66008829D01*
X65603464Y-66042982D01*
X65603465Y-66042982D01*
X66098439Y-65548008D01*
X66098439Y-65548007D01*
X65585786Y-65035355D01*
X65585785Y-65035355D01*
X65569310Y-65051832D01*
X65569299Y-65051844D01*
X65506261Y-65129227D01*
X65506260Y-65129229D01*
X65430202Y-65280673D01*
X65391116Y-65445591D01*
X62229379Y-65445591D01*
X62852648Y-64822321D01*
X62913969Y-64788838D01*
X62983660Y-64793822D01*
X63039594Y-64835694D01*
X63047714Y-64848003D01*
X63128478Y-64987889D01*
X63195559Y-65062391D01*
X63244590Y-65116845D01*
X63362472Y-65202492D01*
X63384976Y-65218842D01*
X63543495Y-65289420D01*
X63543501Y-65289422D01*
X63713236Y-65325500D01*
X63713237Y-65325500D01*
X63886762Y-65325500D01*
X63886764Y-65325500D01*
X64056499Y-65289422D01*
X64056501Y-65289420D01*
X64056504Y-65289420D01*
X64170175Y-65238810D01*
X64215024Y-65218842D01*
X64355410Y-65116845D01*
X64471522Y-64987889D01*
X64558286Y-64837611D01*
X64611908Y-64672576D01*
X64630047Y-64500000D01*
X64611908Y-64327424D01*
X64565465Y-64184485D01*
X64558287Y-64162391D01*
X64483546Y-64032937D01*
X64471522Y-64012111D01*
X64355410Y-63883155D01*
X64215024Y-63781158D01*
X64157587Y-63755585D01*
X64104352Y-63710337D01*
X64084030Y-63643488D01*
X64103075Y-63576264D01*
X64120339Y-63554630D01*
X66337819Y-61337151D01*
X66399142Y-61303666D01*
X66468834Y-61308650D01*
G37*
%TD.AperFunction*%
%TA.AperFunction,Conductor*%
G36*
X97407544Y-46820185D02*
G01*
X97453299Y-46872989D01*
X97463243Y-46942147D01*
X97434218Y-47005703D01*
X97432655Y-47007472D01*
X97428476Y-47012112D01*
X97341712Y-47162391D01*
X97288093Y-47327420D01*
X97288092Y-47327424D01*
X97269953Y-47500000D01*
X97288092Y-47672576D01*
X97288093Y-47672579D01*
X97341712Y-47837608D01*
X97428477Y-47987887D01*
X97428476Y-47987887D01*
X97525076Y-48095172D01*
X97544590Y-48116845D01*
X97665210Y-48204481D01*
X97684976Y-48218842D01*
X97843495Y-48289420D01*
X97843501Y-48289422D01*
X98013236Y-48325500D01*
X98013237Y-48325500D01*
X98186762Y-48325500D01*
X98186764Y-48325500D01*
X98356499Y-48289422D01*
X98419842Y-48261220D01*
X98470277Y-48250500D01*
X102158481Y-48250500D01*
X102225520Y-48270185D01*
X102246163Y-48286820D01*
X102289811Y-48330468D01*
X102289811Y-48330469D01*
X102289813Y-48330470D01*
X102289815Y-48330472D01*
X102435394Y-48418478D01*
X102597804Y-48469086D01*
X102668384Y-48475500D01*
X102668387Y-48475500D01*
X103181613Y-48475500D01*
X103181616Y-48475500D01*
X103252196Y-48469086D01*
X103414606Y-48418478D01*
X103560185Y-48330472D01*
X103603837Y-48286820D01*
X103662319Y-48228339D01*
X103723642Y-48194854D01*
X103793334Y-48199838D01*
X103837681Y-48228339D01*
X103939811Y-48330469D01*
X103939813Y-48330470D01*
X103939815Y-48330472D01*
X104085394Y-48418478D01*
X104247804Y-48469086D01*
X104318384Y-48475500D01*
X104318387Y-48475500D01*
X104592576Y-48475500D01*
X104659615Y-48495185D01*
X104705370Y-48547989D01*
X104715314Y-48617147D01*
X104699963Y-48661500D01*
X104641712Y-48762391D01*
X104588220Y-48927029D01*
X104588092Y-48927424D01*
X104569953Y-49100000D01*
X104588092Y-49272576D01*
X104588093Y-49272579D01*
X104641712Y-49437608D01*
X104728477Y-49587887D01*
X104728476Y-49587887D01*
X104814256Y-49683155D01*
X104844590Y-49716845D01*
X104973600Y-49810577D01*
X104984976Y-49818842D01*
X105143495Y-49889420D01*
X105143501Y-49889422D01*
X105313236Y-49925500D01*
X105313237Y-49925500D01*
X105486762Y-49925500D01*
X105486764Y-49925500D01*
X105656499Y-49889422D01*
X105656501Y-49889420D01*
X105656504Y-49889420D01*
X105772868Y-49837611D01*
X105815024Y-49818842D01*
X105955410Y-49716845D01*
X105969094Y-49701647D01*
X106774500Y-49701647D01*
X106774500Y-50298337D01*
X106774501Y-50298355D01*
X106784650Y-50397707D01*
X106784651Y-50397710D01*
X106837996Y-50558694D01*
X106838001Y-50558705D01*
X106897871Y-50655768D01*
X106916312Y-50723160D01*
X106910265Y-50759178D01*
X106905287Y-50774501D01*
X106888092Y-50827423D01*
X106883346Y-50872576D01*
X106869953Y-51000000D01*
X106882937Y-51123534D01*
X106888093Y-51172582D01*
X106888786Y-51175841D01*
X106888638Y-51177770D01*
X106888772Y-51179038D01*
X106888540Y-51179062D01*
X106883468Y-51245508D01*
X106873612Y-51265767D01*
X106831523Y-51335391D01*
X106831522Y-51335393D01*
X106831522Y-51335394D01*
X106819336Y-51374500D01*
X106780913Y-51497807D01*
X106780714Y-51500000D01*
X106775618Y-51556087D01*
X106774500Y-51568386D01*
X106774500Y-52231613D01*
X106780913Y-52302192D01*
X106780913Y-52302194D01*
X106780914Y-52302196D01*
X106831522Y-52464606D01*
X106914637Y-52602095D01*
X106919530Y-52610188D01*
X107039811Y-52730469D01*
X107039813Y-52730470D01*
X107039815Y-52730472D01*
X107185394Y-52818478D01*
X107347804Y-52869086D01*
X107418384Y-52875500D01*
X107418387Y-52875500D01*
X107931613Y-52875500D01*
X107931616Y-52875500D01*
X108002196Y-52869086D01*
X108164606Y-52818478D01*
X108310185Y-52730472D01*
X108361190Y-52679467D01*
X108412319Y-52628339D01*
X108473642Y-52594854D01*
X108543334Y-52599838D01*
X108587681Y-52628339D01*
X108689811Y-52730469D01*
X108689813Y-52730470D01*
X108689815Y-52730472D01*
X108835394Y-52818478D01*
X108997804Y-52869086D01*
X109068384Y-52875500D01*
X109068387Y-52875500D01*
X109581613Y-52875500D01*
X109581616Y-52875500D01*
X109652196Y-52869086D01*
X109814606Y-52818478D01*
X109960185Y-52730472D01*
X110080472Y-52610185D01*
X110080474Y-52610180D01*
X110085094Y-52604285D01*
X110086117Y-52605087D01*
X110131904Y-52563160D01*
X110186489Y-52550500D01*
X112450621Y-52550500D01*
X112517660Y-52570185D01*
X112523506Y-52574182D01*
X112584971Y-52618839D01*
X112584972Y-52618839D01*
X112584976Y-52618842D01*
X112679819Y-52661069D01*
X112743495Y-52689420D01*
X112743501Y-52689422D01*
X112913236Y-52725500D01*
X112913237Y-52725500D01*
X113086762Y-52725500D01*
X113086764Y-52725500D01*
X113256499Y-52689422D01*
X113256501Y-52689420D01*
X113256504Y-52689420D01*
X113316807Y-52662571D01*
X113415024Y-52618842D01*
X113555410Y-52516845D01*
X113671522Y-52387889D01*
X113758286Y-52237611D01*
X113811908Y-52072576D01*
X113830047Y-51900000D01*
X113811908Y-51727424D01*
X113771284Y-51602393D01*
X113758287Y-51562391D01*
X113754647Y-51556087D01*
X113671522Y-51412111D01*
X113664964Y-51404827D01*
X113555411Y-51283156D01*
X113531477Y-51265767D01*
X113461822Y-51215159D01*
X113415023Y-51181157D01*
X113256504Y-51110579D01*
X113256498Y-51110577D01*
X113114945Y-51080490D01*
X113086764Y-51074500D01*
X112913236Y-51074500D01*
X112885055Y-51080490D01*
X112743498Y-51110578D01*
X112741360Y-51111273D01*
X112740055Y-51111310D01*
X112737144Y-51111929D01*
X112737030Y-51111396D01*
X112671518Y-51113263D01*
X112611688Y-51077177D01*
X112580865Y-51014474D01*
X112585119Y-50955023D01*
X112611908Y-50872576D01*
X112630047Y-50700000D01*
X112611908Y-50527424D01*
X112569729Y-50397607D01*
X112558287Y-50362391D01*
X112558286Y-50362389D01*
X112471522Y-50212111D01*
X112413535Y-50147709D01*
X112355411Y-50083156D01*
X112215023Y-49981157D01*
X112056504Y-49910579D01*
X112056498Y-49910577D01*
X111918083Y-49881157D01*
X111886764Y-49874500D01*
X111713236Y-49874500D01*
X111683483Y-49880824D01*
X111543501Y-49910577D01*
X111543496Y-49910579D01*
X111384977Y-49981157D01*
X111384972Y-49981160D01*
X111244591Y-50083153D01*
X111244589Y-50083155D01*
X111128477Y-50212112D01*
X111041712Y-50362391D01*
X110993067Y-50512111D01*
X110988092Y-50527424D01*
X110969953Y-50700000D01*
X110988092Y-50872576D01*
X110988093Y-50872579D01*
X111041712Y-51037607D01*
X111041713Y-51037609D01*
X111041714Y-51037611D01*
X111048578Y-51049500D01*
X111056662Y-51063501D01*
X111073134Y-51131401D01*
X111050281Y-51197428D01*
X110995359Y-51240618D01*
X110949274Y-51249500D01*
X110186489Y-51249500D01*
X110119450Y-51229815D01*
X110085762Y-51195191D01*
X110085094Y-51195715D01*
X110080468Y-51189810D01*
X109960189Y-51069531D01*
X109960185Y-51069528D01*
X109927995Y-51050068D01*
X109880808Y-50998540D01*
X109868970Y-50929680D01*
X109896240Y-50865352D01*
X109927051Y-50838412D01*
X109952733Y-50822571D01*
X110072572Y-50702732D01*
X110072575Y-50702728D01*
X110161542Y-50558492D01*
X110161547Y-50558481D01*
X110214855Y-50397606D01*
X110224999Y-50298322D01*
X110225000Y-50298309D01*
X110225000Y-50250000D01*
X109149000Y-50250000D01*
X109081961Y-50230315D01*
X109036206Y-50177511D01*
X109025000Y-50126000D01*
X109025000Y-49750000D01*
X109525000Y-49750000D01*
X110224999Y-49750000D01*
X110224999Y-49701692D01*
X110224998Y-49701677D01*
X116275000Y-49701677D01*
X116275000Y-49750000D01*
X116975000Y-49750000D01*
X116975000Y-49024999D01*
X116951693Y-49025000D01*
X116951674Y-49025001D01*
X116852392Y-49035144D01*
X116691518Y-49088452D01*
X116691507Y-49088457D01*
X116547271Y-49177424D01*
X116547267Y-49177427D01*
X116427427Y-49297267D01*
X116427424Y-49297271D01*
X116338457Y-49441507D01*
X116338452Y-49441518D01*
X116285144Y-49602393D01*
X116275000Y-49701677D01*
X110224998Y-49701677D01*
X110214855Y-49602392D01*
X110161547Y-49441518D01*
X110161542Y-49441507D01*
X110072575Y-49297271D01*
X110072572Y-49297267D01*
X109952732Y-49177427D01*
X109952728Y-49177424D01*
X109808492Y-49088457D01*
X109808481Y-49088452D01*
X109647606Y-49035144D01*
X109548322Y-49025000D01*
X109525000Y-49025000D01*
X109525000Y-49750000D01*
X109025000Y-49750000D01*
X109025000Y-49024999D01*
X109001693Y-49025000D01*
X109001674Y-49025001D01*
X108902392Y-49035144D01*
X108741518Y-49088452D01*
X108741507Y-49088457D01*
X108597271Y-49177424D01*
X108597265Y-49177428D01*
X108588031Y-49186663D01*
X108526707Y-49220146D01*
X108457015Y-49215159D01*
X108412672Y-49186660D01*
X108403044Y-49177032D01*
X108403040Y-49177029D01*
X108258705Y-49088001D01*
X108258699Y-49087998D01*
X108258697Y-49087997D01*
X108255142Y-49086819D01*
X108097709Y-49034651D01*
X107998346Y-49024500D01*
X107451662Y-49024500D01*
X107451644Y-49024501D01*
X107352292Y-49034650D01*
X107352289Y-49034651D01*
X107191305Y-49087996D01*
X107191294Y-49088001D01*
X107046959Y-49177029D01*
X107046955Y-49177032D01*
X106927032Y-49296955D01*
X106927029Y-49296959D01*
X106838001Y-49441294D01*
X106837996Y-49441305D01*
X106784651Y-49602290D01*
X106774500Y-49701647D01*
X105969094Y-49701647D01*
X106071522Y-49587889D01*
X106158286Y-49437611D01*
X106211908Y-49272576D01*
X106230047Y-49100000D01*
X106211908Y-48927424D01*
X106176160Y-48817400D01*
X106158287Y-48762391D01*
X106100037Y-48661500D01*
X106071522Y-48612111D01*
X105955410Y-48483155D01*
X105943935Y-48474818D01*
X105901269Y-48419489D01*
X105895290Y-48349876D01*
X105927895Y-48288081D01*
X105988733Y-48253723D01*
X106016820Y-48250500D01*
X108929723Y-48250500D01*
X108980158Y-48261220D01*
X109000294Y-48270185D01*
X109043501Y-48289422D01*
X109213236Y-48325500D01*
X109213237Y-48325500D01*
X109386762Y-48325500D01*
X109386764Y-48325500D01*
X109556499Y-48289422D01*
X109556501Y-48289420D01*
X109556504Y-48289420D01*
X109643919Y-48250500D01*
X109715024Y-48218842D01*
X109855410Y-48116845D01*
X109971522Y-47987889D01*
X110058286Y-47837611D01*
X110111908Y-47672576D01*
X110130047Y-47500000D01*
X110111908Y-47327424D01*
X110058286Y-47162389D01*
X109971522Y-47012111D01*
X109967344Y-47007471D01*
X109937115Y-46944480D01*
X109945740Y-46875145D01*
X109990482Y-46821480D01*
X110057134Y-46800522D01*
X110059495Y-46800500D01*
X113210438Y-46800500D01*
X116907398Y-46800500D01*
X116974437Y-46820185D01*
X117020192Y-46872989D01*
X117030136Y-46942147D01*
X117025329Y-46962817D01*
X117009313Y-47012112D01*
X116988092Y-47077424D01*
X116969953Y-47250000D01*
X116988092Y-47422576D01*
X116988093Y-47422579D01*
X117041712Y-47587608D01*
X117128477Y-47737887D01*
X117128476Y-47737887D01*
X117128478Y-47737889D01*
X117244590Y-47866845D01*
X117283579Y-47895172D01*
X117384976Y-47968842D01*
X117543495Y-48039420D01*
X117543501Y-48039422D01*
X117713236Y-48075500D01*
X117713237Y-48075500D01*
X117886762Y-48075500D01*
X117886764Y-48075500D01*
X118056499Y-48039422D01*
X118119842Y-48011220D01*
X118170277Y-48000500D01*
X120858480Y-48000500D01*
X120925519Y-48020185D01*
X120946161Y-48036819D01*
X121039811Y-48130469D01*
X121039813Y-48130470D01*
X121039815Y-48130472D01*
X121185394Y-48218478D01*
X121347804Y-48269086D01*
X121418384Y-48275500D01*
X121418387Y-48275500D01*
X121931613Y-48275500D01*
X121931616Y-48275500D01*
X122002196Y-48269086D01*
X122164606Y-48218478D01*
X122164613Y-48218473D01*
X122171445Y-48215400D01*
X122173147Y-48219182D01*
X122220271Y-48204481D01*
X122287632Y-48223036D01*
X122334268Y-48275064D01*
X122345372Y-48344045D01*
X122340287Y-48366780D01*
X122323490Y-48418477D01*
X122288092Y-48527424D01*
X122269953Y-48700000D01*
X122288092Y-48872576D01*
X122288093Y-48872579D01*
X122341712Y-49037608D01*
X122370804Y-49087996D01*
X122427768Y-49186660D01*
X122428477Y-49187887D01*
X122428476Y-49187887D01*
X122526966Y-49297271D01*
X122544590Y-49316845D01*
X122638488Y-49385066D01*
X122684976Y-49418842D01*
X122843495Y-49489420D01*
X122843501Y-49489422D01*
X123013236Y-49525500D01*
X123013237Y-49525500D01*
X123186762Y-49525500D01*
X123186764Y-49525500D01*
X123356499Y-49489422D01*
X123356501Y-49489420D01*
X123356504Y-49489420D01*
X123409899Y-49465646D01*
X123441274Y-49451677D01*
X125775000Y-49451677D01*
X125775000Y-49500000D01*
X126475000Y-49500000D01*
X126475000Y-48774999D01*
X126451693Y-48775000D01*
X126451674Y-48775001D01*
X126352392Y-48785144D01*
X126191518Y-48838452D01*
X126191507Y-48838457D01*
X126047271Y-48927424D01*
X126047267Y-48927427D01*
X125927427Y-49047267D01*
X125927424Y-49047271D01*
X125838457Y-49191507D01*
X125838452Y-49191518D01*
X125785144Y-49352393D01*
X125775000Y-49451677D01*
X123441274Y-49451677D01*
X123515024Y-49418842D01*
X123655410Y-49316845D01*
X123771522Y-49187889D01*
X123858286Y-49037611D01*
X123911908Y-48872576D01*
X123930047Y-48700000D01*
X123911908Y-48527424D01*
X123858286Y-48362389D01*
X123858282Y-48362382D01*
X123846159Y-48341384D01*
X123829685Y-48273484D01*
X123852537Y-48207457D01*
X123889395Y-48173266D01*
X123960185Y-48130472D01*
X123995485Y-48095172D01*
X124053839Y-48036819D01*
X124115162Y-48003334D01*
X124141520Y-48000500D01*
X126829723Y-48000500D01*
X126880158Y-48011220D01*
X126943501Y-48039422D01*
X127113236Y-48075500D01*
X127113237Y-48075500D01*
X127286762Y-48075500D01*
X127286764Y-48075500D01*
X127456499Y-48039422D01*
X127456501Y-48039420D01*
X127456504Y-48039420D01*
X127543919Y-48000500D01*
X127615024Y-47968842D01*
X127755410Y-47866845D01*
X127871522Y-47737889D01*
X127958286Y-47587611D01*
X128011908Y-47422576D01*
X128030047Y-47250000D01*
X128011908Y-47077424D01*
X127974671Y-46962817D01*
X127972676Y-46892976D01*
X128008757Y-46833143D01*
X128071458Y-46802316D01*
X128092602Y-46800500D01*
X131074167Y-46800500D01*
X131141206Y-46820185D01*
X131161848Y-46836819D01*
X133315489Y-48990460D01*
X133374448Y-49024500D01*
X133384008Y-49030020D01*
X133384012Y-49030022D01*
X133460438Y-49050500D01*
X134649274Y-49050500D01*
X134716313Y-49070185D01*
X134762068Y-49122989D01*
X134772012Y-49192147D01*
X134756662Y-49236499D01*
X134741712Y-49262392D01*
X134694769Y-49406873D01*
X134688092Y-49427424D01*
X134669953Y-49600000D01*
X134688092Y-49772576D01*
X134688093Y-49772579D01*
X134741712Y-49937608D01*
X134766856Y-49981158D01*
X134825745Y-50083156D01*
X134828477Y-50087887D01*
X134828476Y-50087887D01*
X134940328Y-50212111D01*
X134944590Y-50216845D01*
X135063638Y-50303339D01*
X135084976Y-50318842D01*
X135243495Y-50389420D01*
X135243501Y-50389422D01*
X135413236Y-50425500D01*
X135413237Y-50425500D01*
X135586762Y-50425500D01*
X135586764Y-50425500D01*
X135756499Y-50389422D01*
X135756501Y-50389420D01*
X135756504Y-50389420D01*
X135803268Y-50368599D01*
X135915024Y-50318842D01*
X135928987Y-50308697D01*
X135976494Y-50274182D01*
X136042300Y-50250702D01*
X136049379Y-50250500D01*
X140083480Y-50250500D01*
X140150519Y-50270185D01*
X140171161Y-50286819D01*
X140289811Y-50405469D01*
X140289813Y-50405470D01*
X140289815Y-50405472D01*
X140435394Y-50493478D01*
X140597804Y-50544086D01*
X140668384Y-50550500D01*
X140668387Y-50550500D01*
X141181613Y-50550500D01*
X141181616Y-50550500D01*
X141252196Y-50544086D01*
X141414606Y-50493478D01*
X141560185Y-50405472D01*
X141603268Y-50362389D01*
X141662319Y-50303339D01*
X141723642Y-50269854D01*
X141793334Y-50274838D01*
X141837681Y-50303339D01*
X141939810Y-50405468D01*
X141939814Y-50405471D01*
X141939815Y-50405472D01*
X141963002Y-50419489D01*
X142039849Y-50465946D01*
X142087036Y-50517474D01*
X142098874Y-50586334D01*
X142093631Y-50610374D01*
X142088093Y-50627418D01*
X142088092Y-50627423D01*
X142087021Y-50637611D01*
X142069953Y-50800000D01*
X142088092Y-50972576D01*
X142088093Y-50972579D01*
X142141712Y-51137608D01*
X142188613Y-51218842D01*
X142225745Y-51283156D01*
X142228477Y-51287887D01*
X142228476Y-51287887D01*
X142340328Y-51412111D01*
X142344590Y-51416845D01*
X142484976Y-51518842D01*
X142643495Y-51589420D01*
X142643501Y-51589422D01*
X142813236Y-51625500D01*
X142813237Y-51625500D01*
X142986762Y-51625500D01*
X142986764Y-51625500D01*
X143156499Y-51589422D01*
X143156501Y-51589420D01*
X143156504Y-51589420D01*
X143209899Y-51565646D01*
X143315024Y-51518842D01*
X143455410Y-51416845D01*
X143571522Y-51287889D01*
X143658286Y-51137611D01*
X143711908Y-50972576D01*
X143730047Y-50800000D01*
X143711908Y-50627424D01*
X143658286Y-50462389D01*
X143643337Y-50436498D01*
X143626866Y-50368599D01*
X143649719Y-50302572D01*
X143704641Y-50259382D01*
X143750726Y-50250500D01*
X146129723Y-50250500D01*
X146180158Y-50261220D01*
X146200294Y-50270185D01*
X146243501Y-50289422D01*
X146413236Y-50325500D01*
X146413237Y-50325500D01*
X146586762Y-50325500D01*
X146586764Y-50325500D01*
X146756499Y-50289422D01*
X146756501Y-50289420D01*
X146756504Y-50289420D01*
X146809899Y-50265646D01*
X146915024Y-50218842D01*
X147055410Y-50116845D01*
X147171522Y-49987889D01*
X147258286Y-49837611D01*
X147311908Y-49672576D01*
X147330047Y-49500000D01*
X147311908Y-49327424D01*
X147274671Y-49212817D01*
X147272676Y-49142976D01*
X147308757Y-49083143D01*
X147371458Y-49052316D01*
X147392602Y-49050500D01*
X147824167Y-49050500D01*
X147891206Y-49070185D01*
X147911848Y-49086819D01*
X153514941Y-54689912D01*
X153548426Y-54751235D01*
X153543442Y-54820927D01*
X153501570Y-54876860D01*
X153436106Y-54901277D01*
X153401480Y-54898883D01*
X153286764Y-54874500D01*
X153113236Y-54874500D01*
X153083483Y-54880824D01*
X152943501Y-54910577D01*
X152943496Y-54910579D01*
X152784977Y-54981157D01*
X152784972Y-54981160D01*
X152644591Y-55083153D01*
X152644589Y-55083155D01*
X152528477Y-55212112D01*
X152441712Y-55362391D01*
X152388093Y-55527420D01*
X152388092Y-55527424D01*
X152369953Y-55700000D01*
X152388092Y-55872576D01*
X152388093Y-55872579D01*
X152441712Y-56037608D01*
X152484461Y-56111650D01*
X152518297Y-56170256D01*
X152528477Y-56187887D01*
X152528476Y-56187887D01*
X152528478Y-56187889D01*
X152644590Y-56316845D01*
X152784976Y-56418842D01*
X152911455Y-56475155D01*
X152952537Y-56510073D01*
X153011136Y-56503853D01*
X153014688Y-56504553D01*
X153113236Y-56525500D01*
X153113237Y-56525500D01*
X153286762Y-56525500D01*
X153286764Y-56525500D01*
X153367187Y-56508405D01*
X153436850Y-56513720D01*
X153480646Y-56542014D01*
X154903951Y-57965319D01*
X156258261Y-59319628D01*
X156291746Y-59380951D01*
X156286762Y-59450643D01*
X156244890Y-59506576D01*
X156221016Y-59520588D01*
X156084977Y-59581157D01*
X156084972Y-59581160D01*
X155944591Y-59683153D01*
X155944589Y-59683155D01*
X155828477Y-59812112D01*
X155741712Y-59962391D01*
X155690880Y-60118842D01*
X155688092Y-60127424D01*
X155669953Y-60300000D01*
X155688092Y-60472576D01*
X155688093Y-60472579D01*
X155741712Y-60637608D01*
X155828477Y-60787887D01*
X155828476Y-60787887D01*
X155909183Y-60877521D01*
X155944590Y-60916845D01*
X156058412Y-60999542D01*
X156084976Y-61018842D01*
X156243495Y-61089420D01*
X156243501Y-61089422D01*
X156413236Y-61125500D01*
X156413237Y-61125500D01*
X156586762Y-61125500D01*
X156586764Y-61125500D01*
X156756499Y-61089422D01*
X156756501Y-61089420D01*
X156756504Y-61089420D01*
X156873681Y-61037249D01*
X156915024Y-61018842D01*
X157055410Y-60916845D01*
X157171522Y-60787889D01*
X157258286Y-60637611D01*
X157289171Y-60542555D01*
X157290425Y-60538696D01*
X157329862Y-60481020D01*
X157394220Y-60453821D01*
X157408356Y-60453013D01*
X157422987Y-60453013D01*
X157490026Y-60472698D01*
X157535781Y-60525502D01*
X157546987Y-60577013D01*
X157546987Y-60721451D01*
X157587696Y-60886620D01*
X157619897Y-60947972D01*
X157666753Y-61037248D01*
X157712125Y-61091691D01*
X158075035Y-61454601D01*
X158129478Y-61499973D01*
X158280105Y-61579029D01*
X158445274Y-61619739D01*
X158615387Y-61619739D01*
X158627120Y-61616846D01*
X158662192Y-61608202D01*
X158731993Y-61611269D01*
X158779549Y-61640917D01*
X159804044Y-62665411D01*
X159834294Y-62714775D01*
X159841712Y-62737608D01*
X159841714Y-62737611D01*
X159918256Y-62870185D01*
X159928477Y-62887887D01*
X159928476Y-62887887D01*
X159928478Y-62887889D01*
X160044590Y-63016845D01*
X160073168Y-63037608D01*
X160184976Y-63118842D01*
X160343495Y-63189420D01*
X160343501Y-63189422D01*
X160513236Y-63225500D01*
X160513237Y-63225500D01*
X160686762Y-63225500D01*
X160686764Y-63225500D01*
X160856499Y-63189422D01*
X160856501Y-63189420D01*
X160856504Y-63189420D01*
X160909899Y-63165646D01*
X161015024Y-63118842D01*
X161155410Y-63016845D01*
X161271522Y-62887889D01*
X161352286Y-62748002D01*
X161402850Y-62699789D01*
X161471457Y-62686565D01*
X161536322Y-62712533D01*
X161547352Y-62722323D01*
X163188659Y-64363630D01*
X163222144Y-64424953D01*
X163217160Y-64494645D01*
X163175288Y-64550578D01*
X163109824Y-64574995D01*
X163088015Y-64574632D01*
X163086768Y-64574501D01*
X163086764Y-64574500D01*
X162913236Y-64574500D01*
X162883483Y-64580824D01*
X162743501Y-64610577D01*
X162743496Y-64610579D01*
X162584977Y-64681157D01*
X162584972Y-64681160D01*
X162444591Y-64783153D01*
X162444589Y-64783155D01*
X162328477Y-64912112D01*
X162241712Y-65062391D01*
X162188093Y-65227420D01*
X162188092Y-65227424D01*
X162169953Y-65400000D01*
X162188092Y-65572576D01*
X162188093Y-65572579D01*
X162241712Y-65737608D01*
X162328477Y-65887887D01*
X162328476Y-65887887D01*
X162367690Y-65931438D01*
X162444590Y-66016845D01*
X162504896Y-66060660D01*
X162584976Y-66118842D01*
X162743495Y-66189420D01*
X162743501Y-66189422D01*
X162913236Y-66225500D01*
X162913237Y-66225500D01*
X163086762Y-66225500D01*
X163086764Y-66225500D01*
X163256499Y-66189422D01*
X163256501Y-66189420D01*
X163256504Y-66189420D01*
X163361047Y-66142874D01*
X163415024Y-66118842D01*
X163555410Y-66016845D01*
X163671522Y-65887889D01*
X163758286Y-65737611D01*
X163811908Y-65572576D01*
X163830047Y-65400000D01*
X163820258Y-65306871D01*
X163832827Y-65238145D01*
X163880559Y-65187120D01*
X163948299Y-65170002D01*
X164014540Y-65192224D01*
X164031260Y-65206231D01*
X164503858Y-65678829D01*
X164503859Y-65678831D01*
X164503860Y-65678831D01*
X164533210Y-65708182D01*
X164541380Y-65717197D01*
X164624302Y-65818237D01*
X164637805Y-65838445D01*
X164696541Y-65948333D01*
X164705839Y-65970779D01*
X164733105Y-66060660D01*
X164742008Y-66090011D01*
X164746750Y-66113852D01*
X164758962Y-66237846D01*
X164758962Y-66262154D01*
X164746750Y-66386147D01*
X164742008Y-66409988D01*
X164705842Y-66529213D01*
X164696539Y-66551672D01*
X164637807Y-66661551D01*
X164624302Y-66681762D01*
X164541380Y-66782802D01*
X164533212Y-66791815D01*
X164509542Y-66815487D01*
X164509538Y-66815490D01*
X162411848Y-68913181D01*
X162350525Y-68946666D01*
X162324167Y-68949500D01*
X158175833Y-68949500D01*
X158108794Y-68929815D01*
X158088152Y-68913181D01*
X155632301Y-66457330D01*
X155608757Y-66414212D01*
X159535354Y-66414212D01*
X159551843Y-66430699D01*
X159551854Y-66430709D01*
X159629221Y-66493734D01*
X159629229Y-66493739D01*
X159780673Y-66569797D01*
X159945592Y-66608884D01*
X160115069Y-66608884D01*
X160279987Y-66569797D01*
X160431431Y-66493739D01*
X160431438Y-66493734D01*
X160508815Y-66430702D01*
X160508829Y-66430690D01*
X160542982Y-66396536D01*
X160542982Y-66396534D01*
X160048009Y-65901561D01*
X160048008Y-65901561D01*
X159535354Y-66414212D01*
X155608757Y-66414212D01*
X155598816Y-66396007D01*
X155603800Y-66326315D01*
X155645672Y-66270382D01*
X155662351Y-66259856D01*
X155681182Y-66249973D01*
X155735625Y-66204601D01*
X156204601Y-65735625D01*
X156249973Y-65681182D01*
X156329029Y-65530555D01*
X156363767Y-65389614D01*
X156396480Y-65331612D01*
X156409041Y-65319051D01*
X156451102Y-65293280D01*
X156450561Y-65292065D01*
X156456495Y-65289422D01*
X156456499Y-65289422D01*
X156615024Y-65218842D01*
X156615027Y-65218839D01*
X156620960Y-65216198D01*
X156621434Y-65217264D01*
X156676568Y-65202492D01*
X158271565Y-65202492D01*
X158338604Y-65222177D01*
X158359242Y-65238806D01*
X158455493Y-65335057D01*
X158500899Y-65372046D01*
X158532929Y-65398139D01*
X158532937Y-65398144D01*
X158627412Y-65445591D01*
X158684489Y-65474256D01*
X158849515Y-65513368D01*
X158849517Y-65513368D01*
X158863132Y-65513368D01*
X158930171Y-65533053D01*
X158975926Y-65585857D01*
X158987132Y-65637368D01*
X158987132Y-65650424D01*
X159026218Y-65815342D01*
X159102276Y-65966786D01*
X159102281Y-65966793D01*
X159165308Y-66044165D01*
X159165322Y-66044180D01*
X159181802Y-66060660D01*
X159694456Y-65548007D01*
X160401561Y-65548007D01*
X160401561Y-65548008D01*
X160896534Y-66042982D01*
X160896535Y-66042982D01*
X160930692Y-66008825D01*
X160930707Y-66008808D01*
X160993734Y-65931439D01*
X160993739Y-65931431D01*
X161069797Y-65779987D01*
X161108884Y-65615069D01*
X161108884Y-65445591D01*
X161069797Y-65280673D01*
X160993739Y-65129229D01*
X160993734Y-65129222D01*
X160930707Y-65051850D01*
X160930693Y-65051835D01*
X160914213Y-65035355D01*
X160914212Y-65035355D01*
X160401561Y-65548007D01*
X159694456Y-65548007D01*
X160048008Y-65194455D01*
X160560660Y-64681802D01*
X160544172Y-64665316D01*
X160544161Y-64665306D01*
X160466794Y-64602281D01*
X160466786Y-64602276D01*
X160315342Y-64526218D01*
X160150424Y-64487132D01*
X160137368Y-64487132D01*
X160070329Y-64467447D01*
X160024574Y-64414643D01*
X160013368Y-64363132D01*
X160013368Y-64349516D01*
X160001626Y-64299973D01*
X159974256Y-64184489D01*
X159898141Y-64032932D01*
X159835059Y-63955493D01*
X159448491Y-63568927D01*
X159409771Y-63537385D01*
X159371054Y-63505844D01*
X159371046Y-63505839D01*
X159219498Y-63429729D01*
X159219496Y-63429728D01*
X159219495Y-63429728D01*
X159054469Y-63390616D01*
X158884871Y-63390616D01*
X158765777Y-63418842D01*
X158719841Y-63429729D01*
X158568291Y-63505840D01*
X158568290Y-63505841D01*
X158568288Y-63505842D01*
X158568287Y-63505843D01*
X158568286Y-63505844D01*
X158490848Y-63568925D01*
X158490842Y-63568931D01*
X158394601Y-63665173D01*
X158333278Y-63698658D01*
X158306920Y-63701492D01*
X156463556Y-63701492D01*
X156396517Y-63681807D01*
X156350762Y-63629003D01*
X156340818Y-63559845D01*
X156369843Y-63496289D01*
X156413120Y-63464213D01*
X156490571Y-63429729D01*
X156515024Y-63418842D01*
X156655410Y-63316845D01*
X156771522Y-63187889D01*
X156858286Y-63037611D01*
X156911908Y-62872576D01*
X156930047Y-62700000D01*
X156911908Y-62527424D01*
X156858286Y-62362389D01*
X156771522Y-62212111D01*
X156728189Y-62163984D01*
X156655411Y-62083156D01*
X156515023Y-61981157D01*
X156356504Y-61910579D01*
X156356498Y-61910577D01*
X156222841Y-61882168D01*
X156186764Y-61874500D01*
X156013236Y-61874500D01*
X155983483Y-61880824D01*
X155843501Y-61910577D01*
X155843496Y-61910579D01*
X155684977Y-61981157D01*
X155684972Y-61981160D01*
X155544591Y-62083153D01*
X155544589Y-62083155D01*
X155428477Y-62212112D01*
X155341712Y-62362391D01*
X155291028Y-62518388D01*
X155288092Y-62527424D01*
X155269953Y-62700000D01*
X155288092Y-62872576D01*
X155288093Y-62872579D01*
X155341712Y-63037608D01*
X155428477Y-63187887D01*
X155428476Y-63187887D01*
X155524705Y-63294760D01*
X155544590Y-63316845D01*
X155670296Y-63408176D01*
X155684976Y-63418842D01*
X155843495Y-63489420D01*
X155843497Y-63489420D01*
X155843501Y-63489422D01*
X155874108Y-63495927D01*
X155935588Y-63529118D01*
X155969365Y-63590281D01*
X155964713Y-63659995D01*
X155923109Y-63716128D01*
X155898763Y-63730496D01*
X155784974Y-63781159D01*
X155784972Y-63781160D01*
X155644591Y-63883153D01*
X155644589Y-63883155D01*
X155528478Y-64012110D01*
X155448163Y-64151219D01*
X155428460Y-64176896D01*
X155414697Y-64190660D01*
X155353375Y-64224147D01*
X155283684Y-64219165D01*
X155227749Y-64177296D01*
X155203329Y-64111833D01*
X155203013Y-64102982D01*
X155203013Y-64028548D01*
X155162303Y-63863379D01*
X155121491Y-63785620D01*
X155083247Y-63712752D01*
X155037875Y-63658309D01*
X154674965Y-63295399D01*
X154620522Y-63250027D01*
X154506186Y-63190018D01*
X154469894Y-63170970D01*
X154304726Y-63130261D01*
X154134614Y-63130261D01*
X153969445Y-63170970D01*
X153937214Y-63187887D01*
X153934290Y-63189422D01*
X153933154Y-63190018D01*
X153864645Y-63203742D01*
X153799592Y-63178250D01*
X153787848Y-63167902D01*
X151650537Y-61030591D01*
X151617052Y-60969268D01*
X151614899Y-60955887D01*
X151611908Y-60927424D01*
X151558286Y-60762389D01*
X151471522Y-60612111D01*
X151355410Y-60483155D01*
X151267006Y-60418925D01*
X151215023Y-60381157D01*
X151056504Y-60310579D01*
X151056498Y-60310577D01*
X150922841Y-60282168D01*
X150886764Y-60274500D01*
X150713236Y-60274500D01*
X150683483Y-60280824D01*
X150543501Y-60310577D01*
X150543496Y-60310579D01*
X150384977Y-60381157D01*
X150384972Y-60381160D01*
X150244591Y-60483153D01*
X150244589Y-60483155D01*
X150128476Y-60612112D01*
X150128474Y-60612115D01*
X150084316Y-60688598D01*
X150033749Y-60736813D01*
X149965141Y-60750035D01*
X149900277Y-60724067D01*
X149889249Y-60714278D01*
X148218026Y-59043055D01*
X148184541Y-58981732D01*
X148189525Y-58912040D01*
X148231397Y-58856107D01*
X148281515Y-58833757D01*
X148307150Y-58828657D01*
X148323018Y-58825501D01*
X148441401Y-58776465D01*
X148451098Y-58769986D01*
X148547943Y-58705277D01*
X148763888Y-58489332D01*
X148825211Y-58455847D01*
X148851569Y-58453013D01*
X148922987Y-58453013D01*
X148990026Y-58472698D01*
X149035781Y-58525502D01*
X149046987Y-58577013D01*
X149046987Y-58721451D01*
X149087696Y-58886620D01*
X149101038Y-58912040D01*
X149166753Y-59037248D01*
X149212125Y-59091691D01*
X149575035Y-59454601D01*
X149629478Y-59499973D01*
X149780105Y-59579029D01*
X149945274Y-59619739D01*
X150007009Y-59619739D01*
X150074048Y-59639424D01*
X150094690Y-59656058D01*
X150121584Y-59682952D01*
X150121885Y-59683153D01*
X150188869Y-59727910D01*
X150188870Y-59727910D01*
X150244508Y-59765086D01*
X150381082Y-59821656D01*
X150381087Y-59821658D01*
X150381091Y-59821658D01*
X150381092Y-59821659D01*
X150526079Y-59850500D01*
X150526082Y-59850500D01*
X151402904Y-59850500D01*
X151500446Y-59831096D01*
X151547897Y-59821658D01*
X151616188Y-59793371D01*
X151684475Y-59765086D01*
X151684476Y-59765085D01*
X151684479Y-59765084D01*
X151740114Y-59727910D01*
X151760615Y-59714212D01*
X153235354Y-59714212D01*
X153251843Y-59730699D01*
X153251854Y-59730709D01*
X153329221Y-59793734D01*
X153329229Y-59793739D01*
X153480673Y-59869797D01*
X153645592Y-59908884D01*
X153815069Y-59908884D01*
X153979987Y-59869797D01*
X154131431Y-59793739D01*
X154131438Y-59793734D01*
X154208815Y-59730702D01*
X154208829Y-59730690D01*
X154242982Y-59696536D01*
X154242982Y-59696535D01*
X153748007Y-59201561D01*
X153235354Y-59714212D01*
X151760615Y-59714212D01*
X151807400Y-59682952D01*
X152282587Y-59207763D01*
X152319827Y-59182170D01*
X152429516Y-59133334D01*
X152536220Y-59055808D01*
X152602024Y-59032329D01*
X152670078Y-59048154D01*
X152718773Y-59098259D01*
X152725624Y-59113712D01*
X152726215Y-59115338D01*
X152802276Y-59266786D01*
X152802281Y-59266793D01*
X152865308Y-59344165D01*
X152865322Y-59344180D01*
X152881802Y-59360660D01*
X153660326Y-58582136D01*
X153721649Y-58548651D01*
X153791341Y-58553635D01*
X153835688Y-58582136D01*
X154596534Y-59342982D01*
X154596535Y-59342982D01*
X154630692Y-59308825D01*
X154630707Y-59308808D01*
X154693734Y-59231439D01*
X154693739Y-59231431D01*
X154769797Y-59079987D01*
X154808884Y-58915069D01*
X154808884Y-58745591D01*
X154769797Y-58580673D01*
X154693739Y-58429229D01*
X154693734Y-58429222D01*
X154630707Y-58351850D01*
X154630693Y-58351835D01*
X154244176Y-57965319D01*
X154244160Y-57965305D01*
X154166793Y-57902281D01*
X154166786Y-57902276D01*
X154015342Y-57826218D01*
X153850424Y-57787132D01*
X153837368Y-57787132D01*
X153770329Y-57767447D01*
X153724574Y-57714643D01*
X153713368Y-57663132D01*
X153713368Y-57649516D01*
X153713293Y-57649198D01*
X153674256Y-57484489D01*
X153598141Y-57332932D01*
X153535059Y-57255493D01*
X153148491Y-56868927D01*
X153078748Y-56812112D01*
X153071054Y-56805844D01*
X153071049Y-56805841D01*
X152933305Y-56736663D01*
X152897468Y-56703209D01*
X152844540Y-56711334D01*
X152832436Y-56709094D01*
X152754469Y-56690616D01*
X152584871Y-56690616D01*
X152419845Y-56729728D01*
X152419841Y-56729729D01*
X152268291Y-56805840D01*
X152268290Y-56805841D01*
X152268288Y-56805842D01*
X152268287Y-56805843D01*
X152240977Y-56828089D01*
X152190848Y-56868925D01*
X152190842Y-56868931D01*
X151768934Y-57290841D01*
X151768923Y-57290853D01*
X151705845Y-57368284D01*
X151705839Y-57368292D01*
X151629727Y-57519844D01*
X151596284Y-57660950D01*
X151561670Y-57721643D01*
X151548513Y-57732671D01*
X151459080Y-57797648D01*
X151342968Y-57926604D01*
X151256205Y-58076881D01*
X151248784Y-58099720D01*
X151218535Y-58149079D01*
X151201109Y-58166505D01*
X151139786Y-58199990D01*
X151070094Y-58195006D01*
X151014161Y-58153134D01*
X151003632Y-58136450D01*
X151003237Y-58135697D01*
X150999973Y-58129478D01*
X150954601Y-58075035D01*
X150591691Y-57712125D01*
X150537248Y-57666753D01*
X150454868Y-57623516D01*
X150386620Y-57587696D01*
X150221452Y-57546987D01*
X150077013Y-57546987D01*
X150009974Y-57527302D01*
X149964219Y-57474498D01*
X149953013Y-57422987D01*
X149953013Y-57278548D01*
X149912303Y-57113379D01*
X149896321Y-57082928D01*
X149833247Y-56962752D01*
X149787875Y-56908309D01*
X149424965Y-56545399D01*
X149370522Y-56500027D01*
X149295208Y-56460499D01*
X149219894Y-56420970D01*
X149054726Y-56380261D01*
X148884614Y-56380261D01*
X148719445Y-56420970D01*
X148568816Y-56500028D01*
X148514379Y-56545395D01*
X148514364Y-56545409D01*
X148045409Y-57014364D01*
X148045395Y-57014379D01*
X148000028Y-57068816D01*
X148000027Y-57068818D01*
X147976640Y-57113379D01*
X147971207Y-57123730D01*
X147922622Y-57173942D01*
X147854603Y-57189916D01*
X147788745Y-57166580D01*
X147773730Y-57153784D01*
X145445127Y-54825180D01*
X145411642Y-54763857D01*
X145416626Y-54694165D01*
X145445124Y-54649820D01*
X145583128Y-54511816D01*
X145644450Y-54478334D01*
X145670808Y-54475500D01*
X145931613Y-54475500D01*
X145931616Y-54475500D01*
X146002196Y-54469086D01*
X146164606Y-54418478D01*
X146310185Y-54330472D01*
X146350846Y-54289811D01*
X146412319Y-54228339D01*
X146473642Y-54194854D01*
X146543334Y-54199838D01*
X146587681Y-54228339D01*
X146689811Y-54330469D01*
X146689813Y-54330470D01*
X146689815Y-54330472D01*
X146835394Y-54418478D01*
X146997804Y-54469086D01*
X147068384Y-54475500D01*
X147068387Y-54475500D01*
X147581613Y-54475500D01*
X147581616Y-54475500D01*
X147652196Y-54469086D01*
X147814606Y-54418478D01*
X147960185Y-54330472D01*
X148080472Y-54210185D01*
X148168478Y-54064606D01*
X148219086Y-53902196D01*
X148225500Y-53831616D01*
X148225500Y-53168384D01*
X148219086Y-53097804D01*
X148168478Y-52935394D01*
X148150795Y-52906143D01*
X148145176Y-52896847D01*
X148127340Y-52829293D01*
X148127970Y-52819751D01*
X148130047Y-52800000D01*
X148121090Y-52714785D01*
X148133659Y-52646056D01*
X148138873Y-52636726D01*
X148142458Y-52630914D01*
X148161526Y-52600000D01*
X148869953Y-52600000D01*
X148888092Y-52772576D01*
X148888093Y-52772579D01*
X148941712Y-52937608D01*
X149028477Y-53087887D01*
X149028476Y-53087887D01*
X149110349Y-53178816D01*
X149144590Y-53216845D01*
X149245024Y-53289815D01*
X149284976Y-53318842D01*
X149443495Y-53389420D01*
X149443501Y-53389422D01*
X149613236Y-53425500D01*
X149613237Y-53425500D01*
X149786762Y-53425500D01*
X149786764Y-53425500D01*
X149956499Y-53389422D01*
X149956501Y-53389420D01*
X149956504Y-53389420D01*
X150072868Y-53337611D01*
X150115024Y-53318842D01*
X150255410Y-53216845D01*
X150371522Y-53087889D01*
X150458286Y-52937611D01*
X150511908Y-52772576D01*
X150530047Y-52600000D01*
X150511908Y-52427424D01*
X150464385Y-52281160D01*
X150458287Y-52262391D01*
X150443980Y-52237611D01*
X150371522Y-52112111D01*
X150259899Y-51988140D01*
X150255411Y-51983156D01*
X150246953Y-51977011D01*
X150140958Y-51900000D01*
X150115023Y-51881157D01*
X149956504Y-51810579D01*
X149956498Y-51810577D01*
X149798643Y-51777025D01*
X149786764Y-51774500D01*
X149613236Y-51774500D01*
X149601357Y-51777025D01*
X149443501Y-51810577D01*
X149443496Y-51810579D01*
X149284977Y-51881157D01*
X149284972Y-51881160D01*
X149144591Y-51983153D01*
X149144589Y-51983155D01*
X149028477Y-52112112D01*
X148941712Y-52262391D01*
X148888879Y-52425001D01*
X148888092Y-52427424D01*
X148869953Y-52600000D01*
X148161526Y-52600000D01*
X148187003Y-52558697D01*
X148240349Y-52397708D01*
X148250500Y-52298345D01*
X148250499Y-51701656D01*
X148250440Y-51701082D01*
X148240349Y-51602292D01*
X148240348Y-51602289D01*
X148187003Y-51441303D01*
X148186999Y-51441297D01*
X148186998Y-51441294D01*
X148097970Y-51296959D01*
X148097967Y-51296955D01*
X147978044Y-51177032D01*
X147978040Y-51177029D01*
X147833705Y-51088001D01*
X147833699Y-51087998D01*
X147833697Y-51087997D01*
X147796234Y-51075583D01*
X147672709Y-51034651D01*
X147573346Y-51024500D01*
X147026662Y-51024500D01*
X147026644Y-51024501D01*
X146927292Y-51034650D01*
X146927289Y-51034651D01*
X146766305Y-51087996D01*
X146766294Y-51088001D01*
X146621959Y-51177029D01*
X146621953Y-51177033D01*
X146612324Y-51186663D01*
X146551000Y-51220146D01*
X146481308Y-51215159D01*
X146436965Y-51186660D01*
X146427732Y-51177427D01*
X146427728Y-51177424D01*
X146283492Y-51088457D01*
X146283481Y-51088452D01*
X146122606Y-51035144D01*
X146023322Y-51025000D01*
X146000000Y-51025000D01*
X146000000Y-52126000D01*
X145980315Y-52193039D01*
X145927511Y-52238794D01*
X145876000Y-52250000D01*
X144800001Y-52250000D01*
X144800001Y-52298322D01*
X144810144Y-52397607D01*
X144863452Y-52558481D01*
X144863454Y-52558486D01*
X144922647Y-52654452D01*
X144941087Y-52721845D01*
X144923225Y-52783699D01*
X144831522Y-52935393D01*
X144780913Y-53097807D01*
X144774500Y-53168386D01*
X144774500Y-53429192D01*
X144754815Y-53496231D01*
X144738181Y-53516873D01*
X144441873Y-53813181D01*
X144380550Y-53846666D01*
X144354192Y-53849500D01*
X138815879Y-53849500D01*
X138748840Y-53829815D01*
X138703085Y-53777011D01*
X138693141Y-53707853D01*
X138694058Y-53702492D01*
X138694084Y-53702200D01*
X138694086Y-53702196D01*
X138700500Y-53631616D01*
X138700500Y-52968384D01*
X138694086Y-52897804D01*
X138643478Y-52735394D01*
X138643475Y-52735389D01*
X138643475Y-52735388D01*
X138632520Y-52717267D01*
X138614683Y-52649713D01*
X138615313Y-52640174D01*
X138630047Y-52500000D01*
X138621940Y-52422874D01*
X138634509Y-52354145D01*
X138639709Y-52344839D01*
X138662003Y-52308697D01*
X138698021Y-52200000D01*
X139669953Y-52200000D01*
X139688092Y-52372576D01*
X139688093Y-52372579D01*
X139741712Y-52537608D01*
X139788613Y-52618841D01*
X139817853Y-52669487D01*
X139828477Y-52687887D01*
X139828476Y-52687887D01*
X139916714Y-52785885D01*
X139944590Y-52816845D01*
X140074935Y-52911547D01*
X140084976Y-52918842D01*
X140243495Y-52989420D01*
X140243501Y-52989422D01*
X140413236Y-53025500D01*
X140413237Y-53025500D01*
X140586762Y-53025500D01*
X140586764Y-53025500D01*
X140756499Y-52989422D01*
X140756501Y-52989420D01*
X140756504Y-52989420D01*
X140814321Y-52963678D01*
X140915024Y-52918842D01*
X141055410Y-52816845D01*
X141171522Y-52687889D01*
X141258286Y-52537611D01*
X141311908Y-52372576D01*
X141330047Y-52200000D01*
X141311908Y-52027424D01*
X141270506Y-51900000D01*
X141258287Y-51862391D01*
X141228373Y-51810579D01*
X141171522Y-51712111D01*
X141162128Y-51701677D01*
X144800000Y-51701677D01*
X144800000Y-51750000D01*
X145500000Y-51750000D01*
X145500000Y-51024999D01*
X145476693Y-51025000D01*
X145476674Y-51025001D01*
X145377392Y-51035144D01*
X145216518Y-51088452D01*
X145216507Y-51088457D01*
X145072271Y-51177424D01*
X145072267Y-51177427D01*
X144952427Y-51297267D01*
X144952424Y-51297271D01*
X144863457Y-51441507D01*
X144863452Y-51441518D01*
X144810144Y-51602393D01*
X144800000Y-51701677D01*
X141162128Y-51701677D01*
X141162108Y-51701655D01*
X141055411Y-51583156D01*
X141035079Y-51568384D01*
X140940958Y-51500000D01*
X140915023Y-51481157D01*
X140756504Y-51410579D01*
X140756498Y-51410577D01*
X140622841Y-51382168D01*
X140586764Y-51374500D01*
X140413236Y-51374500D01*
X140383483Y-51380824D01*
X140243501Y-51410577D01*
X140243496Y-51410579D01*
X140084977Y-51481157D01*
X140084972Y-51481160D01*
X139944591Y-51583153D01*
X139944589Y-51583155D01*
X139828477Y-51712112D01*
X139741712Y-51862391D01*
X139700643Y-51988794D01*
X139688092Y-52027424D01*
X139669953Y-52200000D01*
X138698021Y-52200000D01*
X138715349Y-52147708D01*
X138725500Y-52048345D01*
X138725499Y-51451656D01*
X138724463Y-51441518D01*
X138715349Y-51352292D01*
X138715348Y-51352289D01*
X138702533Y-51313615D01*
X138662003Y-51191303D01*
X138661999Y-51191297D01*
X138661998Y-51191294D01*
X138572970Y-51046959D01*
X138572967Y-51046955D01*
X138453044Y-50927032D01*
X138453040Y-50927029D01*
X138308705Y-50838001D01*
X138308699Y-50837998D01*
X138308697Y-50837997D01*
X138276790Y-50827424D01*
X138147709Y-50784651D01*
X138048346Y-50774500D01*
X137501662Y-50774500D01*
X137501644Y-50774501D01*
X137402292Y-50784650D01*
X137402289Y-50784651D01*
X137241305Y-50837996D01*
X137241294Y-50838001D01*
X137096959Y-50927029D01*
X137096953Y-50927033D01*
X137087324Y-50936663D01*
X137026000Y-50970146D01*
X136956308Y-50965159D01*
X136911965Y-50936660D01*
X136902732Y-50927427D01*
X136902728Y-50927424D01*
X136758492Y-50838457D01*
X136758481Y-50838452D01*
X136597606Y-50785144D01*
X136498322Y-50775000D01*
X136475000Y-50775000D01*
X136475000Y-51876000D01*
X136455315Y-51943039D01*
X136402511Y-51988794D01*
X136351000Y-52000000D01*
X135275001Y-52000000D01*
X135275001Y-52048322D01*
X135285144Y-52147607D01*
X135338452Y-52308481D01*
X135338455Y-52308488D01*
X135415700Y-52433719D01*
X135434141Y-52501112D01*
X135413219Y-52567775D01*
X135397848Y-52586493D01*
X135394533Y-52589807D01*
X135394530Y-52589811D01*
X135306522Y-52735393D01*
X135255913Y-52897807D01*
X135249500Y-52968386D01*
X135249500Y-53225500D01*
X135229815Y-53292539D01*
X135177011Y-53338294D01*
X135125500Y-53349500D01*
X129236389Y-53349500D01*
X129169350Y-53329815D01*
X129123595Y-53277011D01*
X129113069Y-53238466D01*
X129112601Y-53234023D01*
X129111908Y-53227424D01*
X129058286Y-53062389D01*
X128985063Y-52935564D01*
X128968591Y-52867668D01*
X128991443Y-52801640D01*
X129004765Y-52785891D01*
X129080472Y-52710185D01*
X129168478Y-52564606D01*
X129219086Y-52402196D01*
X129225500Y-52331616D01*
X129225500Y-51668384D01*
X129219086Y-51597804D01*
X129173552Y-51451677D01*
X135275000Y-51451677D01*
X135275000Y-51500000D01*
X135975000Y-51500000D01*
X135975000Y-50774999D01*
X135951693Y-50775000D01*
X135951674Y-50775001D01*
X135852392Y-50785144D01*
X135691518Y-50838452D01*
X135691507Y-50838457D01*
X135547271Y-50927424D01*
X135547267Y-50927427D01*
X135427427Y-51047267D01*
X135427424Y-51047271D01*
X135338457Y-51191507D01*
X135338452Y-51191518D01*
X135285144Y-51352393D01*
X135275000Y-51451677D01*
X129173552Y-51451677D01*
X129168478Y-51435394D01*
X129084347Y-51296226D01*
X129066512Y-51228672D01*
X129072534Y-51193760D01*
X129090778Y-51137608D01*
X129111908Y-51072576D01*
X129130047Y-50900000D01*
X129111908Y-50727424D01*
X129070506Y-50600000D01*
X130169953Y-50600000D01*
X130188092Y-50772576D01*
X130188093Y-50772579D01*
X130241712Y-50937608D01*
X130292168Y-51024999D01*
X130314397Y-51063501D01*
X130328477Y-51087887D01*
X130328476Y-51087887D01*
X130432499Y-51203416D01*
X130444590Y-51216845D01*
X130545024Y-51289815D01*
X130584976Y-51318842D01*
X130743495Y-51389420D01*
X130743501Y-51389422D01*
X130913236Y-51425500D01*
X130913237Y-51425500D01*
X131086762Y-51425500D01*
X131086764Y-51425500D01*
X131256499Y-51389422D01*
X131256501Y-51389420D01*
X131256504Y-51389420D01*
X131372868Y-51337611D01*
X131415024Y-51318842D01*
X131555410Y-51216845D01*
X131671522Y-51087889D01*
X131758286Y-50937611D01*
X131811908Y-50772576D01*
X131830047Y-50600000D01*
X131811908Y-50427424D01*
X131773331Y-50308694D01*
X131758287Y-50262391D01*
X131756550Y-50259382D01*
X131671522Y-50112111D01*
X131559673Y-49987889D01*
X131555411Y-49983156D01*
X131415023Y-49881157D01*
X131256504Y-49810579D01*
X131256498Y-49810577D01*
X131118083Y-49781157D01*
X131086764Y-49774500D01*
X130913236Y-49774500D01*
X130883483Y-49780824D01*
X130743501Y-49810577D01*
X130743496Y-49810579D01*
X130584977Y-49881157D01*
X130584972Y-49881160D01*
X130444591Y-49983153D01*
X130444589Y-49983155D01*
X130328477Y-50112112D01*
X130241712Y-50262391D01*
X130195224Y-50405472D01*
X130188092Y-50427424D01*
X130169953Y-50600000D01*
X129070506Y-50600000D01*
X129058286Y-50562389D01*
X129058283Y-50562385D01*
X129057813Y-50560936D01*
X129055818Y-50491095D01*
X129070206Y-50457520D01*
X129072965Y-50453046D01*
X129072968Y-50453044D01*
X129162003Y-50308697D01*
X129215349Y-50147708D01*
X129225500Y-50048345D01*
X129225499Y-49451656D01*
X129224463Y-49441518D01*
X129215349Y-49352292D01*
X129215348Y-49352289D01*
X129197117Y-49297271D01*
X129162003Y-49191303D01*
X129161999Y-49191297D01*
X129161998Y-49191294D01*
X129072970Y-49046959D01*
X129072967Y-49046955D01*
X128953044Y-48927032D01*
X128953040Y-48927029D01*
X128808705Y-48838001D01*
X128808699Y-48837998D01*
X128808697Y-48837997D01*
X128808694Y-48837996D01*
X128647709Y-48784651D01*
X128548346Y-48774500D01*
X128001662Y-48774500D01*
X128001644Y-48774501D01*
X127902292Y-48784650D01*
X127902289Y-48784651D01*
X127741305Y-48837996D01*
X127741294Y-48838001D01*
X127596959Y-48927029D01*
X127596953Y-48927033D01*
X127587324Y-48936663D01*
X127526000Y-48970146D01*
X127456308Y-48965159D01*
X127411965Y-48936660D01*
X127402732Y-48927427D01*
X127402728Y-48927424D01*
X127258492Y-48838457D01*
X127258481Y-48838452D01*
X127097606Y-48785144D01*
X126998322Y-48775000D01*
X126975000Y-48775000D01*
X126975000Y-50724999D01*
X126998308Y-50724999D01*
X126998322Y-50724998D01*
X127097607Y-50714855D01*
X127258481Y-50661547D01*
X127258490Y-50661543D01*
X127296613Y-50638028D01*
X127364005Y-50619586D01*
X127430669Y-50640507D01*
X127475440Y-50694148D01*
X127485033Y-50756527D01*
X127471461Y-50885657D01*
X127469953Y-50900000D01*
X127483929Y-51032972D01*
X127484960Y-51042774D01*
X127472391Y-51111504D01*
X127424659Y-51162528D01*
X127356919Y-51179646D01*
X127297489Y-51161853D01*
X127164606Y-51081522D01*
X127142068Y-51074499D01*
X127002196Y-51030914D01*
X127002194Y-51030913D01*
X127002192Y-51030913D01*
X126952778Y-51026423D01*
X126931616Y-51024500D01*
X126418384Y-51024500D01*
X126399145Y-51026248D01*
X126347807Y-51030913D01*
X126185393Y-51081522D01*
X126039811Y-51169530D01*
X125919530Y-51289811D01*
X125831522Y-51435393D01*
X125780913Y-51597807D01*
X125774500Y-51668386D01*
X125774500Y-51789513D01*
X125754815Y-51856552D01*
X125702011Y-51902307D01*
X125632853Y-51912251D01*
X125624719Y-51910803D01*
X125524128Y-51889422D01*
X125486764Y-51881480D01*
X125313236Y-51881480D01*
X125283483Y-51887804D01*
X125143501Y-51917557D01*
X125143496Y-51917559D01*
X124984977Y-51988137D01*
X124984972Y-51988140D01*
X124844591Y-52090133D01*
X124844589Y-52090135D01*
X124728477Y-52219092D01*
X124641712Y-52369371D01*
X124589226Y-52530914D01*
X124588092Y-52534404D01*
X124569953Y-52706980D01*
X124588092Y-52879556D01*
X124588093Y-52879559D01*
X124641712Y-53044588D01*
X124674656Y-53101647D01*
X124715610Y-53172582D01*
X124728477Y-53194867D01*
X124728476Y-53194867D01*
X124844558Y-53323789D01*
X124844590Y-53323825D01*
X124934876Y-53389422D01*
X124984976Y-53425822D01*
X125143495Y-53496400D01*
X125143501Y-53496402D01*
X125313236Y-53532480D01*
X125313237Y-53532480D01*
X125486762Y-53532480D01*
X125486764Y-53532480D01*
X125656499Y-53496402D01*
X125656501Y-53496400D01*
X125656504Y-53496400D01*
X125692094Y-53480554D01*
X125815024Y-53425822D01*
X125824631Y-53418842D01*
X125876494Y-53381162D01*
X125942300Y-53357682D01*
X125949379Y-53357480D01*
X126032091Y-53357480D01*
X126131974Y-53337611D01*
X126157764Y-53332481D01*
X126276147Y-53283445D01*
X126280890Y-53280276D01*
X126382689Y-53212257D01*
X126583127Y-53011819D01*
X126644450Y-52978334D01*
X126670808Y-52975500D01*
X126931613Y-52975500D01*
X126931616Y-52975500D01*
X127002196Y-52969086D01*
X127164606Y-52918478D01*
X127310185Y-52830472D01*
X127412320Y-52728336D01*
X127473641Y-52694853D01*
X127543333Y-52699837D01*
X127587681Y-52728338D01*
X127613756Y-52754413D01*
X127647241Y-52815736D01*
X127642257Y-52885428D01*
X127631138Y-52906143D01*
X127631727Y-52906483D01*
X127541712Y-53062391D01*
X127495288Y-53205276D01*
X127488092Y-53227424D01*
X127469953Y-53400000D01*
X127488092Y-53572576D01*
X127488093Y-53572579D01*
X127514486Y-53653810D01*
X127516481Y-53723651D01*
X127480400Y-53783483D01*
X127469441Y-53792445D01*
X127344588Y-53883156D01*
X127228477Y-54012112D01*
X127141713Y-54162390D01*
X127140929Y-54164804D01*
X127140096Y-54166021D01*
X127139069Y-54168329D01*
X127138646Y-54168141D01*
X127101488Y-54222477D01*
X127037127Y-54249672D01*
X126968282Y-54237753D01*
X126916809Y-54190506D01*
X126915639Y-54188524D01*
X126871522Y-54112111D01*
X126755410Y-53983155D01*
X126623486Y-53887306D01*
X126615023Y-53881157D01*
X126456504Y-53810579D01*
X126456498Y-53810577D01*
X126298577Y-53777011D01*
X126286764Y-53774500D01*
X126113236Y-53774500D01*
X126101423Y-53777011D01*
X125943501Y-53810577D01*
X125943496Y-53810579D01*
X125784977Y-53881157D01*
X125784972Y-53881160D01*
X125644591Y-53983153D01*
X125644589Y-53983155D01*
X125528477Y-54112112D01*
X125441712Y-54262391D01*
X125388093Y-54427420D01*
X125388092Y-54427424D01*
X125369953Y-54600000D01*
X125388092Y-54772576D01*
X125388093Y-54772579D01*
X125441712Y-54937608D01*
X125528477Y-55087887D01*
X125528476Y-55087887D01*
X125640328Y-55212111D01*
X125644590Y-55216845D01*
X125784973Y-55318840D01*
X125784976Y-55318842D01*
X125943495Y-55389420D01*
X125943498Y-55389420D01*
X125943501Y-55389422D01*
X126067551Y-55415789D01*
X126129033Y-55448981D01*
X126129452Y-55449398D01*
X126485324Y-55805271D01*
X126485331Y-55805277D01*
X126579466Y-55868176D01*
X126579470Y-55868177D01*
X126591873Y-55876465D01*
X126591874Y-55876465D01*
X126591875Y-55876466D01*
X126617302Y-55886998D01*
X126710256Y-55925501D01*
X126710260Y-55925501D01*
X126710261Y-55925502D01*
X126835928Y-55950500D01*
X126835931Y-55950500D01*
X130245264Y-55950500D01*
X130312303Y-55970185D01*
X130358058Y-56022989D01*
X130368002Y-56092147D01*
X130338977Y-56155703D01*
X130338121Y-56156679D01*
X130196230Y-56316843D01*
X130185770Y-56328650D01*
X130027681Y-56557682D01*
X130027676Y-56557691D01*
X129898341Y-56804115D01*
X129799651Y-57064337D01*
X129786217Y-57118842D01*
X129733046Y-57334565D01*
X129728951Y-57368292D01*
X129699500Y-57610842D01*
X129699500Y-58246249D01*
X129699274Y-58253736D01*
X129682092Y-58537769D01*
X129680287Y-58552633D01*
X129629673Y-58828829D01*
X129626089Y-58843369D01*
X129542555Y-59111438D01*
X129537246Y-59125438D01*
X129422002Y-59381500D01*
X129415043Y-59394759D01*
X129269779Y-59635056D01*
X129261273Y-59647379D01*
X129088100Y-59868417D01*
X129078170Y-59879625D01*
X128879625Y-60078170D01*
X128868417Y-60088100D01*
X128647379Y-60261273D01*
X128635056Y-60269779D01*
X128394759Y-60415043D01*
X128381500Y-60422002D01*
X128125438Y-60537246D01*
X128111438Y-60542555D01*
X127843369Y-60626089D01*
X127828829Y-60629673D01*
X127552633Y-60680287D01*
X127537769Y-60682092D01*
X127257487Y-60699047D01*
X127242513Y-60699047D01*
X126962230Y-60682092D01*
X126947366Y-60680287D01*
X126671170Y-60629673D01*
X126656630Y-60626089D01*
X126388561Y-60542555D01*
X126374561Y-60537246D01*
X126118499Y-60422002D01*
X126105240Y-60415043D01*
X125894878Y-60287875D01*
X125864940Y-60269777D01*
X125852620Y-60261273D01*
X125806959Y-60225500D01*
X125631582Y-60088100D01*
X125620374Y-60078170D01*
X125421829Y-59879625D01*
X125411899Y-59868417D01*
X125375266Y-59821659D01*
X125238722Y-59647373D01*
X125230224Y-59635062D01*
X125084955Y-59394758D01*
X125077997Y-59381500D01*
X125061194Y-59344165D01*
X124962751Y-59125434D01*
X124957447Y-59111447D01*
X124873907Y-58843358D01*
X124870326Y-58828829D01*
X124869716Y-58825502D01*
X124819711Y-58552632D01*
X124817907Y-58537769D01*
X124816971Y-58522303D01*
X124800726Y-58253736D01*
X124800500Y-58246249D01*
X124800500Y-58147648D01*
X125949500Y-58147648D01*
X125949500Y-58352351D01*
X125981522Y-58554534D01*
X126044781Y-58749223D01*
X126089101Y-58836204D01*
X126136631Y-58929487D01*
X126137715Y-58931613D01*
X126258028Y-59097213D01*
X126402786Y-59241971D01*
X126557749Y-59354556D01*
X126568390Y-59362287D01*
X126680117Y-59419215D01*
X126750776Y-59455218D01*
X126750778Y-59455218D01*
X126750781Y-59455220D01*
X126831687Y-59481508D01*
X126945465Y-59518477D01*
X127046557Y-59534488D01*
X127147648Y-59550500D01*
X127147649Y-59550500D01*
X127352351Y-59550500D01*
X127352352Y-59550500D01*
X127554534Y-59518477D01*
X127749219Y-59455220D01*
X127931610Y-59362287D01*
X128044887Y-59279987D01*
X128097213Y-59241971D01*
X128097215Y-59241968D01*
X128097219Y-59241966D01*
X128241966Y-59097219D01*
X128241968Y-59097215D01*
X128241971Y-59097213D01*
X128304534Y-59011101D01*
X128362287Y-58931610D01*
X128455220Y-58749219D01*
X128518477Y-58554534D01*
X128550500Y-58352352D01*
X128550500Y-58147648D01*
X128535062Y-58050178D01*
X128518477Y-57945465D01*
X128470448Y-57797648D01*
X128455220Y-57750781D01*
X128455218Y-57750778D01*
X128455218Y-57750776D01*
X128412406Y-57666754D01*
X128362287Y-57568390D01*
X128336529Y-57532937D01*
X128241971Y-57402786D01*
X128097213Y-57258028D01*
X127931613Y-57137715D01*
X127931612Y-57137714D01*
X127931610Y-57137713D01*
X127862122Y-57102307D01*
X127749223Y-57044781D01*
X127554534Y-56981522D01*
X127379995Y-56953878D01*
X127352352Y-56949500D01*
X127147648Y-56949500D01*
X127123329Y-56953351D01*
X126945465Y-56981522D01*
X126750776Y-57044781D01*
X126568386Y-57137715D01*
X126402786Y-57258028D01*
X126258028Y-57402786D01*
X126137715Y-57568386D01*
X126044781Y-57750776D01*
X125981522Y-57945465D01*
X125949500Y-58147648D01*
X124800500Y-58147648D01*
X124800500Y-57610842D01*
X124789451Y-57519845D01*
X124766954Y-57334565D01*
X124700350Y-57064343D01*
X124699300Y-57061575D01*
X124601658Y-56804115D01*
X124538173Y-56683156D01*
X124472323Y-56557689D01*
X124314226Y-56328645D01*
X124129673Y-56120327D01*
X123921355Y-55935774D01*
X123749692Y-55817284D01*
X123705702Y-55763001D01*
X123698042Y-55693553D01*
X123714594Y-55650136D01*
X123786544Y-55533488D01*
X123786547Y-55533481D01*
X123839855Y-55372606D01*
X123849999Y-55273322D01*
X123850000Y-55273309D01*
X123850000Y-55225000D01*
X122774000Y-55225000D01*
X122706961Y-55205315D01*
X122661206Y-55152511D01*
X122650000Y-55101000D01*
X122650000Y-54408589D01*
X122627834Y-54367996D01*
X122625000Y-54341638D01*
X122625000Y-53966410D01*
X123125000Y-53966410D01*
X123147166Y-54007004D01*
X123150000Y-54033362D01*
X123150000Y-54725000D01*
X123849999Y-54725000D01*
X123849999Y-54676692D01*
X123849998Y-54676677D01*
X123839855Y-54577392D01*
X123786547Y-54416518D01*
X123786542Y-54416507D01*
X123697575Y-54272271D01*
X123697572Y-54272267D01*
X123686762Y-54261457D01*
X123653277Y-54200134D01*
X123658261Y-54130442D01*
X123668905Y-54108679D01*
X123761542Y-53958492D01*
X123761547Y-53958481D01*
X123814855Y-53797606D01*
X123824999Y-53698322D01*
X123825000Y-53698309D01*
X123825000Y-53650000D01*
X123125000Y-53650000D01*
X123125000Y-53966410D01*
X122625000Y-53966410D01*
X122625000Y-53150000D01*
X123125000Y-53150000D01*
X123824999Y-53150000D01*
X123824999Y-53101692D01*
X123824998Y-53101677D01*
X123814855Y-53002392D01*
X123761547Y-52841518D01*
X123761542Y-52841507D01*
X123672575Y-52697271D01*
X123672572Y-52697267D01*
X123552732Y-52577427D01*
X123552728Y-52577424D01*
X123408492Y-52488457D01*
X123408481Y-52488452D01*
X123247606Y-52435144D01*
X123148322Y-52425000D01*
X123125000Y-52425000D01*
X123125000Y-53150000D01*
X122625000Y-53150000D01*
X122625000Y-52424999D01*
X122601693Y-52425000D01*
X122601674Y-52425001D01*
X122502392Y-52435144D01*
X122341518Y-52488452D01*
X122341507Y-52488457D01*
X122264597Y-52535897D01*
X122197205Y-52554338D01*
X122130541Y-52533416D01*
X122085772Y-52479774D01*
X122075500Y-52430359D01*
X122075500Y-52242131D01*
X122095185Y-52175092D01*
X122107350Y-52159159D01*
X122171522Y-52087889D01*
X122258286Y-51937611D01*
X122311908Y-51772576D01*
X122330047Y-51600000D01*
X122311908Y-51427424D01*
X122269517Y-51296955D01*
X122258287Y-51262391D01*
X122250844Y-51249500D01*
X122171522Y-51112111D01*
X122170975Y-51111504D01*
X122133180Y-51069528D01*
X122100264Y-51032971D01*
X122070035Y-50969981D01*
X122078660Y-50900645D01*
X122100265Y-50867028D01*
X122125956Y-50838495D01*
X122171522Y-50787889D01*
X122258286Y-50637611D01*
X122311908Y-50472576D01*
X122330047Y-50300000D01*
X122311908Y-50127424D01*
X122286207Y-50048322D01*
X125775001Y-50048322D01*
X125785144Y-50147607D01*
X125838452Y-50308481D01*
X125838457Y-50308492D01*
X125927424Y-50452728D01*
X125927427Y-50452732D01*
X126047267Y-50572572D01*
X126047271Y-50572575D01*
X126191507Y-50661542D01*
X126191518Y-50661547D01*
X126352393Y-50714855D01*
X126451683Y-50724999D01*
X126475000Y-50724998D01*
X126475000Y-50000000D01*
X125775001Y-50000000D01*
X125775001Y-50048322D01*
X122286207Y-50048322D01*
X122266571Y-49987887D01*
X122258287Y-49962391D01*
X122243980Y-49937611D01*
X122171522Y-49812111D01*
X122085745Y-49716845D01*
X122055411Y-49683156D01*
X121915023Y-49581157D01*
X121756504Y-49510579D01*
X121756498Y-49510577D01*
X121622841Y-49482168D01*
X121586764Y-49474500D01*
X121413236Y-49474500D01*
X121383483Y-49480824D01*
X121243501Y-49510577D01*
X121243496Y-49510579D01*
X121084977Y-49581157D01*
X121084972Y-49581160D01*
X120944591Y-49683153D01*
X120944589Y-49683155D01*
X120828477Y-49812112D01*
X120741712Y-49962391D01*
X120688093Y-50127420D01*
X120688092Y-50127424D01*
X120669953Y-50300000D01*
X120688092Y-50472576D01*
X120688093Y-50472579D01*
X120741712Y-50637608D01*
X120826893Y-50785144D01*
X120828478Y-50787889D01*
X120893116Y-50859677D01*
X120899735Y-50867028D01*
X120929964Y-50930020D01*
X120921338Y-50999355D01*
X120899735Y-51032971D01*
X120828478Y-51112111D01*
X120828476Y-51112112D01*
X120828475Y-51112115D01*
X120741714Y-51262388D01*
X120725069Y-51313615D01*
X120710248Y-51344176D01*
X120706870Y-51349232D01*
X120702686Y-51355495D01*
X120659919Y-51419499D01*
X120659912Y-51419511D01*
X120603343Y-51556082D01*
X120603340Y-51556092D01*
X120574500Y-51701079D01*
X120574500Y-52598126D01*
X120554815Y-52665165D01*
X120538181Y-52685807D01*
X120527032Y-52696955D01*
X120527029Y-52696959D01*
X120438001Y-52841294D01*
X120437996Y-52841305D01*
X120384651Y-53002290D01*
X120374500Y-53101647D01*
X120374500Y-53698337D01*
X120374501Y-53698355D01*
X120384650Y-53797707D01*
X120384651Y-53797710D01*
X120437996Y-53958694D01*
X120438001Y-53958705D01*
X120527029Y-54103040D01*
X120527032Y-54103044D01*
X120537604Y-54113616D01*
X120571089Y-54174939D01*
X120566105Y-54244631D01*
X120555462Y-54266394D01*
X120462998Y-54416300D01*
X120462996Y-54416305D01*
X120409651Y-54577290D01*
X120399500Y-54676647D01*
X120399500Y-55273337D01*
X120399501Y-55273355D01*
X120409650Y-55372707D01*
X120409651Y-55372710D01*
X120462996Y-55533694D01*
X120463001Y-55533705D01*
X120552029Y-55678040D01*
X120552032Y-55678044D01*
X120671955Y-55797967D01*
X120671959Y-55797970D01*
X120816294Y-55886998D01*
X120816297Y-55886999D01*
X120816303Y-55887003D01*
X120842894Y-55895814D01*
X120900339Y-55935586D01*
X120927163Y-56000102D01*
X120914848Y-56068877D01*
X120886122Y-56106332D01*
X120870329Y-56120323D01*
X120748014Y-56258390D01*
X120707810Y-56303772D01*
X120685770Y-56328650D01*
X120527681Y-56557682D01*
X120527676Y-56557691D01*
X120398343Y-56804112D01*
X120360938Y-56902740D01*
X120318759Y-56958442D01*
X120253162Y-56982499D01*
X120194560Y-56972047D01*
X120056504Y-56910579D01*
X120056498Y-56910577D01*
X119907281Y-56878861D01*
X119886764Y-56874500D01*
X119713236Y-56874500D01*
X119692719Y-56878861D01*
X119543501Y-56910577D01*
X119543499Y-56910578D01*
X119480158Y-56938780D01*
X119429723Y-56949500D01*
X119162230Y-56949500D01*
X119095191Y-56929815D01*
X119074549Y-56913181D01*
X118328421Y-56167052D01*
X118328420Y-56167051D01*
X118327709Y-56166576D01*
X118253584Y-56117048D01*
X118253583Y-56117047D01*
X118205501Y-56084919D01*
X118205488Y-56084912D01*
X118068917Y-56028343D01*
X118068907Y-56028340D01*
X117923920Y-55999500D01*
X117923918Y-55999500D01*
X117624500Y-55999500D01*
X117557461Y-55979815D01*
X117511706Y-55927011D01*
X117500500Y-55875500D01*
X117500500Y-55752976D01*
X117518382Y-55688829D01*
X117593478Y-55564606D01*
X117644086Y-55402196D01*
X117650500Y-55331616D01*
X117650500Y-54668384D01*
X117644086Y-54597804D01*
X117593478Y-54435394D01*
X117505472Y-54289815D01*
X117505470Y-54289813D01*
X117505469Y-54289811D01*
X117385188Y-54169530D01*
X117383201Y-54168329D01*
X117239606Y-54081522D01*
X117077196Y-54030914D01*
X117077194Y-54030913D01*
X117077192Y-54030913D01*
X117027778Y-54026423D01*
X117006616Y-54024500D01*
X116493384Y-54024500D01*
X116474145Y-54026248D01*
X116422807Y-54030913D01*
X116260393Y-54081522D01*
X116114811Y-54169530D01*
X116114810Y-54169531D01*
X116012681Y-54271661D01*
X115951358Y-54305146D01*
X115881666Y-54300162D01*
X115837319Y-54271661D01*
X115735188Y-54169530D01*
X115733201Y-54168329D01*
X115589606Y-54081522D01*
X115427196Y-54030914D01*
X115427194Y-54030913D01*
X115427192Y-54030913D01*
X115377778Y-54026423D01*
X115356616Y-54024500D01*
X115211880Y-54024500D01*
X115144841Y-54004815D01*
X115099086Y-53952011D01*
X115089142Y-53882853D01*
X115118167Y-53819297D01*
X115161444Y-53787221D01*
X115272868Y-53737611D01*
X115315024Y-53718842D01*
X115455410Y-53616845D01*
X115571522Y-53487889D01*
X115658286Y-53337611D01*
X115711908Y-53172576D01*
X115714898Y-53144124D01*
X115741481Y-53079513D01*
X115750528Y-53069416D01*
X116326964Y-52492980D01*
X116388285Y-52459497D01*
X116457977Y-52464481D01*
X116502324Y-52492982D01*
X116539811Y-52530469D01*
X116539813Y-52530470D01*
X116539815Y-52530472D01*
X116685394Y-52618478D01*
X116847804Y-52669086D01*
X116918384Y-52675500D01*
X116918387Y-52675500D01*
X117431613Y-52675500D01*
X117431616Y-52675500D01*
X117502196Y-52669086D01*
X117664606Y-52618478D01*
X117810185Y-52530472D01*
X117860883Y-52479774D01*
X117912319Y-52428339D01*
X117973642Y-52394854D01*
X118043334Y-52399838D01*
X118087681Y-52428339D01*
X118189811Y-52530469D01*
X118189813Y-52530470D01*
X118189815Y-52530472D01*
X118335394Y-52618478D01*
X118497804Y-52669086D01*
X118568384Y-52675500D01*
X118568387Y-52675500D01*
X119081613Y-52675500D01*
X119081616Y-52675500D01*
X119152196Y-52669086D01*
X119314606Y-52618478D01*
X119460185Y-52530472D01*
X119580472Y-52410185D01*
X119668478Y-52264606D01*
X119719086Y-52102196D01*
X119725500Y-52031616D01*
X119725500Y-51368384D01*
X119719086Y-51297804D01*
X119668478Y-51135394D01*
X119636221Y-51082035D01*
X119618386Y-51014482D01*
X119619018Y-51004925D01*
X119619536Y-51000000D01*
X119630047Y-50900000D01*
X119611908Y-50727424D01*
X119611018Y-50724687D01*
X119610971Y-50723018D01*
X119610556Y-50721065D01*
X119610912Y-50720989D01*
X119609018Y-50654849D01*
X119623410Y-50621264D01*
X119662001Y-50558701D01*
X119662001Y-50558699D01*
X119662003Y-50558697D01*
X119715349Y-50397708D01*
X119725500Y-50298345D01*
X119725499Y-49701656D01*
X119722528Y-49672576D01*
X119715349Y-49602292D01*
X119715348Y-49602289D01*
X119662003Y-49441303D01*
X119661999Y-49441297D01*
X119661998Y-49441294D01*
X119572970Y-49296959D01*
X119572967Y-49296955D01*
X119453044Y-49177032D01*
X119453040Y-49177029D01*
X119308705Y-49088001D01*
X119308699Y-49087998D01*
X119308697Y-49087997D01*
X119305142Y-49086819D01*
X119147709Y-49034651D01*
X119048346Y-49024500D01*
X118501662Y-49024500D01*
X118501644Y-49024501D01*
X118402292Y-49034650D01*
X118402289Y-49034651D01*
X118241305Y-49087996D01*
X118241294Y-49088001D01*
X118096959Y-49177029D01*
X118096953Y-49177033D01*
X118087324Y-49186663D01*
X118026000Y-49220146D01*
X117956308Y-49215159D01*
X117911965Y-49186660D01*
X117902732Y-49177427D01*
X117902728Y-49177424D01*
X117758492Y-49088457D01*
X117758481Y-49088452D01*
X117597606Y-49035144D01*
X117498322Y-49025000D01*
X117475000Y-49025000D01*
X117475000Y-50126000D01*
X117455315Y-50193039D01*
X117402511Y-50238794D01*
X117351000Y-50250000D01*
X116275001Y-50250000D01*
X116275001Y-50298322D01*
X116285144Y-50397607D01*
X116338452Y-50558481D01*
X116338457Y-50558492D01*
X116427424Y-50702728D01*
X116427427Y-50702732D01*
X116479337Y-50754642D01*
X116512822Y-50815965D01*
X116507838Y-50885657D01*
X116479338Y-50930004D01*
X116419528Y-50989814D01*
X116414906Y-50995715D01*
X116413882Y-50994912D01*
X116368096Y-51036840D01*
X116313511Y-51049500D01*
X116135929Y-51049500D01*
X116010261Y-51074497D01*
X116010255Y-51074499D01*
X115977930Y-51087889D01*
X115977929Y-51087889D01*
X115891881Y-51123530D01*
X115891863Y-51123540D01*
X115785332Y-51194721D01*
X115785325Y-51194727D01*
X114829452Y-52150600D01*
X114768129Y-52184085D01*
X114767553Y-52184209D01*
X114643500Y-52210578D01*
X114643496Y-52210579D01*
X114484977Y-52281157D01*
X114484972Y-52281160D01*
X114344591Y-52383153D01*
X114344589Y-52383155D01*
X114228477Y-52512112D01*
X114141712Y-52662391D01*
X114088093Y-52827420D01*
X114088092Y-52827424D01*
X114069953Y-53000000D01*
X114088092Y-53172576D01*
X114088093Y-53172579D01*
X114141712Y-53337608D01*
X114228477Y-53487887D01*
X114228476Y-53487887D01*
X114328449Y-53598918D01*
X114344590Y-53616845D01*
X114456778Y-53698355D01*
X114484976Y-53718842D01*
X114609985Y-53774500D01*
X114643501Y-53789422D01*
X114717234Y-53805094D01*
X114778712Y-53838285D01*
X114812489Y-53899447D01*
X114807837Y-53969162D01*
X114766233Y-54025295D01*
X114728340Y-54044768D01*
X114610397Y-54081520D01*
X114464811Y-54169530D01*
X114344530Y-54289811D01*
X114256522Y-54435393D01*
X114205913Y-54597807D01*
X114199500Y-54668386D01*
X114199500Y-55331613D01*
X114205913Y-55402192D01*
X114205913Y-55402194D01*
X114205914Y-55402196D01*
X114256522Y-55564606D01*
X114331617Y-55688829D01*
X114349500Y-55752976D01*
X114349500Y-55997022D01*
X114331617Y-56061172D01*
X114301102Y-56111650D01*
X114249574Y-56158837D01*
X114194985Y-56171500D01*
X113919328Y-56171500D01*
X113884733Y-56166576D01*
X113739573Y-56124402D01*
X113739567Y-56124401D01*
X113702701Y-56121500D01*
X113702694Y-56121500D01*
X112536500Y-56121500D01*
X112469461Y-56101815D01*
X112423706Y-56049011D01*
X112412500Y-55997500D01*
X112412500Y-55756313D01*
X112412499Y-55756298D01*
X112409707Y-55720823D01*
X112409598Y-55719431D01*
X112408356Y-55715157D01*
X112363745Y-55561606D01*
X112363744Y-55561603D01*
X112363744Y-55561602D01*
X112280081Y-55420135D01*
X112280079Y-55420133D01*
X112280076Y-55420129D01*
X112163870Y-55303923D01*
X112163862Y-55303917D01*
X112085681Y-55257681D01*
X112022398Y-55220256D01*
X112022397Y-55220255D01*
X112022396Y-55220255D01*
X112022393Y-55220254D01*
X111864573Y-55174402D01*
X111864567Y-55174401D01*
X111827701Y-55171500D01*
X111827694Y-55171500D01*
X110521306Y-55171500D01*
X110521298Y-55171500D01*
X110484432Y-55174401D01*
X110484426Y-55174402D01*
X110339267Y-55216576D01*
X110304672Y-55221500D01*
X108979080Y-55221500D01*
X108834092Y-55250340D01*
X108834082Y-55250343D01*
X108697511Y-55306912D01*
X108697498Y-55306919D01*
X108574587Y-55389046D01*
X108574582Y-55389050D01*
X108356904Y-55606725D01*
X108319661Y-55632322D01*
X108209974Y-55681158D01*
X108069591Y-55783153D01*
X108069589Y-55783155D01*
X107953477Y-55912112D01*
X107866714Y-56062389D01*
X107866713Y-56062389D01*
X107813093Y-56227420D01*
X107813092Y-56227424D01*
X107794953Y-56400000D01*
X107813092Y-56572576D01*
X107813093Y-56572579D01*
X107866712Y-56737608D01*
X107909063Y-56810961D01*
X107924269Y-56873638D01*
X107925000Y-56873638D01*
X107925000Y-56876651D01*
X107925536Y-56878861D01*
X107925000Y-56880409D01*
X107925000Y-58874999D01*
X107931581Y-58874999D01*
X108002102Y-58868591D01*
X108002107Y-58868590D01*
X108164398Y-58818018D01*
X108234033Y-58775922D01*
X108301588Y-58758085D01*
X108368062Y-58779602D01*
X108412350Y-58833642D01*
X108420391Y-58903048D01*
X108412747Y-58929487D01*
X108376707Y-59016501D01*
X108362370Y-59088585D01*
X108353594Y-59132709D01*
X108345946Y-59171159D01*
X108345947Y-59213991D01*
X108345947Y-60740241D01*
X108344420Y-60759640D01*
X108339257Y-60792236D01*
X108327266Y-60829137D01*
X108316766Y-60849742D01*
X108293957Y-60881131D01*
X108277608Y-60897477D01*
X108246224Y-60920276D01*
X108225618Y-60930774D01*
X108188713Y-60942762D01*
X108155782Y-60947974D01*
X108136388Y-60949498D01*
X108088935Y-60949494D01*
X108088861Y-60949500D01*
X106509756Y-60949500D01*
X106490360Y-60947973D01*
X106474110Y-60945399D01*
X106457749Y-60942808D01*
X106420853Y-60930820D01*
X106400234Y-60920314D01*
X106368848Y-60897510D01*
X106352489Y-60881151D01*
X106329685Y-60849765D01*
X106329674Y-60849743D01*
X106319178Y-60829144D01*
X106307192Y-60792253D01*
X106302025Y-60759630D01*
X106300500Y-60740244D01*
X106300500Y-58231582D01*
X106775001Y-58231582D01*
X106781408Y-58302102D01*
X106781409Y-58302107D01*
X106831981Y-58464396D01*
X106919927Y-58609877D01*
X107040122Y-58730072D01*
X107185604Y-58818019D01*
X107185603Y-58818019D01*
X107347894Y-58868590D01*
X107347893Y-58868590D01*
X107418408Y-58874998D01*
X107418426Y-58874999D01*
X107424999Y-58874998D01*
X107425000Y-58874998D01*
X107425000Y-58150000D01*
X106775001Y-58150000D01*
X106775001Y-58231582D01*
X106300500Y-58231582D01*
X106300500Y-57610842D01*
X106295350Y-57568427D01*
X106775000Y-57568427D01*
X106775000Y-57650000D01*
X107425000Y-57650000D01*
X107425000Y-56925000D01*
X107424999Y-56924999D01*
X107418436Y-56925000D01*
X107418417Y-56925001D01*
X107347897Y-56931408D01*
X107347892Y-56931409D01*
X107185603Y-56981981D01*
X107040122Y-57069927D01*
X106919927Y-57190122D01*
X106831980Y-57335604D01*
X106781409Y-57497893D01*
X106775000Y-57568427D01*
X106295350Y-57568427D01*
X106289451Y-57519845D01*
X106266954Y-57334565D01*
X106200350Y-57064343D01*
X106199300Y-57061575D01*
X106101658Y-56804115D01*
X106038173Y-56683156D01*
X105972323Y-56557689D01*
X105814226Y-56328645D01*
X105663790Y-56158837D01*
X105655899Y-56149930D01*
X105626178Y-56086697D01*
X105635362Y-56017433D01*
X105680534Y-55964130D01*
X105747354Y-55943710D01*
X105752249Y-55943754D01*
X105753514Y-55943791D01*
X105753520Y-55943790D01*
X105758879Y-55943418D01*
X105767152Y-55942724D01*
X105772358Y-55942211D01*
X105824250Y-55931887D01*
X105827716Y-55931250D01*
X105867976Y-55924447D01*
X105879861Y-55922439D01*
X105885005Y-55921039D01*
X105892880Y-55918774D01*
X105898020Y-55917214D01*
X105898033Y-55917212D01*
X105946888Y-55896974D01*
X105950187Y-55895664D01*
X105972950Y-55886998D01*
X105999612Y-55876848D01*
X105999613Y-55876846D01*
X105999616Y-55876846D01*
X106004391Y-55874469D01*
X106011661Y-55870716D01*
X106016404Y-55868180D01*
X106016416Y-55868176D01*
X106060401Y-55838785D01*
X106063324Y-55836892D01*
X106108169Y-55808770D01*
X106108172Y-55808766D01*
X106112460Y-55805451D01*
X106118742Y-55800445D01*
X106122952Y-55796990D01*
X106122958Y-55796987D01*
X106160354Y-55759589D01*
X106162858Y-55757156D01*
X106201359Y-55720823D01*
X106201362Y-55720818D01*
X106204888Y-55716766D01*
X106210142Y-55710550D01*
X106213560Y-55706386D01*
X106213562Y-55706382D01*
X106213565Y-55706380D01*
X106242958Y-55662389D01*
X106244944Y-55659508D01*
X106408234Y-55429801D01*
X106458859Y-55388371D01*
X106615024Y-55318842D01*
X106755410Y-55216845D01*
X106871522Y-55087889D01*
X106958286Y-54937611D01*
X107011908Y-54772576D01*
X107030047Y-54600000D01*
X107011908Y-54427424D01*
X106961497Y-54272271D01*
X106958287Y-54262391D01*
X106943980Y-54237611D01*
X106871522Y-54112111D01*
X106863355Y-54103040D01*
X106755411Y-53983156D01*
X106732362Y-53966410D01*
X106623486Y-53887306D01*
X106615023Y-53881157D01*
X106456504Y-53810579D01*
X106456498Y-53810577D01*
X106298577Y-53777011D01*
X106286764Y-53774500D01*
X106113236Y-53774500D01*
X106101423Y-53777011D01*
X105943501Y-53810577D01*
X105943496Y-53810579D01*
X105784977Y-53881157D01*
X105784972Y-53881160D01*
X105644591Y-53983153D01*
X105644589Y-53983155D01*
X105528477Y-54112112D01*
X105441712Y-54262391D01*
X105388093Y-54427420D01*
X105388092Y-54427424D01*
X105377292Y-54530175D01*
X105350708Y-54594787D01*
X105293411Y-54634772D01*
X105253972Y-54641211D01*
X93821938Y-54641211D01*
X93754899Y-54621526D01*
X93709144Y-54568722D01*
X93699200Y-54499564D01*
X93728225Y-54436008D01*
X93729788Y-54434239D01*
X93733180Y-54430472D01*
X93771522Y-54387889D01*
X93858286Y-54237611D01*
X93911908Y-54072576D01*
X93930047Y-53900000D01*
X93911908Y-53727424D01*
X93873943Y-53610577D01*
X93858287Y-53562391D01*
X93851720Y-53551016D01*
X93771522Y-53412111D01*
X93764963Y-53404827D01*
X93751091Y-53389420D01*
X93691995Y-53323786D01*
X93661766Y-53260798D01*
X93670391Y-53191463D01*
X93676749Y-53178834D01*
X93758286Y-53037611D01*
X93811908Y-52872576D01*
X93830047Y-52700000D01*
X93811908Y-52527424D01*
X93773816Y-52410185D01*
X93758287Y-52362391D01*
X93740517Y-52331613D01*
X93671522Y-52212111D01*
X93616138Y-52150600D01*
X93555411Y-52083156D01*
X93415023Y-51981157D01*
X93256504Y-51910579D01*
X93256498Y-51910577D01*
X93122841Y-51882168D01*
X93086764Y-51874500D01*
X92913236Y-51874500D01*
X92883483Y-51880824D01*
X92743501Y-51910577D01*
X92743496Y-51910579D01*
X92584977Y-51981157D01*
X92584972Y-51981160D01*
X92444591Y-52083153D01*
X92444589Y-52083155D01*
X92328477Y-52212112D01*
X92241712Y-52362391D01*
X92198571Y-52495172D01*
X92188092Y-52527424D01*
X92172820Y-52672724D01*
X92169953Y-52700000D01*
X92188092Y-52872577D01*
X92195000Y-52893836D01*
X92196995Y-52963678D01*
X92160914Y-53023510D01*
X92098213Y-53054338D01*
X92040181Y-53050540D01*
X91977196Y-53030914D01*
X91977185Y-53030913D01*
X91906616Y-53024500D01*
X91393384Y-53024500D01*
X91374145Y-53026248D01*
X91322807Y-53030913D01*
X91160393Y-53081522D01*
X91014811Y-53169530D01*
X91014810Y-53169531D01*
X90912681Y-53271661D01*
X90851358Y-53305146D01*
X90781666Y-53300162D01*
X90737319Y-53271661D01*
X90629882Y-53164224D01*
X90631304Y-53162801D01*
X90596660Y-53114349D01*
X90593200Y-53044565D01*
X90628017Y-52983988D01*
X90674757Y-52955859D01*
X90808481Y-52911547D01*
X90808492Y-52911542D01*
X90952728Y-52822575D01*
X90952732Y-52822572D01*
X91072572Y-52702732D01*
X91072575Y-52702728D01*
X91161542Y-52558492D01*
X91161547Y-52558481D01*
X91214855Y-52397606D01*
X91224999Y-52298322D01*
X91225000Y-52298309D01*
X91225000Y-52250000D01*
X90149000Y-52250000D01*
X90081961Y-52230315D01*
X90036206Y-52177511D01*
X90025000Y-52126000D01*
X90025000Y-51750000D01*
X90525000Y-51750000D01*
X91224999Y-51750000D01*
X91224999Y-51701692D01*
X91224998Y-51701677D01*
X91214855Y-51602392D01*
X91161547Y-51441518D01*
X91161542Y-51441507D01*
X91072575Y-51297271D01*
X91072572Y-51297267D01*
X90952732Y-51177427D01*
X90952728Y-51177424D01*
X90808492Y-51088457D01*
X90808481Y-51088452D01*
X90647606Y-51035144D01*
X90548322Y-51025000D01*
X90525000Y-51025000D01*
X90525000Y-51750000D01*
X90025000Y-51750000D01*
X90025000Y-51024999D01*
X90001693Y-51025000D01*
X90001674Y-51025001D01*
X89902392Y-51035144D01*
X89741518Y-51088452D01*
X89741507Y-51088457D01*
X89597271Y-51177424D01*
X89597265Y-51177428D01*
X89588031Y-51186663D01*
X89526707Y-51220146D01*
X89457015Y-51215159D01*
X89412672Y-51186660D01*
X89403044Y-51177032D01*
X89403040Y-51177029D01*
X89258705Y-51088001D01*
X89258699Y-51087998D01*
X89258697Y-51087997D01*
X89221234Y-51075583D01*
X89097709Y-51034651D01*
X88998346Y-51024500D01*
X88451662Y-51024500D01*
X88451644Y-51024501D01*
X88352292Y-51034650D01*
X88352289Y-51034651D01*
X88191305Y-51087996D01*
X88191294Y-51088001D01*
X88046959Y-51177029D01*
X88046955Y-51177032D01*
X87927032Y-51296955D01*
X87927029Y-51296959D01*
X87838001Y-51441294D01*
X87837996Y-51441305D01*
X87784651Y-51602290D01*
X87774500Y-51701647D01*
X87774500Y-52298337D01*
X87774501Y-52298355D01*
X87784650Y-52397707D01*
X87784651Y-52397710D01*
X87837996Y-52558694D01*
X87838001Y-52558705D01*
X87919152Y-52690270D01*
X87937593Y-52757662D01*
X87931545Y-52793684D01*
X87890880Y-52918842D01*
X87888092Y-52927424D01*
X87869953Y-53100000D01*
X87888092Y-53272576D01*
X87888093Y-53272579D01*
X87941712Y-53437606D01*
X87941717Y-53437617D01*
X87957886Y-53465622D01*
X87974500Y-53527623D01*
X87974500Y-53598918D01*
X87974500Y-53598920D01*
X87974499Y-53598920D01*
X88003340Y-53743907D01*
X88003342Y-53743913D01*
X88047077Y-53849500D01*
X88059917Y-53880497D01*
X88064467Y-53887306D01*
X88064468Y-53887309D01*
X88142046Y-54003414D01*
X88142052Y-54003421D01*
X88568163Y-54429530D01*
X88601648Y-54490853D01*
X88596664Y-54560544D01*
X88554793Y-54616478D01*
X88489328Y-54640895D01*
X88480482Y-54641211D01*
X83342410Y-54641211D01*
X83275371Y-54621526D01*
X83229616Y-54568722D01*
X83219089Y-54504251D01*
X83230047Y-54400000D01*
X83211908Y-54227424D01*
X83161596Y-54072576D01*
X83158287Y-54062391D01*
X83141527Y-54033362D01*
X83071522Y-53912111D01*
X82993538Y-53825500D01*
X82955411Y-53783156D01*
X82946953Y-53777011D01*
X82838680Y-53698345D01*
X82815023Y-53681157D01*
X82656503Y-53610579D01*
X82656498Y-53610577D01*
X82532446Y-53584209D01*
X82470964Y-53551016D01*
X82470546Y-53550600D01*
X82014674Y-53094727D01*
X82014673Y-53094726D01*
X81976780Y-53069407D01*
X81908127Y-53023535D01*
X81857083Y-53002392D01*
X81789744Y-52974499D01*
X81789738Y-52974497D01*
X81663691Y-52949424D01*
X81601780Y-52917039D01*
X81581768Y-52891959D01*
X81580472Y-52889815D01*
X81580468Y-52889811D01*
X81580467Y-52889809D01*
X81570662Y-52880004D01*
X81537177Y-52818681D01*
X81542161Y-52748989D01*
X81568199Y-52708477D01*
X81568095Y-52708395D01*
X81568933Y-52707334D01*
X81570668Y-52704636D01*
X81572575Y-52702728D01*
X81635939Y-52600000D01*
X82269953Y-52600000D01*
X82288092Y-52772576D01*
X82288093Y-52772579D01*
X82341712Y-52937608D01*
X82428477Y-53087887D01*
X82428476Y-53087887D01*
X82510349Y-53178816D01*
X82544590Y-53216845D01*
X82645024Y-53289815D01*
X82684976Y-53318842D01*
X82843495Y-53389420D01*
X82843501Y-53389422D01*
X83013236Y-53425500D01*
X83013237Y-53425500D01*
X83186762Y-53425500D01*
X83186764Y-53425500D01*
X83356499Y-53389422D01*
X83356501Y-53389420D01*
X83356504Y-53389420D01*
X83472868Y-53337611D01*
X83515024Y-53318842D01*
X83655410Y-53216845D01*
X83771522Y-53087889D01*
X83858286Y-52937611D01*
X83911908Y-52772576D01*
X83930047Y-52600000D01*
X83911908Y-52427424D01*
X83864385Y-52281160D01*
X83858287Y-52262391D01*
X83843980Y-52237611D01*
X83771522Y-52112111D01*
X83659899Y-51988140D01*
X83655411Y-51983156D01*
X83646953Y-51977011D01*
X83540958Y-51900000D01*
X83515023Y-51881157D01*
X83356504Y-51810579D01*
X83356498Y-51810577D01*
X83198643Y-51777025D01*
X83186764Y-51774500D01*
X83013236Y-51774500D01*
X83001357Y-51777025D01*
X82843501Y-51810577D01*
X82843496Y-51810579D01*
X82684977Y-51881157D01*
X82684972Y-51881160D01*
X82544591Y-51983153D01*
X82544589Y-51983155D01*
X82428477Y-52112112D01*
X82341712Y-52262391D01*
X82288879Y-52425001D01*
X82288092Y-52427424D01*
X82269953Y-52600000D01*
X81635939Y-52600000D01*
X81661542Y-52558492D01*
X81661547Y-52558481D01*
X81714855Y-52397606D01*
X81724999Y-52298322D01*
X81725000Y-52298309D01*
X81725000Y-52250000D01*
X80649000Y-52250000D01*
X80581961Y-52230315D01*
X80536206Y-52177511D01*
X80525000Y-52126000D01*
X80525000Y-51750000D01*
X81025000Y-51750000D01*
X81724999Y-51750000D01*
X81724999Y-51701692D01*
X81724998Y-51701677D01*
X81714855Y-51602392D01*
X81661547Y-51441518D01*
X81661542Y-51441507D01*
X81572575Y-51297271D01*
X81572572Y-51297267D01*
X81452732Y-51177427D01*
X81452728Y-51177424D01*
X81308492Y-51088457D01*
X81308481Y-51088452D01*
X81147606Y-51035144D01*
X81048322Y-51025000D01*
X81025000Y-51025000D01*
X81025000Y-51750000D01*
X80525000Y-51750000D01*
X80525000Y-51024999D01*
X80501693Y-51025000D01*
X80501674Y-51025001D01*
X80402392Y-51035144D01*
X80241518Y-51088452D01*
X80241507Y-51088457D01*
X80097271Y-51177424D01*
X80097265Y-51177428D01*
X80088031Y-51186663D01*
X80026707Y-51220146D01*
X79957015Y-51215159D01*
X79912672Y-51186660D01*
X79903044Y-51177032D01*
X79903040Y-51177029D01*
X79758705Y-51088001D01*
X79758699Y-51087998D01*
X79758697Y-51087997D01*
X79721234Y-51075583D01*
X79597709Y-51034651D01*
X79498346Y-51024500D01*
X78951662Y-51024500D01*
X78951644Y-51024501D01*
X78852292Y-51034650D01*
X78852289Y-51034651D01*
X78691305Y-51087996D01*
X78691294Y-51088001D01*
X78546959Y-51177029D01*
X78546955Y-51177032D01*
X78427032Y-51296955D01*
X78427029Y-51296959D01*
X78338001Y-51441294D01*
X78337996Y-51441305D01*
X78284651Y-51602290D01*
X78274500Y-51701647D01*
X78274500Y-52298337D01*
X78274501Y-52298355D01*
X78284650Y-52397707D01*
X78284651Y-52397710D01*
X78337996Y-52558694D01*
X78337999Y-52558701D01*
X78343596Y-52567775D01*
X78364766Y-52602096D01*
X78383207Y-52669487D01*
X78382549Y-52680154D01*
X78371023Y-52789815D01*
X78369953Y-52800000D01*
X78376966Y-52866725D01*
X78380981Y-52904926D01*
X78368411Y-52973656D01*
X78363777Y-52982036D01*
X78331523Y-53035389D01*
X78280913Y-53197807D01*
X78274500Y-53268386D01*
X78274500Y-53931613D01*
X78280913Y-54002192D01*
X78280913Y-54002194D01*
X78280914Y-54002196D01*
X78331522Y-54164606D01*
X78407211Y-54289811D01*
X78419530Y-54310188D01*
X78539811Y-54430469D01*
X78539813Y-54430470D01*
X78539815Y-54430472D01*
X78685394Y-54518478D01*
X78847804Y-54569086D01*
X78918384Y-54575500D01*
X78918387Y-54575500D01*
X79431613Y-54575500D01*
X79431616Y-54575500D01*
X79502196Y-54569086D01*
X79664606Y-54518478D01*
X79810185Y-54430472D01*
X79852770Y-54387887D01*
X79912319Y-54328339D01*
X79973642Y-54294854D01*
X80043334Y-54299838D01*
X80087681Y-54328339D01*
X80189811Y-54430469D01*
X80189813Y-54430470D01*
X80189815Y-54430472D01*
X80335394Y-54518478D01*
X80497804Y-54569086D01*
X80568384Y-54575500D01*
X80568387Y-54575500D01*
X80705191Y-54575500D01*
X80772230Y-54595185D01*
X80817985Y-54647989D01*
X80827929Y-54717147D01*
X80798904Y-54780703D01*
X80792872Y-54787181D01*
X79444530Y-56135522D01*
X79383207Y-56169007D01*
X79327174Y-56168238D01*
X79207023Y-56138624D01*
X79036911Y-56138624D01*
X78871742Y-56179333D01*
X78721113Y-56258391D01*
X78666676Y-56303758D01*
X78666661Y-56303772D01*
X78303772Y-56666661D01*
X78303758Y-56666676D01*
X78258391Y-56721113D01*
X78179333Y-56871742D01*
X78138624Y-57036911D01*
X78138624Y-57111346D01*
X78118939Y-57178385D01*
X78066135Y-57224140D01*
X77996977Y-57234084D01*
X77933421Y-57205059D01*
X77926943Y-57199027D01*
X77812054Y-57084138D01*
X77781805Y-57034777D01*
X77758286Y-56962389D01*
X77671522Y-56812111D01*
X77665877Y-56805841D01*
X77555411Y-56683156D01*
X77532729Y-56666676D01*
X77415024Y-56581158D01*
X77256499Y-56510578D01*
X77256495Y-56510577D01*
X77250563Y-56507936D01*
X77251075Y-56506784D01*
X77208778Y-56480862D01*
X76844966Y-56117050D01*
X76844964Y-56117048D01*
X76763159Y-56062389D01*
X76722043Y-56034916D01*
X76722041Y-56034915D01*
X76722038Y-56034913D01*
X76585465Y-55978343D01*
X76585455Y-55978340D01*
X76440468Y-55949500D01*
X76440466Y-55949500D01*
X75226082Y-55949500D01*
X75226080Y-55949500D01*
X75081092Y-55978340D01*
X75081082Y-55978343D01*
X74944509Y-56034913D01*
X74937173Y-56039815D01*
X74903389Y-56062389D01*
X74821584Y-56117048D01*
X74821583Y-56117049D01*
X74821581Y-56117050D01*
X74084335Y-56854297D01*
X74023012Y-56887782D01*
X73996654Y-56890616D01*
X73945531Y-56890616D01*
X73780505Y-56929728D01*
X73780501Y-56929729D01*
X73628949Y-57005842D01*
X73551508Y-57068925D01*
X73551502Y-57068931D01*
X73164950Y-57455485D01*
X73164942Y-57455494D01*
X73101860Y-57532929D01*
X73101855Y-57532937D01*
X73025745Y-57684485D01*
X73025744Y-57684488D01*
X73025744Y-57684489D01*
X72993838Y-57819113D01*
X72986632Y-57849516D01*
X72986632Y-57863132D01*
X72966947Y-57930171D01*
X72914143Y-57975926D01*
X72862632Y-57987132D01*
X72849576Y-57987132D01*
X72684657Y-58026218D01*
X72533213Y-58102276D01*
X72533206Y-58102281D01*
X72455836Y-58165307D01*
X72455829Y-58165313D01*
X72439338Y-58181802D01*
X72951992Y-58694455D01*
X73828202Y-59570665D01*
X73861168Y-59580345D01*
X73906923Y-59633149D01*
X73912059Y-59646340D01*
X73915216Y-59656058D01*
X73941712Y-59737608D01*
X73941714Y-59737611D01*
X74018032Y-59869797D01*
X74028477Y-59887887D01*
X74028476Y-59887887D01*
X74095560Y-59962391D01*
X74144590Y-60016845D01*
X74242664Y-60088100D01*
X74284976Y-60118842D01*
X74443495Y-60189420D01*
X74443501Y-60189422D01*
X74613236Y-60225500D01*
X74613237Y-60225500D01*
X74786762Y-60225500D01*
X74786764Y-60225500D01*
X74940521Y-60192818D01*
X75010187Y-60198134D01*
X75065921Y-60240271D01*
X75090026Y-60305851D01*
X75074849Y-60374052D01*
X75039187Y-60414426D01*
X74944588Y-60483156D01*
X74828477Y-60612112D01*
X74741712Y-60762391D01*
X74688093Y-60927420D01*
X74688091Y-60927428D01*
X74685100Y-60955877D01*
X74658513Y-61020491D01*
X74649461Y-61030591D01*
X74532554Y-61147498D01*
X74471231Y-61180983D01*
X74422935Y-61180322D01*
X74422833Y-61181165D01*
X74415387Y-61180261D01*
X74415386Y-61180261D01*
X74245274Y-61180261D01*
X74080105Y-61220970D01*
X73929476Y-61300028D01*
X73875039Y-61345395D01*
X73875024Y-61345409D01*
X73512135Y-61708298D01*
X73512121Y-61708313D01*
X73466754Y-61762750D01*
X73387696Y-61913379D01*
X73346987Y-62078548D01*
X73346987Y-62152805D01*
X73327302Y-62219844D01*
X73274498Y-62265599D01*
X73205340Y-62275543D01*
X73141784Y-62246518D01*
X73135306Y-62240486D01*
X73071300Y-62176480D01*
X73051594Y-62150799D01*
X72971522Y-62012111D01*
X72855410Y-61883155D01*
X72817022Y-61855264D01*
X72715025Y-61781158D01*
X72665632Y-61759167D01*
X72628390Y-61733571D01*
X72411868Y-61517048D01*
X72411867Y-61517047D01*
X72411866Y-61517046D01*
X72334203Y-61465154D01*
X72334203Y-61465155D01*
X72288943Y-61434913D01*
X72152369Y-61378343D01*
X72152359Y-61378340D01*
X72007372Y-61349500D01*
X72007370Y-61349500D01*
X69826082Y-61349500D01*
X69826080Y-61349500D01*
X69681092Y-61378340D01*
X69681082Y-61378343D01*
X69544508Y-61434913D01*
X69499249Y-61465155D01*
X69499248Y-61465154D01*
X69421589Y-61517044D01*
X69421581Y-61517050D01*
X68341408Y-62597223D01*
X68280085Y-62630708D01*
X68210393Y-62625724D01*
X68154460Y-62583852D01*
X68130043Y-62518388D01*
X68130241Y-62506499D01*
X68130047Y-62506499D01*
X68130047Y-62500003D01*
X68130047Y-62500000D01*
X68111908Y-62327424D01*
X68074441Y-62212111D01*
X68056569Y-62157103D01*
X68050500Y-62118786D01*
X68050500Y-61717928D01*
X68070185Y-61650889D01*
X68122989Y-61605134D01*
X68144819Y-61597533D01*
X68219895Y-61579029D01*
X68370522Y-61499973D01*
X68424965Y-61454601D01*
X68787875Y-61091691D01*
X68833247Y-61037248D01*
X68912303Y-60886621D01*
X68953013Y-60721452D01*
X68953013Y-60577013D01*
X68972698Y-60509974D01*
X69025502Y-60464219D01*
X69077013Y-60453013D01*
X69221452Y-60453013D01*
X69386621Y-60412303D01*
X69537248Y-60333247D01*
X69591691Y-60287875D01*
X69934363Y-59945202D01*
X69995684Y-59911719D01*
X70047819Y-59911595D01*
X70113236Y-59925500D01*
X70113238Y-59925500D01*
X70286762Y-59925500D01*
X70286764Y-59925500D01*
X70423039Y-59896534D01*
X72457017Y-59896534D01*
X72457017Y-59896535D01*
X72491178Y-59930696D01*
X72491194Y-59930710D01*
X72568561Y-59993734D01*
X72568568Y-59993739D01*
X72720012Y-60069797D01*
X72884931Y-60108884D01*
X73054408Y-60108884D01*
X73219326Y-60069797D01*
X73370770Y-59993739D01*
X73370777Y-59993734D01*
X73448155Y-59930701D01*
X73448159Y-59930698D01*
X73464643Y-59914212D01*
X72951993Y-59401561D01*
X72951992Y-59401561D01*
X72457017Y-59896534D01*
X70423039Y-59896534D01*
X70456499Y-59889422D01*
X70456501Y-59889420D01*
X70456504Y-59889420D01*
X70543919Y-59850500D01*
X70615024Y-59818842D01*
X70755410Y-59716845D01*
X70871522Y-59587889D01*
X70958286Y-59437611D01*
X71011908Y-59272576D01*
X71030047Y-59100000D01*
X71013817Y-58945591D01*
X71891116Y-58945591D01*
X71891116Y-59115069D01*
X71930202Y-59279987D01*
X72006260Y-59431431D01*
X72006265Y-59431438D01*
X72069297Y-59508815D01*
X72069309Y-59508829D01*
X72103464Y-59542982D01*
X72103465Y-59542982D01*
X72598439Y-59048008D01*
X72598439Y-59048007D01*
X72085786Y-58535355D01*
X72085785Y-58535355D01*
X72069310Y-58551832D01*
X72069299Y-58551844D01*
X72006261Y-58629227D01*
X72006260Y-58629229D01*
X71930202Y-58780673D01*
X71891116Y-58945591D01*
X71013817Y-58945591D01*
X71011908Y-58927424D01*
X70973218Y-58808345D01*
X70958287Y-58762391D01*
X70950684Y-58749223D01*
X70916230Y-58689546D01*
X70913389Y-58684625D01*
X70896916Y-58616724D01*
X70919769Y-58550698D01*
X70947891Y-58522307D01*
X70955410Y-58516845D01*
X71071522Y-58387889D01*
X71158286Y-58237611D01*
X71211908Y-58072576D01*
X71230047Y-57900000D01*
X71211908Y-57727424D01*
X71166509Y-57587696D01*
X71158287Y-57562391D01*
X71151822Y-57551193D01*
X71071522Y-57412111D01*
X70962331Y-57290841D01*
X70955411Y-57283156D01*
X70920826Y-57258028D01*
X70815024Y-57181158D01*
X70757587Y-57155585D01*
X70704352Y-57110337D01*
X70684030Y-57043488D01*
X70703075Y-56976264D01*
X70720338Y-56954631D01*
X78368741Y-49306229D01*
X78430062Y-49272746D01*
X78499754Y-49277730D01*
X78555687Y-49319602D01*
X78580104Y-49385066D01*
X78579741Y-49406873D01*
X78575032Y-49451677D01*
X78569953Y-49500000D01*
X78588092Y-49672576D01*
X78588093Y-49672579D01*
X78641712Y-49837608D01*
X78692457Y-49925500D01*
X78725745Y-49983156D01*
X78728477Y-49987887D01*
X78728476Y-49987887D01*
X78840328Y-50112111D01*
X78844590Y-50116845D01*
X78975712Y-50212111D01*
X78984976Y-50218842D01*
X79143495Y-50289420D01*
X79143501Y-50289422D01*
X79313236Y-50325500D01*
X79313237Y-50325500D01*
X79486762Y-50325500D01*
X79486764Y-50325500D01*
X79656499Y-50289422D01*
X79703112Y-50268668D01*
X79719842Y-50261220D01*
X79770277Y-50250500D01*
X83083480Y-50250500D01*
X83150519Y-50270185D01*
X83171161Y-50286819D01*
X83289811Y-50405469D01*
X83289813Y-50405470D01*
X83289815Y-50405472D01*
X83435394Y-50493478D01*
X83597804Y-50544086D01*
X83668384Y-50550500D01*
X83668387Y-50550500D01*
X84181613Y-50550500D01*
X84181616Y-50550500D01*
X84252196Y-50544086D01*
X84414606Y-50493478D01*
X84560185Y-50405472D01*
X84603268Y-50362389D01*
X84662319Y-50303339D01*
X84723642Y-50269854D01*
X84793334Y-50274838D01*
X84837681Y-50303339D01*
X84939811Y-50405469D01*
X84939813Y-50405470D01*
X84939815Y-50405472D01*
X85085394Y-50493478D01*
X85247804Y-50544086D01*
X85318384Y-50550500D01*
X85549274Y-50550500D01*
X85616313Y-50570185D01*
X85662068Y-50622989D01*
X85672012Y-50692147D01*
X85656662Y-50736499D01*
X85641712Y-50762392D01*
X85594925Y-50906394D01*
X85588092Y-50927424D01*
X85569953Y-51100000D01*
X85588092Y-51272576D01*
X85588093Y-51272579D01*
X85641712Y-51437608D01*
X85677735Y-51500000D01*
X85725745Y-51583156D01*
X85728477Y-51587887D01*
X85728476Y-51587887D01*
X85840328Y-51712111D01*
X85844590Y-51716845D01*
X85949788Y-51793276D01*
X85984976Y-51818842D01*
X86143495Y-51889420D01*
X86143501Y-51889422D01*
X86313236Y-51925500D01*
X86313237Y-51925500D01*
X86486762Y-51925500D01*
X86486764Y-51925500D01*
X86656499Y-51889422D01*
X86656501Y-51889420D01*
X86656504Y-51889420D01*
X86709899Y-51865646D01*
X86815024Y-51818842D01*
X86955410Y-51716845D01*
X87071522Y-51587889D01*
X87158286Y-51437611D01*
X87211908Y-51272576D01*
X87230047Y-51100000D01*
X87211908Y-50927424D01*
X87170506Y-50800000D01*
X87158287Y-50762391D01*
X87156434Y-50759181D01*
X87071522Y-50612111D01*
X87023243Y-50558492D01*
X86955410Y-50483155D01*
X86943935Y-50474818D01*
X86901269Y-50419489D01*
X86895290Y-50349876D01*
X86927895Y-50288081D01*
X86988733Y-50253723D01*
X87016820Y-50250500D01*
X89429723Y-50250500D01*
X89480158Y-50261220D01*
X89500294Y-50270185D01*
X89543501Y-50289422D01*
X89713236Y-50325500D01*
X89713237Y-50325500D01*
X89886762Y-50325500D01*
X89886764Y-50325500D01*
X90056499Y-50289422D01*
X90056501Y-50289420D01*
X90056504Y-50289420D01*
X90109899Y-50265646D01*
X90215024Y-50218842D01*
X90355410Y-50116845D01*
X90471522Y-49987889D01*
X90558286Y-49837611D01*
X90602462Y-49701647D01*
X97274500Y-49701647D01*
X97274500Y-50298337D01*
X97274501Y-50298355D01*
X97284650Y-50397707D01*
X97284651Y-50397710D01*
X97337996Y-50558694D01*
X97338001Y-50558705D01*
X97427029Y-50703040D01*
X97427032Y-50703044D01*
X97438181Y-50714193D01*
X97471666Y-50775516D01*
X97473534Y-50792894D01*
X97473903Y-50792858D01*
X97474499Y-50798920D01*
X97503340Y-50943907D01*
X97503343Y-50943917D01*
X97559913Y-51080490D01*
X97559914Y-51080492D01*
X97588674Y-51123534D01*
X97588675Y-51123536D01*
X97642043Y-51203410D01*
X97642047Y-51203415D01*
X97704043Y-51265411D01*
X97734292Y-51314772D01*
X97741710Y-51337601D01*
X97741714Y-51337611D01*
X97801705Y-51441518D01*
X97828477Y-51487887D01*
X97828476Y-51487887D01*
X97931577Y-51602392D01*
X97944590Y-51616845D01*
X98084976Y-51718842D01*
X98194666Y-51767679D01*
X98231908Y-51793276D01*
X98631672Y-52193039D01*
X99021585Y-52582952D01*
X99041985Y-52596582D01*
X99041988Y-52596586D01*
X99041989Y-52596585D01*
X99117796Y-52647238D01*
X99155020Y-52686187D01*
X99169528Y-52710186D01*
X99289811Y-52830469D01*
X99289813Y-52830470D01*
X99289815Y-52830472D01*
X99435394Y-52918478D01*
X99597804Y-52969086D01*
X99668384Y-52975500D01*
X99668387Y-52975500D01*
X100181613Y-52975500D01*
X100181616Y-52975500D01*
X100252196Y-52969086D01*
X100414606Y-52918478D01*
X100560185Y-52830472D01*
X100606958Y-52783699D01*
X100662319Y-52728339D01*
X100723642Y-52694854D01*
X100793334Y-52699838D01*
X100837681Y-52728339D01*
X100939811Y-52830469D01*
X100939813Y-52830470D01*
X100939815Y-52830472D01*
X101085394Y-52918478D01*
X101247804Y-52969086D01*
X101318384Y-52975500D01*
X101579192Y-52975500D01*
X101646231Y-52995185D01*
X101666873Y-53011819D01*
X101860324Y-53205271D01*
X101860327Y-53205274D01*
X101937468Y-53256818D01*
X101937469Y-53256818D01*
X101943426Y-53260798D01*
X101966872Y-53276465D01*
X102005679Y-53292539D01*
X102085256Y-53325501D01*
X102085260Y-53325501D01*
X102085261Y-53325502D01*
X102210928Y-53350500D01*
X102210931Y-53350500D01*
X102750621Y-53350500D01*
X102817660Y-53370185D01*
X102823506Y-53374182D01*
X102884971Y-53418839D01*
X102884972Y-53418839D01*
X102884976Y-53418842D01*
X102979819Y-53461069D01*
X103043495Y-53489420D01*
X103043501Y-53489422D01*
X103213236Y-53525500D01*
X103213237Y-53525500D01*
X103386762Y-53525500D01*
X103386764Y-53525500D01*
X103556499Y-53489422D01*
X103556501Y-53489420D01*
X103556504Y-53489420D01*
X103609955Y-53465622D01*
X103715024Y-53418842D01*
X103855410Y-53316845D01*
X103971522Y-53187889D01*
X104058286Y-53037611D01*
X104111908Y-52872576D01*
X104130047Y-52700000D01*
X104111908Y-52527424D01*
X104073816Y-52410185D01*
X104058287Y-52362391D01*
X104040517Y-52331613D01*
X103971522Y-52212111D01*
X103916138Y-52150600D01*
X103855411Y-52083156D01*
X103715023Y-51981157D01*
X103556504Y-51910579D01*
X103556498Y-51910577D01*
X103422841Y-51882168D01*
X103386764Y-51874500D01*
X103213236Y-51874500D01*
X103183483Y-51880824D01*
X103043501Y-51910577D01*
X103043496Y-51910579D01*
X102884977Y-51981157D01*
X102884972Y-51981160D01*
X102823507Y-52025818D01*
X102757701Y-52049298D01*
X102750622Y-52049500D01*
X102599500Y-52049500D01*
X102532461Y-52029815D01*
X102486706Y-51977011D01*
X102475500Y-51925500D01*
X102475500Y-51668386D01*
X102469494Y-51602292D01*
X102469086Y-51597804D01*
X102424865Y-51455894D01*
X102423716Y-51386036D01*
X102460517Y-51326644D01*
X102517469Y-51297718D01*
X102556499Y-51289422D01*
X102556503Y-51289420D01*
X102556504Y-51289420D01*
X102610428Y-51265411D01*
X102715024Y-51218842D01*
X102855410Y-51116845D01*
X102971522Y-50987889D01*
X103058286Y-50837611D01*
X103111908Y-50672576D01*
X103130047Y-50500000D01*
X103111908Y-50327424D01*
X103068245Y-50193039D01*
X103058287Y-50162391D01*
X103049810Y-50147708D01*
X102971522Y-50012111D01*
X102904440Y-49937608D01*
X102855411Y-49883156D01*
X102715023Y-49781157D01*
X102556504Y-49710579D01*
X102556498Y-49710577D01*
X102422841Y-49682168D01*
X102386764Y-49674500D01*
X102213236Y-49674500D01*
X102183483Y-49680824D01*
X102043501Y-49710577D01*
X102043496Y-49710579D01*
X101884977Y-49781157D01*
X101884972Y-49781160D01*
X101744591Y-49883153D01*
X101744589Y-49883155D01*
X101628477Y-50012112D01*
X101541712Y-50162391D01*
X101490880Y-50318842D01*
X101488092Y-50327424D01*
X101469953Y-50500000D01*
X101488092Y-50672576D01*
X101488093Y-50672579D01*
X101541712Y-50837607D01*
X101541713Y-50837608D01*
X101541714Y-50837611D01*
X101542225Y-50838496D01*
X101542365Y-50839075D01*
X101544356Y-50843545D01*
X101543538Y-50843908D01*
X101558701Y-50906394D01*
X101535852Y-50972422D01*
X101480933Y-51015615D01*
X101434841Y-51024500D01*
X101318384Y-51024500D01*
X101299145Y-51026248D01*
X101247807Y-51030913D01*
X101085393Y-51081522D01*
X100939811Y-51169530D01*
X100939810Y-51169531D01*
X100837681Y-51271661D01*
X100776358Y-51305146D01*
X100706666Y-51300162D01*
X100662319Y-51271661D01*
X100560188Y-51169530D01*
X100560185Y-51169528D01*
X100414606Y-51081522D01*
X100414604Y-51081521D01*
X100414602Y-51081520D01*
X100407765Y-51078443D01*
X100409051Y-51075583D01*
X100362765Y-51044717D01*
X100334821Y-50980679D01*
X100345934Y-50911699D01*
X100392577Y-50859677D01*
X100392743Y-50859574D01*
X100452733Y-50822571D01*
X100572572Y-50702732D01*
X100572575Y-50702728D01*
X100661542Y-50558492D01*
X100661547Y-50558481D01*
X100714855Y-50397606D01*
X100724999Y-50298322D01*
X100725000Y-50298309D01*
X100725000Y-50250000D01*
X99649000Y-50250000D01*
X99581961Y-50230315D01*
X99536206Y-50177511D01*
X99525000Y-50126000D01*
X99525000Y-49750000D01*
X100025000Y-49750000D01*
X100724999Y-49750000D01*
X100724999Y-49701692D01*
X100724998Y-49701677D01*
X100714855Y-49602392D01*
X100661547Y-49441518D01*
X100661542Y-49441507D01*
X100572575Y-49297271D01*
X100572572Y-49297267D01*
X100452732Y-49177427D01*
X100452728Y-49177424D01*
X100308492Y-49088457D01*
X100308481Y-49088452D01*
X100147606Y-49035144D01*
X100048322Y-49025000D01*
X100025000Y-49025000D01*
X100025000Y-49750000D01*
X99525000Y-49750000D01*
X99525000Y-49024999D01*
X99501693Y-49025000D01*
X99501674Y-49025001D01*
X99402392Y-49035144D01*
X99241518Y-49088452D01*
X99241507Y-49088457D01*
X99097271Y-49177424D01*
X99097265Y-49177428D01*
X99088031Y-49186663D01*
X99026707Y-49220146D01*
X98957015Y-49215159D01*
X98912672Y-49186660D01*
X98903044Y-49177032D01*
X98903040Y-49177029D01*
X98758705Y-49088001D01*
X98758699Y-49087998D01*
X98758697Y-49087997D01*
X98755142Y-49086819D01*
X98597709Y-49034651D01*
X98498346Y-49024500D01*
X97951662Y-49024500D01*
X97951644Y-49024501D01*
X97852292Y-49034650D01*
X97852289Y-49034651D01*
X97691305Y-49087996D01*
X97691294Y-49088001D01*
X97546959Y-49177029D01*
X97546955Y-49177032D01*
X97427032Y-49296955D01*
X97427029Y-49296959D01*
X97338001Y-49441294D01*
X97337996Y-49441305D01*
X97284651Y-49602290D01*
X97274500Y-49701647D01*
X90602462Y-49701647D01*
X90611908Y-49672576D01*
X90630047Y-49500000D01*
X90611908Y-49327424D01*
X90574671Y-49212817D01*
X90572676Y-49142976D01*
X90608757Y-49083143D01*
X90671458Y-49052316D01*
X90692602Y-49050500D01*
X93039560Y-49050500D01*
X93039562Y-49050500D01*
X93115989Y-49030021D01*
X93184511Y-48990460D01*
X93240460Y-48934511D01*
X95338152Y-46836819D01*
X95399475Y-46803334D01*
X95425833Y-46800500D01*
X97340505Y-46800500D01*
X97407544Y-46820185D01*
G37*
%TD.AperFunction*%
%TA.AperFunction,Conductor*%
G36*
X115968334Y-57449838D02*
G01*
X116012681Y-57478339D01*
X116114811Y-57580469D01*
X116114813Y-57580470D01*
X116114815Y-57580472D01*
X116260394Y-57668478D01*
X116422804Y-57719086D01*
X116493384Y-57725500D01*
X116493387Y-57725500D01*
X117006613Y-57725500D01*
X117006616Y-57725500D01*
X117077196Y-57719086D01*
X117239606Y-57668478D01*
X117385185Y-57580472D01*
X117414464Y-57551192D01*
X117475782Y-57517709D01*
X117545474Y-57522691D01*
X117589825Y-57551193D01*
X118321586Y-58282954D01*
X118344712Y-58298405D01*
X118379404Y-58321585D01*
X118444505Y-58365084D01*
X118444507Y-58365085D01*
X118444511Y-58365087D01*
X118579136Y-58420850D01*
X118581087Y-58421658D01*
X118581091Y-58421658D01*
X118581092Y-58421659D01*
X118726079Y-58450500D01*
X118726082Y-58450500D01*
X118726083Y-58450500D01*
X118873917Y-58450500D01*
X119429723Y-58450500D01*
X119480158Y-58461220D01*
X119505938Y-58472698D01*
X119543501Y-58489422D01*
X119713236Y-58525500D01*
X119713237Y-58525500D01*
X119886762Y-58525500D01*
X119886764Y-58525500D01*
X120049719Y-58490863D01*
X120119386Y-58496179D01*
X120175120Y-58538316D01*
X120199225Y-58603896D01*
X120199500Y-58612153D01*
X120199500Y-60740244D01*
X120197973Y-60759644D01*
X120192808Y-60792251D01*
X120180820Y-60829146D01*
X120170314Y-60849765D01*
X120147510Y-60881151D01*
X120131151Y-60897510D01*
X120099765Y-60920314D01*
X120079146Y-60930820D01*
X120042251Y-60942808D01*
X120029663Y-60944801D01*
X120009638Y-60947973D01*
X119990244Y-60949500D01*
X118363342Y-60949500D01*
X118343938Y-60947972D01*
X118311307Y-60942801D01*
X118274420Y-60930815D01*
X118253777Y-60920297D01*
X118222398Y-60897500D01*
X118206009Y-60881113D01*
X118183215Y-60849743D01*
X118178486Y-60840466D01*
X118172694Y-60829101D01*
X118160703Y-60792218D01*
X118155581Y-60759914D01*
X118154053Y-60740504D01*
X118154053Y-59202545D01*
X118154008Y-59201883D01*
X118154015Y-59171213D01*
X118123275Y-59016543D01*
X118062946Y-58870845D01*
X117975348Y-58739719D01*
X117940906Y-58705273D01*
X117863849Y-58628207D01*
X117863847Y-58628206D01*
X117732732Y-58540595D01*
X117732722Y-58540590D01*
X117587044Y-58480252D01*
X117587041Y-58480251D01*
X117587038Y-58480250D01*
X117432372Y-58449494D01*
X117353525Y-58449500D01*
X112480205Y-58449500D01*
X112413166Y-58429815D01*
X112367411Y-58377011D01*
X112357467Y-58307853D01*
X112362470Y-58290152D01*
X112361568Y-58289890D01*
X112409597Y-58124573D01*
X112409598Y-58124567D01*
X112411352Y-58102276D01*
X112412500Y-58087694D01*
X112412500Y-57846500D01*
X112432185Y-57779461D01*
X112484989Y-57733706D01*
X112536500Y-57722500D01*
X113702686Y-57722500D01*
X113702694Y-57722500D01*
X113739569Y-57719598D01*
X113739571Y-57719597D01*
X113739573Y-57719597D01*
X113884733Y-57677424D01*
X113919328Y-57672500D01*
X114604428Y-57672500D01*
X114641317Y-57678114D01*
X114772804Y-57719086D01*
X114843384Y-57725500D01*
X114843387Y-57725500D01*
X115356613Y-57725500D01*
X115356616Y-57725500D01*
X115427196Y-57719086D01*
X115589606Y-57668478D01*
X115735185Y-57580472D01*
X115782728Y-57532929D01*
X115837319Y-57478339D01*
X115898642Y-57444854D01*
X115968334Y-57449838D01*
G37*
%TD.AperFunction*%
%TD*%
M02*
