%TF.GenerationSoftware,KiCad,Pcbnew,8.0.8*%
%TF.CreationDate,2025-02-04T17:25:34+01:00*%
%TF.ProjectId,IMU_PCB,494d555f-5043-4422-9e6b-696361645f70,rev?*%
%TF.SameCoordinates,Original*%
%TF.FileFunction,Copper,L1,Top*%
%TF.FilePolarity,Positive*%
%FSLAX46Y46*%
G04 Gerber Fmt 4.6, Leading zero omitted, Abs format (unit mm)*
G04 Created by KiCad (PCBNEW 8.0.8) date 2025-02-04 17:25:34*
%MOMM*%
%LPD*%
G01*
G04 APERTURE LIST*
G04 Aperture macros list*
%AMRoundRect*
0 Rectangle with rounded corners*
0 $1 Rounding radius*
0 $2 $3 $4 $5 $6 $7 $8 $9 X,Y pos of 4 corners*
0 Add a 4 corners polygon primitive as box body*
4,1,4,$2,$3,$4,$5,$6,$7,$8,$9,$2,$3,0*
0 Add four circle primitives for the rounded corners*
1,1,$1+$1,$2,$3*
1,1,$1+$1,$4,$5*
1,1,$1+$1,$6,$7*
1,1,$1+$1,$8,$9*
0 Add four rect primitives between the rounded corners*
20,1,$1+$1,$2,$3,$4,$5,0*
20,1,$1+$1,$4,$5,$6,$7,0*
20,1,$1+$1,$6,$7,$8,$9,0*
20,1,$1+$1,$8,$9,$2,$3,0*%
G04 Aperture macros list end*
%TA.AperFunction,SMDPad,CuDef*%
%ADD10RoundRect,0.375000X0.375000X-0.875000X0.375000X0.875000X-0.375000X0.875000X-0.375000X-0.875000X0*%
%TD*%
%TA.AperFunction,SMDPad,CuDef*%
%ADD11RoundRect,0.075000X-0.075000X0.350000X-0.075000X-0.350000X0.075000X-0.350000X0.075000X0.350000X0*%
%TD*%
%TA.AperFunction,SMDPad,CuDef*%
%ADD12RoundRect,0.075000X-0.350000X-0.075000X0.350000X-0.075000X0.350000X0.075000X-0.350000X0.075000X0*%
%TD*%
%TA.AperFunction,SMDPad,CuDef*%
%ADD13RoundRect,0.225000X0.225000X0.250000X-0.225000X0.250000X-0.225000X-0.250000X0.225000X-0.250000X0*%
%TD*%
%TA.AperFunction,SMDPad,CuDef*%
%ADD14RoundRect,0.225000X-0.225000X-0.250000X0.225000X-0.250000X0.225000X0.250000X-0.225000X0.250000X0*%
%TD*%
%TA.AperFunction,ViaPad*%
%ADD15C,0.600000*%
%TD*%
%TA.AperFunction,ViaPad*%
%ADD16C,0.900000*%
%TD*%
%TA.AperFunction,Conductor*%
%ADD17C,0.400000*%
%TD*%
%TA.AperFunction,Conductor*%
%ADD18C,0.200000*%
%TD*%
G04 APERTURE END LIST*
D10*
%TO.P,IMU_Conn1,1,Pin_1*%
%TO.N,+3.3V*%
X110525000Y-48350000D03*
%TO.P,IMU_Conn1,2,Pin_2*%
%TO.N,GND*%
X112525000Y-48350000D03*
%TO.P,IMU_Conn1,3,Pin_3*%
%TO.N,I2C3_IMU_INT*%
X114525000Y-48350000D03*
%TO.P,IMU_Conn1,4,Pin_4*%
%TO.N,I2C3_SDA*%
X116525000Y-48350000D03*
%TO.P,IMU_Conn1,5,Pin_5*%
%TO.N,I2C3_SCL*%
X118525000Y-48350000D03*
%TD*%
D11*
%TO.P,U2,1,CLKIN*%
%TO.N,unconnected-(U2-CLKIN-Pad1)*%
X115750000Y-41550000D03*
%TO.P,U2,2,NC*%
%TO.N,unconnected-(U2-NC-Pad2)*%
X115250000Y-41550000D03*
%TO.P,U2,3,NC*%
%TO.N,unconnected-(U2-NC-Pad3)*%
X114750000Y-41550000D03*
%TO.P,U2,4,NC*%
%TO.N,unconnected-(U2-NC-Pad4)*%
X114250000Y-41550000D03*
%TO.P,U2,5,NC*%
%TO.N,unconnected-(U2-NC-Pad5)*%
X113750000Y-41550000D03*
%TO.P,U2,6,AUX_DA*%
%TO.N,unconnected-(U2-AUX_DA-Pad6)*%
X113250000Y-41550000D03*
D12*
%TO.P,U2,7,AUX_CL*%
%TO.N,unconnected-(U2-AUX_CL-Pad7)*%
X112550000Y-42250000D03*
%TO.P,U2,8,VLOGIC*%
%TO.N,+3.3V*%
X112550000Y-42750000D03*
%TO.P,U2,9,AD0*%
%TO.N,unconnected-(U2-AD0-Pad9)*%
X112550000Y-43250000D03*
%TO.P,U2,10,REGOUT*%
%TO.N,Net-(U2-REGOUT)*%
X112550000Y-43750000D03*
%TO.P,U2,11,FSYNC*%
%TO.N,unconnected-(U2-FSYNC-Pad11)*%
X112550000Y-44250000D03*
%TO.P,U2,12,INT*%
%TO.N,I2C3_IMU_INT*%
X112550000Y-44750000D03*
D11*
%TO.P,U2,13,VDD*%
%TO.N,+3.3V*%
X113250000Y-45450000D03*
%TO.P,U2,14,NC*%
%TO.N,unconnected-(U2-NC-Pad14)*%
X113750000Y-45450000D03*
%TO.P,U2,15,NC*%
%TO.N,unconnected-(U2-NC-Pad15)*%
X114250000Y-45450000D03*
%TO.P,U2,16,NC*%
%TO.N,unconnected-(U2-NC-Pad16)*%
X114750000Y-45450000D03*
%TO.P,U2,17,NC*%
%TO.N,unconnected-(U2-NC-Pad17)*%
X115250000Y-45450000D03*
%TO.P,U2,18,GND*%
%TO.N,GND*%
X115750000Y-45450000D03*
D12*
%TO.P,U2,19,RESV*%
%TO.N,unconnected-(U2-RESV-Pad19)*%
X116450000Y-44750000D03*
%TO.P,U2,20,CPOUT*%
%TO.N,Net-(U2-CPOUT)*%
X116450000Y-44250000D03*
%TO.P,U2,21,RESV*%
%TO.N,unconnected-(U2-RESV-Pad21)*%
X116450000Y-43750000D03*
%TO.P,U2,22,RESV*%
%TO.N,unconnected-(U2-RESV-Pad22)*%
X116450000Y-43250000D03*
%TO.P,U2,23,SCL*%
%TO.N,I2C3_SCL*%
X116450000Y-42750000D03*
%TO.P,U2,24,SDA*%
%TO.N,I2C3_SDA*%
X116450000Y-42250000D03*
%TD*%
D13*
%TO.P,C5,1*%
%TO.N,Net-(U2-REGOUT)*%
X110550000Y-43600000D03*
%TO.P,C5,2*%
%TO.N,GND*%
X109000000Y-43600000D03*
%TD*%
%TO.P,C3,1*%
%TO.N,+3.3V*%
X110575000Y-42000000D03*
%TO.P,C3,2*%
%TO.N,GND*%
X109025000Y-42000000D03*
%TD*%
D14*
%TO.P,C4,1*%
%TO.N,GND*%
X109000000Y-45200000D03*
%TO.P,C4,2*%
%TO.N,+3.3V*%
X110550000Y-45200000D03*
%TD*%
D13*
%TO.P,C6,1*%
%TO.N,GND*%
X122250000Y-44200000D03*
%TO.P,C6,2*%
%TO.N,Net-(U2-CPOUT)*%
X120700000Y-44200000D03*
%TD*%
D15*
%TO.N,GND*%
X109025000Y-44500000D03*
X115500000Y-46500000D03*
D16*
X107300000Y-46600000D03*
D15*
X109025000Y-42800000D03*
D16*
X112000000Y-46400000D03*
X123600000Y-43100000D03*
D15*
%TO.N,I2C3_IMU_INT*%
X111600000Y-44500000D03*
X114200000Y-46500000D03*
%TO.N,I2C3_SCL*%
X117800000Y-43300000D03*
X119200000Y-45900000D03*
%TO.N,Net-(U2-CPOUT)*%
X118200000Y-44200000D03*
X119500000Y-44200000D03*
%TD*%
D17*
%TO.N,GND*%
X123600000Y-43800000D02*
X123200000Y-44200000D01*
X109025000Y-42000000D02*
X109025000Y-42800000D01*
X107300000Y-46600000D02*
X107200000Y-46600000D01*
X109025000Y-44500000D02*
X109025000Y-45175000D01*
X108600000Y-46500000D02*
X108500000Y-46600000D01*
X109000000Y-46100000D02*
X108600000Y-46500000D01*
D18*
X115750000Y-46250000D02*
X115500000Y-46500000D01*
D17*
X112000000Y-46400000D02*
X112525000Y-46925000D01*
X109000000Y-45200000D02*
X109000000Y-46100000D01*
X123200000Y-44200000D02*
X122250000Y-44200000D01*
X109025000Y-42800000D02*
X109025000Y-44500000D01*
X108500000Y-46600000D02*
X107300000Y-46600000D01*
X112525000Y-46925000D02*
X112525000Y-48350000D01*
X123600000Y-43100000D02*
X123600000Y-43800000D01*
D18*
X115750000Y-45450000D02*
X115750000Y-46250000D01*
%TO.N,I2C3_IMU_INT*%
X114200000Y-46500000D02*
X114525000Y-46825000D01*
X112550000Y-44750000D02*
X111850000Y-44750000D01*
X114525000Y-46825000D02*
X114525000Y-48350000D01*
X111850000Y-44750000D02*
X111600000Y-44500000D01*
X114200000Y-46500000D02*
X114100000Y-46500000D01*
%TO.N,+3.3V*%
X111550000Y-45450000D02*
X111300000Y-45200000D01*
X110575000Y-42000000D02*
X111200000Y-42000000D01*
X113250000Y-45450000D02*
X111550000Y-45450000D01*
X111200000Y-42000000D02*
X111600000Y-41600000D01*
D17*
X110525000Y-48350000D02*
X109050000Y-48350000D01*
X110525000Y-48350000D02*
X110525000Y-45225000D01*
D18*
X111300000Y-45200000D02*
X110550000Y-45200000D01*
X111325000Y-42750000D02*
X110575000Y-42000000D01*
X112550000Y-42750000D02*
X111325000Y-42750000D01*
%TO.N,I2C3_SCL*%
X118525000Y-46575000D02*
X118525000Y-48350000D01*
X117800000Y-43300000D02*
X117800000Y-43200000D01*
X117350000Y-42750000D02*
X116450000Y-42750000D01*
X119200000Y-45900000D02*
X118525000Y-46575000D01*
X117800000Y-43200000D02*
X117350000Y-42750000D01*
%TO.N,I2C3_SDA*%
X116450000Y-42250000D02*
X118250000Y-42250000D01*
X116525000Y-47475000D02*
X116525000Y-48350000D01*
X118800000Y-45200000D02*
X116525000Y-47475000D01*
X118250000Y-42250000D02*
X118800000Y-42800000D01*
X118800000Y-42800000D02*
X118800000Y-45200000D01*
X116600000Y-48400000D02*
X116500000Y-48500000D01*
%TO.N,Net-(U2-REGOUT)*%
X110550000Y-43600000D02*
X111300000Y-43600000D01*
X111450000Y-43750000D02*
X112550000Y-43750000D01*
X111300000Y-43600000D02*
X111450000Y-43750000D01*
%TO.N,Net-(U2-CPOUT)*%
X118200000Y-44200000D02*
X116500000Y-44200000D01*
X116500000Y-44200000D02*
X116450000Y-44250000D01*
X119500000Y-44200000D02*
X120700000Y-44200000D01*
%TD*%
%TA.AperFunction,Conductor*%
%TO.N,I2C3_IMU_INT*%
G36*
X114278958Y-46436673D02*
G01*
X114430985Y-46572783D01*
X115069534Y-47144477D01*
X115073412Y-47152549D01*
X115072366Y-47158069D01*
X114534160Y-48332263D01*
X114527598Y-48338356D01*
X114518649Y-48338024D01*
X114513977Y-48334152D01*
X113807332Y-47336839D01*
X113805346Y-47328108D01*
X113806120Y-47325479D01*
X114128404Y-46572779D01*
X114130882Y-46569118D01*
X114262883Y-46437117D01*
X114271155Y-46433691D01*
X114278958Y-46436673D01*
G37*
%TD.AperFunction*%
%TD*%
%TA.AperFunction,Conductor*%
%TO.N,I2C3_SDA*%
G36*
X117365968Y-46505309D02*
G01*
X117497020Y-46636361D01*
X117500447Y-46644634D01*
X117500364Y-46646024D01*
X117276558Y-48516093D01*
X117272172Y-48523901D01*
X117263551Y-48526320D01*
X117262236Y-48526086D01*
X116531872Y-48352508D01*
X116524615Y-48347261D01*
X116523031Y-48343021D01*
X116320385Y-47107978D01*
X116322427Y-47099261D01*
X116326076Y-47095956D01*
X117351844Y-46503450D01*
X117360721Y-46502280D01*
X117365968Y-46505309D01*
G37*
%TD.AperFunction*%
%TD*%
%TA.AperFunction,Conductor*%
%TO.N,I2C3_SCL*%
G36*
X118621663Y-46353526D02*
G01*
X118622397Y-46354200D01*
X118753734Y-46485537D01*
X118755573Y-46487925D01*
X119242668Y-47324986D01*
X119243868Y-47333861D01*
X119242103Y-47337635D01*
X118534995Y-48335602D01*
X118527415Y-48340371D01*
X118518684Y-48338385D01*
X118515242Y-48334559D01*
X117888795Y-47216900D01*
X117887739Y-47208007D01*
X117890052Y-47203642D01*
X118605179Y-46354932D01*
X118613128Y-46350815D01*
X118621663Y-46353526D01*
G37*
%TD.AperFunction*%
%TD*%
%TA.AperFunction,Conductor*%
%TO.N,GND*%
G36*
X112268105Y-46385107D02*
G01*
X112551272Y-46662926D01*
X113015777Y-47118659D01*
X113019282Y-47126899D01*
X113018431Y-47131395D01*
X112533726Y-48330861D01*
X112527449Y-48337247D01*
X112518494Y-48337325D01*
X112513331Y-48333241D01*
X111806684Y-47335924D01*
X111804698Y-47327193D01*
X111804903Y-47326235D01*
X111856379Y-47126899D01*
X111976195Y-46662923D01*
X111979247Y-46657580D01*
X112251641Y-46385186D01*
X112259913Y-46381760D01*
X112268105Y-46385107D01*
G37*
%TD.AperFunction*%
%TD*%
%TA.AperFunction,Conductor*%
%TO.N,+3.3V*%
G36*
X128503243Y-40300669D02*
G01*
X128827952Y-40317687D01*
X128840860Y-40319044D01*
X129158794Y-40369400D01*
X129171478Y-40372095D01*
X129482429Y-40455414D01*
X129494770Y-40459425D01*
X129795282Y-40574780D01*
X129807138Y-40580058D01*
X130093976Y-40726210D01*
X130105192Y-40732686D01*
X130375165Y-40908008D01*
X130385666Y-40915637D01*
X130635836Y-41118221D01*
X130645481Y-41126906D01*
X130873093Y-41354518D01*
X130881778Y-41364163D01*
X131084362Y-41614333D01*
X131091991Y-41624834D01*
X131267310Y-41894802D01*
X131273792Y-41906029D01*
X131334291Y-42024764D01*
X131419940Y-42192859D01*
X131425219Y-42204717D01*
X131540574Y-42505229D01*
X131544585Y-42517572D01*
X131627902Y-42828515D01*
X131630600Y-42841211D01*
X131680955Y-43159139D01*
X131682312Y-43172047D01*
X131699330Y-43496756D01*
X131699500Y-43503246D01*
X131699500Y-49996643D01*
X131699318Y-50003357D01*
X131681107Y-50339217D01*
X131679655Y-50352564D01*
X131625784Y-50681162D01*
X131622898Y-50694274D01*
X131533815Y-51015125D01*
X131529528Y-51027849D01*
X131406279Y-51337182D01*
X131400641Y-51349368D01*
X131244658Y-51643583D01*
X131237736Y-51655087D01*
X131050875Y-51930686D01*
X131042750Y-51941375D01*
X130827179Y-52195165D01*
X130817945Y-52204913D01*
X130576186Y-52433918D01*
X130565954Y-52442609D01*
X130300871Y-52644121D01*
X130289758Y-52651656D01*
X130004431Y-52823332D01*
X129992568Y-52829621D01*
X129690361Y-52969436D01*
X129677889Y-52974406D01*
X129362329Y-53080731D01*
X129349391Y-53084323D01*
X129024185Y-53155905D01*
X129010936Y-53158077D01*
X128679902Y-53194081D01*
X128666495Y-53194808D01*
X128333505Y-53194808D01*
X128320098Y-53194081D01*
X127989063Y-53158077D01*
X127975814Y-53155905D01*
X127650608Y-53084323D01*
X127637675Y-53080732D01*
X127474201Y-53025651D01*
X127322110Y-52974406D01*
X127309638Y-52969436D01*
X127007431Y-52829621D01*
X126995568Y-52823332D01*
X126989001Y-52819381D01*
X126710241Y-52651656D01*
X126699128Y-52644121D01*
X126434045Y-52442609D01*
X126423813Y-52433918D01*
X126182054Y-52204913D01*
X126172820Y-52195165D01*
X125957249Y-51941375D01*
X125949124Y-51930686D01*
X125762263Y-51655087D01*
X125755341Y-51643583D01*
X125599358Y-51349368D01*
X125593724Y-51337191D01*
X125470466Y-51027835D01*
X125466188Y-51015139D01*
X125377100Y-50694273D01*
X125374215Y-50681162D01*
X125320344Y-50352564D01*
X125318892Y-50339216D01*
X125300682Y-50003356D01*
X125300500Y-49996643D01*
X125300500Y-49952406D01*
X125300499Y-49952400D01*
X125289225Y-49917704D01*
X125287387Y-49911504D01*
X125283464Y-49896861D01*
X127189500Y-49896861D01*
X127189500Y-50103138D01*
X127221769Y-50306877D01*
X127221769Y-50306880D01*
X127285510Y-50503054D01*
X127285512Y-50503057D01*
X127379160Y-50686852D01*
X127500407Y-50853733D01*
X127646267Y-50999593D01*
X127813148Y-51120840D01*
X127996943Y-51214488D01*
X127996945Y-51214489D01*
X128193120Y-51278230D01*
X128193121Y-51278230D01*
X128193124Y-51278231D01*
X128396861Y-51310500D01*
X128396862Y-51310500D01*
X128603138Y-51310500D01*
X128603139Y-51310500D01*
X128806876Y-51278231D01*
X128806879Y-51278230D01*
X128806880Y-51278230D01*
X129003054Y-51214489D01*
X129003054Y-51214488D01*
X129003057Y-51214488D01*
X129186852Y-51120840D01*
X129353733Y-50999593D01*
X129499593Y-50853733D01*
X129620840Y-50686852D01*
X129714488Y-50503057D01*
X129778231Y-50306876D01*
X129810500Y-50103139D01*
X129810500Y-49896861D01*
X129778231Y-49693124D01*
X129778230Y-49693120D01*
X129778230Y-49693119D01*
X129714489Y-49496945D01*
X129714488Y-49496943D01*
X129620840Y-49313148D01*
X129499593Y-49146267D01*
X129353733Y-49000407D01*
X129186852Y-48879160D01*
X129003054Y-48785510D01*
X128806879Y-48721769D01*
X128654073Y-48697567D01*
X128603139Y-48689500D01*
X128396861Y-48689500D01*
X128328948Y-48700256D01*
X128193122Y-48721769D01*
X128193119Y-48721769D01*
X127996945Y-48785510D01*
X127813147Y-48879160D01*
X127646265Y-49000408D01*
X127500408Y-49146265D01*
X127379160Y-49313147D01*
X127285510Y-49496945D01*
X127221769Y-49693119D01*
X127221769Y-49693122D01*
X127189500Y-49896861D01*
X125283464Y-49896861D01*
X125280021Y-49884011D01*
X125280019Y-49884007D01*
X125276914Y-49876510D01*
X125277205Y-49876389D01*
X125272007Y-49864712D01*
X125271086Y-49861877D01*
X125271083Y-49861871D01*
X125256184Y-49841365D01*
X125249113Y-49830477D01*
X125240459Y-49815488D01*
X125240458Y-49815486D01*
X125236110Y-49811138D01*
X125223474Y-49796344D01*
X125215136Y-49784868D01*
X125215134Y-49784867D01*
X125215134Y-49784866D01*
X125203648Y-49776521D01*
X125188860Y-49763889D01*
X125184512Y-49759541D01*
X125184507Y-49759537D01*
X125169515Y-49750882D01*
X125158632Y-49743814D01*
X125138125Y-49728915D01*
X125138123Y-49728914D01*
X125138119Y-49728912D01*
X125135275Y-49727988D01*
X125123618Y-49722799D01*
X125123499Y-49723089D01*
X125115993Y-49719980D01*
X125109978Y-49718368D01*
X125088501Y-49712613D01*
X125082297Y-49710775D01*
X125074276Y-49708169D01*
X125047598Y-49699500D01*
X125047595Y-49699500D01*
X125039562Y-49699500D01*
X119841548Y-49699500D01*
X119774509Y-49679815D01*
X119728754Y-49627011D01*
X119718810Y-49557853D01*
X119725154Y-49532739D01*
X119726634Y-49528705D01*
X119726641Y-49528693D01*
X119772600Y-49343889D01*
X119775500Y-49301123D01*
X119775499Y-47398878D01*
X119772600Y-47356111D01*
X119726641Y-47171307D01*
X119694079Y-47105652D01*
X119690215Y-47097054D01*
X119679578Y-47070743D01*
X119662615Y-47041593D01*
X119658707Y-47034331D01*
X119642031Y-47000706D01*
X119642030Y-47000705D01*
X119642030Y-47000704D01*
X119636241Y-46993502D01*
X119625724Y-46978196D01*
X119515438Y-46788672D01*
X119498735Y-46720832D01*
X119521361Y-46654727D01*
X119556642Y-46621315D01*
X119585954Y-46602897D01*
X119702262Y-46529816D01*
X119829816Y-46402262D01*
X119925789Y-46249522D01*
X119985368Y-46079255D01*
X119985369Y-46079249D01*
X120005565Y-45900003D01*
X120005565Y-45899996D01*
X119985369Y-45720750D01*
X119985368Y-45720745D01*
X119945169Y-45605864D01*
X119925789Y-45550478D01*
X119829816Y-45397738D01*
X119702262Y-45270184D01*
X119702256Y-45270179D01*
X119614460Y-45215013D01*
X119568169Y-45162679D01*
X119557521Y-45093625D01*
X119585896Y-45029777D01*
X119644286Y-44991405D01*
X119666544Y-44986800D01*
X119679255Y-44985368D01*
X119679258Y-44985367D01*
X119679259Y-44985367D01*
X119720172Y-44971050D01*
X119831729Y-44932014D01*
X119901505Y-44928452D01*
X119960363Y-44961375D01*
X120021955Y-45022967D01*
X120021959Y-45022970D01*
X120166294Y-45111998D01*
X120166297Y-45111999D01*
X120166303Y-45112003D01*
X120327292Y-45165349D01*
X120426655Y-45175500D01*
X120973344Y-45175499D01*
X120973352Y-45175498D01*
X120973355Y-45175498D01*
X121027760Y-45169940D01*
X121072708Y-45165349D01*
X121233697Y-45112003D01*
X121378044Y-45022968D01*
X121387319Y-45013693D01*
X121448642Y-44980208D01*
X121518334Y-44985192D01*
X121562681Y-45013693D01*
X121571955Y-45022967D01*
X121571959Y-45022970D01*
X121716294Y-45111998D01*
X121716297Y-45111999D01*
X121716303Y-45112003D01*
X121877292Y-45165349D01*
X121976655Y-45175500D01*
X122523344Y-45175499D01*
X122523352Y-45175498D01*
X122523355Y-45175498D01*
X122577760Y-45169940D01*
X122622708Y-45165349D01*
X122783697Y-45112003D01*
X122928044Y-45022968D01*
X123014193Y-44936819D01*
X123075516Y-44903334D01*
X123101874Y-44900500D01*
X123268996Y-44900500D01*
X123360040Y-44882389D01*
X123404328Y-44873580D01*
X123474732Y-44844418D01*
X123531807Y-44820777D01*
X123531808Y-44820776D01*
X123531811Y-44820775D01*
X123646543Y-44744114D01*
X124144113Y-44246543D01*
X124151525Y-44235451D01*
X124220775Y-44131811D01*
X124266780Y-44020745D01*
X124273580Y-44004329D01*
X124283216Y-43955886D01*
X124300500Y-43868993D01*
X124300500Y-43789088D01*
X124320185Y-43722049D01*
X124328647Y-43710423D01*
X124394135Y-43630626D01*
X124394137Y-43630623D01*
X124477740Y-43474211D01*
X124482396Y-43465501D01*
X124503218Y-43396861D01*
X127189500Y-43396861D01*
X127189500Y-43603139D01*
X127193854Y-43630626D01*
X127221769Y-43806877D01*
X127221769Y-43806880D01*
X127285510Y-44003054D01*
X127294524Y-44020745D01*
X127379160Y-44186852D01*
X127500407Y-44353733D01*
X127646267Y-44499593D01*
X127813148Y-44620840D01*
X127996943Y-44714488D01*
X127996945Y-44714489D01*
X128193120Y-44778230D01*
X128193121Y-44778230D01*
X128193124Y-44778231D01*
X128396861Y-44810500D01*
X128396862Y-44810500D01*
X128603138Y-44810500D01*
X128603139Y-44810500D01*
X128806876Y-44778231D01*
X128806879Y-44778230D01*
X128806880Y-44778230D01*
X129003054Y-44714489D01*
X129003054Y-44714488D01*
X129003057Y-44714488D01*
X129186852Y-44620840D01*
X129353733Y-44499593D01*
X129499593Y-44353733D01*
X129620840Y-44186852D01*
X129714488Y-44003057D01*
X129716226Y-43997707D01*
X129778230Y-43806880D01*
X129778230Y-43806879D01*
X129778231Y-43806876D01*
X129810500Y-43603139D01*
X129810500Y-43396861D01*
X129778231Y-43193124D01*
X129778230Y-43193120D01*
X129778230Y-43193119D01*
X129714489Y-42996945D01*
X129662322Y-42894561D01*
X129620840Y-42813148D01*
X129499593Y-42646267D01*
X129353733Y-42500407D01*
X129186852Y-42379160D01*
X129154587Y-42362720D01*
X129003054Y-42285510D01*
X128806879Y-42221769D01*
X128654073Y-42197567D01*
X128603139Y-42189500D01*
X128396861Y-42189500D01*
X128339116Y-42198646D01*
X128193122Y-42221769D01*
X128193119Y-42221769D01*
X127996945Y-42285510D01*
X127813147Y-42379160D01*
X127646265Y-42500408D01*
X127500408Y-42646265D01*
X127379160Y-42813147D01*
X127285510Y-42996945D01*
X127221769Y-43193119D01*
X127221769Y-43193122D01*
X127204579Y-43301655D01*
X127189500Y-43396861D01*
X124503218Y-43396861D01*
X124536747Y-43286331D01*
X124555099Y-43100000D01*
X124536747Y-42913669D01*
X124482396Y-42734499D01*
X124465583Y-42703044D01*
X124394137Y-42569376D01*
X124394135Y-42569373D01*
X124275357Y-42424642D01*
X124130626Y-42305864D01*
X124130623Y-42305862D01*
X123965502Y-42217604D01*
X123786333Y-42163253D01*
X123786331Y-42163252D01*
X123600000Y-42144901D01*
X123413668Y-42163252D01*
X123413666Y-42163253D01*
X123234497Y-42217604D01*
X123069376Y-42305862D01*
X123069373Y-42305864D01*
X122924642Y-42424642D01*
X122805864Y-42569373D01*
X122805862Y-42569376D01*
X122717604Y-42734497D01*
X122663253Y-42913666D01*
X122663252Y-42913668D01*
X122644901Y-43100000D01*
X122644901Y-43100500D01*
X122644826Y-43100752D01*
X122644304Y-43106062D01*
X122643296Y-43105962D01*
X122625216Y-43167539D01*
X122572412Y-43213294D01*
X122520901Y-43224500D01*
X121976662Y-43224500D01*
X121976644Y-43224501D01*
X121877292Y-43234650D01*
X121877289Y-43234651D01*
X121716305Y-43287996D01*
X121716294Y-43288001D01*
X121571959Y-43377029D01*
X121571955Y-43377032D01*
X121562681Y-43386307D01*
X121501358Y-43419792D01*
X121431666Y-43414808D01*
X121387319Y-43386307D01*
X121378044Y-43377032D01*
X121378040Y-43377029D01*
X121233705Y-43288001D01*
X121233699Y-43287998D01*
X121233697Y-43287997D01*
X121186658Y-43272410D01*
X121072709Y-43234651D01*
X120973346Y-43224500D01*
X120426662Y-43224500D01*
X120426644Y-43224501D01*
X120327292Y-43234650D01*
X120327289Y-43234651D01*
X120166305Y-43287996D01*
X120166294Y-43288001D01*
X120021959Y-43377029D01*
X119960364Y-43438624D01*
X119899040Y-43472108D01*
X119831729Y-43467984D01*
X119679257Y-43414632D01*
X119679250Y-43414630D01*
X119510616Y-43395630D01*
X119446202Y-43368563D01*
X119406647Y-43310968D01*
X119400500Y-43272410D01*
X119400500Y-42720945D01*
X119400500Y-42720943D01*
X119359577Y-42568216D01*
X119323212Y-42505229D01*
X119280524Y-42431290D01*
X119280521Y-42431286D01*
X119280520Y-42431284D01*
X119168716Y-42319480D01*
X119168715Y-42319479D01*
X119164385Y-42315149D01*
X119164374Y-42315139D01*
X118737590Y-41888355D01*
X118737588Y-41888352D01*
X118618717Y-41769481D01*
X118618716Y-41769480D01*
X118531904Y-41719360D01*
X118531904Y-41719359D01*
X118531900Y-41719358D01*
X118481785Y-41690423D01*
X118329057Y-41649499D01*
X118170943Y-41649499D01*
X118163347Y-41649499D01*
X118163331Y-41649500D01*
X117059849Y-41649500D01*
X117012396Y-41640061D01*
X116950236Y-41614313D01*
X116936171Y-41612461D01*
X116837727Y-41599500D01*
X116837720Y-41599500D01*
X116524500Y-41599500D01*
X116457461Y-41579815D01*
X116411706Y-41527011D01*
X116400500Y-41475500D01*
X116400500Y-41162286D01*
X116400499Y-41162272D01*
X116395843Y-41126906D01*
X116385687Y-41049764D01*
X116327698Y-40909767D01*
X116235451Y-40789549D01*
X116115233Y-40697302D01*
X116115229Y-40697300D01*
X115999998Y-40649570D01*
X115975236Y-40639313D01*
X115960698Y-40637399D01*
X115862727Y-40624500D01*
X115862720Y-40624500D01*
X115637280Y-40624500D01*
X115637272Y-40624500D01*
X115550393Y-40635938D01*
X115524764Y-40639313D01*
X115524762Y-40639313D01*
X115516708Y-40640374D01*
X115516316Y-40637399D01*
X115483684Y-40637399D01*
X115483292Y-40640374D01*
X115475237Y-40639313D01*
X115475236Y-40639313D01*
X115446271Y-40635499D01*
X115362727Y-40624500D01*
X115362720Y-40624500D01*
X115137280Y-40624500D01*
X115137272Y-40624500D01*
X115050393Y-40635938D01*
X115024764Y-40639313D01*
X115024762Y-40639313D01*
X115016708Y-40640374D01*
X115016316Y-40637399D01*
X114983684Y-40637399D01*
X114983292Y-40640374D01*
X114975237Y-40639313D01*
X114975236Y-40639313D01*
X114946271Y-40635499D01*
X114862727Y-40624500D01*
X114862720Y-40624500D01*
X114637280Y-40624500D01*
X114637272Y-40624500D01*
X114550393Y-40635938D01*
X114524764Y-40639313D01*
X114524762Y-40639313D01*
X114516708Y-40640374D01*
X114516316Y-40637399D01*
X114483684Y-40637399D01*
X114483292Y-40640374D01*
X114475237Y-40639313D01*
X114475236Y-40639313D01*
X114446271Y-40635499D01*
X114362727Y-40624500D01*
X114362720Y-40624500D01*
X114137280Y-40624500D01*
X114137272Y-40624500D01*
X114050393Y-40635938D01*
X114024764Y-40639313D01*
X114024762Y-40639313D01*
X114016708Y-40640374D01*
X114016316Y-40637399D01*
X113983684Y-40637399D01*
X113983292Y-40640374D01*
X113975237Y-40639313D01*
X113975236Y-40639313D01*
X113946271Y-40635499D01*
X113862727Y-40624500D01*
X113862720Y-40624500D01*
X113637280Y-40624500D01*
X113637272Y-40624500D01*
X113550393Y-40635938D01*
X113524764Y-40639313D01*
X113524762Y-40639313D01*
X113516708Y-40640374D01*
X113516316Y-40637399D01*
X113483684Y-40637399D01*
X113483292Y-40640374D01*
X113475237Y-40639313D01*
X113475236Y-40639313D01*
X113446271Y-40635499D01*
X113362727Y-40624500D01*
X113362720Y-40624500D01*
X113137280Y-40624500D01*
X113137272Y-40624500D01*
X113024764Y-40639313D01*
X113024763Y-40639313D01*
X112884770Y-40697300D01*
X112884767Y-40697301D01*
X112884767Y-40697302D01*
X112838645Y-40732693D01*
X112764549Y-40789549D01*
X112672300Y-40909770D01*
X112614313Y-41049763D01*
X112614313Y-41049764D01*
X112599500Y-41162272D01*
X112599500Y-41475500D01*
X112579815Y-41542539D01*
X112527011Y-41588294D01*
X112475500Y-41599500D01*
X112162272Y-41599500D01*
X112049764Y-41614313D01*
X112049763Y-41614313D01*
X111909770Y-41672300D01*
X111909767Y-41672301D01*
X111909767Y-41672302D01*
X111789549Y-41764549D01*
X111789548Y-41764550D01*
X111789547Y-41764551D01*
X111747374Y-41819512D01*
X111690946Y-41860714D01*
X111621200Y-41864869D01*
X111560280Y-41830656D01*
X111527528Y-41768939D01*
X111524999Y-41744025D01*
X111524999Y-41701692D01*
X111524998Y-41701676D01*
X111514855Y-41602392D01*
X111461547Y-41441518D01*
X111461542Y-41441507D01*
X111372575Y-41297271D01*
X111372572Y-41297267D01*
X111252732Y-41177427D01*
X111252728Y-41177424D01*
X111108492Y-41088457D01*
X111108481Y-41088452D01*
X110947606Y-41035144D01*
X110848322Y-41025000D01*
X110825000Y-41025000D01*
X110825000Y-41876000D01*
X110805315Y-41943039D01*
X110752511Y-41988794D01*
X110701000Y-42000000D01*
X110449000Y-42000000D01*
X110381961Y-41980315D01*
X110336206Y-41927511D01*
X110325000Y-41876000D01*
X110325000Y-41024999D01*
X110301693Y-41025000D01*
X110301674Y-41025001D01*
X110202392Y-41035144D01*
X110041518Y-41088452D01*
X110041507Y-41088457D01*
X109897271Y-41177424D01*
X109897265Y-41177428D01*
X109888031Y-41186663D01*
X109826707Y-41220146D01*
X109757015Y-41215159D01*
X109712672Y-41186660D01*
X109703044Y-41177032D01*
X109703040Y-41177029D01*
X109558705Y-41088001D01*
X109558699Y-41087998D01*
X109558697Y-41087997D01*
X109558694Y-41087996D01*
X109397709Y-41034651D01*
X109298346Y-41024500D01*
X108751662Y-41024500D01*
X108751644Y-41024501D01*
X108652292Y-41034650D01*
X108652289Y-41034651D01*
X108491305Y-41087996D01*
X108491294Y-41088001D01*
X108346959Y-41177029D01*
X108346955Y-41177032D01*
X108227032Y-41296955D01*
X108227029Y-41296959D01*
X108138001Y-41441294D01*
X108137996Y-41441305D01*
X108084651Y-41602290D01*
X108074500Y-41701647D01*
X108074500Y-42298337D01*
X108074501Y-42298355D01*
X108084650Y-42397707D01*
X108084651Y-42397710D01*
X108137996Y-42558694D01*
X108138001Y-42558705D01*
X108207369Y-42671167D01*
X108225810Y-42738559D01*
X108225051Y-42750146D01*
X108219435Y-42799994D01*
X108219435Y-42800004D01*
X108221190Y-42815582D01*
X108209135Y-42884404D01*
X108203509Y-42894561D01*
X108112998Y-43041300D01*
X108112996Y-43041305D01*
X108059651Y-43202290D01*
X108049500Y-43301647D01*
X108049500Y-43898337D01*
X108049501Y-43898355D01*
X108059650Y-43997707D01*
X108059651Y-43997710D01*
X108112996Y-44158694D01*
X108113001Y-44158705D01*
X108202031Y-44303044D01*
X108205017Y-44306820D01*
X108231157Y-44371615D01*
X108230970Y-44397614D01*
X108226694Y-44435562D01*
X108204330Y-44489888D01*
X108205823Y-44490809D01*
X108113001Y-44641294D01*
X108112996Y-44641305D01*
X108059651Y-44802290D01*
X108049500Y-44901647D01*
X108049500Y-45498337D01*
X108049501Y-45498355D01*
X108059650Y-45597707D01*
X108059651Y-45597711D01*
X108105209Y-45735195D01*
X108107611Y-45805024D01*
X108071879Y-45865066D01*
X108009358Y-45896258D01*
X107939899Y-45888697D01*
X107908838Y-45870052D01*
X107830626Y-45805864D01*
X107830623Y-45805862D01*
X107665502Y-45717604D01*
X107486333Y-45663253D01*
X107486331Y-45663252D01*
X107300000Y-45644901D01*
X107113668Y-45663252D01*
X107113666Y-45663253D01*
X106934497Y-45717604D01*
X106769376Y-45805862D01*
X106769373Y-45805864D01*
X106624642Y-45924642D01*
X106505864Y-46069373D01*
X106505862Y-46069376D01*
X106417604Y-46234497D01*
X106363253Y-46413666D01*
X106363252Y-46413668D01*
X106344901Y-46600000D01*
X106363252Y-46786331D01*
X106363253Y-46786333D01*
X106417604Y-46965502D01*
X106505862Y-47130623D01*
X106505864Y-47130626D01*
X106624642Y-47275357D01*
X106769373Y-47394135D01*
X106769376Y-47394137D01*
X106880533Y-47453551D01*
X106934499Y-47482396D01*
X107113666Y-47536746D01*
X107113668Y-47536747D01*
X107130374Y-47538392D01*
X107300000Y-47555099D01*
X107486331Y-47536747D01*
X107665501Y-47482396D01*
X107830625Y-47394136D01*
X107910423Y-47328646D01*
X107974732Y-47301334D01*
X107989088Y-47300500D01*
X108568996Y-47300500D01*
X108660040Y-47282389D01*
X108704328Y-47273580D01*
X108768069Y-47247177D01*
X108831807Y-47220777D01*
X108831808Y-47220776D01*
X108831811Y-47220775D01*
X108946543Y-47144114D01*
X109046541Y-47044115D01*
X109046543Y-47044114D01*
X109250203Y-46840453D01*
X109311523Y-46806970D01*
X109381215Y-46811954D01*
X109437148Y-46853826D01*
X109461565Y-46919290D01*
X109461699Y-46921421D01*
X109462371Y-46933820D01*
X110614094Y-48085543D01*
X110647579Y-48146866D01*
X110642595Y-48216558D01*
X110614094Y-48260905D01*
X110435905Y-48439094D01*
X110374582Y-48472579D01*
X110304890Y-48467595D01*
X110260543Y-48439094D01*
X109275000Y-47453551D01*
X109275000Y-49301096D01*
X109277897Y-49343824D01*
X109323832Y-49528529D01*
X109325380Y-49532741D01*
X109330021Y-49602456D01*
X109296233Y-49663613D01*
X109234745Y-49696795D01*
X109208986Y-49699500D01*
X104047595Y-49699500D01*
X103952405Y-49699500D01*
X103952403Y-49699500D01*
X103952399Y-49699501D01*
X103917699Y-49710775D01*
X103911482Y-49712617D01*
X103884007Y-49719979D01*
X103876510Y-49723085D01*
X103876390Y-49722796D01*
X103864727Y-49727987D01*
X103861880Y-49728912D01*
X103861873Y-49728915D01*
X103841364Y-49743816D01*
X103830486Y-49750880D01*
X103815491Y-49759538D01*
X103811133Y-49763896D01*
X103796349Y-49776522D01*
X103784866Y-49784866D01*
X103776525Y-49796346D01*
X103763896Y-49811133D01*
X103759538Y-49815491D01*
X103750880Y-49830486D01*
X103743816Y-49841364D01*
X103728915Y-49861873D01*
X103728912Y-49861880D01*
X103727987Y-49864727D01*
X103722796Y-49876390D01*
X103723085Y-49876510D01*
X103719979Y-49884007D01*
X103712617Y-49911482D01*
X103710775Y-49917699D01*
X103699501Y-49952399D01*
X103699500Y-49952408D01*
X103699500Y-49996643D01*
X103699318Y-50003357D01*
X103681107Y-50339217D01*
X103679655Y-50352564D01*
X103625784Y-50681162D01*
X103622898Y-50694274D01*
X103533815Y-51015125D01*
X103529528Y-51027849D01*
X103406279Y-51337182D01*
X103400641Y-51349368D01*
X103244658Y-51643583D01*
X103237736Y-51655087D01*
X103050875Y-51930686D01*
X103042750Y-51941375D01*
X102827179Y-52195165D01*
X102817945Y-52204913D01*
X102576186Y-52433918D01*
X102565954Y-52442609D01*
X102300871Y-52644121D01*
X102289758Y-52651656D01*
X102004431Y-52823332D01*
X101992568Y-52829621D01*
X101690361Y-52969436D01*
X101677889Y-52974406D01*
X101362329Y-53080731D01*
X101349391Y-53084323D01*
X101024185Y-53155905D01*
X101010936Y-53158077D01*
X100679902Y-53194081D01*
X100666495Y-53194808D01*
X100333505Y-53194808D01*
X100320098Y-53194081D01*
X99989063Y-53158077D01*
X99975814Y-53155905D01*
X99650608Y-53084323D01*
X99637675Y-53080732D01*
X99474201Y-53025651D01*
X99322110Y-52974406D01*
X99309638Y-52969436D01*
X99007431Y-52829621D01*
X98995568Y-52823332D01*
X98989001Y-52819381D01*
X98710241Y-52651656D01*
X98699128Y-52644121D01*
X98434045Y-52442609D01*
X98423813Y-52433918D01*
X98182054Y-52204913D01*
X98172820Y-52195165D01*
X97957249Y-51941375D01*
X97949124Y-51930686D01*
X97762263Y-51655087D01*
X97755341Y-51643583D01*
X97599358Y-51349368D01*
X97593724Y-51337191D01*
X97470466Y-51027835D01*
X97466188Y-51015139D01*
X97377100Y-50694273D01*
X97374215Y-50681162D01*
X97320344Y-50352564D01*
X97318892Y-50339216D01*
X97300682Y-50003356D01*
X97300500Y-49996643D01*
X97300500Y-49896861D01*
X99189500Y-49896861D01*
X99189500Y-50103138D01*
X99221769Y-50306877D01*
X99221769Y-50306880D01*
X99285510Y-50503054D01*
X99285512Y-50503057D01*
X99379160Y-50686852D01*
X99500407Y-50853733D01*
X99646267Y-50999593D01*
X99813148Y-51120840D01*
X99996943Y-51214488D01*
X99996945Y-51214489D01*
X100193120Y-51278230D01*
X100193121Y-51278230D01*
X100193124Y-51278231D01*
X100396861Y-51310500D01*
X100396862Y-51310500D01*
X100603138Y-51310500D01*
X100603139Y-51310500D01*
X100806876Y-51278231D01*
X100806879Y-51278230D01*
X100806880Y-51278230D01*
X101003054Y-51214489D01*
X101003054Y-51214488D01*
X101003057Y-51214488D01*
X101186852Y-51120840D01*
X101353733Y-50999593D01*
X101499593Y-50853733D01*
X101620840Y-50686852D01*
X101714488Y-50503057D01*
X101778231Y-50306876D01*
X101810500Y-50103139D01*
X101810500Y-49896861D01*
X101778231Y-49693124D01*
X101778230Y-49693120D01*
X101778230Y-49693119D01*
X101714489Y-49496945D01*
X101714488Y-49496943D01*
X101620840Y-49313148D01*
X101499593Y-49146267D01*
X101353733Y-49000407D01*
X101186852Y-48879160D01*
X101003054Y-48785510D01*
X100806879Y-48721769D01*
X100654073Y-48697567D01*
X100603139Y-48689500D01*
X100396861Y-48689500D01*
X100328948Y-48700256D01*
X100193122Y-48721769D01*
X100193119Y-48721769D01*
X99996945Y-48785510D01*
X99813147Y-48879160D01*
X99646265Y-49000408D01*
X99500408Y-49146265D01*
X99379160Y-49313147D01*
X99285510Y-49496945D01*
X99221769Y-49693119D01*
X99221769Y-49693122D01*
X99189500Y-49896861D01*
X97300500Y-49896861D01*
X97300500Y-43503246D01*
X97300670Y-43496756D01*
X97305905Y-43396861D01*
X99189500Y-43396861D01*
X99189500Y-43603139D01*
X99193854Y-43630626D01*
X99221769Y-43806877D01*
X99221769Y-43806880D01*
X99285510Y-44003054D01*
X99294524Y-44020745D01*
X99379160Y-44186852D01*
X99500407Y-44353733D01*
X99646267Y-44499593D01*
X99813148Y-44620840D01*
X99996943Y-44714488D01*
X99996945Y-44714489D01*
X100193120Y-44778230D01*
X100193121Y-44778230D01*
X100193124Y-44778231D01*
X100396861Y-44810500D01*
X100396862Y-44810500D01*
X100603138Y-44810500D01*
X100603139Y-44810500D01*
X100806876Y-44778231D01*
X100806879Y-44778230D01*
X100806880Y-44778230D01*
X101003054Y-44714489D01*
X101003054Y-44714488D01*
X101003057Y-44714488D01*
X101186852Y-44620840D01*
X101353733Y-44499593D01*
X101499593Y-44353733D01*
X101620840Y-44186852D01*
X101714488Y-44003057D01*
X101716226Y-43997707D01*
X101778230Y-43806880D01*
X101778230Y-43806879D01*
X101778231Y-43806876D01*
X101810500Y-43603139D01*
X101810500Y-43396861D01*
X101778231Y-43193124D01*
X101778230Y-43193120D01*
X101778230Y-43193119D01*
X101714489Y-42996945D01*
X101662322Y-42894561D01*
X101620840Y-42813148D01*
X101499593Y-42646267D01*
X101353733Y-42500407D01*
X101186852Y-42379160D01*
X101154587Y-42362720D01*
X101003054Y-42285510D01*
X100806879Y-42221769D01*
X100654073Y-42197567D01*
X100603139Y-42189500D01*
X100396861Y-42189500D01*
X100339116Y-42198646D01*
X100193122Y-42221769D01*
X100193119Y-42221769D01*
X99996945Y-42285510D01*
X99813147Y-42379160D01*
X99646265Y-42500408D01*
X99500408Y-42646265D01*
X99379160Y-42813147D01*
X99285510Y-42996945D01*
X99221769Y-43193119D01*
X99221769Y-43193122D01*
X99204579Y-43301655D01*
X99189500Y-43396861D01*
X97305905Y-43396861D01*
X97311610Y-43287997D01*
X97317687Y-43172045D01*
X97319044Y-43159139D01*
X97327451Y-43106062D01*
X97369401Y-42841201D01*
X97372094Y-42828525D01*
X97455416Y-42517564D01*
X97459425Y-42505229D01*
X97461276Y-42500407D01*
X97574784Y-42204707D01*
X97580054Y-42192868D01*
X97726214Y-41906014D01*
X97732680Y-41894815D01*
X97908015Y-41624823D01*
X97915630Y-41614342D01*
X98118229Y-41364153D01*
X98126896Y-41354528D01*
X98354528Y-41126896D01*
X98364153Y-41118229D01*
X98614342Y-40915630D01*
X98624823Y-40908015D01*
X98894815Y-40732680D01*
X98906014Y-40726214D01*
X99192868Y-40580054D01*
X99204707Y-40574784D01*
X99505236Y-40459422D01*
X99517564Y-40455416D01*
X99828525Y-40372094D01*
X99841201Y-40369401D01*
X100159141Y-40319043D01*
X100172045Y-40317687D01*
X100496756Y-40300669D01*
X100503246Y-40300500D01*
X100547595Y-40300500D01*
X128452405Y-40300500D01*
X128496754Y-40300500D01*
X128503243Y-40300669D01*
G37*
%TD.AperFunction*%
%TA.AperFunction,Conductor*%
G36*
X110743039Y-45219685D02*
G01*
X110788794Y-45272489D01*
X110800000Y-45324000D01*
X110800000Y-46174999D01*
X110823308Y-46174999D01*
X110823322Y-46174998D01*
X110918669Y-46165258D01*
X110987362Y-46178028D01*
X111038246Y-46225908D01*
X111055167Y-46293698D01*
X111054674Y-46300770D01*
X111044901Y-46400000D01*
X111051189Y-46463846D01*
X111038170Y-46532492D01*
X110990105Y-46583203D01*
X110927786Y-46600000D01*
X110073903Y-46600000D01*
X110031175Y-46602897D01*
X109846480Y-46648830D01*
X109708496Y-46717263D01*
X109639691Y-46729414D01*
X109575239Y-46702437D01*
X109535603Y-46644897D01*
X109533368Y-46575064D01*
X109550376Y-46537170D01*
X109550879Y-46536419D01*
X109620771Y-46431817D01*
X109620771Y-46431816D01*
X109620775Y-46431811D01*
X109673580Y-46304328D01*
X109673601Y-46304225D01*
X109680763Y-46268215D01*
X109700500Y-46168993D01*
X109700500Y-46138800D01*
X109720185Y-46071761D01*
X109772989Y-46026006D01*
X109842147Y-46016062D01*
X109889597Y-46033262D01*
X110016507Y-46111542D01*
X110016518Y-46111547D01*
X110177393Y-46164855D01*
X110276683Y-46174999D01*
X110300000Y-46174998D01*
X110300000Y-45324000D01*
X110319685Y-45256961D01*
X110372489Y-45211206D01*
X110424000Y-45200000D01*
X110676000Y-45200000D01*
X110743039Y-45219685D01*
G37*
%TD.AperFunction*%
%TD*%
M02*
