%TF.GenerationSoftware,KiCad,Pcbnew,8.0.8*%
%TF.CreationDate,2025-02-04T17:25:34+01:00*%
%TF.ProjectId,IMU_PCB,494d555f-5043-4422-9e6b-696361645f70,rev?*%
%TF.SameCoordinates,Original*%
%TF.FileFunction,Copper,L2,Bot*%
%TF.FilePolarity,Positive*%
%FSLAX46Y46*%
G04 Gerber Fmt 4.6, Leading zero omitted, Abs format (unit mm)*
G04 Created by KiCad (PCBNEW 8.0.8) date 2025-02-04 17:25:34*
%MOMM*%
%LPD*%
G01*
G04 APERTURE LIST*
%TA.AperFunction,ViaPad*%
%ADD10C,0.600000*%
%TD*%
%TA.AperFunction,ViaPad*%
%ADD11C,0.900000*%
%TD*%
%TA.AperFunction,Conductor*%
%ADD12C,0.200000*%
%TD*%
G04 APERTURE END LIST*
D10*
%TO.N,GND*%
X109025000Y-44500000D03*
X115500000Y-46500000D03*
D11*
X107300000Y-46600000D03*
D10*
X109025000Y-42800000D03*
D11*
X112000000Y-46400000D03*
X123600000Y-43100000D03*
D10*
%TO.N,I2C3_IMU_INT*%
X111600000Y-44500000D03*
X114200000Y-46500000D03*
%TO.N,I2C3_SCL*%
X117800000Y-43300000D03*
X119200000Y-45900000D03*
%TO.N,Net-(U2-CPOUT)*%
X118200000Y-44200000D03*
X119500000Y-44200000D03*
%TD*%
D12*
%TO.N,I2C3_IMU_INT*%
X111700000Y-45400000D02*
X111600000Y-45300000D01*
X111600000Y-45300000D02*
X111600000Y-44500000D01*
X113100000Y-45400000D02*
X111700000Y-45400000D01*
X114200000Y-46500000D02*
X113100000Y-45400000D01*
%TO.N,I2C3_SCL*%
X117800000Y-43300000D02*
X117400000Y-43700000D01*
X118500000Y-45900000D02*
X119200000Y-45900000D01*
X117400000Y-44800000D02*
X118500000Y-45900000D01*
X117400000Y-43700000D02*
X117400000Y-44800000D01*
%TO.N,Net-(U2-CPOUT)*%
X118200000Y-44200000D02*
X119500000Y-44200000D01*
%TD*%
%TA.AperFunction,Conductor*%
%TO.N,GND*%
G36*
X128503243Y-40300669D02*
G01*
X128827952Y-40317687D01*
X128840860Y-40319044D01*
X129158794Y-40369400D01*
X129171478Y-40372095D01*
X129482429Y-40455414D01*
X129494770Y-40459425D01*
X129795282Y-40574780D01*
X129807138Y-40580058D01*
X130093976Y-40726210D01*
X130105192Y-40732686D01*
X130375165Y-40908008D01*
X130385666Y-40915637D01*
X130635836Y-41118221D01*
X130645481Y-41126906D01*
X130873093Y-41354518D01*
X130881778Y-41364163D01*
X131084362Y-41614333D01*
X131091991Y-41624834D01*
X131267310Y-41894802D01*
X131273796Y-41906035D01*
X131419940Y-42192859D01*
X131425219Y-42204717D01*
X131540574Y-42505229D01*
X131544585Y-42517572D01*
X131627902Y-42828515D01*
X131630600Y-42841211D01*
X131680955Y-43159139D01*
X131682312Y-43172047D01*
X131699330Y-43496756D01*
X131699500Y-43503246D01*
X131699500Y-49996643D01*
X131699318Y-50003357D01*
X131681107Y-50339217D01*
X131679655Y-50352564D01*
X131625784Y-50681162D01*
X131622898Y-50694274D01*
X131533815Y-51015125D01*
X131529528Y-51027849D01*
X131406279Y-51337182D01*
X131400641Y-51349368D01*
X131244658Y-51643583D01*
X131237736Y-51655087D01*
X131050875Y-51930686D01*
X131042750Y-51941375D01*
X130827179Y-52195165D01*
X130817945Y-52204913D01*
X130576186Y-52433918D01*
X130565954Y-52442609D01*
X130300871Y-52644121D01*
X130289758Y-52651656D01*
X130004431Y-52823332D01*
X129992568Y-52829621D01*
X129690361Y-52969436D01*
X129677889Y-52974406D01*
X129362329Y-53080731D01*
X129349391Y-53084323D01*
X129024185Y-53155905D01*
X129010936Y-53158077D01*
X128679902Y-53194081D01*
X128666495Y-53194808D01*
X128333505Y-53194808D01*
X128320098Y-53194081D01*
X127989063Y-53158077D01*
X127975814Y-53155905D01*
X127650608Y-53084323D01*
X127637675Y-53080732D01*
X127474201Y-53025651D01*
X127322110Y-52974406D01*
X127309638Y-52969436D01*
X127007431Y-52829621D01*
X126995568Y-52823332D01*
X126989001Y-52819381D01*
X126710241Y-52651656D01*
X126699128Y-52644121D01*
X126434045Y-52442609D01*
X126423813Y-52433918D01*
X126182054Y-52204913D01*
X126172820Y-52195165D01*
X125957249Y-51941375D01*
X125949124Y-51930686D01*
X125762263Y-51655087D01*
X125755341Y-51643583D01*
X125599358Y-51349368D01*
X125593724Y-51337191D01*
X125470466Y-51027835D01*
X125466188Y-51015139D01*
X125377100Y-50694273D01*
X125374215Y-50681162D01*
X125320344Y-50352564D01*
X125318892Y-50339216D01*
X125300682Y-50003356D01*
X125300500Y-49996643D01*
X125300500Y-49952406D01*
X125300499Y-49952400D01*
X125289225Y-49917704D01*
X125287387Y-49911504D01*
X125283464Y-49896861D01*
X127189500Y-49896861D01*
X127189500Y-50103138D01*
X127221769Y-50306877D01*
X127221769Y-50306880D01*
X127285510Y-50503054D01*
X127285512Y-50503057D01*
X127379160Y-50686852D01*
X127500407Y-50853733D01*
X127646267Y-50999593D01*
X127813148Y-51120840D01*
X127996943Y-51214488D01*
X127996945Y-51214489D01*
X128193120Y-51278230D01*
X128193121Y-51278230D01*
X128193124Y-51278231D01*
X128396861Y-51310500D01*
X128396862Y-51310500D01*
X128603138Y-51310500D01*
X128603139Y-51310500D01*
X128806876Y-51278231D01*
X128806879Y-51278230D01*
X128806880Y-51278230D01*
X129003054Y-51214489D01*
X129003054Y-51214488D01*
X129003057Y-51214488D01*
X129186852Y-51120840D01*
X129353733Y-50999593D01*
X129499593Y-50853733D01*
X129620840Y-50686852D01*
X129714488Y-50503057D01*
X129778231Y-50306876D01*
X129810500Y-50103139D01*
X129810500Y-49896861D01*
X129778231Y-49693124D01*
X129778230Y-49693120D01*
X129778230Y-49693119D01*
X129714489Y-49496945D01*
X129620839Y-49313147D01*
X129499593Y-49146267D01*
X129353733Y-49000407D01*
X129186852Y-48879160D01*
X129003054Y-48785510D01*
X128806879Y-48721769D01*
X128654073Y-48697567D01*
X128603139Y-48689500D01*
X128396861Y-48689500D01*
X128328948Y-48700256D01*
X128193122Y-48721769D01*
X128193119Y-48721769D01*
X127996945Y-48785510D01*
X127813147Y-48879160D01*
X127646265Y-49000408D01*
X127500408Y-49146265D01*
X127379160Y-49313147D01*
X127285510Y-49496945D01*
X127221769Y-49693119D01*
X127221769Y-49693122D01*
X127189500Y-49896861D01*
X125283464Y-49896861D01*
X125280021Y-49884011D01*
X125280019Y-49884007D01*
X125276914Y-49876510D01*
X125277205Y-49876389D01*
X125272007Y-49864712D01*
X125271086Y-49861877D01*
X125271083Y-49861871D01*
X125256184Y-49841365D01*
X125249113Y-49830477D01*
X125240459Y-49815488D01*
X125240458Y-49815486D01*
X125236110Y-49811138D01*
X125223474Y-49796344D01*
X125215136Y-49784868D01*
X125215134Y-49784867D01*
X125215134Y-49784866D01*
X125203648Y-49776521D01*
X125188860Y-49763889D01*
X125184512Y-49759541D01*
X125184507Y-49759537D01*
X125169515Y-49750882D01*
X125158632Y-49743814D01*
X125138125Y-49728915D01*
X125138123Y-49728914D01*
X125138119Y-49728912D01*
X125135275Y-49727988D01*
X125123618Y-49722799D01*
X125123499Y-49723089D01*
X125115993Y-49719980D01*
X125109978Y-49718368D01*
X125088501Y-49712613D01*
X125082297Y-49710775D01*
X125074276Y-49708169D01*
X125047598Y-49699500D01*
X125047595Y-49699500D01*
X125039562Y-49699500D01*
X104047595Y-49699500D01*
X103952405Y-49699500D01*
X103952403Y-49699500D01*
X103952399Y-49699501D01*
X103917699Y-49710775D01*
X103911482Y-49712617D01*
X103884007Y-49719979D01*
X103876510Y-49723085D01*
X103876390Y-49722796D01*
X103864727Y-49727987D01*
X103861880Y-49728912D01*
X103861873Y-49728915D01*
X103841364Y-49743816D01*
X103830486Y-49750880D01*
X103815491Y-49759538D01*
X103811133Y-49763896D01*
X103796349Y-49776522D01*
X103784866Y-49784866D01*
X103776525Y-49796346D01*
X103763896Y-49811133D01*
X103759538Y-49815491D01*
X103750880Y-49830486D01*
X103743816Y-49841364D01*
X103728915Y-49861873D01*
X103728912Y-49861880D01*
X103727987Y-49864727D01*
X103722796Y-49876390D01*
X103723085Y-49876510D01*
X103719979Y-49884007D01*
X103712617Y-49911482D01*
X103710775Y-49917699D01*
X103699501Y-49952399D01*
X103699500Y-49952408D01*
X103699500Y-49996643D01*
X103699318Y-50003357D01*
X103681107Y-50339217D01*
X103679655Y-50352564D01*
X103625784Y-50681162D01*
X103622898Y-50694274D01*
X103533815Y-51015125D01*
X103529528Y-51027849D01*
X103406279Y-51337182D01*
X103400641Y-51349368D01*
X103244658Y-51643583D01*
X103237736Y-51655087D01*
X103050875Y-51930686D01*
X103042750Y-51941375D01*
X102827179Y-52195165D01*
X102817945Y-52204913D01*
X102576186Y-52433918D01*
X102565954Y-52442609D01*
X102300871Y-52644121D01*
X102289758Y-52651656D01*
X102004431Y-52823332D01*
X101992568Y-52829621D01*
X101690361Y-52969436D01*
X101677889Y-52974406D01*
X101362329Y-53080731D01*
X101349391Y-53084323D01*
X101024185Y-53155905D01*
X101010936Y-53158077D01*
X100679902Y-53194081D01*
X100666495Y-53194808D01*
X100333505Y-53194808D01*
X100320098Y-53194081D01*
X99989063Y-53158077D01*
X99975814Y-53155905D01*
X99650608Y-53084323D01*
X99637675Y-53080732D01*
X99474201Y-53025651D01*
X99322110Y-52974406D01*
X99309638Y-52969436D01*
X99007431Y-52829621D01*
X98995568Y-52823332D01*
X98989001Y-52819381D01*
X98710241Y-52651656D01*
X98699128Y-52644121D01*
X98434045Y-52442609D01*
X98423813Y-52433918D01*
X98182054Y-52204913D01*
X98172820Y-52195165D01*
X97957249Y-51941375D01*
X97949124Y-51930686D01*
X97762263Y-51655087D01*
X97755341Y-51643583D01*
X97599358Y-51349368D01*
X97593724Y-51337191D01*
X97470466Y-51027835D01*
X97466188Y-51015139D01*
X97377100Y-50694273D01*
X97374215Y-50681162D01*
X97320344Y-50352564D01*
X97318892Y-50339216D01*
X97300682Y-50003356D01*
X97300500Y-49996643D01*
X97300500Y-49896861D01*
X99189500Y-49896861D01*
X99189500Y-50103138D01*
X99221769Y-50306877D01*
X99221769Y-50306880D01*
X99285510Y-50503054D01*
X99285512Y-50503057D01*
X99379160Y-50686852D01*
X99500407Y-50853733D01*
X99646267Y-50999593D01*
X99813148Y-51120840D01*
X99996943Y-51214488D01*
X99996945Y-51214489D01*
X100193120Y-51278230D01*
X100193121Y-51278230D01*
X100193124Y-51278231D01*
X100396861Y-51310500D01*
X100396862Y-51310500D01*
X100603138Y-51310500D01*
X100603139Y-51310500D01*
X100806876Y-51278231D01*
X100806879Y-51278230D01*
X100806880Y-51278230D01*
X101003054Y-51214489D01*
X101003054Y-51214488D01*
X101003057Y-51214488D01*
X101186852Y-51120840D01*
X101353733Y-50999593D01*
X101499593Y-50853733D01*
X101620840Y-50686852D01*
X101714488Y-50503057D01*
X101778231Y-50306876D01*
X101810500Y-50103139D01*
X101810500Y-49896861D01*
X101778231Y-49693124D01*
X101778230Y-49693120D01*
X101778230Y-49693119D01*
X101714489Y-49496945D01*
X101620839Y-49313147D01*
X101499593Y-49146267D01*
X101353733Y-49000407D01*
X101186852Y-48879160D01*
X101003054Y-48785510D01*
X100806879Y-48721769D01*
X100654073Y-48697567D01*
X100603139Y-48689500D01*
X100396861Y-48689500D01*
X100328948Y-48700256D01*
X100193122Y-48721769D01*
X100193119Y-48721769D01*
X99996945Y-48785510D01*
X99813147Y-48879160D01*
X99646265Y-49000408D01*
X99500408Y-49146265D01*
X99379160Y-49313147D01*
X99285510Y-49496945D01*
X99221769Y-49693119D01*
X99221769Y-49693122D01*
X99189500Y-49896861D01*
X97300500Y-49896861D01*
X97300500Y-43503246D01*
X97300670Y-43496756D01*
X97305905Y-43396861D01*
X99189500Y-43396861D01*
X99189500Y-43603138D01*
X99221769Y-43806877D01*
X99221769Y-43806880D01*
X99285510Y-44003054D01*
X99379160Y-44186852D01*
X99500407Y-44353733D01*
X99646267Y-44499593D01*
X99813148Y-44620840D01*
X99972948Y-44702262D01*
X99996945Y-44714489D01*
X100193120Y-44778230D01*
X100193121Y-44778230D01*
X100193124Y-44778231D01*
X100396861Y-44810500D01*
X100396862Y-44810500D01*
X100603138Y-44810500D01*
X100603139Y-44810500D01*
X100806876Y-44778231D01*
X100806879Y-44778230D01*
X100806880Y-44778230D01*
X101003054Y-44714489D01*
X101003054Y-44714488D01*
X101003057Y-44714488D01*
X101186852Y-44620840D01*
X101353178Y-44499996D01*
X110794435Y-44499996D01*
X110794435Y-44500003D01*
X110814630Y-44679249D01*
X110814631Y-44679254D01*
X110874211Y-44849523D01*
X110970185Y-45002263D01*
X110972445Y-45005097D01*
X110973334Y-45007275D01*
X110973889Y-45008158D01*
X110973734Y-45008255D01*
X110998855Y-45069783D01*
X110999500Y-45082412D01*
X110999500Y-45213330D01*
X110999499Y-45213348D01*
X110999499Y-45379054D01*
X110999498Y-45379054D01*
X111040423Y-45531787D01*
X111051215Y-45550477D01*
X111051216Y-45550478D01*
X111119480Y-45668716D01*
X111219480Y-45768716D01*
X111331284Y-45880520D01*
X111331286Y-45880521D01*
X111331290Y-45880524D01*
X111468209Y-45959573D01*
X111468216Y-45959577D01*
X111580019Y-45989534D01*
X111620942Y-46000500D01*
X111620943Y-46000500D01*
X112799903Y-46000500D01*
X112866942Y-46020185D01*
X112887584Y-46036819D01*
X113369298Y-46518533D01*
X113402783Y-46579856D01*
X113404837Y-46592330D01*
X113414630Y-46679249D01*
X113474210Y-46849521D01*
X113570184Y-47002262D01*
X113697738Y-47129816D01*
X113850478Y-47225789D01*
X114020745Y-47285368D01*
X114020750Y-47285369D01*
X114199996Y-47305565D01*
X114200000Y-47305565D01*
X114200004Y-47305565D01*
X114379249Y-47285369D01*
X114379252Y-47285368D01*
X114379255Y-47285368D01*
X114549522Y-47225789D01*
X114702262Y-47129816D01*
X114829816Y-47002262D01*
X114925789Y-46849522D01*
X114985368Y-46679255D01*
X114991392Y-46625789D01*
X115005565Y-46500003D01*
X115005565Y-46499996D01*
X114985369Y-46320750D01*
X114985368Y-46320745D01*
X114925788Y-46150476D01*
X114829815Y-45997737D01*
X114702262Y-45870184D01*
X114549521Y-45774210D01*
X114379249Y-45714630D01*
X114292330Y-45704837D01*
X114227916Y-45677770D01*
X114218533Y-45669298D01*
X113587590Y-45038355D01*
X113587588Y-45038352D01*
X113468717Y-44919481D01*
X113468716Y-44919480D01*
X113398695Y-44879054D01*
X116799498Y-44879054D01*
X116840424Y-45031789D01*
X116840425Y-45031790D01*
X116861455Y-45068214D01*
X116861456Y-45068216D01*
X116919475Y-45168709D01*
X116919481Y-45168717D01*
X117038349Y-45287585D01*
X117038355Y-45287590D01*
X118015139Y-46264374D01*
X118015149Y-46264385D01*
X118019479Y-46268715D01*
X118019480Y-46268716D01*
X118131284Y-46380520D01*
X118204348Y-46422703D01*
X118268215Y-46459577D01*
X118420943Y-46500501D01*
X118420946Y-46500501D01*
X118586653Y-46500501D01*
X118586669Y-46500500D01*
X118617588Y-46500500D01*
X118684627Y-46520185D01*
X118694903Y-46527555D01*
X118697736Y-46529814D01*
X118697738Y-46529816D01*
X118850478Y-46625789D01*
X119003258Y-46679249D01*
X119020745Y-46685368D01*
X119020750Y-46685369D01*
X119199996Y-46705565D01*
X119200000Y-46705565D01*
X119200004Y-46705565D01*
X119379249Y-46685369D01*
X119379252Y-46685368D01*
X119379255Y-46685368D01*
X119549522Y-46625789D01*
X119702262Y-46529816D01*
X119829816Y-46402262D01*
X119925789Y-46249522D01*
X119985368Y-46079255D01*
X119985369Y-46079249D01*
X120005565Y-45900003D01*
X120005565Y-45899996D01*
X119985369Y-45720750D01*
X119985368Y-45720745D01*
X119967162Y-45668716D01*
X119925789Y-45550478D01*
X119914043Y-45531785D01*
X119829815Y-45397737D01*
X119702262Y-45270184D01*
X119702256Y-45270179D01*
X119614460Y-45215013D01*
X119568169Y-45162679D01*
X119557521Y-45093625D01*
X119585896Y-45029777D01*
X119644286Y-44991405D01*
X119666544Y-44986800D01*
X119679255Y-44985368D01*
X119849522Y-44925789D01*
X120002262Y-44829816D01*
X120129816Y-44702262D01*
X120225789Y-44549522D01*
X120285368Y-44379255D01*
X120285369Y-44379249D01*
X120305565Y-44200003D01*
X120305565Y-44199996D01*
X120285369Y-44020750D01*
X120285368Y-44020745D01*
X120279178Y-44003054D01*
X120225789Y-43850478D01*
X120129816Y-43697738D01*
X120002262Y-43570184D01*
X119949501Y-43537032D01*
X119849523Y-43474211D01*
X119679254Y-43414631D01*
X119679249Y-43414630D01*
X119521536Y-43396861D01*
X127189500Y-43396861D01*
X127189500Y-43603138D01*
X127221769Y-43806877D01*
X127221769Y-43806880D01*
X127285510Y-44003054D01*
X127379160Y-44186852D01*
X127500407Y-44353733D01*
X127646267Y-44499593D01*
X127813148Y-44620840D01*
X127972948Y-44702262D01*
X127996945Y-44714489D01*
X128193120Y-44778230D01*
X128193121Y-44778230D01*
X128193124Y-44778231D01*
X128396861Y-44810500D01*
X128396862Y-44810500D01*
X128603138Y-44810500D01*
X128603139Y-44810500D01*
X128806876Y-44778231D01*
X128806879Y-44778230D01*
X128806880Y-44778230D01*
X129003054Y-44714489D01*
X129003054Y-44714488D01*
X129003057Y-44714488D01*
X129186852Y-44620840D01*
X129353733Y-44499593D01*
X129499593Y-44353733D01*
X129620840Y-44186852D01*
X129714488Y-44003057D01*
X129778231Y-43806876D01*
X129810500Y-43603139D01*
X129810500Y-43396861D01*
X129778231Y-43193124D01*
X129778230Y-43193120D01*
X129778230Y-43193119D01*
X129714489Y-42996945D01*
X129686329Y-42941678D01*
X129620840Y-42813148D01*
X129499593Y-42646267D01*
X129353733Y-42500407D01*
X129186852Y-42379160D01*
X129003054Y-42285510D01*
X128806879Y-42221769D01*
X128654073Y-42197567D01*
X128603139Y-42189500D01*
X128396861Y-42189500D01*
X128339116Y-42198646D01*
X128193122Y-42221769D01*
X128193119Y-42221769D01*
X127996945Y-42285510D01*
X127813147Y-42379160D01*
X127646265Y-42500408D01*
X127500408Y-42646265D01*
X127379160Y-42813147D01*
X127285510Y-42996945D01*
X127221769Y-43193119D01*
X127221769Y-43193122D01*
X127189500Y-43396861D01*
X119521536Y-43396861D01*
X119500004Y-43394435D01*
X119499996Y-43394435D01*
X119320750Y-43414630D01*
X119320745Y-43414631D01*
X119150476Y-43474211D01*
X118997736Y-43570185D01*
X118994903Y-43572445D01*
X118992724Y-43573334D01*
X118991842Y-43573889D01*
X118991744Y-43573734D01*
X118930217Y-43598855D01*
X118917588Y-43599500D01*
X118782412Y-43599500D01*
X118715373Y-43579815D01*
X118705097Y-43572445D01*
X118702263Y-43570185D01*
X118702262Y-43570184D01*
X118649498Y-43537030D01*
X118603209Y-43484698D01*
X118592252Y-43418154D01*
X118605565Y-43300002D01*
X118605565Y-43299996D01*
X118585369Y-43120750D01*
X118585368Y-43120745D01*
X118525789Y-42950478D01*
X118429816Y-42797738D01*
X118302262Y-42670184D01*
X118149523Y-42574211D01*
X117979254Y-42514631D01*
X117979249Y-42514630D01*
X117800004Y-42494435D01*
X117799996Y-42494435D01*
X117620750Y-42514630D01*
X117620745Y-42514631D01*
X117450476Y-42574211D01*
X117297737Y-42670184D01*
X117170184Y-42797737D01*
X117074210Y-42950478D01*
X117014630Y-43120750D01*
X117004837Y-43207666D01*
X116977770Y-43272080D01*
X116969300Y-43281462D01*
X116919479Y-43331284D01*
X116871359Y-43414632D01*
X116840424Y-43468212D01*
X116840423Y-43468213D01*
X116836006Y-43484698D01*
X116799499Y-43620943D01*
X116799499Y-43620945D01*
X116799499Y-43789046D01*
X116799500Y-43789059D01*
X116799500Y-44713330D01*
X116799499Y-44713348D01*
X116799499Y-44879054D01*
X116799498Y-44879054D01*
X113398695Y-44879054D01*
X113381904Y-44869360D01*
X113381904Y-44869359D01*
X113381900Y-44869358D01*
X113331785Y-44840423D01*
X113179057Y-44799499D01*
X113020943Y-44799499D01*
X113013347Y-44799499D01*
X113013331Y-44799500D01*
X112510576Y-44799500D01*
X112443537Y-44779815D01*
X112397782Y-44727011D01*
X112387356Y-44661617D01*
X112405565Y-44500003D01*
X112405565Y-44499996D01*
X112385369Y-44320750D01*
X112385368Y-44320745D01*
X112325789Y-44150478D01*
X112229816Y-43997738D01*
X112102262Y-43870184D01*
X112070897Y-43850476D01*
X111949523Y-43774211D01*
X111779254Y-43714631D01*
X111779249Y-43714630D01*
X111600004Y-43694435D01*
X111599996Y-43694435D01*
X111420750Y-43714630D01*
X111420745Y-43714631D01*
X111250476Y-43774211D01*
X111097737Y-43870184D01*
X110970184Y-43997737D01*
X110874211Y-44150476D01*
X110814631Y-44320745D01*
X110814630Y-44320750D01*
X110794435Y-44499996D01*
X101353178Y-44499996D01*
X101353733Y-44499593D01*
X101499593Y-44353733D01*
X101620840Y-44186852D01*
X101714488Y-44003057D01*
X101778231Y-43806876D01*
X101810500Y-43603139D01*
X101810500Y-43396861D01*
X101778231Y-43193124D01*
X101778230Y-43193120D01*
X101778230Y-43193119D01*
X101714489Y-42996945D01*
X101686329Y-42941678D01*
X101620840Y-42813148D01*
X101499593Y-42646267D01*
X101353733Y-42500407D01*
X101186852Y-42379160D01*
X101003054Y-42285510D01*
X100806879Y-42221769D01*
X100654073Y-42197567D01*
X100603139Y-42189500D01*
X100396861Y-42189500D01*
X100339116Y-42198646D01*
X100193122Y-42221769D01*
X100193119Y-42221769D01*
X99996945Y-42285510D01*
X99813147Y-42379160D01*
X99646265Y-42500408D01*
X99500408Y-42646265D01*
X99379160Y-42813147D01*
X99285510Y-42996945D01*
X99221769Y-43193119D01*
X99221769Y-43193122D01*
X99189500Y-43396861D01*
X97305905Y-43396861D01*
X97315820Y-43207666D01*
X97317687Y-43172045D01*
X97319044Y-43159139D01*
X97344733Y-42996945D01*
X97369401Y-42841201D01*
X97372094Y-42828525D01*
X97455416Y-42517564D01*
X97459425Y-42505229D01*
X97461276Y-42500407D01*
X97574784Y-42204707D01*
X97580054Y-42192868D01*
X97726214Y-41906014D01*
X97732680Y-41894815D01*
X97908015Y-41624823D01*
X97915630Y-41614342D01*
X98118229Y-41364153D01*
X98126896Y-41354528D01*
X98354528Y-41126896D01*
X98364153Y-41118229D01*
X98614342Y-40915630D01*
X98624823Y-40908015D01*
X98894815Y-40732680D01*
X98906014Y-40726214D01*
X99192868Y-40580054D01*
X99204707Y-40574784D01*
X99505236Y-40459422D01*
X99517564Y-40455416D01*
X99828525Y-40372094D01*
X99841201Y-40369401D01*
X100159141Y-40319043D01*
X100172045Y-40317687D01*
X100496756Y-40300669D01*
X100503246Y-40300500D01*
X100547595Y-40300500D01*
X128452405Y-40300500D01*
X128496754Y-40300500D01*
X128503243Y-40300669D01*
G37*
%TD.AperFunction*%
%TD*%
M02*
