%TF.GenerationSoftware,KiCad,Pcbnew,8.0.8*%
%TF.CreationDate,2025-02-04T17:25:34+01:00*%
%TF.ProjectId,IMU_PCB,494d555f-5043-4422-9e6b-696361645f70,rev?*%
%TF.SameCoordinates,Original*%
%TF.FileFunction,Legend,Bot*%
%TF.FilePolarity,Positive*%
%FSLAX46Y46*%
G04 Gerber Fmt 4.6, Leading zero omitted, Abs format (unit mm)*
G04 Created by KiCad (PCBNEW 8.0.8) date 2025-02-04 17:25:34*
%MOMM*%
%LPD*%
G01*
G04 APERTURE LIST*
%ADD10C,0.170000*%
G04 APERTURE END LIST*
D10*
X116078840Y-49397681D02*
X116031220Y-49254824D01*
X116031220Y-49254824D02*
X116031220Y-49016729D01*
X116031220Y-49016729D02*
X116078840Y-48921491D01*
X116078840Y-48921491D02*
X116126459Y-48873872D01*
X116126459Y-48873872D02*
X116221697Y-48826253D01*
X116221697Y-48826253D02*
X116316935Y-48826253D01*
X116316935Y-48826253D02*
X116412173Y-48873872D01*
X116412173Y-48873872D02*
X116459792Y-48921491D01*
X116459792Y-48921491D02*
X116507411Y-49016729D01*
X116507411Y-49016729D02*
X116555030Y-49207205D01*
X116555030Y-49207205D02*
X116602649Y-49302443D01*
X116602649Y-49302443D02*
X116650268Y-49350062D01*
X116650268Y-49350062D02*
X116745506Y-49397681D01*
X116745506Y-49397681D02*
X116840744Y-49397681D01*
X116840744Y-49397681D02*
X116935982Y-49350062D01*
X116935982Y-49350062D02*
X116983601Y-49302443D01*
X116983601Y-49302443D02*
X117031220Y-49207205D01*
X117031220Y-49207205D02*
X117031220Y-48969110D01*
X117031220Y-48969110D02*
X116983601Y-48826253D01*
X116031220Y-48397681D02*
X117031220Y-48397681D01*
X117031220Y-48397681D02*
X117031220Y-48159586D01*
X117031220Y-48159586D02*
X116983601Y-48016729D01*
X116983601Y-48016729D02*
X116888363Y-47921491D01*
X116888363Y-47921491D02*
X116793125Y-47873872D01*
X116793125Y-47873872D02*
X116602649Y-47826253D01*
X116602649Y-47826253D02*
X116459792Y-47826253D01*
X116459792Y-47826253D02*
X116269316Y-47873872D01*
X116269316Y-47873872D02*
X116174078Y-47921491D01*
X116174078Y-47921491D02*
X116078840Y-48016729D01*
X116078840Y-48016729D02*
X116031220Y-48159586D01*
X116031220Y-48159586D02*
X116031220Y-48397681D01*
X116316935Y-47445300D02*
X116316935Y-46969110D01*
X116031220Y-47540538D02*
X117031220Y-47207205D01*
X117031220Y-47207205D02*
X116031220Y-46873872D01*
X111031220Y-49545300D02*
X111031220Y-48926253D01*
X111031220Y-48926253D02*
X110650268Y-49259586D01*
X110650268Y-49259586D02*
X110650268Y-49116729D01*
X110650268Y-49116729D02*
X110602649Y-49021491D01*
X110602649Y-49021491D02*
X110555030Y-48973872D01*
X110555030Y-48973872D02*
X110459792Y-48926253D01*
X110459792Y-48926253D02*
X110221697Y-48926253D01*
X110221697Y-48926253D02*
X110126459Y-48973872D01*
X110126459Y-48973872D02*
X110078840Y-49021491D01*
X110078840Y-49021491D02*
X110031220Y-49116729D01*
X110031220Y-49116729D02*
X110031220Y-49402443D01*
X110031220Y-49402443D02*
X110078840Y-49497681D01*
X110078840Y-49497681D02*
X110126459Y-49545300D01*
X110078840Y-48450062D02*
X110031220Y-48450062D01*
X110031220Y-48450062D02*
X109935982Y-48497681D01*
X109935982Y-48497681D02*
X109888363Y-48545300D01*
X111031220Y-48116729D02*
X111031220Y-47497682D01*
X111031220Y-47497682D02*
X110650268Y-47831015D01*
X110650268Y-47831015D02*
X110650268Y-47688158D01*
X110650268Y-47688158D02*
X110602649Y-47592920D01*
X110602649Y-47592920D02*
X110555030Y-47545301D01*
X110555030Y-47545301D02*
X110459792Y-47497682D01*
X110459792Y-47497682D02*
X110221697Y-47497682D01*
X110221697Y-47497682D02*
X110126459Y-47545301D01*
X110126459Y-47545301D02*
X110078840Y-47592920D01*
X110078840Y-47592920D02*
X110031220Y-47688158D01*
X110031220Y-47688158D02*
X110031220Y-47973872D01*
X110031220Y-47973872D02*
X110078840Y-48069110D01*
X110078840Y-48069110D02*
X110126459Y-48116729D01*
X111031220Y-47211967D02*
X110031220Y-46878634D01*
X110031220Y-46878634D02*
X111031220Y-46545301D01*
X114131220Y-49450062D02*
X115131220Y-49450062D01*
X114131220Y-48973872D02*
X115131220Y-48973872D01*
X115131220Y-48973872D02*
X114131220Y-48402444D01*
X114131220Y-48402444D02*
X115131220Y-48402444D01*
X115131220Y-48069110D02*
X115131220Y-47497682D01*
X114131220Y-47783396D02*
X115131220Y-47783396D01*
X117978840Y-49397681D02*
X117931220Y-49254824D01*
X117931220Y-49254824D02*
X117931220Y-49016729D01*
X117931220Y-49016729D02*
X117978840Y-48921491D01*
X117978840Y-48921491D02*
X118026459Y-48873872D01*
X118026459Y-48873872D02*
X118121697Y-48826253D01*
X118121697Y-48826253D02*
X118216935Y-48826253D01*
X118216935Y-48826253D02*
X118312173Y-48873872D01*
X118312173Y-48873872D02*
X118359792Y-48921491D01*
X118359792Y-48921491D02*
X118407411Y-49016729D01*
X118407411Y-49016729D02*
X118455030Y-49207205D01*
X118455030Y-49207205D02*
X118502649Y-49302443D01*
X118502649Y-49302443D02*
X118550268Y-49350062D01*
X118550268Y-49350062D02*
X118645506Y-49397681D01*
X118645506Y-49397681D02*
X118740744Y-49397681D01*
X118740744Y-49397681D02*
X118835982Y-49350062D01*
X118835982Y-49350062D02*
X118883601Y-49302443D01*
X118883601Y-49302443D02*
X118931220Y-49207205D01*
X118931220Y-49207205D02*
X118931220Y-48969110D01*
X118931220Y-48969110D02*
X118883601Y-48826253D01*
X118026459Y-47826253D02*
X117978840Y-47873872D01*
X117978840Y-47873872D02*
X117931220Y-48016729D01*
X117931220Y-48016729D02*
X117931220Y-48111967D01*
X117931220Y-48111967D02*
X117978840Y-48254824D01*
X117978840Y-48254824D02*
X118074078Y-48350062D01*
X118074078Y-48350062D02*
X118169316Y-48397681D01*
X118169316Y-48397681D02*
X118359792Y-48445300D01*
X118359792Y-48445300D02*
X118502649Y-48445300D01*
X118502649Y-48445300D02*
X118693125Y-48397681D01*
X118693125Y-48397681D02*
X118788363Y-48350062D01*
X118788363Y-48350062D02*
X118883601Y-48254824D01*
X118883601Y-48254824D02*
X118931220Y-48111967D01*
X118931220Y-48111967D02*
X118931220Y-48016729D01*
X118931220Y-48016729D02*
X118883601Y-47873872D01*
X118883601Y-47873872D02*
X118835982Y-47826253D01*
X117931220Y-46921491D02*
X117931220Y-47397681D01*
X117931220Y-47397681D02*
X118931220Y-47397681D01*
X112883601Y-48926253D02*
X112931220Y-49021491D01*
X112931220Y-49021491D02*
X112931220Y-49164348D01*
X112931220Y-49164348D02*
X112883601Y-49307205D01*
X112883601Y-49307205D02*
X112788363Y-49402443D01*
X112788363Y-49402443D02*
X112693125Y-49450062D01*
X112693125Y-49450062D02*
X112502649Y-49497681D01*
X112502649Y-49497681D02*
X112359792Y-49497681D01*
X112359792Y-49497681D02*
X112169316Y-49450062D01*
X112169316Y-49450062D02*
X112074078Y-49402443D01*
X112074078Y-49402443D02*
X111978840Y-49307205D01*
X111978840Y-49307205D02*
X111931220Y-49164348D01*
X111931220Y-49164348D02*
X111931220Y-49069110D01*
X111931220Y-49069110D02*
X111978840Y-48926253D01*
X111978840Y-48926253D02*
X112026459Y-48878634D01*
X112026459Y-48878634D02*
X112359792Y-48878634D01*
X112359792Y-48878634D02*
X112359792Y-49069110D01*
X111931220Y-48450062D02*
X112931220Y-48450062D01*
X112931220Y-48450062D02*
X111931220Y-47878634D01*
X111931220Y-47878634D02*
X112931220Y-47878634D01*
X111931220Y-47402443D02*
X112931220Y-47402443D01*
X112931220Y-47402443D02*
X112931220Y-47164348D01*
X112931220Y-47164348D02*
X112883601Y-47021491D01*
X112883601Y-47021491D02*
X112788363Y-46926253D01*
X112788363Y-46926253D02*
X112693125Y-46878634D01*
X112693125Y-46878634D02*
X112502649Y-46831015D01*
X112502649Y-46831015D02*
X112359792Y-46831015D01*
X112359792Y-46831015D02*
X112169316Y-46878634D01*
X112169316Y-46878634D02*
X112074078Y-46926253D01*
X112074078Y-46926253D02*
X111978840Y-47021491D01*
X111978840Y-47021491D02*
X111931220Y-47164348D01*
X111931220Y-47164348D02*
X111931220Y-47402443D01*
M02*
