%TF.GenerationSoftware,KiCad,Pcbnew,8.0.8*%
%TF.CreationDate,2025-02-04T17:26:01+01:00*%
%TF.ProjectId,IMU_PCB,494d555f-5043-4422-9e6b-696361645f70,rev?*%
%TF.SameCoordinates,Original*%
%TF.FileFunction,Drillmap*%
%TF.FilePolarity,Positive*%
%FSLAX45Y45*%
G04 Gerber Fmt 4.5, Leading zero omitted, Abs format (unit mm)*
G04 Created by KiCad (PCBNEW 8.0.8) date 2025-02-04 17:26:01*
%MOMM*%
%LPD*%
G01*
G04 APERTURE LIST*
%ADD10C,0.050000*%
%ADD11C,0.200000*%
%ADD12C,0.100000*%
G04 APERTURE END LIST*
D10*
X13200000Y-5000000D02*
X13200000Y-4350000D01*
X10400000Y-5000000D02*
G75*
G02*
X9700000Y-5000000I-350000J0D01*
G01*
X12850000Y-4000000D02*
G75*
G02*
X13200000Y-4350000I0J-350000D01*
G01*
X9700000Y-4350000D02*
G75*
G02*
X10050000Y-4000000I350000J0D01*
G01*
X10400000Y-5000000D02*
X12500000Y-5000000D01*
X9700000Y-4350000D02*
X9700000Y-5000000D01*
X13200000Y-5000000D02*
G75*
G02*
X12500000Y-5000000I-350000J0D01*
G01*
X10050000Y-4000000D02*
X12850000Y-4000000D01*
D11*
D12*
X10889500Y-4267000D02*
X10915500Y-4293000D01*
X10915500Y-4267000D02*
X10889500Y-4293000D01*
X10889500Y-4437000D02*
X10915500Y-4463000D01*
X10915500Y-4437000D02*
X10889500Y-4463000D01*
X11147000Y-4437000D02*
X11173000Y-4463000D01*
X11173000Y-4437000D02*
X11147000Y-4463000D01*
X11407000Y-4637000D02*
X11433000Y-4663000D01*
X11433000Y-4637000D02*
X11407000Y-4663000D01*
X11537000Y-4637000D02*
X11563000Y-4663000D01*
X11563000Y-4637000D02*
X11537000Y-4663000D01*
X11767000Y-4317000D02*
X11793000Y-4343000D01*
X11793000Y-4317000D02*
X11767000Y-4343000D01*
X11807000Y-4407000D02*
X11833000Y-4433000D01*
X11833000Y-4407000D02*
X11807000Y-4433000D01*
X11907000Y-4577000D02*
X11933000Y-4603000D01*
X11933000Y-4577000D02*
X11907000Y-4603000D01*
X11937000Y-4407000D02*
X11963000Y-4433000D01*
X11963000Y-4407000D02*
X11937000Y-4433000D01*
X10750000Y-4660000D02*
G75*
G02*
X10710000Y-4660000I-20000J0D01*
G01*
X10710000Y-4660000D02*
G75*
G02*
X10750000Y-4660000I20000J0D01*
G01*
X11220000Y-4640000D02*
G75*
G02*
X11180000Y-4640000I-20000J0D01*
G01*
X11180000Y-4640000D02*
G75*
G02*
X11220000Y-4640000I20000J0D01*
G01*
X12380000Y-4310000D02*
G75*
G02*
X12340000Y-4310000I-20000J0D01*
G01*
X12340000Y-4310000D02*
G75*
G02*
X12380000Y-4310000I20000J0D01*
G01*
D11*
X9958277Y-5663984D02*
X9958277Y-5463984D01*
X9958277Y-5463984D02*
X10005896Y-5463984D01*
X10005896Y-5463984D02*
X10034467Y-5473508D01*
X10034467Y-5473508D02*
X10053515Y-5492555D01*
X10053515Y-5492555D02*
X10063039Y-5511603D01*
X10063039Y-5511603D02*
X10072563Y-5549698D01*
X10072563Y-5549698D02*
X10072563Y-5578270D01*
X10072563Y-5578270D02*
X10063039Y-5616365D01*
X10063039Y-5616365D02*
X10053515Y-5635412D01*
X10053515Y-5635412D02*
X10034467Y-5654460D01*
X10034467Y-5654460D02*
X10005896Y-5663984D01*
X10005896Y-5663984D02*
X9958277Y-5663984D01*
X10158277Y-5663984D02*
X10158277Y-5530650D01*
X10158277Y-5568746D02*
X10167801Y-5549698D01*
X10167801Y-5549698D02*
X10177324Y-5540174D01*
X10177324Y-5540174D02*
X10196372Y-5530650D01*
X10196372Y-5530650D02*
X10215420Y-5530650D01*
X10282086Y-5663984D02*
X10282086Y-5530650D01*
X10282086Y-5463984D02*
X10272563Y-5473508D01*
X10272563Y-5473508D02*
X10282086Y-5483031D01*
X10282086Y-5483031D02*
X10291610Y-5473508D01*
X10291610Y-5473508D02*
X10282086Y-5463984D01*
X10282086Y-5463984D02*
X10282086Y-5483031D01*
X10405896Y-5663984D02*
X10386848Y-5654460D01*
X10386848Y-5654460D02*
X10377324Y-5635412D01*
X10377324Y-5635412D02*
X10377324Y-5463984D01*
X10510658Y-5663984D02*
X10491610Y-5654460D01*
X10491610Y-5654460D02*
X10482086Y-5635412D01*
X10482086Y-5635412D02*
X10482086Y-5463984D01*
X10739229Y-5663984D02*
X10739229Y-5463984D01*
X10739229Y-5463984D02*
X10805896Y-5606841D01*
X10805896Y-5606841D02*
X10872563Y-5463984D01*
X10872563Y-5463984D02*
X10872563Y-5663984D01*
X11053515Y-5663984D02*
X11053515Y-5559222D01*
X11053515Y-5559222D02*
X11043991Y-5540174D01*
X11043991Y-5540174D02*
X11024944Y-5530650D01*
X11024944Y-5530650D02*
X10986848Y-5530650D01*
X10986848Y-5530650D02*
X10967801Y-5540174D01*
X11053515Y-5654460D02*
X11034467Y-5663984D01*
X11034467Y-5663984D02*
X10986848Y-5663984D01*
X10986848Y-5663984D02*
X10967801Y-5654460D01*
X10967801Y-5654460D02*
X10958277Y-5635412D01*
X10958277Y-5635412D02*
X10958277Y-5616365D01*
X10958277Y-5616365D02*
X10967801Y-5597317D01*
X10967801Y-5597317D02*
X10986848Y-5587793D01*
X10986848Y-5587793D02*
X11034467Y-5587793D01*
X11034467Y-5587793D02*
X11053515Y-5578270D01*
X11148753Y-5530650D02*
X11148753Y-5730650D01*
X11148753Y-5540174D02*
X11167801Y-5530650D01*
X11167801Y-5530650D02*
X11205896Y-5530650D01*
X11205896Y-5530650D02*
X11224943Y-5540174D01*
X11224943Y-5540174D02*
X11234467Y-5549698D01*
X11234467Y-5549698D02*
X11243991Y-5568746D01*
X11243991Y-5568746D02*
X11243991Y-5625888D01*
X11243991Y-5625888D02*
X11234467Y-5644936D01*
X11234467Y-5644936D02*
X11224943Y-5654460D01*
X11224943Y-5654460D02*
X11205896Y-5663984D01*
X11205896Y-5663984D02*
X11167801Y-5663984D01*
X11167801Y-5663984D02*
X11148753Y-5654460D01*
X11329705Y-5644936D02*
X11339229Y-5654460D01*
X11339229Y-5654460D02*
X11329705Y-5663984D01*
X11329705Y-5663984D02*
X11320182Y-5654460D01*
X11320182Y-5654460D02*
X11329705Y-5644936D01*
X11329705Y-5644936D02*
X11329705Y-5663984D01*
X11329705Y-5540174D02*
X11339229Y-5549698D01*
X11339229Y-5549698D02*
X11329705Y-5559222D01*
X11329705Y-5559222D02*
X11320182Y-5549698D01*
X11320182Y-5549698D02*
X11329705Y-5540174D01*
X11329705Y-5540174D02*
X11329705Y-5559222D01*
D12*
X9671500Y-5979500D02*
X9697500Y-6005500D01*
X9697500Y-5979500D02*
X9671500Y-6005500D01*
D11*
X9996372Y-5883984D02*
X10015420Y-5883984D01*
X10015420Y-5883984D02*
X10034467Y-5893508D01*
X10034467Y-5893508D02*
X10043991Y-5903031D01*
X10043991Y-5903031D02*
X10053515Y-5922079D01*
X10053515Y-5922079D02*
X10063039Y-5960174D01*
X10063039Y-5960174D02*
X10063039Y-6007793D01*
X10063039Y-6007793D02*
X10053515Y-6045888D01*
X10053515Y-6045888D02*
X10043991Y-6064936D01*
X10043991Y-6064936D02*
X10034467Y-6074460D01*
X10034467Y-6074460D02*
X10015420Y-6083984D01*
X10015420Y-6083984D02*
X9996372Y-6083984D01*
X9996372Y-6083984D02*
X9977324Y-6074460D01*
X9977324Y-6074460D02*
X9967801Y-6064936D01*
X9967801Y-6064936D02*
X9958277Y-6045888D01*
X9958277Y-6045888D02*
X9948753Y-6007793D01*
X9948753Y-6007793D02*
X9948753Y-5960174D01*
X9948753Y-5960174D02*
X9958277Y-5922079D01*
X9958277Y-5922079D02*
X9967801Y-5903031D01*
X9967801Y-5903031D02*
X9977324Y-5893508D01*
X9977324Y-5893508D02*
X9996372Y-5883984D01*
X10148753Y-6064936D02*
X10158277Y-6074460D01*
X10158277Y-6074460D02*
X10148753Y-6083984D01*
X10148753Y-6083984D02*
X10139229Y-6074460D01*
X10139229Y-6074460D02*
X10148753Y-6064936D01*
X10148753Y-6064936D02*
X10148753Y-6083984D01*
X10234467Y-5903031D02*
X10243991Y-5893508D01*
X10243991Y-5893508D02*
X10263039Y-5883984D01*
X10263039Y-5883984D02*
X10310658Y-5883984D01*
X10310658Y-5883984D02*
X10329705Y-5893508D01*
X10329705Y-5893508D02*
X10339229Y-5903031D01*
X10339229Y-5903031D02*
X10348753Y-5922079D01*
X10348753Y-5922079D02*
X10348753Y-5941127D01*
X10348753Y-5941127D02*
X10339229Y-5969698D01*
X10339229Y-5969698D02*
X10224944Y-6083984D01*
X10224944Y-6083984D02*
X10348753Y-6083984D01*
X10520182Y-5883984D02*
X10482086Y-5883984D01*
X10482086Y-5883984D02*
X10463039Y-5893508D01*
X10463039Y-5893508D02*
X10453515Y-5903031D01*
X10453515Y-5903031D02*
X10434467Y-5931603D01*
X10434467Y-5931603D02*
X10424944Y-5969698D01*
X10424944Y-5969698D02*
X10424944Y-6045888D01*
X10424944Y-6045888D02*
X10434467Y-6064936D01*
X10434467Y-6064936D02*
X10443991Y-6074460D01*
X10443991Y-6074460D02*
X10463039Y-6083984D01*
X10463039Y-6083984D02*
X10501134Y-6083984D01*
X10501134Y-6083984D02*
X10520182Y-6074460D01*
X10520182Y-6074460D02*
X10529705Y-6064936D01*
X10529705Y-6064936D02*
X10539229Y-6045888D01*
X10539229Y-6045888D02*
X10539229Y-5998269D01*
X10539229Y-5998269D02*
X10529705Y-5979222D01*
X10529705Y-5979222D02*
X10520182Y-5969698D01*
X10520182Y-5969698D02*
X10501134Y-5960174D01*
X10501134Y-5960174D02*
X10463039Y-5960174D01*
X10463039Y-5960174D02*
X10443991Y-5969698D01*
X10443991Y-5969698D02*
X10434467Y-5979222D01*
X10434467Y-5979222D02*
X10424944Y-5998269D01*
X10663039Y-5883984D02*
X10682086Y-5883984D01*
X10682086Y-5883984D02*
X10701134Y-5893508D01*
X10701134Y-5893508D02*
X10710658Y-5903031D01*
X10710658Y-5903031D02*
X10720182Y-5922079D01*
X10720182Y-5922079D02*
X10729705Y-5960174D01*
X10729705Y-5960174D02*
X10729705Y-6007793D01*
X10729705Y-6007793D02*
X10720182Y-6045888D01*
X10720182Y-6045888D02*
X10710658Y-6064936D01*
X10710658Y-6064936D02*
X10701134Y-6074460D01*
X10701134Y-6074460D02*
X10682086Y-6083984D01*
X10682086Y-6083984D02*
X10663039Y-6083984D01*
X10663039Y-6083984D02*
X10643991Y-6074460D01*
X10643991Y-6074460D02*
X10634467Y-6064936D01*
X10634467Y-6064936D02*
X10624944Y-6045888D01*
X10624944Y-6045888D02*
X10615420Y-6007793D01*
X10615420Y-6007793D02*
X10615420Y-5960174D01*
X10615420Y-5960174D02*
X10624944Y-5922079D01*
X10624944Y-5922079D02*
X10634467Y-5903031D01*
X10634467Y-5903031D02*
X10643991Y-5893508D01*
X10643991Y-5893508D02*
X10663039Y-5883984D01*
X10815420Y-6083984D02*
X10815420Y-5950650D01*
X10815420Y-5969698D02*
X10824944Y-5960174D01*
X10824944Y-5960174D02*
X10843991Y-5950650D01*
X10843991Y-5950650D02*
X10872563Y-5950650D01*
X10872563Y-5950650D02*
X10891610Y-5960174D01*
X10891610Y-5960174D02*
X10901134Y-5979222D01*
X10901134Y-5979222D02*
X10901134Y-6083984D01*
X10901134Y-5979222D02*
X10910658Y-5960174D01*
X10910658Y-5960174D02*
X10929705Y-5950650D01*
X10929705Y-5950650D02*
X10958277Y-5950650D01*
X10958277Y-5950650D02*
X10977325Y-5960174D01*
X10977325Y-5960174D02*
X10986848Y-5979222D01*
X10986848Y-5979222D02*
X10986848Y-6083984D01*
X11082086Y-6083984D02*
X11082086Y-5950650D01*
X11082086Y-5969698D02*
X11091610Y-5960174D01*
X11091610Y-5960174D02*
X11110658Y-5950650D01*
X11110658Y-5950650D02*
X11139229Y-5950650D01*
X11139229Y-5950650D02*
X11158277Y-5960174D01*
X11158277Y-5960174D02*
X11167801Y-5979222D01*
X11167801Y-5979222D02*
X11167801Y-6083984D01*
X11167801Y-5979222D02*
X11177325Y-5960174D01*
X11177325Y-5960174D02*
X11196372Y-5950650D01*
X11196372Y-5950650D02*
X11224943Y-5950650D01*
X11224943Y-5950650D02*
X11243991Y-5960174D01*
X11243991Y-5960174D02*
X11253515Y-5979222D01*
X11253515Y-5979222D02*
X11253515Y-6083984D01*
X11643991Y-5874460D02*
X11472563Y-6131603D01*
X11901134Y-5883984D02*
X11920182Y-5883984D01*
X11920182Y-5883984D02*
X11939229Y-5893508D01*
X11939229Y-5893508D02*
X11948753Y-5903031D01*
X11948753Y-5903031D02*
X11958277Y-5922079D01*
X11958277Y-5922079D02*
X11967801Y-5960174D01*
X11967801Y-5960174D02*
X11967801Y-6007793D01*
X11967801Y-6007793D02*
X11958277Y-6045888D01*
X11958277Y-6045888D02*
X11948753Y-6064936D01*
X11948753Y-6064936D02*
X11939229Y-6074460D01*
X11939229Y-6074460D02*
X11920182Y-6083984D01*
X11920182Y-6083984D02*
X11901134Y-6083984D01*
X11901134Y-6083984D02*
X11882086Y-6074460D01*
X11882086Y-6074460D02*
X11872563Y-6064936D01*
X11872563Y-6064936D02*
X11863039Y-6045888D01*
X11863039Y-6045888D02*
X11853515Y-6007793D01*
X11853515Y-6007793D02*
X11853515Y-5960174D01*
X11853515Y-5960174D02*
X11863039Y-5922079D01*
X11863039Y-5922079D02*
X11872563Y-5903031D01*
X11872563Y-5903031D02*
X11882086Y-5893508D01*
X11882086Y-5893508D02*
X11901134Y-5883984D01*
X12053515Y-6064936D02*
X12063039Y-6074460D01*
X12063039Y-6074460D02*
X12053515Y-6083984D01*
X12053515Y-6083984D02*
X12043991Y-6074460D01*
X12043991Y-6074460D02*
X12053515Y-6064936D01*
X12053515Y-6064936D02*
X12053515Y-6083984D01*
X12186848Y-5883984D02*
X12205896Y-5883984D01*
X12205896Y-5883984D02*
X12224944Y-5893508D01*
X12224944Y-5893508D02*
X12234467Y-5903031D01*
X12234467Y-5903031D02*
X12243991Y-5922079D01*
X12243991Y-5922079D02*
X12253515Y-5960174D01*
X12253515Y-5960174D02*
X12253515Y-6007793D01*
X12253515Y-6007793D02*
X12243991Y-6045888D01*
X12243991Y-6045888D02*
X12234467Y-6064936D01*
X12234467Y-6064936D02*
X12224944Y-6074460D01*
X12224944Y-6074460D02*
X12205896Y-6083984D01*
X12205896Y-6083984D02*
X12186848Y-6083984D01*
X12186848Y-6083984D02*
X12167801Y-6074460D01*
X12167801Y-6074460D02*
X12158277Y-6064936D01*
X12158277Y-6064936D02*
X12148753Y-6045888D01*
X12148753Y-6045888D02*
X12139229Y-6007793D01*
X12139229Y-6007793D02*
X12139229Y-5960174D01*
X12139229Y-5960174D02*
X12148753Y-5922079D01*
X12148753Y-5922079D02*
X12158277Y-5903031D01*
X12158277Y-5903031D02*
X12167801Y-5893508D01*
X12167801Y-5893508D02*
X12186848Y-5883984D01*
X12443991Y-6083984D02*
X12329706Y-6083984D01*
X12386848Y-6083984D02*
X12386848Y-5883984D01*
X12386848Y-5883984D02*
X12367801Y-5912555D01*
X12367801Y-5912555D02*
X12348753Y-5931603D01*
X12348753Y-5931603D02*
X12329706Y-5941127D01*
X12567801Y-5883984D02*
X12586848Y-5883984D01*
X12586848Y-5883984D02*
X12605896Y-5893508D01*
X12605896Y-5893508D02*
X12615420Y-5903031D01*
X12615420Y-5903031D02*
X12624944Y-5922079D01*
X12624944Y-5922079D02*
X12634467Y-5960174D01*
X12634467Y-5960174D02*
X12634467Y-6007793D01*
X12634467Y-6007793D02*
X12624944Y-6045888D01*
X12624944Y-6045888D02*
X12615420Y-6064936D01*
X12615420Y-6064936D02*
X12605896Y-6074460D01*
X12605896Y-6074460D02*
X12586848Y-6083984D01*
X12586848Y-6083984D02*
X12567801Y-6083984D01*
X12567801Y-6083984D02*
X12548753Y-6074460D01*
X12548753Y-6074460D02*
X12539229Y-6064936D01*
X12539229Y-6064936D02*
X12529706Y-6045888D01*
X12529706Y-6045888D02*
X12520182Y-6007793D01*
X12520182Y-6007793D02*
X12520182Y-5960174D01*
X12520182Y-5960174D02*
X12529706Y-5922079D01*
X12529706Y-5922079D02*
X12539229Y-5903031D01*
X12539229Y-5903031D02*
X12548753Y-5893508D01*
X12548753Y-5893508D02*
X12567801Y-5883984D01*
X12710658Y-5903031D02*
X12720182Y-5893508D01*
X12720182Y-5893508D02*
X12739229Y-5883984D01*
X12739229Y-5883984D02*
X12786848Y-5883984D01*
X12786848Y-5883984D02*
X12805896Y-5893508D01*
X12805896Y-5893508D02*
X12815420Y-5903031D01*
X12815420Y-5903031D02*
X12824944Y-5922079D01*
X12824944Y-5922079D02*
X12824944Y-5941127D01*
X12824944Y-5941127D02*
X12815420Y-5969698D01*
X12815420Y-5969698D02*
X12701134Y-6083984D01*
X12701134Y-6083984D02*
X12824944Y-6083984D01*
X12901134Y-5883984D02*
X12901134Y-5922079D01*
X12977325Y-5883984D02*
X12977325Y-5922079D01*
X13272563Y-6160174D02*
X13263039Y-6150650D01*
X13263039Y-6150650D02*
X13243991Y-6122079D01*
X13243991Y-6122079D02*
X13234468Y-6103031D01*
X13234468Y-6103031D02*
X13224944Y-6074460D01*
X13224944Y-6074460D02*
X13215420Y-6026841D01*
X13215420Y-6026841D02*
X13215420Y-5988746D01*
X13215420Y-5988746D02*
X13224944Y-5941127D01*
X13224944Y-5941127D02*
X13234468Y-5912555D01*
X13234468Y-5912555D02*
X13243991Y-5893508D01*
X13243991Y-5893508D02*
X13263039Y-5864936D01*
X13263039Y-5864936D02*
X13272563Y-5855412D01*
X13358277Y-6083984D02*
X13396372Y-6083984D01*
X13396372Y-6083984D02*
X13415420Y-6074460D01*
X13415420Y-6074460D02*
X13424944Y-6064936D01*
X13424944Y-6064936D02*
X13443991Y-6036365D01*
X13443991Y-6036365D02*
X13453515Y-5998269D01*
X13453515Y-5998269D02*
X13453515Y-5922079D01*
X13453515Y-5922079D02*
X13443991Y-5903031D01*
X13443991Y-5903031D02*
X13434468Y-5893508D01*
X13434468Y-5893508D02*
X13415420Y-5883984D01*
X13415420Y-5883984D02*
X13377325Y-5883984D01*
X13377325Y-5883984D02*
X13358277Y-5893508D01*
X13358277Y-5893508D02*
X13348753Y-5903031D01*
X13348753Y-5903031D02*
X13339229Y-5922079D01*
X13339229Y-5922079D02*
X13339229Y-5969698D01*
X13339229Y-5969698D02*
X13348753Y-5988746D01*
X13348753Y-5988746D02*
X13358277Y-5998269D01*
X13358277Y-5998269D02*
X13377325Y-6007793D01*
X13377325Y-6007793D02*
X13415420Y-6007793D01*
X13415420Y-6007793D02*
X13434468Y-5998269D01*
X13434468Y-5998269D02*
X13443991Y-5988746D01*
X13443991Y-5988746D02*
X13453515Y-5969698D01*
X13691610Y-6083984D02*
X13691610Y-5883984D01*
X13777325Y-6083984D02*
X13777325Y-5979222D01*
X13777325Y-5979222D02*
X13767801Y-5960174D01*
X13767801Y-5960174D02*
X13748753Y-5950650D01*
X13748753Y-5950650D02*
X13720182Y-5950650D01*
X13720182Y-5950650D02*
X13701134Y-5960174D01*
X13701134Y-5960174D02*
X13691610Y-5969698D01*
X13901134Y-6083984D02*
X13882087Y-6074460D01*
X13882087Y-6074460D02*
X13872563Y-6064936D01*
X13872563Y-6064936D02*
X13863039Y-6045888D01*
X13863039Y-6045888D02*
X13863039Y-5988746D01*
X13863039Y-5988746D02*
X13872563Y-5969698D01*
X13872563Y-5969698D02*
X13882087Y-5960174D01*
X13882087Y-5960174D02*
X13901134Y-5950650D01*
X13901134Y-5950650D02*
X13929706Y-5950650D01*
X13929706Y-5950650D02*
X13948753Y-5960174D01*
X13948753Y-5960174D02*
X13958277Y-5969698D01*
X13958277Y-5969698D02*
X13967801Y-5988746D01*
X13967801Y-5988746D02*
X13967801Y-6045888D01*
X13967801Y-6045888D02*
X13958277Y-6064936D01*
X13958277Y-6064936D02*
X13948753Y-6074460D01*
X13948753Y-6074460D02*
X13929706Y-6083984D01*
X13929706Y-6083984D02*
X13901134Y-6083984D01*
X14082087Y-6083984D02*
X14063039Y-6074460D01*
X14063039Y-6074460D02*
X14053515Y-6055412D01*
X14053515Y-6055412D02*
X14053515Y-5883984D01*
X14234468Y-6074460D02*
X14215420Y-6083984D01*
X14215420Y-6083984D02*
X14177325Y-6083984D01*
X14177325Y-6083984D02*
X14158277Y-6074460D01*
X14158277Y-6074460D02*
X14148753Y-6055412D01*
X14148753Y-6055412D02*
X14148753Y-5979222D01*
X14148753Y-5979222D02*
X14158277Y-5960174D01*
X14158277Y-5960174D02*
X14177325Y-5950650D01*
X14177325Y-5950650D02*
X14215420Y-5950650D01*
X14215420Y-5950650D02*
X14234468Y-5960174D01*
X14234468Y-5960174D02*
X14243991Y-5979222D01*
X14243991Y-5979222D02*
X14243991Y-5998269D01*
X14243991Y-5998269D02*
X14148753Y-6017317D01*
X14320182Y-6074460D02*
X14339230Y-6083984D01*
X14339230Y-6083984D02*
X14377325Y-6083984D01*
X14377325Y-6083984D02*
X14396372Y-6074460D01*
X14396372Y-6074460D02*
X14405896Y-6055412D01*
X14405896Y-6055412D02*
X14405896Y-6045888D01*
X14405896Y-6045888D02*
X14396372Y-6026841D01*
X14396372Y-6026841D02*
X14377325Y-6017317D01*
X14377325Y-6017317D02*
X14348753Y-6017317D01*
X14348753Y-6017317D02*
X14329706Y-6007793D01*
X14329706Y-6007793D02*
X14320182Y-5988746D01*
X14320182Y-5988746D02*
X14320182Y-5979222D01*
X14320182Y-5979222D02*
X14329706Y-5960174D01*
X14329706Y-5960174D02*
X14348753Y-5950650D01*
X14348753Y-5950650D02*
X14377325Y-5950650D01*
X14377325Y-5950650D02*
X14396372Y-5960174D01*
X14472563Y-6160174D02*
X14482087Y-6150650D01*
X14482087Y-6150650D02*
X14501134Y-6122079D01*
X14501134Y-6122079D02*
X14510658Y-6103031D01*
X14510658Y-6103031D02*
X14520182Y-6074460D01*
X14520182Y-6074460D02*
X14529706Y-6026841D01*
X14529706Y-6026841D02*
X14529706Y-5988746D01*
X14529706Y-5988746D02*
X14520182Y-5941127D01*
X14520182Y-5941127D02*
X14510658Y-5912555D01*
X14510658Y-5912555D02*
X14501134Y-5893508D01*
X14501134Y-5893508D02*
X14482087Y-5864936D01*
X14482087Y-5864936D02*
X14472563Y-5855412D01*
D12*
X9697500Y-6256500D02*
G75*
G02*
X9657500Y-6256500I-20000J0D01*
G01*
X9657500Y-6256500D02*
G75*
G02*
X9697500Y-6256500I20000J0D01*
G01*
D11*
X9996372Y-6147984D02*
X10015420Y-6147984D01*
X10015420Y-6147984D02*
X10034467Y-6157508D01*
X10034467Y-6157508D02*
X10043991Y-6167031D01*
X10043991Y-6167031D02*
X10053515Y-6186079D01*
X10053515Y-6186079D02*
X10063039Y-6224174D01*
X10063039Y-6224174D02*
X10063039Y-6271793D01*
X10063039Y-6271793D02*
X10053515Y-6309888D01*
X10053515Y-6309888D02*
X10043991Y-6328936D01*
X10043991Y-6328936D02*
X10034467Y-6338460D01*
X10034467Y-6338460D02*
X10015420Y-6347984D01*
X10015420Y-6347984D02*
X9996372Y-6347984D01*
X9996372Y-6347984D02*
X9977324Y-6338460D01*
X9977324Y-6338460D02*
X9967801Y-6328936D01*
X9967801Y-6328936D02*
X9958277Y-6309888D01*
X9958277Y-6309888D02*
X9948753Y-6271793D01*
X9948753Y-6271793D02*
X9948753Y-6224174D01*
X9948753Y-6224174D02*
X9958277Y-6186079D01*
X9958277Y-6186079D02*
X9967801Y-6167031D01*
X9967801Y-6167031D02*
X9977324Y-6157508D01*
X9977324Y-6157508D02*
X9996372Y-6147984D01*
X10148753Y-6328936D02*
X10158277Y-6338460D01*
X10158277Y-6338460D02*
X10148753Y-6347984D01*
X10148753Y-6347984D02*
X10139229Y-6338460D01*
X10139229Y-6338460D02*
X10148753Y-6328936D01*
X10148753Y-6328936D02*
X10148753Y-6347984D01*
X10329705Y-6214650D02*
X10329705Y-6347984D01*
X10282086Y-6138460D02*
X10234467Y-6281317D01*
X10234467Y-6281317D02*
X10358277Y-6281317D01*
X10472563Y-6147984D02*
X10491610Y-6147984D01*
X10491610Y-6147984D02*
X10510658Y-6157508D01*
X10510658Y-6157508D02*
X10520182Y-6167031D01*
X10520182Y-6167031D02*
X10529705Y-6186079D01*
X10529705Y-6186079D02*
X10539229Y-6224174D01*
X10539229Y-6224174D02*
X10539229Y-6271793D01*
X10539229Y-6271793D02*
X10529705Y-6309888D01*
X10529705Y-6309888D02*
X10520182Y-6328936D01*
X10520182Y-6328936D02*
X10510658Y-6338460D01*
X10510658Y-6338460D02*
X10491610Y-6347984D01*
X10491610Y-6347984D02*
X10472563Y-6347984D01*
X10472563Y-6347984D02*
X10453515Y-6338460D01*
X10453515Y-6338460D02*
X10443991Y-6328936D01*
X10443991Y-6328936D02*
X10434467Y-6309888D01*
X10434467Y-6309888D02*
X10424944Y-6271793D01*
X10424944Y-6271793D02*
X10424944Y-6224174D01*
X10424944Y-6224174D02*
X10434467Y-6186079D01*
X10434467Y-6186079D02*
X10443991Y-6167031D01*
X10443991Y-6167031D02*
X10453515Y-6157508D01*
X10453515Y-6157508D02*
X10472563Y-6147984D01*
X10663039Y-6147984D02*
X10682086Y-6147984D01*
X10682086Y-6147984D02*
X10701134Y-6157508D01*
X10701134Y-6157508D02*
X10710658Y-6167031D01*
X10710658Y-6167031D02*
X10720182Y-6186079D01*
X10720182Y-6186079D02*
X10729705Y-6224174D01*
X10729705Y-6224174D02*
X10729705Y-6271793D01*
X10729705Y-6271793D02*
X10720182Y-6309888D01*
X10720182Y-6309888D02*
X10710658Y-6328936D01*
X10710658Y-6328936D02*
X10701134Y-6338460D01*
X10701134Y-6338460D02*
X10682086Y-6347984D01*
X10682086Y-6347984D02*
X10663039Y-6347984D01*
X10663039Y-6347984D02*
X10643991Y-6338460D01*
X10643991Y-6338460D02*
X10634467Y-6328936D01*
X10634467Y-6328936D02*
X10624944Y-6309888D01*
X10624944Y-6309888D02*
X10615420Y-6271793D01*
X10615420Y-6271793D02*
X10615420Y-6224174D01*
X10615420Y-6224174D02*
X10624944Y-6186079D01*
X10624944Y-6186079D02*
X10634467Y-6167031D01*
X10634467Y-6167031D02*
X10643991Y-6157508D01*
X10643991Y-6157508D02*
X10663039Y-6147984D01*
X10815420Y-6347984D02*
X10815420Y-6214650D01*
X10815420Y-6233698D02*
X10824944Y-6224174D01*
X10824944Y-6224174D02*
X10843991Y-6214650D01*
X10843991Y-6214650D02*
X10872563Y-6214650D01*
X10872563Y-6214650D02*
X10891610Y-6224174D01*
X10891610Y-6224174D02*
X10901134Y-6243222D01*
X10901134Y-6243222D02*
X10901134Y-6347984D01*
X10901134Y-6243222D02*
X10910658Y-6224174D01*
X10910658Y-6224174D02*
X10929705Y-6214650D01*
X10929705Y-6214650D02*
X10958277Y-6214650D01*
X10958277Y-6214650D02*
X10977325Y-6224174D01*
X10977325Y-6224174D02*
X10986848Y-6243222D01*
X10986848Y-6243222D02*
X10986848Y-6347984D01*
X11082086Y-6347984D02*
X11082086Y-6214650D01*
X11082086Y-6233698D02*
X11091610Y-6224174D01*
X11091610Y-6224174D02*
X11110658Y-6214650D01*
X11110658Y-6214650D02*
X11139229Y-6214650D01*
X11139229Y-6214650D02*
X11158277Y-6224174D01*
X11158277Y-6224174D02*
X11167801Y-6243222D01*
X11167801Y-6243222D02*
X11167801Y-6347984D01*
X11167801Y-6243222D02*
X11177325Y-6224174D01*
X11177325Y-6224174D02*
X11196372Y-6214650D01*
X11196372Y-6214650D02*
X11224943Y-6214650D01*
X11224943Y-6214650D02*
X11243991Y-6224174D01*
X11243991Y-6224174D02*
X11253515Y-6243222D01*
X11253515Y-6243222D02*
X11253515Y-6347984D01*
X11643991Y-6138460D02*
X11472563Y-6395603D01*
X11901134Y-6147984D02*
X11920182Y-6147984D01*
X11920182Y-6147984D02*
X11939229Y-6157508D01*
X11939229Y-6157508D02*
X11948753Y-6167031D01*
X11948753Y-6167031D02*
X11958277Y-6186079D01*
X11958277Y-6186079D02*
X11967801Y-6224174D01*
X11967801Y-6224174D02*
X11967801Y-6271793D01*
X11967801Y-6271793D02*
X11958277Y-6309888D01*
X11958277Y-6309888D02*
X11948753Y-6328936D01*
X11948753Y-6328936D02*
X11939229Y-6338460D01*
X11939229Y-6338460D02*
X11920182Y-6347984D01*
X11920182Y-6347984D02*
X11901134Y-6347984D01*
X11901134Y-6347984D02*
X11882086Y-6338460D01*
X11882086Y-6338460D02*
X11872563Y-6328936D01*
X11872563Y-6328936D02*
X11863039Y-6309888D01*
X11863039Y-6309888D02*
X11853515Y-6271793D01*
X11853515Y-6271793D02*
X11853515Y-6224174D01*
X11853515Y-6224174D02*
X11863039Y-6186079D01*
X11863039Y-6186079D02*
X11872563Y-6167031D01*
X11872563Y-6167031D02*
X11882086Y-6157508D01*
X11882086Y-6157508D02*
X11901134Y-6147984D01*
X12053515Y-6328936D02*
X12063039Y-6338460D01*
X12063039Y-6338460D02*
X12053515Y-6347984D01*
X12053515Y-6347984D02*
X12043991Y-6338460D01*
X12043991Y-6338460D02*
X12053515Y-6328936D01*
X12053515Y-6328936D02*
X12053515Y-6347984D01*
X12186848Y-6147984D02*
X12205896Y-6147984D01*
X12205896Y-6147984D02*
X12224944Y-6157508D01*
X12224944Y-6157508D02*
X12234467Y-6167031D01*
X12234467Y-6167031D02*
X12243991Y-6186079D01*
X12243991Y-6186079D02*
X12253515Y-6224174D01*
X12253515Y-6224174D02*
X12253515Y-6271793D01*
X12253515Y-6271793D02*
X12243991Y-6309888D01*
X12243991Y-6309888D02*
X12234467Y-6328936D01*
X12234467Y-6328936D02*
X12224944Y-6338460D01*
X12224944Y-6338460D02*
X12205896Y-6347984D01*
X12205896Y-6347984D02*
X12186848Y-6347984D01*
X12186848Y-6347984D02*
X12167801Y-6338460D01*
X12167801Y-6338460D02*
X12158277Y-6328936D01*
X12158277Y-6328936D02*
X12148753Y-6309888D01*
X12148753Y-6309888D02*
X12139229Y-6271793D01*
X12139229Y-6271793D02*
X12139229Y-6224174D01*
X12139229Y-6224174D02*
X12148753Y-6186079D01*
X12148753Y-6186079D02*
X12158277Y-6167031D01*
X12158277Y-6167031D02*
X12167801Y-6157508D01*
X12167801Y-6157508D02*
X12186848Y-6147984D01*
X12443991Y-6347984D02*
X12329706Y-6347984D01*
X12386848Y-6347984D02*
X12386848Y-6147984D01*
X12386848Y-6147984D02*
X12367801Y-6176555D01*
X12367801Y-6176555D02*
X12348753Y-6195603D01*
X12348753Y-6195603D02*
X12329706Y-6205127D01*
X12624944Y-6147984D02*
X12529706Y-6147984D01*
X12529706Y-6147984D02*
X12520182Y-6243222D01*
X12520182Y-6243222D02*
X12529706Y-6233698D01*
X12529706Y-6233698D02*
X12548753Y-6224174D01*
X12548753Y-6224174D02*
X12596372Y-6224174D01*
X12596372Y-6224174D02*
X12615420Y-6233698D01*
X12615420Y-6233698D02*
X12624944Y-6243222D01*
X12624944Y-6243222D02*
X12634467Y-6262269D01*
X12634467Y-6262269D02*
X12634467Y-6309888D01*
X12634467Y-6309888D02*
X12624944Y-6328936D01*
X12624944Y-6328936D02*
X12615420Y-6338460D01*
X12615420Y-6338460D02*
X12596372Y-6347984D01*
X12596372Y-6347984D02*
X12548753Y-6347984D01*
X12548753Y-6347984D02*
X12529706Y-6338460D01*
X12529706Y-6338460D02*
X12520182Y-6328936D01*
X12701134Y-6147984D02*
X12834467Y-6147984D01*
X12834467Y-6147984D02*
X12748753Y-6347984D01*
X12901134Y-6147984D02*
X12901134Y-6186079D01*
X12977325Y-6147984D02*
X12977325Y-6186079D01*
X13272563Y-6424174D02*
X13263039Y-6414650D01*
X13263039Y-6414650D02*
X13243991Y-6386079D01*
X13243991Y-6386079D02*
X13234468Y-6367031D01*
X13234468Y-6367031D02*
X13224944Y-6338460D01*
X13224944Y-6338460D02*
X13215420Y-6290841D01*
X13215420Y-6290841D02*
X13215420Y-6252746D01*
X13215420Y-6252746D02*
X13224944Y-6205127D01*
X13224944Y-6205127D02*
X13234468Y-6176555D01*
X13234468Y-6176555D02*
X13243991Y-6157508D01*
X13243991Y-6157508D02*
X13263039Y-6128936D01*
X13263039Y-6128936D02*
X13272563Y-6119412D01*
X13329706Y-6147984D02*
X13453515Y-6147984D01*
X13453515Y-6147984D02*
X13386848Y-6224174D01*
X13386848Y-6224174D02*
X13415420Y-6224174D01*
X13415420Y-6224174D02*
X13434468Y-6233698D01*
X13434468Y-6233698D02*
X13443991Y-6243222D01*
X13443991Y-6243222D02*
X13453515Y-6262269D01*
X13453515Y-6262269D02*
X13453515Y-6309888D01*
X13453515Y-6309888D02*
X13443991Y-6328936D01*
X13443991Y-6328936D02*
X13434468Y-6338460D01*
X13434468Y-6338460D02*
X13415420Y-6347984D01*
X13415420Y-6347984D02*
X13358277Y-6347984D01*
X13358277Y-6347984D02*
X13339229Y-6338460D01*
X13339229Y-6338460D02*
X13329706Y-6328936D01*
X13691610Y-6347984D02*
X13691610Y-6147984D01*
X13777325Y-6347984D02*
X13777325Y-6243222D01*
X13777325Y-6243222D02*
X13767801Y-6224174D01*
X13767801Y-6224174D02*
X13748753Y-6214650D01*
X13748753Y-6214650D02*
X13720182Y-6214650D01*
X13720182Y-6214650D02*
X13701134Y-6224174D01*
X13701134Y-6224174D02*
X13691610Y-6233698D01*
X13901134Y-6347984D02*
X13882087Y-6338460D01*
X13882087Y-6338460D02*
X13872563Y-6328936D01*
X13872563Y-6328936D02*
X13863039Y-6309888D01*
X13863039Y-6309888D02*
X13863039Y-6252746D01*
X13863039Y-6252746D02*
X13872563Y-6233698D01*
X13872563Y-6233698D02*
X13882087Y-6224174D01*
X13882087Y-6224174D02*
X13901134Y-6214650D01*
X13901134Y-6214650D02*
X13929706Y-6214650D01*
X13929706Y-6214650D02*
X13948753Y-6224174D01*
X13948753Y-6224174D02*
X13958277Y-6233698D01*
X13958277Y-6233698D02*
X13967801Y-6252746D01*
X13967801Y-6252746D02*
X13967801Y-6309888D01*
X13967801Y-6309888D02*
X13958277Y-6328936D01*
X13958277Y-6328936D02*
X13948753Y-6338460D01*
X13948753Y-6338460D02*
X13929706Y-6347984D01*
X13929706Y-6347984D02*
X13901134Y-6347984D01*
X14082087Y-6347984D02*
X14063039Y-6338460D01*
X14063039Y-6338460D02*
X14053515Y-6319412D01*
X14053515Y-6319412D02*
X14053515Y-6147984D01*
X14234468Y-6338460D02*
X14215420Y-6347984D01*
X14215420Y-6347984D02*
X14177325Y-6347984D01*
X14177325Y-6347984D02*
X14158277Y-6338460D01*
X14158277Y-6338460D02*
X14148753Y-6319412D01*
X14148753Y-6319412D02*
X14148753Y-6243222D01*
X14148753Y-6243222D02*
X14158277Y-6224174D01*
X14158277Y-6224174D02*
X14177325Y-6214650D01*
X14177325Y-6214650D02*
X14215420Y-6214650D01*
X14215420Y-6214650D02*
X14234468Y-6224174D01*
X14234468Y-6224174D02*
X14243991Y-6243222D01*
X14243991Y-6243222D02*
X14243991Y-6262269D01*
X14243991Y-6262269D02*
X14148753Y-6281317D01*
X14320182Y-6338460D02*
X14339230Y-6347984D01*
X14339230Y-6347984D02*
X14377325Y-6347984D01*
X14377325Y-6347984D02*
X14396372Y-6338460D01*
X14396372Y-6338460D02*
X14405896Y-6319412D01*
X14405896Y-6319412D02*
X14405896Y-6309888D01*
X14405896Y-6309888D02*
X14396372Y-6290841D01*
X14396372Y-6290841D02*
X14377325Y-6281317D01*
X14377325Y-6281317D02*
X14348753Y-6281317D01*
X14348753Y-6281317D02*
X14329706Y-6271793D01*
X14329706Y-6271793D02*
X14320182Y-6252746D01*
X14320182Y-6252746D02*
X14320182Y-6243222D01*
X14320182Y-6243222D02*
X14329706Y-6224174D01*
X14329706Y-6224174D02*
X14348753Y-6214650D01*
X14348753Y-6214650D02*
X14377325Y-6214650D01*
X14377325Y-6214650D02*
X14396372Y-6224174D01*
X14472563Y-6424174D02*
X14482087Y-6414650D01*
X14482087Y-6414650D02*
X14501134Y-6386079D01*
X14501134Y-6386079D02*
X14510658Y-6367031D01*
X14510658Y-6367031D02*
X14520182Y-6338460D01*
X14520182Y-6338460D02*
X14529706Y-6290841D01*
X14529706Y-6290841D02*
X14529706Y-6252746D01*
X14529706Y-6252746D02*
X14520182Y-6205127D01*
X14520182Y-6205127D02*
X14510658Y-6176555D01*
X14510658Y-6176555D02*
X14501134Y-6157508D01*
X14501134Y-6157508D02*
X14482087Y-6128936D01*
X14482087Y-6128936D02*
X14472563Y-6119412D01*
M02*
