%TF.GenerationSoftware,KiCad,Pcbnew,8.0.4*%
%TF.CreationDate,2024-11-30T14:10:03+01:00*%
%TF.ProjectId,ALL_PCBS,414c4c5f-5043-4425-932e-6b696361645f,rev?*%
%TF.SameCoordinates,Original*%
%TF.FileFunction,Drillmap*%
%TF.FilePolarity,Positive*%
%FSLAX45Y45*%
G04 Gerber Fmt 4.5, Leading zero omitted, Abs format (unit mm)*
G04 Created by KiCad (PCBNEW 8.0.4) date 2024-11-30 14:10:03*
%MOMM*%
%LPD*%
G01*
G04 APERTURE LIST*
%ADD10C,0.050000*%
%ADD11C,0.200000*%
%ADD12C,0.100000*%
%ADD13C,0.210000*%
G04 APERTURE END LIST*
D10*
X15240000Y-9120000D02*
X17340000Y-9120000D01*
X22147000Y-9320000D02*
X22130000Y-9320000D01*
X22080000Y-10070000D02*
X22080000Y-9370000D01*
X9704355Y-9570000D02*
X9704355Y-9370000D01*
X9775000Y-9320000D02*
X10300000Y-9320000D01*
X18040000Y-9770000D02*
G75*
G02*
X17690000Y-10120000I-350000J0D01*
G01*
X22890645Y-10120000D02*
X22680000Y-10120000D01*
X9480000Y-13420000D02*
G75*
G02*
X9080000Y-13020000I0J400000D01*
G01*
X9080000Y-10820000D02*
G75*
G02*
X9480000Y-10420000I400000J0D01*
G01*
X10565000Y-9370000D02*
X10565000Y-10070000D01*
X16760000Y-10120000D02*
X15900000Y-10120000D01*
X15900000Y-10420000D02*
X16760000Y-10420000D01*
X23180000Y-13420000D02*
X9480000Y-13420000D01*
X9704355Y-9370000D02*
G75*
G02*
X9754355Y-9319995I50005J0D01*
G01*
X15900000Y-10120000D02*
X15900000Y-10420000D01*
X23180000Y-10420000D02*
G75*
G02*
X23580000Y-10820000I0J-400000D01*
G01*
X22940645Y-9370000D02*
X22940645Y-9570000D01*
X17060000Y-10120000D02*
X17690000Y-10120000D01*
X22380000Y-10420000D02*
X17060000Y-10420000D01*
X22130000Y-10120000D02*
G75*
G02*
X22080000Y-10070000I0J50000D01*
G01*
X14890000Y-10120000D02*
G75*
G02*
X14540000Y-9770000I0J350000D01*
G01*
X15600000Y-10420000D02*
X15600000Y-10120000D01*
X22270000Y-9320000D02*
X22185000Y-9320000D01*
X22275000Y-9320000D02*
X22270000Y-9320000D01*
X10370000Y-9320000D02*
X10460000Y-9320000D01*
X14540000Y-9770000D02*
X14540000Y-9120000D01*
X9080000Y-13020000D02*
X9080000Y-10820000D01*
X9754355Y-10120000D02*
G75*
G02*
X9704360Y-10070000I5J50000D01*
G01*
X22680000Y-10420000D02*
X22680000Y-10120000D01*
X9980000Y-10120000D02*
X9775000Y-10120000D01*
X22890645Y-9320000D02*
G75*
G02*
X22940640Y-9370000I-5J-50000D01*
G01*
X10300000Y-9320000D02*
X10370000Y-9320000D01*
X10498000Y-9320000D02*
X10515000Y-9320000D01*
X9754355Y-9320000D02*
X9775000Y-9320000D01*
X10515000Y-10120000D02*
X10280000Y-10120000D01*
X22345000Y-9320000D02*
X22870000Y-9320000D01*
X10280000Y-10420000D02*
X15600000Y-10420000D01*
X14540000Y-9120000D02*
G75*
G02*
X15240000Y-9120000I350000J0D01*
G01*
X16760000Y-10120000D02*
X16760000Y-10420000D01*
X22890645Y-9320000D02*
X22870000Y-9320000D01*
X22380000Y-10120000D02*
X22130000Y-10120000D01*
X22940645Y-9870000D02*
X22940645Y-10070000D01*
X10515000Y-9320000D02*
G75*
G02*
X10565000Y-9370000I0J-50000D01*
G01*
X10460000Y-9320000D02*
X10498000Y-9320000D01*
X10280000Y-10120000D02*
X10280000Y-10420000D01*
X22940645Y-9570000D02*
X22940645Y-9870000D01*
X23580000Y-10820000D02*
X23580000Y-13020000D01*
X22940645Y-10070000D02*
G75*
G02*
X22890645Y-10120005I-50005J0D01*
G01*
X9704355Y-9870000D02*
X9704355Y-9570000D01*
X17340000Y-9120000D02*
G75*
G02*
X18040000Y-9120000I350000J0D01*
G01*
X18040000Y-9120000D02*
X18040000Y-9770000D01*
X9480000Y-10420000D02*
X9980000Y-10420000D01*
X9754355Y-10120000D02*
X9775000Y-10120000D01*
X23180000Y-10420000D02*
X22680000Y-10420000D01*
X22380000Y-10120000D02*
X22380000Y-10420000D01*
X17060000Y-10420000D02*
X17060000Y-10120000D01*
X9704355Y-10070000D02*
X9704355Y-9870000D01*
X22185000Y-9320000D02*
X22147000Y-9320000D01*
X9980000Y-10420000D02*
X9980000Y-10120000D01*
X23580000Y-13020000D02*
G75*
G02*
X23180000Y-13420000I-400000J0D01*
G01*
X22345000Y-9320000D02*
X22275000Y-9320000D01*
X22080000Y-9370000D02*
G75*
G02*
X22130000Y-9320000I50000J0D01*
G01*
X10565000Y-10070000D02*
G75*
G02*
X10515000Y-10120000I-50000J0D01*
G01*
X15600000Y-10120000D02*
X14890000Y-10120000D01*
D11*
D12*
X13335000Y-12975000D02*
X13425000Y-13065000D01*
X13425000Y-12975000D02*
X13335000Y-13065000D01*
X14135000Y-12975000D02*
X14225000Y-13065000D01*
X14225000Y-12975000D02*
X14135000Y-13065000D01*
X15650000Y-13186000D02*
X15740000Y-13276000D01*
X15740000Y-13186000D02*
X15650000Y-13276000D01*
X15950000Y-13186000D02*
X16040000Y-13276000D01*
X16040000Y-13186000D02*
X15950000Y-13276000D01*
D13*
X9615000Y-11030000D02*
G75*
G02*
X9405000Y-11030000I-105000J0D01*
G01*
X9405000Y-11030000D02*
G75*
G02*
X9615000Y-11030000I105000J0D01*
G01*
X9615000Y-12810000D02*
G75*
G02*
X9405000Y-12810000I-105000J0D01*
G01*
X9405000Y-12810000D02*
G75*
G02*
X9615000Y-12810000I105000J0D01*
G01*
X14995000Y-9120000D02*
G75*
G02*
X14785000Y-9120000I-105000J0D01*
G01*
X14785000Y-9120000D02*
G75*
G02*
X14995000Y-9120000I105000J0D01*
G01*
X14995000Y-9770000D02*
G75*
G02*
X14785000Y-9770000I-105000J0D01*
G01*
X14785000Y-9770000D02*
G75*
G02*
X14995000Y-9770000I105000J0D01*
G01*
X15035000Y-10820000D02*
G75*
G02*
X14825000Y-10820000I-105000J0D01*
G01*
X14825000Y-10820000D02*
G75*
G02*
X15035000Y-10820000I105000J0D01*
G01*
X15035000Y-13020000D02*
G75*
G02*
X14825000Y-13020000I-105000J0D01*
G01*
X14825000Y-13020000D02*
G75*
G02*
X15035000Y-13020000I105000J0D01*
G01*
X17795000Y-9120000D02*
G75*
G02*
X17585000Y-9120000I-105000J0D01*
G01*
X17585000Y-9120000D02*
G75*
G02*
X17795000Y-9120000I105000J0D01*
G01*
X17795000Y-9770000D02*
G75*
G02*
X17585000Y-9770000I-105000J0D01*
G01*
X17585000Y-9770000D02*
G75*
G02*
X17795000Y-9770000I105000J0D01*
G01*
X17835000Y-10820000D02*
G75*
G02*
X17625000Y-10820000I-105000J0D01*
G01*
X17625000Y-10820000D02*
G75*
G02*
X17835000Y-10820000I105000J0D01*
G01*
X17835000Y-13020000D02*
G75*
G02*
X17625000Y-13020000I-105000J0D01*
G01*
X17625000Y-13020000D02*
G75*
G02*
X17835000Y-13020000I105000J0D01*
G01*
X23255000Y-11030000D02*
G75*
G02*
X23045000Y-11030000I-105000J0D01*
G01*
X23045000Y-11030000D02*
G75*
G02*
X23255000Y-11030000I105000J0D01*
G01*
X23255000Y-12810000D02*
G75*
G02*
X23045000Y-12810000I-105000J0D01*
G01*
X23045000Y-12810000D02*
G75*
G02*
X23255000Y-12810000I105000J0D01*
G01*
D11*
X9338277Y-13733984D02*
X9338277Y-13533984D01*
X9338277Y-13533984D02*
X9385896Y-13533984D01*
X9385896Y-13533984D02*
X9414467Y-13543508D01*
X9414467Y-13543508D02*
X9433515Y-13562555D01*
X9433515Y-13562555D02*
X9443039Y-13581603D01*
X9443039Y-13581603D02*
X9452563Y-13619698D01*
X9452563Y-13619698D02*
X9452563Y-13648269D01*
X9452563Y-13648269D02*
X9443039Y-13686365D01*
X9443039Y-13686365D02*
X9433515Y-13705412D01*
X9433515Y-13705412D02*
X9414467Y-13724460D01*
X9414467Y-13724460D02*
X9385896Y-13733984D01*
X9385896Y-13733984D02*
X9338277Y-13733984D01*
X9538277Y-13733984D02*
X9538277Y-13600650D01*
X9538277Y-13638746D02*
X9547801Y-13619698D01*
X9547801Y-13619698D02*
X9557324Y-13610174D01*
X9557324Y-13610174D02*
X9576372Y-13600650D01*
X9576372Y-13600650D02*
X9595420Y-13600650D01*
X9662086Y-13733984D02*
X9662086Y-13600650D01*
X9662086Y-13533984D02*
X9652563Y-13543508D01*
X9652563Y-13543508D02*
X9662086Y-13553031D01*
X9662086Y-13553031D02*
X9671610Y-13543508D01*
X9671610Y-13543508D02*
X9662086Y-13533984D01*
X9662086Y-13533984D02*
X9662086Y-13553031D01*
X9785896Y-13733984D02*
X9766848Y-13724460D01*
X9766848Y-13724460D02*
X9757324Y-13705412D01*
X9757324Y-13705412D02*
X9757324Y-13533984D01*
X9890658Y-13733984D02*
X9871610Y-13724460D01*
X9871610Y-13724460D02*
X9862086Y-13705412D01*
X9862086Y-13705412D02*
X9862086Y-13533984D01*
X10119229Y-13733984D02*
X10119229Y-13533984D01*
X10119229Y-13533984D02*
X10185896Y-13676841D01*
X10185896Y-13676841D02*
X10252563Y-13533984D01*
X10252563Y-13533984D02*
X10252563Y-13733984D01*
X10433515Y-13733984D02*
X10433515Y-13629222D01*
X10433515Y-13629222D02*
X10423991Y-13610174D01*
X10423991Y-13610174D02*
X10404944Y-13600650D01*
X10404944Y-13600650D02*
X10366848Y-13600650D01*
X10366848Y-13600650D02*
X10347801Y-13610174D01*
X10433515Y-13724460D02*
X10414467Y-13733984D01*
X10414467Y-13733984D02*
X10366848Y-13733984D01*
X10366848Y-13733984D02*
X10347801Y-13724460D01*
X10347801Y-13724460D02*
X10338277Y-13705412D01*
X10338277Y-13705412D02*
X10338277Y-13686365D01*
X10338277Y-13686365D02*
X10347801Y-13667317D01*
X10347801Y-13667317D02*
X10366848Y-13657793D01*
X10366848Y-13657793D02*
X10414467Y-13657793D01*
X10414467Y-13657793D02*
X10433515Y-13648269D01*
X10528753Y-13600650D02*
X10528753Y-13800650D01*
X10528753Y-13610174D02*
X10547801Y-13600650D01*
X10547801Y-13600650D02*
X10585896Y-13600650D01*
X10585896Y-13600650D02*
X10604944Y-13610174D01*
X10604944Y-13610174D02*
X10614467Y-13619698D01*
X10614467Y-13619698D02*
X10623991Y-13638746D01*
X10623991Y-13638746D02*
X10623991Y-13695888D01*
X10623991Y-13695888D02*
X10614467Y-13714936D01*
X10614467Y-13714936D02*
X10604944Y-13724460D01*
X10604944Y-13724460D02*
X10585896Y-13733984D01*
X10585896Y-13733984D02*
X10547801Y-13733984D01*
X10547801Y-13733984D02*
X10528753Y-13724460D01*
X10709705Y-13714936D02*
X10719229Y-13724460D01*
X10719229Y-13724460D02*
X10709705Y-13733984D01*
X10709705Y-13733984D02*
X10700182Y-13724460D01*
X10700182Y-13724460D02*
X10709705Y-13714936D01*
X10709705Y-13714936D02*
X10709705Y-13733984D01*
X10709705Y-13610174D02*
X10719229Y-13619698D01*
X10719229Y-13619698D02*
X10709705Y-13629222D01*
X10709705Y-13629222D02*
X10700182Y-13619698D01*
X10700182Y-13619698D02*
X10709705Y-13610174D01*
X10709705Y-13610174D02*
X10709705Y-13629222D01*
D12*
X8987500Y-14017500D02*
X9077500Y-14107500D01*
X9077500Y-14017500D02*
X8987500Y-14107500D01*
D11*
X9376372Y-13953984D02*
X9395420Y-13953984D01*
X9395420Y-13953984D02*
X9414467Y-13963508D01*
X9414467Y-13963508D02*
X9423991Y-13973031D01*
X9423991Y-13973031D02*
X9433515Y-13992079D01*
X9433515Y-13992079D02*
X9443039Y-14030174D01*
X9443039Y-14030174D02*
X9443039Y-14077793D01*
X9443039Y-14077793D02*
X9433515Y-14115888D01*
X9433515Y-14115888D02*
X9423991Y-14134936D01*
X9423991Y-14134936D02*
X9414467Y-14144460D01*
X9414467Y-14144460D02*
X9395420Y-14153984D01*
X9395420Y-14153984D02*
X9376372Y-14153984D01*
X9376372Y-14153984D02*
X9357324Y-14144460D01*
X9357324Y-14144460D02*
X9347801Y-14134936D01*
X9347801Y-14134936D02*
X9338277Y-14115888D01*
X9338277Y-14115888D02*
X9328753Y-14077793D01*
X9328753Y-14077793D02*
X9328753Y-14030174D01*
X9328753Y-14030174D02*
X9338277Y-13992079D01*
X9338277Y-13992079D02*
X9347801Y-13973031D01*
X9347801Y-13973031D02*
X9357324Y-13963508D01*
X9357324Y-13963508D02*
X9376372Y-13953984D01*
X9528753Y-14134936D02*
X9538277Y-14144460D01*
X9538277Y-14144460D02*
X9528753Y-14153984D01*
X9528753Y-14153984D02*
X9519229Y-14144460D01*
X9519229Y-14144460D02*
X9528753Y-14134936D01*
X9528753Y-14134936D02*
X9528753Y-14153984D01*
X9633515Y-14153984D02*
X9671610Y-14153984D01*
X9671610Y-14153984D02*
X9690658Y-14144460D01*
X9690658Y-14144460D02*
X9700182Y-14134936D01*
X9700182Y-14134936D02*
X9719229Y-14106365D01*
X9719229Y-14106365D02*
X9728753Y-14068269D01*
X9728753Y-14068269D02*
X9728753Y-13992079D01*
X9728753Y-13992079D02*
X9719229Y-13973031D01*
X9719229Y-13973031D02*
X9709705Y-13963508D01*
X9709705Y-13963508D02*
X9690658Y-13953984D01*
X9690658Y-13953984D02*
X9652563Y-13953984D01*
X9652563Y-13953984D02*
X9633515Y-13963508D01*
X9633515Y-13963508D02*
X9623991Y-13973031D01*
X9623991Y-13973031D02*
X9614467Y-13992079D01*
X9614467Y-13992079D02*
X9614467Y-14039698D01*
X9614467Y-14039698D02*
X9623991Y-14058746D01*
X9623991Y-14058746D02*
X9633515Y-14068269D01*
X9633515Y-14068269D02*
X9652563Y-14077793D01*
X9652563Y-14077793D02*
X9690658Y-14077793D01*
X9690658Y-14077793D02*
X9709705Y-14068269D01*
X9709705Y-14068269D02*
X9719229Y-14058746D01*
X9719229Y-14058746D02*
X9728753Y-14039698D01*
X9852563Y-13953984D02*
X9871610Y-13953984D01*
X9871610Y-13953984D02*
X9890658Y-13963508D01*
X9890658Y-13963508D02*
X9900182Y-13973031D01*
X9900182Y-13973031D02*
X9909705Y-13992079D01*
X9909705Y-13992079D02*
X9919229Y-14030174D01*
X9919229Y-14030174D02*
X9919229Y-14077793D01*
X9919229Y-14077793D02*
X9909705Y-14115888D01*
X9909705Y-14115888D02*
X9900182Y-14134936D01*
X9900182Y-14134936D02*
X9890658Y-14144460D01*
X9890658Y-14144460D02*
X9871610Y-14153984D01*
X9871610Y-14153984D02*
X9852563Y-14153984D01*
X9852563Y-14153984D02*
X9833515Y-14144460D01*
X9833515Y-14144460D02*
X9823991Y-14134936D01*
X9823991Y-14134936D02*
X9814467Y-14115888D01*
X9814467Y-14115888D02*
X9804944Y-14077793D01*
X9804944Y-14077793D02*
X9804944Y-14030174D01*
X9804944Y-14030174D02*
X9814467Y-13992079D01*
X9814467Y-13992079D02*
X9823991Y-13973031D01*
X9823991Y-13973031D02*
X9833515Y-13963508D01*
X9833515Y-13963508D02*
X9852563Y-13953984D01*
X10043039Y-13953984D02*
X10062086Y-13953984D01*
X10062086Y-13953984D02*
X10081134Y-13963508D01*
X10081134Y-13963508D02*
X10090658Y-13973031D01*
X10090658Y-13973031D02*
X10100182Y-13992079D01*
X10100182Y-13992079D02*
X10109705Y-14030174D01*
X10109705Y-14030174D02*
X10109705Y-14077793D01*
X10109705Y-14077793D02*
X10100182Y-14115888D01*
X10100182Y-14115888D02*
X10090658Y-14134936D01*
X10090658Y-14134936D02*
X10081134Y-14144460D01*
X10081134Y-14144460D02*
X10062086Y-14153984D01*
X10062086Y-14153984D02*
X10043039Y-14153984D01*
X10043039Y-14153984D02*
X10023991Y-14144460D01*
X10023991Y-14144460D02*
X10014467Y-14134936D01*
X10014467Y-14134936D02*
X10004944Y-14115888D01*
X10004944Y-14115888D02*
X9995420Y-14077793D01*
X9995420Y-14077793D02*
X9995420Y-14030174D01*
X9995420Y-14030174D02*
X10004944Y-13992079D01*
X10004944Y-13992079D02*
X10014467Y-13973031D01*
X10014467Y-13973031D02*
X10023991Y-13963508D01*
X10023991Y-13963508D02*
X10043039Y-13953984D01*
X10195420Y-14153984D02*
X10195420Y-14020650D01*
X10195420Y-14039698D02*
X10204944Y-14030174D01*
X10204944Y-14030174D02*
X10223991Y-14020650D01*
X10223991Y-14020650D02*
X10252563Y-14020650D01*
X10252563Y-14020650D02*
X10271610Y-14030174D01*
X10271610Y-14030174D02*
X10281134Y-14049222D01*
X10281134Y-14049222D02*
X10281134Y-14153984D01*
X10281134Y-14049222D02*
X10290658Y-14030174D01*
X10290658Y-14030174D02*
X10309705Y-14020650D01*
X10309705Y-14020650D02*
X10338277Y-14020650D01*
X10338277Y-14020650D02*
X10357325Y-14030174D01*
X10357325Y-14030174D02*
X10366848Y-14049222D01*
X10366848Y-14049222D02*
X10366848Y-14153984D01*
X10462086Y-14153984D02*
X10462086Y-14020650D01*
X10462086Y-14039698D02*
X10471610Y-14030174D01*
X10471610Y-14030174D02*
X10490658Y-14020650D01*
X10490658Y-14020650D02*
X10519229Y-14020650D01*
X10519229Y-14020650D02*
X10538277Y-14030174D01*
X10538277Y-14030174D02*
X10547801Y-14049222D01*
X10547801Y-14049222D02*
X10547801Y-14153984D01*
X10547801Y-14049222D02*
X10557325Y-14030174D01*
X10557325Y-14030174D02*
X10576372Y-14020650D01*
X10576372Y-14020650D02*
X10604944Y-14020650D01*
X10604944Y-14020650D02*
X10623991Y-14030174D01*
X10623991Y-14030174D02*
X10633515Y-14049222D01*
X10633515Y-14049222D02*
X10633515Y-14153984D01*
X11023991Y-13944460D02*
X10852563Y-14201603D01*
X11281134Y-13953984D02*
X11300182Y-13953984D01*
X11300182Y-13953984D02*
X11319229Y-13963508D01*
X11319229Y-13963508D02*
X11328753Y-13973031D01*
X11328753Y-13973031D02*
X11338277Y-13992079D01*
X11338277Y-13992079D02*
X11347801Y-14030174D01*
X11347801Y-14030174D02*
X11347801Y-14077793D01*
X11347801Y-14077793D02*
X11338277Y-14115888D01*
X11338277Y-14115888D02*
X11328753Y-14134936D01*
X11328753Y-14134936D02*
X11319229Y-14144460D01*
X11319229Y-14144460D02*
X11300182Y-14153984D01*
X11300182Y-14153984D02*
X11281134Y-14153984D01*
X11281134Y-14153984D02*
X11262086Y-14144460D01*
X11262086Y-14144460D02*
X11252563Y-14134936D01*
X11252563Y-14134936D02*
X11243039Y-14115888D01*
X11243039Y-14115888D02*
X11233515Y-14077793D01*
X11233515Y-14077793D02*
X11233515Y-14030174D01*
X11233515Y-14030174D02*
X11243039Y-13992079D01*
X11243039Y-13992079D02*
X11252563Y-13973031D01*
X11252563Y-13973031D02*
X11262086Y-13963508D01*
X11262086Y-13963508D02*
X11281134Y-13953984D01*
X11433515Y-14134936D02*
X11443039Y-14144460D01*
X11443039Y-14144460D02*
X11433515Y-14153984D01*
X11433515Y-14153984D02*
X11423991Y-14144460D01*
X11423991Y-14144460D02*
X11433515Y-14134936D01*
X11433515Y-14134936D02*
X11433515Y-14153984D01*
X11566848Y-13953984D02*
X11585896Y-13953984D01*
X11585896Y-13953984D02*
X11604944Y-13963508D01*
X11604944Y-13963508D02*
X11614467Y-13973031D01*
X11614467Y-13973031D02*
X11623991Y-13992079D01*
X11623991Y-13992079D02*
X11633515Y-14030174D01*
X11633515Y-14030174D02*
X11633515Y-14077793D01*
X11633515Y-14077793D02*
X11623991Y-14115888D01*
X11623991Y-14115888D02*
X11614467Y-14134936D01*
X11614467Y-14134936D02*
X11604944Y-14144460D01*
X11604944Y-14144460D02*
X11585896Y-14153984D01*
X11585896Y-14153984D02*
X11566848Y-14153984D01*
X11566848Y-14153984D02*
X11547801Y-14144460D01*
X11547801Y-14144460D02*
X11538277Y-14134936D01*
X11538277Y-14134936D02*
X11528753Y-14115888D01*
X11528753Y-14115888D02*
X11519229Y-14077793D01*
X11519229Y-14077793D02*
X11519229Y-14030174D01*
X11519229Y-14030174D02*
X11528753Y-13992079D01*
X11528753Y-13992079D02*
X11538277Y-13973031D01*
X11538277Y-13973031D02*
X11547801Y-13963508D01*
X11547801Y-13963508D02*
X11566848Y-13953984D01*
X11700182Y-13953984D02*
X11823991Y-13953984D01*
X11823991Y-13953984D02*
X11757325Y-14030174D01*
X11757325Y-14030174D02*
X11785896Y-14030174D01*
X11785896Y-14030174D02*
X11804944Y-14039698D01*
X11804944Y-14039698D02*
X11814467Y-14049222D01*
X11814467Y-14049222D02*
X11823991Y-14068269D01*
X11823991Y-14068269D02*
X11823991Y-14115888D01*
X11823991Y-14115888D02*
X11814467Y-14134936D01*
X11814467Y-14134936D02*
X11804944Y-14144460D01*
X11804944Y-14144460D02*
X11785896Y-14153984D01*
X11785896Y-14153984D02*
X11728753Y-14153984D01*
X11728753Y-14153984D02*
X11709706Y-14144460D01*
X11709706Y-14144460D02*
X11700182Y-14134936D01*
X12004944Y-13953984D02*
X11909706Y-13953984D01*
X11909706Y-13953984D02*
X11900182Y-14049222D01*
X11900182Y-14049222D02*
X11909706Y-14039698D01*
X11909706Y-14039698D02*
X11928753Y-14030174D01*
X11928753Y-14030174D02*
X11976372Y-14030174D01*
X11976372Y-14030174D02*
X11995420Y-14039698D01*
X11995420Y-14039698D02*
X12004944Y-14049222D01*
X12004944Y-14049222D02*
X12014467Y-14068269D01*
X12014467Y-14068269D02*
X12014467Y-14115888D01*
X12014467Y-14115888D02*
X12004944Y-14134936D01*
X12004944Y-14134936D02*
X11995420Y-14144460D01*
X11995420Y-14144460D02*
X11976372Y-14153984D01*
X11976372Y-14153984D02*
X11928753Y-14153984D01*
X11928753Y-14153984D02*
X11909706Y-14144460D01*
X11909706Y-14144460D02*
X11900182Y-14134936D01*
X12185896Y-14020650D02*
X12185896Y-14153984D01*
X12138277Y-13944460D02*
X12090658Y-14087317D01*
X12090658Y-14087317D02*
X12214467Y-14087317D01*
X12281134Y-13953984D02*
X12281134Y-13992079D01*
X12357325Y-13953984D02*
X12357325Y-13992079D01*
X12652563Y-14230174D02*
X12643039Y-14220650D01*
X12643039Y-14220650D02*
X12623991Y-14192079D01*
X12623991Y-14192079D02*
X12614468Y-14173031D01*
X12614468Y-14173031D02*
X12604944Y-14144460D01*
X12604944Y-14144460D02*
X12595420Y-14096841D01*
X12595420Y-14096841D02*
X12595420Y-14058746D01*
X12595420Y-14058746D02*
X12604944Y-14011127D01*
X12604944Y-14011127D02*
X12614468Y-13982555D01*
X12614468Y-13982555D02*
X12623991Y-13963508D01*
X12623991Y-13963508D02*
X12643039Y-13934936D01*
X12643039Y-13934936D02*
X12652563Y-13925412D01*
X12814468Y-14020650D02*
X12814468Y-14153984D01*
X12766848Y-13944460D02*
X12719229Y-14087317D01*
X12719229Y-14087317D02*
X12843039Y-14087317D01*
X13071610Y-14153984D02*
X13071610Y-13953984D01*
X13157325Y-14153984D02*
X13157325Y-14049222D01*
X13157325Y-14049222D02*
X13147801Y-14030174D01*
X13147801Y-14030174D02*
X13128753Y-14020650D01*
X13128753Y-14020650D02*
X13100182Y-14020650D01*
X13100182Y-14020650D02*
X13081134Y-14030174D01*
X13081134Y-14030174D02*
X13071610Y-14039698D01*
X13281134Y-14153984D02*
X13262087Y-14144460D01*
X13262087Y-14144460D02*
X13252563Y-14134936D01*
X13252563Y-14134936D02*
X13243039Y-14115888D01*
X13243039Y-14115888D02*
X13243039Y-14058746D01*
X13243039Y-14058746D02*
X13252563Y-14039698D01*
X13252563Y-14039698D02*
X13262087Y-14030174D01*
X13262087Y-14030174D02*
X13281134Y-14020650D01*
X13281134Y-14020650D02*
X13309706Y-14020650D01*
X13309706Y-14020650D02*
X13328753Y-14030174D01*
X13328753Y-14030174D02*
X13338277Y-14039698D01*
X13338277Y-14039698D02*
X13347801Y-14058746D01*
X13347801Y-14058746D02*
X13347801Y-14115888D01*
X13347801Y-14115888D02*
X13338277Y-14134936D01*
X13338277Y-14134936D02*
X13328753Y-14144460D01*
X13328753Y-14144460D02*
X13309706Y-14153984D01*
X13309706Y-14153984D02*
X13281134Y-14153984D01*
X13462087Y-14153984D02*
X13443039Y-14144460D01*
X13443039Y-14144460D02*
X13433515Y-14125412D01*
X13433515Y-14125412D02*
X13433515Y-13953984D01*
X13614468Y-14144460D02*
X13595420Y-14153984D01*
X13595420Y-14153984D02*
X13557325Y-14153984D01*
X13557325Y-14153984D02*
X13538277Y-14144460D01*
X13538277Y-14144460D02*
X13528753Y-14125412D01*
X13528753Y-14125412D02*
X13528753Y-14049222D01*
X13528753Y-14049222D02*
X13538277Y-14030174D01*
X13538277Y-14030174D02*
X13557325Y-14020650D01*
X13557325Y-14020650D02*
X13595420Y-14020650D01*
X13595420Y-14020650D02*
X13614468Y-14030174D01*
X13614468Y-14030174D02*
X13623991Y-14049222D01*
X13623991Y-14049222D02*
X13623991Y-14068269D01*
X13623991Y-14068269D02*
X13528753Y-14087317D01*
X13700182Y-14144460D02*
X13719230Y-14153984D01*
X13719230Y-14153984D02*
X13757325Y-14153984D01*
X13757325Y-14153984D02*
X13776372Y-14144460D01*
X13776372Y-14144460D02*
X13785896Y-14125412D01*
X13785896Y-14125412D02*
X13785896Y-14115888D01*
X13785896Y-14115888D02*
X13776372Y-14096841D01*
X13776372Y-14096841D02*
X13757325Y-14087317D01*
X13757325Y-14087317D02*
X13728753Y-14087317D01*
X13728753Y-14087317D02*
X13709706Y-14077793D01*
X13709706Y-14077793D02*
X13700182Y-14058746D01*
X13700182Y-14058746D02*
X13700182Y-14049222D01*
X13700182Y-14049222D02*
X13709706Y-14030174D01*
X13709706Y-14030174D02*
X13728753Y-14020650D01*
X13728753Y-14020650D02*
X13757325Y-14020650D01*
X13757325Y-14020650D02*
X13776372Y-14030174D01*
X13852563Y-14230174D02*
X13862087Y-14220650D01*
X13862087Y-14220650D02*
X13881134Y-14192079D01*
X13881134Y-14192079D02*
X13890658Y-14173031D01*
X13890658Y-14173031D02*
X13900182Y-14144460D01*
X13900182Y-14144460D02*
X13909706Y-14096841D01*
X13909706Y-14096841D02*
X13909706Y-14058746D01*
X13909706Y-14058746D02*
X13900182Y-14011127D01*
X13900182Y-14011127D02*
X13890658Y-13982555D01*
X13890658Y-13982555D02*
X13881134Y-13963508D01*
X13881134Y-13963508D02*
X13862087Y-13934936D01*
X13862087Y-13934936D02*
X13852563Y-13925412D01*
X14214468Y-14230174D02*
X14204944Y-14220650D01*
X14204944Y-14220650D02*
X14185896Y-14192079D01*
X14185896Y-14192079D02*
X14176372Y-14173031D01*
X14176372Y-14173031D02*
X14166849Y-14144460D01*
X14166849Y-14144460D02*
X14157325Y-14096841D01*
X14157325Y-14096841D02*
X14157325Y-14058746D01*
X14157325Y-14058746D02*
X14166849Y-14011127D01*
X14166849Y-14011127D02*
X14176372Y-13982555D01*
X14176372Y-13982555D02*
X14185896Y-13963508D01*
X14185896Y-13963508D02*
X14204944Y-13934936D01*
X14204944Y-13934936D02*
X14214468Y-13925412D01*
X14290658Y-14020650D02*
X14290658Y-14153984D01*
X14290658Y-14039698D02*
X14300182Y-14030174D01*
X14300182Y-14030174D02*
X14319230Y-14020650D01*
X14319230Y-14020650D02*
X14347801Y-14020650D01*
X14347801Y-14020650D02*
X14366849Y-14030174D01*
X14366849Y-14030174D02*
X14376372Y-14049222D01*
X14376372Y-14049222D02*
X14376372Y-14153984D01*
X14500182Y-14153984D02*
X14481134Y-14144460D01*
X14481134Y-14144460D02*
X14471611Y-14134936D01*
X14471611Y-14134936D02*
X14462087Y-14115888D01*
X14462087Y-14115888D02*
X14462087Y-14058746D01*
X14462087Y-14058746D02*
X14471611Y-14039698D01*
X14471611Y-14039698D02*
X14481134Y-14030174D01*
X14481134Y-14030174D02*
X14500182Y-14020650D01*
X14500182Y-14020650D02*
X14528753Y-14020650D01*
X14528753Y-14020650D02*
X14547801Y-14030174D01*
X14547801Y-14030174D02*
X14557325Y-14039698D01*
X14557325Y-14039698D02*
X14566849Y-14058746D01*
X14566849Y-14058746D02*
X14566849Y-14115888D01*
X14566849Y-14115888D02*
X14557325Y-14134936D01*
X14557325Y-14134936D02*
X14547801Y-14144460D01*
X14547801Y-14144460D02*
X14528753Y-14153984D01*
X14528753Y-14153984D02*
X14500182Y-14153984D01*
X14623992Y-14020650D02*
X14700182Y-14020650D01*
X14652563Y-13953984D02*
X14652563Y-14125412D01*
X14652563Y-14125412D02*
X14662087Y-14144460D01*
X14662087Y-14144460D02*
X14681134Y-14153984D01*
X14681134Y-14153984D02*
X14700182Y-14153984D01*
X14919230Y-14020650D02*
X14919230Y-14220650D01*
X14919230Y-14030174D02*
X14938277Y-14020650D01*
X14938277Y-14020650D02*
X14976373Y-14020650D01*
X14976373Y-14020650D02*
X14995420Y-14030174D01*
X14995420Y-14030174D02*
X15004944Y-14039698D01*
X15004944Y-14039698D02*
X15014468Y-14058746D01*
X15014468Y-14058746D02*
X15014468Y-14115888D01*
X15014468Y-14115888D02*
X15004944Y-14134936D01*
X15004944Y-14134936D02*
X14995420Y-14144460D01*
X14995420Y-14144460D02*
X14976373Y-14153984D01*
X14976373Y-14153984D02*
X14938277Y-14153984D01*
X14938277Y-14153984D02*
X14919230Y-14144460D01*
X15128753Y-14153984D02*
X15109706Y-14144460D01*
X15109706Y-14144460D02*
X15100182Y-14125412D01*
X15100182Y-14125412D02*
X15100182Y-13953984D01*
X15290658Y-14153984D02*
X15290658Y-14049222D01*
X15290658Y-14049222D02*
X15281134Y-14030174D01*
X15281134Y-14030174D02*
X15262087Y-14020650D01*
X15262087Y-14020650D02*
X15223992Y-14020650D01*
X15223992Y-14020650D02*
X15204944Y-14030174D01*
X15290658Y-14144460D02*
X15271611Y-14153984D01*
X15271611Y-14153984D02*
X15223992Y-14153984D01*
X15223992Y-14153984D02*
X15204944Y-14144460D01*
X15204944Y-14144460D02*
X15195420Y-14125412D01*
X15195420Y-14125412D02*
X15195420Y-14106365D01*
X15195420Y-14106365D02*
X15204944Y-14087317D01*
X15204944Y-14087317D02*
X15223992Y-14077793D01*
X15223992Y-14077793D02*
X15271611Y-14077793D01*
X15271611Y-14077793D02*
X15290658Y-14068269D01*
X15357325Y-14020650D02*
X15433515Y-14020650D01*
X15385896Y-13953984D02*
X15385896Y-14125412D01*
X15385896Y-14125412D02*
X15395420Y-14144460D01*
X15395420Y-14144460D02*
X15414468Y-14153984D01*
X15414468Y-14153984D02*
X15433515Y-14153984D01*
X15576373Y-14144460D02*
X15557325Y-14153984D01*
X15557325Y-14153984D02*
X15519230Y-14153984D01*
X15519230Y-14153984D02*
X15500182Y-14144460D01*
X15500182Y-14144460D02*
X15490658Y-14125412D01*
X15490658Y-14125412D02*
X15490658Y-14049222D01*
X15490658Y-14049222D02*
X15500182Y-14030174D01*
X15500182Y-14030174D02*
X15519230Y-14020650D01*
X15519230Y-14020650D02*
X15557325Y-14020650D01*
X15557325Y-14020650D02*
X15576373Y-14030174D01*
X15576373Y-14030174D02*
X15585896Y-14049222D01*
X15585896Y-14049222D02*
X15585896Y-14068269D01*
X15585896Y-14068269D02*
X15490658Y-14087317D01*
X15757325Y-14153984D02*
X15757325Y-13953984D01*
X15757325Y-14144460D02*
X15738277Y-14153984D01*
X15738277Y-14153984D02*
X15700182Y-14153984D01*
X15700182Y-14153984D02*
X15681134Y-14144460D01*
X15681134Y-14144460D02*
X15671611Y-14134936D01*
X15671611Y-14134936D02*
X15662087Y-14115888D01*
X15662087Y-14115888D02*
X15662087Y-14058746D01*
X15662087Y-14058746D02*
X15671611Y-14039698D01*
X15671611Y-14039698D02*
X15681134Y-14030174D01*
X15681134Y-14030174D02*
X15700182Y-14020650D01*
X15700182Y-14020650D02*
X15738277Y-14020650D01*
X15738277Y-14020650D02*
X15757325Y-14030174D01*
X15833515Y-14230174D02*
X15843039Y-14220650D01*
X15843039Y-14220650D02*
X15862087Y-14192079D01*
X15862087Y-14192079D02*
X15871611Y-14173031D01*
X15871611Y-14173031D02*
X15881134Y-14144460D01*
X15881134Y-14144460D02*
X15890658Y-14096841D01*
X15890658Y-14096841D02*
X15890658Y-14058746D01*
X15890658Y-14058746D02*
X15881134Y-14011127D01*
X15881134Y-14011127D02*
X15871611Y-13982555D01*
X15871611Y-13982555D02*
X15862087Y-13963508D01*
X15862087Y-13963508D02*
X15843039Y-13934936D01*
X15843039Y-13934936D02*
X15833515Y-13925412D01*
X9077500Y-14326500D02*
G75*
G02*
X8877500Y-14326500I-100000J0D01*
G01*
X8877500Y-14326500D02*
G75*
G02*
X9077500Y-14326500I100000J0D01*
G01*
X9328753Y-14237031D02*
X9338277Y-14227508D01*
X9338277Y-14227508D02*
X9357324Y-14217984D01*
X9357324Y-14217984D02*
X9404944Y-14217984D01*
X9404944Y-14217984D02*
X9423991Y-14227508D01*
X9423991Y-14227508D02*
X9433515Y-14237031D01*
X9433515Y-14237031D02*
X9443039Y-14256079D01*
X9443039Y-14256079D02*
X9443039Y-14275127D01*
X9443039Y-14275127D02*
X9433515Y-14303698D01*
X9433515Y-14303698D02*
X9319229Y-14417984D01*
X9319229Y-14417984D02*
X9443039Y-14417984D01*
X9528753Y-14398936D02*
X9538277Y-14408460D01*
X9538277Y-14408460D02*
X9528753Y-14417984D01*
X9528753Y-14417984D02*
X9519229Y-14408460D01*
X9519229Y-14408460D02*
X9528753Y-14398936D01*
X9528753Y-14398936D02*
X9528753Y-14417984D01*
X9728753Y-14417984D02*
X9614467Y-14417984D01*
X9671610Y-14417984D02*
X9671610Y-14217984D01*
X9671610Y-14217984D02*
X9652563Y-14246555D01*
X9652563Y-14246555D02*
X9633515Y-14265603D01*
X9633515Y-14265603D02*
X9614467Y-14275127D01*
X9852563Y-14217984D02*
X9871610Y-14217984D01*
X9871610Y-14217984D02*
X9890658Y-14227508D01*
X9890658Y-14227508D02*
X9900182Y-14237031D01*
X9900182Y-14237031D02*
X9909705Y-14256079D01*
X9909705Y-14256079D02*
X9919229Y-14294174D01*
X9919229Y-14294174D02*
X9919229Y-14341793D01*
X9919229Y-14341793D02*
X9909705Y-14379888D01*
X9909705Y-14379888D02*
X9900182Y-14398936D01*
X9900182Y-14398936D02*
X9890658Y-14408460D01*
X9890658Y-14408460D02*
X9871610Y-14417984D01*
X9871610Y-14417984D02*
X9852563Y-14417984D01*
X9852563Y-14417984D02*
X9833515Y-14408460D01*
X9833515Y-14408460D02*
X9823991Y-14398936D01*
X9823991Y-14398936D02*
X9814467Y-14379888D01*
X9814467Y-14379888D02*
X9804944Y-14341793D01*
X9804944Y-14341793D02*
X9804944Y-14294174D01*
X9804944Y-14294174D02*
X9814467Y-14256079D01*
X9814467Y-14256079D02*
X9823991Y-14237031D01*
X9823991Y-14237031D02*
X9833515Y-14227508D01*
X9833515Y-14227508D02*
X9852563Y-14217984D01*
X10043039Y-14217984D02*
X10062086Y-14217984D01*
X10062086Y-14217984D02*
X10081134Y-14227508D01*
X10081134Y-14227508D02*
X10090658Y-14237031D01*
X10090658Y-14237031D02*
X10100182Y-14256079D01*
X10100182Y-14256079D02*
X10109705Y-14294174D01*
X10109705Y-14294174D02*
X10109705Y-14341793D01*
X10109705Y-14341793D02*
X10100182Y-14379888D01*
X10100182Y-14379888D02*
X10090658Y-14398936D01*
X10090658Y-14398936D02*
X10081134Y-14408460D01*
X10081134Y-14408460D02*
X10062086Y-14417984D01*
X10062086Y-14417984D02*
X10043039Y-14417984D01*
X10043039Y-14417984D02*
X10023991Y-14408460D01*
X10023991Y-14408460D02*
X10014467Y-14398936D01*
X10014467Y-14398936D02*
X10004944Y-14379888D01*
X10004944Y-14379888D02*
X9995420Y-14341793D01*
X9995420Y-14341793D02*
X9995420Y-14294174D01*
X9995420Y-14294174D02*
X10004944Y-14256079D01*
X10004944Y-14256079D02*
X10014467Y-14237031D01*
X10014467Y-14237031D02*
X10023991Y-14227508D01*
X10023991Y-14227508D02*
X10043039Y-14217984D01*
X10195420Y-14417984D02*
X10195420Y-14284650D01*
X10195420Y-14303698D02*
X10204944Y-14294174D01*
X10204944Y-14294174D02*
X10223991Y-14284650D01*
X10223991Y-14284650D02*
X10252563Y-14284650D01*
X10252563Y-14284650D02*
X10271610Y-14294174D01*
X10271610Y-14294174D02*
X10281134Y-14313222D01*
X10281134Y-14313222D02*
X10281134Y-14417984D01*
X10281134Y-14313222D02*
X10290658Y-14294174D01*
X10290658Y-14294174D02*
X10309705Y-14284650D01*
X10309705Y-14284650D02*
X10338277Y-14284650D01*
X10338277Y-14284650D02*
X10357325Y-14294174D01*
X10357325Y-14294174D02*
X10366848Y-14313222D01*
X10366848Y-14313222D02*
X10366848Y-14417984D01*
X10462086Y-14417984D02*
X10462086Y-14284650D01*
X10462086Y-14303698D02*
X10471610Y-14294174D01*
X10471610Y-14294174D02*
X10490658Y-14284650D01*
X10490658Y-14284650D02*
X10519229Y-14284650D01*
X10519229Y-14284650D02*
X10538277Y-14294174D01*
X10538277Y-14294174D02*
X10547801Y-14313222D01*
X10547801Y-14313222D02*
X10547801Y-14417984D01*
X10547801Y-14313222D02*
X10557325Y-14294174D01*
X10557325Y-14294174D02*
X10576372Y-14284650D01*
X10576372Y-14284650D02*
X10604944Y-14284650D01*
X10604944Y-14284650D02*
X10623991Y-14294174D01*
X10623991Y-14294174D02*
X10633515Y-14313222D01*
X10633515Y-14313222D02*
X10633515Y-14417984D01*
X11023991Y-14208460D02*
X10852563Y-14465603D01*
X11281134Y-14217984D02*
X11300182Y-14217984D01*
X11300182Y-14217984D02*
X11319229Y-14227508D01*
X11319229Y-14227508D02*
X11328753Y-14237031D01*
X11328753Y-14237031D02*
X11338277Y-14256079D01*
X11338277Y-14256079D02*
X11347801Y-14294174D01*
X11347801Y-14294174D02*
X11347801Y-14341793D01*
X11347801Y-14341793D02*
X11338277Y-14379888D01*
X11338277Y-14379888D02*
X11328753Y-14398936D01*
X11328753Y-14398936D02*
X11319229Y-14408460D01*
X11319229Y-14408460D02*
X11300182Y-14417984D01*
X11300182Y-14417984D02*
X11281134Y-14417984D01*
X11281134Y-14417984D02*
X11262086Y-14408460D01*
X11262086Y-14408460D02*
X11252563Y-14398936D01*
X11252563Y-14398936D02*
X11243039Y-14379888D01*
X11243039Y-14379888D02*
X11233515Y-14341793D01*
X11233515Y-14341793D02*
X11233515Y-14294174D01*
X11233515Y-14294174D02*
X11243039Y-14256079D01*
X11243039Y-14256079D02*
X11252563Y-14237031D01*
X11252563Y-14237031D02*
X11262086Y-14227508D01*
X11262086Y-14227508D02*
X11281134Y-14217984D01*
X11433515Y-14398936D02*
X11443039Y-14408460D01*
X11443039Y-14408460D02*
X11433515Y-14417984D01*
X11433515Y-14417984D02*
X11423991Y-14408460D01*
X11423991Y-14408460D02*
X11433515Y-14398936D01*
X11433515Y-14398936D02*
X11433515Y-14417984D01*
X11566848Y-14217984D02*
X11585896Y-14217984D01*
X11585896Y-14217984D02*
X11604944Y-14227508D01*
X11604944Y-14227508D02*
X11614467Y-14237031D01*
X11614467Y-14237031D02*
X11623991Y-14256079D01*
X11623991Y-14256079D02*
X11633515Y-14294174D01*
X11633515Y-14294174D02*
X11633515Y-14341793D01*
X11633515Y-14341793D02*
X11623991Y-14379888D01*
X11623991Y-14379888D02*
X11614467Y-14398936D01*
X11614467Y-14398936D02*
X11604944Y-14408460D01*
X11604944Y-14408460D02*
X11585896Y-14417984D01*
X11585896Y-14417984D02*
X11566848Y-14417984D01*
X11566848Y-14417984D02*
X11547801Y-14408460D01*
X11547801Y-14408460D02*
X11538277Y-14398936D01*
X11538277Y-14398936D02*
X11528753Y-14379888D01*
X11528753Y-14379888D02*
X11519229Y-14341793D01*
X11519229Y-14341793D02*
X11519229Y-14294174D01*
X11519229Y-14294174D02*
X11528753Y-14256079D01*
X11528753Y-14256079D02*
X11538277Y-14237031D01*
X11538277Y-14237031D02*
X11547801Y-14227508D01*
X11547801Y-14227508D02*
X11566848Y-14217984D01*
X11747801Y-14303698D02*
X11728753Y-14294174D01*
X11728753Y-14294174D02*
X11719229Y-14284650D01*
X11719229Y-14284650D02*
X11709706Y-14265603D01*
X11709706Y-14265603D02*
X11709706Y-14256079D01*
X11709706Y-14256079D02*
X11719229Y-14237031D01*
X11719229Y-14237031D02*
X11728753Y-14227508D01*
X11728753Y-14227508D02*
X11747801Y-14217984D01*
X11747801Y-14217984D02*
X11785896Y-14217984D01*
X11785896Y-14217984D02*
X11804944Y-14227508D01*
X11804944Y-14227508D02*
X11814467Y-14237031D01*
X11814467Y-14237031D02*
X11823991Y-14256079D01*
X11823991Y-14256079D02*
X11823991Y-14265603D01*
X11823991Y-14265603D02*
X11814467Y-14284650D01*
X11814467Y-14284650D02*
X11804944Y-14294174D01*
X11804944Y-14294174D02*
X11785896Y-14303698D01*
X11785896Y-14303698D02*
X11747801Y-14303698D01*
X11747801Y-14303698D02*
X11728753Y-14313222D01*
X11728753Y-14313222D02*
X11719229Y-14322746D01*
X11719229Y-14322746D02*
X11709706Y-14341793D01*
X11709706Y-14341793D02*
X11709706Y-14379888D01*
X11709706Y-14379888D02*
X11719229Y-14398936D01*
X11719229Y-14398936D02*
X11728753Y-14408460D01*
X11728753Y-14408460D02*
X11747801Y-14417984D01*
X11747801Y-14417984D02*
X11785896Y-14417984D01*
X11785896Y-14417984D02*
X11804944Y-14408460D01*
X11804944Y-14408460D02*
X11814467Y-14398936D01*
X11814467Y-14398936D02*
X11823991Y-14379888D01*
X11823991Y-14379888D02*
X11823991Y-14341793D01*
X11823991Y-14341793D02*
X11814467Y-14322746D01*
X11814467Y-14322746D02*
X11804944Y-14313222D01*
X11804944Y-14313222D02*
X11785896Y-14303698D01*
X11900182Y-14237031D02*
X11909706Y-14227508D01*
X11909706Y-14227508D02*
X11928753Y-14217984D01*
X11928753Y-14217984D02*
X11976372Y-14217984D01*
X11976372Y-14217984D02*
X11995420Y-14227508D01*
X11995420Y-14227508D02*
X12004944Y-14237031D01*
X12004944Y-14237031D02*
X12014467Y-14256079D01*
X12014467Y-14256079D02*
X12014467Y-14275127D01*
X12014467Y-14275127D02*
X12004944Y-14303698D01*
X12004944Y-14303698D02*
X11890658Y-14417984D01*
X11890658Y-14417984D02*
X12014467Y-14417984D01*
X12081134Y-14217984D02*
X12214467Y-14217984D01*
X12214467Y-14217984D02*
X12128753Y-14417984D01*
X12281134Y-14217984D02*
X12281134Y-14256079D01*
X12357325Y-14217984D02*
X12357325Y-14256079D01*
X12652563Y-14494174D02*
X12643039Y-14484650D01*
X12643039Y-14484650D02*
X12623991Y-14456079D01*
X12623991Y-14456079D02*
X12614468Y-14437031D01*
X12614468Y-14437031D02*
X12604944Y-14408460D01*
X12604944Y-14408460D02*
X12595420Y-14360841D01*
X12595420Y-14360841D02*
X12595420Y-14322746D01*
X12595420Y-14322746D02*
X12604944Y-14275127D01*
X12604944Y-14275127D02*
X12614468Y-14246555D01*
X12614468Y-14246555D02*
X12623991Y-14227508D01*
X12623991Y-14227508D02*
X12643039Y-14198936D01*
X12643039Y-14198936D02*
X12652563Y-14189412D01*
X12833515Y-14417984D02*
X12719229Y-14417984D01*
X12776372Y-14417984D02*
X12776372Y-14217984D01*
X12776372Y-14217984D02*
X12757325Y-14246555D01*
X12757325Y-14246555D02*
X12738277Y-14265603D01*
X12738277Y-14265603D02*
X12719229Y-14275127D01*
X12909706Y-14237031D02*
X12919229Y-14227508D01*
X12919229Y-14227508D02*
X12938277Y-14217984D01*
X12938277Y-14217984D02*
X12985896Y-14217984D01*
X12985896Y-14217984D02*
X13004944Y-14227508D01*
X13004944Y-14227508D02*
X13014468Y-14237031D01*
X13014468Y-14237031D02*
X13023991Y-14256079D01*
X13023991Y-14256079D02*
X13023991Y-14275127D01*
X13023991Y-14275127D02*
X13014468Y-14303698D01*
X13014468Y-14303698D02*
X12900182Y-14417984D01*
X12900182Y-14417984D02*
X13023991Y-14417984D01*
X13262087Y-14417984D02*
X13262087Y-14217984D01*
X13347801Y-14417984D02*
X13347801Y-14313222D01*
X13347801Y-14313222D02*
X13338277Y-14294174D01*
X13338277Y-14294174D02*
X13319230Y-14284650D01*
X13319230Y-14284650D02*
X13290658Y-14284650D01*
X13290658Y-14284650D02*
X13271610Y-14294174D01*
X13271610Y-14294174D02*
X13262087Y-14303698D01*
X13471610Y-14417984D02*
X13452563Y-14408460D01*
X13452563Y-14408460D02*
X13443039Y-14398936D01*
X13443039Y-14398936D02*
X13433515Y-14379888D01*
X13433515Y-14379888D02*
X13433515Y-14322746D01*
X13433515Y-14322746D02*
X13443039Y-14303698D01*
X13443039Y-14303698D02*
X13452563Y-14294174D01*
X13452563Y-14294174D02*
X13471610Y-14284650D01*
X13471610Y-14284650D02*
X13500182Y-14284650D01*
X13500182Y-14284650D02*
X13519230Y-14294174D01*
X13519230Y-14294174D02*
X13528753Y-14303698D01*
X13528753Y-14303698D02*
X13538277Y-14322746D01*
X13538277Y-14322746D02*
X13538277Y-14379888D01*
X13538277Y-14379888D02*
X13528753Y-14398936D01*
X13528753Y-14398936D02*
X13519230Y-14408460D01*
X13519230Y-14408460D02*
X13500182Y-14417984D01*
X13500182Y-14417984D02*
X13471610Y-14417984D01*
X13652563Y-14417984D02*
X13633515Y-14408460D01*
X13633515Y-14408460D02*
X13623991Y-14389412D01*
X13623991Y-14389412D02*
X13623991Y-14217984D01*
X13804944Y-14408460D02*
X13785896Y-14417984D01*
X13785896Y-14417984D02*
X13747801Y-14417984D01*
X13747801Y-14417984D02*
X13728753Y-14408460D01*
X13728753Y-14408460D02*
X13719230Y-14389412D01*
X13719230Y-14389412D02*
X13719230Y-14313222D01*
X13719230Y-14313222D02*
X13728753Y-14294174D01*
X13728753Y-14294174D02*
X13747801Y-14284650D01*
X13747801Y-14284650D02*
X13785896Y-14284650D01*
X13785896Y-14284650D02*
X13804944Y-14294174D01*
X13804944Y-14294174D02*
X13814468Y-14313222D01*
X13814468Y-14313222D02*
X13814468Y-14332269D01*
X13814468Y-14332269D02*
X13719230Y-14351317D01*
X13890658Y-14408460D02*
X13909706Y-14417984D01*
X13909706Y-14417984D02*
X13947801Y-14417984D01*
X13947801Y-14417984D02*
X13966849Y-14408460D01*
X13966849Y-14408460D02*
X13976372Y-14389412D01*
X13976372Y-14389412D02*
X13976372Y-14379888D01*
X13976372Y-14379888D02*
X13966849Y-14360841D01*
X13966849Y-14360841D02*
X13947801Y-14351317D01*
X13947801Y-14351317D02*
X13919230Y-14351317D01*
X13919230Y-14351317D02*
X13900182Y-14341793D01*
X13900182Y-14341793D02*
X13890658Y-14322746D01*
X13890658Y-14322746D02*
X13890658Y-14313222D01*
X13890658Y-14313222D02*
X13900182Y-14294174D01*
X13900182Y-14294174D02*
X13919230Y-14284650D01*
X13919230Y-14284650D02*
X13947801Y-14284650D01*
X13947801Y-14284650D02*
X13966849Y-14294174D01*
X14043039Y-14494174D02*
X14052563Y-14484650D01*
X14052563Y-14484650D02*
X14071611Y-14456079D01*
X14071611Y-14456079D02*
X14081134Y-14437031D01*
X14081134Y-14437031D02*
X14090658Y-14408460D01*
X14090658Y-14408460D02*
X14100182Y-14360841D01*
X14100182Y-14360841D02*
X14100182Y-14322746D01*
X14100182Y-14322746D02*
X14090658Y-14275127D01*
X14090658Y-14275127D02*
X14081134Y-14246555D01*
X14081134Y-14246555D02*
X14071611Y-14227508D01*
X14071611Y-14227508D02*
X14052563Y-14198936D01*
X14052563Y-14198936D02*
X14043039Y-14189412D01*
X14404944Y-14494174D02*
X14395420Y-14484650D01*
X14395420Y-14484650D02*
X14376372Y-14456079D01*
X14376372Y-14456079D02*
X14366849Y-14437031D01*
X14366849Y-14437031D02*
X14357325Y-14408460D01*
X14357325Y-14408460D02*
X14347801Y-14360841D01*
X14347801Y-14360841D02*
X14347801Y-14322746D01*
X14347801Y-14322746D02*
X14357325Y-14275127D01*
X14357325Y-14275127D02*
X14366849Y-14246555D01*
X14366849Y-14246555D02*
X14376372Y-14227508D01*
X14376372Y-14227508D02*
X14395420Y-14198936D01*
X14395420Y-14198936D02*
X14404944Y-14189412D01*
X14481134Y-14284650D02*
X14481134Y-14417984D01*
X14481134Y-14303698D02*
X14490658Y-14294174D01*
X14490658Y-14294174D02*
X14509706Y-14284650D01*
X14509706Y-14284650D02*
X14538277Y-14284650D01*
X14538277Y-14284650D02*
X14557325Y-14294174D01*
X14557325Y-14294174D02*
X14566849Y-14313222D01*
X14566849Y-14313222D02*
X14566849Y-14417984D01*
X14690658Y-14417984D02*
X14671611Y-14408460D01*
X14671611Y-14408460D02*
X14662087Y-14398936D01*
X14662087Y-14398936D02*
X14652563Y-14379888D01*
X14652563Y-14379888D02*
X14652563Y-14322746D01*
X14652563Y-14322746D02*
X14662087Y-14303698D01*
X14662087Y-14303698D02*
X14671611Y-14294174D01*
X14671611Y-14294174D02*
X14690658Y-14284650D01*
X14690658Y-14284650D02*
X14719230Y-14284650D01*
X14719230Y-14284650D02*
X14738277Y-14294174D01*
X14738277Y-14294174D02*
X14747801Y-14303698D01*
X14747801Y-14303698D02*
X14757325Y-14322746D01*
X14757325Y-14322746D02*
X14757325Y-14379888D01*
X14757325Y-14379888D02*
X14747801Y-14398936D01*
X14747801Y-14398936D02*
X14738277Y-14408460D01*
X14738277Y-14408460D02*
X14719230Y-14417984D01*
X14719230Y-14417984D02*
X14690658Y-14417984D01*
X14814468Y-14284650D02*
X14890658Y-14284650D01*
X14843039Y-14217984D02*
X14843039Y-14389412D01*
X14843039Y-14389412D02*
X14852563Y-14408460D01*
X14852563Y-14408460D02*
X14871611Y-14417984D01*
X14871611Y-14417984D02*
X14890658Y-14417984D01*
X15109706Y-14284650D02*
X15109706Y-14484650D01*
X15109706Y-14294174D02*
X15128753Y-14284650D01*
X15128753Y-14284650D02*
X15166849Y-14284650D01*
X15166849Y-14284650D02*
X15185896Y-14294174D01*
X15185896Y-14294174D02*
X15195420Y-14303698D01*
X15195420Y-14303698D02*
X15204944Y-14322746D01*
X15204944Y-14322746D02*
X15204944Y-14379888D01*
X15204944Y-14379888D02*
X15195420Y-14398936D01*
X15195420Y-14398936D02*
X15185896Y-14408460D01*
X15185896Y-14408460D02*
X15166849Y-14417984D01*
X15166849Y-14417984D02*
X15128753Y-14417984D01*
X15128753Y-14417984D02*
X15109706Y-14408460D01*
X15319230Y-14417984D02*
X15300182Y-14408460D01*
X15300182Y-14408460D02*
X15290658Y-14389412D01*
X15290658Y-14389412D02*
X15290658Y-14217984D01*
X15481134Y-14417984D02*
X15481134Y-14313222D01*
X15481134Y-14313222D02*
X15471611Y-14294174D01*
X15471611Y-14294174D02*
X15452563Y-14284650D01*
X15452563Y-14284650D02*
X15414468Y-14284650D01*
X15414468Y-14284650D02*
X15395420Y-14294174D01*
X15481134Y-14408460D02*
X15462087Y-14417984D01*
X15462087Y-14417984D02*
X15414468Y-14417984D01*
X15414468Y-14417984D02*
X15395420Y-14408460D01*
X15395420Y-14408460D02*
X15385896Y-14389412D01*
X15385896Y-14389412D02*
X15385896Y-14370365D01*
X15385896Y-14370365D02*
X15395420Y-14351317D01*
X15395420Y-14351317D02*
X15414468Y-14341793D01*
X15414468Y-14341793D02*
X15462087Y-14341793D01*
X15462087Y-14341793D02*
X15481134Y-14332269D01*
X15547801Y-14284650D02*
X15623992Y-14284650D01*
X15576373Y-14217984D02*
X15576373Y-14389412D01*
X15576373Y-14389412D02*
X15585896Y-14408460D01*
X15585896Y-14408460D02*
X15604944Y-14417984D01*
X15604944Y-14417984D02*
X15623992Y-14417984D01*
X15766849Y-14408460D02*
X15747801Y-14417984D01*
X15747801Y-14417984D02*
X15709706Y-14417984D01*
X15709706Y-14417984D02*
X15690658Y-14408460D01*
X15690658Y-14408460D02*
X15681134Y-14389412D01*
X15681134Y-14389412D02*
X15681134Y-14313222D01*
X15681134Y-14313222D02*
X15690658Y-14294174D01*
X15690658Y-14294174D02*
X15709706Y-14284650D01*
X15709706Y-14284650D02*
X15747801Y-14284650D01*
X15747801Y-14284650D02*
X15766849Y-14294174D01*
X15766849Y-14294174D02*
X15776373Y-14313222D01*
X15776373Y-14313222D02*
X15776373Y-14332269D01*
X15776373Y-14332269D02*
X15681134Y-14351317D01*
X15947801Y-14417984D02*
X15947801Y-14217984D01*
X15947801Y-14408460D02*
X15928754Y-14417984D01*
X15928754Y-14417984D02*
X15890658Y-14417984D01*
X15890658Y-14417984D02*
X15871611Y-14408460D01*
X15871611Y-14408460D02*
X15862087Y-14398936D01*
X15862087Y-14398936D02*
X15852563Y-14379888D01*
X15852563Y-14379888D02*
X15852563Y-14322746D01*
X15852563Y-14322746D02*
X15862087Y-14303698D01*
X15862087Y-14303698D02*
X15871611Y-14294174D01*
X15871611Y-14294174D02*
X15890658Y-14284650D01*
X15890658Y-14284650D02*
X15928754Y-14284650D01*
X15928754Y-14284650D02*
X15947801Y-14294174D01*
X16023992Y-14494174D02*
X16033515Y-14484650D01*
X16033515Y-14484650D02*
X16052563Y-14456079D01*
X16052563Y-14456079D02*
X16062087Y-14437031D01*
X16062087Y-14437031D02*
X16071611Y-14408460D01*
X16071611Y-14408460D02*
X16081134Y-14360841D01*
X16081134Y-14360841D02*
X16081134Y-14322746D01*
X16081134Y-14322746D02*
X16071611Y-14275127D01*
X16071611Y-14275127D02*
X16062087Y-14246555D01*
X16062087Y-14246555D02*
X16052563Y-14227508D01*
X16052563Y-14227508D02*
X16033515Y-14198936D01*
X16033515Y-14198936D02*
X16023992Y-14189412D01*
M02*
