%TF.GenerationSoftware,KiCad,Pcbnew,8.0.4*%
%TF.CreationDate,2024-11-30T14:10:01+01:00*%
%TF.ProjectId,ALL_PCBS,414c4c5f-5043-4425-932e-6b696361645f,rev?*%
%TF.SameCoordinates,Original*%
%TF.FileFunction,Plated,1,4,PTH,Drill*%
%TF.FilePolarity,Positive*%
%FSLAX46Y46*%
G04 Gerber Fmt 4.6, Leading zero omitted, Abs format (unit mm)*
G04 Created by KiCad (PCBNEW 8.0.4) date 2024-11-30 14:10:01*
%MOMM*%
%LPD*%
G01*
G04 APERTURE LIST*
%TA.AperFunction,ViaDrill*%
%ADD10C,0.260000*%
%TD*%
%TA.AperFunction,ViaDrill*%
%ADD11C,0.300000*%
%TD*%
%TA.AperFunction,ViaDrill*%
%ADD12C,0.400000*%
%TD*%
%TA.AperFunction,ViaDrill*%
%ADD13C,0.600000*%
%TD*%
%TA.AperFunction,ComponentDrill*%
%ADD14C,1.000000*%
%TD*%
G04 APERTURE END LIST*
D10*
X147925000Y-117250000D03*
X150100000Y-116175000D03*
X156900000Y-117900000D03*
X156925000Y-118800000D03*
X157100000Y-127500000D03*
X157100000Y-128700000D03*
X158262500Y-119512500D03*
X158400000Y-121175000D03*
X158500000Y-112300000D03*
X158593413Y-111493413D03*
X158800000Y-118900000D03*
X159604722Y-122275000D03*
X162650000Y-117000000D03*
X163125000Y-120600000D03*
X164037347Y-119237347D03*
X164600000Y-123100000D03*
X164750000Y-121100000D03*
X165300000Y-115675000D03*
X165400000Y-124000000D03*
X178900000Y-119962347D03*
X181268769Y-106355595D03*
X181300000Y-107200000D03*
X181350000Y-108075000D03*
X192725000Y-120075000D03*
X205430000Y-125358000D03*
D11*
X98980000Y-97080000D03*
X99075000Y-98625000D03*
X100000000Y-97200000D03*
X101000000Y-96900000D03*
X102750000Y-94950000D03*
X102750000Y-96450000D03*
X102750000Y-97950000D03*
X102750000Y-99450000D03*
X113190000Y-128390000D03*
X116150000Y-125530000D03*
X116975000Y-119975000D03*
X117050000Y-128400000D03*
X117240000Y-125530000D03*
X117750000Y-119750000D03*
X118330000Y-125530000D03*
X119025000Y-119800000D03*
X119025000Y-120850000D03*
X119525000Y-110375000D03*
X120575000Y-105350000D03*
X122280000Y-125530000D03*
X123275000Y-110350000D03*
X123460000Y-125540000D03*
X124490000Y-125530000D03*
X125575000Y-109175000D03*
X125575000Y-110000000D03*
X125575000Y-111250000D03*
X126130000Y-114650000D03*
X126625000Y-112300000D03*
X127750000Y-122175000D03*
X133300000Y-110790000D03*
X133310000Y-109900000D03*
X133630000Y-114800000D03*
X137900000Y-121200000D03*
X142610000Y-112330000D03*
X142990000Y-121330000D03*
X144010000Y-106150000D03*
X144100000Y-111790000D03*
X144740000Y-106880000D03*
X144890000Y-110960000D03*
X145350000Y-107480000D03*
X149800000Y-124075000D03*
X151375000Y-112725000D03*
X152250000Y-111325000D03*
X154430000Y-113450000D03*
X158850000Y-105950000D03*
X163075000Y-130400000D03*
X164330000Y-132280000D03*
X165380000Y-132300000D03*
X166380000Y-132300000D03*
X166750000Y-129525000D03*
X170190000Y-125300000D03*
X172125000Y-110250000D03*
X172910000Y-117130000D03*
X174870000Y-120190000D03*
X175475000Y-113350000D03*
X178150000Y-121475000D03*
X178830000Y-113190000D03*
X178830000Y-115080000D03*
X179810000Y-115210000D03*
X179820000Y-113140000D03*
X179925000Y-127500000D03*
X185450000Y-121475000D03*
X185590000Y-130910000D03*
X185990000Y-127070000D03*
X192570000Y-130920000D03*
X193370000Y-132700000D03*
X199425000Y-105225000D03*
X199530000Y-133490000D03*
X200675000Y-108575000D03*
X202270000Y-112660000D03*
X203150000Y-112660000D03*
X204100000Y-112660000D03*
X206210000Y-117990000D03*
X207280000Y-117990000D03*
X207970000Y-112660000D03*
X208850000Y-112660000D03*
X208960000Y-117990000D03*
X209275000Y-130900000D03*
X209340000Y-127060000D03*
X209360000Y-125720000D03*
X209375000Y-124560000D03*
X209750000Y-112660000D03*
X223700000Y-94950000D03*
X223700000Y-96450000D03*
X223700000Y-97950000D03*
X223700000Y-99450000D03*
X225450000Y-97500000D03*
X226450000Y-97200000D03*
X227375000Y-95775000D03*
X227470000Y-97320000D03*
D12*
X120200000Y-113600000D03*
X121125000Y-112825000D03*
X122200000Y-113575000D03*
X126910000Y-119980000D03*
X151400000Y-124400000D03*
X153350000Y-115800000D03*
X153725000Y-124325000D03*
X154350000Y-127425000D03*
X154650000Y-129550000D03*
X155550000Y-127950000D03*
X155700000Y-110500000D03*
X155700000Y-112900000D03*
X157525000Y-123625000D03*
X157780000Y-122020000D03*
X158388000Y-109812000D03*
X158700000Y-96550000D03*
X160675000Y-99700000D03*
X161360000Y-94600000D03*
X162000000Y-130000000D03*
X162900000Y-94875000D03*
X164712653Y-112712653D03*
X165375000Y-96975000D03*
X166250000Y-99875000D03*
X166325625Y-111099344D03*
X167625000Y-95525000D03*
X167675571Y-111075026D03*
X169325000Y-126400000D03*
X169400000Y-119962347D03*
X169750000Y-111200000D03*
X169762500Y-108887500D03*
X174400000Y-124370000D03*
X178450000Y-127100000D03*
X179450000Y-121375000D03*
X185425000Y-128625000D03*
X187000000Y-111575000D03*
X192970000Y-129200000D03*
X193910000Y-128360000D03*
X198775000Y-117800000D03*
X203652000Y-127898000D03*
X204414000Y-124850000D03*
X206700000Y-124596000D03*
X207716000Y-127898000D03*
D13*
X100600000Y-101500000D03*
X100600000Y-104200000D03*
X102000000Y-101500000D03*
X102000000Y-104200000D03*
X156800000Y-101200000D03*
X158200000Y-101200000D03*
X168400000Y-101200000D03*
X169800000Y-101200000D03*
X224600000Y-101400000D03*
X224700000Y-104200000D03*
X226000000Y-101400000D03*
X226000000Y-104200000D03*
D14*
%TO.C,P4*%
X113800000Y-106200000D03*
%TO.C,P3*%
X113800000Y-132200000D03*
%TO.C,+VIN-*%
X169410000Y-132290000D03*
X171950000Y-132290000D03*
%TO.C,P1*%
X212800000Y-106200000D03*
%TO.C,P2*%
X212800000Y-132200000D03*
M02*
